G75*
%MOIN*%
%OFA0B0*%
%FSLAX25Y25*%
%IPPOS*%
%LPD*%
%AMOC8*
5,1,8,0,0,1.08239X$1,22.5*
%
%ADD10C,0.00500*%
%ADD11C,0.00800*%
%ADD12C,0.01000*%
%ADD13C,0.00300*%
%ADD14C,0.00600*%
%ADD15R,0.01181X0.00591*%
%ADD16R,0.01181X0.01181*%
%ADD17C,0.00700*%
%ADD18C,0.00591*%
D10*
X0021472Y0026369D02*
X0018472Y0029369D01*
X0018472Y0034369D01*
X0020472Y0036369D01*
X0018472Y0038369D01*
X0018472Y0044369D01*
X0020472Y0046369D01*
X0018472Y0048369D01*
X0018472Y0053369D01*
X0021472Y0056369D01*
X0035472Y0056369D01*
X0038472Y0053369D01*
X0038472Y0048369D01*
X0036472Y0046369D01*
X0038472Y0044369D01*
X0038472Y0038369D01*
X0036472Y0036369D01*
X0038472Y0034369D01*
X0038472Y0029369D01*
X0035472Y0026369D01*
X0021472Y0026369D01*
X0052856Y0044619D02*
X0052856Y0048121D01*
X0054608Y0048121D01*
X0055191Y0047538D01*
X0055191Y0046370D01*
X0054608Y0045786D01*
X0052856Y0045786D01*
X0054024Y0045786D02*
X0055191Y0044619D01*
X0056539Y0044619D02*
X0058875Y0044619D01*
X0057707Y0044619D02*
X0057707Y0048121D01*
X0056539Y0046954D01*
X0056539Y0052119D02*
X0058875Y0052119D01*
X0057707Y0052119D02*
X0057707Y0055621D01*
X0056539Y0054454D01*
X0055191Y0055038D02*
X0054608Y0055621D01*
X0053440Y0055621D01*
X0052856Y0055038D01*
X0052856Y0052702D01*
X0053440Y0052119D01*
X0054608Y0052119D01*
X0055191Y0052702D01*
X0054608Y0066119D02*
X0055191Y0066702D01*
X0054608Y0066119D02*
X0053440Y0066119D01*
X0052856Y0066702D01*
X0052856Y0069038D01*
X0053440Y0069621D01*
X0054608Y0069621D01*
X0055191Y0069038D01*
X0056539Y0069038D02*
X0057123Y0069621D01*
X0058291Y0069621D01*
X0058875Y0069038D01*
X0058875Y0068454D01*
X0056539Y0066119D01*
X0058875Y0066119D01*
X0090222Y0081702D02*
X0090806Y0081119D01*
X0091974Y0081119D01*
X0092558Y0081702D01*
X0092558Y0084621D01*
X0093906Y0083454D02*
X0095073Y0084621D01*
X0095073Y0081119D01*
X0093906Y0081119D02*
X0096241Y0081119D01*
X0090222Y0081702D02*
X0090222Y0084621D01*
X0125707Y0080085D02*
X0125707Y0077750D01*
X0126291Y0077166D01*
X0127458Y0077166D01*
X0128042Y0077750D01*
X0129390Y0077750D02*
X0129974Y0077166D01*
X0131141Y0077166D01*
X0131725Y0077750D01*
X0131725Y0078333D01*
X0131141Y0078917D01*
X0130557Y0078917D01*
X0131141Y0078917D02*
X0131725Y0079501D01*
X0131725Y0080085D01*
X0131141Y0080669D01*
X0129974Y0080669D01*
X0129390Y0080085D01*
X0128042Y0080085D02*
X0127458Y0080669D01*
X0126291Y0080669D01*
X0125707Y0080085D01*
X0152856Y0079619D02*
X0152856Y0083121D01*
X0154608Y0083121D01*
X0155191Y0082538D01*
X0155191Y0081370D01*
X0154608Y0080786D01*
X0152856Y0080786D01*
X0154024Y0080786D02*
X0155191Y0079619D01*
X0156539Y0080202D02*
X0157123Y0079619D01*
X0158291Y0079619D01*
X0158875Y0080202D01*
X0158875Y0082538D01*
X0158291Y0083121D01*
X0157123Y0083121D01*
X0156539Y0082538D01*
X0156539Y0081954D01*
X0157123Y0081370D01*
X0158875Y0081370D01*
X0158291Y0085619D02*
X0157123Y0085619D01*
X0156539Y0086202D01*
X0156539Y0086786D01*
X0157123Y0087370D01*
X0158291Y0087370D01*
X0158875Y0086786D01*
X0158875Y0086202D01*
X0158291Y0085619D01*
X0158291Y0087370D02*
X0158875Y0087954D01*
X0158875Y0088538D01*
X0158291Y0089121D01*
X0157123Y0089121D01*
X0156539Y0088538D01*
X0156539Y0087954D01*
X0157123Y0087370D01*
X0155191Y0087370D02*
X0155191Y0088538D01*
X0154608Y0089121D01*
X0152856Y0089121D01*
X0152856Y0085619D01*
X0152856Y0086786D02*
X0154608Y0086786D01*
X0155191Y0087370D01*
X0154024Y0086786D02*
X0155191Y0085619D01*
X0155191Y0091619D02*
X0154024Y0092786D01*
X0154608Y0092786D02*
X0152856Y0092786D01*
X0152856Y0091619D02*
X0152856Y0095121D01*
X0154608Y0095121D01*
X0155191Y0094538D01*
X0155191Y0093370D01*
X0154608Y0092786D01*
X0156539Y0092202D02*
X0156539Y0091619D01*
X0156539Y0092202D02*
X0158875Y0094538D01*
X0158875Y0095121D01*
X0156539Y0095121D01*
X0157123Y0097619D02*
X0158291Y0097619D01*
X0158875Y0098202D01*
X0158875Y0098786D01*
X0158291Y0099370D01*
X0156539Y0099370D01*
X0156539Y0098202D01*
X0157123Y0097619D01*
X0156539Y0099370D02*
X0157707Y0100538D01*
X0158875Y0101121D01*
X0155191Y0100538D02*
X0155191Y0099370D01*
X0154608Y0098786D01*
X0152856Y0098786D01*
X0152856Y0097619D02*
X0152856Y0101121D01*
X0154608Y0101121D01*
X0155191Y0100538D01*
X0154024Y0098786D02*
X0155191Y0097619D01*
X0175472Y0078369D02*
X0175472Y0138369D01*
X0235472Y0138369D01*
X0235472Y0078369D01*
X0175472Y0078369D01*
X0175472Y0073369D02*
X0175472Y0013369D01*
X0235472Y0013369D01*
X0235472Y0073369D01*
X0175472Y0073369D01*
X0167323Y0069621D02*
X0167323Y0066119D01*
X0166156Y0066119D02*
X0168491Y0066119D01*
X0164808Y0066119D02*
X0163640Y0067286D01*
X0163056Y0066119D02*
X0162472Y0066702D01*
X0162472Y0069038D01*
X0163056Y0069621D01*
X0164224Y0069621D01*
X0164808Y0069038D01*
X0164808Y0066702D01*
X0164224Y0066119D01*
X0163056Y0066119D01*
X0166156Y0068454D02*
X0167323Y0069621D01*
X0240472Y0073369D02*
X0240472Y0013369D01*
X0300472Y0013369D01*
X0300472Y0073369D01*
X0240472Y0073369D01*
X0240472Y0078369D02*
X0240472Y0138369D01*
X0300472Y0138369D01*
X0300472Y0078369D01*
X0240472Y0078369D01*
X0305472Y0078369D02*
X0305472Y0138369D01*
X0365472Y0138369D01*
X0365472Y0078369D01*
X0305472Y0078369D01*
X0305472Y0073369D02*
X0305472Y0013369D01*
X0365472Y0013369D01*
X0365472Y0073369D01*
X0305472Y0073369D01*
X0370472Y0073369D02*
X0370472Y0013369D01*
X0430472Y0013369D01*
X0430472Y0073369D01*
X0370472Y0073369D01*
X0370472Y0078369D02*
X0370472Y0138369D01*
X0430472Y0138369D01*
X0430472Y0078369D01*
X0370472Y0078369D01*
X0371890Y0139619D02*
X0373058Y0140786D01*
X0373058Y0143121D01*
X0374406Y0142538D02*
X0374989Y0143121D01*
X0376157Y0143121D01*
X0376741Y0142538D01*
X0376741Y0140202D01*
X0376157Y0139619D01*
X0374989Y0139619D01*
X0374406Y0140202D01*
X0374406Y0142538D01*
X0378089Y0143121D02*
X0378089Y0139619D01*
X0380424Y0139619D01*
X0385455Y0141370D02*
X0387790Y0141370D01*
X0386623Y0142538D02*
X0386623Y0140202D01*
X0371890Y0139619D02*
X0370722Y0140786D01*
X0370722Y0143121D01*
X0341206Y0143121D02*
X0338871Y0143121D01*
X0338871Y0139619D01*
X0341206Y0139619D01*
X0340038Y0141370D02*
X0338871Y0141370D01*
X0337523Y0140786D02*
X0337523Y0140202D01*
X0336939Y0139619D01*
X0335771Y0139619D01*
X0335188Y0140202D01*
X0335771Y0141370D02*
X0336939Y0141370D01*
X0337523Y0140786D01*
X0337523Y0142538D02*
X0336939Y0143121D01*
X0335771Y0143121D01*
X0335188Y0142538D01*
X0335188Y0141954D01*
X0335771Y0141370D01*
X0333840Y0140202D02*
X0333840Y0143121D01*
X0331504Y0143121D02*
X0331504Y0140202D01*
X0332088Y0139619D01*
X0333256Y0139619D01*
X0333840Y0140202D01*
X0330157Y0139619D02*
X0330157Y0141954D01*
X0328989Y0143121D01*
X0327821Y0141954D01*
X0327821Y0139619D01*
X0327821Y0141370D02*
X0330157Y0141370D01*
X0326473Y0141370D02*
X0325890Y0140786D01*
X0324138Y0140786D01*
X0324138Y0139619D02*
X0324138Y0143121D01*
X0325890Y0143121D01*
X0326473Y0142538D01*
X0326473Y0141370D01*
X0322790Y0143121D02*
X0320455Y0139619D01*
X0317940Y0139619D02*
X0317940Y0141370D01*
X0319107Y0142538D01*
X0319107Y0143121D01*
X0317940Y0141370D02*
X0316772Y0142538D01*
X0316772Y0143121D01*
X0315424Y0141954D02*
X0315424Y0139619D01*
X0315424Y0141370D02*
X0313089Y0141370D01*
X0313089Y0141954D02*
X0314256Y0143121D01*
X0315424Y0141954D01*
X0313089Y0141954D02*
X0313089Y0139619D01*
X0311741Y0139619D02*
X0309406Y0139619D01*
X0309406Y0143121D01*
X0308058Y0142538D02*
X0307474Y0143121D01*
X0305722Y0143121D01*
X0305722Y0139619D01*
X0305722Y0140786D02*
X0307474Y0140786D01*
X0308058Y0141370D01*
X0308058Y0142538D01*
X0254107Y0142538D02*
X0254107Y0141370D01*
X0253523Y0140786D01*
X0251772Y0140786D01*
X0251772Y0139619D02*
X0251772Y0143121D01*
X0253523Y0143121D01*
X0254107Y0142538D01*
X0250424Y0142538D02*
X0250424Y0140202D01*
X0249840Y0139619D01*
X0248673Y0139619D01*
X0248089Y0140202D01*
X0248089Y0142538D01*
X0248673Y0143121D01*
X0249840Y0143121D01*
X0250424Y0142538D01*
X0246741Y0143121D02*
X0244406Y0143121D01*
X0245573Y0143121D02*
X0245573Y0139619D01*
X0243058Y0140202D02*
X0242474Y0139619D01*
X0241306Y0139619D01*
X0240722Y0140202D01*
X0241306Y0141370D02*
X0242474Y0141370D01*
X0243058Y0140786D01*
X0243058Y0140202D01*
X0241306Y0141370D02*
X0240722Y0141954D01*
X0240722Y0142538D01*
X0241306Y0143121D01*
X0242474Y0143121D01*
X0243058Y0142538D01*
X0214889Y0143121D02*
X0212554Y0143121D01*
X0213722Y0143121D02*
X0213722Y0139619D01*
X0211206Y0140202D02*
X0210622Y0139619D01*
X0209455Y0139619D01*
X0208871Y0140202D01*
X0208871Y0142538D01*
X0209455Y0143121D01*
X0210622Y0143121D01*
X0211206Y0142538D01*
X0207523Y0143121D02*
X0205188Y0143121D01*
X0205188Y0139619D01*
X0207523Y0139619D01*
X0206355Y0141370D02*
X0205188Y0141370D01*
X0203840Y0139619D02*
X0201504Y0139619D01*
X0201504Y0143121D01*
X0200157Y0143121D02*
X0197821Y0143121D01*
X0197821Y0139619D01*
X0200157Y0139619D01*
X0198989Y0141370D02*
X0197821Y0141370D01*
X0196473Y0140786D02*
X0195890Y0141370D01*
X0194722Y0141370D01*
X0194138Y0141954D01*
X0194138Y0142538D01*
X0194722Y0143121D01*
X0195890Y0143121D01*
X0196473Y0142538D01*
X0196473Y0140786D02*
X0196473Y0140202D01*
X0195890Y0139619D01*
X0194722Y0139619D01*
X0194138Y0140202D01*
X0189107Y0139619D02*
X0186772Y0139619D01*
X0186772Y0143121D01*
X0189107Y0143121D01*
X0187940Y0141370D02*
X0186772Y0141370D01*
X0185424Y0141370D02*
X0185424Y0140202D01*
X0184840Y0139619D01*
X0183673Y0139619D01*
X0183089Y0140202D01*
X0183089Y0142538D01*
X0183673Y0143121D01*
X0184840Y0143121D01*
X0185424Y0142538D01*
X0185424Y0141370D02*
X0184256Y0141370D01*
X0181741Y0141370D02*
X0179406Y0141370D01*
X0179406Y0141954D02*
X0180573Y0143121D01*
X0181741Y0141954D01*
X0181741Y0139619D01*
X0179406Y0139619D02*
X0179406Y0141954D01*
X0178058Y0142538D02*
X0178058Y0141370D01*
X0177474Y0140786D01*
X0175722Y0140786D01*
X0175722Y0139619D02*
X0175722Y0143121D01*
X0177474Y0143121D01*
X0178058Y0142538D01*
X0172340Y0132621D02*
X0172924Y0132038D01*
X0170589Y0129702D01*
X0171173Y0129119D01*
X0172340Y0129119D01*
X0172924Y0129702D01*
X0172924Y0132038D01*
X0172340Y0132621D02*
X0171173Y0132621D01*
X0170589Y0132038D01*
X0170589Y0129702D01*
X0169241Y0129119D02*
X0166906Y0129119D01*
X0168073Y0129119D02*
X0168073Y0132621D01*
X0166906Y0131454D01*
X0165558Y0132038D02*
X0165558Y0130870D01*
X0164974Y0130286D01*
X0163222Y0130286D01*
X0163222Y0129119D02*
X0163222Y0132621D01*
X0164974Y0132621D01*
X0165558Y0132038D01*
X0164390Y0130286D02*
X0165558Y0129119D01*
X0108107Y0129202D02*
X0107523Y0128619D01*
X0105772Y0128619D01*
X0105772Y0132121D01*
X0107523Y0132121D01*
X0108107Y0131538D01*
X0108107Y0129202D01*
X0104424Y0128619D02*
X0103256Y0129786D01*
X0103840Y0129786D02*
X0102089Y0129786D01*
X0102089Y0128619D02*
X0102089Y0132121D01*
X0103840Y0132121D01*
X0104424Y0131538D01*
X0104424Y0130370D01*
X0103840Y0129786D01*
X0100741Y0130370D02*
X0098406Y0130370D01*
X0098406Y0130954D02*
X0098406Y0128619D01*
X0097058Y0129202D02*
X0097058Y0131538D01*
X0096474Y0132121D01*
X0095306Y0132121D01*
X0094722Y0131538D01*
X0094722Y0129202D01*
X0095306Y0128619D01*
X0096474Y0128619D01*
X0097058Y0129202D01*
X0098406Y0130954D02*
X0099573Y0132121D01*
X0100741Y0130954D01*
X0100741Y0128619D01*
X0093375Y0129202D02*
X0092791Y0128619D01*
X0091039Y0128619D01*
X0091039Y0132121D01*
X0092791Y0132121D01*
X0093375Y0131538D01*
X0093375Y0130954D01*
X0092791Y0130370D01*
X0091039Y0130370D01*
X0092791Y0130370D02*
X0093375Y0129786D01*
X0093375Y0129202D01*
X0089691Y0131538D02*
X0089691Y0132121D01*
X0089691Y0131538D02*
X0088524Y0130370D01*
X0088524Y0128619D01*
X0088524Y0130370D02*
X0087356Y0131538D01*
X0087356Y0132121D01*
X0086008Y0132121D02*
X0083673Y0132121D01*
X0083673Y0128619D01*
X0086008Y0128619D01*
X0084841Y0130370D02*
X0083673Y0130370D01*
X0082325Y0128619D02*
X0080574Y0130370D01*
X0079990Y0129786D02*
X0082325Y0132121D01*
X0079990Y0132121D02*
X0079990Y0128619D01*
X0083673Y0134619D02*
X0085424Y0134619D01*
X0086008Y0135202D01*
X0086008Y0135786D01*
X0085424Y0136370D01*
X0083673Y0136370D01*
X0083673Y0134619D02*
X0083673Y0138121D01*
X0085424Y0138121D01*
X0086008Y0137538D01*
X0086008Y0136954D01*
X0085424Y0136370D01*
X0087356Y0135202D02*
X0087940Y0134619D01*
X0089108Y0134619D01*
X0089691Y0135202D01*
X0089691Y0138121D01*
X0091039Y0138121D02*
X0093375Y0138121D01*
X0092207Y0138121D02*
X0092207Y0134619D01*
X0095890Y0134619D02*
X0095890Y0138121D01*
X0094722Y0138121D02*
X0097058Y0138121D01*
X0098406Y0137538D02*
X0098406Y0135202D01*
X0098989Y0134619D01*
X0100157Y0134619D01*
X0100741Y0135202D01*
X0100741Y0137538D01*
X0100157Y0138121D01*
X0098989Y0138121D01*
X0098406Y0137538D01*
X0102089Y0138121D02*
X0104424Y0134619D01*
X0104424Y0138121D01*
X0102089Y0138121D02*
X0102089Y0134619D01*
X0101999Y0140619D02*
X0100831Y0140619D01*
X0100247Y0141202D01*
X0100247Y0141786D01*
X0100831Y0142370D01*
X0101999Y0142370D01*
X0102582Y0141786D01*
X0102582Y0141202D01*
X0101999Y0140619D01*
X0101999Y0142370D02*
X0102582Y0142954D01*
X0102582Y0143538D01*
X0101999Y0144121D01*
X0100831Y0144121D01*
X0100247Y0143538D01*
X0100247Y0142954D01*
X0100831Y0142370D01*
X0095216Y0142954D02*
X0094632Y0142370D01*
X0092881Y0142370D01*
X0091533Y0141786D02*
X0091533Y0141202D01*
X0090949Y0140619D01*
X0089782Y0140619D01*
X0089198Y0141202D01*
X0089782Y0142370D02*
X0090949Y0142370D01*
X0091533Y0141786D01*
X0091533Y0143538D02*
X0090949Y0144121D01*
X0089782Y0144121D01*
X0089198Y0143538D01*
X0089198Y0142954D01*
X0089782Y0142370D01*
X0087850Y0141202D02*
X0087266Y0140619D01*
X0086098Y0140619D01*
X0085515Y0141202D01*
X0085515Y0144121D01*
X0087850Y0144121D02*
X0087850Y0141202D01*
X0092881Y0140619D02*
X0094632Y0140619D01*
X0095216Y0141202D01*
X0095216Y0141786D01*
X0094632Y0142370D01*
X0095216Y0142954D02*
X0095216Y0143538D01*
X0094632Y0144121D01*
X0092881Y0144121D01*
X0092881Y0140619D01*
X0087356Y0138121D02*
X0087356Y0135202D01*
X0048707Y0113121D02*
X0048707Y0109619D01*
X0047539Y0109619D02*
X0049875Y0109619D01*
X0047539Y0111954D02*
X0048707Y0113121D01*
X0046191Y0112538D02*
X0045608Y0113121D01*
X0043856Y0113121D01*
X0043856Y0109619D01*
X0045608Y0109619D01*
X0046191Y0110202D01*
X0046191Y0112538D01*
X0030023Y0090121D02*
X0030607Y0089538D01*
X0030607Y0088954D01*
X0030023Y0088370D01*
X0028272Y0088370D01*
X0026924Y0087786D02*
X0026924Y0087202D01*
X0026340Y0086619D01*
X0025173Y0086619D01*
X0024589Y0087202D01*
X0025173Y0088370D02*
X0026340Y0088370D01*
X0026924Y0087786D01*
X0028272Y0086619D02*
X0030023Y0086619D01*
X0030607Y0087202D01*
X0030607Y0087786D01*
X0030023Y0088370D01*
X0030023Y0090121D02*
X0028272Y0090121D01*
X0028272Y0086619D01*
X0025173Y0088370D02*
X0024589Y0088954D01*
X0024589Y0089538D01*
X0025173Y0090121D01*
X0026340Y0090121D01*
X0026924Y0089538D01*
X0023241Y0090121D02*
X0023241Y0087202D01*
X0022657Y0086619D01*
X0021489Y0086619D01*
X0020906Y0087202D01*
X0020906Y0090121D01*
X0019558Y0090121D02*
X0019558Y0086619D01*
X0017222Y0086619D02*
X0017222Y0090121D01*
X0018390Y0088954D01*
X0019558Y0090121D01*
X0152856Y0037121D02*
X0154608Y0037121D01*
X0155191Y0036538D01*
X0155191Y0035370D01*
X0154608Y0034786D01*
X0152856Y0034786D01*
X0152856Y0033619D02*
X0152856Y0037121D01*
X0156539Y0036538D02*
X0157123Y0037121D01*
X0158291Y0037121D01*
X0158875Y0036538D01*
X0158875Y0035954D01*
X0156539Y0033619D01*
X0158875Y0033619D01*
X0155191Y0033619D02*
X0154024Y0034786D01*
X0154608Y0031121D02*
X0155191Y0030538D01*
X0155191Y0029370D01*
X0154608Y0028786D01*
X0152856Y0028786D01*
X0152856Y0027619D02*
X0152856Y0031121D01*
X0154608Y0031121D01*
X0156539Y0030538D02*
X0157123Y0031121D01*
X0158291Y0031121D01*
X0158875Y0030538D01*
X0158875Y0029954D01*
X0158291Y0029370D01*
X0158875Y0028786D01*
X0158875Y0028202D01*
X0158291Y0027619D01*
X0157123Y0027619D01*
X0156539Y0028202D01*
X0155191Y0027619D02*
X0154024Y0028786D01*
X0157707Y0029370D02*
X0158291Y0029370D01*
X0158291Y0025121D02*
X0156539Y0023370D01*
X0158875Y0023370D01*
X0158291Y0021619D02*
X0158291Y0025121D01*
X0155191Y0024538D02*
X0155191Y0023370D01*
X0154608Y0022786D01*
X0152856Y0022786D01*
X0152856Y0021619D02*
X0152856Y0025121D01*
X0154608Y0025121D01*
X0155191Y0024538D01*
X0154024Y0022786D02*
X0155191Y0021619D01*
X0154608Y0019121D02*
X0155191Y0018538D01*
X0155191Y0017370D01*
X0154608Y0016786D01*
X0152856Y0016786D01*
X0152856Y0015619D02*
X0152856Y0019121D01*
X0154608Y0019121D01*
X0156539Y0019121D02*
X0156539Y0017370D01*
X0157707Y0017954D01*
X0158291Y0017954D01*
X0158875Y0017370D01*
X0158875Y0016202D01*
X0158291Y0015619D01*
X0157123Y0015619D01*
X0156539Y0016202D01*
X0155191Y0015619D02*
X0154024Y0016786D01*
X0156539Y0019121D02*
X0158875Y0019121D01*
X0175722Y0010370D02*
X0178058Y0012121D01*
X0179406Y0010370D02*
X0181741Y0012121D01*
X0179406Y0010370D02*
X0181741Y0008619D01*
X0178058Y0008619D02*
X0175722Y0010370D01*
X0113741Y0017119D02*
X0111406Y0017119D01*
X0112573Y0017119D02*
X0112573Y0020621D01*
X0111406Y0019454D01*
X0110058Y0020038D02*
X0110058Y0020621D01*
X0110058Y0020038D02*
X0108890Y0018870D01*
X0108890Y0017119D01*
X0108890Y0018870D02*
X0107722Y0020038D01*
X0107722Y0020621D01*
X0240722Y0012121D02*
X0243058Y0010370D01*
X0240722Y0008619D01*
X0244406Y0008619D02*
X0246741Y0010370D01*
X0244406Y0012121D01*
X0305722Y0012121D02*
X0305722Y0008619D01*
X0308058Y0008619D02*
X0308058Y0012121D01*
X0306890Y0010954D01*
X0305722Y0012121D01*
X0309406Y0012121D02*
X0309406Y0009202D01*
X0309989Y0008619D01*
X0311157Y0008619D01*
X0311741Y0009202D01*
X0311741Y0012121D01*
X0313089Y0012121D02*
X0315424Y0012121D01*
X0314256Y0012121D02*
X0314256Y0008619D01*
X0316772Y0008619D02*
X0319107Y0008619D01*
X0317940Y0010370D02*
X0316772Y0010370D01*
X0316772Y0012121D02*
X0316772Y0008619D01*
X0316772Y0012121D02*
X0319107Y0012121D01*
X0370722Y0012121D02*
X0370722Y0009786D01*
X0371890Y0008619D01*
X0373058Y0009786D01*
X0373058Y0012121D01*
X0374406Y0011538D02*
X0374406Y0009202D01*
X0374989Y0008619D01*
X0376157Y0008619D01*
X0376741Y0009202D01*
X0376741Y0011538D01*
X0376157Y0012121D01*
X0374989Y0012121D01*
X0374406Y0011538D01*
X0378089Y0012121D02*
X0378089Y0008619D01*
X0380424Y0008619D01*
X0385455Y0010370D02*
X0387790Y0010370D01*
D11*
X0160984Y0067975D02*
X0160984Y0071124D01*
X0158622Y0071124D01*
X0152323Y0071124D02*
X0149961Y0071124D01*
X0149961Y0067975D01*
X0119370Y0070691D02*
X0119370Y0036046D01*
X0117795Y0034471D01*
X0083150Y0034471D01*
X0081575Y0036046D01*
X0081575Y0070691D01*
X0083150Y0072266D01*
X0117795Y0072266D01*
X0119370Y0070691D01*
X0052516Y0114809D02*
X0050941Y0114809D01*
X0050941Y0119928D01*
X0045429Y0119928D01*
X0050941Y0119928D02*
X0052516Y0119928D01*
X0050941Y0114809D02*
X0045429Y0114809D01*
X0091606Y0022888D02*
X0091606Y0017769D01*
X0106369Y0017769D02*
X0106369Y0022888D01*
D12*
X0083611Y0069117D02*
X0083613Y0069184D01*
X0083619Y0069250D01*
X0083629Y0069316D01*
X0083643Y0069381D01*
X0083660Y0069445D01*
X0083682Y0069508D01*
X0083707Y0069570D01*
X0083736Y0069630D01*
X0083769Y0069688D01*
X0083804Y0069744D01*
X0083844Y0069798D01*
X0083886Y0069849D01*
X0083931Y0069898D01*
X0083979Y0069944D01*
X0084030Y0069987D01*
X0084083Y0070027D01*
X0084139Y0070064D01*
X0084197Y0070097D01*
X0084256Y0070127D01*
X0084317Y0070153D01*
X0084380Y0070176D01*
X0084444Y0070194D01*
X0084509Y0070209D01*
X0084575Y0070220D01*
X0084641Y0070227D01*
X0084707Y0070230D01*
X0084774Y0070229D01*
X0084840Y0070224D01*
X0084906Y0070215D01*
X0084972Y0070202D01*
X0085036Y0070185D01*
X0085099Y0070165D01*
X0085161Y0070140D01*
X0085222Y0070112D01*
X0085281Y0070081D01*
X0085337Y0070046D01*
X0085392Y0070008D01*
X0085444Y0069966D01*
X0085493Y0069921D01*
X0085540Y0069874D01*
X0085584Y0069824D01*
X0085624Y0069771D01*
X0085662Y0069716D01*
X0085696Y0069659D01*
X0085727Y0069600D01*
X0085754Y0069539D01*
X0085777Y0069477D01*
X0085797Y0069413D01*
X0085813Y0069348D01*
X0085825Y0069283D01*
X0085833Y0069217D01*
X0085837Y0069150D01*
X0085837Y0069084D01*
X0085833Y0069017D01*
X0085825Y0068951D01*
X0085813Y0068886D01*
X0085797Y0068821D01*
X0085777Y0068757D01*
X0085754Y0068695D01*
X0085727Y0068634D01*
X0085696Y0068575D01*
X0085662Y0068518D01*
X0085624Y0068463D01*
X0085584Y0068410D01*
X0085540Y0068360D01*
X0085493Y0068313D01*
X0085444Y0068268D01*
X0085392Y0068226D01*
X0085337Y0068188D01*
X0085280Y0068153D01*
X0085222Y0068122D01*
X0085161Y0068094D01*
X0085099Y0068069D01*
X0085036Y0068049D01*
X0084972Y0068032D01*
X0084906Y0068019D01*
X0084840Y0068010D01*
X0084774Y0068005D01*
X0084707Y0068004D01*
X0084641Y0068007D01*
X0084575Y0068014D01*
X0084509Y0068025D01*
X0084444Y0068040D01*
X0084380Y0068058D01*
X0084317Y0068081D01*
X0084256Y0068107D01*
X0084197Y0068137D01*
X0084139Y0068170D01*
X0084083Y0068207D01*
X0084030Y0068247D01*
X0083979Y0068290D01*
X0083931Y0068336D01*
X0083886Y0068385D01*
X0083844Y0068436D01*
X0083804Y0068490D01*
X0083769Y0068546D01*
X0083736Y0068604D01*
X0083707Y0068664D01*
X0083682Y0068726D01*
X0083660Y0068789D01*
X0083643Y0068853D01*
X0083629Y0068918D01*
X0083619Y0068984D01*
X0083613Y0069050D01*
X0083611Y0069117D01*
X0035283Y0095727D02*
X0028197Y0095727D01*
X0035283Y0095727D02*
X0035283Y0104782D01*
X0018748Y0095727D02*
X0015992Y0095727D01*
X0035283Y0118955D02*
X0035283Y0128010D01*
X0028197Y0128010D01*
X0018748Y0128010D02*
X0015992Y0128010D01*
D13*
X0017857Y0059222D02*
X0017857Y0055519D01*
X0019091Y0055519D02*
X0016622Y0055519D01*
X0016622Y0057987D02*
X0017857Y0059222D01*
D14*
X0021391Y0020669D02*
X0022859Y0020669D01*
X0022125Y0020669D02*
X0022125Y0025072D01*
X0021391Y0025072D02*
X0022859Y0025072D01*
X0024461Y0024338D02*
X0024461Y0023604D01*
X0025195Y0022870D01*
X0026662Y0022870D01*
X0027396Y0022136D01*
X0027396Y0021402D01*
X0026662Y0020669D01*
X0025195Y0020669D01*
X0024461Y0021402D01*
X0029065Y0020669D02*
X0029065Y0025072D01*
X0031266Y0025072D01*
X0032000Y0024338D01*
X0032000Y0022870D01*
X0031266Y0022136D01*
X0029065Y0022136D01*
X0033668Y0020669D02*
X0036604Y0020669D01*
X0035136Y0020669D02*
X0035136Y0025072D01*
X0033668Y0023604D01*
X0027396Y0024338D02*
X0026662Y0025072D01*
X0025195Y0025072D01*
X0024461Y0024338D01*
D15*
X0157063Y0135892D03*
X0157063Y0138845D03*
D16*
X0157063Y0137369D03*
D17*
X0156847Y0140219D02*
X0156847Y0143755D01*
X0158615Y0145523D01*
X0160384Y0143755D01*
X0160384Y0140219D01*
X0162372Y0141103D02*
X0163256Y0140219D01*
X0165024Y0140219D01*
X0165908Y0141103D01*
X0165908Y0142871D01*
X0164140Y0142871D01*
X0162372Y0144639D02*
X0162372Y0141103D01*
X0167897Y0140219D02*
X0171433Y0140219D01*
X0167897Y0140219D02*
X0167897Y0145523D01*
X0171433Y0145523D01*
X0169665Y0142871D02*
X0167897Y0142871D01*
X0165908Y0144639D02*
X0165024Y0145523D01*
X0163256Y0145523D01*
X0162372Y0144639D01*
X0160384Y0142871D02*
X0156847Y0142871D01*
X0154859Y0142871D02*
X0153975Y0141987D01*
X0151322Y0141987D01*
X0151322Y0140219D02*
X0151322Y0145523D01*
X0153975Y0145523D01*
X0154859Y0144639D01*
X0154859Y0142871D01*
D18*
X0044334Y0142675D02*
X0040279Y0142675D01*
X0040255Y0142846D02*
X0040317Y0142409D01*
X0040274Y0141969D01*
X0040127Y0141552D01*
X0039886Y0141182D01*
X0039564Y0140880D01*
X0039179Y0140663D01*
X0040026Y0138617D01*
X0040624Y0138925D01*
X0042108Y0137715D01*
X0043126Y0138733D01*
X0041916Y0140217D01*
X0042224Y0140815D01*
X0042429Y0141455D01*
X0044334Y0141649D01*
X0044334Y0143088D01*
X0042429Y0143282D01*
X0042224Y0143922D01*
X0041916Y0144520D01*
X0043126Y0146004D01*
X0042108Y0147022D01*
X0040624Y0145812D01*
X0040026Y0146120D01*
X0039386Y0146325D01*
X0039192Y0148230D01*
X0037753Y0148230D01*
X0037559Y0146325D01*
X0036919Y0146120D01*
X0036321Y0145812D01*
X0034837Y0147022D01*
X0033819Y0146004D01*
X0035029Y0144520D01*
X0034721Y0143922D01*
X0034516Y0143282D01*
X0032611Y0143088D01*
X0032611Y0141649D01*
X0034516Y0141455D01*
X0034721Y0140815D01*
X0035029Y0140217D01*
X0033819Y0138733D01*
X0034837Y0137715D01*
X0036321Y0138925D01*
X0036919Y0138617D01*
X0037766Y0140663D01*
X0037388Y0140875D01*
X0037069Y0141170D01*
X0036828Y0141531D01*
X0036678Y0141938D01*
X0036627Y0142369D01*
X0036680Y0142807D01*
X0036835Y0143220D01*
X0037085Y0143585D01*
X0037414Y0143880D01*
X0037803Y0144088D01*
X0038231Y0144198D01*
X0038673Y0144202D01*
X0039103Y0144102D01*
X0039497Y0143902D01*
X0039833Y0143615D01*
X0040090Y0143256D01*
X0040255Y0142846D01*
X0040084Y0143264D02*
X0042607Y0143264D01*
X0042246Y0143853D02*
X0039555Y0143853D01*
X0040285Y0142086D02*
X0044334Y0142086D01*
X0042837Y0141497D02*
X0040091Y0141497D01*
X0039593Y0140908D02*
X0042253Y0140908D01*
X0041968Y0140319D02*
X0039322Y0140319D01*
X0039566Y0139729D02*
X0042313Y0139729D01*
X0042794Y0139140D02*
X0039810Y0139140D01*
X0041083Y0138551D02*
X0042945Y0138551D01*
X0042356Y0137962D02*
X0041805Y0137962D01*
X0037135Y0139140D02*
X0034151Y0139140D01*
X0034000Y0138551D02*
X0035862Y0138551D01*
X0035140Y0137962D02*
X0034589Y0137962D01*
X0034632Y0139729D02*
X0037379Y0139729D01*
X0037623Y0140319D02*
X0034977Y0140319D01*
X0034691Y0140908D02*
X0037353Y0140908D01*
X0036851Y0141497D02*
X0034108Y0141497D01*
X0032611Y0142086D02*
X0036660Y0142086D01*
X0036664Y0142675D02*
X0032611Y0142675D01*
X0034338Y0143264D02*
X0036865Y0143264D01*
X0037384Y0143853D02*
X0034699Y0143853D01*
X0034989Y0144442D02*
X0041956Y0144442D01*
X0042332Y0145031D02*
X0034613Y0145031D01*
X0034132Y0145620D02*
X0042813Y0145620D01*
X0042921Y0146209D02*
X0041111Y0146209D01*
X0041834Y0146798D02*
X0042332Y0146798D01*
X0039747Y0146209D02*
X0037198Y0146209D01*
X0037607Y0146798D02*
X0039338Y0146798D01*
X0039278Y0147387D02*
X0037667Y0147387D01*
X0037727Y0147976D02*
X0039218Y0147976D01*
X0035834Y0146209D02*
X0034024Y0146209D01*
X0034613Y0146798D02*
X0035111Y0146798D01*
M02*
