G75*
%MOIN*%
%OFA0B0*%
%FSLAX25Y25*%
%IPPOS*%
%LPD*%
%AMOC8*
5,1,8,0,0,1.08239X$1,22.5*
%
%ADD10C,0.11824*%
%ADD11R,0.06706X0.02769*%
%ADD12R,0.02769X0.06706*%
%ADD13C,0.07200*%
%ADD14R,0.03556X0.04343*%
%ADD15C,0.02572*%
%ADD16R,0.13760X0.06040*%
%ADD17R,0.06312X0.02375*%
%ADD18R,0.08280X0.08674*%
%ADD19R,0.08280X0.09461*%
%ADD20R,0.03280X0.04068*%
%ADD21R,0.04343X0.03556*%
%ADD22R,0.03950X0.04343*%
%ADD23C,0.10800*%
%ADD24C,0.10924*%
%ADD25C,0.16550*%
%ADD26C,0.07400*%
%ADD27R,0.03950X0.03950*%
%ADD28C,0.03900*%
D10*
X0024016Y0010337D03*
X0024362Y0141211D03*
X0433748Y0141211D03*
X0433748Y0010369D03*
D11*
X0123307Y0037620D03*
X0123307Y0040770D03*
X0123307Y0043920D03*
X0123307Y0047069D03*
X0123307Y0050219D03*
X0123307Y0053369D03*
X0123307Y0056518D03*
X0123307Y0059668D03*
X0123307Y0062817D03*
X0123307Y0065967D03*
X0123307Y0069117D03*
X0077638Y0069117D03*
X0077638Y0065967D03*
X0077638Y0062817D03*
X0077638Y0059668D03*
X0077638Y0056518D03*
X0077638Y0053369D03*
X0077638Y0050219D03*
X0077638Y0047069D03*
X0077638Y0043920D03*
X0077638Y0040770D03*
X0077638Y0037620D03*
D12*
X0084724Y0030534D03*
X0087874Y0030534D03*
X0091024Y0030534D03*
X0094173Y0030534D03*
X0097323Y0030534D03*
X0100472Y0030534D03*
X0103622Y0030534D03*
X0106772Y0030534D03*
X0109921Y0030534D03*
X0113071Y0030534D03*
X0116220Y0030534D03*
X0116220Y0076203D03*
X0113071Y0076203D03*
X0109921Y0076203D03*
X0106772Y0076203D03*
X0103622Y0076203D03*
X0100472Y0076203D03*
X0097323Y0076203D03*
X0094173Y0076203D03*
X0091024Y0076203D03*
X0087874Y0076203D03*
X0084724Y0076203D03*
D13*
X0033472Y0051369D03*
X0023472Y0051369D03*
X0023472Y0041369D03*
X0033472Y0041369D03*
X0033472Y0031369D03*
X0023472Y0031369D03*
D14*
X0062413Y0046369D03*
X0067531Y0046369D03*
X0067531Y0053869D03*
X0062413Y0053869D03*
X0062413Y0067869D03*
X0067531Y0067869D03*
X0162913Y0080369D03*
X0168031Y0080369D03*
X0168031Y0086369D03*
X0162913Y0086369D03*
X0162913Y0092369D03*
X0168031Y0092369D03*
X0168031Y0098369D03*
X0162913Y0098369D03*
X0159031Y0131369D03*
X0153913Y0131369D03*
X0162913Y0034369D03*
X0168031Y0034369D03*
X0168031Y0028369D03*
X0162913Y0028369D03*
X0162913Y0022369D03*
X0168031Y0022369D03*
X0168031Y0016369D03*
X0162913Y0016369D03*
D15*
X0103697Y0017505D02*
X0103697Y0023233D01*
X0098972Y0023233D02*
X0098972Y0017505D01*
X0094248Y0017505D02*
X0094248Y0023233D01*
D16*
X0098982Y0020378D03*
D17*
X0034693Y0106750D03*
X0034693Y0109309D03*
X0034693Y0111869D03*
X0034693Y0114428D03*
X0034693Y0116987D03*
D18*
X0023472Y0116790D03*
X0023472Y0106947D03*
D19*
X0023472Y0096120D03*
X0023472Y0127617D03*
D20*
X0044445Y0117369D03*
X0053500Y0117369D03*
D21*
X0121858Y0081014D03*
X0121858Y0075896D03*
D22*
X0151732Y0064431D03*
X0159213Y0064431D03*
X0155472Y0072699D03*
D23*
X0190472Y0053369D03*
X0215472Y0063369D03*
X0255472Y0053369D03*
X0280472Y0063369D03*
X0320472Y0053369D03*
X0345472Y0063369D03*
X0385472Y0053369D03*
X0410472Y0063369D03*
X0385472Y0118369D03*
X0410472Y0128369D03*
X0345472Y0128369D03*
X0320472Y0118369D03*
X0280472Y0128369D03*
X0255472Y0118369D03*
X0215472Y0128369D03*
X0190472Y0118369D03*
D24*
X0185472Y0108369D03*
X0225472Y0108369D03*
X0250472Y0108369D03*
X0290472Y0108369D03*
X0315472Y0108369D03*
X0355472Y0108369D03*
X0380472Y0108369D03*
X0420472Y0108369D03*
X0420472Y0043369D03*
X0380472Y0043369D03*
X0355472Y0043369D03*
X0315472Y0043369D03*
X0290472Y0043369D03*
X0250472Y0043369D03*
X0225472Y0043369D03*
X0185472Y0043369D03*
D25*
X0205472Y0043369D03*
X0270472Y0043369D03*
X0335472Y0043369D03*
X0400472Y0043369D03*
X0400472Y0108369D03*
X0335472Y0108369D03*
X0270472Y0108369D03*
X0205472Y0108369D03*
D26*
X0200472Y0093369D03*
X0210472Y0093369D03*
X0265472Y0093369D03*
X0275472Y0093369D03*
X0330472Y0093369D03*
X0340472Y0093369D03*
X0395472Y0093369D03*
X0405472Y0093369D03*
X0405472Y0028369D03*
X0395472Y0028369D03*
X0340472Y0028369D03*
X0330472Y0028369D03*
X0275472Y0028369D03*
X0265472Y0028369D03*
X0210472Y0028369D03*
X0200472Y0028369D03*
D27*
X0159425Y0137369D03*
X0153520Y0137369D03*
D28*
X0071972Y0090369D03*
X0072972Y0077869D03*
X0047972Y0070869D03*
X0037472Y0060869D03*
X0091972Y0063369D03*
X0111972Y0062869D03*
X0133972Y0064369D03*
X0145472Y0061369D03*
X0145472Y0054369D03*
X0137472Y0051869D03*
X0130472Y0050369D03*
X0109472Y0053369D03*
X0086472Y0038869D03*
X0099972Y0037369D03*
X0110472Y0037369D03*
X0135472Y0037869D03*
X0181472Y0022369D03*
X0189972Y0033869D03*
X0230472Y0025369D03*
X0245972Y0015869D03*
X0314472Y0025369D03*
X0373472Y0016369D03*
X0376972Y0084369D03*
X0308472Y0086369D03*
X0262972Y0085869D03*
X0184972Y0087869D03*
X0148372Y0078569D03*
X0142772Y0069969D03*
X0061972Y0039369D03*
X0053972Y0035369D03*
X0063472Y0033369D03*
X0065472Y0028869D03*
X0078972Y0029369D03*
X0054472Y0017369D03*
X0113472Y0010369D03*
X0133472Y0020869D03*
X0143972Y0020869D03*
X0043972Y0041369D03*
M02*
