G75*
%MOIN*%
%OFA0B0*%
%FSLAX25Y25*%
%IPPOS*%
%LPD*%
%AMOC8*
5,1,8,0,0,1.08239X$1,22.5*
%
%ADD10C,0.00600*%
%ADD11R,0.00320X0.00040*%
%ADD12R,0.00320X0.00040*%
%ADD13R,0.00960X0.00040*%
%ADD14R,0.01000X0.00040*%
%ADD15R,0.00920X0.00040*%
%ADD16R,0.01640X0.00040*%
%ADD17R,0.01600X0.00040*%
%ADD18R,0.01840X0.00040*%
%ADD19R,0.01800X0.00040*%
%ADD20R,0.01920X0.00040*%
%ADD21R,0.01920X0.00040*%
%ADD22R,0.02000X0.00040*%
%ADD23R,0.02040X0.00040*%
%ADD24R,0.02120X0.00040*%
%ADD25R,0.02080X0.00040*%
%ADD26R,0.02080X0.00040*%
%ADD27R,0.02120X0.00040*%
%ADD28R,0.02120X0.00040*%
%ADD29R,0.02200X0.00040*%
%ADD30R,0.02160X0.00040*%
%ADD31R,0.02320X0.00040*%
%ADD32R,0.02280X0.00040*%
%ADD33R,0.02360X0.00040*%
%ADD34R,0.02480X0.00040*%
%ADD35R,0.02440X0.00040*%
%ADD36R,0.02480X0.00040*%
%ADD37R,0.02600X0.00040*%
%ADD38R,0.02680X0.00040*%
%ADD39R,0.02680X0.00040*%
%ADD40R,0.02760X0.00040*%
%ADD41R,0.02800X0.00040*%
%ADD42R,0.02840X0.00040*%
%ADD43R,0.02880X0.00040*%
%ADD44R,0.02920X0.00040*%
%ADD45R,0.02880X0.00040*%
%ADD46R,0.02920X0.00040*%
%ADD47R,0.02920X0.00040*%
%ADD48R,0.02960X0.00040*%
%ADD49R,0.03000X0.00040*%
%ADD50R,0.02960X0.00040*%
%ADD51R,0.03120X0.00040*%
%ADD52R,0.03080X0.00040*%
%ADD53R,0.03120X0.00040*%
%ADD54R,0.03200X0.00040*%
%ADD55R,0.03240X0.00040*%
%ADD56R,0.03320X0.00040*%
%ADD57R,0.03320X0.00040*%
%ADD58R,0.03280X0.00040*%
%ADD59R,0.03440X0.00040*%
%ADD60R,0.03360X0.00040*%
%ADD61R,0.03480X0.00040*%
%ADD62R,0.03480X0.00040*%
%ADD63R,0.03520X0.00040*%
%ADD64R,0.03560X0.00040*%
%ADD65R,0.03520X0.00040*%
%ADD66R,0.03600X0.00040*%
%ADD67R,0.03560X0.00040*%
%ADD68R,0.03600X0.00040*%
%ADD69R,0.03640X0.00040*%
%ADD70R,0.03640X0.00040*%
%ADD71R,0.03680X0.00040*%
%ADD72R,0.03680X0.00040*%
%ADD73R,0.03680X0.00040*%
%ADD74R,0.03720X0.00040*%
%ADD75R,0.03720X0.00040*%
%ADD76R,0.03720X0.00040*%
%ADD77R,0.03720X0.00040*%
%ADD78R,0.03760X0.00040*%
%ADD79R,0.03760X0.00040*%
%ADD80R,0.03800X0.00040*%
%ADD81R,0.03760X0.00040*%
%ADD82R,0.03760X0.00040*%
%ADD83R,0.03800X0.00040*%
%ADD84R,0.03840X0.00040*%
%ADD85R,0.03840X0.00040*%
%ADD86R,0.03840X0.00040*%
%ADD87R,0.03880X0.00040*%
%ADD88R,0.03920X0.00040*%
%ADD89R,0.03960X0.00040*%
%ADD90R,0.03920X0.00040*%
%ADD91R,0.04000X0.00040*%
%ADD92R,0.04200X0.00040*%
%ADD93R,0.04160X0.00040*%
%ADD94R,0.04560X0.00040*%
%ADD95R,0.04560X0.00040*%
%ADD96R,0.04480X0.00040*%
%ADD97R,0.43440X0.00040*%
%ADD98R,0.43840X0.00040*%
%ADD99R,0.44120X0.00040*%
%ADD100R,0.44200X0.00040*%
%ADD101R,0.44240X0.00040*%
%ADD102R,0.44280X0.00040*%
%ADD103R,0.44320X0.00040*%
%ADD104R,0.44400X0.00040*%
%ADD105R,0.44560X0.00040*%
%ADD106R,0.44680X0.00040*%
%ADD107R,0.44880X0.00040*%
%ADD108R,0.45040X0.00040*%
%ADD109R,0.45120X0.00040*%
%ADD110R,0.45200X0.00040*%
%ADD111R,0.45240X0.00040*%
%ADD112R,0.45280X0.00040*%
%ADD113R,0.45320X0.00040*%
%ADD114R,0.45360X0.00040*%
%ADD115R,0.45480X0.00040*%
%ADD116R,0.45640X0.00040*%
%ADD117R,0.45720X0.00040*%
%ADD118R,0.45840X0.00040*%
%ADD119R,0.45920X0.00040*%
%ADD120R,0.45960X0.00040*%
%ADD121R,0.46000X0.00040*%
%ADD122R,0.46000X0.00040*%
%ADD123R,0.46040X0.00040*%
%ADD124R,0.46080X0.00040*%
%ADD125R,0.46080X0.00040*%
%ADD126R,0.46120X0.00040*%
%ADD127R,0.46120X0.00040*%
%ADD128R,0.46160X0.00040*%
%ADD129R,0.46200X0.00040*%
%ADD130R,0.46240X0.00040*%
%ADD131R,0.46280X0.00040*%
%ADD132R,0.46320X0.00040*%
%ADD133R,0.46360X0.00040*%
%ADD134R,0.46400X0.00040*%
%ADD135R,0.46400X0.00040*%
%ADD136R,0.46440X0.00040*%
%ADD137R,0.46440X0.00040*%
%ADD138R,0.46480X0.00040*%
%ADD139R,0.46480X0.00040*%
%ADD140R,0.04240X0.00040*%
%ADD141R,0.03920X0.00040*%
%ADD142R,0.03880X0.00040*%
%ADD143R,0.03920X0.00040*%
%ADD144R,0.03880X0.00040*%
%ADD145R,0.03840X0.00040*%
%ADD146R,0.03880X0.00040*%
%ADD147R,0.04080X0.00040*%
%ADD148R,0.04080X0.00040*%
%ADD149R,0.04160X0.00040*%
%ADD150R,0.10120X0.00040*%
%ADD151R,0.10120X0.00040*%
%ADD152R,0.10400X0.00040*%
%ADD153R,0.10480X0.00040*%
%ADD154R,0.10520X0.00040*%
%ADD155R,0.10560X0.00040*%
%ADD156R,0.10560X0.00040*%
%ADD157R,0.10600X0.00040*%
%ADD158R,0.10640X0.00040*%
%ADD159R,0.10680X0.00040*%
%ADD160R,0.10680X0.00040*%
%ADD161R,0.10720X0.00040*%
%ADD162R,0.10760X0.00040*%
%ADD163R,0.10840X0.00040*%
%ADD164R,0.10920X0.00040*%
%ADD165R,0.10960X0.00040*%
%ADD166R,0.11040X0.00040*%
%ADD167R,0.11080X0.00040*%
%ADD168R,0.11120X0.00040*%
%ADD169R,0.11160X0.00040*%
%ADD170R,0.11160X0.00040*%
%ADD171R,0.11200X0.00040*%
%ADD172R,0.11240X0.00040*%
%ADD173R,0.11280X0.00040*%
%ADD174R,0.11280X0.00040*%
%ADD175R,0.11280X0.00040*%
%ADD176R,0.11320X0.00040*%
%ADD177R,0.11320X0.00040*%
%ADD178R,0.11320X0.00040*%
%ADD179R,0.11400X0.00040*%
%ADD180R,0.11480X0.00040*%
%ADD181R,0.11480X0.00040*%
%ADD182R,0.11520X0.00040*%
%ADD183R,0.11520X0.00040*%
%ADD184R,0.11560X0.00040*%
%ADD185R,0.11560X0.00040*%
%ADD186R,0.11600X0.00040*%
%ADD187R,0.11640X0.00040*%
%ADD188R,0.11600X0.00040*%
%ADD189R,0.11640X0.00040*%
%ADD190R,0.11680X0.00040*%
%ADD191R,0.11680X0.00040*%
%ADD192R,0.11720X0.00040*%
%ADD193R,0.11720X0.00040*%
%ADD194R,0.11720X0.00040*%
%ADD195R,0.11800X0.00040*%
%ADD196R,0.11760X0.00040*%
%ADD197R,0.11840X0.00040*%
%ADD198R,0.11880X0.00040*%
%ADD199R,0.11880X0.00040*%
%ADD200R,0.11880X0.00040*%
%ADD201R,0.11880X0.00040*%
%ADD202R,0.11920X0.00040*%
%ADD203R,0.11920X0.00040*%
%ADD204R,0.11960X0.00040*%
%ADD205R,0.11960X0.00040*%
%ADD206R,0.11960X0.00040*%
%ADD207R,0.11960X0.00040*%
%ADD208R,0.12000X0.00040*%
%ADD209R,0.12000X0.00040*%
%ADD210R,0.11920X0.00040*%
%ADD211R,0.11840X0.00040*%
%ADD212R,0.11720X0.00040*%
%ADD213R,0.11680X0.00040*%
%ADD214R,0.11680X0.00040*%
%ADD215R,0.11560X0.00040*%
%ADD216R,0.11520X0.00040*%
%ADD217R,0.11440X0.00040*%
%ADD218R,0.11360X0.00040*%
%ADD219R,0.11360X0.00040*%
%ADD220R,0.11240X0.00040*%
%ADD221R,0.11280X0.00040*%
%ADD222R,0.11120X0.00040*%
%ADD223R,0.11160X0.00040*%
%ADD224R,0.11080X0.00040*%
%ADD225R,0.10960X0.00040*%
%ADD226R,0.10880X0.00040*%
%ADD227R,0.10880X0.00040*%
%ADD228R,0.10800X0.00040*%
%ADD229R,0.10680X0.00040*%
%ADD230R,0.10720X0.00040*%
%ADD231R,0.10640X0.00040*%
%ADD232R,0.10520X0.00040*%
%ADD233R,0.10360X0.00040*%
%ADD234R,0.10360X0.00040*%
%ADD235R,0.10040X0.00040*%
%ADD236R,0.10080X0.00040*%
%ADD237R,0.04120X0.00040*%
%ADD238R,0.04120X0.00040*%
%ADD239R,0.04040X0.00040*%
%ADD240R,0.03960X0.00040*%
%ADD241R,0.04040X0.00040*%
%ADD242R,0.04280X0.00040*%
%ADD243R,0.17000X0.00040*%
%ADD244R,0.10360X0.00040*%
%ADD245R,0.19120X0.00040*%
%ADD246R,0.20480X0.00040*%
%ADD247R,0.20840X0.00040*%
%ADD248R,0.21080X0.00040*%
%ADD249R,0.21280X0.00040*%
%ADD250R,0.10720X0.00040*%
%ADD251R,0.21480X0.00040*%
%ADD252R,0.21760X0.00040*%
%ADD253R,0.10880X0.00040*%
%ADD254R,0.22360X0.00040*%
%ADD255R,0.23000X0.00040*%
%ADD256R,0.24200X0.00040*%
%ADD257R,0.24600X0.00040*%
%ADD258R,0.24840X0.00040*%
%ADD259R,0.25040X0.00040*%
%ADD260R,0.25120X0.00040*%
%ADD261R,0.25240X0.00040*%
%ADD262R,0.11320X0.00040*%
%ADD263R,0.25320X0.00040*%
%ADD264R,0.25480X0.00040*%
%ADD265R,0.11440X0.00040*%
%ADD266R,0.25760X0.00040*%
%ADD267R,0.26200X0.00040*%
%ADD268R,0.26800X0.00040*%
%ADD269R,0.11560X0.00040*%
%ADD270R,0.27120X0.00040*%
%ADD271R,0.27400X0.00040*%
%ADD272R,0.27520X0.00040*%
%ADD273R,0.27640X0.00040*%
%ADD274R,0.27680X0.00040*%
%ADD275R,0.27800X0.00040*%
%ADD276R,0.27960X0.00040*%
%ADD277R,0.28160X0.00040*%
%ADD278R,0.28480X0.00040*%
%ADD279R,0.29200X0.00040*%
%ADD280R,0.11760X0.00040*%
%ADD281R,0.29480X0.00040*%
%ADD282R,0.29680X0.00040*%
%ADD283R,0.29800X0.00040*%
%ADD284R,0.29840X0.00040*%
%ADD285R,0.29920X0.00040*%
%ADD286R,0.30000X0.00040*%
%ADD287R,0.30080X0.00040*%
%ADD288R,0.30280X0.00040*%
%ADD289R,0.30400X0.00040*%
%ADD290R,0.30640X0.00040*%
%ADD291R,0.30880X0.00040*%
%ADD292R,0.31040X0.00040*%
%ADD293R,0.31120X0.00040*%
%ADD294R,0.31160X0.00040*%
%ADD295R,0.31200X0.00040*%
%ADD296R,0.31240X0.00040*%
%ADD297R,0.31320X0.00040*%
%ADD298R,0.31480X0.00040*%
%ADD299R,0.31640X0.00040*%
%ADD300R,0.31880X0.00040*%
%ADD301R,0.32040X0.00040*%
%ADD302R,0.32240X0.00040*%
%ADD303R,0.32280X0.00040*%
%ADD304R,0.32320X0.00040*%
%ADD305R,0.32320X0.00040*%
%ADD306R,0.32360X0.00040*%
%ADD307R,0.32400X0.00040*%
%ADD308R,0.32600X0.00040*%
%ADD309R,0.32800X0.00040*%
%ADD310R,0.33000X0.00040*%
%ADD311R,0.33160X0.00040*%
%ADD312R,0.33280X0.00040*%
%ADD313R,0.33320X0.00040*%
%ADD314R,0.33320X0.00040*%
%ADD315R,0.11760X0.00040*%
%ADD316R,0.33320X0.00040*%
%ADD317R,0.33360X0.00040*%
%ADD318R,0.33480X0.00040*%
%ADD319R,0.33640X0.00040*%
%ADD320R,0.33720X0.00040*%
%ADD321R,0.33840X0.00040*%
%ADD322R,0.33880X0.00040*%
%ADD323R,0.33920X0.00040*%
%ADD324R,0.33920X0.00040*%
%ADD325R,0.33960X0.00040*%
%ADD326R,0.34000X0.00040*%
%ADD327R,0.34040X0.00040*%
%ADD328R,0.34120X0.00040*%
%ADD329R,0.11400X0.00040*%
%ADD330R,0.34160X0.00040*%
%ADD331R,0.34160X0.00040*%
%ADD332R,0.34200X0.00040*%
%ADD333R,0.34240X0.00040*%
%ADD334R,0.34280X0.00040*%
%ADD335R,0.34280X0.00040*%
%ADD336R,0.34280X0.00040*%
%ADD337R,0.34360X0.00040*%
%ADD338R,0.34360X0.00040*%
%ADD339R,0.34400X0.00040*%
%ADD340R,0.10840X0.00040*%
%ADD341R,0.02640X0.00040*%
%ADD342R,0.34360X0.00040*%
%ADD343R,0.03040X0.00040*%
%ADD344R,0.34320X0.00040*%
%ADD345R,0.10480X0.00040*%
%ADD346R,0.03320X0.00040*%
%ADD347R,0.34240X0.00040*%
%ADD348R,0.03440X0.00040*%
%ADD349R,0.10120X0.00040*%
%ADD350R,0.17440X0.00040*%
%ADD351R,0.04400X0.00040*%
%ADD352R,0.19360X0.00040*%
%ADD353R,0.04000X0.00040*%
%ADD354R,0.18520X0.00040*%
%ADD355R,0.04040X0.00040*%
%ADD356R,0.17760X0.00040*%
%ADD357R,0.17400X0.00040*%
%ADD358R,0.17240X0.00040*%
%ADD359R,0.17160X0.00040*%
%ADD360R,0.17080X0.00040*%
%ADD361R,0.16960X0.00040*%
%ADD362R,0.16800X0.00040*%
%ADD363R,0.16560X0.00040*%
%ADD364R,0.15920X0.00040*%
%ADD365R,0.15640X0.00040*%
%ADD366R,0.15520X0.00040*%
%ADD367R,0.15400X0.00040*%
%ADD368R,0.15360X0.00040*%
%ADD369R,0.15280X0.00040*%
%ADD370R,0.15240X0.00040*%
%ADD371R,0.15160X0.00040*%
%ADD372R,0.15000X0.00040*%
%ADD373R,0.14720X0.00040*%
%ADD374R,0.14080X0.00040*%
%ADD375R,0.13800X0.00040*%
%ADD376R,0.13800X0.00040*%
%ADD377R,0.13760X0.00040*%
%ADD378R,0.13720X0.00040*%
%ADD379R,0.13680X0.00040*%
%ADD380R,0.13600X0.00040*%
%ADD381R,0.13480X0.00040*%
%ADD382R,0.13080X0.00040*%
%ADD383R,0.12960X0.00040*%
%ADD384R,0.12960X0.00040*%
%ADD385R,0.12920X0.00040*%
%ADD386R,0.12880X0.00040*%
%ADD387R,0.12840X0.00040*%
%ADD388R,0.12800X0.00040*%
%ADD389R,0.12800X0.00040*%
%ADD390R,0.12720X0.00040*%
%ADD391R,0.12440X0.00040*%
%ADD392R,0.12160X0.00040*%
%ADD393R,0.11120X0.00040*%
%ADD394R,0.11040X0.00040*%
%ADD395R,0.10760X0.00040*%
%ADD396R,0.10440X0.00040*%
%ADD397R,0.10320X0.00040*%
%ADD398R,0.10280X0.00040*%
%ADD399R,0.10320X0.00040*%
%ADD400R,0.10440X0.00040*%
%ADD401R,0.10600X0.00040*%
%ADD402R,0.10800X0.00040*%
%ADD403R,0.10880X0.00040*%
%ADD404R,0.10920X0.00040*%
%ADD405R,0.10920X0.00040*%
%ADD406R,0.10960X0.00040*%
%ADD407R,0.11000X0.00040*%
%ADD408R,0.11040X0.00040*%
%ADD409R,0.11080X0.00040*%
%ADD410R,0.11000X0.00040*%
%ADD411R,0.10440X0.00040*%
%ADD412R,0.10400X0.00040*%
%ADD413R,0.10240X0.00040*%
%ADD414R,0.10200X0.00040*%
%ADD415R,0.10120X0.00040*%
%ADD416R,0.10000X0.00040*%
%ADD417R,0.10000X0.00040*%
%ADD418R,0.09960X0.00040*%
%ADD419R,0.09920X0.00040*%
%ADD420R,0.09880X0.00040*%
%ADD421R,0.09800X0.00040*%
%ADD422R,0.09680X0.00040*%
%ADD423R,0.09640X0.00040*%
%ADD424R,0.09600X0.00040*%
%ADD425R,0.09600X0.00040*%
%ADD426R,0.09520X0.00040*%
%ADD427R,0.09440X0.00040*%
%ADD428R,0.09400X0.00040*%
%ADD429R,0.09320X0.00040*%
%ADD430R,0.09280X0.00040*%
%ADD431R,0.09240X0.00040*%
%ADD432R,0.09200X0.00040*%
%ADD433R,0.09160X0.00040*%
%ADD434R,0.09160X0.00040*%
%ADD435R,0.09120X0.00040*%
%ADD436R,0.09040X0.00040*%
%ADD437R,0.08920X0.00040*%
%ADD438R,0.08840X0.00040*%
%ADD439R,0.08720X0.00040*%
%ADD440R,0.08640X0.00040*%
%ADD441R,0.08560X0.00040*%
%ADD442R,0.08520X0.00040*%
%ADD443R,0.08480X0.00040*%
%ADD444R,0.08440X0.00040*%
%ADD445R,0.08400X0.00040*%
%ADD446R,0.08320X0.00040*%
%ADD447R,0.08280X0.00040*%
%ADD448R,0.08160X0.00040*%
%ADD449R,0.08040X0.00040*%
%ADD450R,0.08000X0.00040*%
%ADD451R,0.07920X0.00040*%
%ADD452R,0.07880X0.00040*%
%ADD453R,0.07800X0.00040*%
%ADD454R,0.07760X0.00040*%
%ADD455R,0.07680X0.00040*%
%ADD456R,0.07560X0.00040*%
%ADD457R,0.07440X0.00040*%
%ADD458R,0.10320X0.00040*%
%ADD459R,0.07320X0.00040*%
%ADD460R,0.10520X0.00040*%
%ADD461R,0.07160X0.00040*%
%ADD462R,0.10560X0.00040*%
%ADD463R,0.07040X0.00040*%
%ADD464R,0.06960X0.00040*%
%ADD465R,0.06920X0.00040*%
%ADD466R,0.06880X0.00040*%
%ADD467R,0.06840X0.00040*%
%ADD468R,0.06760X0.00040*%
%ADD469R,0.06640X0.00040*%
%ADD470R,0.06520X0.00040*%
%ADD471R,0.06360X0.00040*%
%ADD472R,0.11200X0.00040*%
%ADD473R,0.06160X0.00040*%
%ADD474R,0.06040X0.00040*%
%ADD475R,0.05960X0.00040*%
%ADD476R,0.05880X0.00040*%
%ADD477R,0.05840X0.00040*%
%ADD478R,0.05760X0.00040*%
%ADD479R,0.11360X0.00040*%
%ADD480R,0.05640X0.00040*%
%ADD481R,0.05520X0.00040*%
%ADD482R,0.05200X0.00040*%
%ADD483R,0.04920X0.00040*%
%ADD484R,0.04680X0.00040*%
%ADD485R,0.04480X0.00040*%
%ADD486R,0.04360X0.00040*%
%ADD487R,0.04280X0.00040*%
%ADD488R,0.04200X0.00040*%
%ADD489R,0.02360X0.00040*%
%ADD490R,0.11760X0.00040*%
%ADD491R,0.01480X0.00040*%
%ADD492R,0.01200X0.00040*%
%ADD493R,0.00880X0.00040*%
%ADD494R,0.00600X0.00040*%
%ADD495R,0.11920X0.00040*%
%ADD496R,0.11800X0.00040*%
%ADD497R,0.10760X0.00040*%
%ADD498R,0.10320X0.00040*%
%ADD499R,0.10160X0.00040*%
%ADD500R,0.03960X0.00040*%
%ADD501R,0.03960X0.00040*%
%ADD502R,0.04120X0.00040*%
%ADD503R,0.04160X0.00040*%
%ADD504R,0.46280X0.00040*%
%ADD505R,0.46160X0.00040*%
%ADD506R,0.45920X0.00040*%
%ADD507R,0.45840X0.00040*%
%ADD508R,0.45800X0.00040*%
%ADD509R,0.45520X0.00040*%
%ADD510R,0.45400X0.00040*%
%ADD511R,0.45320X0.00040*%
%ADD512R,0.45160X0.00040*%
%ADD513R,0.45040X0.00040*%
%ADD514R,0.44640X0.00040*%
%ADD515R,0.44480X0.00040*%
%ADD516R,0.44320X0.00040*%
%ADD517R,0.44040X0.00040*%
%ADD518R,0.43840X0.00040*%
%ADD519R,0.43560X0.00040*%
%ADD520R,0.43000X0.00040*%
%ADD521R,0.04440X0.00040*%
%ADD522R,0.04520X0.00040*%
%ADD523R,0.04080X0.00040*%
%ADD524R,0.04080X0.00040*%
%ADD525R,0.03680X0.00040*%
%ADD526R,0.03480X0.00040*%
%ADD527R,0.03520X0.00040*%
%ADD528R,0.03480X0.00040*%
%ADD529R,0.03440X0.00040*%
%ADD530R,0.03400X0.00040*%
%ADD531R,0.03280X0.00040*%
%ADD532R,0.03240X0.00040*%
%ADD533R,0.03160X0.00040*%
%ADD534R,0.03160X0.00040*%
%ADD535R,0.03000X0.00040*%
%ADD536R,0.03040X0.00040*%
%ADD537R,0.02920X0.00040*%
%ADD538R,0.02760X0.00040*%
%ADD539R,0.02800X0.00040*%
%ADD540R,0.02720X0.00040*%
%ADD541R,0.02640X0.00040*%
%ADD542R,0.02680X0.00040*%
%ADD543R,0.02520X0.00040*%
%ADD544R,0.02520X0.00040*%
%ADD545R,0.02360X0.00040*%
%ADD546R,0.02400X0.00040*%
%ADD547R,0.02200X0.00040*%
%ADD548R,0.02240X0.00040*%
%ADD549R,0.02120X0.00040*%
%ADD550R,0.01960X0.00040*%
%ADD551R,0.01920X0.00040*%
%ADD552R,0.01920X0.00040*%
%ADD553R,0.01880X0.00040*%
%ADD554R,0.01840X0.00040*%
%ADD555R,0.01720X0.00040*%
%ADD556R,0.01720X0.00040*%
%ADD557R,0.01400X0.00040*%
%ADD558R,0.00480X0.00040*%
D10*
X0342806Y0005402D02*
X0342806Y0008338D01*
X0343540Y0009072D01*
X0345008Y0009072D01*
X0345742Y0008338D01*
X0345742Y0005402D01*
X0345008Y0004669D01*
X0343540Y0004669D01*
X0342806Y0005402D01*
X0347410Y0005402D02*
X0348144Y0004669D01*
X0349612Y0004669D01*
X0350346Y0005402D01*
X0350346Y0008338D01*
X0349612Y0009072D01*
X0348144Y0009072D01*
X0347410Y0008338D01*
X0354316Y0008338D02*
X0355050Y0009072D01*
X0356518Y0009072D01*
X0357252Y0008338D01*
X0357252Y0005402D01*
X0356518Y0004669D01*
X0355050Y0004669D01*
X0354316Y0005402D01*
X0354316Y0006870D01*
X0355784Y0006870D01*
X0352648Y0005402D02*
X0351914Y0005402D01*
X0351914Y0004669D01*
X0352648Y0004669D01*
X0352648Y0005402D01*
X0358920Y0004669D02*
X0358920Y0009072D01*
X0361856Y0009072D02*
X0358920Y0004669D01*
X0361856Y0004669D02*
X0361856Y0009072D01*
X0363457Y0009072D02*
X0364925Y0009072D01*
X0364191Y0009072D02*
X0364191Y0004669D01*
X0364925Y0004669D02*
X0363457Y0004669D01*
X0366593Y0004669D02*
X0366593Y0009072D01*
X0366593Y0006870D02*
X0369529Y0006870D01*
X0369529Y0004669D02*
X0369529Y0009072D01*
X0371197Y0009072D02*
X0374133Y0009072D01*
X0372665Y0009072D02*
X0372665Y0004669D01*
X0377269Y0004669D02*
X0377269Y0009072D01*
X0378737Y0009072D02*
X0375801Y0009072D01*
X0380405Y0009072D02*
X0383341Y0004669D01*
X0385009Y0004669D02*
X0387945Y0004669D01*
X0387945Y0009072D01*
X0385009Y0009072D01*
X0383341Y0009072D02*
X0380405Y0004669D01*
X0386477Y0006870D02*
X0387945Y0006870D01*
X0389613Y0004669D02*
X0389613Y0009072D01*
X0392549Y0009072D02*
X0389613Y0004669D01*
X0392549Y0004669D02*
X0392549Y0009072D01*
X0394217Y0008338D02*
X0394217Y0006870D01*
X0394951Y0006136D01*
X0394951Y0007604D01*
X0396419Y0007604D01*
X0396419Y0006136D01*
X0394951Y0006136D01*
X0394217Y0005402D02*
X0394951Y0004669D01*
X0396419Y0004669D01*
X0397153Y0005402D01*
X0397153Y0008338D01*
X0396419Y0009072D01*
X0394951Y0009072D01*
X0394217Y0008338D01*
X0398821Y0009072D02*
X0401757Y0009072D01*
X0400289Y0009072D02*
X0400289Y0004669D01*
X0404893Y0004669D02*
X0404893Y0009072D01*
X0406361Y0009072D02*
X0403425Y0009072D01*
X0408029Y0008338D02*
X0408763Y0009072D01*
X0410231Y0009072D01*
X0410965Y0008338D01*
X0410965Y0005402D01*
X0410231Y0004669D01*
X0408763Y0004669D01*
X0408029Y0005402D01*
X0408029Y0008338D01*
X0412633Y0008338D02*
X0413367Y0009072D01*
X0414835Y0009072D01*
X0415569Y0008338D01*
X0415569Y0005402D01*
X0414835Y0004669D01*
X0413367Y0004669D01*
X0412633Y0005402D01*
X0417237Y0005402D02*
X0417971Y0004669D01*
X0419438Y0004669D01*
X0420172Y0005402D01*
X0419438Y0006870D02*
X0417971Y0006870D01*
X0417237Y0006136D01*
X0417237Y0005402D01*
X0419438Y0006870D02*
X0420172Y0007604D01*
X0420172Y0008338D01*
X0419438Y0009072D01*
X0417971Y0009072D01*
X0417237Y0008338D01*
D11*
X0316212Y0044848D03*
X0303012Y0044848D03*
X0068212Y0084848D03*
X0055012Y0084848D03*
D12*
X0041852Y0084848D03*
X0289852Y0044848D03*
D13*
X0316172Y0044888D03*
X0068172Y0084888D03*
D14*
X0055032Y0084888D03*
X0303032Y0044888D03*
D15*
X0289912Y0044888D03*
X0041912Y0084888D03*
D16*
X0068192Y0084928D03*
X0316192Y0044928D03*
D17*
X0303012Y0044928D03*
X0289852Y0044928D03*
X0055012Y0084928D03*
X0041852Y0084928D03*
D18*
X0055012Y0084969D03*
X0068212Y0084969D03*
X0303012Y0044969D03*
X0316212Y0044969D03*
D19*
X0289832Y0044969D03*
X0041832Y0084969D03*
D20*
X0055012Y0085009D03*
X0068212Y0085009D03*
X0062132Y0128609D03*
X0303012Y0045009D03*
X0316212Y0045009D03*
X0310132Y0088609D03*
D21*
X0289852Y0045009D03*
X0041852Y0085009D03*
D22*
X0041852Y0085048D03*
X0055012Y0085048D03*
X0068212Y0085048D03*
X0068172Y0147088D03*
X0055012Y0147088D03*
X0041852Y0147088D03*
X0041852Y0147128D03*
X0289852Y0107128D03*
X0289852Y0107088D03*
X0303012Y0107088D03*
X0316172Y0107088D03*
X0316212Y0045048D03*
X0303012Y0045048D03*
X0289852Y0045048D03*
D23*
X0289832Y0045088D03*
X0303032Y0045088D03*
X0316192Y0045088D03*
X0316192Y0107048D03*
X0303032Y0107048D03*
X0289832Y0107048D03*
X0068192Y0085088D03*
X0055032Y0085088D03*
X0041832Y0085088D03*
X0041832Y0147048D03*
X0055032Y0147048D03*
X0068192Y0147048D03*
D24*
X0068192Y0147009D03*
X0068192Y0085128D03*
X0316192Y0107009D03*
X0316192Y0045128D03*
D25*
X0303012Y0045128D03*
X0055012Y0085128D03*
D26*
X0041852Y0085128D03*
X0289852Y0045128D03*
D27*
X0316192Y0045169D03*
X0068192Y0085169D03*
D28*
X0055032Y0085169D03*
X0041832Y0085169D03*
X0289832Y0045169D03*
X0303032Y0045169D03*
D29*
X0316192Y0045209D03*
X0289832Y0045209D03*
X0068192Y0085209D03*
X0041832Y0085209D03*
D30*
X0055012Y0085209D03*
X0062132Y0117728D03*
X0303012Y0045209D03*
X0310132Y0077728D03*
D31*
X0316172Y0045248D03*
X0068172Y0085248D03*
D32*
X0055032Y0085248D03*
X0303032Y0045248D03*
D33*
X0289872Y0045248D03*
X0041872Y0085248D03*
D34*
X0068172Y0085288D03*
X0316172Y0045288D03*
D35*
X0303032Y0045288D03*
X0055032Y0085288D03*
D36*
X0041852Y0085288D03*
X0289852Y0045288D03*
D37*
X0289832Y0045328D03*
X0303032Y0045328D03*
X0316192Y0045328D03*
X0068192Y0085328D03*
X0055032Y0085328D03*
X0041832Y0085328D03*
D38*
X0068192Y0085369D03*
X0316192Y0045369D03*
D39*
X0303032Y0045369D03*
X0289832Y0045369D03*
X0055032Y0085369D03*
X0041832Y0085369D03*
D40*
X0055032Y0085409D03*
X0068192Y0085409D03*
X0041832Y0146809D03*
X0289832Y0106809D03*
X0303032Y0045409D03*
X0316192Y0045409D03*
D41*
X0303012Y0045448D03*
X0289852Y0045448D03*
X0289852Y0045409D03*
X0303012Y0106728D03*
X0316212Y0106728D03*
X0068212Y0146728D03*
X0055012Y0146728D03*
X0055012Y0085448D03*
X0041852Y0085448D03*
X0041852Y0085409D03*
D42*
X0055032Y0085488D03*
X0068192Y0085488D03*
X0068192Y0085448D03*
X0062152Y0128528D03*
X0068192Y0146688D03*
X0055032Y0146688D03*
X0041832Y0146728D03*
X0289832Y0106728D03*
X0303032Y0106688D03*
X0316192Y0106688D03*
X0310152Y0088528D03*
X0316192Y0045488D03*
X0316192Y0045448D03*
X0303032Y0045488D03*
D43*
X0289852Y0045488D03*
X0289852Y0045528D03*
X0289852Y0106688D03*
X0041852Y0085528D03*
X0041852Y0085488D03*
X0041852Y0146688D03*
D44*
X0068192Y0146609D03*
X0062152Y0117809D03*
X0068192Y0085528D03*
X0310152Y0077809D03*
X0316192Y0106609D03*
X0316192Y0045528D03*
D45*
X0303012Y0045528D03*
X0303012Y0106648D03*
X0316212Y0106648D03*
X0068212Y0146648D03*
X0055012Y0146648D03*
X0055012Y0085528D03*
D46*
X0068192Y0085569D03*
X0316192Y0045569D03*
D47*
X0303032Y0045569D03*
X0055032Y0085569D03*
D48*
X0041852Y0085569D03*
X0289852Y0045569D03*
D49*
X0289872Y0045609D03*
X0316192Y0045609D03*
X0068192Y0085609D03*
X0041872Y0085609D03*
D50*
X0055012Y0085609D03*
X0041852Y0146609D03*
X0289852Y0106609D03*
X0303012Y0045609D03*
D51*
X0316172Y0045648D03*
X0310132Y0077888D03*
X0316172Y0106528D03*
X0068172Y0085648D03*
X0062132Y0117888D03*
X0068172Y0146528D03*
D52*
X0055032Y0085648D03*
X0303032Y0045648D03*
D53*
X0289892Y0045648D03*
X0041892Y0085648D03*
D54*
X0041892Y0085688D03*
X0068172Y0085688D03*
X0062132Y0117928D03*
X0289892Y0045688D03*
X0316172Y0045688D03*
X0310132Y0077928D03*
D55*
X0303032Y0045688D03*
X0055032Y0085688D03*
D56*
X0068192Y0085728D03*
X0316192Y0045728D03*
D57*
X0303032Y0045728D03*
X0289872Y0106448D03*
X0055032Y0085728D03*
X0041872Y0146448D03*
D58*
X0055052Y0146488D03*
X0041892Y0085728D03*
X0289892Y0045728D03*
X0303052Y0106488D03*
D59*
X0303012Y0045769D03*
X0316212Y0045769D03*
X0068212Y0085769D03*
X0055012Y0085769D03*
D60*
X0041852Y0085769D03*
X0289852Y0045769D03*
D61*
X0316192Y0045809D03*
X0316192Y0106409D03*
X0068192Y0085809D03*
X0068192Y0146409D03*
D62*
X0055032Y0146409D03*
X0055032Y0085809D03*
X0041832Y0085809D03*
X0041832Y0085848D03*
X0289832Y0045848D03*
X0289832Y0045809D03*
X0303032Y0045809D03*
X0303032Y0106409D03*
D63*
X0303012Y0106328D03*
X0316212Y0106328D03*
X0316212Y0045848D03*
X0303012Y0045848D03*
X0068212Y0085848D03*
X0055012Y0085848D03*
X0055012Y0146328D03*
X0068212Y0146328D03*
D64*
X0068192Y0146288D03*
X0068192Y0146248D03*
X0068192Y0146209D03*
X0055032Y0146248D03*
X0055032Y0146288D03*
X0041832Y0146248D03*
X0041832Y0146209D03*
X0041832Y0086048D03*
X0041832Y0086009D03*
X0041832Y0085928D03*
X0055032Y0085928D03*
X0055032Y0085888D03*
X0068192Y0085888D03*
X0068192Y0085928D03*
X0289832Y0106209D03*
X0289832Y0106248D03*
X0303032Y0106248D03*
X0303032Y0106288D03*
X0316192Y0106288D03*
X0316192Y0106248D03*
X0316192Y0106209D03*
X0316192Y0045928D03*
X0316192Y0045888D03*
X0303032Y0045888D03*
X0303032Y0045928D03*
X0289832Y0045928D03*
X0289832Y0046009D03*
X0289832Y0046048D03*
D65*
X0289852Y0045888D03*
X0289852Y0106288D03*
X0289852Y0106328D03*
X0041852Y0085888D03*
X0041852Y0146288D03*
X0041852Y0146328D03*
D66*
X0055012Y0146169D03*
X0055012Y0145969D03*
X0068212Y0146169D03*
X0068212Y0086169D03*
X0068212Y0085969D03*
X0055012Y0085969D03*
X0055012Y0086169D03*
X0303012Y0105969D03*
X0303012Y0106169D03*
X0316212Y0106169D03*
X0316212Y0046169D03*
X0316212Y0045969D03*
X0303012Y0045969D03*
X0303012Y0046169D03*
D67*
X0289832Y0045969D03*
X0289832Y0106169D03*
X0041832Y0085969D03*
X0041832Y0146169D03*
D68*
X0041852Y0146128D03*
X0041852Y0146088D03*
X0055012Y0146088D03*
X0055012Y0146048D03*
X0055012Y0146009D03*
X0055012Y0145928D03*
X0055012Y0145888D03*
X0055012Y0146128D03*
X0055012Y0146209D03*
X0068212Y0146128D03*
X0068212Y0146088D03*
X0068212Y0146048D03*
X0068212Y0146009D03*
X0068212Y0086128D03*
X0068212Y0086088D03*
X0068212Y0086048D03*
X0068212Y0086009D03*
X0055012Y0086009D03*
X0055012Y0086048D03*
X0055012Y0086088D03*
X0055012Y0086128D03*
X0041852Y0086088D03*
X0289852Y0106088D03*
X0289852Y0106128D03*
X0303012Y0106128D03*
X0303012Y0106088D03*
X0303012Y0106048D03*
X0303012Y0106009D03*
X0303012Y0105928D03*
X0303012Y0105888D03*
X0303012Y0106209D03*
X0316212Y0106128D03*
X0316212Y0106088D03*
X0316212Y0106048D03*
X0316212Y0106009D03*
X0316212Y0046128D03*
X0316212Y0046088D03*
X0316212Y0046048D03*
X0316212Y0046009D03*
X0303012Y0046009D03*
X0303012Y0046048D03*
X0303012Y0046088D03*
X0303012Y0046128D03*
X0289852Y0046088D03*
D69*
X0289832Y0046128D03*
X0289832Y0046209D03*
X0289832Y0046248D03*
X0289832Y0046288D03*
X0303032Y0046288D03*
X0303032Y0046248D03*
X0303032Y0046209D03*
X0303032Y0046328D03*
X0303032Y0046409D03*
X0316192Y0046409D03*
X0316192Y0046448D03*
X0316192Y0046328D03*
X0316192Y0046288D03*
X0316192Y0046248D03*
X0316192Y0046209D03*
X0316192Y0105809D03*
X0316192Y0105848D03*
X0316192Y0105888D03*
X0316192Y0105928D03*
X0303032Y0105848D03*
X0303032Y0105809D03*
X0289832Y0105848D03*
X0289832Y0105888D03*
X0289832Y0105928D03*
X0289832Y0106009D03*
X0289832Y0106048D03*
X0068192Y0086448D03*
X0068192Y0086409D03*
X0068192Y0086328D03*
X0068192Y0086288D03*
X0068192Y0086248D03*
X0068192Y0086209D03*
X0055032Y0086209D03*
X0055032Y0086248D03*
X0055032Y0086288D03*
X0055032Y0086328D03*
X0055032Y0086409D03*
X0041832Y0086288D03*
X0041832Y0086248D03*
X0041832Y0086209D03*
X0041832Y0086128D03*
X0041832Y0145848D03*
X0041832Y0145888D03*
X0041832Y0145928D03*
X0041832Y0146009D03*
X0041832Y0146048D03*
X0055032Y0145848D03*
X0055032Y0145809D03*
X0068192Y0145809D03*
X0068192Y0145848D03*
X0068192Y0145888D03*
X0068192Y0145928D03*
D70*
X0068192Y0145969D03*
X0068192Y0145769D03*
X0041832Y0145969D03*
X0041832Y0086169D03*
X0055032Y0086369D03*
X0068192Y0086369D03*
X0289832Y0105969D03*
X0316192Y0105969D03*
X0316192Y0105769D03*
X0316192Y0046369D03*
X0303032Y0046369D03*
X0289832Y0046169D03*
D71*
X0289852Y0046328D03*
X0289852Y0046409D03*
X0289852Y0046448D03*
X0289852Y0046488D03*
X0289852Y0046528D03*
X0289852Y0105688D03*
X0289852Y0105728D03*
X0289852Y0105809D03*
X0041852Y0086528D03*
X0041852Y0086488D03*
X0041852Y0086448D03*
X0041852Y0086409D03*
X0041852Y0086328D03*
X0041852Y0145688D03*
X0041852Y0145728D03*
X0041852Y0145809D03*
D72*
X0041852Y0145769D03*
X0041852Y0086369D03*
X0289852Y0105769D03*
X0289852Y0046369D03*
D73*
X0303012Y0046448D03*
X0303012Y0046488D03*
X0310172Y0078048D03*
X0316212Y0105728D03*
X0303012Y0105728D03*
X0303012Y0105688D03*
X0068212Y0145728D03*
X0055012Y0145728D03*
X0055012Y0145688D03*
X0062172Y0118048D03*
X0055012Y0086488D03*
X0055012Y0086448D03*
D74*
X0068192Y0086488D03*
X0068192Y0086528D03*
X0068192Y0086609D03*
X0068192Y0086648D03*
X0068192Y0086688D03*
X0068192Y0139609D03*
X0068192Y0139648D03*
X0068192Y0139688D03*
X0068192Y0139728D03*
X0068192Y0145488D03*
X0068192Y0145528D03*
X0068192Y0145609D03*
X0068192Y0145648D03*
X0068192Y0145688D03*
X0316192Y0105688D03*
X0316192Y0105648D03*
X0316192Y0105609D03*
X0316192Y0105528D03*
X0316192Y0105488D03*
X0316192Y0099728D03*
X0316192Y0099688D03*
X0316192Y0099648D03*
X0316192Y0099609D03*
X0316192Y0046688D03*
X0316192Y0046648D03*
X0316192Y0046609D03*
X0316192Y0046528D03*
X0316192Y0046488D03*
D75*
X0303032Y0046528D03*
X0303032Y0046609D03*
X0303032Y0046648D03*
X0303032Y0046688D03*
X0303032Y0099609D03*
X0303032Y0099648D03*
X0303032Y0099688D03*
X0303032Y0099728D03*
X0303032Y0105528D03*
X0303032Y0105609D03*
X0303032Y0105648D03*
X0289832Y0105648D03*
X0055032Y0086688D03*
X0055032Y0086648D03*
X0055032Y0086609D03*
X0055032Y0086528D03*
X0055032Y0139609D03*
X0055032Y0139648D03*
X0055032Y0139688D03*
X0055032Y0139728D03*
X0055032Y0145528D03*
X0055032Y0145609D03*
X0055032Y0145648D03*
X0041832Y0145648D03*
D76*
X0068192Y0145569D03*
X0068192Y0139569D03*
X0068192Y0086569D03*
X0316192Y0099569D03*
X0316192Y0105569D03*
X0316192Y0046569D03*
D77*
X0303032Y0046569D03*
X0303032Y0105569D03*
X0055032Y0086569D03*
X0055032Y0145569D03*
D78*
X0055012Y0145369D03*
X0055012Y0145169D03*
X0055012Y0144969D03*
X0055012Y0144769D03*
X0055012Y0144569D03*
X0055012Y0144369D03*
X0055012Y0144169D03*
X0055012Y0143969D03*
X0055012Y0143769D03*
X0055012Y0143569D03*
X0055012Y0143369D03*
X0055012Y0143169D03*
X0055012Y0142969D03*
X0055012Y0142769D03*
X0055012Y0142569D03*
X0055012Y0142369D03*
X0055012Y0142169D03*
X0055012Y0141969D03*
X0055012Y0141769D03*
X0055012Y0141569D03*
X0055012Y0141369D03*
X0055012Y0141169D03*
X0055012Y0140969D03*
X0055012Y0140769D03*
X0055012Y0140569D03*
X0055012Y0140369D03*
X0055012Y0140169D03*
X0055012Y0139969D03*
X0055012Y0139769D03*
X0055012Y0139569D03*
X0041852Y0145569D03*
X0033732Y0113769D03*
X0055012Y0092569D03*
X0055012Y0092369D03*
X0055012Y0092169D03*
X0055012Y0091969D03*
X0055012Y0091769D03*
X0055012Y0091569D03*
X0055012Y0091369D03*
X0055012Y0091169D03*
X0055012Y0090969D03*
X0055012Y0090769D03*
X0055012Y0090569D03*
X0055012Y0090369D03*
X0055012Y0090169D03*
X0055012Y0089969D03*
X0055012Y0089769D03*
X0055012Y0089569D03*
X0055012Y0089369D03*
X0055012Y0089169D03*
X0055012Y0088969D03*
X0055012Y0088769D03*
X0055012Y0088569D03*
X0055012Y0088369D03*
X0055012Y0088169D03*
X0055012Y0087969D03*
X0055012Y0087769D03*
X0055012Y0087569D03*
X0055012Y0087369D03*
X0055012Y0087169D03*
X0055012Y0086969D03*
X0055012Y0086769D03*
X0041852Y0086569D03*
X0281732Y0073769D03*
X0303012Y0052569D03*
X0303012Y0052369D03*
X0303012Y0052169D03*
X0303012Y0051969D03*
X0303012Y0051769D03*
X0303012Y0051569D03*
X0303012Y0051369D03*
X0303012Y0051169D03*
X0303012Y0050969D03*
X0303012Y0050769D03*
X0303012Y0050569D03*
X0303012Y0050369D03*
X0303012Y0050169D03*
X0303012Y0049969D03*
X0303012Y0049769D03*
X0303012Y0049569D03*
X0303012Y0049369D03*
X0303012Y0049169D03*
X0303012Y0048969D03*
X0303012Y0048769D03*
X0303012Y0048569D03*
X0303012Y0048369D03*
X0303012Y0048169D03*
X0303012Y0047969D03*
X0303012Y0047769D03*
X0303012Y0047569D03*
X0303012Y0047369D03*
X0303012Y0047169D03*
X0303012Y0046969D03*
X0303012Y0046769D03*
X0289852Y0046569D03*
X0303012Y0099569D03*
X0303012Y0099769D03*
X0303012Y0099969D03*
X0303012Y0100169D03*
X0303012Y0100369D03*
X0303012Y0100569D03*
X0303012Y0100769D03*
X0303012Y0100969D03*
X0303012Y0101169D03*
X0303012Y0101369D03*
X0303012Y0101569D03*
X0303012Y0101769D03*
X0303012Y0101969D03*
X0303012Y0102169D03*
X0303012Y0102369D03*
X0303012Y0102569D03*
X0303012Y0102769D03*
X0303012Y0102969D03*
X0303012Y0103169D03*
X0303012Y0103369D03*
X0303012Y0103569D03*
X0303012Y0103769D03*
X0303012Y0103969D03*
X0303012Y0104169D03*
X0303012Y0104369D03*
X0303012Y0104569D03*
X0303012Y0104769D03*
X0303012Y0104969D03*
X0303012Y0105169D03*
X0303012Y0105369D03*
X0289852Y0105569D03*
D79*
X0289852Y0105609D03*
X0289852Y0105528D03*
X0289852Y0105488D03*
X0303012Y0105488D03*
X0303012Y0105448D03*
X0303012Y0105409D03*
X0303012Y0105328D03*
X0303012Y0105288D03*
X0303012Y0105248D03*
X0303012Y0105209D03*
X0303012Y0105128D03*
X0303012Y0105088D03*
X0303012Y0105048D03*
X0303012Y0105009D03*
X0303012Y0104928D03*
X0303012Y0104888D03*
X0303012Y0104848D03*
X0303012Y0104809D03*
X0303012Y0104728D03*
X0303012Y0104688D03*
X0303012Y0104648D03*
X0303012Y0104609D03*
X0303012Y0104528D03*
X0303012Y0104488D03*
X0303012Y0104448D03*
X0303012Y0104409D03*
X0303012Y0104328D03*
X0303012Y0104288D03*
X0303012Y0104248D03*
X0303012Y0104209D03*
X0303012Y0104128D03*
X0303012Y0104088D03*
X0303012Y0104048D03*
X0303012Y0104009D03*
X0303012Y0103928D03*
X0303012Y0103888D03*
X0303012Y0103848D03*
X0303012Y0103809D03*
X0303012Y0103728D03*
X0303012Y0103688D03*
X0303012Y0103648D03*
X0303012Y0103609D03*
X0303012Y0103528D03*
X0303012Y0103488D03*
X0303012Y0103448D03*
X0303012Y0103409D03*
X0303012Y0103328D03*
X0303012Y0103288D03*
X0303012Y0103248D03*
X0303012Y0103209D03*
X0303012Y0103128D03*
X0303012Y0103088D03*
X0303012Y0103048D03*
X0303012Y0103009D03*
X0303012Y0102928D03*
X0303012Y0102888D03*
X0303012Y0102848D03*
X0303012Y0102809D03*
X0303012Y0102728D03*
X0303012Y0102688D03*
X0303012Y0102648D03*
X0303012Y0102609D03*
X0303012Y0102528D03*
X0303012Y0102488D03*
X0303012Y0102448D03*
X0303012Y0102409D03*
X0303012Y0102328D03*
X0303012Y0102288D03*
X0303012Y0102248D03*
X0303012Y0102209D03*
X0303012Y0102128D03*
X0303012Y0102088D03*
X0303012Y0102048D03*
X0303012Y0102009D03*
X0303012Y0101928D03*
X0303012Y0101888D03*
X0303012Y0101848D03*
X0303012Y0101809D03*
X0303012Y0101728D03*
X0303012Y0101688D03*
X0303012Y0101648D03*
X0303012Y0101609D03*
X0303012Y0101528D03*
X0303012Y0101488D03*
X0303012Y0101448D03*
X0303012Y0101409D03*
X0303012Y0101328D03*
X0303012Y0101288D03*
X0303012Y0101248D03*
X0303012Y0101209D03*
X0303012Y0101128D03*
X0303012Y0101088D03*
X0303012Y0101048D03*
X0303012Y0101009D03*
X0303012Y0100928D03*
X0303012Y0100888D03*
X0303012Y0100848D03*
X0303012Y0100809D03*
X0303012Y0100728D03*
X0303012Y0100688D03*
X0303012Y0100648D03*
X0303012Y0100609D03*
X0303012Y0100528D03*
X0303012Y0100488D03*
X0303012Y0100448D03*
X0303012Y0100409D03*
X0303012Y0100328D03*
X0303012Y0100288D03*
X0303012Y0100248D03*
X0303012Y0100209D03*
X0303012Y0100128D03*
X0303012Y0100088D03*
X0303012Y0100048D03*
X0303012Y0100009D03*
X0303012Y0099928D03*
X0303012Y0099888D03*
X0303012Y0099848D03*
X0303012Y0099809D03*
X0303012Y0099528D03*
X0303012Y0099488D03*
X0289852Y0099609D03*
X0289852Y0099648D03*
X0289852Y0099688D03*
X0289852Y0099728D03*
X0281732Y0078488D03*
X0281732Y0078448D03*
X0281732Y0078409D03*
X0281732Y0073809D03*
X0281732Y0073728D03*
X0303012Y0052648D03*
X0303012Y0052609D03*
X0303012Y0052528D03*
X0303012Y0052488D03*
X0303012Y0052448D03*
X0303012Y0052409D03*
X0303012Y0052328D03*
X0303012Y0052288D03*
X0303012Y0052248D03*
X0303012Y0052209D03*
X0303012Y0052128D03*
X0303012Y0052088D03*
X0303012Y0052048D03*
X0303012Y0052009D03*
X0303012Y0051928D03*
X0303012Y0051888D03*
X0303012Y0051848D03*
X0303012Y0051809D03*
X0303012Y0051728D03*
X0303012Y0051688D03*
X0303012Y0051648D03*
X0303012Y0051609D03*
X0303012Y0051528D03*
X0303012Y0051488D03*
X0303012Y0051448D03*
X0303012Y0051409D03*
X0303012Y0051328D03*
X0303012Y0051288D03*
X0303012Y0051248D03*
X0303012Y0051209D03*
X0303012Y0051128D03*
X0303012Y0051088D03*
X0303012Y0051048D03*
X0303012Y0051009D03*
X0303012Y0050928D03*
X0303012Y0050888D03*
X0303012Y0050848D03*
X0303012Y0050809D03*
X0303012Y0050728D03*
X0303012Y0050688D03*
X0303012Y0050648D03*
X0303012Y0050609D03*
X0303012Y0050528D03*
X0303012Y0050488D03*
X0303012Y0050448D03*
X0303012Y0050409D03*
X0303012Y0050328D03*
X0303012Y0050288D03*
X0303012Y0050248D03*
X0303012Y0050209D03*
X0303012Y0050128D03*
X0303012Y0050088D03*
X0303012Y0050048D03*
X0303012Y0050009D03*
X0303012Y0049928D03*
X0303012Y0049888D03*
X0303012Y0049848D03*
X0303012Y0049809D03*
X0303012Y0049728D03*
X0303012Y0049688D03*
X0303012Y0049648D03*
X0303012Y0049609D03*
X0303012Y0049528D03*
X0303012Y0049488D03*
X0303012Y0049448D03*
X0303012Y0049409D03*
X0303012Y0049328D03*
X0303012Y0049288D03*
X0303012Y0049248D03*
X0303012Y0049209D03*
X0303012Y0049128D03*
X0303012Y0049088D03*
X0303012Y0049048D03*
X0303012Y0049009D03*
X0303012Y0048928D03*
X0303012Y0048888D03*
X0303012Y0048848D03*
X0303012Y0048809D03*
X0303012Y0048728D03*
X0303012Y0048688D03*
X0303012Y0048648D03*
X0303012Y0048609D03*
X0303012Y0048528D03*
X0303012Y0048488D03*
X0303012Y0048448D03*
X0303012Y0048409D03*
X0303012Y0048328D03*
X0303012Y0048288D03*
X0303012Y0048248D03*
X0303012Y0048209D03*
X0303012Y0048128D03*
X0303012Y0048088D03*
X0303012Y0048048D03*
X0303012Y0048009D03*
X0303012Y0047928D03*
X0303012Y0047888D03*
X0303012Y0047848D03*
X0303012Y0047809D03*
X0303012Y0047728D03*
X0303012Y0047688D03*
X0303012Y0047648D03*
X0303012Y0047609D03*
X0303012Y0047528D03*
X0303012Y0047488D03*
X0303012Y0047448D03*
X0303012Y0047409D03*
X0303012Y0047328D03*
X0303012Y0047288D03*
X0303012Y0047248D03*
X0303012Y0047209D03*
X0303012Y0047128D03*
X0303012Y0047088D03*
X0303012Y0047048D03*
X0303012Y0047009D03*
X0303012Y0046928D03*
X0303012Y0046888D03*
X0303012Y0046848D03*
X0303012Y0046809D03*
X0303012Y0046728D03*
X0289852Y0046648D03*
X0289852Y0046609D03*
X0055012Y0086728D03*
X0055012Y0086809D03*
X0055012Y0086848D03*
X0055012Y0086888D03*
X0055012Y0086928D03*
X0055012Y0087009D03*
X0055012Y0087048D03*
X0055012Y0087088D03*
X0055012Y0087128D03*
X0055012Y0087209D03*
X0055012Y0087248D03*
X0055012Y0087288D03*
X0055012Y0087328D03*
X0055012Y0087409D03*
X0055012Y0087448D03*
X0055012Y0087488D03*
X0055012Y0087528D03*
X0055012Y0087609D03*
X0055012Y0087648D03*
X0055012Y0087688D03*
X0055012Y0087728D03*
X0055012Y0087809D03*
X0055012Y0087848D03*
X0055012Y0087888D03*
X0055012Y0087928D03*
X0055012Y0088009D03*
X0055012Y0088048D03*
X0055012Y0088088D03*
X0055012Y0088128D03*
X0055012Y0088209D03*
X0055012Y0088248D03*
X0055012Y0088288D03*
X0055012Y0088328D03*
X0055012Y0088409D03*
X0055012Y0088448D03*
X0055012Y0088488D03*
X0055012Y0088528D03*
X0055012Y0088609D03*
X0055012Y0088648D03*
X0055012Y0088688D03*
X0055012Y0088728D03*
X0055012Y0088809D03*
X0055012Y0088848D03*
X0055012Y0088888D03*
X0055012Y0088928D03*
X0055012Y0089009D03*
X0055012Y0089048D03*
X0055012Y0089088D03*
X0055012Y0089128D03*
X0055012Y0089209D03*
X0055012Y0089248D03*
X0055012Y0089288D03*
X0055012Y0089328D03*
X0055012Y0089409D03*
X0055012Y0089448D03*
X0055012Y0089488D03*
X0055012Y0089528D03*
X0055012Y0089609D03*
X0055012Y0089648D03*
X0055012Y0089688D03*
X0055012Y0089728D03*
X0055012Y0089809D03*
X0055012Y0089848D03*
X0055012Y0089888D03*
X0055012Y0089928D03*
X0055012Y0090009D03*
X0055012Y0090048D03*
X0055012Y0090088D03*
X0055012Y0090128D03*
X0055012Y0090209D03*
X0055012Y0090248D03*
X0055012Y0090288D03*
X0055012Y0090328D03*
X0055012Y0090409D03*
X0055012Y0090448D03*
X0055012Y0090488D03*
X0055012Y0090528D03*
X0055012Y0090609D03*
X0055012Y0090648D03*
X0055012Y0090688D03*
X0055012Y0090728D03*
X0055012Y0090809D03*
X0055012Y0090848D03*
X0055012Y0090888D03*
X0055012Y0090928D03*
X0055012Y0091009D03*
X0055012Y0091048D03*
X0055012Y0091088D03*
X0055012Y0091128D03*
X0055012Y0091209D03*
X0055012Y0091248D03*
X0055012Y0091288D03*
X0055012Y0091328D03*
X0055012Y0091409D03*
X0055012Y0091448D03*
X0055012Y0091488D03*
X0055012Y0091528D03*
X0055012Y0091609D03*
X0055012Y0091648D03*
X0055012Y0091688D03*
X0055012Y0091728D03*
X0055012Y0091809D03*
X0055012Y0091848D03*
X0055012Y0091888D03*
X0055012Y0091928D03*
X0055012Y0092009D03*
X0055012Y0092048D03*
X0055012Y0092088D03*
X0055012Y0092128D03*
X0055012Y0092209D03*
X0055012Y0092248D03*
X0055012Y0092288D03*
X0055012Y0092328D03*
X0055012Y0092409D03*
X0055012Y0092448D03*
X0055012Y0092488D03*
X0055012Y0092528D03*
X0055012Y0092609D03*
X0055012Y0092648D03*
X0041852Y0086648D03*
X0041852Y0086609D03*
X0033732Y0113728D03*
X0033732Y0113809D03*
X0033732Y0118409D03*
X0033732Y0118448D03*
X0033732Y0118488D03*
X0055012Y0139488D03*
X0055012Y0139528D03*
X0055012Y0139809D03*
X0055012Y0139848D03*
X0055012Y0139888D03*
X0055012Y0139928D03*
X0055012Y0140009D03*
X0055012Y0140048D03*
X0055012Y0140088D03*
X0055012Y0140128D03*
X0055012Y0140209D03*
X0055012Y0140248D03*
X0055012Y0140288D03*
X0055012Y0140328D03*
X0055012Y0140409D03*
X0055012Y0140448D03*
X0055012Y0140488D03*
X0055012Y0140528D03*
X0055012Y0140609D03*
X0055012Y0140648D03*
X0055012Y0140688D03*
X0055012Y0140728D03*
X0055012Y0140809D03*
X0055012Y0140848D03*
X0055012Y0140888D03*
X0055012Y0140928D03*
X0055012Y0141009D03*
X0055012Y0141048D03*
X0055012Y0141088D03*
X0055012Y0141128D03*
X0055012Y0141209D03*
X0055012Y0141248D03*
X0055012Y0141288D03*
X0055012Y0141328D03*
X0055012Y0141409D03*
X0055012Y0141448D03*
X0055012Y0141488D03*
X0055012Y0141528D03*
X0055012Y0141609D03*
X0055012Y0141648D03*
X0055012Y0141688D03*
X0055012Y0141728D03*
X0055012Y0141809D03*
X0055012Y0141848D03*
X0055012Y0141888D03*
X0055012Y0141928D03*
X0055012Y0142009D03*
X0055012Y0142048D03*
X0055012Y0142088D03*
X0055012Y0142128D03*
X0055012Y0142209D03*
X0055012Y0142248D03*
X0055012Y0142288D03*
X0055012Y0142328D03*
X0055012Y0142409D03*
X0055012Y0142448D03*
X0055012Y0142488D03*
X0055012Y0142528D03*
X0055012Y0142609D03*
X0055012Y0142648D03*
X0055012Y0142688D03*
X0055012Y0142728D03*
X0055012Y0142809D03*
X0055012Y0142848D03*
X0055012Y0142888D03*
X0055012Y0142928D03*
X0055012Y0143009D03*
X0055012Y0143048D03*
X0055012Y0143088D03*
X0055012Y0143128D03*
X0055012Y0143209D03*
X0055012Y0143248D03*
X0055012Y0143288D03*
X0055012Y0143328D03*
X0055012Y0143409D03*
X0055012Y0143448D03*
X0055012Y0143488D03*
X0055012Y0143528D03*
X0055012Y0143609D03*
X0055012Y0143648D03*
X0055012Y0143688D03*
X0055012Y0143728D03*
X0055012Y0143809D03*
X0055012Y0143848D03*
X0055012Y0143888D03*
X0055012Y0143928D03*
X0055012Y0144009D03*
X0055012Y0144048D03*
X0055012Y0144088D03*
X0055012Y0144128D03*
X0055012Y0144209D03*
X0055012Y0144248D03*
X0055012Y0144288D03*
X0055012Y0144328D03*
X0055012Y0144409D03*
X0055012Y0144448D03*
X0055012Y0144488D03*
X0055012Y0144528D03*
X0055012Y0144609D03*
X0055012Y0144648D03*
X0055012Y0144688D03*
X0055012Y0144728D03*
X0055012Y0144809D03*
X0055012Y0144848D03*
X0055012Y0144888D03*
X0055012Y0144928D03*
X0055012Y0145009D03*
X0055012Y0145048D03*
X0055012Y0145088D03*
X0055012Y0145128D03*
X0055012Y0145209D03*
X0055012Y0145248D03*
X0055012Y0145288D03*
X0055012Y0145328D03*
X0055012Y0145409D03*
X0055012Y0145448D03*
X0055012Y0145488D03*
X0041852Y0145488D03*
X0041852Y0145528D03*
X0041852Y0145609D03*
X0041852Y0139728D03*
X0041852Y0139688D03*
X0041852Y0139648D03*
X0041852Y0139609D03*
D80*
X0041872Y0139528D03*
X0041872Y0139809D03*
X0041872Y0139848D03*
X0041872Y0139888D03*
X0041872Y0139928D03*
X0041872Y0140009D03*
X0041872Y0140048D03*
X0041872Y0140088D03*
X0041872Y0140128D03*
X0041872Y0140209D03*
X0041872Y0140248D03*
X0041872Y0140288D03*
X0041872Y0140328D03*
X0041872Y0140409D03*
X0041872Y0140448D03*
X0041872Y0140488D03*
X0041872Y0140528D03*
X0041872Y0140609D03*
X0041872Y0140648D03*
X0041872Y0140688D03*
X0041872Y0140728D03*
X0041872Y0140809D03*
X0041872Y0140848D03*
X0041872Y0140888D03*
X0041872Y0140928D03*
X0041872Y0141009D03*
X0041872Y0141048D03*
X0041872Y0141088D03*
X0041872Y0141128D03*
X0041872Y0141209D03*
X0041872Y0141248D03*
X0041872Y0141288D03*
X0041872Y0141328D03*
X0041872Y0141409D03*
X0041872Y0141448D03*
X0041872Y0141488D03*
X0041872Y0141528D03*
X0041872Y0141609D03*
X0041872Y0141648D03*
X0041872Y0141688D03*
X0041872Y0141728D03*
X0041872Y0141809D03*
X0041872Y0141848D03*
X0041872Y0141888D03*
X0041872Y0141928D03*
X0041872Y0142009D03*
X0041872Y0142048D03*
X0041872Y0142088D03*
X0041872Y0142128D03*
X0041872Y0142209D03*
X0041872Y0142248D03*
X0041872Y0142288D03*
X0041872Y0142328D03*
X0041872Y0142409D03*
X0041872Y0142448D03*
X0041872Y0142488D03*
X0041872Y0142528D03*
X0041872Y0142609D03*
X0041872Y0142648D03*
X0041872Y0142688D03*
X0041872Y0142728D03*
X0041872Y0142809D03*
X0041872Y0142848D03*
X0041872Y0142888D03*
X0041872Y0142928D03*
X0041872Y0143009D03*
X0041872Y0143048D03*
X0041872Y0143088D03*
X0041872Y0143128D03*
X0041872Y0143209D03*
X0041872Y0143248D03*
X0041872Y0143288D03*
X0041872Y0143328D03*
X0041872Y0143409D03*
X0041872Y0143448D03*
X0041872Y0143488D03*
X0041872Y0143528D03*
X0041872Y0143609D03*
X0041872Y0143648D03*
X0041872Y0143688D03*
X0041872Y0143728D03*
X0041872Y0143809D03*
X0041872Y0143848D03*
X0041872Y0143888D03*
X0041872Y0143928D03*
X0041872Y0144009D03*
X0041872Y0144048D03*
X0041872Y0144088D03*
X0041872Y0144128D03*
X0041872Y0144209D03*
X0041872Y0144248D03*
X0041872Y0144288D03*
X0041872Y0144328D03*
X0041872Y0144409D03*
X0041872Y0144448D03*
X0041872Y0144488D03*
X0041872Y0144528D03*
X0041872Y0144609D03*
X0041872Y0144648D03*
X0041872Y0144688D03*
X0041872Y0144728D03*
X0041872Y0144809D03*
X0041872Y0144848D03*
X0041872Y0144888D03*
X0041872Y0144928D03*
X0041872Y0145009D03*
X0041872Y0145048D03*
X0041872Y0145088D03*
X0041872Y0145128D03*
X0041872Y0145209D03*
X0041872Y0145248D03*
X0041872Y0145288D03*
X0041872Y0145328D03*
X0041872Y0145409D03*
X0041872Y0145448D03*
X0055032Y0139448D03*
X0068192Y0139448D03*
X0068192Y0139488D03*
X0068192Y0140048D03*
X0068192Y0140088D03*
X0068192Y0140128D03*
X0068192Y0140209D03*
X0068192Y0140248D03*
X0068192Y0140288D03*
X0068192Y0140328D03*
X0068192Y0140409D03*
X0068192Y0140448D03*
X0068192Y0140488D03*
X0068192Y0140528D03*
X0068192Y0140609D03*
X0068192Y0140648D03*
X0068192Y0140688D03*
X0068192Y0140728D03*
X0068192Y0140809D03*
X0068192Y0140848D03*
X0068192Y0140888D03*
X0068192Y0140928D03*
X0068192Y0141009D03*
X0068192Y0141048D03*
X0068192Y0141088D03*
X0068192Y0141128D03*
X0068192Y0141209D03*
X0068192Y0141248D03*
X0068192Y0141288D03*
X0068192Y0141328D03*
X0068192Y0141409D03*
X0068192Y0141448D03*
X0068192Y0141488D03*
X0068192Y0141528D03*
X0068192Y0141609D03*
X0068192Y0141648D03*
X0068192Y0141688D03*
X0068192Y0141728D03*
X0068192Y0141809D03*
X0068192Y0141848D03*
X0068192Y0141888D03*
X0068192Y0141928D03*
X0068192Y0142009D03*
X0068192Y0142048D03*
X0068192Y0142088D03*
X0068192Y0142128D03*
X0068192Y0142209D03*
X0068192Y0142248D03*
X0068192Y0142288D03*
X0068192Y0142328D03*
X0068192Y0142409D03*
X0068192Y0142448D03*
X0068192Y0142488D03*
X0068192Y0142528D03*
X0068192Y0142609D03*
X0068192Y0142648D03*
X0068192Y0142688D03*
X0068192Y0142728D03*
X0068192Y0142809D03*
X0068192Y0142848D03*
X0068192Y0142888D03*
X0068192Y0142928D03*
X0068192Y0143009D03*
X0068192Y0143048D03*
X0068192Y0143088D03*
X0068192Y0143128D03*
X0068192Y0143209D03*
X0068192Y0143248D03*
X0068192Y0143288D03*
X0068192Y0143328D03*
X0068192Y0143409D03*
X0068192Y0143448D03*
X0068192Y0143488D03*
X0068192Y0143528D03*
X0068192Y0143609D03*
X0068192Y0143648D03*
X0068192Y0143688D03*
X0068192Y0143728D03*
X0068192Y0143809D03*
X0068192Y0143848D03*
X0068192Y0143888D03*
X0068192Y0143928D03*
X0068192Y0144009D03*
X0068192Y0144048D03*
X0068192Y0144088D03*
X0068192Y0144128D03*
X0068192Y0144209D03*
X0068192Y0144248D03*
X0068192Y0144288D03*
X0068192Y0144328D03*
X0068192Y0144409D03*
X0068192Y0144448D03*
X0068192Y0144488D03*
X0068192Y0144528D03*
X0068192Y0144609D03*
X0068192Y0144648D03*
X0068192Y0144688D03*
X0068192Y0144728D03*
X0068192Y0144809D03*
X0068192Y0144848D03*
X0068192Y0144888D03*
X0068192Y0144928D03*
X0068192Y0145009D03*
X0068192Y0145048D03*
X0068192Y0145088D03*
X0068192Y0145128D03*
X0068192Y0145209D03*
X0033712Y0135009D03*
X0033712Y0134928D03*
X0033752Y0131648D03*
X0033752Y0127009D03*
X0033752Y0126928D03*
X0033752Y0126888D03*
X0033712Y0118528D03*
X0033712Y0113848D03*
X0033712Y0113688D03*
X0033752Y0105288D03*
X0033752Y0105248D03*
X0033752Y0105209D03*
X0033752Y0100609D03*
X0033752Y0100528D03*
X0033712Y0097288D03*
X0033712Y0097248D03*
X0033712Y0097209D03*
X0041872Y0092648D03*
X0041872Y0092609D03*
X0041872Y0092528D03*
X0041872Y0092488D03*
X0041872Y0092448D03*
X0041872Y0092409D03*
X0041872Y0092328D03*
X0041872Y0092288D03*
X0041872Y0092248D03*
X0041872Y0092209D03*
X0041872Y0092128D03*
X0041872Y0092088D03*
X0041872Y0092048D03*
X0041872Y0092009D03*
X0041872Y0091928D03*
X0041872Y0091888D03*
X0041872Y0091848D03*
X0041872Y0091809D03*
X0041872Y0091728D03*
X0041872Y0091688D03*
X0041872Y0091648D03*
X0041872Y0091609D03*
X0041872Y0091528D03*
X0041872Y0091488D03*
X0041872Y0091448D03*
X0041872Y0091409D03*
X0041872Y0091328D03*
X0041872Y0091288D03*
X0041872Y0091248D03*
X0041872Y0091209D03*
X0041872Y0091128D03*
X0041872Y0091088D03*
X0041872Y0091048D03*
X0041872Y0091009D03*
X0041872Y0090928D03*
X0041872Y0090888D03*
X0041872Y0090848D03*
X0041872Y0090809D03*
X0041872Y0090728D03*
X0041872Y0090688D03*
X0041872Y0090648D03*
X0041872Y0090609D03*
X0041872Y0090528D03*
X0041872Y0090488D03*
X0041872Y0090448D03*
X0041872Y0090409D03*
X0041872Y0090328D03*
X0041872Y0090288D03*
X0041872Y0090248D03*
X0041872Y0090209D03*
X0041872Y0090128D03*
X0041872Y0090088D03*
X0041872Y0090048D03*
X0041872Y0090009D03*
X0041872Y0089928D03*
X0041872Y0089888D03*
X0041872Y0089848D03*
X0041872Y0089809D03*
X0041872Y0089728D03*
X0041872Y0089688D03*
X0041872Y0089648D03*
X0041872Y0089609D03*
X0041872Y0089528D03*
X0041872Y0089488D03*
X0041872Y0089448D03*
X0041872Y0089409D03*
X0041872Y0089328D03*
X0041872Y0089288D03*
X0041872Y0089248D03*
X0041872Y0089209D03*
X0041872Y0089128D03*
X0041872Y0089088D03*
X0041872Y0089048D03*
X0041872Y0089009D03*
X0041872Y0088928D03*
X0041872Y0088888D03*
X0041872Y0088848D03*
X0041872Y0088809D03*
X0041872Y0088728D03*
X0041872Y0088688D03*
X0041872Y0088648D03*
X0041872Y0088609D03*
X0041872Y0088528D03*
X0041872Y0088488D03*
X0041872Y0088448D03*
X0041872Y0088409D03*
X0041872Y0088328D03*
X0041872Y0088288D03*
X0041872Y0088248D03*
X0041872Y0088209D03*
X0041872Y0088128D03*
X0041872Y0088088D03*
X0041872Y0088048D03*
X0041872Y0088009D03*
X0041872Y0087928D03*
X0041872Y0087888D03*
X0041872Y0087848D03*
X0041872Y0087809D03*
X0041872Y0087728D03*
X0041872Y0087688D03*
X0041872Y0087648D03*
X0041872Y0087609D03*
X0041872Y0087528D03*
X0041872Y0087488D03*
X0041872Y0087448D03*
X0041872Y0087409D03*
X0041872Y0087328D03*
X0041872Y0087288D03*
X0041872Y0087248D03*
X0041872Y0087209D03*
X0041872Y0087128D03*
X0041872Y0087088D03*
X0041872Y0087048D03*
X0041872Y0087009D03*
X0041872Y0086928D03*
X0041872Y0086888D03*
X0041872Y0086848D03*
X0041872Y0086809D03*
X0041872Y0086728D03*
X0041872Y0086688D03*
X0055032Y0092688D03*
X0055032Y0092728D03*
X0068192Y0092688D03*
X0068192Y0092648D03*
X0068192Y0092128D03*
X0068192Y0092009D03*
X0068192Y0091928D03*
X0068192Y0091888D03*
X0068192Y0091848D03*
X0068192Y0091809D03*
X0068192Y0091728D03*
X0068192Y0091688D03*
X0068192Y0091648D03*
X0068192Y0091609D03*
X0068192Y0091528D03*
X0068192Y0091488D03*
X0068192Y0091448D03*
X0068192Y0091409D03*
X0068192Y0091328D03*
X0068192Y0091288D03*
X0068192Y0091248D03*
X0068192Y0091209D03*
X0068192Y0091128D03*
X0068192Y0091088D03*
X0068192Y0091048D03*
X0068192Y0091009D03*
X0068192Y0090928D03*
X0068192Y0090888D03*
X0068192Y0090848D03*
X0068192Y0090809D03*
X0068192Y0090728D03*
X0068192Y0090688D03*
X0068192Y0090648D03*
X0068192Y0090609D03*
X0068192Y0090528D03*
X0068192Y0090488D03*
X0068192Y0090448D03*
X0068192Y0090409D03*
X0068192Y0090328D03*
X0068192Y0090288D03*
X0068192Y0090248D03*
X0068192Y0090209D03*
X0068192Y0090128D03*
X0068192Y0090088D03*
X0068192Y0090048D03*
X0068192Y0090009D03*
X0068192Y0089928D03*
X0068192Y0089888D03*
X0068192Y0089848D03*
X0068192Y0089809D03*
X0068192Y0089728D03*
X0068192Y0089688D03*
X0068192Y0089648D03*
X0068192Y0089609D03*
X0068192Y0089528D03*
X0068192Y0089488D03*
X0068192Y0089448D03*
X0068192Y0089409D03*
X0068192Y0089328D03*
X0068192Y0089288D03*
X0068192Y0089248D03*
X0068192Y0089209D03*
X0068192Y0089128D03*
X0068192Y0089088D03*
X0068192Y0089048D03*
X0068192Y0089009D03*
X0068192Y0088928D03*
X0068192Y0088888D03*
X0068192Y0088848D03*
X0068192Y0088809D03*
X0068192Y0088728D03*
X0068192Y0088688D03*
X0068192Y0088648D03*
X0068192Y0088609D03*
X0068192Y0088528D03*
X0068192Y0088488D03*
X0068192Y0088448D03*
X0068192Y0088409D03*
X0068192Y0088328D03*
X0068192Y0088288D03*
X0068192Y0088248D03*
X0068192Y0088209D03*
X0068192Y0088128D03*
X0068192Y0088088D03*
X0068192Y0088048D03*
X0068192Y0088009D03*
X0068192Y0087928D03*
X0068192Y0087888D03*
X0068192Y0087848D03*
X0068192Y0087809D03*
X0068192Y0087728D03*
X0068192Y0087688D03*
X0068192Y0087648D03*
X0068192Y0087609D03*
X0068192Y0087528D03*
X0068192Y0087488D03*
X0068192Y0087448D03*
X0068192Y0087409D03*
X0068192Y0087328D03*
X0068192Y0087288D03*
X0068192Y0087248D03*
X0068192Y0087209D03*
X0068192Y0087128D03*
X0068192Y0087088D03*
X0068192Y0087048D03*
X0068192Y0087009D03*
X0068192Y0086888D03*
X0068192Y0086848D03*
X0281752Y0086888D03*
X0281752Y0086928D03*
X0281752Y0087009D03*
X0281752Y0091648D03*
X0281712Y0094928D03*
X0281712Y0095009D03*
X0289872Y0099528D03*
X0289872Y0099809D03*
X0289872Y0099848D03*
X0289872Y0099888D03*
X0289872Y0099928D03*
X0289872Y0100009D03*
X0289872Y0100048D03*
X0289872Y0100088D03*
X0289872Y0100128D03*
X0289872Y0100209D03*
X0289872Y0100248D03*
X0289872Y0100288D03*
X0289872Y0100328D03*
X0289872Y0100409D03*
X0289872Y0100448D03*
X0289872Y0100488D03*
X0289872Y0100528D03*
X0289872Y0100609D03*
X0289872Y0100648D03*
X0289872Y0100688D03*
X0289872Y0100728D03*
X0289872Y0100809D03*
X0289872Y0100848D03*
X0289872Y0100888D03*
X0289872Y0100928D03*
X0289872Y0101009D03*
X0289872Y0101048D03*
X0289872Y0101088D03*
X0289872Y0101128D03*
X0289872Y0101209D03*
X0289872Y0101248D03*
X0289872Y0101288D03*
X0289872Y0101328D03*
X0289872Y0101409D03*
X0289872Y0101448D03*
X0289872Y0101488D03*
X0289872Y0101528D03*
X0289872Y0101609D03*
X0289872Y0101648D03*
X0289872Y0101688D03*
X0289872Y0101728D03*
X0289872Y0101809D03*
X0289872Y0101848D03*
X0289872Y0101888D03*
X0289872Y0101928D03*
X0289872Y0102009D03*
X0289872Y0102048D03*
X0289872Y0102088D03*
X0289872Y0102128D03*
X0289872Y0102209D03*
X0289872Y0102248D03*
X0289872Y0102288D03*
X0289872Y0102328D03*
X0289872Y0102409D03*
X0289872Y0102448D03*
X0289872Y0102488D03*
X0289872Y0102528D03*
X0289872Y0102609D03*
X0289872Y0102648D03*
X0289872Y0102688D03*
X0289872Y0102728D03*
X0289872Y0102809D03*
X0289872Y0102848D03*
X0289872Y0102888D03*
X0289872Y0102928D03*
X0289872Y0103009D03*
X0289872Y0103048D03*
X0289872Y0103088D03*
X0289872Y0103128D03*
X0289872Y0103209D03*
X0289872Y0103248D03*
X0289872Y0103288D03*
X0289872Y0103328D03*
X0289872Y0103409D03*
X0289872Y0103448D03*
X0289872Y0103488D03*
X0289872Y0103528D03*
X0289872Y0103609D03*
X0289872Y0103648D03*
X0289872Y0103688D03*
X0289872Y0103728D03*
X0289872Y0103809D03*
X0289872Y0103848D03*
X0289872Y0103888D03*
X0289872Y0103928D03*
X0289872Y0104009D03*
X0289872Y0104048D03*
X0289872Y0104088D03*
X0289872Y0104128D03*
X0289872Y0104209D03*
X0289872Y0104248D03*
X0289872Y0104288D03*
X0289872Y0104328D03*
X0289872Y0104409D03*
X0289872Y0104448D03*
X0289872Y0104488D03*
X0289872Y0104528D03*
X0289872Y0104609D03*
X0289872Y0104648D03*
X0289872Y0104688D03*
X0289872Y0104728D03*
X0289872Y0104809D03*
X0289872Y0104848D03*
X0289872Y0104888D03*
X0289872Y0104928D03*
X0289872Y0105009D03*
X0289872Y0105048D03*
X0289872Y0105088D03*
X0289872Y0105128D03*
X0289872Y0105209D03*
X0289872Y0105248D03*
X0289872Y0105288D03*
X0289872Y0105328D03*
X0289872Y0105409D03*
X0289872Y0105448D03*
X0303032Y0099448D03*
X0316192Y0099448D03*
X0316192Y0099488D03*
X0316192Y0100048D03*
X0316192Y0100088D03*
X0316192Y0100128D03*
X0316192Y0100209D03*
X0316192Y0100248D03*
X0316192Y0100288D03*
X0316192Y0100328D03*
X0316192Y0100409D03*
X0316192Y0100448D03*
X0316192Y0100488D03*
X0316192Y0100528D03*
X0316192Y0100609D03*
X0316192Y0100648D03*
X0316192Y0100688D03*
X0316192Y0100728D03*
X0316192Y0100809D03*
X0316192Y0100848D03*
X0316192Y0100888D03*
X0316192Y0100928D03*
X0316192Y0101009D03*
X0316192Y0101048D03*
X0316192Y0101088D03*
X0316192Y0101128D03*
X0316192Y0101209D03*
X0316192Y0101248D03*
X0316192Y0101288D03*
X0316192Y0101328D03*
X0316192Y0101409D03*
X0316192Y0101448D03*
X0316192Y0101488D03*
X0316192Y0101528D03*
X0316192Y0101609D03*
X0316192Y0101648D03*
X0316192Y0101688D03*
X0316192Y0101728D03*
X0316192Y0101809D03*
X0316192Y0101848D03*
X0316192Y0101888D03*
X0316192Y0101928D03*
X0316192Y0102009D03*
X0316192Y0102048D03*
X0316192Y0102088D03*
X0316192Y0102128D03*
X0316192Y0102209D03*
X0316192Y0102248D03*
X0316192Y0102288D03*
X0316192Y0102328D03*
X0316192Y0102409D03*
X0316192Y0102448D03*
X0316192Y0102488D03*
X0316192Y0102528D03*
X0316192Y0102609D03*
X0316192Y0102648D03*
X0316192Y0102688D03*
X0316192Y0102728D03*
X0316192Y0102809D03*
X0316192Y0102848D03*
X0316192Y0102888D03*
X0316192Y0102928D03*
X0316192Y0103009D03*
X0316192Y0103048D03*
X0316192Y0103088D03*
X0316192Y0103128D03*
X0316192Y0103209D03*
X0316192Y0103248D03*
X0316192Y0103288D03*
X0316192Y0103328D03*
X0316192Y0103409D03*
X0316192Y0103448D03*
X0316192Y0103488D03*
X0316192Y0103528D03*
X0316192Y0103609D03*
X0316192Y0103648D03*
X0316192Y0103688D03*
X0316192Y0103728D03*
X0316192Y0103809D03*
X0316192Y0103848D03*
X0316192Y0103888D03*
X0316192Y0103928D03*
X0316192Y0104009D03*
X0316192Y0104048D03*
X0316192Y0104088D03*
X0316192Y0104128D03*
X0316192Y0104209D03*
X0316192Y0104248D03*
X0316192Y0104288D03*
X0316192Y0104328D03*
X0316192Y0104409D03*
X0316192Y0104448D03*
X0316192Y0104488D03*
X0316192Y0104528D03*
X0316192Y0104609D03*
X0316192Y0104648D03*
X0316192Y0104688D03*
X0316192Y0104728D03*
X0316192Y0104809D03*
X0316192Y0104848D03*
X0316192Y0104888D03*
X0316192Y0104928D03*
X0316192Y0105009D03*
X0316192Y0105048D03*
X0316192Y0105088D03*
X0316192Y0105128D03*
X0316192Y0105209D03*
X0281712Y0078528D03*
X0281712Y0073848D03*
X0281712Y0073688D03*
X0281752Y0065288D03*
X0281752Y0065248D03*
X0281752Y0065209D03*
X0281752Y0060609D03*
X0281752Y0060528D03*
X0281712Y0057288D03*
X0281712Y0057248D03*
X0281712Y0057209D03*
X0289872Y0052648D03*
X0289872Y0052609D03*
X0289872Y0052528D03*
X0289872Y0052488D03*
X0289872Y0052448D03*
X0289872Y0052409D03*
X0289872Y0052328D03*
X0289872Y0052288D03*
X0289872Y0052248D03*
X0289872Y0052209D03*
X0289872Y0052128D03*
X0289872Y0052088D03*
X0289872Y0052048D03*
X0289872Y0052009D03*
X0289872Y0051928D03*
X0289872Y0051888D03*
X0289872Y0051848D03*
X0289872Y0051809D03*
X0289872Y0051728D03*
X0289872Y0051688D03*
X0289872Y0051648D03*
X0289872Y0051609D03*
X0289872Y0051528D03*
X0289872Y0051488D03*
X0289872Y0051448D03*
X0289872Y0051409D03*
X0289872Y0051328D03*
X0289872Y0051288D03*
X0289872Y0051248D03*
X0289872Y0051209D03*
X0289872Y0051128D03*
X0289872Y0051088D03*
X0289872Y0051048D03*
X0289872Y0051009D03*
X0289872Y0050928D03*
X0289872Y0050888D03*
X0289872Y0050848D03*
X0289872Y0050809D03*
X0289872Y0050728D03*
X0289872Y0050688D03*
X0289872Y0050648D03*
X0289872Y0050609D03*
X0289872Y0050528D03*
X0289872Y0050488D03*
X0289872Y0050448D03*
X0289872Y0050409D03*
X0289872Y0050328D03*
X0289872Y0050288D03*
X0289872Y0050248D03*
X0289872Y0050209D03*
X0289872Y0050128D03*
X0289872Y0050088D03*
X0289872Y0050048D03*
X0289872Y0050009D03*
X0289872Y0049928D03*
X0289872Y0049888D03*
X0289872Y0049848D03*
X0289872Y0049809D03*
X0289872Y0049728D03*
X0289872Y0049688D03*
X0289872Y0049648D03*
X0289872Y0049609D03*
X0289872Y0049528D03*
X0289872Y0049488D03*
X0289872Y0049448D03*
X0289872Y0049409D03*
X0289872Y0049328D03*
X0289872Y0049288D03*
X0289872Y0049248D03*
X0289872Y0049209D03*
X0289872Y0049128D03*
X0289872Y0049088D03*
X0289872Y0049048D03*
X0289872Y0049009D03*
X0289872Y0048928D03*
X0289872Y0048888D03*
X0289872Y0048848D03*
X0289872Y0048809D03*
X0289872Y0048728D03*
X0289872Y0048688D03*
X0289872Y0048648D03*
X0289872Y0048609D03*
X0289872Y0048528D03*
X0289872Y0048488D03*
X0289872Y0048448D03*
X0289872Y0048409D03*
X0289872Y0048328D03*
X0289872Y0048288D03*
X0289872Y0048248D03*
X0289872Y0048209D03*
X0289872Y0048128D03*
X0289872Y0048088D03*
X0289872Y0048048D03*
X0289872Y0048009D03*
X0289872Y0047928D03*
X0289872Y0047888D03*
X0289872Y0047848D03*
X0289872Y0047809D03*
X0289872Y0047728D03*
X0289872Y0047688D03*
X0289872Y0047648D03*
X0289872Y0047609D03*
X0289872Y0047528D03*
X0289872Y0047488D03*
X0289872Y0047448D03*
X0289872Y0047409D03*
X0289872Y0047328D03*
X0289872Y0047288D03*
X0289872Y0047248D03*
X0289872Y0047209D03*
X0289872Y0047128D03*
X0289872Y0047088D03*
X0289872Y0047048D03*
X0289872Y0047009D03*
X0289872Y0046928D03*
X0289872Y0046888D03*
X0289872Y0046848D03*
X0289872Y0046809D03*
X0289872Y0046728D03*
X0289872Y0046688D03*
X0303032Y0052688D03*
X0303032Y0052728D03*
X0316192Y0052688D03*
X0316192Y0052648D03*
X0316192Y0052128D03*
X0316192Y0052009D03*
X0316192Y0051928D03*
X0316192Y0051888D03*
X0316192Y0051848D03*
X0316192Y0051809D03*
X0316192Y0051728D03*
X0316192Y0051688D03*
X0316192Y0051648D03*
X0316192Y0051609D03*
X0316192Y0051528D03*
X0316192Y0051488D03*
X0316192Y0051448D03*
X0316192Y0051409D03*
X0316192Y0051328D03*
X0316192Y0051288D03*
X0316192Y0051248D03*
X0316192Y0051209D03*
X0316192Y0051128D03*
X0316192Y0051088D03*
X0316192Y0051048D03*
X0316192Y0051009D03*
X0316192Y0050928D03*
X0316192Y0050888D03*
X0316192Y0050848D03*
X0316192Y0050809D03*
X0316192Y0050728D03*
X0316192Y0050688D03*
X0316192Y0050648D03*
X0316192Y0050609D03*
X0316192Y0050528D03*
X0316192Y0050488D03*
X0316192Y0050448D03*
X0316192Y0050409D03*
X0316192Y0050328D03*
X0316192Y0050288D03*
X0316192Y0050248D03*
X0316192Y0050209D03*
X0316192Y0050128D03*
X0316192Y0050088D03*
X0316192Y0050048D03*
X0316192Y0050009D03*
X0316192Y0049928D03*
X0316192Y0049888D03*
X0316192Y0049848D03*
X0316192Y0049809D03*
X0316192Y0049728D03*
X0316192Y0049688D03*
X0316192Y0049648D03*
X0316192Y0049609D03*
X0316192Y0049528D03*
X0316192Y0049488D03*
X0316192Y0049448D03*
X0316192Y0049409D03*
X0316192Y0049328D03*
X0316192Y0049288D03*
X0316192Y0049248D03*
X0316192Y0049209D03*
X0316192Y0049128D03*
X0316192Y0049088D03*
X0316192Y0049048D03*
X0316192Y0049009D03*
X0316192Y0048928D03*
X0316192Y0048888D03*
X0316192Y0048848D03*
X0316192Y0048809D03*
X0316192Y0048728D03*
X0316192Y0048688D03*
X0316192Y0048648D03*
X0316192Y0048609D03*
X0316192Y0048528D03*
X0316192Y0048488D03*
X0316192Y0048448D03*
X0316192Y0048409D03*
X0316192Y0048328D03*
X0316192Y0048288D03*
X0316192Y0048248D03*
X0316192Y0048209D03*
X0316192Y0048128D03*
X0316192Y0048088D03*
X0316192Y0048048D03*
X0316192Y0048009D03*
X0316192Y0047928D03*
X0316192Y0047888D03*
X0316192Y0047848D03*
X0316192Y0047809D03*
X0316192Y0047728D03*
X0316192Y0047688D03*
X0316192Y0047648D03*
X0316192Y0047609D03*
X0316192Y0047528D03*
X0316192Y0047488D03*
X0316192Y0047448D03*
X0316192Y0047409D03*
X0316192Y0047328D03*
X0316192Y0047288D03*
X0316192Y0047248D03*
X0316192Y0047209D03*
X0316192Y0047128D03*
X0316192Y0047088D03*
X0316192Y0047048D03*
X0316192Y0047009D03*
X0316192Y0046888D03*
X0316192Y0046848D03*
D81*
X0316172Y0046809D03*
X0316172Y0046728D03*
X0316172Y0046928D03*
X0316172Y0052048D03*
X0316172Y0052088D03*
X0316172Y0052209D03*
X0316172Y0052248D03*
X0316172Y0052288D03*
X0316172Y0052328D03*
X0316172Y0052409D03*
X0316172Y0052448D03*
X0316172Y0052488D03*
X0316172Y0052528D03*
X0316172Y0052609D03*
X0316172Y0099528D03*
X0316172Y0099809D03*
X0316172Y0099848D03*
X0316172Y0099888D03*
X0316172Y0099928D03*
X0316172Y0100009D03*
X0316172Y0105248D03*
X0316172Y0105288D03*
X0316172Y0105328D03*
X0316172Y0105409D03*
X0316172Y0105448D03*
X0068172Y0092609D03*
X0068172Y0092528D03*
X0068172Y0092488D03*
X0068172Y0092448D03*
X0068172Y0092409D03*
X0068172Y0092328D03*
X0068172Y0092288D03*
X0068172Y0092248D03*
X0068172Y0092209D03*
X0068172Y0092088D03*
X0068172Y0092048D03*
X0068172Y0086928D03*
X0068172Y0086809D03*
X0068172Y0086728D03*
X0068172Y0139528D03*
X0068172Y0139809D03*
X0068172Y0139848D03*
X0068172Y0139888D03*
X0068172Y0139928D03*
X0068172Y0140009D03*
X0068172Y0145248D03*
X0068172Y0145288D03*
X0068172Y0145328D03*
X0068172Y0145409D03*
X0068172Y0145448D03*
D82*
X0068172Y0145369D03*
X0068172Y0139969D03*
X0068172Y0139769D03*
X0068172Y0092569D03*
X0068172Y0092369D03*
X0068172Y0092169D03*
X0068172Y0086969D03*
X0068172Y0086769D03*
X0316172Y0099769D03*
X0316172Y0099969D03*
X0316172Y0105369D03*
X0316172Y0052569D03*
X0316172Y0052369D03*
X0316172Y0052169D03*
X0316172Y0046969D03*
X0316172Y0046769D03*
D83*
X0316192Y0047169D03*
X0316192Y0047369D03*
X0316192Y0047569D03*
X0316192Y0047769D03*
X0316192Y0047969D03*
X0316192Y0048169D03*
X0316192Y0048369D03*
X0316192Y0048569D03*
X0316192Y0048769D03*
X0316192Y0048969D03*
X0316192Y0049169D03*
X0316192Y0049369D03*
X0316192Y0049569D03*
X0316192Y0049769D03*
X0316192Y0049969D03*
X0316192Y0050169D03*
X0316192Y0050369D03*
X0316192Y0050569D03*
X0316192Y0050769D03*
X0316192Y0050969D03*
X0316192Y0051169D03*
X0316192Y0051369D03*
X0316192Y0051569D03*
X0316192Y0051769D03*
X0316192Y0051969D03*
X0289872Y0051969D03*
X0289872Y0052169D03*
X0289872Y0052369D03*
X0289872Y0052569D03*
X0289872Y0051769D03*
X0289872Y0051569D03*
X0289872Y0051369D03*
X0289872Y0051169D03*
X0289872Y0050969D03*
X0289872Y0050769D03*
X0289872Y0050569D03*
X0289872Y0050369D03*
X0289872Y0050169D03*
X0289872Y0049969D03*
X0289872Y0049769D03*
X0289872Y0049569D03*
X0289872Y0049369D03*
X0289872Y0049169D03*
X0289872Y0048969D03*
X0289872Y0048769D03*
X0289872Y0048569D03*
X0289872Y0048369D03*
X0289872Y0048169D03*
X0289872Y0047969D03*
X0289872Y0047769D03*
X0289872Y0047569D03*
X0289872Y0047369D03*
X0289872Y0047169D03*
X0289872Y0046969D03*
X0289872Y0046769D03*
X0281752Y0060569D03*
X0281712Y0078369D03*
X0281752Y0086969D03*
X0281712Y0094969D03*
X0289872Y0099569D03*
X0289872Y0099769D03*
X0289872Y0099969D03*
X0289872Y0100169D03*
X0289872Y0100369D03*
X0289872Y0100569D03*
X0289872Y0100769D03*
X0289872Y0100969D03*
X0289872Y0101169D03*
X0289872Y0101369D03*
X0289872Y0101569D03*
X0289872Y0101769D03*
X0289872Y0101969D03*
X0289872Y0102169D03*
X0289872Y0102369D03*
X0289872Y0102569D03*
X0289872Y0102769D03*
X0289872Y0102969D03*
X0289872Y0103169D03*
X0289872Y0103369D03*
X0289872Y0103569D03*
X0289872Y0103769D03*
X0289872Y0103969D03*
X0289872Y0104169D03*
X0289872Y0104369D03*
X0289872Y0104569D03*
X0289872Y0104769D03*
X0289872Y0104969D03*
X0289872Y0105169D03*
X0289872Y0105369D03*
X0316192Y0105169D03*
X0316192Y0104969D03*
X0316192Y0104769D03*
X0316192Y0104569D03*
X0316192Y0104369D03*
X0316192Y0104169D03*
X0316192Y0103969D03*
X0316192Y0103769D03*
X0316192Y0103569D03*
X0316192Y0103369D03*
X0316192Y0103169D03*
X0316192Y0102969D03*
X0316192Y0102769D03*
X0316192Y0102569D03*
X0316192Y0102369D03*
X0316192Y0102169D03*
X0316192Y0101969D03*
X0316192Y0101769D03*
X0316192Y0101569D03*
X0316192Y0101369D03*
X0316192Y0101169D03*
X0316192Y0100969D03*
X0316192Y0100769D03*
X0316192Y0100569D03*
X0316192Y0100369D03*
X0316192Y0100169D03*
X0068192Y0091969D03*
X0068192Y0091769D03*
X0068192Y0091569D03*
X0068192Y0091369D03*
X0068192Y0091169D03*
X0068192Y0090969D03*
X0068192Y0090769D03*
X0068192Y0090569D03*
X0068192Y0090369D03*
X0068192Y0090169D03*
X0068192Y0089969D03*
X0068192Y0089769D03*
X0068192Y0089569D03*
X0068192Y0089369D03*
X0068192Y0089169D03*
X0068192Y0088969D03*
X0068192Y0088769D03*
X0068192Y0088569D03*
X0068192Y0088369D03*
X0068192Y0088169D03*
X0068192Y0087969D03*
X0068192Y0087769D03*
X0068192Y0087569D03*
X0068192Y0087369D03*
X0068192Y0087169D03*
X0041872Y0087169D03*
X0041872Y0087369D03*
X0041872Y0087569D03*
X0041872Y0087769D03*
X0041872Y0087969D03*
X0041872Y0088169D03*
X0041872Y0088369D03*
X0041872Y0088569D03*
X0041872Y0088769D03*
X0041872Y0088969D03*
X0041872Y0089169D03*
X0041872Y0089369D03*
X0041872Y0089569D03*
X0041872Y0089769D03*
X0041872Y0089969D03*
X0041872Y0090169D03*
X0041872Y0090369D03*
X0041872Y0090569D03*
X0041872Y0090769D03*
X0041872Y0090969D03*
X0041872Y0091169D03*
X0041872Y0091369D03*
X0041872Y0091569D03*
X0041872Y0091769D03*
X0041872Y0091969D03*
X0041872Y0092169D03*
X0041872Y0092369D03*
X0041872Y0092569D03*
X0041872Y0086969D03*
X0041872Y0086769D03*
X0033752Y0100569D03*
X0033712Y0118369D03*
X0033752Y0126969D03*
X0033712Y0134969D03*
X0041872Y0139569D03*
X0041872Y0139769D03*
X0041872Y0139969D03*
X0041872Y0140169D03*
X0041872Y0140369D03*
X0041872Y0140569D03*
X0041872Y0140769D03*
X0041872Y0140969D03*
X0041872Y0141169D03*
X0041872Y0141369D03*
X0041872Y0141569D03*
X0041872Y0141769D03*
X0041872Y0141969D03*
X0041872Y0142169D03*
X0041872Y0142369D03*
X0041872Y0142569D03*
X0041872Y0142769D03*
X0041872Y0142969D03*
X0041872Y0143169D03*
X0041872Y0143369D03*
X0041872Y0143569D03*
X0041872Y0143769D03*
X0041872Y0143969D03*
X0041872Y0144169D03*
X0041872Y0144369D03*
X0041872Y0144569D03*
X0041872Y0144769D03*
X0041872Y0144969D03*
X0041872Y0145169D03*
X0041872Y0145369D03*
X0068192Y0145169D03*
X0068192Y0144969D03*
X0068192Y0144769D03*
X0068192Y0144569D03*
X0068192Y0144369D03*
X0068192Y0144169D03*
X0068192Y0143969D03*
X0068192Y0143769D03*
X0068192Y0143569D03*
X0068192Y0143369D03*
X0068192Y0143169D03*
X0068192Y0142969D03*
X0068192Y0142769D03*
X0068192Y0142569D03*
X0068192Y0142369D03*
X0068192Y0142169D03*
X0068192Y0141969D03*
X0068192Y0141769D03*
X0068192Y0141569D03*
X0068192Y0141369D03*
X0068192Y0141169D03*
X0068192Y0140969D03*
X0068192Y0140769D03*
X0068192Y0140569D03*
X0068192Y0140369D03*
X0068192Y0140169D03*
D84*
X0076332Y0131688D03*
X0076332Y0131648D03*
X0076332Y0131609D03*
X0076332Y0127048D03*
X0076332Y0127009D03*
X0076332Y0126928D03*
X0076332Y0126888D03*
X0076332Y0126848D03*
X0062132Y0128448D03*
X0076332Y0118528D03*
X0076332Y0118488D03*
X0076332Y0118448D03*
X0076332Y0118409D03*
X0076332Y0113848D03*
X0076332Y0113809D03*
X0076332Y0113728D03*
X0076332Y0113688D03*
X0076332Y0105328D03*
X0076332Y0105288D03*
X0076332Y0105248D03*
X0076332Y0105209D03*
X0076332Y0100609D03*
X0076332Y0100528D03*
X0076332Y0100488D03*
X0041892Y0092728D03*
X0041892Y0092688D03*
X0033732Y0097009D03*
X0033732Y0097048D03*
X0033732Y0097088D03*
X0033732Y0097128D03*
X0033732Y0097328D03*
X0033732Y0097409D03*
X0033732Y0097448D03*
X0033732Y0097488D03*
X0033732Y0097528D03*
X0033732Y0097609D03*
X0033732Y0097648D03*
X0033732Y0097688D03*
X0033732Y0097728D03*
X0033732Y0097809D03*
X0033732Y0097848D03*
X0033732Y0097888D03*
X0033732Y0097928D03*
X0033732Y0098009D03*
X0033732Y0098048D03*
X0033732Y0098088D03*
X0033732Y0098128D03*
X0033732Y0098209D03*
X0033732Y0098248D03*
X0033732Y0098288D03*
X0033732Y0098328D03*
X0033732Y0098409D03*
X0033732Y0098448D03*
X0033732Y0098488D03*
X0033732Y0098528D03*
X0033732Y0098609D03*
X0033732Y0098648D03*
X0033732Y0098688D03*
X0033732Y0098728D03*
X0033732Y0098809D03*
X0033732Y0098848D03*
X0033732Y0098888D03*
X0033732Y0098928D03*
X0033732Y0099009D03*
X0033732Y0099048D03*
X0033732Y0099088D03*
X0033732Y0099128D03*
X0033732Y0099209D03*
X0033732Y0099248D03*
X0033732Y0099288D03*
X0033732Y0099328D03*
X0033732Y0099409D03*
X0033732Y0099448D03*
X0033732Y0099488D03*
X0033732Y0099528D03*
X0033732Y0099609D03*
X0033732Y0099648D03*
X0033732Y0099688D03*
X0033732Y0099728D03*
X0033732Y0099809D03*
X0033732Y0099848D03*
X0033732Y0099888D03*
X0033732Y0099928D03*
X0033732Y0100009D03*
X0033732Y0100048D03*
X0033732Y0100088D03*
X0033732Y0100128D03*
X0033732Y0100209D03*
X0033732Y0100248D03*
X0033732Y0100288D03*
X0033732Y0100328D03*
X0033732Y0100409D03*
X0033732Y0100448D03*
X0033732Y0100488D03*
X0033732Y0100648D03*
X0033732Y0100688D03*
X0033732Y0105128D03*
X0033732Y0105328D03*
X0033732Y0105409D03*
X0033732Y0105448D03*
X0033732Y0105488D03*
X0033732Y0105528D03*
X0033732Y0105609D03*
X0033732Y0105648D03*
X0033732Y0105688D03*
X0033732Y0105728D03*
X0033732Y0105809D03*
X0033732Y0105848D03*
X0033732Y0105888D03*
X0033732Y0105928D03*
X0033732Y0106009D03*
X0033732Y0106048D03*
X0033732Y0106088D03*
X0033732Y0106128D03*
X0033732Y0106209D03*
X0033732Y0106248D03*
X0033732Y0106288D03*
X0033732Y0106328D03*
X0033732Y0106409D03*
X0033732Y0106448D03*
X0033732Y0106488D03*
X0033732Y0106528D03*
X0033732Y0106609D03*
X0033732Y0106648D03*
X0033732Y0106688D03*
X0033732Y0106728D03*
X0033732Y0106809D03*
X0033732Y0106848D03*
X0033732Y0106888D03*
X0033732Y0106928D03*
X0033732Y0107009D03*
X0033732Y0107048D03*
X0033732Y0107088D03*
X0033732Y0107128D03*
X0033732Y0107209D03*
X0033732Y0107248D03*
X0033732Y0107288D03*
X0033732Y0107328D03*
X0033732Y0107409D03*
X0033732Y0107448D03*
X0033732Y0107488D03*
X0033732Y0107528D03*
X0033732Y0107609D03*
X0033732Y0107648D03*
X0033732Y0107688D03*
X0033732Y0107728D03*
X0033732Y0107809D03*
X0033732Y0107848D03*
X0033732Y0107888D03*
X0033732Y0107928D03*
X0033732Y0108009D03*
X0033732Y0108048D03*
X0033732Y0108088D03*
X0033732Y0108128D03*
X0033732Y0108209D03*
X0033732Y0108248D03*
X0033732Y0108288D03*
X0033732Y0108328D03*
X0033732Y0108409D03*
X0033732Y0108448D03*
X0033732Y0108488D03*
X0033732Y0108528D03*
X0033732Y0108609D03*
X0033732Y0108648D03*
X0033732Y0108688D03*
X0033732Y0108728D03*
X0033732Y0108809D03*
X0033732Y0108848D03*
X0033732Y0108888D03*
X0033732Y0108928D03*
X0033732Y0109009D03*
X0033732Y0109048D03*
X0033732Y0109088D03*
X0033732Y0109128D03*
X0033732Y0109209D03*
X0033732Y0109248D03*
X0033732Y0109288D03*
X0033732Y0109328D03*
X0033732Y0109409D03*
X0033732Y0109448D03*
X0033732Y0109488D03*
X0033732Y0109528D03*
X0033732Y0109609D03*
X0033732Y0109648D03*
X0033732Y0109688D03*
X0033732Y0109728D03*
X0033732Y0109809D03*
X0033732Y0109848D03*
X0033732Y0109888D03*
X0033732Y0109928D03*
X0033732Y0110009D03*
X0033732Y0110048D03*
X0033732Y0110088D03*
X0033732Y0110128D03*
X0033732Y0110209D03*
X0033732Y0110248D03*
X0033732Y0110288D03*
X0033732Y0110328D03*
X0033732Y0110409D03*
X0033732Y0110448D03*
X0033732Y0110488D03*
X0033732Y0110528D03*
X0033732Y0110609D03*
X0033732Y0110648D03*
X0033732Y0110688D03*
X0033732Y0110728D03*
X0033732Y0110809D03*
X0033732Y0110848D03*
X0033732Y0110888D03*
X0033732Y0110928D03*
X0033732Y0111009D03*
X0033732Y0111048D03*
X0033732Y0111088D03*
X0033732Y0111128D03*
X0033732Y0111209D03*
X0033732Y0111248D03*
X0033732Y0111288D03*
X0033732Y0111328D03*
X0033732Y0111409D03*
X0033732Y0111448D03*
X0033732Y0111488D03*
X0033732Y0111528D03*
X0033732Y0111609D03*
X0033732Y0111648D03*
X0033732Y0111688D03*
X0033732Y0111728D03*
X0033732Y0111809D03*
X0033732Y0111848D03*
X0033732Y0111888D03*
X0033732Y0111928D03*
X0033732Y0112009D03*
X0033732Y0112048D03*
X0033732Y0112088D03*
X0033732Y0112128D03*
X0033732Y0112209D03*
X0033732Y0112248D03*
X0033732Y0112288D03*
X0033732Y0112328D03*
X0033732Y0112409D03*
X0033732Y0112448D03*
X0033732Y0112488D03*
X0033732Y0112528D03*
X0033732Y0112609D03*
X0033732Y0112648D03*
X0033732Y0112688D03*
X0033732Y0112728D03*
X0033732Y0112809D03*
X0033732Y0112848D03*
X0033732Y0112888D03*
X0033732Y0112928D03*
X0033732Y0113009D03*
X0033732Y0113048D03*
X0033732Y0113088D03*
X0033732Y0113128D03*
X0033732Y0113209D03*
X0033732Y0113248D03*
X0033732Y0113288D03*
X0033732Y0113328D03*
X0033732Y0113409D03*
X0033732Y0113448D03*
X0033732Y0113488D03*
X0033732Y0113528D03*
X0033732Y0113609D03*
X0033732Y0113648D03*
X0033732Y0113888D03*
X0033732Y0118328D03*
X0033732Y0118609D03*
X0033732Y0118648D03*
X0033732Y0118688D03*
X0033732Y0118728D03*
X0033732Y0118809D03*
X0033732Y0118848D03*
X0033732Y0118888D03*
X0033732Y0118928D03*
X0033732Y0119009D03*
X0033732Y0119048D03*
X0033732Y0119088D03*
X0033732Y0119128D03*
X0033732Y0119209D03*
X0033732Y0119248D03*
X0033732Y0119288D03*
X0033732Y0119328D03*
X0033732Y0119409D03*
X0033732Y0119448D03*
X0033732Y0119488D03*
X0033732Y0119528D03*
X0033732Y0119609D03*
X0033732Y0119648D03*
X0033732Y0119688D03*
X0033732Y0119728D03*
X0033732Y0119809D03*
X0033732Y0119848D03*
X0033732Y0119888D03*
X0033732Y0119928D03*
X0033732Y0120009D03*
X0033732Y0120048D03*
X0033732Y0120088D03*
X0033732Y0120128D03*
X0033732Y0120209D03*
X0033732Y0120248D03*
X0033732Y0120288D03*
X0033732Y0120328D03*
X0033732Y0120409D03*
X0033732Y0120448D03*
X0033732Y0120488D03*
X0033732Y0120528D03*
X0033732Y0120609D03*
X0033732Y0120648D03*
X0033732Y0120688D03*
X0033732Y0120728D03*
X0033732Y0120809D03*
X0033732Y0120848D03*
X0033732Y0120888D03*
X0033732Y0120928D03*
X0033732Y0121009D03*
X0033732Y0121048D03*
X0033732Y0121088D03*
X0033732Y0121128D03*
X0033732Y0121209D03*
X0033732Y0121248D03*
X0033732Y0121288D03*
X0033732Y0121328D03*
X0033732Y0121409D03*
X0033732Y0121448D03*
X0033732Y0121488D03*
X0033732Y0121528D03*
X0033732Y0121609D03*
X0033732Y0121648D03*
X0033732Y0121688D03*
X0033732Y0121728D03*
X0033732Y0121809D03*
X0033732Y0121848D03*
X0033732Y0121888D03*
X0033732Y0121928D03*
X0033732Y0122009D03*
X0033732Y0122048D03*
X0033732Y0122088D03*
X0033732Y0122128D03*
X0033732Y0122209D03*
X0033732Y0122248D03*
X0033732Y0122288D03*
X0033732Y0122328D03*
X0033732Y0122409D03*
X0033732Y0122448D03*
X0033732Y0122488D03*
X0033732Y0122528D03*
X0033732Y0122609D03*
X0033732Y0122648D03*
X0033732Y0122688D03*
X0033732Y0122728D03*
X0033732Y0122809D03*
X0033732Y0122848D03*
X0033732Y0122888D03*
X0033732Y0122928D03*
X0033732Y0123009D03*
X0033732Y0123048D03*
X0033732Y0123088D03*
X0033732Y0123128D03*
X0033732Y0123209D03*
X0033732Y0123248D03*
X0033732Y0123288D03*
X0033732Y0123328D03*
X0033732Y0123409D03*
X0033732Y0123448D03*
X0033732Y0123488D03*
X0033732Y0123528D03*
X0033732Y0123609D03*
X0033732Y0123648D03*
X0033732Y0123688D03*
X0033732Y0123728D03*
X0033732Y0123809D03*
X0033732Y0123848D03*
X0033732Y0123888D03*
X0033732Y0123928D03*
X0033732Y0124009D03*
X0033732Y0124048D03*
X0033732Y0124088D03*
X0033732Y0124128D03*
X0033732Y0124209D03*
X0033732Y0124248D03*
X0033732Y0124288D03*
X0033732Y0124328D03*
X0033732Y0124409D03*
X0033732Y0124448D03*
X0033732Y0124488D03*
X0033732Y0124528D03*
X0033732Y0124609D03*
X0033732Y0124648D03*
X0033732Y0124688D03*
X0033732Y0124728D03*
X0033732Y0124809D03*
X0033732Y0124848D03*
X0033732Y0124888D03*
X0033732Y0124928D03*
X0033732Y0125009D03*
X0033732Y0125048D03*
X0033732Y0125088D03*
X0033732Y0125128D03*
X0033732Y0125209D03*
X0033732Y0125248D03*
X0033732Y0125288D03*
X0033732Y0125328D03*
X0033732Y0125409D03*
X0033732Y0125448D03*
X0033732Y0125488D03*
X0033732Y0125528D03*
X0033732Y0125609D03*
X0033732Y0125648D03*
X0033732Y0125688D03*
X0033732Y0125728D03*
X0033732Y0125809D03*
X0033732Y0125848D03*
X0033732Y0125888D03*
X0033732Y0125928D03*
X0033732Y0126009D03*
X0033732Y0126048D03*
X0033732Y0126088D03*
X0033732Y0126128D03*
X0033732Y0126209D03*
X0033732Y0126248D03*
X0033732Y0126288D03*
X0033732Y0126328D03*
X0033732Y0126409D03*
X0033732Y0126448D03*
X0033732Y0126488D03*
X0033732Y0126528D03*
X0033732Y0126609D03*
X0033732Y0126648D03*
X0033732Y0126688D03*
X0033732Y0126728D03*
X0033732Y0126809D03*
X0033732Y0126848D03*
X0033732Y0127048D03*
X0033732Y0127088D03*
X0033732Y0131528D03*
X0033732Y0131609D03*
X0033732Y0131688D03*
X0033732Y0131728D03*
X0033732Y0131809D03*
X0033732Y0131848D03*
X0033732Y0131888D03*
X0033732Y0131928D03*
X0033732Y0132009D03*
X0033732Y0132048D03*
X0033732Y0132088D03*
X0033732Y0132128D03*
X0033732Y0132209D03*
X0033732Y0132248D03*
X0033732Y0132288D03*
X0033732Y0132328D03*
X0033732Y0132409D03*
X0033732Y0132448D03*
X0033732Y0132488D03*
X0033732Y0132528D03*
X0033732Y0132609D03*
X0033732Y0132648D03*
X0033732Y0132688D03*
X0033732Y0132728D03*
X0033732Y0132809D03*
X0033732Y0132848D03*
X0033732Y0132888D03*
X0033732Y0132928D03*
X0033732Y0133009D03*
X0033732Y0133048D03*
X0033732Y0133088D03*
X0033732Y0133128D03*
X0033732Y0133209D03*
X0033732Y0133248D03*
X0033732Y0133288D03*
X0033732Y0133328D03*
X0033732Y0133409D03*
X0033732Y0133448D03*
X0033732Y0133488D03*
X0033732Y0133528D03*
X0033732Y0133609D03*
X0033732Y0133648D03*
X0033732Y0133688D03*
X0033732Y0133728D03*
X0033732Y0133809D03*
X0033732Y0133848D03*
X0033732Y0133888D03*
X0033732Y0133928D03*
X0033732Y0134009D03*
X0033732Y0134048D03*
X0033732Y0134088D03*
X0033732Y0134128D03*
X0033732Y0134209D03*
X0033732Y0134248D03*
X0033732Y0134288D03*
X0033732Y0134328D03*
X0033732Y0134409D03*
X0033732Y0134448D03*
X0033732Y0134488D03*
X0033732Y0134528D03*
X0033732Y0134609D03*
X0033732Y0134648D03*
X0033732Y0134688D03*
X0033732Y0134728D03*
X0033732Y0134809D03*
X0033732Y0134848D03*
X0033732Y0134888D03*
X0033732Y0135048D03*
X0033732Y0135088D03*
X0033732Y0135128D03*
X0033732Y0135209D03*
X0041892Y0139448D03*
X0041892Y0139488D03*
X0281732Y0095209D03*
X0281732Y0095128D03*
X0281732Y0095088D03*
X0281732Y0095048D03*
X0281732Y0094888D03*
X0281732Y0094848D03*
X0281732Y0094809D03*
X0281732Y0094728D03*
X0281732Y0094688D03*
X0281732Y0094648D03*
X0281732Y0094609D03*
X0281732Y0094528D03*
X0281732Y0094488D03*
X0281732Y0094448D03*
X0281732Y0094409D03*
X0281732Y0094328D03*
X0281732Y0094288D03*
X0281732Y0094248D03*
X0281732Y0094209D03*
X0281732Y0094128D03*
X0281732Y0094088D03*
X0281732Y0094048D03*
X0281732Y0094009D03*
X0281732Y0093928D03*
X0281732Y0093888D03*
X0281732Y0093848D03*
X0281732Y0093809D03*
X0281732Y0093728D03*
X0281732Y0093688D03*
X0281732Y0093648D03*
X0281732Y0093609D03*
X0281732Y0093528D03*
X0281732Y0093488D03*
X0281732Y0093448D03*
X0281732Y0093409D03*
X0281732Y0093328D03*
X0281732Y0093288D03*
X0281732Y0093248D03*
X0281732Y0093209D03*
X0281732Y0093128D03*
X0281732Y0093088D03*
X0281732Y0093048D03*
X0281732Y0093009D03*
X0281732Y0092928D03*
X0281732Y0092888D03*
X0281732Y0092848D03*
X0281732Y0092809D03*
X0281732Y0092728D03*
X0281732Y0092688D03*
X0281732Y0092648D03*
X0281732Y0092609D03*
X0281732Y0092528D03*
X0281732Y0092488D03*
X0281732Y0092448D03*
X0281732Y0092409D03*
X0281732Y0092328D03*
X0281732Y0092288D03*
X0281732Y0092248D03*
X0281732Y0092209D03*
X0281732Y0092128D03*
X0281732Y0092088D03*
X0281732Y0092048D03*
X0281732Y0092009D03*
X0281732Y0091928D03*
X0281732Y0091888D03*
X0281732Y0091848D03*
X0281732Y0091809D03*
X0281732Y0091728D03*
X0281732Y0091688D03*
X0281732Y0091609D03*
X0281732Y0091528D03*
X0281732Y0087088D03*
X0281732Y0087048D03*
X0281732Y0086848D03*
X0281732Y0086809D03*
X0281732Y0086728D03*
X0281732Y0086688D03*
X0281732Y0086648D03*
X0281732Y0086609D03*
X0281732Y0086528D03*
X0281732Y0086488D03*
X0281732Y0086448D03*
X0281732Y0086409D03*
X0281732Y0086328D03*
X0281732Y0086288D03*
X0281732Y0086248D03*
X0281732Y0086209D03*
X0281732Y0086128D03*
X0281732Y0086088D03*
X0281732Y0086048D03*
X0281732Y0086009D03*
X0281732Y0085928D03*
X0281732Y0085888D03*
X0281732Y0085848D03*
X0281732Y0085809D03*
X0281732Y0085728D03*
X0281732Y0085688D03*
X0281732Y0085648D03*
X0281732Y0085609D03*
X0281732Y0085528D03*
X0281732Y0085488D03*
X0281732Y0085448D03*
X0281732Y0085409D03*
X0281732Y0085328D03*
X0281732Y0085288D03*
X0281732Y0085248D03*
X0281732Y0085209D03*
X0281732Y0085128D03*
X0281732Y0085088D03*
X0281732Y0085048D03*
X0281732Y0085009D03*
X0281732Y0084928D03*
X0281732Y0084888D03*
X0281732Y0084848D03*
X0281732Y0084809D03*
X0281732Y0084728D03*
X0281732Y0084688D03*
X0281732Y0084648D03*
X0281732Y0084609D03*
X0281732Y0084528D03*
X0281732Y0084488D03*
X0281732Y0084448D03*
X0281732Y0084409D03*
X0281732Y0084328D03*
X0281732Y0084288D03*
X0281732Y0084248D03*
X0281732Y0084209D03*
X0281732Y0084128D03*
X0281732Y0084088D03*
X0281732Y0084048D03*
X0281732Y0084009D03*
X0281732Y0083928D03*
X0281732Y0083888D03*
X0281732Y0083848D03*
X0281732Y0083809D03*
X0281732Y0083728D03*
X0281732Y0083688D03*
X0281732Y0083648D03*
X0281732Y0083609D03*
X0281732Y0083528D03*
X0281732Y0083488D03*
X0281732Y0083448D03*
X0281732Y0083409D03*
X0281732Y0083328D03*
X0281732Y0083288D03*
X0281732Y0083248D03*
X0281732Y0083209D03*
X0281732Y0083128D03*
X0281732Y0083088D03*
X0281732Y0083048D03*
X0281732Y0083009D03*
X0281732Y0082928D03*
X0281732Y0082888D03*
X0281732Y0082848D03*
X0281732Y0082809D03*
X0281732Y0082728D03*
X0281732Y0082688D03*
X0281732Y0082648D03*
X0281732Y0082609D03*
X0281732Y0082528D03*
X0281732Y0082488D03*
X0281732Y0082448D03*
X0281732Y0082409D03*
X0281732Y0082328D03*
X0281732Y0082288D03*
X0281732Y0082248D03*
X0281732Y0082209D03*
X0281732Y0082128D03*
X0281732Y0082088D03*
X0281732Y0082048D03*
X0281732Y0082009D03*
X0281732Y0081928D03*
X0281732Y0081888D03*
X0281732Y0081848D03*
X0281732Y0081809D03*
X0281732Y0081728D03*
X0281732Y0081688D03*
X0281732Y0081648D03*
X0281732Y0081609D03*
X0281732Y0081528D03*
X0281732Y0081488D03*
X0281732Y0081448D03*
X0281732Y0081409D03*
X0281732Y0081328D03*
X0281732Y0081288D03*
X0281732Y0081248D03*
X0281732Y0081209D03*
X0281732Y0081128D03*
X0281732Y0081088D03*
X0281732Y0081048D03*
X0281732Y0081009D03*
X0281732Y0080928D03*
X0281732Y0080888D03*
X0281732Y0080848D03*
X0281732Y0080809D03*
X0281732Y0080728D03*
X0281732Y0080688D03*
X0281732Y0080648D03*
X0281732Y0080609D03*
X0281732Y0080528D03*
X0281732Y0080488D03*
X0281732Y0080448D03*
X0281732Y0080409D03*
X0281732Y0080328D03*
X0281732Y0080288D03*
X0281732Y0080248D03*
X0281732Y0080209D03*
X0281732Y0080128D03*
X0281732Y0080088D03*
X0281732Y0080048D03*
X0281732Y0080009D03*
X0281732Y0079928D03*
X0281732Y0079888D03*
X0281732Y0079848D03*
X0281732Y0079809D03*
X0281732Y0079728D03*
X0281732Y0079688D03*
X0281732Y0079648D03*
X0281732Y0079609D03*
X0281732Y0079528D03*
X0281732Y0079488D03*
X0281732Y0079448D03*
X0281732Y0079409D03*
X0281732Y0079328D03*
X0281732Y0079288D03*
X0281732Y0079248D03*
X0281732Y0079209D03*
X0281732Y0079128D03*
X0281732Y0079088D03*
X0281732Y0079048D03*
X0281732Y0079009D03*
X0281732Y0078928D03*
X0281732Y0078888D03*
X0281732Y0078848D03*
X0281732Y0078809D03*
X0281732Y0078728D03*
X0281732Y0078688D03*
X0281732Y0078648D03*
X0281732Y0078609D03*
X0281732Y0078328D03*
X0281732Y0073888D03*
X0281732Y0073648D03*
X0281732Y0073609D03*
X0281732Y0073528D03*
X0281732Y0073488D03*
X0281732Y0073448D03*
X0281732Y0073409D03*
X0281732Y0073328D03*
X0281732Y0073288D03*
X0281732Y0073248D03*
X0281732Y0073209D03*
X0281732Y0073128D03*
X0281732Y0073088D03*
X0281732Y0073048D03*
X0281732Y0073009D03*
X0281732Y0072928D03*
X0281732Y0072888D03*
X0281732Y0072848D03*
X0281732Y0072809D03*
X0281732Y0072728D03*
X0281732Y0072688D03*
X0281732Y0072648D03*
X0281732Y0072609D03*
X0281732Y0072528D03*
X0281732Y0072488D03*
X0281732Y0072448D03*
X0281732Y0072409D03*
X0281732Y0072328D03*
X0281732Y0072288D03*
X0281732Y0072248D03*
X0281732Y0072209D03*
X0281732Y0072128D03*
X0281732Y0072088D03*
X0281732Y0072048D03*
X0281732Y0072009D03*
X0281732Y0071928D03*
X0281732Y0071888D03*
X0281732Y0071848D03*
X0281732Y0071809D03*
X0281732Y0071728D03*
X0281732Y0071688D03*
X0281732Y0071648D03*
X0281732Y0071609D03*
X0281732Y0071528D03*
X0281732Y0071488D03*
X0281732Y0071448D03*
X0281732Y0071409D03*
X0281732Y0071328D03*
X0281732Y0071288D03*
X0281732Y0071248D03*
X0281732Y0071209D03*
X0281732Y0071128D03*
X0281732Y0071088D03*
X0281732Y0071048D03*
X0281732Y0071009D03*
X0281732Y0070928D03*
X0281732Y0070888D03*
X0281732Y0070848D03*
X0281732Y0070809D03*
X0281732Y0070728D03*
X0281732Y0070688D03*
X0281732Y0070648D03*
X0281732Y0070609D03*
X0281732Y0070528D03*
X0281732Y0070488D03*
X0281732Y0070448D03*
X0281732Y0070409D03*
X0281732Y0070328D03*
X0281732Y0070288D03*
X0281732Y0070248D03*
X0281732Y0070209D03*
X0281732Y0070128D03*
X0281732Y0070088D03*
X0281732Y0070048D03*
X0281732Y0070009D03*
X0281732Y0069928D03*
X0281732Y0069888D03*
X0281732Y0069848D03*
X0281732Y0069809D03*
X0281732Y0069728D03*
X0281732Y0069688D03*
X0281732Y0069648D03*
X0281732Y0069609D03*
X0281732Y0069528D03*
X0281732Y0069488D03*
X0281732Y0069448D03*
X0281732Y0069409D03*
X0281732Y0069328D03*
X0281732Y0069288D03*
X0281732Y0069248D03*
X0281732Y0069209D03*
X0281732Y0069128D03*
X0281732Y0069088D03*
X0281732Y0069048D03*
X0281732Y0069009D03*
X0281732Y0068928D03*
X0281732Y0068888D03*
X0281732Y0068848D03*
X0281732Y0068809D03*
X0281732Y0068728D03*
X0281732Y0068688D03*
X0281732Y0068648D03*
X0281732Y0068609D03*
X0281732Y0068528D03*
X0281732Y0068488D03*
X0281732Y0068448D03*
X0281732Y0068409D03*
X0281732Y0068328D03*
X0281732Y0068288D03*
X0281732Y0068248D03*
X0281732Y0068209D03*
X0281732Y0068128D03*
X0281732Y0068088D03*
X0281732Y0068048D03*
X0281732Y0068009D03*
X0281732Y0067928D03*
X0281732Y0067888D03*
X0281732Y0067848D03*
X0281732Y0067809D03*
X0281732Y0067728D03*
X0281732Y0067688D03*
X0281732Y0067648D03*
X0281732Y0067609D03*
X0281732Y0067528D03*
X0281732Y0067488D03*
X0281732Y0067448D03*
X0281732Y0067409D03*
X0281732Y0067328D03*
X0281732Y0067288D03*
X0281732Y0067248D03*
X0281732Y0067209D03*
X0281732Y0067128D03*
X0281732Y0067088D03*
X0281732Y0067048D03*
X0281732Y0067009D03*
X0281732Y0066928D03*
X0281732Y0066888D03*
X0281732Y0066848D03*
X0281732Y0066809D03*
X0281732Y0066728D03*
X0281732Y0066688D03*
X0281732Y0066648D03*
X0281732Y0066609D03*
X0281732Y0066528D03*
X0281732Y0066488D03*
X0281732Y0066448D03*
X0281732Y0066409D03*
X0281732Y0066328D03*
X0281732Y0066288D03*
X0281732Y0066248D03*
X0281732Y0066209D03*
X0281732Y0066128D03*
X0281732Y0066088D03*
X0281732Y0066048D03*
X0281732Y0066009D03*
X0281732Y0065928D03*
X0281732Y0065888D03*
X0281732Y0065848D03*
X0281732Y0065809D03*
X0281732Y0065728D03*
X0281732Y0065688D03*
X0281732Y0065648D03*
X0281732Y0065609D03*
X0281732Y0065528D03*
X0281732Y0065488D03*
X0281732Y0065448D03*
X0281732Y0065409D03*
X0281732Y0065328D03*
X0281732Y0065128D03*
X0281732Y0060688D03*
X0281732Y0060648D03*
X0281732Y0060488D03*
X0281732Y0060448D03*
X0281732Y0060409D03*
X0281732Y0060328D03*
X0281732Y0060288D03*
X0281732Y0060248D03*
X0281732Y0060209D03*
X0281732Y0060128D03*
X0281732Y0060088D03*
X0281732Y0060048D03*
X0281732Y0060009D03*
X0281732Y0059928D03*
X0281732Y0059888D03*
X0281732Y0059848D03*
X0281732Y0059809D03*
X0281732Y0059728D03*
X0281732Y0059688D03*
X0281732Y0059648D03*
X0281732Y0059609D03*
X0281732Y0059528D03*
X0281732Y0059488D03*
X0281732Y0059448D03*
X0281732Y0059409D03*
X0281732Y0059328D03*
X0281732Y0059288D03*
X0281732Y0059248D03*
X0281732Y0059209D03*
X0281732Y0059128D03*
X0281732Y0059088D03*
X0281732Y0059048D03*
X0281732Y0059009D03*
X0281732Y0058928D03*
X0281732Y0058888D03*
X0281732Y0058848D03*
X0281732Y0058809D03*
X0281732Y0058728D03*
X0281732Y0058688D03*
X0281732Y0058648D03*
X0281732Y0058609D03*
X0281732Y0058528D03*
X0281732Y0058488D03*
X0281732Y0058448D03*
X0281732Y0058409D03*
X0281732Y0058328D03*
X0281732Y0058288D03*
X0281732Y0058248D03*
X0281732Y0058209D03*
X0281732Y0058128D03*
X0281732Y0058088D03*
X0281732Y0058048D03*
X0281732Y0058009D03*
X0281732Y0057928D03*
X0281732Y0057888D03*
X0281732Y0057848D03*
X0281732Y0057809D03*
X0281732Y0057728D03*
X0281732Y0057688D03*
X0281732Y0057648D03*
X0281732Y0057609D03*
X0281732Y0057528D03*
X0281732Y0057488D03*
X0281732Y0057448D03*
X0281732Y0057409D03*
X0281732Y0057328D03*
X0281732Y0057128D03*
X0281732Y0057088D03*
X0281732Y0057048D03*
X0281732Y0057009D03*
X0289892Y0052728D03*
X0289892Y0052688D03*
X0324332Y0060488D03*
X0324332Y0060528D03*
X0324332Y0060609D03*
X0324332Y0065209D03*
X0324332Y0065248D03*
X0324332Y0065288D03*
X0324332Y0065328D03*
X0324332Y0073688D03*
X0324332Y0073728D03*
X0324332Y0073809D03*
X0324332Y0073848D03*
X0324332Y0078409D03*
X0324332Y0078448D03*
X0324332Y0078488D03*
X0324332Y0078528D03*
X0324332Y0086848D03*
X0324332Y0086888D03*
X0324332Y0086928D03*
X0324332Y0087009D03*
X0324332Y0087048D03*
X0324332Y0091609D03*
X0324332Y0091648D03*
X0324332Y0091688D03*
X0310132Y0088448D03*
X0289892Y0099448D03*
X0289892Y0099488D03*
D85*
X0316172Y0052728D03*
X0068172Y0092728D03*
D86*
X0068172Y0092769D03*
X0316172Y0052769D03*
D87*
X0303032Y0052769D03*
X0281712Y0060769D03*
X0281712Y0073969D03*
X0281712Y0087169D03*
X0055032Y0092769D03*
X0033712Y0100769D03*
X0033712Y0113969D03*
X0033712Y0127169D03*
D88*
X0041892Y0092769D03*
X0289892Y0052769D03*
D89*
X0316152Y0052809D03*
X0324312Y0056888D03*
X0324312Y0056928D03*
X0281712Y0078209D03*
X0281792Y0095328D03*
X0289912Y0099409D03*
X0324312Y0095288D03*
X0324312Y0095248D03*
X0076312Y0096888D03*
X0076312Y0096928D03*
X0068152Y0092809D03*
X0033712Y0118209D03*
X0033792Y0135328D03*
X0041912Y0139409D03*
X0076312Y0135288D03*
X0076312Y0135248D03*
D90*
X0033692Y0131409D03*
X0033692Y0100809D03*
X0055052Y0092809D03*
X0281692Y0091409D03*
X0281692Y0060809D03*
X0303052Y0052809D03*
D91*
X0289932Y0052809D03*
X0281812Y0056848D03*
X0281652Y0060848D03*
X0281692Y0074009D03*
X0324412Y0060848D03*
X0324292Y0056848D03*
X0324412Y0091328D03*
X0324292Y0095328D03*
X0076412Y0100848D03*
X0076292Y0096848D03*
X0041932Y0092809D03*
X0033812Y0096848D03*
X0033652Y0100848D03*
X0033692Y0114009D03*
X0076412Y0131328D03*
X0076292Y0135328D03*
D92*
X0076512Y0131248D03*
X0033552Y0131248D03*
X0033672Y0118128D03*
X0055032Y0092848D03*
X0068152Y0092848D03*
X0281552Y0091248D03*
X0281672Y0078128D03*
X0324512Y0091248D03*
X0316152Y0052848D03*
X0303032Y0052848D03*
D93*
X0289932Y0052848D03*
X0324212Y0056809D03*
X0324492Y0060928D03*
X0324492Y0078088D03*
X0076212Y0096809D03*
X0076492Y0100928D03*
X0041932Y0092848D03*
X0076492Y0118088D03*
D94*
X0068172Y0092888D03*
X0316172Y0052888D03*
D95*
X0303012Y0052888D03*
X0055012Y0092888D03*
D96*
X0041892Y0092888D03*
X0289892Y0052888D03*
D97*
X0303012Y0052928D03*
X0055012Y0092928D03*
D98*
X0055012Y0092969D03*
X0303012Y0052969D03*
D99*
X0303032Y0053009D03*
X0303032Y0099128D03*
X0055032Y0093009D03*
X0055032Y0139128D03*
D100*
X0055032Y0139088D03*
X0055032Y0093048D03*
X0303032Y0099088D03*
X0303032Y0053048D03*
D101*
X0303012Y0053088D03*
X0303012Y0099048D03*
X0055012Y0093088D03*
X0055012Y0139048D03*
D102*
X0055032Y0093128D03*
X0303032Y0053128D03*
D103*
X0303012Y0053169D03*
X0055012Y0093169D03*
D104*
X0055012Y0093209D03*
X0303012Y0053209D03*
D105*
X0303012Y0053248D03*
X0055012Y0093248D03*
D106*
X0055032Y0093288D03*
X0303032Y0053288D03*
D107*
X0303012Y0053328D03*
X0303012Y0098888D03*
X0055012Y0093328D03*
X0055012Y0138888D03*
D108*
X0055012Y0093369D03*
X0303012Y0053369D03*
D109*
X0303012Y0053409D03*
X0303012Y0098809D03*
X0055012Y0093409D03*
X0055012Y0138809D03*
D110*
X0055012Y0138728D03*
X0055012Y0093448D03*
X0303012Y0098728D03*
X0303012Y0053448D03*
D111*
X0303032Y0053488D03*
X0303032Y0098688D03*
X0055032Y0093488D03*
X0055032Y0138688D03*
D112*
X0055012Y0138648D03*
X0055012Y0093528D03*
X0303012Y0098648D03*
X0303012Y0053528D03*
D113*
X0303032Y0053569D03*
X0055032Y0093569D03*
D114*
X0055012Y0093609D03*
X0303012Y0053609D03*
D115*
X0303032Y0053648D03*
X0055032Y0093648D03*
D116*
X0055032Y0093688D03*
X0055032Y0138488D03*
X0303032Y0098488D03*
X0303032Y0053688D03*
D117*
X0303032Y0053728D03*
X0055032Y0093728D03*
D118*
X0055012Y0093769D03*
X0303012Y0053769D03*
D119*
X0303012Y0053809D03*
X0303012Y0053848D03*
X0303012Y0098328D03*
X0055012Y0093848D03*
X0055012Y0093809D03*
X0055012Y0138328D03*
D120*
X0055032Y0138288D03*
X0055032Y0138248D03*
X0055032Y0093888D03*
X0303032Y0098248D03*
X0303032Y0098288D03*
X0303032Y0053888D03*
D121*
X0303012Y0053928D03*
X0303012Y0054009D03*
X0303012Y0098209D03*
X0055012Y0094009D03*
X0055012Y0093928D03*
X0055012Y0138209D03*
D122*
X0055012Y0138169D03*
X0055012Y0093969D03*
X0303012Y0098169D03*
X0303012Y0053969D03*
D123*
X0303032Y0054048D03*
X0303032Y0054088D03*
X0303032Y0098088D03*
X0303032Y0098128D03*
X0055032Y0094088D03*
X0055032Y0094048D03*
X0055032Y0138088D03*
X0055032Y0138128D03*
D124*
X0055012Y0138048D03*
X0055012Y0138009D03*
X0055012Y0094209D03*
X0055012Y0094128D03*
X0303012Y0098009D03*
X0303012Y0098048D03*
X0303012Y0054209D03*
X0303012Y0054128D03*
D125*
X0303012Y0054169D03*
X0303012Y0097969D03*
X0055012Y0094169D03*
X0055012Y0137969D03*
D126*
X0055032Y0137928D03*
X0055032Y0137888D03*
X0055032Y0137848D03*
X0055032Y0137809D03*
X0055032Y0094328D03*
X0055032Y0094288D03*
X0055032Y0094248D03*
X0303032Y0097809D03*
X0303032Y0097848D03*
X0303032Y0097888D03*
X0303032Y0097928D03*
X0303032Y0054328D03*
X0303032Y0054288D03*
X0303032Y0054248D03*
D127*
X0303032Y0054369D03*
X0055032Y0094369D03*
D128*
X0055012Y0094409D03*
X0303012Y0054409D03*
D129*
X0303032Y0054448D03*
X0303032Y0054488D03*
X0303032Y0054528D03*
X0303032Y0097648D03*
X0303032Y0097688D03*
X0303032Y0097728D03*
X0055032Y0094528D03*
X0055032Y0094488D03*
X0055032Y0094448D03*
X0055032Y0137648D03*
X0055032Y0137688D03*
X0055032Y0137728D03*
D130*
X0055052Y0094569D03*
X0303052Y0054569D03*
D131*
X0303032Y0054609D03*
X0303032Y0097609D03*
X0055032Y0094609D03*
X0055032Y0137609D03*
D132*
X0055052Y0137528D03*
X0055052Y0137488D03*
X0055052Y0094688D03*
X0055052Y0094648D03*
X0303052Y0097488D03*
X0303052Y0097528D03*
X0303052Y0054688D03*
X0303052Y0054648D03*
D133*
X0303032Y0054728D03*
X0303032Y0097409D03*
X0303032Y0097448D03*
X0055032Y0094728D03*
X0055032Y0137409D03*
X0055032Y0137448D03*
D134*
X0055052Y0137369D03*
X0055052Y0094769D03*
X0303052Y0097369D03*
X0303052Y0054769D03*
D135*
X0303052Y0054809D03*
X0303052Y0054848D03*
X0303052Y0054888D03*
X0303052Y0097288D03*
X0303052Y0097328D03*
X0055052Y0094888D03*
X0055052Y0094848D03*
X0055052Y0094809D03*
X0055052Y0137288D03*
X0055052Y0137328D03*
D136*
X0055032Y0137248D03*
X0055032Y0094928D03*
X0303032Y0097248D03*
X0303032Y0054928D03*
D137*
X0303032Y0054969D03*
X0055032Y0094969D03*
D138*
X0055052Y0095009D03*
X0055052Y0095048D03*
X0055052Y0095088D03*
X0055052Y0095128D03*
X0055052Y0095209D03*
X0055052Y0095248D03*
X0055052Y0095288D03*
X0055052Y0095328D03*
X0055052Y0095409D03*
X0055052Y0095448D03*
X0055052Y0095488D03*
X0055052Y0095528D03*
X0055052Y0095609D03*
X0055052Y0095648D03*
X0055052Y0095688D03*
X0055052Y0095728D03*
X0055052Y0095809D03*
X0055052Y0095848D03*
X0055052Y0095888D03*
X0055052Y0095928D03*
X0055052Y0096009D03*
X0055052Y0096048D03*
X0055052Y0096088D03*
X0055052Y0096128D03*
X0055052Y0096209D03*
X0055052Y0096248D03*
X0055052Y0096288D03*
X0055052Y0096328D03*
X0055052Y0096409D03*
X0055052Y0096448D03*
X0055052Y0096488D03*
X0055052Y0096528D03*
X0055052Y0096609D03*
X0055052Y0096648D03*
X0055052Y0096688D03*
X0055052Y0096728D03*
X0055052Y0135409D03*
X0055052Y0135448D03*
X0055052Y0135488D03*
X0055052Y0135528D03*
X0055052Y0135609D03*
X0055052Y0135648D03*
X0055052Y0135688D03*
X0055052Y0135728D03*
X0055052Y0135809D03*
X0055052Y0135848D03*
X0055052Y0135888D03*
X0055052Y0135928D03*
X0055052Y0136009D03*
X0055052Y0136048D03*
X0055052Y0136088D03*
X0055052Y0136128D03*
X0055052Y0136209D03*
X0055052Y0136248D03*
X0055052Y0136288D03*
X0055052Y0136328D03*
X0055052Y0136409D03*
X0055052Y0136448D03*
X0055052Y0136488D03*
X0055052Y0136528D03*
X0055052Y0136609D03*
X0055052Y0136648D03*
X0055052Y0136688D03*
X0055052Y0136728D03*
X0055052Y0136809D03*
X0055052Y0136848D03*
X0055052Y0136888D03*
X0055052Y0136928D03*
X0055052Y0137009D03*
X0055052Y0137048D03*
X0055052Y0137088D03*
X0055052Y0137128D03*
X0055052Y0137209D03*
X0303052Y0097209D03*
X0303052Y0097128D03*
X0303052Y0097088D03*
X0303052Y0097048D03*
X0303052Y0097009D03*
X0303052Y0096928D03*
X0303052Y0096888D03*
X0303052Y0096848D03*
X0303052Y0096809D03*
X0303052Y0096728D03*
X0303052Y0096688D03*
X0303052Y0096648D03*
X0303052Y0096609D03*
X0303052Y0096528D03*
X0303052Y0096488D03*
X0303052Y0096448D03*
X0303052Y0096409D03*
X0303052Y0096328D03*
X0303052Y0096288D03*
X0303052Y0096248D03*
X0303052Y0096209D03*
X0303052Y0096128D03*
X0303052Y0096088D03*
X0303052Y0096048D03*
X0303052Y0096009D03*
X0303052Y0095928D03*
X0303052Y0095888D03*
X0303052Y0095848D03*
X0303052Y0095809D03*
X0303052Y0095728D03*
X0303052Y0095688D03*
X0303052Y0095648D03*
X0303052Y0095609D03*
X0303052Y0095528D03*
X0303052Y0095488D03*
X0303052Y0095448D03*
X0303052Y0095409D03*
X0303052Y0056728D03*
X0303052Y0056688D03*
X0303052Y0056648D03*
X0303052Y0056609D03*
X0303052Y0056528D03*
X0303052Y0056488D03*
X0303052Y0056448D03*
X0303052Y0056409D03*
X0303052Y0056328D03*
X0303052Y0056288D03*
X0303052Y0056248D03*
X0303052Y0056209D03*
X0303052Y0056128D03*
X0303052Y0056088D03*
X0303052Y0056048D03*
X0303052Y0056009D03*
X0303052Y0055928D03*
X0303052Y0055888D03*
X0303052Y0055848D03*
X0303052Y0055809D03*
X0303052Y0055728D03*
X0303052Y0055688D03*
X0303052Y0055648D03*
X0303052Y0055609D03*
X0303052Y0055528D03*
X0303052Y0055488D03*
X0303052Y0055448D03*
X0303052Y0055409D03*
X0303052Y0055328D03*
X0303052Y0055288D03*
X0303052Y0055248D03*
X0303052Y0055209D03*
X0303052Y0055128D03*
X0303052Y0055088D03*
X0303052Y0055048D03*
X0303052Y0055009D03*
D139*
X0303052Y0055169D03*
X0303052Y0055369D03*
X0303052Y0055569D03*
X0303052Y0055769D03*
X0303052Y0055969D03*
X0303052Y0056169D03*
X0303052Y0056369D03*
X0303052Y0056569D03*
X0303052Y0056769D03*
X0303052Y0095569D03*
X0303052Y0095769D03*
X0303052Y0095969D03*
X0303052Y0096169D03*
X0303052Y0096369D03*
X0303052Y0096569D03*
X0303052Y0096769D03*
X0303052Y0096969D03*
X0303052Y0097169D03*
X0055052Y0096769D03*
X0055052Y0096569D03*
X0055052Y0096369D03*
X0055052Y0096169D03*
X0055052Y0095969D03*
X0055052Y0095769D03*
X0055052Y0095569D03*
X0055052Y0095369D03*
X0055052Y0095169D03*
X0055052Y0135569D03*
X0055052Y0135769D03*
X0055052Y0135969D03*
X0055052Y0136169D03*
X0055052Y0136369D03*
X0055052Y0136569D03*
X0055052Y0136769D03*
X0055052Y0136969D03*
X0055052Y0137169D03*
D140*
X0033932Y0096809D03*
X0281932Y0056809D03*
D141*
X0281772Y0056888D03*
X0324332Y0057009D03*
X0324332Y0057048D03*
X0324372Y0060809D03*
X0324372Y0065009D03*
X0324372Y0065048D03*
X0324372Y0074009D03*
X0324372Y0078209D03*
X0324372Y0078248D03*
X0324372Y0087209D03*
X0324372Y0091409D03*
X0324332Y0095209D03*
X0281772Y0095288D03*
X0076332Y0097009D03*
X0076332Y0097048D03*
X0076372Y0100809D03*
X0076372Y0105009D03*
X0076372Y0105048D03*
X0076372Y0114009D03*
X0076372Y0118209D03*
X0076372Y0118248D03*
X0076372Y0127209D03*
X0076372Y0131409D03*
X0076332Y0135209D03*
X0033772Y0135288D03*
X0033772Y0096888D03*
D142*
X0033752Y0096928D03*
X0076352Y0097088D03*
X0076352Y0097128D03*
X0076352Y0097209D03*
X0076352Y0097248D03*
X0076352Y0097288D03*
X0076352Y0097328D03*
X0076352Y0097409D03*
X0076352Y0097448D03*
X0076352Y0097488D03*
X0076352Y0097528D03*
X0076352Y0097609D03*
X0076352Y0097648D03*
X0076352Y0097688D03*
X0076352Y0097728D03*
X0076352Y0097809D03*
X0076352Y0097848D03*
X0076352Y0097888D03*
X0076352Y0097928D03*
X0076352Y0098009D03*
X0076352Y0098048D03*
X0076352Y0098088D03*
X0076352Y0098128D03*
X0076352Y0098209D03*
X0076352Y0098248D03*
X0076352Y0098288D03*
X0076352Y0098328D03*
X0076352Y0098409D03*
X0076352Y0098448D03*
X0076352Y0098488D03*
X0076352Y0098528D03*
X0076352Y0098609D03*
X0076352Y0098648D03*
X0076352Y0098688D03*
X0076352Y0098728D03*
X0076352Y0098809D03*
X0076352Y0098848D03*
X0076352Y0098888D03*
X0076352Y0098928D03*
X0076352Y0099009D03*
X0076352Y0099048D03*
X0076352Y0099088D03*
X0076352Y0099128D03*
X0076352Y0099209D03*
X0076352Y0099248D03*
X0076352Y0099288D03*
X0076352Y0099328D03*
X0076352Y0099409D03*
X0076352Y0099448D03*
X0076352Y0099488D03*
X0076352Y0099528D03*
X0076352Y0099609D03*
X0076352Y0099648D03*
X0076352Y0099688D03*
X0076352Y0099728D03*
X0076352Y0099809D03*
X0076352Y0099848D03*
X0076352Y0099888D03*
X0076352Y0099928D03*
X0076352Y0100009D03*
X0076352Y0100048D03*
X0076352Y0100088D03*
X0076352Y0100128D03*
X0076352Y0100209D03*
X0076352Y0100248D03*
X0076352Y0100288D03*
X0076352Y0100328D03*
X0076352Y0100409D03*
X0076352Y0100448D03*
X0076352Y0100648D03*
X0076352Y0100688D03*
X0076352Y0100728D03*
X0076352Y0105088D03*
X0076352Y0105128D03*
X0076352Y0105409D03*
X0076352Y0105448D03*
X0076352Y0105488D03*
X0076352Y0105528D03*
X0076352Y0105609D03*
X0076352Y0105648D03*
X0076352Y0105688D03*
X0076352Y0105728D03*
X0076352Y0105809D03*
X0076352Y0105848D03*
X0076352Y0105888D03*
X0076352Y0105928D03*
X0076352Y0106009D03*
X0076352Y0106048D03*
X0076352Y0106088D03*
X0076352Y0106128D03*
X0076352Y0106209D03*
X0076352Y0106248D03*
X0076352Y0106288D03*
X0076352Y0106328D03*
X0076352Y0106409D03*
X0076352Y0106448D03*
X0076352Y0106488D03*
X0076352Y0106528D03*
X0076352Y0106609D03*
X0076352Y0106648D03*
X0076352Y0106688D03*
X0076352Y0106728D03*
X0076352Y0106809D03*
X0076352Y0106848D03*
X0076352Y0106888D03*
X0076352Y0106928D03*
X0076352Y0107009D03*
X0076352Y0107048D03*
X0076352Y0107088D03*
X0076352Y0107128D03*
X0076352Y0107209D03*
X0076352Y0107248D03*
X0076352Y0107288D03*
X0076352Y0107328D03*
X0076352Y0107409D03*
X0076352Y0107448D03*
X0076352Y0107488D03*
X0076352Y0107528D03*
X0076352Y0107609D03*
X0076352Y0107648D03*
X0076352Y0107688D03*
X0076352Y0107728D03*
X0076352Y0107809D03*
X0076352Y0107848D03*
X0076352Y0107888D03*
X0076352Y0107928D03*
X0076352Y0108009D03*
X0076352Y0108048D03*
X0076352Y0108088D03*
X0076352Y0108128D03*
X0076352Y0108209D03*
X0076352Y0108248D03*
X0076352Y0108288D03*
X0076352Y0108328D03*
X0076352Y0108409D03*
X0076352Y0108448D03*
X0076352Y0108488D03*
X0076352Y0108528D03*
X0076352Y0108609D03*
X0076352Y0108648D03*
X0076352Y0108688D03*
X0076352Y0108728D03*
X0076352Y0108809D03*
X0076352Y0108848D03*
X0076352Y0108888D03*
X0076352Y0108928D03*
X0076352Y0109009D03*
X0076352Y0109048D03*
X0076352Y0109088D03*
X0076352Y0109128D03*
X0076352Y0109209D03*
X0076352Y0109248D03*
X0076352Y0109288D03*
X0076352Y0109328D03*
X0076352Y0109409D03*
X0076352Y0109448D03*
X0076352Y0109488D03*
X0076352Y0109528D03*
X0076352Y0109609D03*
X0076352Y0109648D03*
X0076352Y0109688D03*
X0076352Y0109728D03*
X0076352Y0109809D03*
X0076352Y0109848D03*
X0076352Y0109888D03*
X0076352Y0109928D03*
X0076352Y0110009D03*
X0076352Y0110048D03*
X0076352Y0110088D03*
X0076352Y0110128D03*
X0076352Y0110209D03*
X0076352Y0110248D03*
X0076352Y0110288D03*
X0076352Y0110328D03*
X0076352Y0110409D03*
X0076352Y0110448D03*
X0076352Y0110488D03*
X0076352Y0110528D03*
X0076352Y0110609D03*
X0076352Y0110648D03*
X0076352Y0110688D03*
X0076352Y0110728D03*
X0076352Y0110809D03*
X0076352Y0110848D03*
X0076352Y0110888D03*
X0076352Y0110928D03*
X0076352Y0111009D03*
X0076352Y0111048D03*
X0076352Y0111088D03*
X0076352Y0111128D03*
X0076352Y0111209D03*
X0076352Y0111248D03*
X0076352Y0111288D03*
X0076352Y0111328D03*
X0076352Y0111409D03*
X0076352Y0111448D03*
X0076352Y0111488D03*
X0076352Y0111528D03*
X0076352Y0111609D03*
X0076352Y0111648D03*
X0076352Y0111688D03*
X0076352Y0111728D03*
X0076352Y0111809D03*
X0076352Y0111848D03*
X0076352Y0111888D03*
X0076352Y0111928D03*
X0076352Y0112009D03*
X0076352Y0112048D03*
X0076352Y0112088D03*
X0076352Y0112128D03*
X0076352Y0112209D03*
X0076352Y0112248D03*
X0076352Y0112288D03*
X0076352Y0112328D03*
X0076352Y0112409D03*
X0076352Y0112448D03*
X0076352Y0112488D03*
X0076352Y0112528D03*
X0076352Y0112609D03*
X0076352Y0112648D03*
X0076352Y0112688D03*
X0076352Y0112728D03*
X0076352Y0112809D03*
X0076352Y0112848D03*
X0076352Y0112888D03*
X0076352Y0112928D03*
X0076352Y0113009D03*
X0076352Y0113048D03*
X0076352Y0113088D03*
X0076352Y0113128D03*
X0076352Y0113209D03*
X0076352Y0113248D03*
X0076352Y0113288D03*
X0076352Y0113328D03*
X0076352Y0113409D03*
X0076352Y0113448D03*
X0076352Y0113488D03*
X0076352Y0113528D03*
X0076352Y0113609D03*
X0076352Y0113648D03*
X0076352Y0113888D03*
X0076352Y0113928D03*
X0076352Y0118288D03*
X0076352Y0118328D03*
X0076352Y0118609D03*
X0076352Y0118648D03*
X0076352Y0118688D03*
X0076352Y0118728D03*
X0076352Y0118809D03*
X0076352Y0118848D03*
X0076352Y0118888D03*
X0076352Y0118928D03*
X0076352Y0119009D03*
X0076352Y0119048D03*
X0076352Y0119088D03*
X0076352Y0119128D03*
X0076352Y0119209D03*
X0076352Y0119248D03*
X0076352Y0119288D03*
X0076352Y0119328D03*
X0076352Y0119409D03*
X0076352Y0119448D03*
X0076352Y0119488D03*
X0076352Y0119528D03*
X0076352Y0119609D03*
X0076352Y0119648D03*
X0076352Y0119688D03*
X0076352Y0119728D03*
X0076352Y0119809D03*
X0076352Y0119848D03*
X0076352Y0119888D03*
X0076352Y0119928D03*
X0076352Y0120009D03*
X0076352Y0120048D03*
X0076352Y0120088D03*
X0076352Y0120128D03*
X0076352Y0120209D03*
X0076352Y0120248D03*
X0076352Y0120288D03*
X0076352Y0120328D03*
X0076352Y0120409D03*
X0076352Y0120448D03*
X0076352Y0120488D03*
X0076352Y0120528D03*
X0076352Y0120609D03*
X0076352Y0120648D03*
X0076352Y0120688D03*
X0076352Y0120728D03*
X0076352Y0120809D03*
X0076352Y0120848D03*
X0076352Y0120888D03*
X0076352Y0120928D03*
X0076352Y0121009D03*
X0076352Y0121048D03*
X0076352Y0121088D03*
X0076352Y0121128D03*
X0076352Y0121209D03*
X0076352Y0121248D03*
X0076352Y0121288D03*
X0076352Y0121328D03*
X0076352Y0121409D03*
X0076352Y0121448D03*
X0076352Y0121488D03*
X0076352Y0121528D03*
X0076352Y0121609D03*
X0076352Y0121648D03*
X0076352Y0121688D03*
X0076352Y0121728D03*
X0076352Y0121809D03*
X0076352Y0121848D03*
X0076352Y0121888D03*
X0076352Y0121928D03*
X0076352Y0122009D03*
X0076352Y0122048D03*
X0076352Y0122088D03*
X0076352Y0122128D03*
X0076352Y0122209D03*
X0076352Y0122248D03*
X0076352Y0122288D03*
X0076352Y0122328D03*
X0076352Y0122409D03*
X0076352Y0122448D03*
X0076352Y0122488D03*
X0076352Y0122528D03*
X0076352Y0122609D03*
X0076352Y0122648D03*
X0076352Y0122688D03*
X0076352Y0122728D03*
X0076352Y0122809D03*
X0076352Y0122848D03*
X0076352Y0122888D03*
X0076352Y0122928D03*
X0076352Y0123009D03*
X0076352Y0123048D03*
X0076352Y0123088D03*
X0076352Y0123128D03*
X0076352Y0123209D03*
X0076352Y0123248D03*
X0076352Y0123288D03*
X0076352Y0123328D03*
X0076352Y0123409D03*
X0076352Y0123448D03*
X0076352Y0123488D03*
X0076352Y0123528D03*
X0076352Y0123609D03*
X0076352Y0123648D03*
X0076352Y0123688D03*
X0076352Y0123728D03*
X0076352Y0123809D03*
X0076352Y0123848D03*
X0076352Y0123888D03*
X0076352Y0123928D03*
X0076352Y0124009D03*
X0076352Y0124048D03*
X0076352Y0124088D03*
X0076352Y0124128D03*
X0076352Y0124209D03*
X0076352Y0124248D03*
X0076352Y0124288D03*
X0076352Y0124328D03*
X0076352Y0124409D03*
X0076352Y0124448D03*
X0076352Y0124488D03*
X0076352Y0124528D03*
X0076352Y0124609D03*
X0076352Y0124648D03*
X0076352Y0124688D03*
X0076352Y0124728D03*
X0076352Y0124809D03*
X0076352Y0124848D03*
X0076352Y0124888D03*
X0076352Y0124928D03*
X0076352Y0125009D03*
X0076352Y0125048D03*
X0076352Y0125088D03*
X0076352Y0125128D03*
X0076352Y0125209D03*
X0076352Y0125248D03*
X0076352Y0125288D03*
X0076352Y0125328D03*
X0076352Y0125409D03*
X0076352Y0125448D03*
X0076352Y0125488D03*
X0076352Y0125528D03*
X0076352Y0125609D03*
X0076352Y0125648D03*
X0076352Y0125688D03*
X0076352Y0125728D03*
X0076352Y0125809D03*
X0076352Y0125848D03*
X0076352Y0125888D03*
X0076352Y0125928D03*
X0076352Y0126009D03*
X0076352Y0126048D03*
X0076352Y0126088D03*
X0076352Y0126128D03*
X0076352Y0126209D03*
X0076352Y0126248D03*
X0076352Y0126288D03*
X0076352Y0126328D03*
X0076352Y0126409D03*
X0076352Y0126448D03*
X0076352Y0126488D03*
X0076352Y0126528D03*
X0076352Y0126609D03*
X0076352Y0126648D03*
X0076352Y0126688D03*
X0076352Y0126728D03*
X0076352Y0126809D03*
X0076352Y0127088D03*
X0076352Y0127128D03*
X0076352Y0131448D03*
X0076352Y0131488D03*
X0076352Y0131528D03*
X0076352Y0131728D03*
X0076352Y0131809D03*
X0076352Y0131848D03*
X0076352Y0131888D03*
X0076352Y0131928D03*
X0076352Y0132009D03*
X0076352Y0132048D03*
X0076352Y0132088D03*
X0076352Y0132128D03*
X0076352Y0132209D03*
X0076352Y0132248D03*
X0076352Y0132288D03*
X0076352Y0132328D03*
X0076352Y0132409D03*
X0076352Y0132448D03*
X0076352Y0132488D03*
X0076352Y0132528D03*
X0076352Y0132609D03*
X0076352Y0132648D03*
X0076352Y0132688D03*
X0076352Y0132728D03*
X0076352Y0132809D03*
X0076352Y0132848D03*
X0076352Y0132888D03*
X0076352Y0132928D03*
X0076352Y0133009D03*
X0076352Y0133048D03*
X0076352Y0133088D03*
X0076352Y0133128D03*
X0076352Y0133209D03*
X0076352Y0133248D03*
X0076352Y0133288D03*
X0076352Y0133328D03*
X0076352Y0133409D03*
X0076352Y0133448D03*
X0076352Y0133488D03*
X0076352Y0133528D03*
X0076352Y0133609D03*
X0076352Y0133648D03*
X0076352Y0133688D03*
X0076352Y0133728D03*
X0076352Y0133809D03*
X0076352Y0133848D03*
X0076352Y0133888D03*
X0076352Y0133928D03*
X0076352Y0134009D03*
X0076352Y0134048D03*
X0076352Y0134088D03*
X0076352Y0134128D03*
X0076352Y0134209D03*
X0076352Y0134248D03*
X0076352Y0134288D03*
X0076352Y0134328D03*
X0076352Y0134409D03*
X0076352Y0134448D03*
X0076352Y0134488D03*
X0076352Y0134528D03*
X0076352Y0134609D03*
X0076352Y0134648D03*
X0076352Y0134688D03*
X0076352Y0134728D03*
X0076352Y0134809D03*
X0076352Y0134848D03*
X0076352Y0134888D03*
X0076352Y0134928D03*
X0076352Y0135009D03*
X0076352Y0135048D03*
X0076352Y0135088D03*
X0076352Y0135128D03*
X0068152Y0139409D03*
X0033752Y0135248D03*
X0281752Y0095248D03*
X0316152Y0099409D03*
X0324352Y0095128D03*
X0324352Y0095088D03*
X0324352Y0095048D03*
X0324352Y0095009D03*
X0324352Y0094928D03*
X0324352Y0094888D03*
X0324352Y0094848D03*
X0324352Y0094809D03*
X0324352Y0094728D03*
X0324352Y0094688D03*
X0324352Y0094648D03*
X0324352Y0094609D03*
X0324352Y0094528D03*
X0324352Y0094488D03*
X0324352Y0094448D03*
X0324352Y0094409D03*
X0324352Y0094328D03*
X0324352Y0094288D03*
X0324352Y0094248D03*
X0324352Y0094209D03*
X0324352Y0094128D03*
X0324352Y0094088D03*
X0324352Y0094048D03*
X0324352Y0094009D03*
X0324352Y0093928D03*
X0324352Y0093888D03*
X0324352Y0093848D03*
X0324352Y0093809D03*
X0324352Y0093728D03*
X0324352Y0093688D03*
X0324352Y0093648D03*
X0324352Y0093609D03*
X0324352Y0093528D03*
X0324352Y0093488D03*
X0324352Y0093448D03*
X0324352Y0093409D03*
X0324352Y0093328D03*
X0324352Y0093288D03*
X0324352Y0093248D03*
X0324352Y0093209D03*
X0324352Y0093128D03*
X0324352Y0093088D03*
X0324352Y0093048D03*
X0324352Y0093009D03*
X0324352Y0092928D03*
X0324352Y0092888D03*
X0324352Y0092848D03*
X0324352Y0092809D03*
X0324352Y0092728D03*
X0324352Y0092688D03*
X0324352Y0092648D03*
X0324352Y0092609D03*
X0324352Y0092528D03*
X0324352Y0092488D03*
X0324352Y0092448D03*
X0324352Y0092409D03*
X0324352Y0092328D03*
X0324352Y0092288D03*
X0324352Y0092248D03*
X0324352Y0092209D03*
X0324352Y0092128D03*
X0324352Y0092088D03*
X0324352Y0092048D03*
X0324352Y0092009D03*
X0324352Y0091928D03*
X0324352Y0091888D03*
X0324352Y0091848D03*
X0324352Y0091809D03*
X0324352Y0091728D03*
X0324352Y0091528D03*
X0324352Y0091488D03*
X0324352Y0091448D03*
X0324352Y0087128D03*
X0324352Y0087088D03*
X0324352Y0086809D03*
X0324352Y0086728D03*
X0324352Y0086688D03*
X0324352Y0086648D03*
X0324352Y0086609D03*
X0324352Y0086528D03*
X0324352Y0086488D03*
X0324352Y0086448D03*
X0324352Y0086409D03*
X0324352Y0086328D03*
X0324352Y0086288D03*
X0324352Y0086248D03*
X0324352Y0086209D03*
X0324352Y0086128D03*
X0324352Y0086088D03*
X0324352Y0086048D03*
X0324352Y0086009D03*
X0324352Y0085928D03*
X0324352Y0085888D03*
X0324352Y0085848D03*
X0324352Y0085809D03*
X0324352Y0085728D03*
X0324352Y0085688D03*
X0324352Y0085648D03*
X0324352Y0085609D03*
X0324352Y0085528D03*
X0324352Y0085488D03*
X0324352Y0085448D03*
X0324352Y0085409D03*
X0324352Y0085328D03*
X0324352Y0085288D03*
X0324352Y0085248D03*
X0324352Y0085209D03*
X0324352Y0085128D03*
X0324352Y0085088D03*
X0324352Y0085048D03*
X0324352Y0085009D03*
X0324352Y0084928D03*
X0324352Y0084888D03*
X0324352Y0084848D03*
X0324352Y0084809D03*
X0324352Y0084728D03*
X0324352Y0084688D03*
X0324352Y0084648D03*
X0324352Y0084609D03*
X0324352Y0084528D03*
X0324352Y0084488D03*
X0324352Y0084448D03*
X0324352Y0084409D03*
X0324352Y0084328D03*
X0324352Y0084288D03*
X0324352Y0084248D03*
X0324352Y0084209D03*
X0324352Y0084128D03*
X0324352Y0084088D03*
X0324352Y0084048D03*
X0324352Y0084009D03*
X0324352Y0083928D03*
X0324352Y0083888D03*
X0324352Y0083848D03*
X0324352Y0083809D03*
X0324352Y0083728D03*
X0324352Y0083688D03*
X0324352Y0083648D03*
X0324352Y0083609D03*
X0324352Y0083528D03*
X0324352Y0083488D03*
X0324352Y0083448D03*
X0324352Y0083409D03*
X0324352Y0083328D03*
X0324352Y0083288D03*
X0324352Y0083248D03*
X0324352Y0083209D03*
X0324352Y0083128D03*
X0324352Y0083088D03*
X0324352Y0083048D03*
X0324352Y0083009D03*
X0324352Y0082928D03*
X0324352Y0082888D03*
X0324352Y0082848D03*
X0324352Y0082809D03*
X0324352Y0082728D03*
X0324352Y0082688D03*
X0324352Y0082648D03*
X0324352Y0082609D03*
X0324352Y0082528D03*
X0324352Y0082488D03*
X0324352Y0082448D03*
X0324352Y0082409D03*
X0324352Y0082328D03*
X0324352Y0082288D03*
X0324352Y0082248D03*
X0324352Y0082209D03*
X0324352Y0082128D03*
X0324352Y0082088D03*
X0324352Y0082048D03*
X0324352Y0082009D03*
X0324352Y0081928D03*
X0324352Y0081888D03*
X0324352Y0081848D03*
X0324352Y0081809D03*
X0324352Y0081728D03*
X0324352Y0081688D03*
X0324352Y0081648D03*
X0324352Y0081609D03*
X0324352Y0081528D03*
X0324352Y0081488D03*
X0324352Y0081448D03*
X0324352Y0081409D03*
X0324352Y0081328D03*
X0324352Y0081288D03*
X0324352Y0081248D03*
X0324352Y0081209D03*
X0324352Y0081128D03*
X0324352Y0081088D03*
X0324352Y0081048D03*
X0324352Y0081009D03*
X0324352Y0080928D03*
X0324352Y0080888D03*
X0324352Y0080848D03*
X0324352Y0080809D03*
X0324352Y0080728D03*
X0324352Y0080688D03*
X0324352Y0080648D03*
X0324352Y0080609D03*
X0324352Y0080528D03*
X0324352Y0080488D03*
X0324352Y0080448D03*
X0324352Y0080409D03*
X0324352Y0080328D03*
X0324352Y0080288D03*
X0324352Y0080248D03*
X0324352Y0080209D03*
X0324352Y0080128D03*
X0324352Y0080088D03*
X0324352Y0080048D03*
X0324352Y0080009D03*
X0324352Y0079928D03*
X0324352Y0079888D03*
X0324352Y0079848D03*
X0324352Y0079809D03*
X0324352Y0079728D03*
X0324352Y0079688D03*
X0324352Y0079648D03*
X0324352Y0079609D03*
X0324352Y0079528D03*
X0324352Y0079488D03*
X0324352Y0079448D03*
X0324352Y0079409D03*
X0324352Y0079328D03*
X0324352Y0079288D03*
X0324352Y0079248D03*
X0324352Y0079209D03*
X0324352Y0079128D03*
X0324352Y0079088D03*
X0324352Y0079048D03*
X0324352Y0079009D03*
X0324352Y0078928D03*
X0324352Y0078888D03*
X0324352Y0078848D03*
X0324352Y0078809D03*
X0324352Y0078728D03*
X0324352Y0078688D03*
X0324352Y0078648D03*
X0324352Y0078609D03*
X0324352Y0078328D03*
X0324352Y0078288D03*
X0324352Y0073928D03*
X0324352Y0073888D03*
X0324352Y0073648D03*
X0324352Y0073609D03*
X0324352Y0073528D03*
X0324352Y0073488D03*
X0324352Y0073448D03*
X0324352Y0073409D03*
X0324352Y0073328D03*
X0324352Y0073288D03*
X0324352Y0073248D03*
X0324352Y0073209D03*
X0324352Y0073128D03*
X0324352Y0073088D03*
X0324352Y0073048D03*
X0324352Y0073009D03*
X0324352Y0072928D03*
X0324352Y0072888D03*
X0324352Y0072848D03*
X0324352Y0072809D03*
X0324352Y0072728D03*
X0324352Y0072688D03*
X0324352Y0072648D03*
X0324352Y0072609D03*
X0324352Y0072528D03*
X0324352Y0072488D03*
X0324352Y0072448D03*
X0324352Y0072409D03*
X0324352Y0072328D03*
X0324352Y0072288D03*
X0324352Y0072248D03*
X0324352Y0072209D03*
X0324352Y0072128D03*
X0324352Y0072088D03*
X0324352Y0072048D03*
X0324352Y0072009D03*
X0324352Y0071928D03*
X0324352Y0071888D03*
X0324352Y0071848D03*
X0324352Y0071809D03*
X0324352Y0071728D03*
X0324352Y0071688D03*
X0324352Y0071648D03*
X0324352Y0071609D03*
X0324352Y0071528D03*
X0324352Y0071488D03*
X0324352Y0071448D03*
X0324352Y0071409D03*
X0324352Y0071328D03*
X0324352Y0071288D03*
X0324352Y0071248D03*
X0324352Y0071209D03*
X0324352Y0071128D03*
X0324352Y0071088D03*
X0324352Y0071048D03*
X0324352Y0071009D03*
X0324352Y0070928D03*
X0324352Y0070888D03*
X0324352Y0070848D03*
X0324352Y0070809D03*
X0324352Y0070728D03*
X0324352Y0070688D03*
X0324352Y0070648D03*
X0324352Y0070609D03*
X0324352Y0070528D03*
X0324352Y0070488D03*
X0324352Y0070448D03*
X0324352Y0070409D03*
X0324352Y0070328D03*
X0324352Y0070288D03*
X0324352Y0070248D03*
X0324352Y0070209D03*
X0324352Y0070128D03*
X0324352Y0070088D03*
X0324352Y0070048D03*
X0324352Y0070009D03*
X0324352Y0069928D03*
X0324352Y0069888D03*
X0324352Y0069848D03*
X0324352Y0069809D03*
X0324352Y0069728D03*
X0324352Y0069688D03*
X0324352Y0069648D03*
X0324352Y0069609D03*
X0324352Y0069528D03*
X0324352Y0069488D03*
X0324352Y0069448D03*
X0324352Y0069409D03*
X0324352Y0069328D03*
X0324352Y0069288D03*
X0324352Y0069248D03*
X0324352Y0069209D03*
X0324352Y0069128D03*
X0324352Y0069088D03*
X0324352Y0069048D03*
X0324352Y0069009D03*
X0324352Y0068928D03*
X0324352Y0068888D03*
X0324352Y0068848D03*
X0324352Y0068809D03*
X0324352Y0068728D03*
X0324352Y0068688D03*
X0324352Y0068648D03*
X0324352Y0068609D03*
X0324352Y0068528D03*
X0324352Y0068488D03*
X0324352Y0068448D03*
X0324352Y0068409D03*
X0324352Y0068328D03*
X0324352Y0068288D03*
X0324352Y0068248D03*
X0324352Y0068209D03*
X0324352Y0068128D03*
X0324352Y0068088D03*
X0324352Y0068048D03*
X0324352Y0068009D03*
X0324352Y0067928D03*
X0324352Y0067888D03*
X0324352Y0067848D03*
X0324352Y0067809D03*
X0324352Y0067728D03*
X0324352Y0067688D03*
X0324352Y0067648D03*
X0324352Y0067609D03*
X0324352Y0067528D03*
X0324352Y0067488D03*
X0324352Y0067448D03*
X0324352Y0067409D03*
X0324352Y0067328D03*
X0324352Y0067288D03*
X0324352Y0067248D03*
X0324352Y0067209D03*
X0324352Y0067128D03*
X0324352Y0067088D03*
X0324352Y0067048D03*
X0324352Y0067009D03*
X0324352Y0066928D03*
X0324352Y0066888D03*
X0324352Y0066848D03*
X0324352Y0066809D03*
X0324352Y0066728D03*
X0324352Y0066688D03*
X0324352Y0066648D03*
X0324352Y0066609D03*
X0324352Y0066528D03*
X0324352Y0066488D03*
X0324352Y0066448D03*
X0324352Y0066409D03*
X0324352Y0066328D03*
X0324352Y0066288D03*
X0324352Y0066248D03*
X0324352Y0066209D03*
X0324352Y0066128D03*
X0324352Y0066088D03*
X0324352Y0066048D03*
X0324352Y0066009D03*
X0324352Y0065928D03*
X0324352Y0065888D03*
X0324352Y0065848D03*
X0324352Y0065809D03*
X0324352Y0065728D03*
X0324352Y0065688D03*
X0324352Y0065648D03*
X0324352Y0065609D03*
X0324352Y0065528D03*
X0324352Y0065488D03*
X0324352Y0065448D03*
X0324352Y0065409D03*
X0324352Y0065128D03*
X0324352Y0065088D03*
X0324352Y0060728D03*
X0324352Y0060688D03*
X0324352Y0060648D03*
X0324352Y0060448D03*
X0324352Y0060409D03*
X0324352Y0060328D03*
X0324352Y0060288D03*
X0324352Y0060248D03*
X0324352Y0060209D03*
X0324352Y0060128D03*
X0324352Y0060088D03*
X0324352Y0060048D03*
X0324352Y0060009D03*
X0324352Y0059928D03*
X0324352Y0059888D03*
X0324352Y0059848D03*
X0324352Y0059809D03*
X0324352Y0059728D03*
X0324352Y0059688D03*
X0324352Y0059648D03*
X0324352Y0059609D03*
X0324352Y0059528D03*
X0324352Y0059488D03*
X0324352Y0059448D03*
X0324352Y0059409D03*
X0324352Y0059328D03*
X0324352Y0059288D03*
X0324352Y0059248D03*
X0324352Y0059209D03*
X0324352Y0059128D03*
X0324352Y0059088D03*
X0324352Y0059048D03*
X0324352Y0059009D03*
X0324352Y0058928D03*
X0324352Y0058888D03*
X0324352Y0058848D03*
X0324352Y0058809D03*
X0324352Y0058728D03*
X0324352Y0058688D03*
X0324352Y0058648D03*
X0324352Y0058609D03*
X0324352Y0058528D03*
X0324352Y0058488D03*
X0324352Y0058448D03*
X0324352Y0058409D03*
X0324352Y0058328D03*
X0324352Y0058288D03*
X0324352Y0058248D03*
X0324352Y0058209D03*
X0324352Y0058128D03*
X0324352Y0058088D03*
X0324352Y0058048D03*
X0324352Y0058009D03*
X0324352Y0057928D03*
X0324352Y0057888D03*
X0324352Y0057848D03*
X0324352Y0057809D03*
X0324352Y0057728D03*
X0324352Y0057688D03*
X0324352Y0057648D03*
X0324352Y0057609D03*
X0324352Y0057528D03*
X0324352Y0057488D03*
X0324352Y0057448D03*
X0324352Y0057409D03*
X0324352Y0057328D03*
X0324352Y0057288D03*
X0324352Y0057248D03*
X0324352Y0057209D03*
X0324352Y0057128D03*
X0324352Y0057088D03*
X0281752Y0056928D03*
D143*
X0324332Y0056969D03*
X0324372Y0060769D03*
X0324372Y0073969D03*
X0324372Y0087169D03*
X0324332Y0095169D03*
X0076332Y0096969D03*
X0076372Y0100769D03*
X0076372Y0113969D03*
X0076372Y0127169D03*
X0076332Y0135169D03*
D144*
X0076352Y0134969D03*
X0076352Y0134769D03*
X0076352Y0134569D03*
X0076352Y0134369D03*
X0076352Y0134169D03*
X0076352Y0133969D03*
X0076352Y0133769D03*
X0076352Y0133569D03*
X0076352Y0133369D03*
X0076352Y0133169D03*
X0076352Y0132969D03*
X0076352Y0132769D03*
X0076352Y0132569D03*
X0076352Y0132369D03*
X0076352Y0132169D03*
X0076352Y0131969D03*
X0076352Y0131769D03*
X0076352Y0131569D03*
X0076352Y0126769D03*
X0076352Y0126569D03*
X0076352Y0126369D03*
X0076352Y0126169D03*
X0076352Y0125969D03*
X0076352Y0125769D03*
X0076352Y0125569D03*
X0076352Y0125369D03*
X0076352Y0125169D03*
X0076352Y0124969D03*
X0076352Y0124769D03*
X0076352Y0124569D03*
X0076352Y0124369D03*
X0076352Y0124169D03*
X0076352Y0123969D03*
X0076352Y0123769D03*
X0076352Y0123569D03*
X0076352Y0123369D03*
X0076352Y0123169D03*
X0076352Y0122969D03*
X0076352Y0122769D03*
X0076352Y0122569D03*
X0076352Y0122369D03*
X0076352Y0122169D03*
X0076352Y0121969D03*
X0076352Y0121769D03*
X0076352Y0121569D03*
X0076352Y0121369D03*
X0076352Y0121169D03*
X0076352Y0120969D03*
X0076352Y0120769D03*
X0076352Y0120569D03*
X0076352Y0120369D03*
X0076352Y0120169D03*
X0076352Y0119969D03*
X0076352Y0119769D03*
X0076352Y0119569D03*
X0076352Y0119369D03*
X0076352Y0119169D03*
X0076352Y0118969D03*
X0076352Y0118769D03*
X0076352Y0118569D03*
X0076352Y0118369D03*
X0076352Y0113569D03*
X0076352Y0113369D03*
X0076352Y0113169D03*
X0076352Y0112969D03*
X0076352Y0112769D03*
X0076352Y0112569D03*
X0076352Y0112369D03*
X0076352Y0112169D03*
X0076352Y0111969D03*
X0076352Y0111769D03*
X0076352Y0111569D03*
X0076352Y0111369D03*
X0076352Y0111169D03*
X0076352Y0110969D03*
X0076352Y0110769D03*
X0076352Y0110569D03*
X0076352Y0110369D03*
X0076352Y0110169D03*
X0076352Y0109969D03*
X0076352Y0109769D03*
X0076352Y0109569D03*
X0076352Y0109369D03*
X0076352Y0109169D03*
X0076352Y0108969D03*
X0076352Y0108769D03*
X0076352Y0108569D03*
X0076352Y0108369D03*
X0076352Y0108169D03*
X0076352Y0107969D03*
X0076352Y0107769D03*
X0076352Y0107569D03*
X0076352Y0107369D03*
X0076352Y0107169D03*
X0076352Y0106969D03*
X0076352Y0106769D03*
X0076352Y0106569D03*
X0076352Y0106369D03*
X0076352Y0106169D03*
X0076352Y0105969D03*
X0076352Y0105769D03*
X0076352Y0105569D03*
X0076352Y0105369D03*
X0076352Y0100369D03*
X0076352Y0100169D03*
X0076352Y0099969D03*
X0076352Y0099769D03*
X0076352Y0099569D03*
X0076352Y0099369D03*
X0076352Y0099169D03*
X0076352Y0098969D03*
X0076352Y0098769D03*
X0076352Y0098569D03*
X0076352Y0098369D03*
X0076352Y0098169D03*
X0076352Y0097969D03*
X0076352Y0097769D03*
X0076352Y0097569D03*
X0076352Y0097369D03*
X0076352Y0097169D03*
X0033752Y0096969D03*
X0281752Y0056969D03*
X0324352Y0057169D03*
X0324352Y0057369D03*
X0324352Y0057569D03*
X0324352Y0057769D03*
X0324352Y0057969D03*
X0324352Y0058169D03*
X0324352Y0058369D03*
X0324352Y0058569D03*
X0324352Y0058769D03*
X0324352Y0058969D03*
X0324352Y0059169D03*
X0324352Y0059369D03*
X0324352Y0059569D03*
X0324352Y0059769D03*
X0324352Y0059969D03*
X0324352Y0060169D03*
X0324352Y0060369D03*
X0324352Y0065369D03*
X0324352Y0065569D03*
X0324352Y0065769D03*
X0324352Y0065969D03*
X0324352Y0066169D03*
X0324352Y0066369D03*
X0324352Y0066569D03*
X0324352Y0066769D03*
X0324352Y0066969D03*
X0324352Y0067169D03*
X0324352Y0067369D03*
X0324352Y0067569D03*
X0324352Y0067769D03*
X0324352Y0067969D03*
X0324352Y0068169D03*
X0324352Y0068369D03*
X0324352Y0068569D03*
X0324352Y0068769D03*
X0324352Y0068969D03*
X0324352Y0069169D03*
X0324352Y0069369D03*
X0324352Y0069569D03*
X0324352Y0069769D03*
X0324352Y0069969D03*
X0324352Y0070169D03*
X0324352Y0070369D03*
X0324352Y0070569D03*
X0324352Y0070769D03*
X0324352Y0070969D03*
X0324352Y0071169D03*
X0324352Y0071369D03*
X0324352Y0071569D03*
X0324352Y0071769D03*
X0324352Y0071969D03*
X0324352Y0072169D03*
X0324352Y0072369D03*
X0324352Y0072569D03*
X0324352Y0072769D03*
X0324352Y0072969D03*
X0324352Y0073169D03*
X0324352Y0073369D03*
X0324352Y0073569D03*
X0324352Y0078369D03*
X0324352Y0078569D03*
X0324352Y0078769D03*
X0324352Y0078969D03*
X0324352Y0079169D03*
X0324352Y0079369D03*
X0324352Y0079569D03*
X0324352Y0079769D03*
X0324352Y0079969D03*
X0324352Y0080169D03*
X0324352Y0080369D03*
X0324352Y0080569D03*
X0324352Y0080769D03*
X0324352Y0080969D03*
X0324352Y0081169D03*
X0324352Y0081369D03*
X0324352Y0081569D03*
X0324352Y0081769D03*
X0324352Y0081969D03*
X0324352Y0082169D03*
X0324352Y0082369D03*
X0324352Y0082569D03*
X0324352Y0082769D03*
X0324352Y0082969D03*
X0324352Y0083169D03*
X0324352Y0083369D03*
X0324352Y0083569D03*
X0324352Y0083769D03*
X0324352Y0083969D03*
X0324352Y0084169D03*
X0324352Y0084369D03*
X0324352Y0084569D03*
X0324352Y0084769D03*
X0324352Y0084969D03*
X0324352Y0085169D03*
X0324352Y0085369D03*
X0324352Y0085569D03*
X0324352Y0085769D03*
X0324352Y0085969D03*
X0324352Y0086169D03*
X0324352Y0086369D03*
X0324352Y0086569D03*
X0324352Y0086769D03*
X0324352Y0091569D03*
X0324352Y0091769D03*
X0324352Y0091969D03*
X0324352Y0092169D03*
X0324352Y0092369D03*
X0324352Y0092569D03*
X0324352Y0092769D03*
X0324352Y0092969D03*
X0324352Y0093169D03*
X0324352Y0093369D03*
X0324352Y0093569D03*
X0324352Y0093769D03*
X0324352Y0093969D03*
X0324352Y0094169D03*
X0324352Y0094369D03*
X0324352Y0094569D03*
X0324352Y0094769D03*
X0324352Y0094969D03*
D145*
X0324332Y0086969D03*
X0324332Y0073769D03*
X0324332Y0065169D03*
X0324332Y0060569D03*
X0281732Y0060369D03*
X0281732Y0060169D03*
X0281732Y0059969D03*
X0281732Y0059769D03*
X0281732Y0059569D03*
X0281732Y0059369D03*
X0281732Y0059169D03*
X0281732Y0058969D03*
X0281732Y0058769D03*
X0281732Y0058569D03*
X0281732Y0058369D03*
X0281732Y0058169D03*
X0281732Y0057969D03*
X0281732Y0057769D03*
X0281732Y0057569D03*
X0281732Y0057369D03*
X0281732Y0057169D03*
X0281732Y0065169D03*
X0281732Y0065369D03*
X0281732Y0065569D03*
X0281732Y0065769D03*
X0281732Y0065969D03*
X0281732Y0066169D03*
X0281732Y0066369D03*
X0281732Y0066569D03*
X0281732Y0066769D03*
X0281732Y0066969D03*
X0281732Y0067169D03*
X0281732Y0067369D03*
X0281732Y0067569D03*
X0281732Y0067769D03*
X0281732Y0067969D03*
X0281732Y0068169D03*
X0281732Y0068369D03*
X0281732Y0068569D03*
X0281732Y0068769D03*
X0281732Y0068969D03*
X0281732Y0069169D03*
X0281732Y0069369D03*
X0281732Y0069569D03*
X0281732Y0069769D03*
X0281732Y0069969D03*
X0281732Y0070169D03*
X0281732Y0070369D03*
X0281732Y0070569D03*
X0281732Y0070769D03*
X0281732Y0070969D03*
X0281732Y0071169D03*
X0281732Y0071369D03*
X0281732Y0071569D03*
X0281732Y0071769D03*
X0281732Y0071969D03*
X0281732Y0072169D03*
X0281732Y0072369D03*
X0281732Y0072569D03*
X0281732Y0072769D03*
X0281732Y0072969D03*
X0281732Y0073169D03*
X0281732Y0073369D03*
X0281732Y0073569D03*
X0281732Y0078569D03*
X0281732Y0078769D03*
X0281732Y0078969D03*
X0281732Y0079169D03*
X0281732Y0079369D03*
X0281732Y0079569D03*
X0281732Y0079769D03*
X0281732Y0079969D03*
X0281732Y0080169D03*
X0281732Y0080369D03*
X0281732Y0080569D03*
X0281732Y0080769D03*
X0281732Y0080969D03*
X0281732Y0081169D03*
X0281732Y0081369D03*
X0281732Y0081569D03*
X0281732Y0081769D03*
X0281732Y0081969D03*
X0281732Y0082169D03*
X0281732Y0082369D03*
X0281732Y0082569D03*
X0281732Y0082769D03*
X0281732Y0082969D03*
X0281732Y0083169D03*
X0281732Y0083369D03*
X0281732Y0083569D03*
X0281732Y0083769D03*
X0281732Y0083969D03*
X0281732Y0084169D03*
X0281732Y0084369D03*
X0281732Y0084569D03*
X0281732Y0084769D03*
X0281732Y0084969D03*
X0281732Y0085169D03*
X0281732Y0085369D03*
X0281732Y0085569D03*
X0281732Y0085769D03*
X0281732Y0085969D03*
X0281732Y0086169D03*
X0281732Y0086369D03*
X0281732Y0086569D03*
X0281732Y0086769D03*
X0281732Y0091569D03*
X0281732Y0091769D03*
X0281732Y0091969D03*
X0281732Y0092169D03*
X0281732Y0092369D03*
X0281732Y0092569D03*
X0281732Y0092769D03*
X0281732Y0092969D03*
X0281732Y0093169D03*
X0281732Y0093369D03*
X0281732Y0093569D03*
X0281732Y0093769D03*
X0281732Y0093969D03*
X0281732Y0094169D03*
X0281732Y0094369D03*
X0281732Y0094569D03*
X0281732Y0094769D03*
X0281732Y0095169D03*
X0076332Y0100569D03*
X0076332Y0105169D03*
X0076332Y0113769D03*
X0076332Y0126969D03*
X0033732Y0126769D03*
X0033732Y0126569D03*
X0033732Y0126369D03*
X0033732Y0126169D03*
X0033732Y0125969D03*
X0033732Y0125769D03*
X0033732Y0125569D03*
X0033732Y0125369D03*
X0033732Y0125169D03*
X0033732Y0124969D03*
X0033732Y0124769D03*
X0033732Y0124569D03*
X0033732Y0124369D03*
X0033732Y0124169D03*
X0033732Y0123969D03*
X0033732Y0123769D03*
X0033732Y0123569D03*
X0033732Y0123369D03*
X0033732Y0123169D03*
X0033732Y0122969D03*
X0033732Y0122769D03*
X0033732Y0122569D03*
X0033732Y0122369D03*
X0033732Y0122169D03*
X0033732Y0121969D03*
X0033732Y0121769D03*
X0033732Y0121569D03*
X0033732Y0121369D03*
X0033732Y0121169D03*
X0033732Y0120969D03*
X0033732Y0120769D03*
X0033732Y0120569D03*
X0033732Y0120369D03*
X0033732Y0120169D03*
X0033732Y0119969D03*
X0033732Y0119769D03*
X0033732Y0119569D03*
X0033732Y0119369D03*
X0033732Y0119169D03*
X0033732Y0118969D03*
X0033732Y0118769D03*
X0033732Y0118569D03*
X0033732Y0113569D03*
X0033732Y0113369D03*
X0033732Y0113169D03*
X0033732Y0112969D03*
X0033732Y0112769D03*
X0033732Y0112569D03*
X0033732Y0112369D03*
X0033732Y0112169D03*
X0033732Y0111969D03*
X0033732Y0111769D03*
X0033732Y0111569D03*
X0033732Y0111369D03*
X0033732Y0111169D03*
X0033732Y0110969D03*
X0033732Y0110769D03*
X0033732Y0110569D03*
X0033732Y0110369D03*
X0033732Y0110169D03*
X0033732Y0109969D03*
X0033732Y0109769D03*
X0033732Y0109569D03*
X0033732Y0109369D03*
X0033732Y0109169D03*
X0033732Y0108969D03*
X0033732Y0108769D03*
X0033732Y0108569D03*
X0033732Y0108369D03*
X0033732Y0108169D03*
X0033732Y0107969D03*
X0033732Y0107769D03*
X0033732Y0107569D03*
X0033732Y0107369D03*
X0033732Y0107169D03*
X0033732Y0106969D03*
X0033732Y0106769D03*
X0033732Y0106569D03*
X0033732Y0106369D03*
X0033732Y0106169D03*
X0033732Y0105969D03*
X0033732Y0105769D03*
X0033732Y0105569D03*
X0033732Y0105369D03*
X0033732Y0105169D03*
X0033732Y0100369D03*
X0033732Y0100169D03*
X0033732Y0099969D03*
X0033732Y0099769D03*
X0033732Y0099569D03*
X0033732Y0099369D03*
X0033732Y0099169D03*
X0033732Y0098969D03*
X0033732Y0098769D03*
X0033732Y0098569D03*
X0033732Y0098369D03*
X0033732Y0098169D03*
X0033732Y0097969D03*
X0033732Y0097769D03*
X0033732Y0097569D03*
X0033732Y0097369D03*
X0033732Y0097169D03*
X0033732Y0131569D03*
X0033732Y0131769D03*
X0033732Y0131969D03*
X0033732Y0132169D03*
X0033732Y0132369D03*
X0033732Y0132569D03*
X0033732Y0132769D03*
X0033732Y0132969D03*
X0033732Y0133169D03*
X0033732Y0133369D03*
X0033732Y0133569D03*
X0033732Y0133769D03*
X0033732Y0133969D03*
X0033732Y0134169D03*
X0033732Y0134369D03*
X0033732Y0134569D03*
X0033732Y0134769D03*
X0033732Y0135169D03*
D146*
X0033712Y0131488D03*
X0033712Y0131448D03*
X0033712Y0127128D03*
X0033712Y0118288D03*
X0033712Y0118248D03*
X0033712Y0113928D03*
X0033712Y0105088D03*
X0033712Y0105048D03*
X0033712Y0100728D03*
X0055032Y0139409D03*
X0281712Y0091488D03*
X0281712Y0091448D03*
X0281712Y0087128D03*
X0281712Y0078288D03*
X0281712Y0078248D03*
X0281712Y0073928D03*
X0281712Y0065088D03*
X0281712Y0065048D03*
X0281712Y0060728D03*
X0303032Y0099409D03*
D147*
X0324452Y0091288D03*
X0324452Y0078128D03*
X0324452Y0060888D03*
X0076452Y0100888D03*
X0076452Y0118128D03*
X0076452Y0131288D03*
D148*
X0062132Y0128409D03*
X0033612Y0131288D03*
X0033612Y0100888D03*
X0281612Y0091288D03*
X0310132Y0088409D03*
X0281612Y0060888D03*
D149*
X0281572Y0060928D03*
X0281572Y0087288D03*
X0033572Y0100928D03*
X0033572Y0127288D03*
D150*
X0079472Y0100969D03*
X0327472Y0060969D03*
D151*
X0278592Y0060969D03*
X0030592Y0100969D03*
D152*
X0030452Y0101009D03*
X0079612Y0101009D03*
X0079612Y0118009D03*
X0062092Y0121288D03*
X0062092Y0121328D03*
X0061972Y0120928D03*
X0062092Y0125088D03*
X0062092Y0125128D03*
X0030452Y0131128D03*
X0278452Y0091128D03*
X0310092Y0085128D03*
X0310092Y0085088D03*
X0310092Y0081328D03*
X0310092Y0081288D03*
X0309972Y0080928D03*
X0327612Y0078009D03*
X0327612Y0061009D03*
X0278452Y0061009D03*
D153*
X0327652Y0061048D03*
X0310092Y0081409D03*
X0310092Y0081448D03*
X0079652Y0101048D03*
X0062092Y0121409D03*
X0062092Y0121448D03*
D154*
X0030392Y0131048D03*
X0030392Y0101048D03*
X0278392Y0091048D03*
X0278392Y0061048D03*
D155*
X0327692Y0061088D03*
X0327692Y0077928D03*
X0310132Y0081528D03*
X0310132Y0084888D03*
X0079692Y0101088D03*
X0079692Y0117928D03*
X0062132Y0121528D03*
X0062132Y0124888D03*
D156*
X0030372Y0104809D03*
X0030372Y0101088D03*
X0278372Y0064809D03*
X0278372Y0061088D03*
D157*
X0327712Y0061128D03*
X0327712Y0077888D03*
X0310112Y0084848D03*
X0079712Y0101128D03*
X0079712Y0117888D03*
X0062112Y0124848D03*
D158*
X0062132Y0121609D03*
X0061852Y0120809D03*
X0061812Y0120728D03*
X0079732Y0114248D03*
X0079732Y0131009D03*
X0030332Y0131009D03*
X0030332Y0101128D03*
X0278332Y0091009D03*
X0309812Y0080728D03*
X0309852Y0080809D03*
X0310132Y0081609D03*
X0327732Y0074248D03*
X0327732Y0091009D03*
X0278332Y0061128D03*
D159*
X0327752Y0061169D03*
X0310152Y0084769D03*
X0079752Y0101169D03*
X0062152Y0124769D03*
D160*
X0061672Y0120569D03*
X0030312Y0101169D03*
X0278312Y0061169D03*
X0309672Y0080569D03*
D161*
X0309732Y0080609D03*
X0310172Y0081688D03*
X0310172Y0081728D03*
X0310172Y0084609D03*
X0310172Y0084648D03*
X0310172Y0084688D03*
X0310172Y0084728D03*
X0327772Y0087448D03*
X0327772Y0077809D03*
X0327772Y0074328D03*
X0327772Y0064688D03*
X0327772Y0064648D03*
X0327772Y0061209D03*
X0079772Y0101209D03*
X0079772Y0104648D03*
X0079772Y0104688D03*
X0079772Y0114328D03*
X0079772Y0117809D03*
X0062172Y0121688D03*
X0062172Y0121728D03*
X0061732Y0120609D03*
X0062172Y0124609D03*
X0062172Y0124648D03*
X0062172Y0124688D03*
X0062172Y0124728D03*
X0079772Y0127448D03*
D162*
X0030272Y0127448D03*
X0030272Y0127488D03*
X0030272Y0104688D03*
X0030272Y0104648D03*
X0030272Y0101209D03*
X0278272Y0087488D03*
X0278272Y0087448D03*
X0278272Y0064688D03*
X0278272Y0064648D03*
X0278272Y0061209D03*
D163*
X0278232Y0061248D03*
X0327832Y0061248D03*
X0310192Y0082088D03*
X0310192Y0082128D03*
X0310192Y0084409D03*
X0327832Y0087609D03*
X0079832Y0101248D03*
X0030232Y0101248D03*
X0062192Y0122088D03*
X0062192Y0122128D03*
X0062192Y0124409D03*
X0079832Y0127609D03*
D164*
X0079872Y0127648D03*
X0079872Y0117728D03*
X0079872Y0101288D03*
X0327872Y0087648D03*
X0327872Y0077728D03*
X0327872Y0061288D03*
D165*
X0278172Y0061288D03*
X0278172Y0064528D03*
X0030172Y0101288D03*
X0030172Y0104528D03*
D166*
X0079932Y0101328D03*
X0079932Y0117688D03*
X0062092Y0122928D03*
X0062092Y0123009D03*
X0062092Y0123328D03*
X0062092Y0123409D03*
X0062092Y0123448D03*
X0062092Y0123488D03*
X0079932Y0127688D03*
X0079932Y0130888D03*
X0030132Y0130888D03*
X0030132Y0127688D03*
X0278132Y0090888D03*
X0278132Y0087688D03*
X0310092Y0083488D03*
X0310092Y0083448D03*
X0310092Y0083409D03*
X0310092Y0083328D03*
X0310092Y0083009D03*
X0310092Y0082928D03*
X0327932Y0087688D03*
X0327932Y0090888D03*
X0327932Y0077688D03*
X0327932Y0061328D03*
D167*
X0278112Y0061328D03*
X0278112Y0064488D03*
X0310072Y0083048D03*
X0310072Y0083088D03*
X0310072Y0083128D03*
X0310072Y0083209D03*
X0310072Y0083248D03*
X0310072Y0083288D03*
X0062072Y0123048D03*
X0062072Y0123088D03*
X0062072Y0123128D03*
X0062072Y0123209D03*
X0062072Y0123248D03*
X0062072Y0123288D03*
X0030112Y0104488D03*
X0030112Y0101328D03*
D168*
X0079972Y0101369D03*
X0079972Y0114569D03*
X0327972Y0074569D03*
X0327972Y0061369D03*
D169*
X0278072Y0061369D03*
X0309272Y0080369D03*
X0061272Y0120369D03*
X0030072Y0101369D03*
D170*
X0079992Y0101409D03*
X0079992Y0117609D03*
X0061232Y0120328D03*
X0079992Y0130809D03*
X0309232Y0080328D03*
X0327992Y0077609D03*
X0327992Y0090809D03*
X0327992Y0061409D03*
D171*
X0328012Y0064409D03*
X0328012Y0074609D03*
X0309212Y0080248D03*
X0309212Y0080288D03*
X0309172Y0080209D03*
X0278052Y0090809D03*
X0278052Y0064409D03*
X0278052Y0061409D03*
X0080012Y0104409D03*
X0080012Y0114609D03*
X0061212Y0120248D03*
X0061212Y0120288D03*
X0061172Y0120209D03*
X0030052Y0130809D03*
X0030052Y0104409D03*
X0030052Y0101409D03*
D172*
X0030032Y0101448D03*
X0080032Y0101448D03*
X0080032Y0101488D03*
X0080032Y0114648D03*
X0080032Y0117528D03*
X0080032Y0127809D03*
X0080032Y0130648D03*
X0080032Y0130688D03*
X0080032Y0130728D03*
X0030032Y0130728D03*
X0278032Y0090728D03*
X0328032Y0090728D03*
X0328032Y0090688D03*
X0328032Y0090648D03*
X0328032Y0087809D03*
X0328032Y0077528D03*
X0328032Y0074648D03*
X0328032Y0061488D03*
X0328032Y0061448D03*
X0278032Y0061448D03*
D173*
X0278012Y0061488D03*
X0278012Y0061528D03*
X0278012Y0064328D03*
X0278012Y0087809D03*
X0278012Y0090648D03*
X0278012Y0090688D03*
X0030012Y0101488D03*
X0030012Y0101528D03*
X0030012Y0104328D03*
X0030012Y0127809D03*
X0030012Y0130648D03*
X0030012Y0130688D03*
D174*
X0080052Y0130609D03*
X0080052Y0127848D03*
X0080052Y0117488D03*
X0080052Y0117448D03*
X0080052Y0114728D03*
X0080052Y0114688D03*
X0080052Y0104328D03*
X0080052Y0104288D03*
X0080052Y0101528D03*
X0328052Y0090609D03*
X0328052Y0087848D03*
X0328052Y0077488D03*
X0328052Y0077448D03*
X0328052Y0074728D03*
X0328052Y0074688D03*
X0328052Y0064328D03*
X0328052Y0064288D03*
X0328052Y0061528D03*
D175*
X0328052Y0061569D03*
X0080052Y0101569D03*
D176*
X0029992Y0101569D03*
X0277992Y0061569D03*
D177*
X0328072Y0061609D03*
X0328072Y0064248D03*
X0328072Y0077409D03*
X0328072Y0087888D03*
X0080072Y0101609D03*
X0080072Y0104248D03*
X0080072Y0117409D03*
X0080072Y0127888D03*
D178*
X0029992Y0127888D03*
X0029992Y0127848D03*
X0029992Y0130609D03*
X0029992Y0104288D03*
X0029992Y0104248D03*
X0029992Y0101609D03*
X0277992Y0090609D03*
X0277992Y0087888D03*
X0277992Y0087848D03*
X0277992Y0064288D03*
X0277992Y0064248D03*
X0277992Y0061609D03*
D179*
X0277952Y0061648D03*
X0328112Y0061648D03*
X0309032Y0080128D03*
X0080112Y0101648D03*
X0029952Y0101648D03*
X0061032Y0120128D03*
D180*
X0080152Y0117328D03*
X0080152Y0117288D03*
X0080152Y0114888D03*
X0080152Y0104128D03*
X0080152Y0101728D03*
X0080152Y0101688D03*
X0080152Y0128048D03*
X0080152Y0130488D03*
X0328152Y0090488D03*
X0328152Y0088048D03*
X0328152Y0077328D03*
X0328152Y0077288D03*
X0328152Y0074888D03*
X0328152Y0064128D03*
X0328152Y0061728D03*
X0328152Y0061688D03*
D181*
X0277912Y0061688D03*
X0029912Y0101688D03*
D182*
X0029892Y0101728D03*
X0029892Y0104128D03*
X0029892Y0128048D03*
X0029892Y0130488D03*
X0277892Y0090488D03*
X0277892Y0088048D03*
X0277892Y0064128D03*
X0277892Y0061728D03*
D183*
X0328172Y0061769D03*
X0080172Y0101769D03*
D184*
X0029872Y0101769D03*
X0277872Y0061769D03*
D185*
X0328192Y0061809D03*
X0328192Y0061848D03*
X0328192Y0064009D03*
X0328192Y0064048D03*
X0328192Y0075009D03*
X0328192Y0077209D03*
X0328192Y0090409D03*
X0080192Y0101809D03*
X0080192Y0101848D03*
X0080192Y0104009D03*
X0080192Y0104048D03*
X0080192Y0115009D03*
X0080192Y0117209D03*
X0080192Y0130409D03*
D186*
X0080212Y0130328D03*
X0080212Y0130288D03*
X0080212Y0130248D03*
X0080212Y0128288D03*
X0080212Y0128248D03*
X0080212Y0128209D03*
X0060932Y0120088D03*
X0080212Y0117128D03*
X0080212Y0117088D03*
X0080212Y0117048D03*
X0080212Y0115128D03*
X0080212Y0115088D03*
X0080212Y0115048D03*
X0080212Y0103928D03*
X0080212Y0103888D03*
X0080212Y0101928D03*
X0080212Y0101888D03*
X0029852Y0101848D03*
X0029852Y0101809D03*
X0029852Y0104009D03*
X0029852Y0128209D03*
X0029852Y0130409D03*
X0277852Y0090409D03*
X0277852Y0088209D03*
X0308932Y0080088D03*
X0328212Y0077128D03*
X0328212Y0077088D03*
X0328212Y0077048D03*
X0328212Y0075128D03*
X0328212Y0075088D03*
X0328212Y0075048D03*
X0328212Y0063928D03*
X0328212Y0063888D03*
X0328212Y0061928D03*
X0328212Y0061888D03*
X0277852Y0061848D03*
X0277852Y0061809D03*
X0277852Y0064009D03*
X0328212Y0088209D03*
X0328212Y0088248D03*
X0328212Y0088288D03*
X0328212Y0090248D03*
X0328212Y0090288D03*
X0328212Y0090328D03*
D187*
X0328232Y0090209D03*
X0328232Y0088409D03*
X0328232Y0088328D03*
X0328232Y0077009D03*
X0328232Y0075209D03*
X0328232Y0063848D03*
X0328232Y0063809D03*
X0328232Y0062048D03*
X0328232Y0062009D03*
X0277832Y0061928D03*
X0277832Y0061888D03*
X0277832Y0063848D03*
X0277832Y0063888D03*
X0277832Y0063928D03*
X0277832Y0088248D03*
X0277832Y0088288D03*
X0277832Y0088328D03*
X0277832Y0090248D03*
X0277832Y0090288D03*
X0277832Y0090328D03*
X0080232Y0102009D03*
X0080232Y0102048D03*
X0080232Y0103809D03*
X0080232Y0103848D03*
X0080232Y0115209D03*
X0080232Y0117009D03*
X0080232Y0128328D03*
X0080232Y0128409D03*
X0080232Y0130209D03*
X0029832Y0130248D03*
X0029832Y0130288D03*
X0029832Y0130328D03*
X0029832Y0128328D03*
X0029832Y0128288D03*
X0029832Y0128248D03*
X0029832Y0103928D03*
X0029832Y0103888D03*
X0029832Y0103848D03*
X0029832Y0101928D03*
X0029832Y0101888D03*
D188*
X0029852Y0103969D03*
X0080212Y0103969D03*
X0080212Y0101969D03*
X0029852Y0128169D03*
X0029852Y0130369D03*
X0277852Y0090369D03*
X0277852Y0088169D03*
X0277852Y0063969D03*
X0328212Y0063969D03*
X0328212Y0061969D03*
D189*
X0328232Y0075169D03*
X0328232Y0076969D03*
X0328232Y0088369D03*
X0328232Y0090169D03*
X0277832Y0061969D03*
X0080232Y0115169D03*
X0080232Y0116969D03*
X0080232Y0128369D03*
X0080232Y0130169D03*
X0029832Y0101969D03*
D190*
X0029812Y0102009D03*
X0029812Y0102048D03*
X0029812Y0103809D03*
X0029812Y0128409D03*
X0029812Y0130128D03*
X0029812Y0130209D03*
X0277812Y0090209D03*
X0277812Y0090128D03*
X0277812Y0088409D03*
X0277812Y0063809D03*
X0277812Y0062048D03*
X0277812Y0062009D03*
D191*
X0328252Y0062088D03*
X0328252Y0062128D03*
X0328252Y0063728D03*
X0328252Y0075248D03*
X0328252Y0075288D03*
X0328252Y0076888D03*
X0328252Y0076928D03*
X0328252Y0088448D03*
X0328252Y0088488D03*
X0328252Y0090088D03*
X0328252Y0090128D03*
X0080252Y0102088D03*
X0080252Y0102128D03*
X0080252Y0103728D03*
X0080252Y0115248D03*
X0080252Y0115288D03*
X0080252Y0116888D03*
X0080252Y0116928D03*
X0080252Y0128448D03*
X0080252Y0128488D03*
X0080252Y0130088D03*
X0080252Y0130128D03*
D192*
X0029792Y0130088D03*
X0029792Y0130048D03*
X0029792Y0128528D03*
X0029792Y0128488D03*
X0029792Y0128448D03*
X0029792Y0103728D03*
X0029792Y0103688D03*
X0029792Y0103648D03*
X0029792Y0102128D03*
X0029792Y0102088D03*
X0277792Y0090088D03*
X0277792Y0090048D03*
X0277792Y0088528D03*
X0277792Y0088488D03*
X0277792Y0088448D03*
X0277792Y0063728D03*
X0277792Y0063688D03*
X0277792Y0063648D03*
X0277792Y0062128D03*
X0277792Y0062088D03*
D193*
X0328272Y0062169D03*
X0080272Y0102169D03*
D194*
X0029792Y0102169D03*
X0277792Y0062169D03*
D195*
X0277752Y0062248D03*
X0308632Y0079888D03*
X0308752Y0080009D03*
X0328312Y0075409D03*
X0328312Y0063609D03*
X0328312Y0062209D03*
X0277752Y0088609D03*
X0277752Y0089928D03*
X0080312Y0102209D03*
X0080312Y0103609D03*
X0080312Y0115409D03*
X0060752Y0120009D03*
X0060632Y0119888D03*
X0029752Y0128609D03*
X0029752Y0129928D03*
X0029752Y0102248D03*
D196*
X0029772Y0102209D03*
X0029772Y0103609D03*
X0029772Y0130009D03*
X0277772Y0090009D03*
X0277772Y0063609D03*
X0277772Y0062209D03*
D197*
X0277732Y0062288D03*
X0277732Y0063528D03*
X0308612Y0079848D03*
X0308652Y0079928D03*
X0328332Y0076728D03*
X0328332Y0075448D03*
X0328332Y0062288D03*
X0328332Y0062248D03*
X0328332Y0088609D03*
X0328332Y0089888D03*
X0328332Y0089928D03*
X0277732Y0089888D03*
X0277732Y0089848D03*
X0277732Y0088648D03*
X0080332Y0102248D03*
X0080332Y0102288D03*
X0080332Y0115448D03*
X0080332Y0116728D03*
X0060652Y0119928D03*
X0060612Y0119848D03*
X0080332Y0128609D03*
X0080332Y0129888D03*
X0080332Y0129928D03*
X0029732Y0129888D03*
X0029732Y0129848D03*
X0029732Y0128648D03*
X0029732Y0103528D03*
X0029732Y0102288D03*
D198*
X0060552Y0119809D03*
X0080352Y0116688D03*
X0080352Y0116648D03*
X0080352Y0115528D03*
X0080352Y0115488D03*
X0080352Y0103528D03*
X0080352Y0103488D03*
X0080352Y0102328D03*
X0080352Y0128648D03*
X0080352Y0128688D03*
X0080352Y0129809D03*
X0080352Y0129848D03*
X0308552Y0079809D03*
X0328352Y0076688D03*
X0328352Y0076648D03*
X0328352Y0075528D03*
X0328352Y0075488D03*
X0328352Y0063528D03*
X0328352Y0063488D03*
X0328352Y0062328D03*
X0328352Y0088648D03*
X0328352Y0088688D03*
X0328352Y0089809D03*
X0328352Y0089848D03*
D199*
X0277712Y0089809D03*
X0277712Y0088688D03*
X0277712Y0063488D03*
X0277712Y0062328D03*
X0029712Y0102328D03*
X0029712Y0103488D03*
X0029712Y0128688D03*
X0029712Y0129809D03*
D200*
X0080352Y0102369D03*
X0328352Y0062369D03*
D201*
X0277712Y0062369D03*
X0029712Y0102369D03*
D202*
X0080372Y0102409D03*
X0080372Y0102448D03*
X0080372Y0102488D03*
X0080372Y0102528D03*
X0080372Y0103328D03*
X0080372Y0103409D03*
X0080372Y0103448D03*
X0080372Y0115609D03*
X0080372Y0115648D03*
X0080372Y0115688D03*
X0080372Y0116448D03*
X0080372Y0116488D03*
X0080372Y0116528D03*
X0080372Y0116609D03*
X0080372Y0128728D03*
X0080372Y0128809D03*
X0080372Y0128848D03*
X0080372Y0129648D03*
X0080372Y0129688D03*
X0080372Y0129728D03*
X0328372Y0089728D03*
X0328372Y0089688D03*
X0328372Y0089648D03*
X0328372Y0088848D03*
X0328372Y0088809D03*
X0328372Y0088728D03*
X0328372Y0076609D03*
X0328372Y0076528D03*
X0328372Y0076488D03*
X0328372Y0076448D03*
X0328372Y0075688D03*
X0328372Y0075648D03*
X0328372Y0075609D03*
X0328372Y0063448D03*
X0328372Y0063409D03*
X0328372Y0063328D03*
X0328372Y0062528D03*
X0328372Y0062488D03*
X0328372Y0062448D03*
X0328372Y0062409D03*
D203*
X0277692Y0062409D03*
X0277692Y0062448D03*
X0277692Y0063409D03*
X0277692Y0063448D03*
X0277692Y0088728D03*
X0277692Y0088809D03*
X0277692Y0089688D03*
X0277692Y0089728D03*
X0029692Y0102409D03*
X0029692Y0102448D03*
X0029692Y0103409D03*
X0029692Y0103448D03*
X0029692Y0128728D03*
X0029692Y0128809D03*
X0029692Y0129688D03*
X0029692Y0129728D03*
D204*
X0029672Y0129648D03*
X0029672Y0129609D03*
X0029672Y0129528D03*
X0029672Y0129488D03*
X0029672Y0129448D03*
X0029672Y0128928D03*
X0029672Y0128888D03*
X0029672Y0128848D03*
X0029672Y0103328D03*
X0029672Y0103288D03*
X0029672Y0103248D03*
X0029672Y0103209D03*
X0029672Y0102728D03*
X0029672Y0102688D03*
X0029672Y0102648D03*
X0029672Y0102609D03*
X0029672Y0102528D03*
X0029672Y0102488D03*
X0277672Y0089648D03*
X0277672Y0089609D03*
X0277672Y0089528D03*
X0277672Y0089488D03*
X0277672Y0089448D03*
X0277672Y0088928D03*
X0277672Y0088888D03*
X0277672Y0088848D03*
X0277672Y0063328D03*
X0277672Y0063288D03*
X0277672Y0063248D03*
X0277672Y0063209D03*
X0277672Y0062728D03*
X0277672Y0062688D03*
X0277672Y0062648D03*
X0277672Y0062609D03*
X0277672Y0062528D03*
X0277672Y0062488D03*
D205*
X0328392Y0062569D03*
X0328392Y0062769D03*
X0328392Y0062969D03*
X0328392Y0063169D03*
X0328392Y0075769D03*
X0328392Y0075969D03*
X0328392Y0076169D03*
X0328392Y0076369D03*
X0328392Y0088969D03*
X0328392Y0089169D03*
X0328392Y0089369D03*
X0328392Y0089569D03*
X0080392Y0102569D03*
X0080392Y0102769D03*
X0080392Y0102969D03*
X0080392Y0103169D03*
X0080392Y0115769D03*
X0080392Y0115969D03*
X0080392Y0116169D03*
X0080392Y0116369D03*
X0080392Y0128969D03*
X0080392Y0129169D03*
X0080392Y0129369D03*
X0080392Y0129569D03*
D206*
X0029672Y0129569D03*
X0029672Y0128969D03*
X0029672Y0103369D03*
X0029672Y0102569D03*
X0277672Y0089569D03*
X0277672Y0088969D03*
X0277672Y0063369D03*
X0277672Y0062569D03*
D207*
X0328392Y0062609D03*
X0328392Y0062648D03*
X0328392Y0062688D03*
X0328392Y0062728D03*
X0328392Y0062809D03*
X0328392Y0062848D03*
X0328392Y0062888D03*
X0328392Y0062928D03*
X0328392Y0063009D03*
X0328392Y0063048D03*
X0328392Y0063088D03*
X0328392Y0063128D03*
X0328392Y0063209D03*
X0328392Y0063248D03*
X0328392Y0063288D03*
X0328392Y0075728D03*
X0328392Y0075809D03*
X0328392Y0075848D03*
X0328392Y0075888D03*
X0328392Y0075928D03*
X0328392Y0076009D03*
X0328392Y0076048D03*
X0328392Y0076088D03*
X0328392Y0076128D03*
X0328392Y0076209D03*
X0328392Y0076248D03*
X0328392Y0076288D03*
X0328392Y0076328D03*
X0328392Y0076409D03*
X0328392Y0088888D03*
X0328392Y0088928D03*
X0328392Y0089009D03*
X0328392Y0089048D03*
X0328392Y0089088D03*
X0328392Y0089128D03*
X0328392Y0089209D03*
X0328392Y0089248D03*
X0328392Y0089288D03*
X0328392Y0089328D03*
X0328392Y0089409D03*
X0328392Y0089448D03*
X0328392Y0089488D03*
X0328392Y0089528D03*
X0328392Y0089609D03*
X0080392Y0102609D03*
X0080392Y0102648D03*
X0080392Y0102688D03*
X0080392Y0102728D03*
X0080392Y0102809D03*
X0080392Y0102848D03*
X0080392Y0102888D03*
X0080392Y0102928D03*
X0080392Y0103009D03*
X0080392Y0103048D03*
X0080392Y0103088D03*
X0080392Y0103128D03*
X0080392Y0103209D03*
X0080392Y0103248D03*
X0080392Y0103288D03*
X0080392Y0115728D03*
X0080392Y0115809D03*
X0080392Y0115848D03*
X0080392Y0115888D03*
X0080392Y0115928D03*
X0080392Y0116009D03*
X0080392Y0116048D03*
X0080392Y0116088D03*
X0080392Y0116128D03*
X0080392Y0116209D03*
X0080392Y0116248D03*
X0080392Y0116288D03*
X0080392Y0116328D03*
X0080392Y0116409D03*
X0080392Y0128888D03*
X0080392Y0128928D03*
X0080392Y0129009D03*
X0080392Y0129048D03*
X0080392Y0129088D03*
X0080392Y0129128D03*
X0080392Y0129209D03*
X0080392Y0129248D03*
X0080392Y0129288D03*
X0080392Y0129328D03*
X0080392Y0129409D03*
X0080392Y0129448D03*
X0080392Y0129488D03*
X0080392Y0129528D03*
X0080392Y0129609D03*
D208*
X0060452Y0119769D03*
X0029652Y0129169D03*
X0029652Y0129369D03*
X0029652Y0103169D03*
X0029652Y0102969D03*
X0029652Y0102769D03*
X0277652Y0089369D03*
X0277652Y0089169D03*
X0308452Y0079769D03*
X0277652Y0063169D03*
X0277652Y0062969D03*
X0277652Y0062769D03*
D209*
X0277652Y0062809D03*
X0277652Y0062848D03*
X0277652Y0062888D03*
X0277652Y0062928D03*
X0277652Y0063009D03*
X0277652Y0063048D03*
X0277652Y0063088D03*
X0277652Y0063128D03*
X0277652Y0089009D03*
X0277652Y0089048D03*
X0277652Y0089088D03*
X0277652Y0089128D03*
X0277652Y0089209D03*
X0277652Y0089248D03*
X0277652Y0089288D03*
X0277652Y0089328D03*
X0277652Y0089409D03*
X0029652Y0102809D03*
X0029652Y0102848D03*
X0029652Y0102888D03*
X0029652Y0102928D03*
X0029652Y0103009D03*
X0029652Y0103048D03*
X0029652Y0103088D03*
X0029652Y0103128D03*
X0029652Y0129009D03*
X0029652Y0129048D03*
X0029652Y0129088D03*
X0029652Y0129128D03*
X0029652Y0129209D03*
X0029652Y0129248D03*
X0029652Y0129288D03*
X0029652Y0129328D03*
X0029652Y0129409D03*
D210*
X0080372Y0129769D03*
X0080372Y0128769D03*
X0080372Y0116569D03*
X0080372Y0115569D03*
X0080372Y0103369D03*
X0328372Y0089769D03*
X0328372Y0088769D03*
X0328372Y0076569D03*
X0328372Y0075569D03*
X0328372Y0063369D03*
D211*
X0328332Y0063569D03*
X0328332Y0076769D03*
X0308692Y0079969D03*
X0277732Y0063569D03*
X0080332Y0103569D03*
X0080332Y0116769D03*
X0060692Y0119969D03*
X0029732Y0103569D03*
D212*
X0080272Y0103648D03*
X0080272Y0103688D03*
X0080272Y0115328D03*
X0080272Y0116848D03*
X0080272Y0128528D03*
X0080272Y0130048D03*
X0328272Y0090048D03*
X0328272Y0088528D03*
X0328272Y0076848D03*
X0328272Y0075328D03*
X0328272Y0063688D03*
X0328272Y0063648D03*
D213*
X0328252Y0063769D03*
X0080252Y0103769D03*
D214*
X0029812Y0103769D03*
X0029812Y0128369D03*
X0029812Y0130169D03*
X0277812Y0090169D03*
X0277812Y0088369D03*
X0277812Y0063769D03*
D215*
X0277872Y0064048D03*
X0277872Y0064088D03*
X0277872Y0088088D03*
X0277872Y0088128D03*
X0277872Y0090448D03*
X0029872Y0104048D03*
X0029872Y0104088D03*
X0029872Y0128088D03*
X0029872Y0128128D03*
X0029872Y0130448D03*
D216*
X0080172Y0130448D03*
X0080172Y0128128D03*
X0080172Y0128088D03*
X0080172Y0117248D03*
X0080172Y0114928D03*
X0080172Y0104088D03*
X0328172Y0090448D03*
X0328172Y0088128D03*
X0328172Y0088088D03*
X0328172Y0077248D03*
X0328172Y0074928D03*
X0328172Y0064088D03*
D217*
X0328132Y0064169D03*
X0277932Y0064169D03*
X0080132Y0104169D03*
X0029932Y0104169D03*
D218*
X0080092Y0104209D03*
X0080092Y0114809D03*
X0080092Y0127928D03*
X0328092Y0087928D03*
X0328092Y0074809D03*
X0328092Y0064209D03*
D219*
X0277972Y0064209D03*
X0277972Y0087928D03*
X0029972Y0104209D03*
X0029972Y0127928D03*
D220*
X0030032Y0130769D03*
X0080032Y0117569D03*
X0080032Y0104369D03*
X0278032Y0090769D03*
X0328032Y0077569D03*
X0328032Y0064369D03*
D221*
X0309132Y0080169D03*
X0278012Y0064369D03*
X0061132Y0120169D03*
X0030012Y0104369D03*
D222*
X0079972Y0104448D03*
X0079972Y0117648D03*
X0079972Y0127728D03*
X0079972Y0130848D03*
X0327972Y0090848D03*
X0327972Y0087728D03*
X0327972Y0077648D03*
X0327972Y0064448D03*
D223*
X0278072Y0064448D03*
X0278072Y0090848D03*
X0030072Y0104448D03*
X0030072Y0130848D03*
D224*
X0079952Y0114528D03*
X0079952Y0104488D03*
X0327952Y0074528D03*
X0327952Y0064488D03*
D225*
X0327892Y0064528D03*
X0327892Y0074488D03*
X0310132Y0082648D03*
X0310132Y0082688D03*
X0310132Y0082728D03*
X0310132Y0083688D03*
X0310132Y0083728D03*
X0079892Y0104528D03*
X0079892Y0114488D03*
X0062132Y0122648D03*
X0062132Y0122688D03*
X0062132Y0122728D03*
X0062132Y0123688D03*
X0062132Y0123728D03*
D226*
X0079852Y0104569D03*
X0327852Y0064569D03*
D227*
X0278212Y0064569D03*
X0310172Y0082169D03*
X0310172Y0082369D03*
X0310172Y0084169D03*
X0062172Y0122169D03*
X0062172Y0122369D03*
X0062172Y0124169D03*
X0030212Y0104569D03*
D228*
X0030252Y0104609D03*
X0079812Y0104609D03*
X0079812Y0114409D03*
X0062172Y0122009D03*
X0062172Y0122048D03*
X0062172Y0124448D03*
X0062172Y0124488D03*
X0062172Y0124528D03*
X0030252Y0127528D03*
X0278252Y0087528D03*
X0310172Y0084528D03*
X0310172Y0084488D03*
X0310172Y0084448D03*
X0310172Y0082048D03*
X0310172Y0082009D03*
X0327812Y0074409D03*
X0327812Y0064609D03*
X0278252Y0064609D03*
D229*
X0309792Y0080648D03*
X0309792Y0080688D03*
X0310152Y0081648D03*
X0310152Y0084809D03*
X0327752Y0087409D03*
X0327752Y0077848D03*
X0327752Y0074288D03*
X0327752Y0064728D03*
X0079752Y0104728D03*
X0079752Y0114288D03*
X0079752Y0117848D03*
X0062152Y0121648D03*
X0061792Y0120688D03*
X0061792Y0120648D03*
X0062152Y0124809D03*
X0079752Y0127409D03*
D230*
X0030292Y0127409D03*
X0030292Y0104728D03*
X0278292Y0087409D03*
X0278292Y0064728D03*
D231*
X0278332Y0064769D03*
X0309812Y0080769D03*
X0327732Y0064769D03*
X0079732Y0104769D03*
X0061812Y0120769D03*
X0030332Y0104769D03*
D232*
X0061912Y0120848D03*
X0062112Y0121488D03*
X0062112Y0124928D03*
X0079672Y0131048D03*
X0079672Y0114209D03*
X0079672Y0104809D03*
X0310112Y0084928D03*
X0310112Y0081488D03*
X0309912Y0080848D03*
X0327672Y0074209D03*
X0327672Y0064809D03*
X0327672Y0091048D03*
D233*
X0327592Y0091128D03*
X0327592Y0064848D03*
X0079592Y0104848D03*
X0079592Y0131128D03*
D234*
X0062072Y0125209D03*
X0030472Y0104848D03*
X0278472Y0064848D03*
X0310072Y0085209D03*
D235*
X0327432Y0074128D03*
X0327432Y0064888D03*
X0079432Y0104888D03*
X0079432Y0114128D03*
D236*
X0062172Y0125448D03*
X0062172Y0125488D03*
X0062172Y0125528D03*
X0030612Y0104888D03*
X0278612Y0064888D03*
X0310172Y0085448D03*
X0310172Y0085488D03*
X0310172Y0085528D03*
D237*
X0324472Y0087288D03*
X0324472Y0074088D03*
X0324472Y0064928D03*
X0281672Y0074048D03*
X0076472Y0104928D03*
X0076472Y0114088D03*
X0076472Y0127288D03*
X0033672Y0114048D03*
D238*
X0033592Y0104928D03*
X0281592Y0064928D03*
D239*
X0281632Y0064969D03*
X0324432Y0064969D03*
X0076432Y0104969D03*
X0033632Y0104969D03*
D240*
X0033672Y0105009D03*
X0033672Y0127209D03*
X0281672Y0087209D03*
X0281672Y0065009D03*
D241*
X0310112Y0078088D03*
X0324432Y0074048D03*
X0324432Y0087248D03*
X0281632Y0087248D03*
X0281632Y0091328D03*
X0076432Y0114048D03*
X0062112Y0118088D03*
X0076432Y0127248D03*
X0033632Y0127248D03*
X0033632Y0131328D03*
D242*
X0033672Y0114088D03*
X0281672Y0074088D03*
D243*
X0282072Y0074128D03*
X0034072Y0114128D03*
D244*
X0062032Y0120969D03*
X0079592Y0114169D03*
X0310032Y0080969D03*
X0327592Y0074169D03*
D245*
X0282852Y0074169D03*
X0034852Y0114169D03*
D246*
X0035332Y0114209D03*
X0283332Y0074209D03*
D247*
X0283432Y0074248D03*
X0035432Y0114248D03*
D248*
X0035472Y0114288D03*
X0283472Y0074288D03*
D249*
X0283532Y0074328D03*
X0035532Y0114328D03*
D250*
X0062172Y0121769D03*
X0079772Y0114369D03*
X0310172Y0081769D03*
X0327772Y0074369D03*
D251*
X0283632Y0074369D03*
X0035632Y0114369D03*
D252*
X0035732Y0114409D03*
X0283732Y0074409D03*
D253*
X0309452Y0080488D03*
X0327852Y0074448D03*
X0327852Y0090928D03*
X0079852Y0114448D03*
X0061452Y0120488D03*
X0079852Y0130928D03*
D254*
X0035952Y0114448D03*
X0283952Y0074448D03*
D255*
X0284192Y0074488D03*
X0036192Y0114488D03*
D256*
X0036672Y0114528D03*
X0284672Y0074528D03*
D257*
X0284792Y0074569D03*
X0036792Y0114569D03*
D258*
X0036872Y0114609D03*
X0284872Y0074609D03*
D259*
X0284892Y0074648D03*
X0036892Y0114648D03*
D260*
X0036932Y0114688D03*
X0284932Y0074688D03*
D261*
X0284952Y0074728D03*
X0036952Y0114728D03*
D262*
X0080072Y0114769D03*
X0080072Y0130569D03*
X0328072Y0090569D03*
X0328072Y0074769D03*
D263*
X0284992Y0074769D03*
X0036992Y0114769D03*
D264*
X0037032Y0114809D03*
X0285032Y0074809D03*
D265*
X0277932Y0088009D03*
X0277932Y0090528D03*
X0328132Y0090528D03*
X0328132Y0088009D03*
X0328132Y0074848D03*
X0080132Y0114848D03*
X0080132Y0128009D03*
X0080132Y0130528D03*
X0029932Y0130528D03*
X0029932Y0128009D03*
D266*
X0037092Y0114848D03*
X0285092Y0074848D03*
D267*
X0285232Y0074888D03*
X0037232Y0114888D03*
D268*
X0037492Y0114928D03*
X0285492Y0074928D03*
D269*
X0328192Y0074969D03*
X0328192Y0077169D03*
X0328192Y0088169D03*
X0328192Y0090369D03*
X0080192Y0114969D03*
X0080192Y0117169D03*
X0080192Y0128169D03*
X0080192Y0130369D03*
D270*
X0037652Y0114969D03*
X0285652Y0074969D03*
D271*
X0285752Y0075009D03*
X0037752Y0115009D03*
D272*
X0037812Y0115048D03*
X0285812Y0075048D03*
D273*
X0285832Y0075088D03*
X0037832Y0115088D03*
D274*
X0037852Y0115128D03*
X0285852Y0075128D03*
D275*
X0285912Y0075169D03*
X0037912Y0115169D03*
D276*
X0037952Y0115209D03*
X0285952Y0075209D03*
D277*
X0286052Y0075248D03*
X0038052Y0115248D03*
D278*
X0038172Y0115288D03*
X0286172Y0075288D03*
D279*
X0286532Y0075328D03*
X0038532Y0115328D03*
D280*
X0080292Y0115369D03*
X0080292Y0128569D03*
X0328292Y0088569D03*
X0328292Y0075369D03*
D281*
X0286632Y0075369D03*
X0038632Y0115369D03*
D282*
X0038692Y0115409D03*
X0286692Y0075409D03*
D283*
X0286712Y0075448D03*
X0038712Y0115448D03*
D284*
X0038732Y0115488D03*
X0286732Y0075488D03*
D285*
X0286732Y0075528D03*
X0038732Y0115528D03*
D286*
X0038732Y0115569D03*
X0286732Y0075569D03*
D287*
X0286772Y0075609D03*
X0038772Y0115609D03*
D288*
X0038832Y0115648D03*
X0286832Y0075648D03*
D289*
X0286892Y0075688D03*
X0038892Y0115688D03*
D290*
X0039012Y0115728D03*
X0287012Y0075728D03*
D291*
X0287132Y0075769D03*
X0039132Y0115769D03*
D292*
X0039212Y0115809D03*
X0287212Y0075809D03*
D293*
X0287212Y0075848D03*
X0039212Y0115848D03*
D294*
X0039232Y0115888D03*
X0287232Y0075888D03*
D295*
X0287252Y0075928D03*
X0039252Y0115928D03*
D296*
X0039272Y0115969D03*
X0287272Y0075969D03*
D297*
X0287312Y0076009D03*
X0039312Y0116009D03*
D298*
X0039392Y0116048D03*
X0287392Y0076048D03*
D299*
X0287472Y0076088D03*
X0039472Y0116088D03*
D300*
X0039592Y0116128D03*
X0287592Y0076128D03*
D301*
X0287672Y0076169D03*
X0039672Y0116169D03*
D302*
X0039772Y0116209D03*
X0287772Y0076209D03*
D303*
X0287792Y0076248D03*
X0039792Y0116248D03*
D304*
X0039812Y0116288D03*
X0287812Y0076288D03*
D305*
X0287852Y0076328D03*
X0039852Y0116328D03*
D306*
X0039872Y0116369D03*
X0287872Y0076369D03*
D307*
X0287892Y0076409D03*
X0039892Y0116409D03*
D308*
X0039992Y0116448D03*
X0287992Y0076448D03*
D309*
X0288092Y0076488D03*
X0040092Y0116488D03*
D310*
X0040232Y0116528D03*
X0288232Y0076528D03*
D311*
X0288312Y0076569D03*
X0040312Y0116569D03*
D312*
X0040372Y0116609D03*
X0288372Y0076609D03*
D313*
X0288432Y0076648D03*
X0288472Y0076688D03*
X0288472Y0076728D03*
X0040472Y0116688D03*
X0040472Y0116728D03*
X0040432Y0116648D03*
D314*
X0040512Y0116769D03*
X0288512Y0076769D03*
D315*
X0308812Y0080048D03*
X0328292Y0076809D03*
X0328292Y0090009D03*
X0080292Y0116809D03*
X0060812Y0120048D03*
X0080292Y0130009D03*
D316*
X0040552Y0116809D03*
X0288552Y0076809D03*
D317*
X0288612Y0076848D03*
X0040612Y0116848D03*
D318*
X0040672Y0116888D03*
X0288672Y0076888D03*
D319*
X0288752Y0076928D03*
X0040752Y0116928D03*
D320*
X0040832Y0116969D03*
X0288832Y0076969D03*
D321*
X0288892Y0077009D03*
X0040892Y0117009D03*
D322*
X0040952Y0117048D03*
X0288952Y0077048D03*
D323*
X0288972Y0077088D03*
X0288972Y0077128D03*
X0040972Y0117088D03*
X0040972Y0117128D03*
D324*
X0041012Y0117169D03*
X0289012Y0077169D03*
D325*
X0289032Y0077209D03*
X0041032Y0117209D03*
D326*
X0041092Y0117248D03*
X0289092Y0077248D03*
D327*
X0289152Y0077288D03*
X0290552Y0078048D03*
X0042552Y0118048D03*
X0041152Y0117288D03*
D328*
X0041232Y0117328D03*
X0289232Y0077328D03*
D329*
X0328112Y0077369D03*
X0328112Y0087969D03*
X0080112Y0117369D03*
X0080112Y0127969D03*
D330*
X0041332Y0117369D03*
X0289332Y0077369D03*
D331*
X0289412Y0077409D03*
X0041412Y0117409D03*
D332*
X0041432Y0117448D03*
X0042352Y0118009D03*
X0289432Y0077448D03*
X0290352Y0078009D03*
D333*
X0290212Y0077928D03*
X0289492Y0077488D03*
X0042212Y0117928D03*
X0041492Y0117488D03*
D334*
X0041512Y0117528D03*
X0289512Y0077528D03*
D335*
X0289552Y0077569D03*
X0041552Y0117569D03*
D336*
X0041592Y0117609D03*
X0042152Y0117888D03*
X0289592Y0077609D03*
X0290152Y0077888D03*
D337*
X0290072Y0077809D03*
X0289672Y0077648D03*
X0042072Y0117809D03*
X0041672Y0117648D03*
D338*
X0041752Y0117688D03*
X0289752Y0077688D03*
D339*
X0289892Y0077728D03*
X0041892Y0117728D03*
D340*
X0062192Y0124369D03*
X0079832Y0117769D03*
X0310192Y0084369D03*
X0327832Y0077769D03*
D341*
X0310172Y0077769D03*
X0062172Y0117769D03*
D342*
X0041992Y0117769D03*
X0289992Y0077769D03*
D343*
X0310132Y0077848D03*
X0062132Y0117848D03*
D344*
X0042132Y0117848D03*
X0290132Y0077848D03*
D345*
X0310092Y0084969D03*
X0327652Y0077969D03*
X0079652Y0117969D03*
X0062092Y0124969D03*
D346*
X0062152Y0117969D03*
X0310152Y0077969D03*
D347*
X0290252Y0077969D03*
X0042252Y0117969D03*
D348*
X0062172Y0118009D03*
X0062172Y0128488D03*
X0310172Y0088488D03*
X0310172Y0078009D03*
D349*
X0327472Y0078048D03*
X0327472Y0091209D03*
X0079472Y0118048D03*
X0079472Y0131209D03*
D350*
X0051012Y0118088D03*
X0299012Y0078088D03*
D351*
X0281692Y0078088D03*
X0310132Y0088248D03*
X0289932Y0099328D03*
X0062132Y0128248D03*
X0041932Y0139328D03*
X0033692Y0118088D03*
D352*
X0054652Y0118128D03*
X0302652Y0078128D03*
D353*
X0324412Y0078169D03*
X0076412Y0118169D03*
D354*
X0055232Y0118169D03*
X0303232Y0078169D03*
D355*
X0281672Y0078169D03*
X0033672Y0118169D03*
D356*
X0055732Y0118209D03*
X0303732Y0078209D03*
D357*
X0303992Y0078248D03*
X0055992Y0118248D03*
D358*
X0056112Y0118288D03*
X0304112Y0078288D03*
D359*
X0304152Y0078328D03*
X0056152Y0118328D03*
D360*
X0056232Y0118369D03*
X0304232Y0078369D03*
D361*
X0304332Y0078409D03*
X0056332Y0118409D03*
D362*
X0056492Y0118448D03*
X0304492Y0078448D03*
D363*
X0304692Y0078488D03*
X0056692Y0118488D03*
D364*
X0057132Y0118528D03*
X0305132Y0078528D03*
D365*
X0305352Y0078569D03*
X0057352Y0118569D03*
D366*
X0057492Y0118609D03*
X0305492Y0078609D03*
D367*
X0305592Y0078648D03*
X0057592Y0118648D03*
D368*
X0057652Y0118688D03*
X0305652Y0078688D03*
D369*
X0305692Y0078728D03*
X0057692Y0118728D03*
D370*
X0057752Y0118769D03*
X0305752Y0078769D03*
D371*
X0305872Y0078809D03*
X0057872Y0118809D03*
D372*
X0058032Y0118848D03*
X0306032Y0078848D03*
D373*
X0306212Y0078888D03*
X0058212Y0118888D03*
D374*
X0058612Y0118928D03*
X0306612Y0078928D03*
D375*
X0306792Y0078969D03*
X0058792Y0118969D03*
D376*
X0058912Y0119009D03*
X0058992Y0119048D03*
X0058992Y0119088D03*
X0306912Y0079009D03*
X0306992Y0079048D03*
X0306992Y0079088D03*
D377*
X0307052Y0079128D03*
X0059052Y0119128D03*
D378*
X0059072Y0119169D03*
X0307072Y0079169D03*
D379*
X0307132Y0079209D03*
X0059132Y0119209D03*
D380*
X0059212Y0119248D03*
X0307212Y0079248D03*
D381*
X0307312Y0079288D03*
X0059312Y0119288D03*
D382*
X0059552Y0119328D03*
X0307552Y0079328D03*
D383*
X0307652Y0079369D03*
X0059652Y0119369D03*
D384*
X0059772Y0119409D03*
X0307772Y0079409D03*
D385*
X0307832Y0079448D03*
X0059832Y0119448D03*
D386*
X0059852Y0119488D03*
X0307852Y0079488D03*
D387*
X0307912Y0079528D03*
X0059912Y0119528D03*
D388*
X0059932Y0119569D03*
X0307932Y0079569D03*
D389*
X0307972Y0079609D03*
X0059972Y0119609D03*
D390*
X0060052Y0119648D03*
X0308052Y0079648D03*
D391*
X0308192Y0079688D03*
X0060192Y0119688D03*
D392*
X0060372Y0119728D03*
X0308372Y0079728D03*
D393*
X0309292Y0080409D03*
X0278092Y0087728D03*
X0061292Y0120409D03*
X0030092Y0127728D03*
D394*
X0061372Y0120448D03*
X0309372Y0080448D03*
D395*
X0309552Y0080528D03*
X0310192Y0081809D03*
X0310192Y0081848D03*
X0310192Y0081888D03*
X0310192Y0081928D03*
X0327792Y0087488D03*
X0327792Y0087528D03*
X0079792Y0127488D03*
X0079792Y0127528D03*
X0062192Y0121928D03*
X0062192Y0121888D03*
X0062192Y0121848D03*
X0062192Y0121809D03*
X0061552Y0120528D03*
D396*
X0061952Y0120888D03*
X0079632Y0131088D03*
X0030432Y0131088D03*
X0278432Y0091088D03*
X0309952Y0080888D03*
X0327632Y0091088D03*
D397*
X0310092Y0085248D03*
X0310092Y0081248D03*
X0310092Y0081209D03*
X0310092Y0081128D03*
X0310052Y0081009D03*
X0278492Y0087328D03*
X0062092Y0121128D03*
X0062092Y0121209D03*
X0062092Y0121248D03*
X0062052Y0121009D03*
X0062092Y0125248D03*
X0030492Y0127328D03*
D398*
X0062112Y0125288D03*
X0062072Y0121088D03*
X0062072Y0121048D03*
X0310112Y0085288D03*
X0310072Y0081088D03*
X0310072Y0081048D03*
D399*
X0310092Y0081169D03*
X0278492Y0091169D03*
X0062092Y0121169D03*
X0030492Y0131169D03*
D400*
X0062072Y0121369D03*
X0310072Y0081369D03*
D401*
X0310112Y0081569D03*
X0062112Y0121569D03*
D402*
X0062172Y0121969D03*
X0062172Y0124569D03*
X0079812Y0127569D03*
X0030252Y0127569D03*
X0030252Y0130969D03*
X0278252Y0090969D03*
X0278252Y0087569D03*
X0310172Y0084569D03*
X0310172Y0081969D03*
X0327812Y0087569D03*
D403*
X0310172Y0084328D03*
X0310172Y0084288D03*
X0310172Y0084248D03*
X0310172Y0084209D03*
X0310172Y0084128D03*
X0310172Y0084088D03*
X0310172Y0084048D03*
X0310172Y0082409D03*
X0310172Y0082328D03*
X0310172Y0082288D03*
X0310172Y0082248D03*
X0310172Y0082209D03*
X0278212Y0087609D03*
X0062172Y0122209D03*
X0062172Y0122248D03*
X0062172Y0122288D03*
X0062172Y0122328D03*
X0062172Y0122409D03*
X0062172Y0124048D03*
X0062172Y0124088D03*
X0062172Y0124128D03*
X0062172Y0124209D03*
X0062172Y0124248D03*
X0062172Y0124288D03*
X0062172Y0124328D03*
X0030212Y0127609D03*
D404*
X0030192Y0127648D03*
X0030192Y0130928D03*
X0062152Y0124009D03*
X0062152Y0123928D03*
X0062152Y0123888D03*
X0062152Y0123848D03*
X0062152Y0123809D03*
X0062152Y0122609D03*
X0062152Y0122528D03*
X0062152Y0122488D03*
X0062152Y0122448D03*
X0278192Y0090928D03*
X0278192Y0087648D03*
X0310152Y0084009D03*
X0310152Y0083928D03*
X0310152Y0083888D03*
X0310152Y0083848D03*
X0310152Y0083809D03*
X0310152Y0082609D03*
X0310152Y0082528D03*
X0310152Y0082488D03*
X0310152Y0082448D03*
D405*
X0310152Y0082569D03*
X0310152Y0083969D03*
X0062152Y0122569D03*
X0062152Y0123969D03*
D406*
X0062132Y0123769D03*
X0062132Y0122769D03*
X0310132Y0083769D03*
X0310132Y0082769D03*
D407*
X0310112Y0082809D03*
X0310112Y0082848D03*
X0310112Y0082888D03*
X0310112Y0083528D03*
X0310112Y0083609D03*
X0310112Y0083648D03*
X0062112Y0122809D03*
X0062112Y0122848D03*
X0062112Y0122888D03*
X0062112Y0123528D03*
X0062112Y0123609D03*
X0062112Y0123648D03*
D408*
X0062092Y0123369D03*
X0062092Y0122969D03*
X0310092Y0083369D03*
X0310092Y0082969D03*
D409*
X0310072Y0083169D03*
X0062072Y0123169D03*
D410*
X0062112Y0123569D03*
X0310112Y0083569D03*
D411*
X0310072Y0085009D03*
X0310072Y0085048D03*
X0062072Y0125009D03*
X0062072Y0125048D03*
D412*
X0062092Y0125169D03*
X0310092Y0085169D03*
D413*
X0310132Y0085328D03*
X0062132Y0125328D03*
D414*
X0062152Y0125369D03*
X0310152Y0085369D03*
D415*
X0310152Y0085409D03*
X0062152Y0125409D03*
D416*
X0062172Y0125569D03*
X0310172Y0085569D03*
D417*
X0310172Y0085609D03*
X0310172Y0085648D03*
X0062172Y0125609D03*
X0062172Y0125648D03*
D418*
X0062152Y0125688D03*
X0310152Y0085688D03*
D419*
X0310172Y0085728D03*
X0062172Y0125728D03*
D420*
X0062152Y0125769D03*
X0310152Y0085769D03*
D421*
X0310112Y0085809D03*
X0062112Y0125809D03*
D422*
X0062092Y0125848D03*
X0062092Y0125888D03*
X0310092Y0085888D03*
X0310092Y0085848D03*
D423*
X0310072Y0085928D03*
X0062072Y0125928D03*
D424*
X0062092Y0125969D03*
X0310092Y0085969D03*
D425*
X0310092Y0086009D03*
X0062092Y0126009D03*
D426*
X0062092Y0126048D03*
X0310092Y0086048D03*
D427*
X0310132Y0086088D03*
X0062132Y0126088D03*
D428*
X0062152Y0126128D03*
X0310152Y0086128D03*
D429*
X0310152Y0086169D03*
X0062152Y0126169D03*
D430*
X0062172Y0126209D03*
X0310172Y0086209D03*
D431*
X0310192Y0086248D03*
X0062192Y0126248D03*
D432*
X0062172Y0126288D03*
X0310172Y0086288D03*
D433*
X0310192Y0086328D03*
X0062192Y0126328D03*
D434*
X0062192Y0126369D03*
X0310192Y0086369D03*
D435*
X0310172Y0086409D03*
X0062172Y0126409D03*
D436*
X0062172Y0126448D03*
X0310172Y0086448D03*
D437*
X0310152Y0086488D03*
X0062152Y0126488D03*
D438*
X0062112Y0126528D03*
X0310112Y0086528D03*
D439*
X0310132Y0086569D03*
X0062132Y0126569D03*
D440*
X0062132Y0126609D03*
X0310132Y0086609D03*
D441*
X0310172Y0086648D03*
X0062172Y0126648D03*
D442*
X0062152Y0126688D03*
X0310152Y0086688D03*
D443*
X0310172Y0086728D03*
X0062172Y0126728D03*
D444*
X0062152Y0126769D03*
X0310152Y0086769D03*
D445*
X0310172Y0086809D03*
X0062172Y0126809D03*
D446*
X0062172Y0126848D03*
X0310172Y0086848D03*
D447*
X0310152Y0086888D03*
X0062152Y0126888D03*
D448*
X0062132Y0126928D03*
X0310132Y0086928D03*
D449*
X0310112Y0086969D03*
X0062112Y0126969D03*
D450*
X0062092Y0127009D03*
X0310092Y0087009D03*
D451*
X0310092Y0087048D03*
X0062092Y0127048D03*
D452*
X0062112Y0127088D03*
X0310112Y0087088D03*
D453*
X0310112Y0087128D03*
X0062112Y0127128D03*
D454*
X0062132Y0127169D03*
X0310132Y0087169D03*
D455*
X0310132Y0087209D03*
X0062132Y0127209D03*
D456*
X0062152Y0127248D03*
X0310152Y0087248D03*
D457*
X0310132Y0087288D03*
X0062132Y0127288D03*
D458*
X0079572Y0127328D03*
X0327572Y0087328D03*
D459*
X0310112Y0087328D03*
X0062112Y0127328D03*
D460*
X0079672Y0127369D03*
X0327672Y0087369D03*
D461*
X0310112Y0087369D03*
X0062112Y0127369D03*
D462*
X0030372Y0127369D03*
X0278372Y0087369D03*
D463*
X0310132Y0087409D03*
X0062132Y0127409D03*
D464*
X0062172Y0127448D03*
X0310172Y0087448D03*
D465*
X0310152Y0087488D03*
X0062152Y0127488D03*
D466*
X0062172Y0127528D03*
X0310172Y0087528D03*
D467*
X0310152Y0087569D03*
X0062152Y0127569D03*
D468*
X0062152Y0127609D03*
X0310152Y0087609D03*
D469*
X0310172Y0087648D03*
X0062172Y0127648D03*
D470*
X0062152Y0127688D03*
X0310152Y0087688D03*
D471*
X0310152Y0087728D03*
X0062152Y0127728D03*
D472*
X0080012Y0127769D03*
X0080012Y0130769D03*
X0030052Y0127769D03*
X0278052Y0087769D03*
X0328012Y0087769D03*
X0328012Y0090769D03*
D473*
X0310172Y0087769D03*
X0062172Y0127769D03*
D474*
X0062152Y0127809D03*
X0310152Y0087809D03*
D475*
X0310152Y0087848D03*
X0062152Y0127848D03*
D476*
X0062152Y0127888D03*
X0310152Y0087888D03*
D477*
X0310132Y0087928D03*
X0062132Y0127928D03*
D478*
X0062132Y0127969D03*
X0310132Y0087969D03*
D479*
X0277972Y0087969D03*
X0277972Y0090569D03*
X0029972Y0127969D03*
X0029972Y0130569D03*
D480*
X0062112Y0128009D03*
X0310112Y0088009D03*
D481*
X0310092Y0088048D03*
X0062092Y0128048D03*
D482*
X0062092Y0128088D03*
X0310092Y0088088D03*
D483*
X0310072Y0088128D03*
X0062072Y0128128D03*
D484*
X0062112Y0128169D03*
X0310112Y0088169D03*
D485*
X0310132Y0088209D03*
X0062132Y0128209D03*
D486*
X0062152Y0128288D03*
X0310152Y0088288D03*
D487*
X0310152Y0088328D03*
X0062152Y0128328D03*
D488*
X0062152Y0128369D03*
X0310152Y0088369D03*
D489*
X0310112Y0088569D03*
X0062112Y0128569D03*
D490*
X0029772Y0128569D03*
X0029772Y0129969D03*
X0277772Y0089969D03*
X0277772Y0088569D03*
D491*
X0310112Y0088648D03*
X0062112Y0128648D03*
D492*
X0062132Y0128688D03*
X0310132Y0088688D03*
D493*
X0310132Y0088728D03*
X0062132Y0128728D03*
D494*
X0062152Y0128769D03*
X0310152Y0088769D03*
D495*
X0277692Y0088769D03*
X0277692Y0089769D03*
X0029692Y0128769D03*
X0029692Y0129769D03*
D496*
X0080312Y0129969D03*
X0328312Y0089969D03*
D497*
X0327792Y0090969D03*
X0079792Y0130969D03*
D498*
X0079572Y0131169D03*
X0327572Y0091169D03*
D499*
X0278572Y0091209D03*
X0030572Y0131209D03*
D500*
X0076392Y0131369D03*
X0324392Y0091369D03*
D501*
X0281672Y0091369D03*
X0033672Y0131369D03*
D502*
X0076232Y0135369D03*
X0324232Y0095369D03*
D503*
X0281892Y0095369D03*
X0033892Y0135369D03*
D504*
X0055032Y0137569D03*
X0303032Y0097569D03*
D505*
X0303012Y0097769D03*
X0055012Y0137769D03*
D506*
X0055012Y0138369D03*
X0303012Y0098369D03*
D507*
X0303012Y0098409D03*
X0055012Y0138409D03*
D508*
X0055032Y0138448D03*
X0303032Y0098448D03*
D509*
X0303012Y0098528D03*
X0055012Y0138528D03*
D510*
X0055032Y0138569D03*
X0303032Y0098569D03*
D511*
X0303032Y0098609D03*
X0055032Y0138609D03*
D512*
X0055032Y0138769D03*
X0303032Y0098769D03*
D513*
X0303012Y0098848D03*
X0055012Y0138848D03*
D514*
X0055012Y0138928D03*
X0303012Y0098928D03*
D515*
X0303012Y0098969D03*
X0055012Y0138969D03*
D516*
X0055012Y0139009D03*
X0303012Y0099009D03*
D517*
X0303032Y0099169D03*
X0055032Y0139169D03*
D518*
X0055012Y0139209D03*
X0303012Y0099209D03*
D519*
X0303032Y0099248D03*
X0055032Y0139248D03*
D520*
X0055032Y0139288D03*
X0303032Y0099288D03*
D521*
X0316152Y0099328D03*
X0068152Y0139328D03*
D522*
X0055032Y0139328D03*
X0303032Y0099328D03*
D523*
X0289932Y0099369D03*
X0316132Y0099369D03*
X0068132Y0139369D03*
X0041932Y0139369D03*
D524*
X0055052Y0139369D03*
X0303052Y0099369D03*
D525*
X0303012Y0105769D03*
X0055012Y0145769D03*
D526*
X0068192Y0146369D03*
X0316192Y0106369D03*
D527*
X0303012Y0106369D03*
X0055012Y0146369D03*
D528*
X0041832Y0146369D03*
X0289832Y0106369D03*
D529*
X0289852Y0106409D03*
X0041852Y0146409D03*
D530*
X0055032Y0146448D03*
X0068192Y0146448D03*
X0303032Y0106448D03*
X0316192Y0106448D03*
D531*
X0316172Y0106488D03*
X0068172Y0146488D03*
D532*
X0041872Y0146488D03*
X0289872Y0106488D03*
D533*
X0303032Y0106528D03*
X0055032Y0146528D03*
D534*
X0041872Y0146528D03*
X0289872Y0106528D03*
D535*
X0303032Y0106569D03*
X0316192Y0106569D03*
X0068192Y0146569D03*
X0055032Y0146569D03*
D536*
X0041852Y0146569D03*
X0289852Y0106569D03*
D537*
X0289832Y0106648D03*
X0303032Y0106609D03*
X0055032Y0146609D03*
X0041832Y0146648D03*
D538*
X0055032Y0146769D03*
X0068192Y0146769D03*
X0303032Y0106769D03*
X0316192Y0106769D03*
D539*
X0289852Y0106769D03*
X0041852Y0146769D03*
D540*
X0055012Y0146809D03*
X0068212Y0146809D03*
X0303012Y0106809D03*
X0316212Y0106809D03*
D541*
X0316212Y0106848D03*
X0303012Y0106848D03*
X0068212Y0146848D03*
X0055012Y0146848D03*
D542*
X0041832Y0146848D03*
X0289832Y0106848D03*
D543*
X0316192Y0106888D03*
X0068192Y0146888D03*
D544*
X0055032Y0146888D03*
X0041832Y0146888D03*
X0289832Y0106888D03*
X0303032Y0106888D03*
D545*
X0303032Y0106928D03*
X0316192Y0106928D03*
X0068192Y0146928D03*
X0055032Y0146928D03*
D546*
X0041852Y0146928D03*
X0289852Y0106928D03*
D547*
X0303032Y0106969D03*
X0316192Y0106969D03*
X0068192Y0146969D03*
X0055032Y0146969D03*
D548*
X0041852Y0146969D03*
X0289852Y0106969D03*
D549*
X0289832Y0107009D03*
X0303032Y0107009D03*
X0055032Y0147009D03*
X0041832Y0147009D03*
D550*
X0055032Y0147128D03*
X0068192Y0147128D03*
X0303032Y0107128D03*
X0316192Y0107128D03*
D551*
X0316212Y0107169D03*
X0303012Y0107169D03*
X0068212Y0147169D03*
X0055012Y0147169D03*
D552*
X0041852Y0147169D03*
X0289852Y0107169D03*
D553*
X0316192Y0107209D03*
X0068192Y0147209D03*
D554*
X0055012Y0147209D03*
X0041852Y0147209D03*
X0289852Y0107209D03*
X0303012Y0107209D03*
D555*
X0316192Y0107248D03*
X0068192Y0147248D03*
D556*
X0055032Y0147248D03*
X0041872Y0147248D03*
X0289872Y0107248D03*
X0303032Y0107248D03*
D557*
X0303032Y0107288D03*
X0289912Y0107288D03*
X0316152Y0107288D03*
X0068152Y0147288D03*
X0055032Y0147288D03*
X0041912Y0147288D03*
D558*
X0041812Y0147328D03*
X0055012Y0147328D03*
X0068212Y0147328D03*
X0289812Y0107328D03*
X0303012Y0107328D03*
X0316212Y0107328D03*
M02*
