G75*
%MOIN*%
%OFA0B0*%
%FSLAX25Y25*%
%IPPOS*%
%LPD*%
%AMOC8*
5,1,8,0,0,1.08239X$1,22.5*
%
%ADD10C,0.11824*%
%ADD11C,0.07200*%
%ADD12C,0.10800*%
%ADD13C,0.10924*%
%ADD14C,0.16550*%
%ADD15C,0.07400*%
%ADD16C,0.03900*%
D10*
X0024016Y0010337D03*
X0024362Y0141211D03*
X0433748Y0141211D03*
X0433748Y0010369D03*
D11*
X0033472Y0031369D03*
X0023472Y0031369D03*
X0023472Y0041369D03*
X0033472Y0041369D03*
X0033472Y0051369D03*
X0023472Y0051369D03*
D12*
X0190472Y0053369D03*
X0215472Y0063369D03*
X0255472Y0053369D03*
X0280472Y0063369D03*
X0320472Y0053369D03*
X0345472Y0063369D03*
X0385472Y0053369D03*
X0410472Y0063369D03*
X0385472Y0118369D03*
X0410472Y0128369D03*
X0345472Y0128369D03*
X0320472Y0118369D03*
X0280472Y0128369D03*
X0255472Y0118369D03*
X0215472Y0128369D03*
X0190472Y0118369D03*
D13*
X0185472Y0108369D03*
X0225472Y0108369D03*
X0250472Y0108369D03*
X0290472Y0108369D03*
X0315472Y0108369D03*
X0355472Y0108369D03*
X0380472Y0108369D03*
X0420472Y0108369D03*
X0420472Y0043369D03*
X0380472Y0043369D03*
X0355472Y0043369D03*
X0315472Y0043369D03*
X0290472Y0043369D03*
X0250472Y0043369D03*
X0225472Y0043369D03*
X0185472Y0043369D03*
D14*
X0205472Y0043369D03*
X0270472Y0043369D03*
X0335472Y0043369D03*
X0400472Y0043369D03*
X0400472Y0108369D03*
X0335472Y0108369D03*
X0270472Y0108369D03*
X0205472Y0108369D03*
D15*
X0200472Y0093369D03*
X0210472Y0093369D03*
X0265472Y0093369D03*
X0275472Y0093369D03*
X0330472Y0093369D03*
X0340472Y0093369D03*
X0395472Y0093369D03*
X0405472Y0093369D03*
X0405472Y0028369D03*
X0395472Y0028369D03*
X0340472Y0028369D03*
X0330472Y0028369D03*
X0275472Y0028369D03*
X0265472Y0028369D03*
X0210472Y0028369D03*
X0200472Y0028369D03*
D16*
X0189972Y0033869D03*
X0181472Y0022369D03*
X0143972Y0020869D03*
X0133472Y0020869D03*
X0113472Y0010369D03*
X0078972Y0029369D03*
X0065472Y0028869D03*
X0063472Y0033369D03*
X0053972Y0035369D03*
X0061972Y0039369D03*
X0043972Y0041369D03*
X0086472Y0038869D03*
X0099972Y0037369D03*
X0110472Y0037369D03*
X0135472Y0037869D03*
X0130472Y0050369D03*
X0137472Y0051869D03*
X0145472Y0054369D03*
X0145472Y0061369D03*
X0133972Y0064369D03*
X0142772Y0069969D03*
X0148372Y0078569D03*
X0184972Y0087869D03*
X0111972Y0062869D03*
X0091972Y0063369D03*
X0109472Y0053369D03*
X0047972Y0070869D03*
X0037472Y0060869D03*
X0072972Y0077869D03*
X0071972Y0090369D03*
X0230472Y0025369D03*
X0245972Y0015869D03*
X0314472Y0025369D03*
X0373472Y0016369D03*
X0376972Y0084369D03*
X0308472Y0086369D03*
X0262972Y0085869D03*
X0054472Y0017369D03*
M02*
