%
M48
M72
T01C0.00800
T02C0.01500
T03C0.03543
T04C0.04000
T05C0.05906
T06C0.06750
T07C0.11024
T08C0.15750
%
T01
X150472Y131369
T02
X71972Y90369
X72972Y77869
X47972Y70869
X37472Y60869
X91972Y63369
X111972Y62869
X133972Y64369
X145472Y61369
X145472Y54369
X137472Y51869
X130472Y50369
X109472Y53369
X86472Y38869
X99972Y37369
X110472Y37369
X135472Y37869
X181472Y22369
X189972Y33869
X230472Y25369
X245972Y15869
X314472Y25369
X373472Y16369
X376972Y84369
X308472Y86369
X262972Y85869
X184972Y87869
X148372Y78569
X142772Y69969
X61972Y39369
X53972Y35369
X63472Y33369
X65472Y28869
X78972Y29369
X54472Y17369
X113472Y10369
X133472Y20869
X143972Y20869
X43972Y41369
T03
X33472Y41369
X23472Y41369
X23472Y51369
X33472Y51369
X33472Y31369
X23472Y31369
T04
X200472Y28369
X210472Y28369
X265472Y28369
X275472Y28369
X330472Y28369
X340472Y28369
X395472Y28369
X405472Y28369
X405472Y93369
X395472Y93369
X340472Y93369
X330472Y93369
X275472Y93369
X265472Y93369
X210472Y93369
X200472Y93369
T05
X190472Y118369
X215472Y128369
X255472Y118369
X280472Y128369
X320472Y118369
X345472Y128369
X385472Y118369
X410472Y128369
X410472Y63369
X385472Y53369
X345472Y63369
X320472Y53369
X280472Y63369
X255472Y53369
X215472Y63369
X190472Y53369
T06
X185472Y43369
X225472Y43369
X250472Y43369
X290472Y43369
X315472Y43369
X355472Y43369
X380472Y43369
X420472Y43369
X420472Y108369
X380472Y108369
X355472Y108369
X315472Y108369
X290472Y108369
X250472Y108369
X225472Y108369
X185472Y108369
T07
X24016Y10337
X24362Y141211
X433748Y141211
X433748Y10369
T08
X400472Y43369
X335472Y43369
X270472Y43369
X205472Y43369
X205472Y108369
X270472Y108369
X335472Y108369
X400472Y108369
M30
