G75*
%MOIN*%
%OFA0B0*%
%FSLAX25Y25*%
%IPPOS*%
%LPD*%
%AMOC8*
5,1,8,0,0,1.08239X$1,22.5*
%
%ADD10C,0.06400*%
%ADD11C,0.10000*%
%ADD12C,0.10124*%
%ADD13C,0.06600*%
%ADD14C,0.00800*%
%ADD15C,0.03100*%
%ADD16C,0.02400*%
%ADD17C,0.01000*%
%ADD18C,0.02400*%
D10*
X0023472Y0031369D03*
X0033472Y0031369D03*
X0033472Y0041369D03*
X0023472Y0041369D03*
X0023472Y0051369D03*
X0033472Y0051369D03*
D11*
X0190472Y0053369D03*
X0215472Y0063369D03*
X0255472Y0053369D03*
X0280472Y0063369D03*
X0320472Y0053369D03*
X0345472Y0063369D03*
X0385472Y0053369D03*
X0410472Y0063369D03*
X0385472Y0118369D03*
X0410472Y0128369D03*
X0345472Y0128369D03*
X0320472Y0118369D03*
X0280472Y0128369D03*
X0255472Y0118369D03*
X0215472Y0128369D03*
X0190472Y0118369D03*
D12*
X0185472Y0108369D03*
X0225472Y0108369D03*
X0250472Y0108369D03*
X0290472Y0108369D03*
X0315472Y0108369D03*
X0355472Y0108369D03*
X0380472Y0108369D03*
X0420472Y0108369D03*
X0420472Y0043369D03*
X0380472Y0043369D03*
X0355472Y0043369D03*
X0315472Y0043369D03*
X0290472Y0043369D03*
X0250472Y0043369D03*
X0225472Y0043369D03*
X0185472Y0043369D03*
D13*
X0200472Y0028369D03*
X0210472Y0028369D03*
X0265472Y0028369D03*
X0275472Y0028369D03*
X0330472Y0028369D03*
X0340472Y0028369D03*
X0395472Y0028369D03*
X0405472Y0028369D03*
X0405472Y0093369D03*
X0395472Y0093369D03*
X0340472Y0093369D03*
X0330472Y0093369D03*
X0275472Y0093369D03*
X0265472Y0093369D03*
X0210472Y0093369D03*
X0200472Y0093369D03*
D14*
X0024127Y0002985D02*
X0022771Y0003425D01*
X0025391Y0003425D01*
X0027931Y0004477D01*
X0029875Y0006422D01*
X0030928Y0008962D01*
X0030928Y0011712D01*
X0029875Y0014252D01*
X0027931Y0016197D01*
X0025391Y0017249D01*
X0022641Y0017249D01*
X0020101Y0016197D01*
X0018156Y0014252D01*
X0017104Y0011712D01*
X0017104Y0009747D01*
X0016978Y0010133D01*
X0016872Y0011479D01*
X0016872Y0140101D01*
X0016978Y0141446D01*
X0017810Y0144005D01*
X0018341Y0144737D01*
X0017450Y0142586D01*
X0017450Y0139836D01*
X0018503Y0137296D01*
X0020447Y0135351D01*
X0022987Y0134299D01*
X0025737Y0134299D01*
X0028277Y0135351D01*
X0030222Y0137296D01*
X0031274Y0139836D01*
X0031274Y0142586D01*
X0030222Y0145126D01*
X0028277Y0147071D01*
X0025737Y0148123D01*
X0022987Y0148123D01*
X0020837Y0147232D01*
X0021568Y0147763D01*
X0024127Y0148595D01*
X0025472Y0148701D01*
X0432638Y0148701D01*
X0433983Y0148595D01*
X0436542Y0147763D01*
X0437274Y0147232D01*
X0435123Y0148123D01*
X0432373Y0148123D01*
X0429833Y0147071D01*
X0427888Y0145126D01*
X0426836Y0142586D01*
X0426836Y0139836D01*
X0427888Y0137296D01*
X0429833Y0135351D01*
X0432373Y0134299D01*
X0435123Y0134299D01*
X0437663Y0135351D01*
X0439608Y0137296D01*
X0440660Y0139836D01*
X0440660Y0142586D01*
X0439769Y0144737D01*
X0440300Y0144005D01*
X0441132Y0141446D01*
X0441238Y0140101D01*
X0441238Y0011479D01*
X0441132Y0010133D01*
X0440300Y0007574D01*
X0439769Y0006843D01*
X0440660Y0008994D01*
X0440660Y0011743D01*
X0439608Y0014284D01*
X0437663Y0016228D01*
X0435123Y0017280D01*
X0432373Y0017280D01*
X0429833Y0016228D01*
X0427888Y0014284D01*
X0426836Y0011743D01*
X0426836Y0008994D01*
X0427888Y0006453D01*
X0429833Y0004509D01*
X0432373Y0003457D01*
X0435123Y0003457D01*
X0437274Y0004348D01*
X0436542Y0003816D01*
X0433983Y0002985D01*
X0432638Y0002879D01*
X0025472Y0002879D01*
X0024127Y0002985D01*
X0025758Y0003577D02*
X0432082Y0003577D01*
X0430154Y0004376D02*
X0027686Y0004376D01*
X0028628Y0005174D02*
X0429167Y0005174D01*
X0428369Y0005973D02*
X0029426Y0005973D01*
X0030020Y0006771D02*
X0427757Y0006771D01*
X0427426Y0007570D02*
X0030351Y0007570D01*
X0030682Y0008369D02*
X0111583Y0008369D01*
X0111915Y0008037D02*
X0112925Y0007619D01*
X0114019Y0007619D01*
X0115030Y0008037D01*
X0115804Y0008811D01*
X0116222Y0009821D01*
X0116222Y0010916D01*
X0115804Y0011926D01*
X0115030Y0012700D01*
X0114019Y0013118D01*
X0113127Y0013118D01*
X0113077Y0013169D01*
X0234177Y0013169D01*
X0242177Y0021169D01*
X0285677Y0021169D01*
X0309272Y0044764D01*
X0309210Y0044614D01*
X0309210Y0042123D01*
X0310164Y0039821D01*
X0311925Y0038060D01*
X0314227Y0037106D01*
X0316718Y0037106D01*
X0319020Y0038060D01*
X0320781Y0039821D01*
X0321735Y0042123D01*
X0321735Y0044614D01*
X0320781Y0046916D01*
X0320529Y0047169D01*
X0321706Y0047169D01*
X0323984Y0048112D01*
X0325729Y0049856D01*
X0326672Y0052135D01*
X0326672Y0054602D01*
X0325729Y0056881D01*
X0323984Y0058625D01*
X0321706Y0059568D01*
X0319239Y0059568D01*
X0316960Y0058625D01*
X0315216Y0056881D01*
X0314272Y0054602D01*
X0314272Y0054573D01*
X0313772Y0054073D01*
X0284268Y0024568D01*
X0278238Y0024568D01*
X0278534Y0024784D01*
X0279057Y0025307D01*
X0279492Y0025905D01*
X0279828Y0026564D01*
X0280057Y0027268D01*
X0280168Y0027969D01*
X0275872Y0027969D01*
X0275872Y0028768D01*
X0280168Y0028768D01*
X0280057Y0029469D01*
X0279828Y0030173D01*
X0279492Y0030832D01*
X0279057Y0031430D01*
X0278534Y0031953D01*
X0277936Y0032388D01*
X0277277Y0032724D01*
X0276573Y0032953D01*
X0275872Y0033064D01*
X0275872Y0028769D01*
X0275072Y0028769D01*
X0275072Y0033064D01*
X0274372Y0032953D01*
X0273668Y0032724D01*
X0273009Y0032388D01*
X0272411Y0031953D01*
X0271887Y0031430D01*
X0271453Y0030832D01*
X0271117Y0030173D01*
X0270888Y0029469D01*
X0270777Y0028768D01*
X0275072Y0028768D01*
X0275072Y0027969D01*
X0270777Y0027969D01*
X0270888Y0027268D01*
X0271117Y0026564D01*
X0271453Y0025905D01*
X0271887Y0025307D01*
X0272411Y0024784D01*
X0272707Y0024568D01*
X0268036Y0024568D01*
X0269287Y0025819D01*
X0269972Y0027473D01*
X0269972Y0029264D01*
X0269287Y0030918D01*
X0268021Y0032183D01*
X0266368Y0032868D01*
X0264577Y0032868D01*
X0262923Y0032183D01*
X0261658Y0030918D01*
X0260972Y0029264D01*
X0260972Y0027473D01*
X0261658Y0025819D01*
X0262908Y0024568D01*
X0240768Y0024568D01*
X0239172Y0022973D01*
X0239172Y0041664D01*
X0249177Y0051669D01*
X0249466Y0051669D01*
X0250216Y0049856D01*
X0250442Y0049631D01*
X0249227Y0049631D01*
X0246925Y0048677D01*
X0245164Y0046916D01*
X0244210Y0044614D01*
X0244210Y0042123D01*
X0245164Y0039821D01*
X0246925Y0038060D01*
X0249227Y0037106D01*
X0251718Y0037106D01*
X0254020Y0038060D01*
X0255781Y0039821D01*
X0256735Y0042123D01*
X0256735Y0044614D01*
X0255781Y0046916D01*
X0255529Y0047169D01*
X0256706Y0047169D01*
X0258984Y0048112D01*
X0260729Y0049856D01*
X0261672Y0052135D01*
X0261672Y0054602D01*
X0260729Y0056881D01*
X0258984Y0058625D01*
X0256706Y0059568D01*
X0254239Y0059568D01*
X0251960Y0058625D01*
X0250216Y0056881D01*
X0249466Y0055068D01*
X0247768Y0055068D01*
X0236768Y0044068D01*
X0235772Y0043073D01*
X0235772Y0023573D01*
X0231268Y0019068D01*
X0083177Y0019068D01*
X0075672Y0026573D01*
X0075672Y0031164D01*
X0105677Y0061169D01*
X0109783Y0061169D01*
X0110415Y0060537D01*
X0111425Y0060119D01*
X0112519Y0060119D01*
X0113530Y0060537D01*
X0114304Y0061311D01*
X0114722Y0062321D01*
X0114722Y0063416D01*
X0114304Y0064426D01*
X0113530Y0065200D01*
X0112519Y0065618D01*
X0111425Y0065618D01*
X0110415Y0065200D01*
X0109783Y0064568D01*
X0104268Y0064568D01*
X0103272Y0063573D01*
X0073172Y0033473D01*
X0073172Y0075119D01*
X0073519Y0075119D01*
X0074530Y0075537D01*
X0075304Y0076311D01*
X0075722Y0077321D01*
X0075722Y0078416D01*
X0075304Y0079426D01*
X0075061Y0079669D01*
X0077177Y0079669D01*
X0078172Y0080664D01*
X0127177Y0129669D01*
X0148778Y0129669D01*
X0149113Y0129334D01*
X0149995Y0128969D01*
X0150950Y0128969D01*
X0151832Y0129334D01*
X0152507Y0130009D01*
X0152872Y0130891D01*
X0152872Y0131846D01*
X0152507Y0132728D01*
X0151832Y0133403D01*
X0150950Y0133768D01*
X0149995Y0133768D01*
X0149113Y0133403D01*
X0148778Y0133068D01*
X0125768Y0133068D01*
X0075768Y0083068D01*
X0070768Y0083068D01*
X0068768Y0081068D01*
X0067772Y0080073D01*
X0067772Y0030458D01*
X0067030Y0031200D01*
X0066019Y0031618D01*
X0065611Y0031618D01*
X0065804Y0031811D01*
X0066222Y0032821D01*
X0066222Y0033916D01*
X0065804Y0034926D01*
X0065030Y0035700D01*
X0064019Y0036118D01*
X0062925Y0036118D01*
X0061915Y0035700D01*
X0061141Y0034926D01*
X0060722Y0033916D01*
X0060722Y0033068D01*
X0046177Y0033068D01*
X0037872Y0041373D01*
X0037872Y0042244D01*
X0037203Y0043861D01*
X0035965Y0045099D01*
X0034348Y0045768D01*
X0032597Y0045768D01*
X0030980Y0045099D01*
X0030172Y0044291D01*
X0030172Y0047073D01*
X0027544Y0049701D01*
X0027872Y0050493D01*
X0027872Y0052244D01*
X0027203Y0053861D01*
X0025965Y0055099D01*
X0024348Y0055768D01*
X0022597Y0055768D01*
X0020980Y0055099D01*
X0019742Y0053861D01*
X0019072Y0052244D01*
X0019072Y0050493D01*
X0019742Y0048876D01*
X0020980Y0047638D01*
X0022597Y0046969D01*
X0024348Y0046969D01*
X0025140Y0047297D01*
X0026772Y0045664D01*
X0026772Y0044291D01*
X0025965Y0045099D01*
X0024348Y0045768D01*
X0022597Y0045768D01*
X0020980Y0045099D01*
X0019742Y0043861D01*
X0019072Y0042244D01*
X0019072Y0040493D01*
X0019742Y0038876D01*
X0020980Y0037638D01*
X0022597Y0036969D01*
X0024348Y0036969D01*
X0025965Y0037638D01*
X0027203Y0038876D01*
X0027307Y0039129D01*
X0027768Y0038669D01*
X0031110Y0035327D01*
X0031062Y0035303D01*
X0030476Y0034877D01*
X0029964Y0034365D01*
X0029538Y0033779D01*
X0029209Y0033134D01*
X0028986Y0032446D01*
X0028878Y0031768D01*
X0033072Y0031768D01*
X0033072Y0030969D01*
X0028878Y0030969D01*
X0028986Y0030291D01*
X0029209Y0029603D01*
X0029538Y0028958D01*
X0029964Y0028372D01*
X0030476Y0027860D01*
X0031062Y0027434D01*
X0031707Y0027106D01*
X0032395Y0026882D01*
X0033072Y0026775D01*
X0033072Y0030968D01*
X0033872Y0030968D01*
X0033872Y0026775D01*
X0034550Y0026882D01*
X0035238Y0027106D01*
X0035883Y0027434D01*
X0036469Y0027860D01*
X0036981Y0028372D01*
X0037407Y0028958D01*
X0037735Y0029603D01*
X0037959Y0030291D01*
X0038066Y0030969D01*
X0033872Y0030969D01*
X0033872Y0031768D01*
X0038066Y0031768D01*
X0037959Y0032446D01*
X0037735Y0033134D01*
X0037407Y0033779D01*
X0036981Y0034365D01*
X0036678Y0034669D01*
X0036768Y0034669D01*
X0046768Y0024669D01*
X0063677Y0024669D01*
X0064672Y0025664D01*
X0065127Y0026119D01*
X0066019Y0026119D01*
X0067030Y0026537D01*
X0067772Y0027279D01*
X0067772Y0023664D01*
X0079772Y0011664D01*
X0080768Y0010669D01*
X0110722Y0010669D01*
X0110722Y0009821D01*
X0111141Y0008811D01*
X0111915Y0008037D01*
X0110994Y0009167D02*
X0030928Y0009167D01*
X0030928Y0009966D02*
X0110722Y0009966D01*
X0115362Y0008369D02*
X0427095Y0008369D01*
X0426836Y0009167D02*
X0115951Y0009167D01*
X0116222Y0009966D02*
X0426836Y0009966D01*
X0426836Y0010764D02*
X0116222Y0010764D01*
X0115954Y0011563D02*
X0426836Y0011563D01*
X0427092Y0012361D02*
X0115369Y0012361D01*
X0113086Y0013160D02*
X0245326Y0013160D01*
X0245425Y0013119D02*
X0246519Y0013119D01*
X0247530Y0013537D01*
X0248162Y0014169D01*
X0356177Y0014169D01*
X0357172Y0015164D01*
X0369672Y0027664D01*
X0369672Y0048164D01*
X0373177Y0051669D01*
X0379466Y0051669D01*
X0380216Y0049856D01*
X0380442Y0049631D01*
X0379227Y0049631D01*
X0376925Y0048677D01*
X0375164Y0046916D01*
X0374210Y0044614D01*
X0374210Y0042123D01*
X0375164Y0039821D01*
X0376925Y0038060D01*
X0379227Y0037106D01*
X0381718Y0037106D01*
X0384020Y0038060D01*
X0385781Y0039821D01*
X0386735Y0042123D01*
X0386735Y0044614D01*
X0385781Y0046916D01*
X0385529Y0047169D01*
X0386706Y0047169D01*
X0388984Y0048112D01*
X0390729Y0049856D01*
X0391672Y0052135D01*
X0391672Y0054602D01*
X0390729Y0056881D01*
X0388984Y0058625D01*
X0386706Y0059568D01*
X0384239Y0059568D01*
X0381960Y0058625D01*
X0380216Y0056881D01*
X0379466Y0055068D01*
X0371768Y0055068D01*
X0367268Y0050568D01*
X0366272Y0049573D01*
X0366272Y0029073D01*
X0354768Y0017568D01*
X0248162Y0017568D01*
X0247530Y0018200D01*
X0246519Y0018618D01*
X0245425Y0018618D01*
X0244415Y0018200D01*
X0243641Y0017426D01*
X0243222Y0016416D01*
X0243222Y0015321D01*
X0243641Y0014311D01*
X0244415Y0013537D01*
X0245425Y0013119D01*
X0246619Y0013160D02*
X0427423Y0013160D01*
X0427754Y0013958D02*
X0247951Y0013958D01*
X0243994Y0013958D02*
X0234966Y0013958D01*
X0235765Y0014757D02*
X0243456Y0014757D01*
X0243222Y0015555D02*
X0236563Y0015555D01*
X0237362Y0016354D02*
X0243222Y0016354D01*
X0243528Y0017152D02*
X0238160Y0017152D01*
X0238959Y0017951D02*
X0244166Y0017951D01*
X0247779Y0017951D02*
X0355150Y0017951D01*
X0355949Y0018749D02*
X0239757Y0018749D01*
X0240556Y0019548D02*
X0356747Y0019548D01*
X0357546Y0020346D02*
X0241354Y0020346D01*
X0242153Y0021145D02*
X0358344Y0021145D01*
X0359143Y0021943D02*
X0286451Y0021943D01*
X0287250Y0022742D02*
X0359941Y0022742D01*
X0360740Y0023540D02*
X0288048Y0023540D01*
X0288847Y0024339D02*
X0328442Y0024339D01*
X0327923Y0024554D02*
X0326658Y0025819D01*
X0325972Y0027473D01*
X0325972Y0029264D01*
X0326658Y0030918D01*
X0327923Y0032183D01*
X0329577Y0032868D01*
X0331368Y0032868D01*
X0333021Y0032183D01*
X0334287Y0030918D01*
X0334972Y0029264D01*
X0334972Y0027473D01*
X0334287Y0025819D01*
X0333021Y0024554D01*
X0331368Y0023869D01*
X0329577Y0023869D01*
X0327923Y0024554D01*
X0327340Y0025137D02*
X0289645Y0025137D01*
X0290444Y0025936D02*
X0326609Y0025936D01*
X0326279Y0026734D02*
X0291242Y0026734D01*
X0292041Y0027533D02*
X0325972Y0027533D01*
X0325972Y0028331D02*
X0292839Y0028331D01*
X0293638Y0029130D02*
X0325972Y0029130D01*
X0326248Y0029928D02*
X0294436Y0029928D01*
X0295235Y0030727D02*
X0326579Y0030727D01*
X0327265Y0031525D02*
X0296033Y0031525D01*
X0296832Y0032324D02*
X0328262Y0032324D01*
X0332682Y0032324D02*
X0337920Y0032324D01*
X0338009Y0032388D02*
X0337411Y0031953D01*
X0336887Y0031430D01*
X0336453Y0030832D01*
X0336117Y0030173D01*
X0335888Y0029469D01*
X0335777Y0028768D01*
X0340072Y0028768D01*
X0340072Y0027969D01*
X0335777Y0027969D01*
X0335888Y0027268D01*
X0336117Y0026564D01*
X0336453Y0025905D01*
X0336887Y0025307D01*
X0337411Y0024784D01*
X0338009Y0024349D01*
X0338668Y0024013D01*
X0339372Y0023784D01*
X0340072Y0023673D01*
X0340072Y0027968D01*
X0340872Y0027968D01*
X0340872Y0023673D01*
X0341573Y0023784D01*
X0342277Y0024013D01*
X0342936Y0024349D01*
X0343534Y0024784D01*
X0344057Y0025307D01*
X0344492Y0025905D01*
X0344828Y0026564D01*
X0345057Y0027268D01*
X0345168Y0027969D01*
X0340872Y0027969D01*
X0340872Y0028768D01*
X0345168Y0028768D01*
X0345057Y0029469D01*
X0344828Y0030173D01*
X0344492Y0030832D01*
X0344057Y0031430D01*
X0343534Y0031953D01*
X0342936Y0032388D01*
X0342277Y0032724D01*
X0341573Y0032953D01*
X0340872Y0033064D01*
X0340872Y0028769D01*
X0340072Y0028769D01*
X0340072Y0033064D01*
X0339372Y0032953D01*
X0338668Y0032724D01*
X0338009Y0032388D01*
X0336982Y0031525D02*
X0333680Y0031525D01*
X0334366Y0030727D02*
X0336399Y0030727D01*
X0336037Y0029928D02*
X0334697Y0029928D01*
X0334972Y0029130D02*
X0335834Y0029130D01*
X0334972Y0028331D02*
X0340072Y0028331D01*
X0340072Y0027533D02*
X0340872Y0027533D01*
X0340872Y0028331D02*
X0365531Y0028331D01*
X0366272Y0029130D02*
X0345110Y0029130D01*
X0344907Y0029928D02*
X0366272Y0029928D01*
X0366272Y0030727D02*
X0344546Y0030727D01*
X0343962Y0031525D02*
X0366272Y0031525D01*
X0366272Y0032324D02*
X0343024Y0032324D01*
X0340872Y0032324D02*
X0340072Y0032324D01*
X0340072Y0031525D02*
X0340872Y0031525D01*
X0340872Y0030727D02*
X0340072Y0030727D01*
X0340072Y0029928D02*
X0340872Y0029928D01*
X0340872Y0029130D02*
X0340072Y0029130D01*
X0335846Y0027533D02*
X0334972Y0027533D01*
X0334666Y0026734D02*
X0336062Y0026734D01*
X0336437Y0025936D02*
X0334336Y0025936D01*
X0333605Y0025137D02*
X0337057Y0025137D01*
X0338029Y0024339D02*
X0332503Y0024339D01*
X0340072Y0024339D02*
X0340872Y0024339D01*
X0340872Y0025137D02*
X0340072Y0025137D01*
X0340072Y0025936D02*
X0340872Y0025936D01*
X0340872Y0026734D02*
X0340072Y0026734D01*
X0342916Y0024339D02*
X0361539Y0024339D01*
X0362337Y0025137D02*
X0343888Y0025137D01*
X0344508Y0025936D02*
X0363136Y0025936D01*
X0363934Y0026734D02*
X0344883Y0026734D01*
X0345099Y0027533D02*
X0364733Y0027533D01*
X0367944Y0025936D02*
X0391609Y0025936D01*
X0391658Y0025819D02*
X0392923Y0024554D01*
X0394577Y0023869D01*
X0396368Y0023869D01*
X0398021Y0024554D01*
X0399287Y0025819D01*
X0399972Y0027473D01*
X0399972Y0029264D01*
X0399287Y0030918D01*
X0398021Y0032183D01*
X0396368Y0032868D01*
X0394577Y0032868D01*
X0392923Y0032183D01*
X0391658Y0030918D01*
X0390972Y0029264D01*
X0390972Y0027473D01*
X0391658Y0025819D01*
X0392340Y0025137D02*
X0367145Y0025137D01*
X0366347Y0024339D02*
X0393442Y0024339D01*
X0391279Y0026734D02*
X0368742Y0026734D01*
X0369541Y0027533D02*
X0390972Y0027533D01*
X0390972Y0028331D02*
X0369672Y0028331D01*
X0369672Y0029130D02*
X0390972Y0029130D01*
X0391248Y0029928D02*
X0369672Y0029928D01*
X0369672Y0030727D02*
X0391579Y0030727D01*
X0392265Y0031525D02*
X0369672Y0031525D01*
X0369672Y0032324D02*
X0393262Y0032324D01*
X0395219Y0035506D02*
X0398628Y0034094D01*
X0402317Y0034094D01*
X0405726Y0035506D01*
X0408335Y0038115D01*
X0409747Y0041524D01*
X0409747Y0045213D01*
X0408335Y0048622D01*
X0405726Y0051231D01*
X0402317Y0052643D01*
X0398628Y0052643D01*
X0395219Y0051231D01*
X0392610Y0048622D01*
X0391198Y0045213D01*
X0391198Y0041524D01*
X0392610Y0038115D01*
X0395219Y0035506D01*
X0395206Y0035518D02*
X0369672Y0035518D01*
X0369672Y0036316D02*
X0394408Y0036316D01*
X0393609Y0037115D02*
X0381739Y0037115D01*
X0383667Y0037913D02*
X0392811Y0037913D01*
X0392362Y0038712D02*
X0384672Y0038712D01*
X0385470Y0039510D02*
X0392032Y0039510D01*
X0391701Y0040309D02*
X0385983Y0040309D01*
X0386314Y0041107D02*
X0391370Y0041107D01*
X0391198Y0041906D02*
X0386645Y0041906D01*
X0386735Y0042704D02*
X0391198Y0042704D01*
X0391198Y0043503D02*
X0386735Y0043503D01*
X0386735Y0044302D02*
X0391198Y0044302D01*
X0391198Y0045100D02*
X0386533Y0045100D01*
X0386203Y0045899D02*
X0391481Y0045899D01*
X0391812Y0046697D02*
X0385872Y0046697D01*
X0387495Y0047496D02*
X0392143Y0047496D01*
X0392474Y0048294D02*
X0389166Y0048294D01*
X0389965Y0049093D02*
X0393080Y0049093D01*
X0393878Y0049891D02*
X0390743Y0049891D01*
X0391074Y0050690D02*
X0394677Y0050690D01*
X0395839Y0051488D02*
X0391404Y0051488D01*
X0391672Y0052287D02*
X0397766Y0052287D01*
X0403178Y0052287D02*
X0441238Y0052287D01*
X0441238Y0053085D02*
X0391672Y0053085D01*
X0391672Y0053884D02*
X0441238Y0053884D01*
X0441238Y0054682D02*
X0391639Y0054682D01*
X0391308Y0055481D02*
X0441238Y0055481D01*
X0441238Y0056279D02*
X0390978Y0056279D01*
X0390531Y0057078D02*
X0409224Y0057078D01*
X0409221Y0057078D02*
X0410053Y0056969D01*
X0410072Y0056969D01*
X0410072Y0062968D01*
X0410872Y0062968D01*
X0410872Y0056969D01*
X0410892Y0056969D01*
X0411724Y0057078D01*
X0412534Y0057295D01*
X0413309Y0057616D01*
X0414036Y0058036D01*
X0414701Y0058546D01*
X0415295Y0059140D01*
X0415805Y0059805D01*
X0416225Y0060532D01*
X0416546Y0061307D01*
X0416763Y0062117D01*
X0416872Y0062949D01*
X0416872Y0062969D01*
X0410872Y0062969D01*
X0410872Y0063768D01*
X0416872Y0063768D01*
X0416872Y0063788D01*
X0416763Y0064620D01*
X0416546Y0065430D01*
X0416225Y0066205D01*
X0415805Y0066932D01*
X0415295Y0067597D01*
X0414701Y0068191D01*
X0414036Y0068701D01*
X0413309Y0069121D01*
X0412534Y0069442D01*
X0411724Y0069659D01*
X0410892Y0069768D01*
X0410872Y0069768D01*
X0410872Y0063769D01*
X0410072Y0063769D01*
X0410072Y0069768D01*
X0410053Y0069768D01*
X0409221Y0069659D01*
X0408411Y0069442D01*
X0407636Y0069121D01*
X0406909Y0068701D01*
X0406244Y0068191D01*
X0405650Y0067597D01*
X0405140Y0066932D01*
X0404720Y0066205D01*
X0404399Y0065430D01*
X0404182Y0064620D01*
X0404072Y0063788D01*
X0404072Y0063768D01*
X0410072Y0063768D01*
X0410072Y0062969D01*
X0404072Y0062969D01*
X0404072Y0062949D01*
X0404182Y0062117D01*
X0404399Y0061307D01*
X0404720Y0060532D01*
X0405140Y0059805D01*
X0405650Y0059140D01*
X0406244Y0058546D01*
X0406909Y0058036D01*
X0407636Y0057616D01*
X0408411Y0057295D01*
X0409221Y0057078D01*
X0410072Y0057078D02*
X0410872Y0057078D01*
X0410872Y0057876D02*
X0410072Y0057876D01*
X0410072Y0058675D02*
X0410872Y0058675D01*
X0410872Y0059473D02*
X0410072Y0059473D01*
X0410072Y0060272D02*
X0410872Y0060272D01*
X0410872Y0061070D02*
X0410072Y0061070D01*
X0410072Y0061869D02*
X0410872Y0061869D01*
X0410872Y0062667D02*
X0410072Y0062667D01*
X0410072Y0063466D02*
X0345872Y0063466D01*
X0345872Y0063768D02*
X0345872Y0062969D01*
X0351872Y0062969D01*
X0351872Y0062949D01*
X0351763Y0062117D01*
X0351546Y0061307D01*
X0351225Y0060532D01*
X0350805Y0059805D01*
X0350295Y0059140D01*
X0349701Y0058546D01*
X0349036Y0058036D01*
X0348309Y0057616D01*
X0347534Y0057295D01*
X0346724Y0057078D01*
X0345892Y0056969D01*
X0345872Y0056969D01*
X0345872Y0062968D01*
X0345072Y0062968D01*
X0345072Y0056969D01*
X0345053Y0056969D01*
X0344221Y0057078D01*
X0343411Y0057295D01*
X0342636Y0057616D01*
X0341909Y0058036D01*
X0341244Y0058546D01*
X0340650Y0059140D01*
X0340140Y0059805D01*
X0339720Y0060532D01*
X0339399Y0061307D01*
X0339182Y0062117D01*
X0339072Y0062949D01*
X0339072Y0062969D01*
X0345072Y0062969D01*
X0345072Y0063768D01*
X0339072Y0063768D01*
X0339072Y0063788D01*
X0339182Y0064620D01*
X0339399Y0065430D01*
X0339720Y0066205D01*
X0340140Y0066932D01*
X0340650Y0067597D01*
X0341244Y0068191D01*
X0341909Y0068701D01*
X0342636Y0069121D01*
X0343411Y0069442D01*
X0344221Y0069659D01*
X0345053Y0069768D01*
X0345072Y0069768D01*
X0345072Y0063769D01*
X0345872Y0063769D01*
X0345872Y0069768D01*
X0345892Y0069768D01*
X0346724Y0069659D01*
X0347534Y0069442D01*
X0348309Y0069121D01*
X0349036Y0068701D01*
X0349701Y0068191D01*
X0350295Y0067597D01*
X0350805Y0066932D01*
X0351225Y0066205D01*
X0351546Y0065430D01*
X0351763Y0064620D01*
X0351872Y0063788D01*
X0351872Y0063768D01*
X0345872Y0063768D01*
X0345872Y0064264D02*
X0345072Y0064264D01*
X0345072Y0063466D02*
X0280872Y0063466D01*
X0280872Y0063768D02*
X0280872Y0062969D01*
X0286872Y0062969D01*
X0286872Y0062949D01*
X0286763Y0062117D01*
X0286546Y0061307D01*
X0286225Y0060532D01*
X0285805Y0059805D01*
X0285295Y0059140D01*
X0284701Y0058546D01*
X0284036Y0058036D01*
X0283309Y0057616D01*
X0282534Y0057295D01*
X0281724Y0057078D01*
X0280892Y0056969D01*
X0280872Y0056969D01*
X0280872Y0062968D01*
X0280072Y0062968D01*
X0280072Y0056969D01*
X0280053Y0056969D01*
X0279221Y0057078D01*
X0278411Y0057295D01*
X0277636Y0057616D01*
X0276909Y0058036D01*
X0276244Y0058546D01*
X0275650Y0059140D01*
X0275140Y0059805D01*
X0274720Y0060532D01*
X0274399Y0061307D01*
X0274182Y0062117D01*
X0274072Y0062949D01*
X0274072Y0062969D01*
X0280072Y0062969D01*
X0280072Y0063768D01*
X0274072Y0063768D01*
X0274072Y0063788D01*
X0274182Y0064620D01*
X0274399Y0065430D01*
X0274720Y0066205D01*
X0275140Y0066932D01*
X0275650Y0067597D01*
X0276244Y0068191D01*
X0276909Y0068701D01*
X0277636Y0069121D01*
X0278411Y0069442D01*
X0279221Y0069659D01*
X0280053Y0069768D01*
X0280072Y0069768D01*
X0280072Y0063769D01*
X0280872Y0063769D01*
X0280872Y0069768D01*
X0280892Y0069768D01*
X0281724Y0069659D01*
X0282534Y0069442D01*
X0283309Y0069121D01*
X0284036Y0068701D01*
X0284701Y0068191D01*
X0285295Y0067597D01*
X0285805Y0066932D01*
X0286225Y0066205D01*
X0286546Y0065430D01*
X0286763Y0064620D01*
X0286872Y0063788D01*
X0286872Y0063768D01*
X0280872Y0063768D01*
X0280872Y0064264D02*
X0280072Y0064264D01*
X0280072Y0063466D02*
X0215872Y0063466D01*
X0215872Y0063768D02*
X0215872Y0062969D01*
X0221872Y0062969D01*
X0221872Y0062949D01*
X0221763Y0062117D01*
X0221546Y0061307D01*
X0221225Y0060532D01*
X0220805Y0059805D01*
X0220295Y0059140D01*
X0219701Y0058546D01*
X0219036Y0058036D01*
X0218309Y0057616D01*
X0217534Y0057295D01*
X0216724Y0057078D01*
X0215892Y0056969D01*
X0215872Y0056969D01*
X0215872Y0062968D01*
X0215072Y0062968D01*
X0215072Y0056969D01*
X0215053Y0056969D01*
X0214221Y0057078D01*
X0213411Y0057295D01*
X0212636Y0057616D01*
X0211909Y0058036D01*
X0211244Y0058546D01*
X0210650Y0059140D01*
X0210140Y0059805D01*
X0209720Y0060532D01*
X0209399Y0061307D01*
X0209182Y0062117D01*
X0209072Y0062949D01*
X0209072Y0062969D01*
X0215072Y0062969D01*
X0215072Y0063768D01*
X0209072Y0063768D01*
X0209072Y0063788D01*
X0209182Y0064620D01*
X0209399Y0065430D01*
X0209720Y0066205D01*
X0210140Y0066932D01*
X0210650Y0067597D01*
X0211244Y0068191D01*
X0211909Y0068701D01*
X0212636Y0069121D01*
X0213411Y0069442D01*
X0214221Y0069659D01*
X0215053Y0069768D01*
X0215072Y0069768D01*
X0215072Y0063769D01*
X0215872Y0063769D01*
X0215872Y0069768D01*
X0215892Y0069768D01*
X0216724Y0069659D01*
X0217534Y0069442D01*
X0218309Y0069121D01*
X0219036Y0068701D01*
X0219701Y0068191D01*
X0220295Y0067597D01*
X0220805Y0066932D01*
X0221225Y0066205D01*
X0221546Y0065430D01*
X0221763Y0064620D01*
X0221872Y0063788D01*
X0221872Y0063768D01*
X0215872Y0063768D01*
X0215872Y0064264D02*
X0215072Y0064264D01*
X0215072Y0063466D02*
X0187974Y0063466D01*
X0188772Y0064264D02*
X0209135Y0064264D01*
X0209301Y0065063D02*
X0189571Y0065063D01*
X0190369Y0065861D02*
X0209578Y0065861D01*
X0209983Y0066660D02*
X0191168Y0066660D01*
X0191966Y0067458D02*
X0210544Y0067458D01*
X0211330Y0068257D02*
X0192765Y0068257D01*
X0193563Y0069055D02*
X0212522Y0069055D01*
X0215072Y0069055D02*
X0215872Y0069055D01*
X0215872Y0068257D02*
X0215072Y0068257D01*
X0215072Y0067458D02*
X0215872Y0067458D01*
X0215872Y0066660D02*
X0215072Y0066660D01*
X0215072Y0065861D02*
X0215872Y0065861D01*
X0215872Y0065063D02*
X0215072Y0065063D01*
X0215072Y0062667D02*
X0215872Y0062667D01*
X0215872Y0061869D02*
X0215072Y0061869D01*
X0215072Y0061070D02*
X0215872Y0061070D01*
X0215872Y0060272D02*
X0215072Y0060272D01*
X0215072Y0059473D02*
X0215872Y0059473D01*
X0215872Y0058675D02*
X0215072Y0058675D01*
X0215072Y0057876D02*
X0215872Y0057876D01*
X0215872Y0057078D02*
X0215072Y0057078D01*
X0214224Y0057078D02*
X0195531Y0057078D01*
X0195729Y0056881D02*
X0193984Y0058625D01*
X0191706Y0059568D01*
X0189239Y0059568D01*
X0186960Y0058625D01*
X0185216Y0056881D01*
X0184466Y0055068D01*
X0179577Y0055068D01*
X0195177Y0070669D01*
X0364177Y0070669D01*
X0365172Y0071664D01*
X0375172Y0081664D01*
X0375172Y0104812D01*
X0376925Y0103060D01*
X0379227Y0102106D01*
X0381718Y0102106D01*
X0384020Y0103060D01*
X0385781Y0104821D01*
X0386735Y0107123D01*
X0386735Y0109614D01*
X0385781Y0111916D01*
X0385529Y0112169D01*
X0386706Y0112169D01*
X0388984Y0113112D01*
X0390729Y0114856D01*
X0391672Y0117135D01*
X0391672Y0119602D01*
X0390729Y0121881D01*
X0388984Y0123625D01*
X0386706Y0124568D01*
X0384239Y0124568D01*
X0381960Y0123625D01*
X0380216Y0121881D01*
X0379466Y0120068D01*
X0374768Y0120068D01*
X0372768Y0118068D01*
X0371772Y0117073D01*
X0371772Y0083073D01*
X0362768Y0074068D01*
X0287577Y0074068D01*
X0303177Y0089669D01*
X0304172Y0090664D01*
X0304172Y0107664D01*
X0313177Y0116669D01*
X0314466Y0116669D01*
X0315216Y0114856D01*
X0315442Y0114631D01*
X0314227Y0114631D01*
X0311925Y0113677D01*
X0310164Y0111916D01*
X0309210Y0109614D01*
X0309210Y0107123D01*
X0310164Y0104821D01*
X0311925Y0103060D01*
X0314227Y0102106D01*
X0316718Y0102106D01*
X0319020Y0103060D01*
X0320781Y0104821D01*
X0321735Y0107123D01*
X0321735Y0109614D01*
X0320781Y0111916D01*
X0320529Y0112169D01*
X0321706Y0112169D01*
X0323984Y0113112D01*
X0325729Y0114856D01*
X0326672Y0117135D01*
X0326672Y0119602D01*
X0325729Y0121881D01*
X0323984Y0123625D01*
X0321706Y0124568D01*
X0319239Y0124568D01*
X0316960Y0123625D01*
X0315216Y0121881D01*
X0314466Y0120068D01*
X0311768Y0120068D01*
X0301768Y0110068D01*
X0300772Y0109073D01*
X0300772Y0092073D01*
X0284768Y0076068D01*
X0208577Y0076068D01*
X0249177Y0116669D01*
X0249466Y0116669D01*
X0250216Y0114856D01*
X0250442Y0114631D01*
X0249227Y0114631D01*
X0246925Y0113677D01*
X0245164Y0111916D01*
X0244210Y0109614D01*
X0244210Y0107123D01*
X0245164Y0104821D01*
X0246925Y0103060D01*
X0249227Y0102106D01*
X0251718Y0102106D01*
X0254020Y0103060D01*
X0255781Y0104821D01*
X0256735Y0107123D01*
X0256735Y0109614D01*
X0255781Y0111916D01*
X0255529Y0112169D01*
X0256706Y0112169D01*
X0258984Y0113112D01*
X0260729Y0114856D01*
X0261672Y0117135D01*
X0261672Y0119602D01*
X0260729Y0121881D01*
X0258984Y0123625D01*
X0256706Y0124568D01*
X0254239Y0124568D01*
X0251960Y0123625D01*
X0250216Y0121881D01*
X0249466Y0120068D01*
X0247768Y0120068D01*
X0205768Y0078068D01*
X0191768Y0078068D01*
X0173768Y0060068D01*
X0155177Y0060068D01*
X0150172Y0065073D01*
X0149177Y0066068D01*
X0142768Y0066068D01*
X0140768Y0064068D01*
X0139772Y0063073D01*
X0139772Y0053458D01*
X0139172Y0054058D01*
X0139172Y0071664D01*
X0183677Y0116169D01*
X0184673Y0116169D01*
X0185216Y0114856D01*
X0185442Y0114631D01*
X0184227Y0114631D01*
X0181925Y0113677D01*
X0180164Y0111916D01*
X0179210Y0109614D01*
X0179210Y0107123D01*
X0180164Y0104821D01*
X0181925Y0103060D01*
X0184227Y0102106D01*
X0186718Y0102106D01*
X0189020Y0103060D01*
X0190781Y0104821D01*
X0191735Y0107123D01*
X0191735Y0109614D01*
X0190781Y0111916D01*
X0190529Y0112169D01*
X0191706Y0112169D01*
X0193984Y0113112D01*
X0195729Y0114856D01*
X0196672Y0117135D01*
X0196672Y0119602D01*
X0195729Y0121881D01*
X0193984Y0123625D01*
X0191706Y0124568D01*
X0189239Y0124568D01*
X0186960Y0123625D01*
X0185216Y0121881D01*
X0184272Y0119602D01*
X0184272Y0119568D01*
X0182268Y0119568D01*
X0136768Y0074068D01*
X0135772Y0073073D01*
X0135772Y0066458D01*
X0135530Y0066700D01*
X0134519Y0067118D01*
X0133425Y0067118D01*
X0132415Y0066700D01*
X0131641Y0065926D01*
X0131222Y0064916D01*
X0131222Y0063821D01*
X0131641Y0062811D01*
X0132272Y0062179D01*
X0132272Y0054573D01*
X0130818Y0053118D01*
X0129925Y0053118D01*
X0128915Y0052700D01*
X0128141Y0051926D01*
X0127722Y0050916D01*
X0127722Y0049821D01*
X0128141Y0048811D01*
X0128915Y0048037D01*
X0129925Y0047619D01*
X0131019Y0047619D01*
X0132030Y0048037D01*
X0132804Y0048811D01*
X0133222Y0049821D01*
X0133222Y0050714D01*
X0134677Y0052169D01*
X0134722Y0052214D01*
X0134722Y0051321D01*
X0135141Y0050311D01*
X0135915Y0049537D01*
X0136850Y0049150D01*
X0118768Y0031068D01*
X0081162Y0031068D01*
X0080530Y0031700D01*
X0079519Y0032118D01*
X0078425Y0032118D01*
X0077415Y0031700D01*
X0076641Y0030926D01*
X0076222Y0029916D01*
X0076222Y0028821D01*
X0076641Y0027811D01*
X0077415Y0027037D01*
X0078425Y0026619D01*
X0079519Y0026619D01*
X0080530Y0027037D01*
X0081162Y0027669D01*
X0120177Y0027669D01*
X0121172Y0028664D01*
X0133772Y0041264D01*
X0133772Y0040058D01*
X0133141Y0039426D01*
X0132722Y0038416D01*
X0132722Y0037321D01*
X0133141Y0036311D01*
X0133915Y0035537D01*
X0134925Y0035119D01*
X0136019Y0035119D01*
X0137030Y0035537D01*
X0137804Y0036311D01*
X0138222Y0037321D01*
X0138222Y0038416D01*
X0137804Y0039426D01*
X0137172Y0040058D01*
X0137172Y0040664D01*
X0145677Y0049169D01*
X0177177Y0049169D01*
X0178172Y0050164D01*
X0179677Y0051669D01*
X0184466Y0051669D01*
X0185216Y0049856D01*
X0185442Y0049631D01*
X0184227Y0049631D01*
X0181925Y0048677D01*
X0180164Y0046916D01*
X0179210Y0044614D01*
X0179210Y0042123D01*
X0180164Y0039821D01*
X0181925Y0038060D01*
X0184227Y0037106D01*
X0186718Y0037106D01*
X0189020Y0038060D01*
X0190781Y0039821D01*
X0191735Y0042123D01*
X0191735Y0044614D01*
X0190781Y0046916D01*
X0190529Y0047169D01*
X0191706Y0047169D01*
X0193984Y0048112D01*
X0195729Y0049856D01*
X0196672Y0052135D01*
X0196672Y0054602D01*
X0195729Y0056881D01*
X0195978Y0056279D02*
X0249967Y0056279D01*
X0249637Y0055481D02*
X0196308Y0055481D01*
X0196639Y0054682D02*
X0247382Y0054682D01*
X0246583Y0053884D02*
X0196672Y0053884D01*
X0196672Y0053085D02*
X0245785Y0053085D01*
X0244986Y0052287D02*
X0208178Y0052287D01*
X0207317Y0052643D02*
X0203628Y0052643D01*
X0200219Y0051231D01*
X0197610Y0048622D01*
X0196198Y0045213D01*
X0196198Y0041524D01*
X0197610Y0038115D01*
X0200219Y0035506D01*
X0203628Y0034094D01*
X0207317Y0034094D01*
X0210726Y0035506D01*
X0213335Y0038115D01*
X0214747Y0041524D01*
X0214747Y0045213D01*
X0213335Y0048622D01*
X0210726Y0051231D01*
X0207317Y0052643D01*
X0210106Y0051488D02*
X0244188Y0051488D01*
X0243389Y0050690D02*
X0211268Y0050690D01*
X0212066Y0049891D02*
X0242591Y0049891D01*
X0241792Y0049093D02*
X0228017Y0049093D01*
X0229020Y0048677D02*
X0226718Y0049631D01*
X0224227Y0049631D01*
X0221925Y0048677D01*
X0220164Y0046916D01*
X0219210Y0044614D01*
X0219210Y0042123D01*
X0220164Y0039821D01*
X0221925Y0038060D01*
X0224227Y0037106D01*
X0226718Y0037106D01*
X0229020Y0038060D01*
X0230781Y0039821D01*
X0231735Y0042123D01*
X0231735Y0044614D01*
X0230781Y0046916D01*
X0229020Y0048677D01*
X0229403Y0048294D02*
X0240994Y0048294D01*
X0240195Y0047496D02*
X0230201Y0047496D01*
X0230872Y0046697D02*
X0239397Y0046697D01*
X0238598Y0045899D02*
X0231203Y0045899D01*
X0231533Y0045100D02*
X0237800Y0045100D01*
X0237001Y0044302D02*
X0231735Y0044302D01*
X0231735Y0043503D02*
X0236203Y0043503D01*
X0235772Y0042704D02*
X0231735Y0042704D01*
X0231645Y0041906D02*
X0235772Y0041906D01*
X0235772Y0041107D02*
X0231314Y0041107D01*
X0230983Y0040309D02*
X0235772Y0040309D01*
X0235772Y0039510D02*
X0230470Y0039510D01*
X0229672Y0038712D02*
X0235772Y0038712D01*
X0235772Y0037913D02*
X0228667Y0037913D01*
X0226739Y0037115D02*
X0235772Y0037115D01*
X0235772Y0036316D02*
X0211537Y0036316D01*
X0210738Y0035518D02*
X0235772Y0035518D01*
X0235772Y0034719D02*
X0208828Y0034719D01*
X0209372Y0032953D02*
X0208668Y0032724D01*
X0208009Y0032388D01*
X0207411Y0031953D01*
X0206887Y0031430D01*
X0206453Y0030832D01*
X0206117Y0030173D01*
X0205888Y0029469D01*
X0205777Y0028768D01*
X0210072Y0028768D01*
X0210072Y0027969D01*
X0205777Y0027969D01*
X0205888Y0027268D01*
X0206117Y0026564D01*
X0206453Y0025905D01*
X0206887Y0025307D01*
X0207411Y0024784D01*
X0208009Y0024349D01*
X0208668Y0024013D01*
X0209372Y0023784D01*
X0210072Y0023673D01*
X0210072Y0027968D01*
X0210872Y0027968D01*
X0210872Y0023673D01*
X0211573Y0023784D01*
X0212277Y0024013D01*
X0212936Y0024349D01*
X0213534Y0024784D01*
X0214057Y0025307D01*
X0214492Y0025905D01*
X0214828Y0026564D01*
X0215057Y0027268D01*
X0215168Y0027969D01*
X0210872Y0027969D01*
X0210872Y0028768D01*
X0215168Y0028768D01*
X0215057Y0029469D01*
X0214828Y0030173D01*
X0214492Y0030832D01*
X0214057Y0031430D01*
X0213534Y0031953D01*
X0212936Y0032388D01*
X0212277Y0032724D01*
X0211573Y0032953D01*
X0210872Y0033064D01*
X0210872Y0028769D01*
X0210072Y0028769D01*
X0210072Y0033064D01*
X0209372Y0032953D01*
X0210072Y0032324D02*
X0210872Y0032324D01*
X0210872Y0031525D02*
X0210072Y0031525D01*
X0210072Y0030727D02*
X0210872Y0030727D01*
X0210872Y0029928D02*
X0210072Y0029928D01*
X0210072Y0029130D02*
X0210872Y0029130D01*
X0210872Y0028331D02*
X0235772Y0028331D01*
X0235772Y0027533D02*
X0215099Y0027533D01*
X0214883Y0026734D02*
X0235772Y0026734D01*
X0235772Y0025936D02*
X0214508Y0025936D01*
X0213888Y0025137D02*
X0235772Y0025137D01*
X0235772Y0024339D02*
X0212916Y0024339D01*
X0210872Y0024339D02*
X0210072Y0024339D01*
X0210072Y0025137D02*
X0210872Y0025137D01*
X0210872Y0025936D02*
X0210072Y0025936D01*
X0210072Y0026734D02*
X0210872Y0026734D01*
X0210872Y0027533D02*
X0210072Y0027533D01*
X0210072Y0028331D02*
X0204972Y0028331D01*
X0204972Y0027533D02*
X0205846Y0027533D01*
X0206062Y0026734D02*
X0204666Y0026734D01*
X0204972Y0027473D02*
X0204287Y0025819D01*
X0203021Y0024554D01*
X0201368Y0023869D01*
X0199577Y0023869D01*
X0197923Y0024554D01*
X0196658Y0025819D01*
X0195972Y0027473D01*
X0195972Y0029264D01*
X0196658Y0030918D01*
X0197923Y0032183D01*
X0199577Y0032868D01*
X0201368Y0032868D01*
X0203021Y0032183D01*
X0204287Y0030918D01*
X0204972Y0029264D01*
X0204972Y0027473D01*
X0204972Y0029130D02*
X0205834Y0029130D01*
X0206037Y0029928D02*
X0204697Y0029928D01*
X0204366Y0030727D02*
X0206399Y0030727D01*
X0206982Y0031525D02*
X0203680Y0031525D01*
X0202682Y0032324D02*
X0207920Y0032324D01*
X0213024Y0032324D02*
X0235772Y0032324D01*
X0235772Y0033122D02*
X0125630Y0033122D01*
X0124832Y0032324D02*
X0198262Y0032324D01*
X0197265Y0031525D02*
X0124033Y0031525D01*
X0123235Y0030727D02*
X0196579Y0030727D01*
X0196248Y0029928D02*
X0122436Y0029928D01*
X0121638Y0029130D02*
X0195972Y0029130D01*
X0195972Y0028331D02*
X0120839Y0028331D01*
X0119225Y0031525D02*
X0080705Y0031525D01*
X0077630Y0033122D02*
X0120822Y0033122D01*
X0120024Y0032324D02*
X0076832Y0032324D01*
X0077240Y0031525D02*
X0076033Y0031525D01*
X0075672Y0030727D02*
X0076559Y0030727D01*
X0076228Y0029928D02*
X0075672Y0029928D01*
X0075672Y0029130D02*
X0076222Y0029130D01*
X0076425Y0028331D02*
X0075672Y0028331D01*
X0075672Y0027533D02*
X0076919Y0027533D01*
X0078146Y0026734D02*
X0075672Y0026734D01*
X0076309Y0025936D02*
X0196609Y0025936D01*
X0196279Y0026734D02*
X0079799Y0026734D01*
X0081026Y0027533D02*
X0195972Y0027533D01*
X0197340Y0025137D02*
X0077108Y0025137D01*
X0077906Y0024339D02*
X0198442Y0024339D01*
X0202503Y0024339D02*
X0208029Y0024339D01*
X0207057Y0025137D02*
X0203605Y0025137D01*
X0204336Y0025936D02*
X0206437Y0025936D01*
X0215110Y0029130D02*
X0235772Y0029130D01*
X0235772Y0029928D02*
X0214907Y0029928D01*
X0214546Y0030727D02*
X0235772Y0030727D01*
X0235772Y0031525D02*
X0213962Y0031525D01*
X0202117Y0034719D02*
X0127227Y0034719D01*
X0126429Y0033921D02*
X0235772Y0033921D01*
X0239172Y0033921D02*
X0293621Y0033921D01*
X0294419Y0034719D02*
X0273828Y0034719D01*
X0272317Y0034094D02*
X0275726Y0035506D01*
X0278335Y0038115D01*
X0279747Y0041524D01*
X0279747Y0045213D01*
X0278335Y0048622D01*
X0275726Y0051231D01*
X0272317Y0052643D01*
X0268628Y0052643D01*
X0265219Y0051231D01*
X0262610Y0048622D01*
X0261198Y0045213D01*
X0261198Y0041524D01*
X0262610Y0038115D01*
X0265219Y0035506D01*
X0268628Y0034094D01*
X0272317Y0034094D01*
X0272920Y0032324D02*
X0267682Y0032324D01*
X0268680Y0031525D02*
X0271982Y0031525D01*
X0271399Y0030727D02*
X0269366Y0030727D01*
X0269697Y0029928D02*
X0271037Y0029928D01*
X0270834Y0029130D02*
X0269972Y0029130D01*
X0269972Y0028331D02*
X0275072Y0028331D01*
X0275072Y0029130D02*
X0275872Y0029130D01*
X0275872Y0029928D02*
X0275072Y0029928D01*
X0275072Y0030727D02*
X0275872Y0030727D01*
X0275872Y0031525D02*
X0275072Y0031525D01*
X0275072Y0032324D02*
X0275872Y0032324D01*
X0278024Y0032324D02*
X0292024Y0032324D01*
X0292822Y0033122D02*
X0239172Y0033122D01*
X0239172Y0032324D02*
X0263262Y0032324D01*
X0262265Y0031525D02*
X0239172Y0031525D01*
X0239172Y0030727D02*
X0261579Y0030727D01*
X0261248Y0029928D02*
X0239172Y0029928D01*
X0239172Y0029130D02*
X0260972Y0029130D01*
X0260972Y0028331D02*
X0239172Y0028331D01*
X0239172Y0027533D02*
X0260972Y0027533D01*
X0261279Y0026734D02*
X0239172Y0026734D01*
X0239172Y0025936D02*
X0261609Y0025936D01*
X0262340Y0025137D02*
X0239172Y0025137D01*
X0239172Y0024339D02*
X0240539Y0024339D01*
X0239740Y0023540D02*
X0239172Y0023540D01*
X0235740Y0023540D02*
X0078705Y0023540D01*
X0079503Y0022742D02*
X0234941Y0022742D01*
X0234143Y0021943D02*
X0080302Y0021943D01*
X0081100Y0021145D02*
X0233344Y0021145D01*
X0232546Y0020346D02*
X0081899Y0020346D01*
X0082697Y0019548D02*
X0231747Y0019548D01*
X0268605Y0025137D02*
X0272057Y0025137D01*
X0271437Y0025936D02*
X0269336Y0025936D01*
X0269666Y0026734D02*
X0271062Y0026734D01*
X0270846Y0027533D02*
X0269972Y0027533D01*
X0275872Y0028331D02*
X0288031Y0028331D01*
X0287233Y0027533D02*
X0280099Y0027533D01*
X0279883Y0026734D02*
X0286434Y0026734D01*
X0285636Y0025936D02*
X0279508Y0025936D01*
X0278888Y0025137D02*
X0284837Y0025137D01*
X0288830Y0029130D02*
X0280110Y0029130D01*
X0279907Y0029928D02*
X0289628Y0029928D01*
X0290427Y0030727D02*
X0279546Y0030727D01*
X0278962Y0031525D02*
X0291225Y0031525D01*
X0297630Y0033122D02*
X0366272Y0033122D01*
X0366272Y0033921D02*
X0298429Y0033921D01*
X0299227Y0034719D02*
X0332117Y0034719D01*
X0333628Y0034094D02*
X0330219Y0035506D01*
X0327610Y0038115D01*
X0326198Y0041524D01*
X0326198Y0045213D01*
X0327610Y0048622D01*
X0330219Y0051231D01*
X0333628Y0052643D01*
X0337317Y0052643D01*
X0340726Y0051231D01*
X0343335Y0048622D01*
X0344747Y0045213D01*
X0344747Y0041524D01*
X0343335Y0038115D01*
X0340726Y0035506D01*
X0337317Y0034094D01*
X0333628Y0034094D01*
X0330206Y0035518D02*
X0300026Y0035518D01*
X0300824Y0036316D02*
X0329408Y0036316D01*
X0328609Y0037115D02*
X0316739Y0037115D01*
X0318667Y0037913D02*
X0327811Y0037913D01*
X0327362Y0038712D02*
X0319672Y0038712D01*
X0320470Y0039510D02*
X0327032Y0039510D01*
X0326701Y0040309D02*
X0320983Y0040309D01*
X0321314Y0041107D02*
X0326370Y0041107D01*
X0326198Y0041906D02*
X0321645Y0041906D01*
X0321735Y0042704D02*
X0326198Y0042704D01*
X0326198Y0043503D02*
X0321735Y0043503D01*
X0321735Y0044302D02*
X0326198Y0044302D01*
X0326198Y0045100D02*
X0321533Y0045100D01*
X0321203Y0045899D02*
X0326481Y0045899D01*
X0326812Y0046697D02*
X0320872Y0046697D01*
X0322495Y0047496D02*
X0327143Y0047496D01*
X0327474Y0048294D02*
X0324166Y0048294D01*
X0324965Y0049093D02*
X0328080Y0049093D01*
X0328878Y0049891D02*
X0325743Y0049891D01*
X0326074Y0050690D02*
X0329677Y0050690D01*
X0330839Y0051488D02*
X0326404Y0051488D01*
X0326672Y0052287D02*
X0332766Y0052287D01*
X0326672Y0053085D02*
X0369785Y0053085D01*
X0368986Y0052287D02*
X0338178Y0052287D01*
X0340106Y0051488D02*
X0368188Y0051488D01*
X0367389Y0050690D02*
X0341268Y0050690D01*
X0342066Y0049891D02*
X0366591Y0049891D01*
X0366272Y0049093D02*
X0358017Y0049093D01*
X0359020Y0048677D02*
X0356718Y0049631D01*
X0354227Y0049631D01*
X0351925Y0048677D01*
X0350164Y0046916D01*
X0349210Y0044614D01*
X0349210Y0042123D01*
X0350164Y0039821D01*
X0351925Y0038060D01*
X0354227Y0037106D01*
X0356718Y0037106D01*
X0359020Y0038060D01*
X0360781Y0039821D01*
X0361735Y0042123D01*
X0361735Y0044614D01*
X0360781Y0046916D01*
X0359020Y0048677D01*
X0359403Y0048294D02*
X0366272Y0048294D01*
X0366272Y0047496D02*
X0360201Y0047496D01*
X0360872Y0046697D02*
X0366272Y0046697D01*
X0366272Y0045899D02*
X0361203Y0045899D01*
X0361533Y0045100D02*
X0366272Y0045100D01*
X0366272Y0044302D02*
X0361735Y0044302D01*
X0361735Y0043503D02*
X0366272Y0043503D01*
X0366272Y0042704D02*
X0361735Y0042704D01*
X0361645Y0041906D02*
X0366272Y0041906D01*
X0366272Y0041107D02*
X0361314Y0041107D01*
X0360983Y0040309D02*
X0366272Y0040309D01*
X0366272Y0039510D02*
X0360470Y0039510D01*
X0359672Y0038712D02*
X0366272Y0038712D01*
X0366272Y0037913D02*
X0358667Y0037913D01*
X0356739Y0037115D02*
X0366272Y0037115D01*
X0366272Y0036316D02*
X0341537Y0036316D01*
X0340738Y0035518D02*
X0366272Y0035518D01*
X0366272Y0034719D02*
X0338828Y0034719D01*
X0342335Y0037115D02*
X0354206Y0037115D01*
X0352278Y0037913D02*
X0343134Y0037913D01*
X0343583Y0038712D02*
X0351273Y0038712D01*
X0350474Y0039510D02*
X0343913Y0039510D01*
X0344244Y0040309D02*
X0349962Y0040309D01*
X0349631Y0041107D02*
X0344575Y0041107D01*
X0344747Y0041906D02*
X0349300Y0041906D01*
X0349210Y0042704D02*
X0344747Y0042704D01*
X0344747Y0043503D02*
X0349210Y0043503D01*
X0349210Y0044302D02*
X0344747Y0044302D01*
X0344747Y0045100D02*
X0349412Y0045100D01*
X0349742Y0045899D02*
X0344463Y0045899D01*
X0344133Y0046697D02*
X0350073Y0046697D01*
X0350743Y0047496D02*
X0343802Y0047496D01*
X0343471Y0048294D02*
X0351542Y0048294D01*
X0352928Y0049093D02*
X0342865Y0049093D01*
X0326672Y0053884D02*
X0370583Y0053884D01*
X0371382Y0054682D02*
X0326639Y0054682D01*
X0326308Y0055481D02*
X0379637Y0055481D01*
X0379967Y0056279D02*
X0325978Y0056279D01*
X0325531Y0057078D02*
X0344224Y0057078D01*
X0345072Y0057078D02*
X0345872Y0057078D01*
X0345872Y0057876D02*
X0345072Y0057876D01*
X0345072Y0058675D02*
X0345872Y0058675D01*
X0345872Y0059473D02*
X0345072Y0059473D01*
X0345072Y0060272D02*
X0345872Y0060272D01*
X0345872Y0061070D02*
X0345072Y0061070D01*
X0345072Y0061869D02*
X0345872Y0061869D01*
X0345872Y0062667D02*
X0345072Y0062667D01*
X0345072Y0065063D02*
X0345872Y0065063D01*
X0345872Y0065861D02*
X0345072Y0065861D01*
X0345072Y0066660D02*
X0345872Y0066660D01*
X0345872Y0067458D02*
X0345072Y0067458D01*
X0345072Y0068257D02*
X0345872Y0068257D01*
X0345872Y0069055D02*
X0345072Y0069055D01*
X0342522Y0069055D02*
X0283422Y0069055D01*
X0284615Y0068257D02*
X0341330Y0068257D01*
X0340544Y0067458D02*
X0285401Y0067458D01*
X0285962Y0066660D02*
X0339983Y0066660D01*
X0339578Y0065861D02*
X0286367Y0065861D01*
X0286644Y0065063D02*
X0339301Y0065063D01*
X0339135Y0064264D02*
X0286810Y0064264D01*
X0286835Y0062667D02*
X0339110Y0062667D01*
X0339249Y0061869D02*
X0286696Y0061869D01*
X0286448Y0061070D02*
X0339497Y0061070D01*
X0339870Y0060272D02*
X0286075Y0060272D01*
X0285551Y0059473D02*
X0319009Y0059473D01*
X0317081Y0058675D02*
X0284830Y0058675D01*
X0283759Y0057876D02*
X0316212Y0057876D01*
X0315414Y0057078D02*
X0281721Y0057078D01*
X0280872Y0057078D02*
X0280072Y0057078D01*
X0280072Y0057876D02*
X0280872Y0057876D01*
X0280872Y0058675D02*
X0280072Y0058675D01*
X0280072Y0059473D02*
X0280872Y0059473D01*
X0280872Y0060272D02*
X0280072Y0060272D01*
X0280072Y0061070D02*
X0280872Y0061070D01*
X0280872Y0061869D02*
X0280072Y0061869D01*
X0280072Y0062667D02*
X0280872Y0062667D01*
X0280872Y0065063D02*
X0280072Y0065063D01*
X0280072Y0065861D02*
X0280872Y0065861D01*
X0280872Y0066660D02*
X0280072Y0066660D01*
X0280072Y0067458D02*
X0280872Y0067458D01*
X0280872Y0068257D02*
X0280072Y0068257D01*
X0280072Y0069055D02*
X0280872Y0069055D01*
X0277522Y0069055D02*
X0218422Y0069055D01*
X0219615Y0068257D02*
X0276330Y0068257D01*
X0275544Y0067458D02*
X0220401Y0067458D01*
X0220962Y0066660D02*
X0274983Y0066660D01*
X0274578Y0065861D02*
X0221367Y0065861D01*
X0221644Y0065063D02*
X0274301Y0065063D01*
X0274135Y0064264D02*
X0221810Y0064264D01*
X0221835Y0062667D02*
X0274110Y0062667D01*
X0274249Y0061869D02*
X0221696Y0061869D01*
X0221448Y0061070D02*
X0274497Y0061070D01*
X0274870Y0060272D02*
X0221075Y0060272D01*
X0220551Y0059473D02*
X0254009Y0059473D01*
X0252081Y0058675D02*
X0219830Y0058675D01*
X0218759Y0057876D02*
X0251212Y0057876D01*
X0250414Y0057078D02*
X0216721Y0057078D01*
X0212185Y0057876D02*
X0194733Y0057876D01*
X0193863Y0058675D02*
X0211115Y0058675D01*
X0210394Y0059473D02*
X0191936Y0059473D01*
X0189009Y0059473D02*
X0183981Y0059473D01*
X0183183Y0058675D02*
X0187081Y0058675D01*
X0186212Y0057876D02*
X0182384Y0057876D01*
X0181586Y0057078D02*
X0185414Y0057078D01*
X0184967Y0056279D02*
X0180787Y0056279D01*
X0179989Y0055481D02*
X0184637Y0055481D01*
X0184540Y0051488D02*
X0179496Y0051488D01*
X0178698Y0050690D02*
X0184871Y0050690D01*
X0185202Y0049891D02*
X0177899Y0049891D01*
X0180743Y0047496D02*
X0144004Y0047496D01*
X0144802Y0048294D02*
X0181542Y0048294D01*
X0182928Y0049093D02*
X0145601Y0049093D01*
X0143205Y0046697D02*
X0180073Y0046697D01*
X0179742Y0045899D02*
X0142407Y0045899D01*
X0141608Y0045100D02*
X0179412Y0045100D01*
X0179210Y0044302D02*
X0140810Y0044302D01*
X0140011Y0043503D02*
X0179210Y0043503D01*
X0179210Y0042704D02*
X0139213Y0042704D01*
X0138414Y0041906D02*
X0179300Y0041906D01*
X0179631Y0041107D02*
X0137616Y0041107D01*
X0137172Y0040309D02*
X0179962Y0040309D01*
X0180474Y0039510D02*
X0137720Y0039510D01*
X0138100Y0038712D02*
X0181273Y0038712D01*
X0182278Y0037913D02*
X0138222Y0037913D01*
X0138137Y0037115D02*
X0184206Y0037115D01*
X0186739Y0037115D02*
X0198609Y0037115D01*
X0197811Y0037913D02*
X0188667Y0037913D01*
X0189672Y0038712D02*
X0197362Y0038712D01*
X0197032Y0039510D02*
X0190470Y0039510D01*
X0190983Y0040309D02*
X0196701Y0040309D01*
X0196370Y0041107D02*
X0191314Y0041107D01*
X0191645Y0041906D02*
X0196198Y0041906D01*
X0196198Y0042704D02*
X0191735Y0042704D01*
X0191735Y0043503D02*
X0196198Y0043503D01*
X0196198Y0044302D02*
X0191735Y0044302D01*
X0191533Y0045100D02*
X0196198Y0045100D01*
X0196481Y0045899D02*
X0191203Y0045899D01*
X0190872Y0046697D02*
X0196812Y0046697D01*
X0197143Y0047496D02*
X0192495Y0047496D01*
X0194166Y0048294D02*
X0197474Y0048294D01*
X0198080Y0049093D02*
X0194965Y0049093D01*
X0195743Y0049891D02*
X0198878Y0049891D01*
X0199677Y0050690D02*
X0196074Y0050690D01*
X0196404Y0051488D02*
X0200839Y0051488D01*
X0202766Y0052287D02*
X0196672Y0052287D01*
X0212865Y0049093D02*
X0222928Y0049093D01*
X0221542Y0048294D02*
X0213471Y0048294D01*
X0213802Y0047496D02*
X0220743Y0047496D01*
X0220073Y0046697D02*
X0214133Y0046697D01*
X0214463Y0045899D02*
X0219742Y0045899D01*
X0219412Y0045100D02*
X0214747Y0045100D01*
X0214747Y0044302D02*
X0219210Y0044302D01*
X0219210Y0043503D02*
X0214747Y0043503D01*
X0214747Y0042704D02*
X0219210Y0042704D01*
X0219300Y0041906D02*
X0214747Y0041906D01*
X0214575Y0041107D02*
X0219631Y0041107D01*
X0219962Y0040309D02*
X0214244Y0040309D01*
X0213913Y0039510D02*
X0220474Y0039510D01*
X0221273Y0038712D02*
X0213583Y0038712D01*
X0213134Y0037913D02*
X0222278Y0037913D01*
X0224206Y0037115D02*
X0212335Y0037115D01*
X0200206Y0035518D02*
X0136984Y0035518D01*
X0137806Y0036316D02*
X0199408Y0036316D01*
X0239172Y0036316D02*
X0264408Y0036316D01*
X0265206Y0035518D02*
X0239172Y0035518D01*
X0239172Y0034719D02*
X0267117Y0034719D01*
X0263609Y0037115D02*
X0251739Y0037115D01*
X0253667Y0037913D02*
X0262811Y0037913D01*
X0262362Y0038712D02*
X0254672Y0038712D01*
X0255470Y0039510D02*
X0262032Y0039510D01*
X0261701Y0040309D02*
X0255983Y0040309D01*
X0256314Y0041107D02*
X0261370Y0041107D01*
X0261198Y0041906D02*
X0256645Y0041906D01*
X0256735Y0042704D02*
X0261198Y0042704D01*
X0261198Y0043503D02*
X0256735Y0043503D01*
X0256735Y0044302D02*
X0261198Y0044302D01*
X0261198Y0045100D02*
X0256533Y0045100D01*
X0256203Y0045899D02*
X0261481Y0045899D01*
X0261812Y0046697D02*
X0255872Y0046697D01*
X0257495Y0047496D02*
X0262143Y0047496D01*
X0262474Y0048294D02*
X0259166Y0048294D01*
X0259965Y0049093D02*
X0263080Y0049093D01*
X0263878Y0049891D02*
X0260743Y0049891D01*
X0261074Y0050690D02*
X0264677Y0050690D01*
X0265839Y0051488D02*
X0261404Y0051488D01*
X0261672Y0052287D02*
X0267766Y0052287D01*
X0273178Y0052287D02*
X0311986Y0052287D01*
X0311188Y0051488D02*
X0275106Y0051488D01*
X0276268Y0050690D02*
X0310389Y0050690D01*
X0309591Y0049891D02*
X0277066Y0049891D01*
X0277865Y0049093D02*
X0287928Y0049093D01*
X0286925Y0048677D02*
X0285164Y0046916D01*
X0284210Y0044614D01*
X0284210Y0042123D01*
X0285164Y0039821D01*
X0286925Y0038060D01*
X0289227Y0037106D01*
X0291718Y0037106D01*
X0294020Y0038060D01*
X0295781Y0039821D01*
X0296735Y0042123D01*
X0296735Y0044614D01*
X0295781Y0046916D01*
X0294020Y0048677D01*
X0291718Y0049631D01*
X0289227Y0049631D01*
X0286925Y0048677D01*
X0286542Y0048294D02*
X0278471Y0048294D01*
X0278802Y0047496D02*
X0285743Y0047496D01*
X0285073Y0046697D02*
X0279133Y0046697D01*
X0279463Y0045899D02*
X0284742Y0045899D01*
X0284412Y0045100D02*
X0279747Y0045100D01*
X0279747Y0044302D02*
X0284210Y0044302D01*
X0284210Y0043503D02*
X0279747Y0043503D01*
X0279747Y0042704D02*
X0284210Y0042704D01*
X0284300Y0041906D02*
X0279747Y0041906D01*
X0279575Y0041107D02*
X0284631Y0041107D01*
X0284962Y0040309D02*
X0279244Y0040309D01*
X0278913Y0039510D02*
X0285474Y0039510D01*
X0286273Y0038712D02*
X0278583Y0038712D01*
X0278134Y0037913D02*
X0287278Y0037913D01*
X0289206Y0037115D02*
X0277335Y0037115D01*
X0276537Y0036316D02*
X0296016Y0036316D01*
X0295218Y0035518D02*
X0275738Y0035518D01*
X0291739Y0037115D02*
X0296815Y0037115D01*
X0297613Y0037913D02*
X0293667Y0037913D01*
X0294672Y0038712D02*
X0298412Y0038712D01*
X0299210Y0039510D02*
X0295470Y0039510D01*
X0295983Y0040309D02*
X0300009Y0040309D01*
X0300807Y0041107D02*
X0296314Y0041107D01*
X0296645Y0041906D02*
X0301606Y0041906D01*
X0302404Y0042704D02*
X0296735Y0042704D01*
X0296735Y0043503D02*
X0303203Y0043503D01*
X0304001Y0044302D02*
X0296735Y0044302D01*
X0296533Y0045100D02*
X0304800Y0045100D01*
X0305598Y0045899D02*
X0296203Y0045899D01*
X0295872Y0046697D02*
X0306397Y0046697D01*
X0307195Y0047496D02*
X0295201Y0047496D01*
X0294403Y0048294D02*
X0307994Y0048294D01*
X0308792Y0049093D02*
X0293017Y0049093D01*
X0308810Y0044302D02*
X0309210Y0044302D01*
X0309210Y0043503D02*
X0308011Y0043503D01*
X0307213Y0042704D02*
X0309210Y0042704D01*
X0309300Y0041906D02*
X0306414Y0041906D01*
X0305616Y0041107D02*
X0309631Y0041107D01*
X0309962Y0040309D02*
X0304817Y0040309D01*
X0304019Y0039510D02*
X0310474Y0039510D01*
X0311273Y0038712D02*
X0303220Y0038712D01*
X0302422Y0037913D02*
X0312278Y0037913D01*
X0314206Y0037115D02*
X0301623Y0037115D01*
X0312785Y0053085D02*
X0261672Y0053085D01*
X0261672Y0053884D02*
X0313583Y0053884D01*
X0313772Y0054073D02*
X0313772Y0054073D01*
X0314306Y0054682D02*
X0261639Y0054682D01*
X0261308Y0055481D02*
X0314637Y0055481D01*
X0314967Y0056279D02*
X0260978Y0056279D01*
X0260531Y0057078D02*
X0279224Y0057078D01*
X0277185Y0057876D02*
X0259733Y0057876D01*
X0258863Y0058675D02*
X0276115Y0058675D01*
X0275394Y0059473D02*
X0256936Y0059473D01*
X0249540Y0051488D02*
X0248996Y0051488D01*
X0248198Y0050690D02*
X0249871Y0050690D01*
X0250202Y0049891D02*
X0247399Y0049891D01*
X0247928Y0049093D02*
X0246601Y0049093D01*
X0246542Y0048294D02*
X0245802Y0048294D01*
X0245743Y0047496D02*
X0245004Y0047496D01*
X0245073Y0046697D02*
X0244205Y0046697D01*
X0244742Y0045899D02*
X0243407Y0045899D01*
X0242608Y0045100D02*
X0244412Y0045100D01*
X0244210Y0044302D02*
X0241810Y0044302D01*
X0241011Y0043503D02*
X0244210Y0043503D01*
X0244210Y0042704D02*
X0240213Y0042704D01*
X0239414Y0041906D02*
X0244300Y0041906D01*
X0244631Y0041107D02*
X0239172Y0041107D01*
X0239172Y0040309D02*
X0244962Y0040309D01*
X0245474Y0039510D02*
X0239172Y0039510D01*
X0239172Y0038712D02*
X0246273Y0038712D01*
X0247278Y0037913D02*
X0239172Y0037913D01*
X0239172Y0037115D02*
X0249206Y0037115D01*
X0209870Y0060272D02*
X0184780Y0060272D01*
X0185578Y0061070D02*
X0209497Y0061070D01*
X0209249Y0061869D02*
X0186377Y0061869D01*
X0187175Y0062667D02*
X0209110Y0062667D01*
X0195160Y0070652D02*
X0441238Y0070652D01*
X0441238Y0069854D02*
X0194362Y0069854D01*
X0187546Y0073846D02*
X0141355Y0073846D01*
X0142153Y0074645D02*
X0188345Y0074645D01*
X0189143Y0075443D02*
X0142952Y0075443D01*
X0143750Y0076242D02*
X0189942Y0076242D01*
X0190740Y0077040D02*
X0144549Y0077040D01*
X0145347Y0077839D02*
X0191539Y0077839D01*
X0186748Y0073048D02*
X0140556Y0073048D01*
X0139758Y0072249D02*
X0185949Y0072249D01*
X0185151Y0071451D02*
X0139172Y0071451D01*
X0139172Y0070652D02*
X0184352Y0070652D01*
X0183554Y0069854D02*
X0139172Y0069854D01*
X0139172Y0069055D02*
X0182755Y0069055D01*
X0181957Y0068257D02*
X0139172Y0068257D01*
X0139172Y0067458D02*
X0181158Y0067458D01*
X0180360Y0066660D02*
X0139172Y0066660D01*
X0139172Y0065861D02*
X0142561Y0065861D01*
X0141763Y0065063D02*
X0139172Y0065063D01*
X0139172Y0064264D02*
X0140964Y0064264D01*
X0140166Y0063466D02*
X0139172Y0063466D01*
X0139172Y0062667D02*
X0139772Y0062667D01*
X0139772Y0061869D02*
X0139172Y0061869D01*
X0139172Y0061070D02*
X0139772Y0061070D01*
X0139772Y0060272D02*
X0139172Y0060272D01*
X0139172Y0059473D02*
X0139772Y0059473D01*
X0139772Y0058675D02*
X0139172Y0058675D01*
X0139172Y0057876D02*
X0139772Y0057876D01*
X0139772Y0057078D02*
X0139172Y0057078D01*
X0139172Y0056279D02*
X0139772Y0056279D01*
X0139772Y0055481D02*
X0139172Y0055481D01*
X0139172Y0054682D02*
X0139772Y0054682D01*
X0139772Y0053884D02*
X0139346Y0053884D01*
X0134722Y0051488D02*
X0133996Y0051488D01*
X0133222Y0050690D02*
X0134984Y0050690D01*
X0135561Y0049891D02*
X0133222Y0049891D01*
X0132920Y0049093D02*
X0136792Y0049093D01*
X0135994Y0048294D02*
X0132287Y0048294D01*
X0134397Y0046697D02*
X0111172Y0046697D01*
X0111172Y0045899D02*
X0133598Y0045899D01*
X0132800Y0045100D02*
X0111172Y0045100D01*
X0111172Y0044302D02*
X0132001Y0044302D01*
X0131203Y0043503D02*
X0111172Y0043503D01*
X0111172Y0042704D02*
X0130404Y0042704D01*
X0129606Y0041906D02*
X0111172Y0041906D01*
X0111172Y0041107D02*
X0128807Y0041107D01*
X0128009Y0040309D02*
X0111172Y0040309D01*
X0111172Y0040055D02*
X0111172Y0051179D01*
X0111804Y0051811D01*
X0112222Y0052821D01*
X0112222Y0053916D01*
X0111804Y0054926D01*
X0111030Y0055700D01*
X0110019Y0056118D01*
X0108925Y0056118D01*
X0107915Y0055700D01*
X0107141Y0054926D01*
X0106722Y0053916D01*
X0106722Y0052821D01*
X0107141Y0051811D01*
X0107772Y0051179D01*
X0107772Y0038036D01*
X0107722Y0037916D01*
X0107722Y0036821D01*
X0108141Y0035811D01*
X0108915Y0035037D01*
X0109925Y0034619D01*
X0111019Y0034619D01*
X0112030Y0035037D01*
X0112804Y0035811D01*
X0113222Y0036821D01*
X0113222Y0037916D01*
X0112804Y0038926D01*
X0112030Y0039700D01*
X0111172Y0040055D01*
X0112220Y0039510D02*
X0127210Y0039510D01*
X0126412Y0038712D02*
X0112893Y0038712D01*
X0113222Y0037913D02*
X0125613Y0037913D01*
X0124815Y0037115D02*
X0113222Y0037115D01*
X0113013Y0036316D02*
X0124016Y0036316D01*
X0123218Y0035518D02*
X0112511Y0035518D01*
X0111263Y0034719D02*
X0122419Y0034719D01*
X0121621Y0033921D02*
X0078429Y0033921D01*
X0079227Y0034719D02*
X0109682Y0034719D01*
X0108434Y0035518D02*
X0080026Y0035518D01*
X0080824Y0036316D02*
X0107932Y0036316D01*
X0107722Y0037115D02*
X0081623Y0037115D01*
X0082422Y0037913D02*
X0107722Y0037913D01*
X0107772Y0038712D02*
X0083220Y0038712D01*
X0084019Y0039510D02*
X0107772Y0039510D01*
X0107772Y0040309D02*
X0084817Y0040309D01*
X0085616Y0041107D02*
X0107772Y0041107D01*
X0107772Y0041906D02*
X0086414Y0041906D01*
X0087213Y0042704D02*
X0107772Y0042704D01*
X0107772Y0043503D02*
X0088011Y0043503D01*
X0088810Y0044302D02*
X0107772Y0044302D01*
X0107772Y0045100D02*
X0089608Y0045100D01*
X0090407Y0045899D02*
X0107772Y0045899D01*
X0107772Y0046697D02*
X0091205Y0046697D01*
X0092004Y0047496D02*
X0107772Y0047496D01*
X0107772Y0048294D02*
X0092802Y0048294D01*
X0093601Y0049093D02*
X0107772Y0049093D01*
X0107772Y0049891D02*
X0094399Y0049891D01*
X0095198Y0050690D02*
X0107772Y0050690D01*
X0107464Y0051488D02*
X0095996Y0051488D01*
X0096795Y0052287D02*
X0106944Y0052287D01*
X0106722Y0053085D02*
X0097593Y0053085D01*
X0098392Y0053884D02*
X0106722Y0053884D01*
X0107040Y0054682D02*
X0099190Y0054682D01*
X0099989Y0055481D02*
X0107696Y0055481D01*
X0111249Y0055481D02*
X0132272Y0055481D01*
X0132272Y0056279D02*
X0100787Y0056279D01*
X0101586Y0057078D02*
X0132272Y0057078D01*
X0132272Y0057876D02*
X0102384Y0057876D01*
X0103183Y0058675D02*
X0132272Y0058675D01*
X0132272Y0059473D02*
X0103981Y0059473D01*
X0104780Y0060272D02*
X0111055Y0060272D01*
X0109882Y0061070D02*
X0105578Y0061070D01*
X0103166Y0063466D02*
X0073172Y0063466D01*
X0073172Y0064264D02*
X0103964Y0064264D01*
X0102367Y0062667D02*
X0073172Y0062667D01*
X0073172Y0061869D02*
X0101569Y0061869D01*
X0100770Y0061070D02*
X0073172Y0061070D01*
X0073172Y0060272D02*
X0099972Y0060272D01*
X0099173Y0059473D02*
X0073172Y0059473D01*
X0073172Y0058675D02*
X0098375Y0058675D01*
X0097576Y0057876D02*
X0073172Y0057876D01*
X0073172Y0057078D02*
X0096777Y0057078D01*
X0095979Y0056279D02*
X0073172Y0056279D01*
X0073172Y0055481D02*
X0095180Y0055481D01*
X0094382Y0054682D02*
X0073172Y0054682D01*
X0073172Y0053884D02*
X0093583Y0053884D01*
X0092785Y0053085D02*
X0073172Y0053085D01*
X0073172Y0052287D02*
X0091986Y0052287D01*
X0091188Y0051488D02*
X0073172Y0051488D01*
X0073172Y0050690D02*
X0090389Y0050690D01*
X0089591Y0049891D02*
X0073172Y0049891D01*
X0073172Y0049093D02*
X0088792Y0049093D01*
X0087994Y0048294D02*
X0073172Y0048294D01*
X0073172Y0047496D02*
X0087195Y0047496D01*
X0086397Y0046697D02*
X0073172Y0046697D01*
X0073172Y0045899D02*
X0085598Y0045899D01*
X0084800Y0045100D02*
X0073172Y0045100D01*
X0073172Y0044302D02*
X0084001Y0044302D01*
X0083203Y0043503D02*
X0073172Y0043503D01*
X0073172Y0042704D02*
X0082404Y0042704D01*
X0081606Y0041906D02*
X0073172Y0041906D01*
X0073172Y0041107D02*
X0080807Y0041107D01*
X0080009Y0040309D02*
X0073172Y0040309D01*
X0073172Y0039510D02*
X0079210Y0039510D01*
X0078412Y0038712D02*
X0073172Y0038712D01*
X0073172Y0037913D02*
X0077613Y0037913D01*
X0076815Y0037115D02*
X0073172Y0037115D01*
X0073172Y0036316D02*
X0076016Y0036316D01*
X0075218Y0035518D02*
X0073172Y0035518D01*
X0073172Y0034719D02*
X0074419Y0034719D01*
X0073621Y0033921D02*
X0073172Y0033921D01*
X0067772Y0033921D02*
X0066220Y0033921D01*
X0066222Y0033122D02*
X0067772Y0033122D01*
X0067772Y0032324D02*
X0066016Y0032324D01*
X0066244Y0031525D02*
X0067772Y0031525D01*
X0067772Y0030727D02*
X0067503Y0030727D01*
X0067772Y0034719D02*
X0065889Y0034719D01*
X0065212Y0035518D02*
X0067772Y0035518D01*
X0067772Y0036316D02*
X0042929Y0036316D01*
X0043727Y0035518D02*
X0061733Y0035518D01*
X0061055Y0034719D02*
X0044526Y0034719D01*
X0045324Y0033921D02*
X0060725Y0033921D01*
X0060722Y0033122D02*
X0046123Y0033122D01*
X0040710Y0030727D02*
X0038028Y0030727D01*
X0037841Y0029928D02*
X0041508Y0029928D01*
X0042307Y0029130D02*
X0037494Y0029130D01*
X0036941Y0028331D02*
X0043105Y0028331D01*
X0043904Y0027533D02*
X0036019Y0027533D01*
X0033872Y0027533D02*
X0033072Y0027533D01*
X0033072Y0028331D02*
X0033872Y0028331D01*
X0033872Y0029130D02*
X0033072Y0029130D01*
X0033072Y0029928D02*
X0033872Y0029928D01*
X0033872Y0030727D02*
X0033072Y0030727D01*
X0033072Y0031525D02*
X0027872Y0031525D01*
X0027872Y0032244D02*
X0027872Y0030493D01*
X0027203Y0028876D01*
X0025965Y0027638D01*
X0024348Y0026969D01*
X0022597Y0026969D01*
X0020980Y0027638D01*
X0019742Y0028876D01*
X0019072Y0030493D01*
X0019072Y0032244D01*
X0019742Y0033861D01*
X0020980Y0035099D01*
X0022597Y0035768D01*
X0024348Y0035768D01*
X0025965Y0035099D01*
X0027203Y0033861D01*
X0027872Y0032244D01*
X0027839Y0032324D02*
X0028966Y0032324D01*
X0029206Y0033122D02*
X0027508Y0033122D01*
X0027143Y0033921D02*
X0029641Y0033921D01*
X0030318Y0034719D02*
X0026344Y0034719D01*
X0024953Y0035518D02*
X0030919Y0035518D01*
X0030120Y0036316D02*
X0016872Y0036316D01*
X0016872Y0035518D02*
X0021992Y0035518D01*
X0020601Y0034719D02*
X0016872Y0034719D01*
X0016872Y0033921D02*
X0019802Y0033921D01*
X0019436Y0033122D02*
X0016872Y0033122D01*
X0016872Y0032324D02*
X0019106Y0032324D01*
X0019072Y0031525D02*
X0016872Y0031525D01*
X0016872Y0030727D02*
X0019072Y0030727D01*
X0019306Y0029928D02*
X0016872Y0029928D01*
X0016872Y0029130D02*
X0019637Y0029130D01*
X0020287Y0028331D02*
X0016872Y0028331D01*
X0016872Y0027533D02*
X0021235Y0027533D01*
X0016872Y0026734D02*
X0044703Y0026734D01*
X0045501Y0025936D02*
X0016872Y0025936D01*
X0016872Y0025137D02*
X0046300Y0025137D01*
X0039911Y0031525D02*
X0033872Y0031525D01*
X0037978Y0032324D02*
X0039113Y0032324D01*
X0038314Y0033122D02*
X0037739Y0033122D01*
X0037516Y0033921D02*
X0037304Y0033921D01*
X0041332Y0037913D02*
X0045023Y0037913D01*
X0045268Y0037669D02*
X0059783Y0037669D01*
X0060415Y0037037D01*
X0061425Y0036619D01*
X0062519Y0036619D01*
X0063530Y0037037D01*
X0064304Y0037811D01*
X0064722Y0038821D01*
X0064722Y0039916D01*
X0064304Y0040926D01*
X0063530Y0041700D01*
X0062519Y0042118D01*
X0061425Y0042118D01*
X0060415Y0041700D01*
X0059783Y0041068D01*
X0046722Y0041068D01*
X0046722Y0041916D01*
X0046304Y0042926D01*
X0045530Y0043700D01*
X0044519Y0044118D01*
X0043425Y0044118D01*
X0042415Y0043700D01*
X0041641Y0042926D01*
X0041222Y0041916D01*
X0041222Y0040821D01*
X0041641Y0039811D01*
X0042415Y0039037D01*
X0043425Y0038619D01*
X0044318Y0038619D01*
X0045268Y0037669D01*
X0043200Y0038712D02*
X0040533Y0038712D01*
X0039735Y0039510D02*
X0041941Y0039510D01*
X0041435Y0040309D02*
X0038936Y0040309D01*
X0038138Y0041107D02*
X0041222Y0041107D01*
X0041222Y0041906D02*
X0037872Y0041906D01*
X0037682Y0042704D02*
X0041549Y0042704D01*
X0042218Y0043503D02*
X0037351Y0043503D01*
X0036762Y0044302D02*
X0067772Y0044302D01*
X0067772Y0045100D02*
X0035961Y0045100D01*
X0034348Y0046969D02*
X0035965Y0047638D01*
X0037203Y0048876D01*
X0037872Y0050493D01*
X0037872Y0052244D01*
X0037203Y0053861D01*
X0035965Y0055099D01*
X0035872Y0055137D01*
X0035872Y0061474D01*
X0062367Y0087969D01*
X0070580Y0087969D01*
X0071425Y0087619D01*
X0072519Y0087619D01*
X0073530Y0088037D01*
X0074304Y0088811D01*
X0074722Y0089821D01*
X0074722Y0090916D01*
X0074304Y0091926D01*
X0073530Y0092700D01*
X0072519Y0093118D01*
X0071425Y0093118D01*
X0070580Y0092768D01*
X0060895Y0092768D01*
X0060013Y0092403D01*
X0059338Y0091728D01*
X0032113Y0064503D01*
X0031438Y0063828D01*
X0031072Y0062946D01*
X0031072Y0055137D01*
X0030980Y0055099D01*
X0029742Y0053861D01*
X0029072Y0052244D01*
X0029072Y0050493D01*
X0029742Y0048876D01*
X0030980Y0047638D01*
X0032597Y0046969D01*
X0034348Y0046969D01*
X0035620Y0047496D02*
X0067772Y0047496D01*
X0067772Y0048294D02*
X0036621Y0048294D01*
X0037292Y0049093D02*
X0067772Y0049093D01*
X0067772Y0049891D02*
X0037623Y0049891D01*
X0037872Y0050690D02*
X0067772Y0050690D01*
X0067772Y0051488D02*
X0037872Y0051488D01*
X0037855Y0052287D02*
X0067772Y0052287D01*
X0067772Y0053085D02*
X0037524Y0053085D01*
X0037180Y0053884D02*
X0067772Y0053884D01*
X0067772Y0054682D02*
X0036381Y0054682D01*
X0035872Y0055481D02*
X0067772Y0055481D01*
X0067772Y0056279D02*
X0035872Y0056279D01*
X0035872Y0057078D02*
X0067772Y0057078D01*
X0067772Y0057876D02*
X0035872Y0057876D01*
X0035872Y0058675D02*
X0067772Y0058675D01*
X0067772Y0059473D02*
X0035872Y0059473D01*
X0035872Y0060272D02*
X0067772Y0060272D01*
X0067772Y0061070D02*
X0035872Y0061070D01*
X0036267Y0061869D02*
X0067772Y0061869D01*
X0067772Y0062667D02*
X0037065Y0062667D01*
X0037864Y0063466D02*
X0067772Y0063466D01*
X0067772Y0064264D02*
X0038662Y0064264D01*
X0039461Y0065063D02*
X0067772Y0065063D01*
X0067772Y0065861D02*
X0040259Y0065861D01*
X0041058Y0066660D02*
X0067772Y0066660D01*
X0067772Y0067458D02*
X0041856Y0067458D01*
X0042655Y0068257D02*
X0067772Y0068257D01*
X0067772Y0069055D02*
X0043453Y0069055D01*
X0044252Y0069854D02*
X0067772Y0069854D01*
X0067772Y0070652D02*
X0045050Y0070652D01*
X0045849Y0071451D02*
X0067772Y0071451D01*
X0067772Y0072249D02*
X0046647Y0072249D01*
X0047446Y0073048D02*
X0067772Y0073048D01*
X0067772Y0073846D02*
X0048244Y0073846D01*
X0049043Y0074645D02*
X0067772Y0074645D01*
X0067772Y0075443D02*
X0049841Y0075443D01*
X0050640Y0076242D02*
X0067772Y0076242D01*
X0067772Y0077040D02*
X0051439Y0077040D01*
X0052237Y0077839D02*
X0067772Y0077839D01*
X0067772Y0078638D02*
X0053036Y0078638D01*
X0053834Y0079436D02*
X0067772Y0079436D01*
X0067934Y0080235D02*
X0054633Y0080235D01*
X0055431Y0081033D02*
X0068733Y0081033D01*
X0069531Y0081832D02*
X0056230Y0081832D01*
X0057028Y0082630D02*
X0070330Y0082630D01*
X0076128Y0083429D02*
X0057827Y0083429D01*
X0058625Y0084227D02*
X0076927Y0084227D01*
X0077725Y0085026D02*
X0059424Y0085026D01*
X0060222Y0085824D02*
X0078524Y0085824D01*
X0079322Y0086623D02*
X0061021Y0086623D01*
X0061819Y0087421D02*
X0080121Y0087421D01*
X0080919Y0088220D02*
X0073713Y0088220D01*
X0074390Y0089018D02*
X0081718Y0089018D01*
X0082516Y0089817D02*
X0074720Y0089817D01*
X0074722Y0090615D02*
X0083315Y0090615D01*
X0084113Y0091414D02*
X0074516Y0091414D01*
X0074018Y0092212D02*
X0084912Y0092212D01*
X0085710Y0093011D02*
X0072780Y0093011D01*
X0071165Y0093011D02*
X0016872Y0093011D01*
X0016872Y0093809D02*
X0086509Y0093809D01*
X0087308Y0094608D02*
X0016872Y0094608D01*
X0016872Y0095406D02*
X0088106Y0095406D01*
X0088905Y0096205D02*
X0016872Y0096205D01*
X0016872Y0097003D02*
X0089703Y0097003D01*
X0090502Y0097802D02*
X0016872Y0097802D01*
X0016872Y0098600D02*
X0091300Y0098600D01*
X0092099Y0099399D02*
X0016872Y0099399D01*
X0016872Y0100197D02*
X0092897Y0100197D01*
X0093696Y0100996D02*
X0016872Y0100996D01*
X0016872Y0101794D02*
X0094494Y0101794D01*
X0095293Y0102593D02*
X0016872Y0102593D01*
X0016872Y0103391D02*
X0096091Y0103391D01*
X0096890Y0104190D02*
X0016872Y0104190D01*
X0016872Y0104988D02*
X0097688Y0104988D01*
X0098487Y0105787D02*
X0016872Y0105787D01*
X0016872Y0106585D02*
X0099285Y0106585D01*
X0100084Y0107384D02*
X0016872Y0107384D01*
X0016872Y0108182D02*
X0100882Y0108182D01*
X0101681Y0108981D02*
X0016872Y0108981D01*
X0016872Y0109779D02*
X0102479Y0109779D01*
X0103278Y0110578D02*
X0016872Y0110578D01*
X0016872Y0111376D02*
X0104076Y0111376D01*
X0104875Y0112175D02*
X0016872Y0112175D01*
X0016872Y0112973D02*
X0105673Y0112973D01*
X0106472Y0113772D02*
X0016872Y0113772D01*
X0016872Y0114571D02*
X0107270Y0114571D01*
X0108069Y0115369D02*
X0016872Y0115369D01*
X0016872Y0116168D02*
X0108867Y0116168D01*
X0109666Y0116966D02*
X0016872Y0116966D01*
X0016872Y0117765D02*
X0110464Y0117765D01*
X0111263Y0118563D02*
X0016872Y0118563D01*
X0016872Y0119362D02*
X0112061Y0119362D01*
X0112860Y0120160D02*
X0016872Y0120160D01*
X0016872Y0120959D02*
X0113658Y0120959D01*
X0114457Y0121757D02*
X0016872Y0121757D01*
X0016872Y0122556D02*
X0115255Y0122556D01*
X0116054Y0123354D02*
X0016872Y0123354D01*
X0016872Y0124153D02*
X0116852Y0124153D01*
X0117651Y0124951D02*
X0016872Y0124951D01*
X0016872Y0125750D02*
X0118449Y0125750D01*
X0119248Y0126548D02*
X0016872Y0126548D01*
X0016872Y0127347D02*
X0120046Y0127347D01*
X0120845Y0128145D02*
X0016872Y0128145D01*
X0016872Y0128944D02*
X0121643Y0128944D01*
X0122442Y0129742D02*
X0016872Y0129742D01*
X0016872Y0130541D02*
X0123241Y0130541D01*
X0124039Y0131339D02*
X0016872Y0131339D01*
X0016872Y0132138D02*
X0124838Y0132138D01*
X0125636Y0132936D02*
X0016872Y0132936D01*
X0016872Y0133735D02*
X0149914Y0133735D01*
X0151031Y0133735D02*
X0211967Y0133735D01*
X0211909Y0133701D02*
X0211244Y0133191D01*
X0210650Y0132597D01*
X0210140Y0131932D01*
X0209720Y0131205D01*
X0209399Y0130430D01*
X0209182Y0129620D01*
X0209072Y0128788D01*
X0209072Y0128768D01*
X0215072Y0128768D01*
X0215072Y0127969D01*
X0209072Y0127969D01*
X0209072Y0127949D01*
X0209182Y0127117D01*
X0209399Y0126307D01*
X0209720Y0125532D01*
X0210140Y0124805D01*
X0210650Y0124140D01*
X0211244Y0123546D01*
X0211909Y0123036D01*
X0212636Y0122616D01*
X0213411Y0122295D01*
X0214221Y0122078D01*
X0215053Y0121969D01*
X0215072Y0121969D01*
X0215072Y0127968D01*
X0215872Y0127968D01*
X0215872Y0121969D01*
X0215892Y0121969D01*
X0216724Y0122078D01*
X0217534Y0122295D01*
X0218309Y0122616D01*
X0219036Y0123036D01*
X0219701Y0123546D01*
X0220295Y0124140D01*
X0220805Y0124805D01*
X0221225Y0125532D01*
X0221546Y0126307D01*
X0221763Y0127117D01*
X0221872Y0127949D01*
X0221872Y0127969D01*
X0215872Y0127969D01*
X0215872Y0128768D01*
X0221872Y0128768D01*
X0221872Y0128788D01*
X0221763Y0129620D01*
X0221546Y0130430D01*
X0221225Y0131205D01*
X0220805Y0131932D01*
X0220295Y0132597D01*
X0219701Y0133191D01*
X0219036Y0133701D01*
X0218309Y0134121D01*
X0217534Y0134442D01*
X0216724Y0134659D01*
X0215892Y0134768D01*
X0215872Y0134768D01*
X0215872Y0128769D01*
X0215072Y0128769D01*
X0215072Y0134768D01*
X0215053Y0134768D01*
X0214221Y0134659D01*
X0213411Y0134442D01*
X0212636Y0134121D01*
X0211909Y0133701D01*
X0210989Y0132936D02*
X0152299Y0132936D01*
X0152752Y0132138D02*
X0210298Y0132138D01*
X0209798Y0131339D02*
X0152872Y0131339D01*
X0152727Y0130541D02*
X0209445Y0130541D01*
X0209215Y0129742D02*
X0152240Y0129742D01*
X0126452Y0128944D02*
X0209093Y0128944D01*
X0209152Y0127347D02*
X0124855Y0127347D01*
X0125653Y0128145D02*
X0215072Y0128145D01*
X0215072Y0127347D02*
X0215872Y0127347D01*
X0215872Y0128145D02*
X0280072Y0128145D01*
X0280072Y0127969D02*
X0274072Y0127969D01*
X0274072Y0127949D01*
X0274182Y0127117D01*
X0274399Y0126307D01*
X0274720Y0125532D01*
X0275140Y0124805D01*
X0275650Y0124140D01*
X0276244Y0123546D01*
X0276909Y0123036D01*
X0277636Y0122616D01*
X0278411Y0122295D01*
X0279221Y0122078D01*
X0280053Y0121969D01*
X0280072Y0121969D01*
X0280072Y0127968D01*
X0280872Y0127968D01*
X0280872Y0121969D01*
X0280892Y0121969D01*
X0281724Y0122078D01*
X0282534Y0122295D01*
X0283309Y0122616D01*
X0284036Y0123036D01*
X0284701Y0123546D01*
X0285295Y0124140D01*
X0285805Y0124805D01*
X0286225Y0125532D01*
X0286546Y0126307D01*
X0286763Y0127117D01*
X0286872Y0127949D01*
X0286872Y0127969D01*
X0280872Y0127969D01*
X0280872Y0128768D01*
X0286872Y0128768D01*
X0286872Y0128788D01*
X0286763Y0129620D01*
X0286546Y0130430D01*
X0286225Y0131205D01*
X0285805Y0131932D01*
X0285295Y0132597D01*
X0284701Y0133191D01*
X0284036Y0133701D01*
X0283309Y0134121D01*
X0282534Y0134442D01*
X0281724Y0134659D01*
X0280892Y0134768D01*
X0280872Y0134768D01*
X0280872Y0128769D01*
X0280072Y0128769D01*
X0280072Y0134768D01*
X0280053Y0134768D01*
X0279221Y0134659D01*
X0278411Y0134442D01*
X0277636Y0134121D01*
X0276909Y0133701D01*
X0276244Y0133191D01*
X0275650Y0132597D01*
X0275140Y0131932D01*
X0274720Y0131205D01*
X0274399Y0130430D01*
X0274182Y0129620D01*
X0274072Y0128788D01*
X0274072Y0128768D01*
X0280072Y0128768D01*
X0280072Y0127969D01*
X0280072Y0127347D02*
X0280872Y0127347D01*
X0280872Y0128145D02*
X0345072Y0128145D01*
X0345072Y0127969D02*
X0339072Y0127969D01*
X0339072Y0127949D01*
X0339182Y0127117D01*
X0339399Y0126307D01*
X0339720Y0125532D01*
X0340140Y0124805D01*
X0340650Y0124140D01*
X0341244Y0123546D01*
X0341909Y0123036D01*
X0342636Y0122616D01*
X0343411Y0122295D01*
X0344221Y0122078D01*
X0345053Y0121969D01*
X0345072Y0121969D01*
X0345072Y0127968D01*
X0345872Y0127968D01*
X0345872Y0121969D01*
X0345892Y0121969D01*
X0346724Y0122078D01*
X0347534Y0122295D01*
X0348309Y0122616D01*
X0349036Y0123036D01*
X0349701Y0123546D01*
X0350295Y0124140D01*
X0350805Y0124805D01*
X0351225Y0125532D01*
X0351546Y0126307D01*
X0351763Y0127117D01*
X0351872Y0127949D01*
X0351872Y0127969D01*
X0345872Y0127969D01*
X0345872Y0128768D01*
X0351872Y0128768D01*
X0351872Y0128788D01*
X0351763Y0129620D01*
X0351546Y0130430D01*
X0351225Y0131205D01*
X0350805Y0131932D01*
X0350295Y0132597D01*
X0349701Y0133191D01*
X0349036Y0133701D01*
X0348309Y0134121D01*
X0347534Y0134442D01*
X0346724Y0134659D01*
X0345892Y0134768D01*
X0345872Y0134768D01*
X0345872Y0128769D01*
X0345072Y0128769D01*
X0345072Y0134768D01*
X0345053Y0134768D01*
X0344221Y0134659D01*
X0343411Y0134442D01*
X0342636Y0134121D01*
X0341909Y0133701D01*
X0341244Y0133191D01*
X0340650Y0132597D01*
X0340140Y0131932D01*
X0339720Y0131205D01*
X0339399Y0130430D01*
X0339182Y0129620D01*
X0339072Y0128788D01*
X0339072Y0128768D01*
X0345072Y0128768D01*
X0345072Y0127969D01*
X0345072Y0127347D02*
X0345872Y0127347D01*
X0345872Y0128145D02*
X0410072Y0128145D01*
X0410072Y0127969D02*
X0404072Y0127969D01*
X0404072Y0127949D01*
X0404182Y0127117D01*
X0404399Y0126307D01*
X0404720Y0125532D01*
X0405140Y0124805D01*
X0405650Y0124140D01*
X0406244Y0123546D01*
X0406909Y0123036D01*
X0407636Y0122616D01*
X0408411Y0122295D01*
X0409221Y0122078D01*
X0410053Y0121969D01*
X0410072Y0121969D01*
X0410072Y0127968D01*
X0410872Y0127968D01*
X0410872Y0121969D01*
X0410892Y0121969D01*
X0411724Y0122078D01*
X0412534Y0122295D01*
X0413309Y0122616D01*
X0414036Y0123036D01*
X0414701Y0123546D01*
X0415295Y0124140D01*
X0415805Y0124805D01*
X0416225Y0125532D01*
X0416546Y0126307D01*
X0416763Y0127117D01*
X0416872Y0127949D01*
X0416872Y0127969D01*
X0410872Y0127969D01*
X0410872Y0128768D01*
X0416872Y0128768D01*
X0416872Y0128788D01*
X0416763Y0129620D01*
X0416546Y0130430D01*
X0416225Y0131205D01*
X0415805Y0131932D01*
X0415295Y0132597D01*
X0414701Y0133191D01*
X0414036Y0133701D01*
X0413309Y0134121D01*
X0412534Y0134442D01*
X0411724Y0134659D01*
X0410892Y0134768D01*
X0410872Y0134768D01*
X0410872Y0128769D01*
X0410072Y0128769D01*
X0410072Y0134768D01*
X0410053Y0134768D01*
X0409221Y0134659D01*
X0408411Y0134442D01*
X0407636Y0134121D01*
X0406909Y0133701D01*
X0406244Y0133191D01*
X0405650Y0132597D01*
X0405140Y0131932D01*
X0404720Y0131205D01*
X0404399Y0130430D01*
X0404182Y0129620D01*
X0404072Y0128788D01*
X0404072Y0128768D01*
X0410072Y0128768D01*
X0410072Y0127969D01*
X0410072Y0127347D02*
X0410872Y0127347D01*
X0410872Y0128145D02*
X0441238Y0128145D01*
X0441238Y0127347D02*
X0416793Y0127347D01*
X0416610Y0126548D02*
X0441238Y0126548D01*
X0441238Y0125750D02*
X0416315Y0125750D01*
X0415890Y0124951D02*
X0441238Y0124951D01*
X0441238Y0124153D02*
X0415305Y0124153D01*
X0414451Y0123354D02*
X0441238Y0123354D01*
X0441238Y0122556D02*
X0413163Y0122556D01*
X0410872Y0122556D02*
X0410072Y0122556D01*
X0410072Y0123354D02*
X0410872Y0123354D01*
X0410872Y0124153D02*
X0410072Y0124153D01*
X0410072Y0124951D02*
X0410872Y0124951D01*
X0410872Y0125750D02*
X0410072Y0125750D01*
X0410072Y0126548D02*
X0410872Y0126548D01*
X0410872Y0128944D02*
X0410072Y0128944D01*
X0410072Y0129742D02*
X0410872Y0129742D01*
X0410872Y0130541D02*
X0410072Y0130541D01*
X0410072Y0131339D02*
X0410872Y0131339D01*
X0410872Y0132138D02*
X0410072Y0132138D01*
X0410072Y0132936D02*
X0410872Y0132936D01*
X0410872Y0133735D02*
X0410072Y0133735D01*
X0410072Y0134533D02*
X0410872Y0134533D01*
X0412193Y0134533D02*
X0431808Y0134533D01*
X0429880Y0135332D02*
X0028230Y0135332D01*
X0029056Y0136130D02*
X0429054Y0136130D01*
X0428255Y0136929D02*
X0029855Y0136929D01*
X0030400Y0137727D02*
X0427710Y0137727D01*
X0427379Y0138526D02*
X0030731Y0138526D01*
X0031062Y0139324D02*
X0427048Y0139324D01*
X0426836Y0140123D02*
X0031274Y0140123D01*
X0031274Y0140921D02*
X0426836Y0140921D01*
X0426836Y0141720D02*
X0031274Y0141720D01*
X0031274Y0142518D02*
X0426836Y0142518D01*
X0427139Y0143317D02*
X0030971Y0143317D01*
X0030640Y0144115D02*
X0427470Y0144115D01*
X0427801Y0144914D02*
X0030310Y0144914D01*
X0029636Y0145712D02*
X0428475Y0145712D01*
X0429273Y0146511D02*
X0028837Y0146511D01*
X0027701Y0147309D02*
X0430410Y0147309D01*
X0432337Y0148108D02*
X0025773Y0148108D01*
X0022952Y0148108D02*
X0022628Y0148108D01*
X0021024Y0147309D02*
X0020943Y0147309D01*
X0018084Y0144115D02*
X0017890Y0144115D01*
X0017810Y0144005D02*
X0017810Y0144005D01*
X0017753Y0143317D02*
X0017586Y0143317D01*
X0017450Y0142518D02*
X0017327Y0142518D01*
X0017450Y0141720D02*
X0017067Y0141720D01*
X0016937Y0140921D02*
X0017450Y0140921D01*
X0017450Y0140123D02*
X0016874Y0140123D01*
X0016872Y0139324D02*
X0017662Y0139324D01*
X0017993Y0138526D02*
X0016872Y0138526D01*
X0016872Y0137727D02*
X0018324Y0137727D01*
X0018870Y0136929D02*
X0016872Y0136929D01*
X0016872Y0136130D02*
X0019668Y0136130D01*
X0020494Y0135332D02*
X0016872Y0135332D01*
X0016872Y0134533D02*
X0022422Y0134533D01*
X0026302Y0134533D02*
X0213752Y0134533D01*
X0215072Y0134533D02*
X0215872Y0134533D01*
X0215872Y0133735D02*
X0215072Y0133735D01*
X0215072Y0132936D02*
X0215872Y0132936D01*
X0215872Y0132138D02*
X0215072Y0132138D01*
X0215072Y0131339D02*
X0215872Y0131339D01*
X0215872Y0130541D02*
X0215072Y0130541D01*
X0215072Y0129742D02*
X0215872Y0129742D01*
X0215872Y0128944D02*
X0215072Y0128944D01*
X0215072Y0126548D02*
X0215872Y0126548D01*
X0215872Y0125750D02*
X0215072Y0125750D01*
X0215072Y0124951D02*
X0215872Y0124951D01*
X0215872Y0124153D02*
X0215072Y0124153D01*
X0215072Y0123354D02*
X0215872Y0123354D01*
X0215872Y0122556D02*
X0215072Y0122556D01*
X0212782Y0122556D02*
X0195053Y0122556D01*
X0195780Y0121757D02*
X0250165Y0121757D01*
X0249834Y0120959D02*
X0196110Y0120959D01*
X0196441Y0120160D02*
X0249504Y0120160D01*
X0247061Y0119362D02*
X0196672Y0119362D01*
X0196672Y0118563D02*
X0246263Y0118563D01*
X0245464Y0117765D02*
X0196672Y0117765D01*
X0196602Y0116966D02*
X0201993Y0116966D01*
X0203628Y0117643D02*
X0200219Y0116231D01*
X0197610Y0113622D01*
X0196198Y0110213D01*
X0196198Y0106524D01*
X0197610Y0103115D01*
X0200219Y0100506D01*
X0203628Y0099094D01*
X0207317Y0099094D01*
X0210726Y0100506D01*
X0213335Y0103115D01*
X0214747Y0106524D01*
X0214747Y0110213D01*
X0213335Y0113622D01*
X0210726Y0116231D01*
X0207317Y0117643D01*
X0203628Y0117643D01*
X0200155Y0116168D02*
X0196272Y0116168D01*
X0195941Y0115369D02*
X0199356Y0115369D01*
X0198558Y0114571D02*
X0195443Y0114571D01*
X0194644Y0113772D02*
X0197759Y0113772D01*
X0197341Y0112973D02*
X0193649Y0112973D01*
X0191721Y0112175D02*
X0197010Y0112175D01*
X0196679Y0111376D02*
X0191005Y0111376D01*
X0191335Y0110578D02*
X0196349Y0110578D01*
X0196198Y0109779D02*
X0191666Y0109779D01*
X0191735Y0108981D02*
X0196198Y0108981D01*
X0196198Y0108182D02*
X0191735Y0108182D01*
X0191735Y0107384D02*
X0196198Y0107384D01*
X0196198Y0106585D02*
X0191512Y0106585D01*
X0191181Y0105787D02*
X0196503Y0105787D01*
X0196834Y0104988D02*
X0190850Y0104988D01*
X0190150Y0104190D02*
X0197164Y0104190D01*
X0197495Y0103391D02*
X0189351Y0103391D01*
X0187893Y0102593D02*
X0198132Y0102593D01*
X0198930Y0101794D02*
X0169302Y0101794D01*
X0168504Y0100996D02*
X0199729Y0100996D01*
X0200963Y0100197D02*
X0167705Y0100197D01*
X0166907Y0099399D02*
X0202891Y0099399D01*
X0201529Y0097802D02*
X0208907Y0097802D01*
X0208668Y0097724D02*
X0208009Y0097388D01*
X0207411Y0096953D01*
X0206887Y0096430D01*
X0206453Y0095832D01*
X0206117Y0095173D01*
X0205888Y0094469D01*
X0205777Y0093768D01*
X0210072Y0093768D01*
X0210072Y0092969D01*
X0205777Y0092969D01*
X0205888Y0092268D01*
X0206117Y0091564D01*
X0206453Y0090905D01*
X0206887Y0090307D01*
X0207411Y0089784D01*
X0208009Y0089349D01*
X0208668Y0089013D01*
X0209372Y0088784D01*
X0210072Y0088673D01*
X0210072Y0092968D01*
X0210872Y0092968D01*
X0210872Y0088673D01*
X0211573Y0088784D01*
X0212277Y0089013D01*
X0212936Y0089349D01*
X0213534Y0089784D01*
X0214057Y0090307D01*
X0214492Y0090905D01*
X0214828Y0091564D01*
X0215057Y0092268D01*
X0215168Y0092969D01*
X0210872Y0092969D01*
X0210872Y0093768D01*
X0215168Y0093768D01*
X0215057Y0094469D01*
X0214828Y0095173D01*
X0214492Y0095832D01*
X0214057Y0096430D01*
X0213534Y0096953D01*
X0212936Y0097388D01*
X0212277Y0097724D01*
X0211573Y0097953D01*
X0210872Y0098064D01*
X0210872Y0093769D01*
X0210072Y0093769D01*
X0210072Y0098064D01*
X0209372Y0097953D01*
X0208668Y0097724D01*
X0207479Y0097003D02*
X0203202Y0097003D01*
X0203021Y0097183D02*
X0201368Y0097868D01*
X0199577Y0097868D01*
X0197923Y0097183D01*
X0196658Y0095918D01*
X0195972Y0094264D01*
X0195972Y0092473D01*
X0196658Y0090819D01*
X0197923Y0089554D01*
X0199577Y0088869D01*
X0201368Y0088869D01*
X0203021Y0089554D01*
X0204287Y0090819D01*
X0204972Y0092473D01*
X0204972Y0094264D01*
X0204287Y0095918D01*
X0203021Y0097183D01*
X0204000Y0096205D02*
X0206724Y0096205D01*
X0206236Y0095406D02*
X0204499Y0095406D01*
X0204830Y0094608D02*
X0205933Y0094608D01*
X0205784Y0093809D02*
X0204972Y0093809D01*
X0204972Y0093011D02*
X0210072Y0093011D01*
X0210072Y0093809D02*
X0210872Y0093809D01*
X0210872Y0093011D02*
X0220710Y0093011D01*
X0219912Y0092212D02*
X0215039Y0092212D01*
X0214751Y0091414D02*
X0219113Y0091414D01*
X0218315Y0090615D02*
X0214282Y0090615D01*
X0213567Y0089817D02*
X0217516Y0089817D01*
X0216718Y0089018D02*
X0212287Y0089018D01*
X0210872Y0089018D02*
X0210072Y0089018D01*
X0210072Y0089817D02*
X0210872Y0089817D01*
X0210872Y0090615D02*
X0210072Y0090615D01*
X0210072Y0091414D02*
X0210872Y0091414D01*
X0210872Y0092212D02*
X0210072Y0092212D01*
X0207377Y0089817D02*
X0203285Y0089817D01*
X0204083Y0090615D02*
X0206663Y0090615D01*
X0206194Y0091414D02*
X0204533Y0091414D01*
X0204864Y0092212D02*
X0205906Y0092212D01*
X0208658Y0089018D02*
X0201729Y0089018D01*
X0199216Y0089018D02*
X0156526Y0089018D01*
X0155728Y0088220D02*
X0215919Y0088220D01*
X0215121Y0087421D02*
X0154929Y0087421D01*
X0154131Y0086623D02*
X0214322Y0086623D01*
X0213524Y0085824D02*
X0153332Y0085824D01*
X0152534Y0085026D02*
X0212725Y0085026D01*
X0211927Y0084227D02*
X0151735Y0084227D01*
X0150937Y0083429D02*
X0211128Y0083429D01*
X0210330Y0082630D02*
X0150138Y0082630D01*
X0149340Y0081832D02*
X0209531Y0081832D01*
X0208733Y0081033D02*
X0148541Y0081033D01*
X0147743Y0080235D02*
X0207934Y0080235D01*
X0207136Y0079436D02*
X0146944Y0079436D01*
X0146146Y0078638D02*
X0206337Y0078638D01*
X0208750Y0076242D02*
X0284942Y0076242D01*
X0285740Y0077040D02*
X0209549Y0077040D01*
X0210347Y0077839D02*
X0286539Y0077839D01*
X0287337Y0078638D02*
X0211146Y0078638D01*
X0211944Y0079436D02*
X0288136Y0079436D01*
X0288934Y0080235D02*
X0212743Y0080235D01*
X0213541Y0081033D02*
X0289733Y0081033D01*
X0290531Y0081832D02*
X0214340Y0081832D01*
X0215138Y0082630D02*
X0291330Y0082630D01*
X0292128Y0083429D02*
X0215937Y0083429D01*
X0216735Y0084227D02*
X0292927Y0084227D01*
X0293725Y0085026D02*
X0217534Y0085026D01*
X0218332Y0085824D02*
X0294524Y0085824D01*
X0295322Y0086623D02*
X0219131Y0086623D01*
X0219929Y0087421D02*
X0296121Y0087421D01*
X0296919Y0088220D02*
X0220728Y0088220D01*
X0221526Y0089018D02*
X0264216Y0089018D01*
X0264577Y0088869D02*
X0266368Y0088869D01*
X0268021Y0089554D01*
X0269287Y0090819D01*
X0269972Y0092473D01*
X0269972Y0094264D01*
X0269287Y0095918D01*
X0268021Y0097183D01*
X0266368Y0097868D01*
X0264577Y0097868D01*
X0262923Y0097183D01*
X0261658Y0095918D01*
X0260972Y0094264D01*
X0260972Y0092473D01*
X0261658Y0090819D01*
X0262923Y0089554D01*
X0264577Y0088869D01*
X0262660Y0089817D02*
X0222325Y0089817D01*
X0223123Y0090615D02*
X0261862Y0090615D01*
X0261411Y0091414D02*
X0223922Y0091414D01*
X0224720Y0092212D02*
X0261081Y0092212D01*
X0260972Y0093011D02*
X0225519Y0093011D01*
X0226317Y0093809D02*
X0260972Y0093809D01*
X0261115Y0094608D02*
X0227116Y0094608D01*
X0227914Y0095406D02*
X0261446Y0095406D01*
X0261945Y0096205D02*
X0228713Y0096205D01*
X0229511Y0097003D02*
X0262743Y0097003D01*
X0264416Y0097802D02*
X0230310Y0097802D01*
X0231108Y0098600D02*
X0300772Y0098600D01*
X0300772Y0097802D02*
X0277038Y0097802D01*
X0277277Y0097724D02*
X0276573Y0097953D01*
X0275872Y0098064D01*
X0275872Y0093769D01*
X0275072Y0093769D01*
X0275072Y0098064D01*
X0274372Y0097953D01*
X0273668Y0097724D01*
X0273009Y0097388D01*
X0272411Y0096953D01*
X0271887Y0096430D01*
X0271453Y0095832D01*
X0271117Y0095173D01*
X0270888Y0094469D01*
X0270777Y0093768D01*
X0275072Y0093768D01*
X0275072Y0092969D01*
X0270777Y0092969D01*
X0270888Y0092268D01*
X0271117Y0091564D01*
X0271453Y0090905D01*
X0271887Y0090307D01*
X0272411Y0089784D01*
X0273009Y0089349D01*
X0273668Y0089013D01*
X0274372Y0088784D01*
X0275072Y0088673D01*
X0275072Y0092968D01*
X0275872Y0092968D01*
X0275872Y0088673D01*
X0276573Y0088784D01*
X0277277Y0089013D01*
X0277936Y0089349D01*
X0278534Y0089784D01*
X0279057Y0090307D01*
X0279492Y0090905D01*
X0279828Y0091564D01*
X0280057Y0092268D01*
X0280168Y0092969D01*
X0275872Y0092969D01*
X0275872Y0093768D01*
X0280168Y0093768D01*
X0280057Y0094469D01*
X0279828Y0095173D01*
X0279492Y0095832D01*
X0279057Y0096430D01*
X0278534Y0096953D01*
X0277936Y0097388D01*
X0277277Y0097724D01*
X0278466Y0097003D02*
X0300772Y0097003D01*
X0300772Y0096205D02*
X0279221Y0096205D01*
X0279709Y0095406D02*
X0300772Y0095406D01*
X0300772Y0094608D02*
X0280012Y0094608D01*
X0280161Y0093809D02*
X0300772Y0093809D01*
X0300772Y0093011D02*
X0275872Y0093011D01*
X0275872Y0093809D02*
X0275072Y0093809D01*
X0275072Y0093011D02*
X0269972Y0093011D01*
X0269972Y0093809D02*
X0270784Y0093809D01*
X0270933Y0094608D02*
X0269830Y0094608D01*
X0269499Y0095406D02*
X0271236Y0095406D01*
X0271724Y0096205D02*
X0269000Y0096205D01*
X0268202Y0097003D02*
X0272479Y0097003D01*
X0273907Y0097802D02*
X0266529Y0097802D01*
X0267891Y0099399D02*
X0231907Y0099399D01*
X0232705Y0100197D02*
X0265963Y0100197D01*
X0265219Y0100506D02*
X0268628Y0099094D01*
X0272317Y0099094D01*
X0275726Y0100506D01*
X0278335Y0103115D01*
X0279747Y0106524D01*
X0279747Y0110213D01*
X0278335Y0113622D01*
X0275726Y0116231D01*
X0272317Y0117643D01*
X0268628Y0117643D01*
X0265219Y0116231D01*
X0262610Y0113622D01*
X0261198Y0110213D01*
X0261198Y0106524D01*
X0262610Y0103115D01*
X0265219Y0100506D01*
X0264729Y0100996D02*
X0233504Y0100996D01*
X0234302Y0101794D02*
X0263930Y0101794D01*
X0263132Y0102593D02*
X0252893Y0102593D01*
X0254351Y0103391D02*
X0262495Y0103391D01*
X0262164Y0104190D02*
X0255150Y0104190D01*
X0255850Y0104988D02*
X0261834Y0104988D01*
X0261503Y0105787D02*
X0256181Y0105787D01*
X0256512Y0106585D02*
X0261198Y0106585D01*
X0261198Y0107384D02*
X0256735Y0107384D01*
X0256735Y0108182D02*
X0261198Y0108182D01*
X0261198Y0108981D02*
X0256735Y0108981D01*
X0256666Y0109779D02*
X0261198Y0109779D01*
X0261349Y0110578D02*
X0256335Y0110578D01*
X0256005Y0111376D02*
X0261679Y0111376D01*
X0262010Y0112175D02*
X0256721Y0112175D01*
X0258649Y0112973D02*
X0262341Y0112973D01*
X0262759Y0113772D02*
X0259644Y0113772D01*
X0260443Y0114571D02*
X0263558Y0114571D01*
X0264356Y0115369D02*
X0260941Y0115369D01*
X0261272Y0116168D02*
X0265155Y0116168D01*
X0266993Y0116966D02*
X0261602Y0116966D01*
X0261672Y0117765D02*
X0309464Y0117765D01*
X0310263Y0118563D02*
X0261672Y0118563D01*
X0261672Y0119362D02*
X0311061Y0119362D01*
X0308666Y0116966D02*
X0273952Y0116966D01*
X0275790Y0116168D02*
X0307867Y0116168D01*
X0307069Y0115369D02*
X0276588Y0115369D01*
X0277387Y0114571D02*
X0289081Y0114571D01*
X0289227Y0114631D02*
X0286925Y0113677D01*
X0285164Y0111916D01*
X0284210Y0109614D01*
X0284210Y0107123D01*
X0285164Y0104821D01*
X0286925Y0103060D01*
X0289227Y0102106D01*
X0291718Y0102106D01*
X0294020Y0103060D01*
X0295781Y0104821D01*
X0296735Y0107123D01*
X0296735Y0109614D01*
X0295781Y0111916D01*
X0294020Y0113677D01*
X0291718Y0114631D01*
X0289227Y0114631D01*
X0287154Y0113772D02*
X0278185Y0113772D01*
X0278604Y0112973D02*
X0286221Y0112973D01*
X0285423Y0112175D02*
X0278935Y0112175D01*
X0279265Y0111376D02*
X0284940Y0111376D01*
X0284609Y0110578D02*
X0279596Y0110578D01*
X0279747Y0109779D02*
X0284279Y0109779D01*
X0284210Y0108981D02*
X0279747Y0108981D01*
X0279747Y0108182D02*
X0284210Y0108182D01*
X0284210Y0107384D02*
X0279747Y0107384D01*
X0279747Y0106585D02*
X0284433Y0106585D01*
X0284764Y0105787D02*
X0279442Y0105787D01*
X0279111Y0104988D02*
X0285094Y0104988D01*
X0285795Y0104190D02*
X0278781Y0104190D01*
X0278450Y0103391D02*
X0286593Y0103391D01*
X0288052Y0102593D02*
X0277813Y0102593D01*
X0277015Y0101794D02*
X0300772Y0101794D01*
X0300772Y0100996D02*
X0276216Y0100996D01*
X0274982Y0100197D02*
X0300772Y0100197D01*
X0300772Y0099399D02*
X0273054Y0099399D01*
X0275072Y0097802D02*
X0275872Y0097802D01*
X0275872Y0097003D02*
X0275072Y0097003D01*
X0275072Y0096205D02*
X0275872Y0096205D01*
X0275872Y0095406D02*
X0275072Y0095406D01*
X0275072Y0094608D02*
X0275872Y0094608D01*
X0275872Y0092212D02*
X0275072Y0092212D01*
X0275072Y0091414D02*
X0275872Y0091414D01*
X0275872Y0090615D02*
X0275072Y0090615D01*
X0275072Y0089817D02*
X0275872Y0089817D01*
X0275872Y0089018D02*
X0275072Y0089018D01*
X0273658Y0089018D02*
X0266729Y0089018D01*
X0268285Y0089817D02*
X0272377Y0089817D01*
X0271663Y0090615D02*
X0269083Y0090615D01*
X0269533Y0091414D02*
X0271194Y0091414D01*
X0270906Y0092212D02*
X0269864Y0092212D01*
X0277287Y0089018D02*
X0297718Y0089018D01*
X0298516Y0089817D02*
X0278567Y0089817D01*
X0279282Y0090615D02*
X0299315Y0090615D01*
X0300113Y0091414D02*
X0279751Y0091414D01*
X0280039Y0092212D02*
X0300772Y0092212D01*
X0304172Y0092212D02*
X0326081Y0092212D01*
X0325972Y0092473D02*
X0326658Y0090819D01*
X0327923Y0089554D01*
X0329577Y0088869D01*
X0331368Y0088869D01*
X0333021Y0089554D01*
X0334287Y0090819D01*
X0334972Y0092473D01*
X0334972Y0094264D01*
X0334287Y0095918D01*
X0333021Y0097183D01*
X0331368Y0097868D01*
X0329577Y0097868D01*
X0327923Y0097183D01*
X0326658Y0095918D01*
X0325972Y0094264D01*
X0325972Y0092473D01*
X0325972Y0093011D02*
X0304172Y0093011D01*
X0304172Y0093809D02*
X0325972Y0093809D01*
X0326115Y0094608D02*
X0304172Y0094608D01*
X0304172Y0095406D02*
X0326446Y0095406D01*
X0326945Y0096205D02*
X0304172Y0096205D01*
X0304172Y0097003D02*
X0327743Y0097003D01*
X0329416Y0097802D02*
X0304172Y0097802D01*
X0304172Y0098600D02*
X0371772Y0098600D01*
X0371772Y0097802D02*
X0342038Y0097802D01*
X0342277Y0097724D02*
X0341573Y0097953D01*
X0340872Y0098064D01*
X0340872Y0093769D01*
X0340072Y0093769D01*
X0340072Y0098064D01*
X0339372Y0097953D01*
X0338668Y0097724D01*
X0338009Y0097388D01*
X0337411Y0096953D01*
X0336887Y0096430D01*
X0336453Y0095832D01*
X0336117Y0095173D01*
X0335888Y0094469D01*
X0335777Y0093768D01*
X0340072Y0093768D01*
X0340072Y0092969D01*
X0335777Y0092969D01*
X0335888Y0092268D01*
X0336117Y0091564D01*
X0336453Y0090905D01*
X0336887Y0090307D01*
X0337411Y0089784D01*
X0338009Y0089349D01*
X0338668Y0089013D01*
X0339372Y0088784D01*
X0340072Y0088673D01*
X0340072Y0092968D01*
X0340872Y0092968D01*
X0340872Y0088673D01*
X0341573Y0088784D01*
X0342277Y0089013D01*
X0342936Y0089349D01*
X0343534Y0089784D01*
X0344057Y0090307D01*
X0344492Y0090905D01*
X0344828Y0091564D01*
X0345057Y0092268D01*
X0345168Y0092969D01*
X0340872Y0092969D01*
X0340872Y0093768D01*
X0345168Y0093768D01*
X0345057Y0094469D01*
X0344828Y0095173D01*
X0344492Y0095832D01*
X0344057Y0096430D01*
X0343534Y0096953D01*
X0342936Y0097388D01*
X0342277Y0097724D01*
X0343466Y0097003D02*
X0371772Y0097003D01*
X0371772Y0096205D02*
X0344221Y0096205D01*
X0344709Y0095406D02*
X0371772Y0095406D01*
X0371772Y0094608D02*
X0345012Y0094608D01*
X0345161Y0093809D02*
X0371772Y0093809D01*
X0371772Y0093011D02*
X0340872Y0093011D01*
X0340872Y0093809D02*
X0340072Y0093809D01*
X0340072Y0093011D02*
X0334972Y0093011D01*
X0334972Y0093809D02*
X0335784Y0093809D01*
X0335933Y0094608D02*
X0334830Y0094608D01*
X0334499Y0095406D02*
X0336236Y0095406D01*
X0336724Y0096205D02*
X0334000Y0096205D01*
X0333202Y0097003D02*
X0337479Y0097003D01*
X0338907Y0097802D02*
X0331529Y0097802D01*
X0332891Y0099399D02*
X0304172Y0099399D01*
X0304172Y0100197D02*
X0330963Y0100197D01*
X0330219Y0100506D02*
X0333628Y0099094D01*
X0337317Y0099094D01*
X0340726Y0100506D01*
X0343335Y0103115D01*
X0344747Y0106524D01*
X0344747Y0110213D01*
X0343335Y0113622D01*
X0340726Y0116231D01*
X0337317Y0117643D01*
X0333628Y0117643D01*
X0330219Y0116231D01*
X0327610Y0113622D01*
X0326198Y0110213D01*
X0326198Y0106524D01*
X0327610Y0103115D01*
X0330219Y0100506D01*
X0329729Y0100996D02*
X0304172Y0100996D01*
X0304172Y0101794D02*
X0328930Y0101794D01*
X0328132Y0102593D02*
X0317893Y0102593D01*
X0319351Y0103391D02*
X0327495Y0103391D01*
X0327164Y0104190D02*
X0320150Y0104190D01*
X0320850Y0104988D02*
X0326834Y0104988D01*
X0326503Y0105787D02*
X0321181Y0105787D01*
X0321512Y0106585D02*
X0326198Y0106585D01*
X0326198Y0107384D02*
X0321735Y0107384D01*
X0321735Y0108182D02*
X0326198Y0108182D01*
X0326198Y0108981D02*
X0321735Y0108981D01*
X0321666Y0109779D02*
X0326198Y0109779D01*
X0326349Y0110578D02*
X0321335Y0110578D01*
X0321005Y0111376D02*
X0326679Y0111376D01*
X0327010Y0112175D02*
X0321721Y0112175D01*
X0323649Y0112973D02*
X0327341Y0112973D01*
X0327759Y0113772D02*
X0324644Y0113772D01*
X0325443Y0114571D02*
X0328558Y0114571D01*
X0329356Y0115369D02*
X0325941Y0115369D01*
X0326272Y0116168D02*
X0330155Y0116168D01*
X0331993Y0116966D02*
X0326602Y0116966D01*
X0326672Y0117765D02*
X0372464Y0117765D01*
X0371772Y0116966D02*
X0338952Y0116966D01*
X0340790Y0116168D02*
X0371772Y0116168D01*
X0371772Y0115369D02*
X0341588Y0115369D01*
X0342387Y0114571D02*
X0354081Y0114571D01*
X0354227Y0114631D02*
X0351925Y0113677D01*
X0350164Y0111916D01*
X0349210Y0109614D01*
X0349210Y0107123D01*
X0350164Y0104821D01*
X0351925Y0103060D01*
X0354227Y0102106D01*
X0356718Y0102106D01*
X0359020Y0103060D01*
X0360781Y0104821D01*
X0361735Y0107123D01*
X0361735Y0109614D01*
X0360781Y0111916D01*
X0359020Y0113677D01*
X0356718Y0114631D01*
X0354227Y0114631D01*
X0352154Y0113772D02*
X0343185Y0113772D01*
X0343604Y0112973D02*
X0351221Y0112973D01*
X0350423Y0112175D02*
X0343935Y0112175D01*
X0344265Y0111376D02*
X0349940Y0111376D01*
X0349609Y0110578D02*
X0344596Y0110578D01*
X0344747Y0109779D02*
X0349279Y0109779D01*
X0349210Y0108981D02*
X0344747Y0108981D01*
X0344747Y0108182D02*
X0349210Y0108182D01*
X0349210Y0107384D02*
X0344747Y0107384D01*
X0344747Y0106585D02*
X0349433Y0106585D01*
X0349764Y0105787D02*
X0344442Y0105787D01*
X0344111Y0104988D02*
X0350094Y0104988D01*
X0350795Y0104190D02*
X0343781Y0104190D01*
X0343450Y0103391D02*
X0351593Y0103391D01*
X0353052Y0102593D02*
X0342813Y0102593D01*
X0342015Y0101794D02*
X0371772Y0101794D01*
X0371772Y0100996D02*
X0341216Y0100996D01*
X0339982Y0100197D02*
X0371772Y0100197D01*
X0371772Y0099399D02*
X0338054Y0099399D01*
X0340072Y0097802D02*
X0340872Y0097802D01*
X0340872Y0097003D02*
X0340072Y0097003D01*
X0340072Y0096205D02*
X0340872Y0096205D01*
X0340872Y0095406D02*
X0340072Y0095406D01*
X0340072Y0094608D02*
X0340872Y0094608D01*
X0340872Y0092212D02*
X0340072Y0092212D01*
X0340072Y0091414D02*
X0340872Y0091414D01*
X0340872Y0090615D02*
X0340072Y0090615D01*
X0340072Y0089817D02*
X0340872Y0089817D01*
X0340872Y0089018D02*
X0340072Y0089018D01*
X0338658Y0089018D02*
X0331729Y0089018D01*
X0333285Y0089817D02*
X0337377Y0089817D01*
X0336663Y0090615D02*
X0334083Y0090615D01*
X0334533Y0091414D02*
X0336194Y0091414D01*
X0335906Y0092212D02*
X0334864Y0092212D01*
X0329216Y0089018D02*
X0302526Y0089018D01*
X0303177Y0089669D02*
X0303177Y0089669D01*
X0303325Y0089817D02*
X0327660Y0089817D01*
X0326862Y0090615D02*
X0304123Y0090615D01*
X0304172Y0091414D02*
X0326411Y0091414D01*
X0342287Y0089018D02*
X0371772Y0089018D01*
X0371772Y0088220D02*
X0301728Y0088220D01*
X0300929Y0087421D02*
X0371772Y0087421D01*
X0371772Y0086623D02*
X0300131Y0086623D01*
X0299332Y0085824D02*
X0371772Y0085824D01*
X0371772Y0085026D02*
X0298534Y0085026D01*
X0297735Y0084227D02*
X0371772Y0084227D01*
X0371772Y0083429D02*
X0296937Y0083429D01*
X0296138Y0082630D02*
X0371330Y0082630D01*
X0370531Y0081832D02*
X0295340Y0081832D01*
X0294541Y0081033D02*
X0369733Y0081033D01*
X0368934Y0080235D02*
X0293743Y0080235D01*
X0292944Y0079436D02*
X0368136Y0079436D01*
X0367337Y0078638D02*
X0292146Y0078638D01*
X0291347Y0077839D02*
X0366539Y0077839D01*
X0365740Y0077040D02*
X0290549Y0077040D01*
X0289750Y0076242D02*
X0364942Y0076242D01*
X0364143Y0075443D02*
X0288952Y0075443D01*
X0288153Y0074645D02*
X0363345Y0074645D01*
X0366556Y0073048D02*
X0441238Y0073048D01*
X0441238Y0073846D02*
X0367355Y0073846D01*
X0368153Y0074645D02*
X0441238Y0074645D01*
X0441238Y0075443D02*
X0368952Y0075443D01*
X0369750Y0076242D02*
X0441238Y0076242D01*
X0441238Y0077040D02*
X0370549Y0077040D01*
X0371347Y0077839D02*
X0441238Y0077839D01*
X0441238Y0078638D02*
X0372146Y0078638D01*
X0372944Y0079436D02*
X0441238Y0079436D01*
X0441238Y0080235D02*
X0373743Y0080235D01*
X0374541Y0081033D02*
X0441238Y0081033D01*
X0441238Y0081832D02*
X0375172Y0081832D01*
X0375172Y0082630D02*
X0441238Y0082630D01*
X0441238Y0083429D02*
X0375172Y0083429D01*
X0375172Y0084227D02*
X0441238Y0084227D01*
X0441238Y0085026D02*
X0375172Y0085026D01*
X0375172Y0085824D02*
X0441238Y0085824D01*
X0441238Y0086623D02*
X0375172Y0086623D01*
X0375172Y0087421D02*
X0441238Y0087421D01*
X0441238Y0088220D02*
X0375172Y0088220D01*
X0375172Y0089018D02*
X0394216Y0089018D01*
X0394577Y0088869D02*
X0396368Y0088869D01*
X0398021Y0089554D01*
X0399287Y0090819D01*
X0399972Y0092473D01*
X0399972Y0094264D01*
X0399287Y0095918D01*
X0398021Y0097183D01*
X0396368Y0097868D01*
X0394577Y0097868D01*
X0392923Y0097183D01*
X0391658Y0095918D01*
X0390972Y0094264D01*
X0390972Y0092473D01*
X0391658Y0090819D01*
X0392923Y0089554D01*
X0394577Y0088869D01*
X0392660Y0089817D02*
X0375172Y0089817D01*
X0375172Y0090615D02*
X0391862Y0090615D01*
X0391411Y0091414D02*
X0375172Y0091414D01*
X0375172Y0092212D02*
X0391081Y0092212D01*
X0390972Y0093011D02*
X0375172Y0093011D01*
X0375172Y0093809D02*
X0390972Y0093809D01*
X0391115Y0094608D02*
X0375172Y0094608D01*
X0375172Y0095406D02*
X0391446Y0095406D01*
X0391945Y0096205D02*
X0375172Y0096205D01*
X0375172Y0097003D02*
X0392743Y0097003D01*
X0394416Y0097802D02*
X0375172Y0097802D01*
X0375172Y0098600D02*
X0441238Y0098600D01*
X0441238Y0097802D02*
X0407038Y0097802D01*
X0407277Y0097724D02*
X0406573Y0097953D01*
X0405872Y0098064D01*
X0405872Y0093769D01*
X0405072Y0093769D01*
X0405072Y0098064D01*
X0404372Y0097953D01*
X0403668Y0097724D01*
X0403009Y0097388D01*
X0402411Y0096953D01*
X0401887Y0096430D01*
X0401453Y0095832D01*
X0401117Y0095173D01*
X0400888Y0094469D01*
X0400777Y0093768D01*
X0405072Y0093768D01*
X0405072Y0092969D01*
X0400777Y0092969D01*
X0400888Y0092268D01*
X0401117Y0091564D01*
X0401453Y0090905D01*
X0401887Y0090307D01*
X0402411Y0089784D01*
X0403009Y0089349D01*
X0403668Y0089013D01*
X0404372Y0088784D01*
X0405072Y0088673D01*
X0405072Y0092968D01*
X0405872Y0092968D01*
X0405872Y0088673D01*
X0406573Y0088784D01*
X0407277Y0089013D01*
X0407936Y0089349D01*
X0408534Y0089784D01*
X0409057Y0090307D01*
X0409492Y0090905D01*
X0409828Y0091564D01*
X0410057Y0092268D01*
X0410168Y0092969D01*
X0405872Y0092969D01*
X0405872Y0093768D01*
X0410168Y0093768D01*
X0410057Y0094469D01*
X0409828Y0095173D01*
X0409492Y0095832D01*
X0409057Y0096430D01*
X0408534Y0096953D01*
X0407936Y0097388D01*
X0407277Y0097724D01*
X0408466Y0097003D02*
X0441238Y0097003D01*
X0441238Y0096205D02*
X0409221Y0096205D01*
X0409709Y0095406D02*
X0441238Y0095406D01*
X0441238Y0094608D02*
X0410012Y0094608D01*
X0410161Y0093809D02*
X0441238Y0093809D01*
X0441238Y0093011D02*
X0405872Y0093011D01*
X0405872Y0093809D02*
X0405072Y0093809D01*
X0405072Y0093011D02*
X0399972Y0093011D01*
X0399972Y0093809D02*
X0400784Y0093809D01*
X0400933Y0094608D02*
X0399830Y0094608D01*
X0399499Y0095406D02*
X0401236Y0095406D01*
X0401724Y0096205D02*
X0399000Y0096205D01*
X0398202Y0097003D02*
X0402479Y0097003D01*
X0403907Y0097802D02*
X0396529Y0097802D01*
X0397891Y0099399D02*
X0375172Y0099399D01*
X0375172Y0100197D02*
X0395963Y0100197D01*
X0395219Y0100506D02*
X0398628Y0099094D01*
X0402317Y0099094D01*
X0405726Y0100506D01*
X0408335Y0103115D01*
X0409747Y0106524D01*
X0409747Y0110213D01*
X0408335Y0113622D01*
X0405726Y0116231D01*
X0402317Y0117643D01*
X0398628Y0117643D01*
X0395219Y0116231D01*
X0392610Y0113622D01*
X0391198Y0110213D01*
X0391198Y0106524D01*
X0392610Y0103115D01*
X0395219Y0100506D01*
X0394729Y0100996D02*
X0375172Y0100996D01*
X0375172Y0101794D02*
X0393930Y0101794D01*
X0393132Y0102593D02*
X0382893Y0102593D01*
X0384351Y0103391D02*
X0392495Y0103391D01*
X0392164Y0104190D02*
X0385150Y0104190D01*
X0385850Y0104988D02*
X0391834Y0104988D01*
X0391503Y0105787D02*
X0386181Y0105787D01*
X0386512Y0106585D02*
X0391198Y0106585D01*
X0391198Y0107384D02*
X0386735Y0107384D01*
X0386735Y0108182D02*
X0391198Y0108182D01*
X0391198Y0108981D02*
X0386735Y0108981D01*
X0386666Y0109779D02*
X0391198Y0109779D01*
X0391349Y0110578D02*
X0386335Y0110578D01*
X0386005Y0111376D02*
X0391679Y0111376D01*
X0392010Y0112175D02*
X0386721Y0112175D01*
X0388649Y0112973D02*
X0392341Y0112973D01*
X0392759Y0113772D02*
X0389644Y0113772D01*
X0390443Y0114571D02*
X0393558Y0114571D01*
X0394356Y0115369D02*
X0390941Y0115369D01*
X0391272Y0116168D02*
X0395155Y0116168D01*
X0396993Y0116966D02*
X0391602Y0116966D01*
X0391672Y0117765D02*
X0441238Y0117765D01*
X0441238Y0118563D02*
X0391672Y0118563D01*
X0391672Y0119362D02*
X0441238Y0119362D01*
X0441238Y0120160D02*
X0391441Y0120160D01*
X0391110Y0120959D02*
X0441238Y0120959D01*
X0441238Y0121757D02*
X0390780Y0121757D01*
X0390053Y0122556D02*
X0407782Y0122556D01*
X0406494Y0123354D02*
X0389255Y0123354D01*
X0387710Y0124153D02*
X0405640Y0124153D01*
X0405055Y0124951D02*
X0350890Y0124951D01*
X0351315Y0125750D02*
X0404630Y0125750D01*
X0404334Y0126548D02*
X0351610Y0126548D01*
X0351793Y0127347D02*
X0404152Y0127347D01*
X0404093Y0128944D02*
X0351852Y0128944D01*
X0351730Y0129742D02*
X0404215Y0129742D01*
X0404445Y0130541D02*
X0351500Y0130541D01*
X0351147Y0131339D02*
X0404798Y0131339D01*
X0405298Y0132138D02*
X0350647Y0132138D01*
X0349956Y0132936D02*
X0405989Y0132936D01*
X0406967Y0133735D02*
X0348978Y0133735D01*
X0347193Y0134533D02*
X0408752Y0134533D01*
X0413978Y0133735D02*
X0441238Y0133735D01*
X0441238Y0134533D02*
X0435688Y0134533D01*
X0437616Y0135332D02*
X0441238Y0135332D01*
X0441238Y0136130D02*
X0438442Y0136130D01*
X0439241Y0136929D02*
X0441238Y0136929D01*
X0441238Y0137727D02*
X0439786Y0137727D01*
X0440117Y0138526D02*
X0441238Y0138526D01*
X0441238Y0139324D02*
X0440448Y0139324D01*
X0440660Y0140123D02*
X0441236Y0140123D01*
X0441173Y0140921D02*
X0440660Y0140921D01*
X0440660Y0141720D02*
X0441043Y0141720D01*
X0440784Y0142518D02*
X0440660Y0142518D01*
X0440524Y0143317D02*
X0440357Y0143317D01*
X0440220Y0144115D02*
X0440026Y0144115D01*
X0437167Y0147309D02*
X0437086Y0147309D01*
X0435482Y0148108D02*
X0435159Y0148108D01*
X0441238Y0132936D02*
X0414956Y0132936D01*
X0415647Y0132138D02*
X0441238Y0132138D01*
X0441238Y0131339D02*
X0416147Y0131339D01*
X0416500Y0130541D02*
X0441238Y0130541D01*
X0441238Y0129742D02*
X0416730Y0129742D01*
X0416852Y0128944D02*
X0441238Y0128944D01*
X0441238Y0116966D02*
X0403952Y0116966D01*
X0405790Y0116168D02*
X0441238Y0116168D01*
X0441238Y0115369D02*
X0406588Y0115369D01*
X0407387Y0114571D02*
X0419081Y0114571D01*
X0419227Y0114631D02*
X0416925Y0113677D01*
X0415164Y0111916D01*
X0414210Y0109614D01*
X0414210Y0107123D01*
X0415164Y0104821D01*
X0416925Y0103060D01*
X0419227Y0102106D01*
X0421718Y0102106D01*
X0424020Y0103060D01*
X0425781Y0104821D01*
X0426735Y0107123D01*
X0426735Y0109614D01*
X0425781Y0111916D01*
X0424020Y0113677D01*
X0421718Y0114631D01*
X0419227Y0114631D01*
X0417154Y0113772D02*
X0408185Y0113772D01*
X0408604Y0112973D02*
X0416221Y0112973D01*
X0415423Y0112175D02*
X0408935Y0112175D01*
X0409265Y0111376D02*
X0414940Y0111376D01*
X0414609Y0110578D02*
X0409596Y0110578D01*
X0409747Y0109779D02*
X0414279Y0109779D01*
X0414210Y0108981D02*
X0409747Y0108981D01*
X0409747Y0108182D02*
X0414210Y0108182D01*
X0414210Y0107384D02*
X0409747Y0107384D01*
X0409747Y0106585D02*
X0414433Y0106585D01*
X0414764Y0105787D02*
X0409442Y0105787D01*
X0409111Y0104988D02*
X0415094Y0104988D01*
X0415795Y0104190D02*
X0408781Y0104190D01*
X0408450Y0103391D02*
X0416593Y0103391D01*
X0418052Y0102593D02*
X0407813Y0102593D01*
X0407015Y0101794D02*
X0441238Y0101794D01*
X0441238Y0100996D02*
X0406216Y0100996D01*
X0404982Y0100197D02*
X0441238Y0100197D01*
X0441238Y0099399D02*
X0403054Y0099399D01*
X0405072Y0097802D02*
X0405872Y0097802D01*
X0405872Y0097003D02*
X0405072Y0097003D01*
X0405072Y0096205D02*
X0405872Y0096205D01*
X0405872Y0095406D02*
X0405072Y0095406D01*
X0405072Y0094608D02*
X0405872Y0094608D01*
X0405872Y0092212D02*
X0405072Y0092212D01*
X0405072Y0091414D02*
X0405872Y0091414D01*
X0405872Y0090615D02*
X0405072Y0090615D01*
X0405072Y0089817D02*
X0405872Y0089817D01*
X0405872Y0089018D02*
X0405072Y0089018D01*
X0403658Y0089018D02*
X0396729Y0089018D01*
X0398285Y0089817D02*
X0402377Y0089817D01*
X0401663Y0090615D02*
X0399083Y0090615D01*
X0399533Y0091414D02*
X0401194Y0091414D01*
X0400906Y0092212D02*
X0399864Y0092212D01*
X0407287Y0089018D02*
X0441238Y0089018D01*
X0441238Y0089817D02*
X0408567Y0089817D01*
X0409282Y0090615D02*
X0441238Y0090615D01*
X0441238Y0091414D02*
X0409751Y0091414D01*
X0410039Y0092212D02*
X0441238Y0092212D01*
X0441238Y0102593D02*
X0422893Y0102593D01*
X0424351Y0103391D02*
X0441238Y0103391D01*
X0441238Y0104190D02*
X0425150Y0104190D01*
X0425850Y0104988D02*
X0441238Y0104988D01*
X0441238Y0105787D02*
X0426181Y0105787D01*
X0426512Y0106585D02*
X0441238Y0106585D01*
X0441238Y0107384D02*
X0426735Y0107384D01*
X0426735Y0108182D02*
X0441238Y0108182D01*
X0441238Y0108981D02*
X0426735Y0108981D01*
X0426666Y0109779D02*
X0441238Y0109779D01*
X0441238Y0110578D02*
X0426335Y0110578D01*
X0426005Y0111376D02*
X0441238Y0111376D01*
X0441238Y0112175D02*
X0425522Y0112175D01*
X0424724Y0112973D02*
X0441238Y0112973D01*
X0441238Y0113772D02*
X0423791Y0113772D01*
X0421863Y0114571D02*
X0441238Y0114571D01*
X0383235Y0124153D02*
X0350305Y0124153D01*
X0349451Y0123354D02*
X0381690Y0123354D01*
X0380891Y0122556D02*
X0348163Y0122556D01*
X0345872Y0122556D02*
X0345072Y0122556D01*
X0345072Y0123354D02*
X0345872Y0123354D01*
X0345872Y0124153D02*
X0345072Y0124153D01*
X0345072Y0124951D02*
X0345872Y0124951D01*
X0345872Y0125750D02*
X0345072Y0125750D01*
X0345072Y0126548D02*
X0345872Y0126548D01*
X0345872Y0128944D02*
X0345072Y0128944D01*
X0345072Y0129742D02*
X0345872Y0129742D01*
X0345872Y0130541D02*
X0345072Y0130541D01*
X0345072Y0131339D02*
X0345872Y0131339D01*
X0345872Y0132138D02*
X0345072Y0132138D01*
X0345072Y0132936D02*
X0345872Y0132936D01*
X0345872Y0133735D02*
X0345072Y0133735D01*
X0345072Y0134533D02*
X0345872Y0134533D01*
X0343752Y0134533D02*
X0282193Y0134533D01*
X0280872Y0134533D02*
X0280072Y0134533D01*
X0280072Y0133735D02*
X0280872Y0133735D01*
X0280872Y0132936D02*
X0280072Y0132936D01*
X0280072Y0132138D02*
X0280872Y0132138D01*
X0280872Y0131339D02*
X0280072Y0131339D01*
X0280072Y0130541D02*
X0280872Y0130541D01*
X0280872Y0129742D02*
X0280072Y0129742D01*
X0280072Y0128944D02*
X0280872Y0128944D01*
X0280872Y0126548D02*
X0280072Y0126548D01*
X0280072Y0125750D02*
X0280872Y0125750D01*
X0280872Y0124951D02*
X0280072Y0124951D01*
X0280072Y0124153D02*
X0280872Y0124153D01*
X0280872Y0123354D02*
X0280072Y0123354D01*
X0280072Y0122556D02*
X0280872Y0122556D01*
X0283163Y0122556D02*
X0315891Y0122556D01*
X0315165Y0121757D02*
X0260780Y0121757D01*
X0261110Y0120959D02*
X0314834Y0120959D01*
X0314504Y0120160D02*
X0261441Y0120160D01*
X0260053Y0122556D02*
X0277782Y0122556D01*
X0276494Y0123354D02*
X0259255Y0123354D01*
X0257710Y0124153D02*
X0275640Y0124153D01*
X0275055Y0124951D02*
X0220890Y0124951D01*
X0221315Y0125750D02*
X0274630Y0125750D01*
X0274334Y0126548D02*
X0221610Y0126548D01*
X0221793Y0127347D02*
X0274152Y0127347D01*
X0274093Y0128944D02*
X0221852Y0128944D01*
X0221730Y0129742D02*
X0274215Y0129742D01*
X0274445Y0130541D02*
X0221500Y0130541D01*
X0221147Y0131339D02*
X0274798Y0131339D01*
X0275298Y0132138D02*
X0220647Y0132138D01*
X0219956Y0132936D02*
X0275989Y0132936D01*
X0276967Y0133735D02*
X0218978Y0133735D01*
X0217193Y0134533D02*
X0278752Y0134533D01*
X0283978Y0133735D02*
X0341967Y0133735D01*
X0340989Y0132936D02*
X0284956Y0132936D01*
X0285647Y0132138D02*
X0340298Y0132138D01*
X0339798Y0131339D02*
X0286147Y0131339D01*
X0286500Y0130541D02*
X0339445Y0130541D01*
X0339215Y0129742D02*
X0286730Y0129742D01*
X0286852Y0128944D02*
X0339093Y0128944D01*
X0339152Y0127347D02*
X0286793Y0127347D01*
X0286610Y0126548D02*
X0339334Y0126548D01*
X0339630Y0125750D02*
X0286315Y0125750D01*
X0285890Y0124951D02*
X0340055Y0124951D01*
X0340640Y0124153D02*
X0322710Y0124153D01*
X0324255Y0123354D02*
X0341494Y0123354D01*
X0342782Y0122556D02*
X0325053Y0122556D01*
X0325780Y0121757D02*
X0380165Y0121757D01*
X0379834Y0120959D02*
X0326110Y0120959D01*
X0326441Y0120160D02*
X0379504Y0120160D01*
X0374061Y0119362D02*
X0326672Y0119362D01*
X0326672Y0118563D02*
X0373263Y0118563D01*
X0371772Y0114571D02*
X0356863Y0114571D01*
X0358791Y0113772D02*
X0371772Y0113772D01*
X0371772Y0112973D02*
X0359724Y0112973D01*
X0360522Y0112175D02*
X0371772Y0112175D01*
X0371772Y0111376D02*
X0361005Y0111376D01*
X0361335Y0110578D02*
X0371772Y0110578D01*
X0371772Y0109779D02*
X0361666Y0109779D01*
X0361735Y0108981D02*
X0371772Y0108981D01*
X0371772Y0108182D02*
X0361735Y0108182D01*
X0361735Y0107384D02*
X0371772Y0107384D01*
X0371772Y0106585D02*
X0361512Y0106585D01*
X0361181Y0105787D02*
X0371772Y0105787D01*
X0371772Y0104988D02*
X0360850Y0104988D01*
X0360150Y0104190D02*
X0371772Y0104190D01*
X0371772Y0103391D02*
X0359351Y0103391D01*
X0357893Y0102593D02*
X0371772Y0102593D01*
X0375172Y0102593D02*
X0378052Y0102593D01*
X0376593Y0103391D02*
X0375172Y0103391D01*
X0375172Y0104190D02*
X0375795Y0104190D01*
X0371772Y0092212D02*
X0345039Y0092212D01*
X0344751Y0091414D02*
X0371772Y0091414D01*
X0371772Y0090615D02*
X0344282Y0090615D01*
X0343567Y0089817D02*
X0371772Y0089817D01*
X0365758Y0072249D02*
X0441238Y0072249D01*
X0441238Y0071451D02*
X0364959Y0071451D01*
X0351367Y0065861D02*
X0404578Y0065861D01*
X0404301Y0065063D02*
X0351644Y0065063D01*
X0351810Y0064264D02*
X0404135Y0064264D01*
X0404110Y0062667D02*
X0351835Y0062667D01*
X0351696Y0061869D02*
X0404249Y0061869D01*
X0404497Y0061070D02*
X0351448Y0061070D01*
X0351075Y0060272D02*
X0404870Y0060272D01*
X0405394Y0059473D02*
X0386936Y0059473D01*
X0388863Y0058675D02*
X0406115Y0058675D01*
X0407185Y0057876D02*
X0389733Y0057876D01*
X0384009Y0059473D02*
X0350551Y0059473D01*
X0349830Y0058675D02*
X0382081Y0058675D01*
X0381212Y0057876D02*
X0348759Y0057876D01*
X0346721Y0057078D02*
X0380414Y0057078D01*
X0379540Y0051488D02*
X0372996Y0051488D01*
X0372198Y0050690D02*
X0379871Y0050690D01*
X0380202Y0049891D02*
X0371399Y0049891D01*
X0370601Y0049093D02*
X0377928Y0049093D01*
X0376542Y0048294D02*
X0369802Y0048294D01*
X0369672Y0047496D02*
X0375743Y0047496D01*
X0375073Y0046697D02*
X0369672Y0046697D01*
X0369672Y0045899D02*
X0374742Y0045899D01*
X0374412Y0045100D02*
X0369672Y0045100D01*
X0369672Y0044302D02*
X0374210Y0044302D01*
X0374210Y0043503D02*
X0369672Y0043503D01*
X0369672Y0042704D02*
X0374210Y0042704D01*
X0374300Y0041906D02*
X0369672Y0041906D01*
X0369672Y0041107D02*
X0374631Y0041107D01*
X0374962Y0040309D02*
X0369672Y0040309D01*
X0369672Y0039510D02*
X0375474Y0039510D01*
X0376273Y0038712D02*
X0369672Y0038712D01*
X0369672Y0037913D02*
X0377278Y0037913D01*
X0379206Y0037115D02*
X0369672Y0037115D01*
X0369672Y0034719D02*
X0397117Y0034719D01*
X0397682Y0032324D02*
X0402920Y0032324D01*
X0403009Y0032388D02*
X0402411Y0031953D01*
X0401887Y0031430D01*
X0401453Y0030832D01*
X0401117Y0030173D01*
X0400888Y0029469D01*
X0400777Y0028768D01*
X0405072Y0028768D01*
X0405072Y0027969D01*
X0400777Y0027969D01*
X0400888Y0027268D01*
X0401117Y0026564D01*
X0401453Y0025905D01*
X0401887Y0025307D01*
X0402411Y0024784D01*
X0403009Y0024349D01*
X0403668Y0024013D01*
X0404372Y0023784D01*
X0405072Y0023673D01*
X0405072Y0027968D01*
X0405872Y0027968D01*
X0405872Y0023673D01*
X0406573Y0023784D01*
X0407277Y0024013D01*
X0407936Y0024349D01*
X0408534Y0024784D01*
X0409057Y0025307D01*
X0409492Y0025905D01*
X0409828Y0026564D01*
X0410057Y0027268D01*
X0410168Y0027969D01*
X0405872Y0027969D01*
X0405872Y0028768D01*
X0410168Y0028768D01*
X0410057Y0029469D01*
X0409828Y0030173D01*
X0409492Y0030832D01*
X0409057Y0031430D01*
X0408534Y0031953D01*
X0407936Y0032388D01*
X0407277Y0032724D01*
X0406573Y0032953D01*
X0405872Y0033064D01*
X0405872Y0028769D01*
X0405072Y0028769D01*
X0405072Y0033064D01*
X0404372Y0032953D01*
X0403668Y0032724D01*
X0403009Y0032388D01*
X0401982Y0031525D02*
X0398680Y0031525D01*
X0399366Y0030727D02*
X0401399Y0030727D01*
X0401037Y0029928D02*
X0399697Y0029928D01*
X0399972Y0029130D02*
X0400834Y0029130D01*
X0399972Y0028331D02*
X0405072Y0028331D01*
X0405072Y0027533D02*
X0405872Y0027533D01*
X0405872Y0028331D02*
X0441238Y0028331D01*
X0441238Y0027533D02*
X0410099Y0027533D01*
X0409883Y0026734D02*
X0441238Y0026734D01*
X0441238Y0025936D02*
X0409508Y0025936D01*
X0408888Y0025137D02*
X0441238Y0025137D01*
X0441238Y0024339D02*
X0407916Y0024339D01*
X0405872Y0024339D02*
X0405072Y0024339D01*
X0405072Y0025137D02*
X0405872Y0025137D01*
X0405872Y0025936D02*
X0405072Y0025936D01*
X0405072Y0026734D02*
X0405872Y0026734D01*
X0403029Y0024339D02*
X0397503Y0024339D01*
X0398605Y0025137D02*
X0402057Y0025137D01*
X0401437Y0025936D02*
X0399336Y0025936D01*
X0399666Y0026734D02*
X0401062Y0026734D01*
X0400846Y0027533D02*
X0399972Y0027533D01*
X0405072Y0029130D02*
X0405872Y0029130D01*
X0405872Y0029928D02*
X0405072Y0029928D01*
X0405072Y0030727D02*
X0405872Y0030727D01*
X0405872Y0031525D02*
X0405072Y0031525D01*
X0405072Y0032324D02*
X0405872Y0032324D01*
X0408024Y0032324D02*
X0441238Y0032324D01*
X0441238Y0033122D02*
X0369672Y0033122D01*
X0369672Y0033921D02*
X0441238Y0033921D01*
X0441238Y0034719D02*
X0403828Y0034719D01*
X0405738Y0035518D02*
X0441238Y0035518D01*
X0441238Y0036316D02*
X0406537Y0036316D01*
X0407335Y0037115D02*
X0419206Y0037115D01*
X0419227Y0037106D02*
X0421718Y0037106D01*
X0424020Y0038060D01*
X0425781Y0039821D01*
X0426735Y0042123D01*
X0426735Y0044614D01*
X0425781Y0046916D01*
X0424020Y0048677D01*
X0421718Y0049631D01*
X0419227Y0049631D01*
X0416925Y0048677D01*
X0415164Y0046916D01*
X0414210Y0044614D01*
X0414210Y0042123D01*
X0415164Y0039821D01*
X0416925Y0038060D01*
X0419227Y0037106D01*
X0417278Y0037913D02*
X0408134Y0037913D01*
X0408583Y0038712D02*
X0416273Y0038712D01*
X0415474Y0039510D02*
X0408913Y0039510D01*
X0409244Y0040309D02*
X0414962Y0040309D01*
X0414631Y0041107D02*
X0409575Y0041107D01*
X0409747Y0041906D02*
X0414300Y0041906D01*
X0414210Y0042704D02*
X0409747Y0042704D01*
X0409747Y0043503D02*
X0414210Y0043503D01*
X0414210Y0044302D02*
X0409747Y0044302D01*
X0409747Y0045100D02*
X0414412Y0045100D01*
X0414742Y0045899D02*
X0409463Y0045899D01*
X0409133Y0046697D02*
X0415073Y0046697D01*
X0415743Y0047496D02*
X0408802Y0047496D01*
X0408471Y0048294D02*
X0416542Y0048294D01*
X0417928Y0049093D02*
X0407865Y0049093D01*
X0407066Y0049891D02*
X0441238Y0049891D01*
X0441238Y0049093D02*
X0423017Y0049093D01*
X0424403Y0048294D02*
X0441238Y0048294D01*
X0441238Y0047496D02*
X0425201Y0047496D01*
X0425872Y0046697D02*
X0441238Y0046697D01*
X0441238Y0045899D02*
X0426203Y0045899D01*
X0426533Y0045100D02*
X0441238Y0045100D01*
X0441238Y0044302D02*
X0426735Y0044302D01*
X0426735Y0043503D02*
X0441238Y0043503D01*
X0441238Y0042704D02*
X0426735Y0042704D01*
X0426645Y0041906D02*
X0441238Y0041906D01*
X0441238Y0041107D02*
X0426314Y0041107D01*
X0425983Y0040309D02*
X0441238Y0040309D01*
X0441238Y0039510D02*
X0425470Y0039510D01*
X0424672Y0038712D02*
X0441238Y0038712D01*
X0441238Y0037913D02*
X0423667Y0037913D01*
X0421739Y0037115D02*
X0441238Y0037115D01*
X0441238Y0031525D02*
X0408962Y0031525D01*
X0409546Y0030727D02*
X0441238Y0030727D01*
X0441238Y0029928D02*
X0409907Y0029928D01*
X0410110Y0029130D02*
X0441238Y0029130D01*
X0441238Y0023540D02*
X0365548Y0023540D01*
X0364750Y0022742D02*
X0441238Y0022742D01*
X0441238Y0021943D02*
X0363951Y0021943D01*
X0363153Y0021145D02*
X0441238Y0021145D01*
X0441238Y0020346D02*
X0362354Y0020346D01*
X0361556Y0019548D02*
X0441238Y0019548D01*
X0441238Y0018749D02*
X0360757Y0018749D01*
X0359959Y0017951D02*
X0441238Y0017951D01*
X0441238Y0017152D02*
X0435432Y0017152D01*
X0437360Y0016354D02*
X0441238Y0016354D01*
X0441238Y0015555D02*
X0438336Y0015555D01*
X0439135Y0014757D02*
X0441238Y0014757D01*
X0441238Y0013958D02*
X0439742Y0013958D01*
X0440073Y0013160D02*
X0441238Y0013160D01*
X0441238Y0012361D02*
X0440404Y0012361D01*
X0440660Y0011563D02*
X0441238Y0011563D01*
X0441182Y0010764D02*
X0440660Y0010764D01*
X0440660Y0009966D02*
X0441077Y0009966D01*
X0440818Y0009167D02*
X0440660Y0009167D01*
X0440558Y0008369D02*
X0440401Y0008369D01*
X0440297Y0007570D02*
X0440070Y0007570D01*
X0435808Y0003577D02*
X0435414Y0003577D01*
X0428361Y0014757D02*
X0356765Y0014757D01*
X0357563Y0015555D02*
X0429160Y0015555D01*
X0430136Y0016354D02*
X0358362Y0016354D01*
X0359160Y0017152D02*
X0432064Y0017152D01*
X0441238Y0050690D02*
X0406268Y0050690D01*
X0405106Y0051488D02*
X0441238Y0051488D01*
X0441238Y0057078D02*
X0411721Y0057078D01*
X0413759Y0057876D02*
X0441238Y0057876D01*
X0441238Y0058675D02*
X0414830Y0058675D01*
X0415551Y0059473D02*
X0441238Y0059473D01*
X0441238Y0060272D02*
X0416075Y0060272D01*
X0416448Y0061070D02*
X0441238Y0061070D01*
X0441238Y0061869D02*
X0416696Y0061869D01*
X0416835Y0062667D02*
X0441238Y0062667D01*
X0441238Y0063466D02*
X0410872Y0063466D01*
X0410872Y0064264D02*
X0410072Y0064264D01*
X0410072Y0065063D02*
X0410872Y0065063D01*
X0410872Y0065861D02*
X0410072Y0065861D01*
X0410072Y0066660D02*
X0410872Y0066660D01*
X0410872Y0067458D02*
X0410072Y0067458D01*
X0410072Y0068257D02*
X0410872Y0068257D01*
X0410872Y0069055D02*
X0410072Y0069055D01*
X0407522Y0069055D02*
X0348422Y0069055D01*
X0349615Y0068257D02*
X0406330Y0068257D01*
X0405544Y0067458D02*
X0350401Y0067458D01*
X0350962Y0066660D02*
X0404983Y0066660D01*
X0413422Y0069055D02*
X0441238Y0069055D01*
X0441238Y0068257D02*
X0414615Y0068257D01*
X0415401Y0067458D02*
X0441238Y0067458D01*
X0441238Y0066660D02*
X0415962Y0066660D01*
X0416367Y0065861D02*
X0441238Y0065861D01*
X0441238Y0065063D02*
X0416644Y0065063D01*
X0416810Y0064264D02*
X0441238Y0064264D01*
X0342185Y0057876D02*
X0324733Y0057876D01*
X0323863Y0058675D02*
X0341115Y0058675D01*
X0340394Y0059473D02*
X0321936Y0059473D01*
X0223106Y0095406D02*
X0214709Y0095406D01*
X0215012Y0094608D02*
X0222308Y0094608D01*
X0221509Y0093809D02*
X0215161Y0093809D01*
X0210872Y0094608D02*
X0210072Y0094608D01*
X0210072Y0095406D02*
X0210872Y0095406D01*
X0210872Y0096205D02*
X0210072Y0096205D01*
X0210072Y0097003D02*
X0210872Y0097003D01*
X0210872Y0097802D02*
X0210072Y0097802D01*
X0212038Y0097802D02*
X0225502Y0097802D01*
X0226300Y0098600D02*
X0166108Y0098600D01*
X0165310Y0097802D02*
X0199416Y0097802D01*
X0197743Y0097003D02*
X0164511Y0097003D01*
X0163713Y0096205D02*
X0196945Y0096205D01*
X0196446Y0095406D02*
X0162914Y0095406D01*
X0162116Y0094608D02*
X0196115Y0094608D01*
X0195972Y0093809D02*
X0161317Y0093809D01*
X0160519Y0093011D02*
X0195972Y0093011D01*
X0196081Y0092212D02*
X0159720Y0092212D01*
X0158922Y0091414D02*
X0196411Y0091414D01*
X0196862Y0090615D02*
X0158123Y0090615D01*
X0157325Y0089817D02*
X0197660Y0089817D01*
X0213466Y0097003D02*
X0224703Y0097003D01*
X0223905Y0096205D02*
X0214221Y0096205D01*
X0208054Y0099399D02*
X0227099Y0099399D01*
X0227897Y0100197D02*
X0209982Y0100197D01*
X0211216Y0100996D02*
X0228696Y0100996D01*
X0229494Y0101794D02*
X0212015Y0101794D01*
X0212813Y0102593D02*
X0223052Y0102593D01*
X0221925Y0103060D02*
X0224227Y0102106D01*
X0226718Y0102106D01*
X0229020Y0103060D01*
X0230781Y0104821D01*
X0231735Y0107123D01*
X0231735Y0109614D01*
X0230781Y0111916D01*
X0229020Y0113677D01*
X0226718Y0114631D01*
X0224227Y0114631D01*
X0221925Y0113677D01*
X0220164Y0111916D01*
X0219210Y0109614D01*
X0219210Y0107123D01*
X0220164Y0104821D01*
X0221925Y0103060D01*
X0221593Y0103391D02*
X0213450Y0103391D01*
X0213781Y0104190D02*
X0220795Y0104190D01*
X0220094Y0104988D02*
X0214111Y0104988D01*
X0214442Y0105787D02*
X0219764Y0105787D01*
X0219433Y0106585D02*
X0214747Y0106585D01*
X0214747Y0107384D02*
X0219210Y0107384D01*
X0219210Y0108182D02*
X0214747Y0108182D01*
X0214747Y0108981D02*
X0219210Y0108981D01*
X0219279Y0109779D02*
X0214747Y0109779D01*
X0214596Y0110578D02*
X0219609Y0110578D01*
X0219940Y0111376D02*
X0214265Y0111376D01*
X0213935Y0112175D02*
X0220423Y0112175D01*
X0221221Y0112973D02*
X0213604Y0112973D01*
X0213185Y0113772D02*
X0222154Y0113772D01*
X0224081Y0114571D02*
X0212387Y0114571D01*
X0211588Y0115369D02*
X0243069Y0115369D01*
X0243867Y0116168D02*
X0210790Y0116168D01*
X0208952Y0116966D02*
X0244666Y0116966D01*
X0247877Y0115369D02*
X0250004Y0115369D01*
X0249673Y0116168D02*
X0248676Y0116168D01*
X0249081Y0114571D02*
X0247079Y0114571D01*
X0247154Y0113772D02*
X0246280Y0113772D01*
X0246221Y0112973D02*
X0245482Y0112973D01*
X0245423Y0112175D02*
X0244683Y0112175D01*
X0244940Y0111376D02*
X0243885Y0111376D01*
X0244609Y0110578D02*
X0243086Y0110578D01*
X0242288Y0109779D02*
X0244279Y0109779D01*
X0244210Y0108981D02*
X0241489Y0108981D01*
X0240691Y0108182D02*
X0244210Y0108182D01*
X0244210Y0107384D02*
X0239892Y0107384D01*
X0239093Y0106585D02*
X0244433Y0106585D01*
X0244764Y0105787D02*
X0238295Y0105787D01*
X0237496Y0104988D02*
X0245094Y0104988D01*
X0245795Y0104190D02*
X0236698Y0104190D01*
X0235899Y0103391D02*
X0246593Y0103391D01*
X0248052Y0102593D02*
X0235101Y0102593D01*
X0231890Y0104190D02*
X0230150Y0104190D01*
X0230850Y0104988D02*
X0232688Y0104988D01*
X0233487Y0105787D02*
X0231181Y0105787D01*
X0231512Y0106585D02*
X0234285Y0106585D01*
X0235084Y0107384D02*
X0231735Y0107384D01*
X0231735Y0108182D02*
X0235882Y0108182D01*
X0236681Y0108981D02*
X0231735Y0108981D01*
X0231666Y0109779D02*
X0237479Y0109779D01*
X0238278Y0110578D02*
X0231335Y0110578D01*
X0231005Y0111376D02*
X0239076Y0111376D01*
X0239875Y0112175D02*
X0230522Y0112175D01*
X0229724Y0112973D02*
X0240673Y0112973D01*
X0241472Y0113772D02*
X0228791Y0113772D01*
X0226863Y0114571D02*
X0242270Y0114571D01*
X0250891Y0122556D02*
X0218163Y0122556D01*
X0219451Y0123354D02*
X0251690Y0123354D01*
X0253235Y0124153D02*
X0220305Y0124153D01*
X0211494Y0123354D02*
X0194255Y0123354D01*
X0192710Y0124153D02*
X0210640Y0124153D01*
X0210055Y0124951D02*
X0122459Y0124951D01*
X0121661Y0124153D02*
X0188235Y0124153D01*
X0186690Y0123354D02*
X0120862Y0123354D01*
X0120064Y0122556D02*
X0185891Y0122556D01*
X0185165Y0121757D02*
X0119265Y0121757D01*
X0118467Y0120959D02*
X0184834Y0120959D01*
X0184504Y0120160D02*
X0117668Y0120160D01*
X0116870Y0119362D02*
X0182061Y0119362D01*
X0181263Y0118563D02*
X0116071Y0118563D01*
X0115273Y0117765D02*
X0180464Y0117765D01*
X0179666Y0116966D02*
X0114474Y0116966D01*
X0113676Y0116168D02*
X0178867Y0116168D01*
X0178069Y0115369D02*
X0112877Y0115369D01*
X0112079Y0114571D02*
X0177270Y0114571D01*
X0176472Y0113772D02*
X0111280Y0113772D01*
X0110482Y0112973D02*
X0175673Y0112973D01*
X0174875Y0112175D02*
X0109683Y0112175D01*
X0108885Y0111376D02*
X0174076Y0111376D01*
X0173278Y0110578D02*
X0108086Y0110578D01*
X0107288Y0109779D02*
X0172479Y0109779D01*
X0171681Y0108981D02*
X0106489Y0108981D01*
X0105691Y0108182D02*
X0170882Y0108182D01*
X0170084Y0107384D02*
X0104892Y0107384D01*
X0104093Y0106585D02*
X0169285Y0106585D01*
X0168487Y0105787D02*
X0103295Y0105787D01*
X0102496Y0104988D02*
X0167688Y0104988D01*
X0166890Y0104190D02*
X0101698Y0104190D01*
X0100899Y0103391D02*
X0166091Y0103391D01*
X0165293Y0102593D02*
X0100101Y0102593D01*
X0099302Y0101794D02*
X0164494Y0101794D01*
X0163696Y0100996D02*
X0098504Y0100996D01*
X0097705Y0100197D02*
X0162897Y0100197D01*
X0162099Y0099399D02*
X0096907Y0099399D01*
X0096108Y0098600D02*
X0161300Y0098600D01*
X0160502Y0097802D02*
X0095310Y0097802D01*
X0094511Y0097003D02*
X0159703Y0097003D01*
X0158905Y0096205D02*
X0093713Y0096205D01*
X0092914Y0095406D02*
X0158106Y0095406D01*
X0157308Y0094608D02*
X0092116Y0094608D01*
X0091317Y0093809D02*
X0156509Y0093809D01*
X0155710Y0093011D02*
X0090519Y0093011D01*
X0089720Y0092212D02*
X0154912Y0092212D01*
X0154113Y0091414D02*
X0088922Y0091414D01*
X0088123Y0090615D02*
X0153315Y0090615D01*
X0152516Y0089817D02*
X0087325Y0089817D01*
X0086526Y0089018D02*
X0151718Y0089018D01*
X0150919Y0088220D02*
X0085728Y0088220D01*
X0084929Y0087421D02*
X0150121Y0087421D01*
X0149322Y0086623D02*
X0084131Y0086623D01*
X0083332Y0085824D02*
X0148524Y0085824D01*
X0147725Y0085026D02*
X0082534Y0085026D01*
X0081735Y0084227D02*
X0146927Y0084227D01*
X0146128Y0083429D02*
X0080937Y0083429D01*
X0080138Y0082630D02*
X0145330Y0082630D01*
X0144531Y0081832D02*
X0079340Y0081832D01*
X0078541Y0081033D02*
X0143733Y0081033D01*
X0142934Y0080235D02*
X0077743Y0080235D01*
X0075294Y0079436D02*
X0142136Y0079436D01*
X0141337Y0078638D02*
X0075630Y0078638D01*
X0075722Y0077839D02*
X0140539Y0077839D01*
X0139740Y0077040D02*
X0075606Y0077040D01*
X0075235Y0076242D02*
X0138942Y0076242D01*
X0138143Y0075443D02*
X0074304Y0075443D01*
X0073172Y0074645D02*
X0137345Y0074645D01*
X0136546Y0073846D02*
X0073172Y0073846D01*
X0073172Y0073048D02*
X0135772Y0073048D01*
X0135772Y0072249D02*
X0073172Y0072249D01*
X0073172Y0071451D02*
X0135772Y0071451D01*
X0135772Y0070652D02*
X0073172Y0070652D01*
X0073172Y0069854D02*
X0135772Y0069854D01*
X0135772Y0069055D02*
X0073172Y0069055D01*
X0073172Y0068257D02*
X0135772Y0068257D01*
X0135772Y0067458D02*
X0073172Y0067458D01*
X0073172Y0066660D02*
X0132375Y0066660D01*
X0131614Y0065861D02*
X0073172Y0065861D01*
X0073172Y0065063D02*
X0110278Y0065063D01*
X0113667Y0065063D02*
X0131283Y0065063D01*
X0131222Y0064264D02*
X0114371Y0064264D01*
X0114702Y0063466D02*
X0131370Y0063466D01*
X0131785Y0062667D02*
X0114722Y0062667D01*
X0114535Y0061869D02*
X0132272Y0061869D01*
X0132272Y0061070D02*
X0114063Y0061070D01*
X0112889Y0060272D02*
X0132272Y0060272D01*
X0132272Y0054682D02*
X0111905Y0054682D01*
X0112222Y0053884D02*
X0131583Y0053884D01*
X0129845Y0053085D02*
X0112222Y0053085D01*
X0112001Y0052287D02*
X0128501Y0052287D01*
X0127960Y0051488D02*
X0111481Y0051488D01*
X0111172Y0050690D02*
X0127722Y0050690D01*
X0127722Y0049891D02*
X0111172Y0049891D01*
X0111172Y0049093D02*
X0128024Y0049093D01*
X0128658Y0048294D02*
X0111172Y0048294D01*
X0111172Y0047496D02*
X0135195Y0047496D01*
X0133772Y0041107D02*
X0133616Y0041107D01*
X0133772Y0040309D02*
X0132817Y0040309D01*
X0133225Y0039510D02*
X0132019Y0039510D01*
X0131220Y0038712D02*
X0132845Y0038712D01*
X0132722Y0037913D02*
X0130422Y0037913D01*
X0129623Y0037115D02*
X0132808Y0037115D01*
X0133139Y0036316D02*
X0128824Y0036316D01*
X0128026Y0035518D02*
X0133961Y0035518D01*
X0075882Y0015555D02*
X0028572Y0015555D01*
X0029371Y0014757D02*
X0076680Y0014757D01*
X0077479Y0013958D02*
X0029997Y0013958D01*
X0030328Y0013160D02*
X0078277Y0013160D01*
X0079076Y0012361D02*
X0030659Y0012361D01*
X0030928Y0011563D02*
X0079874Y0011563D01*
X0080673Y0010764D02*
X0030928Y0010764D01*
X0018661Y0014757D02*
X0016872Y0014757D01*
X0016872Y0015555D02*
X0019459Y0015555D01*
X0020480Y0016354D02*
X0016872Y0016354D01*
X0016872Y0017152D02*
X0022408Y0017152D01*
X0025624Y0017152D02*
X0074285Y0017152D01*
X0075083Y0016354D02*
X0027552Y0016354D01*
X0018034Y0013958D02*
X0016872Y0013958D01*
X0016872Y0013160D02*
X0017704Y0013160D01*
X0017373Y0012361D02*
X0016872Y0012361D01*
X0016872Y0011563D02*
X0017104Y0011563D01*
X0017104Y0010764D02*
X0016929Y0010764D01*
X0017033Y0009966D02*
X0017104Y0009966D01*
X0016872Y0017951D02*
X0073486Y0017951D01*
X0072688Y0018749D02*
X0016872Y0018749D01*
X0016872Y0019548D02*
X0071889Y0019548D01*
X0071091Y0020346D02*
X0016872Y0020346D01*
X0016872Y0021145D02*
X0070292Y0021145D01*
X0069494Y0021943D02*
X0016872Y0021943D01*
X0016872Y0022742D02*
X0068695Y0022742D01*
X0067897Y0023540D02*
X0016872Y0023540D01*
X0016872Y0024339D02*
X0067772Y0024339D01*
X0067772Y0025137D02*
X0064145Y0025137D01*
X0064944Y0025936D02*
X0067772Y0025936D01*
X0067772Y0026734D02*
X0067227Y0026734D01*
X0067772Y0037115D02*
X0063608Y0037115D01*
X0064346Y0037913D02*
X0067772Y0037913D01*
X0067772Y0038712D02*
X0064677Y0038712D01*
X0064722Y0039510D02*
X0067772Y0039510D01*
X0067772Y0040309D02*
X0064559Y0040309D01*
X0064123Y0041107D02*
X0067772Y0041107D01*
X0067772Y0041906D02*
X0063033Y0041906D01*
X0060912Y0041906D02*
X0046722Y0041906D01*
X0046722Y0041107D02*
X0059822Y0041107D01*
X0067772Y0042704D02*
X0046396Y0042704D01*
X0045727Y0043503D02*
X0067772Y0043503D01*
X0067772Y0045899D02*
X0030172Y0045899D01*
X0030172Y0046697D02*
X0067772Y0046697D01*
X0060337Y0037115D02*
X0042130Y0037115D01*
X0029322Y0037115D02*
X0024701Y0037115D01*
X0026240Y0037913D02*
X0028523Y0037913D01*
X0027725Y0038712D02*
X0027038Y0038712D01*
X0022244Y0037115D02*
X0016872Y0037115D01*
X0016872Y0037913D02*
X0020705Y0037913D01*
X0019906Y0038712D02*
X0016872Y0038712D01*
X0016872Y0039510D02*
X0019480Y0039510D01*
X0019149Y0040309D02*
X0016872Y0040309D01*
X0016872Y0041107D02*
X0019072Y0041107D01*
X0019072Y0041906D02*
X0016872Y0041906D01*
X0016872Y0042704D02*
X0019263Y0042704D01*
X0019594Y0043503D02*
X0016872Y0043503D01*
X0016872Y0044302D02*
X0020183Y0044302D01*
X0020983Y0045100D02*
X0016872Y0045100D01*
X0016872Y0045899D02*
X0026538Y0045899D01*
X0026772Y0045100D02*
X0025961Y0045100D01*
X0026762Y0044302D02*
X0026772Y0044302D01*
X0025740Y0046697D02*
X0016872Y0046697D01*
X0016872Y0047496D02*
X0021325Y0047496D01*
X0020324Y0048294D02*
X0016872Y0048294D01*
X0016872Y0049093D02*
X0019653Y0049093D01*
X0019322Y0049891D02*
X0016872Y0049891D01*
X0016872Y0050690D02*
X0019072Y0050690D01*
X0019072Y0051488D02*
X0016872Y0051488D01*
X0016872Y0052287D02*
X0019090Y0052287D01*
X0019421Y0053085D02*
X0016872Y0053085D01*
X0016872Y0053884D02*
X0019765Y0053884D01*
X0020564Y0054682D02*
X0016872Y0054682D01*
X0016872Y0055481D02*
X0021902Y0055481D01*
X0025043Y0055481D02*
X0031072Y0055481D01*
X0031072Y0056279D02*
X0016872Y0056279D01*
X0016872Y0057078D02*
X0031072Y0057078D01*
X0031072Y0057876D02*
X0016872Y0057876D01*
X0016872Y0058675D02*
X0031072Y0058675D01*
X0031072Y0059473D02*
X0016872Y0059473D01*
X0016872Y0060272D02*
X0031072Y0060272D01*
X0031072Y0061070D02*
X0016872Y0061070D01*
X0016872Y0061869D02*
X0031072Y0061869D01*
X0031072Y0062667D02*
X0016872Y0062667D01*
X0016872Y0063466D02*
X0031288Y0063466D01*
X0031874Y0064264D02*
X0016872Y0064264D01*
X0016872Y0065063D02*
X0032673Y0065063D01*
X0033471Y0065861D02*
X0016872Y0065861D01*
X0016872Y0066660D02*
X0034270Y0066660D01*
X0035068Y0067458D02*
X0016872Y0067458D01*
X0016872Y0068257D02*
X0035867Y0068257D01*
X0036665Y0069055D02*
X0016872Y0069055D01*
X0016872Y0069854D02*
X0037464Y0069854D01*
X0038262Y0070652D02*
X0016872Y0070652D01*
X0016872Y0071451D02*
X0039061Y0071451D01*
X0039859Y0072249D02*
X0016872Y0072249D01*
X0016872Y0073048D02*
X0040658Y0073048D01*
X0041456Y0073846D02*
X0016872Y0073846D01*
X0016872Y0074645D02*
X0042255Y0074645D01*
X0043053Y0075443D02*
X0016872Y0075443D01*
X0016872Y0076242D02*
X0043852Y0076242D01*
X0044650Y0077040D02*
X0016872Y0077040D01*
X0016872Y0077839D02*
X0045449Y0077839D01*
X0046247Y0078638D02*
X0016872Y0078638D01*
X0016872Y0079436D02*
X0047046Y0079436D01*
X0047844Y0080235D02*
X0016872Y0080235D01*
X0016872Y0081033D02*
X0048643Y0081033D01*
X0049441Y0081832D02*
X0016872Y0081832D01*
X0016872Y0082630D02*
X0050240Y0082630D01*
X0051038Y0083429D02*
X0016872Y0083429D01*
X0016872Y0084227D02*
X0051837Y0084227D01*
X0052635Y0085026D02*
X0016872Y0085026D01*
X0016872Y0085824D02*
X0053434Y0085824D01*
X0054232Y0086623D02*
X0016872Y0086623D01*
X0016872Y0087421D02*
X0055031Y0087421D01*
X0055829Y0088220D02*
X0016872Y0088220D01*
X0016872Y0089018D02*
X0056628Y0089018D01*
X0057426Y0089817D02*
X0016872Y0089817D01*
X0016872Y0090615D02*
X0058225Y0090615D01*
X0059024Y0091414D02*
X0016872Y0091414D01*
X0016872Y0092212D02*
X0059822Y0092212D01*
X0135570Y0066660D02*
X0135772Y0066660D01*
X0149384Y0065861D02*
X0179561Y0065861D01*
X0178763Y0065063D02*
X0150182Y0065063D01*
X0150981Y0064264D02*
X0177964Y0064264D01*
X0177166Y0063466D02*
X0151779Y0063466D01*
X0152578Y0062667D02*
X0176367Y0062667D01*
X0175569Y0061869D02*
X0153376Y0061869D01*
X0154175Y0061070D02*
X0174770Y0061070D01*
X0173972Y0060272D02*
X0154973Y0060272D01*
X0031325Y0047496D02*
X0029750Y0047496D01*
X0030324Y0048294D02*
X0028951Y0048294D01*
X0029653Y0049093D02*
X0028153Y0049093D01*
X0027623Y0049891D02*
X0029322Y0049891D01*
X0029072Y0050690D02*
X0027872Y0050690D01*
X0027872Y0051488D02*
X0029072Y0051488D01*
X0029090Y0052287D02*
X0027855Y0052287D01*
X0027524Y0053085D02*
X0029421Y0053085D01*
X0029765Y0053884D02*
X0027180Y0053884D01*
X0026381Y0054682D02*
X0030564Y0054682D01*
X0030172Y0045100D02*
X0030983Y0045100D01*
X0030183Y0044302D02*
X0030172Y0044302D01*
X0028917Y0030727D02*
X0027872Y0030727D01*
X0027638Y0029928D02*
X0029104Y0029928D01*
X0029450Y0029130D02*
X0027308Y0029130D01*
X0026658Y0028331D02*
X0030004Y0028331D01*
X0030926Y0027533D02*
X0025710Y0027533D01*
X0170101Y0102593D02*
X0183052Y0102593D01*
X0181593Y0103391D02*
X0170899Y0103391D01*
X0171698Y0104190D02*
X0180795Y0104190D01*
X0180094Y0104988D02*
X0172496Y0104988D01*
X0173295Y0105787D02*
X0179764Y0105787D01*
X0179433Y0106585D02*
X0174093Y0106585D01*
X0174892Y0107384D02*
X0179210Y0107384D01*
X0179210Y0108182D02*
X0175691Y0108182D01*
X0176489Y0108981D02*
X0179210Y0108981D01*
X0179279Y0109779D02*
X0177288Y0109779D01*
X0178086Y0110578D02*
X0179609Y0110578D01*
X0179940Y0111376D02*
X0178885Y0111376D01*
X0179683Y0112175D02*
X0180423Y0112175D01*
X0180482Y0112973D02*
X0181221Y0112973D01*
X0181280Y0113772D02*
X0182154Y0113772D01*
X0182079Y0114571D02*
X0184081Y0114571D01*
X0185004Y0115369D02*
X0182877Y0115369D01*
X0183676Y0116168D02*
X0184673Y0116168D01*
X0209630Y0125750D02*
X0123258Y0125750D01*
X0124056Y0126548D02*
X0209334Y0126548D01*
X0229351Y0103391D02*
X0231091Y0103391D01*
X0230293Y0102593D02*
X0227893Y0102593D01*
X0284451Y0123354D02*
X0316690Y0123354D01*
X0318235Y0124153D02*
X0285305Y0124153D01*
X0291863Y0114571D02*
X0306270Y0114571D01*
X0305472Y0113772D02*
X0293791Y0113772D01*
X0294724Y0112973D02*
X0304673Y0112973D01*
X0303875Y0112175D02*
X0295522Y0112175D01*
X0296005Y0111376D02*
X0303076Y0111376D01*
X0302278Y0110578D02*
X0296335Y0110578D01*
X0296666Y0109779D02*
X0301479Y0109779D01*
X0300772Y0108981D02*
X0296735Y0108981D01*
X0296735Y0108182D02*
X0300772Y0108182D01*
X0300772Y0107384D02*
X0296735Y0107384D01*
X0296512Y0106585D02*
X0300772Y0106585D01*
X0300772Y0105787D02*
X0296181Y0105787D01*
X0295850Y0104988D02*
X0300772Y0104988D01*
X0300772Y0104190D02*
X0295150Y0104190D01*
X0294351Y0103391D02*
X0300772Y0103391D01*
X0300772Y0102593D02*
X0292893Y0102593D01*
X0304172Y0102593D02*
X0313052Y0102593D01*
X0311593Y0103391D02*
X0304172Y0103391D01*
X0304172Y0104190D02*
X0310795Y0104190D01*
X0310094Y0104988D02*
X0304172Y0104988D01*
X0304172Y0105787D02*
X0309764Y0105787D01*
X0309433Y0106585D02*
X0304172Y0106585D01*
X0304172Y0107384D02*
X0309210Y0107384D01*
X0309210Y0108182D02*
X0304691Y0108182D01*
X0305489Y0108981D02*
X0309210Y0108981D01*
X0309279Y0109779D02*
X0306288Y0109779D01*
X0307086Y0110578D02*
X0309609Y0110578D01*
X0309940Y0111376D02*
X0307885Y0111376D01*
X0308683Y0112175D02*
X0310423Y0112175D01*
X0311221Y0112973D02*
X0309482Y0112973D01*
X0310280Y0113772D02*
X0312154Y0113772D01*
X0311079Y0114571D02*
X0314081Y0114571D01*
X0315004Y0115369D02*
X0311877Y0115369D01*
X0312676Y0116168D02*
X0314673Y0116168D01*
D15*
X0308472Y0086369D03*
X0262972Y0085869D03*
X0184972Y0087869D03*
X0148372Y0078569D03*
X0142772Y0069969D03*
X0133972Y0064369D03*
X0145472Y0061369D03*
X0145472Y0054369D03*
X0137472Y0051869D03*
X0130472Y0050369D03*
X0109472Y0053369D03*
X0111972Y0062869D03*
X0091972Y0063369D03*
X0072972Y0077869D03*
X0047972Y0070869D03*
X0037472Y0060869D03*
X0043972Y0041369D03*
X0053972Y0035369D03*
X0061972Y0039369D03*
X0063472Y0033369D03*
X0065472Y0028869D03*
X0078972Y0029369D03*
X0099972Y0037369D03*
X0110472Y0037369D03*
X0086472Y0038869D03*
X0135472Y0037869D03*
X0181472Y0022369D03*
X0189972Y0033869D03*
X0230472Y0025369D03*
X0245972Y0015869D03*
X0314472Y0025369D03*
X0373472Y0016369D03*
X0376972Y0084369D03*
X0143972Y0020869D03*
X0133472Y0020869D03*
X0113472Y0010369D03*
X0054472Y0017369D03*
X0071972Y0090369D03*
D16*
X0061372Y0090369D01*
X0033472Y0062469D01*
X0033472Y0051369D01*
D17*
X0028472Y0046369D02*
X0023472Y0051369D01*
X0028472Y0046369D02*
X0028472Y0040369D01*
X0032472Y0036369D01*
X0037472Y0036369D01*
X0047472Y0026369D01*
X0062972Y0026369D01*
X0065472Y0028869D01*
X0061472Y0031369D02*
X0045472Y0031369D01*
X0035472Y0041369D01*
X0033472Y0041369D01*
X0043972Y0041369D02*
X0045972Y0039369D01*
X0061972Y0039369D01*
X0063472Y0033369D02*
X0061472Y0031369D01*
X0073972Y0031869D02*
X0073972Y0025869D01*
X0082472Y0017369D01*
X0231972Y0017369D01*
X0237472Y0022869D01*
X0237472Y0042369D01*
X0248472Y0053369D01*
X0255472Y0053369D01*
X0285472Y0074369D02*
X0193472Y0074369D01*
X0175472Y0056369D01*
X0148472Y0056369D01*
X0145472Y0059369D01*
X0145472Y0061369D01*
X0143472Y0064369D02*
X0141472Y0062369D01*
X0141472Y0051369D01*
X0119472Y0029369D01*
X0078972Y0029369D01*
X0073972Y0031869D02*
X0104972Y0062869D01*
X0111972Y0062869D01*
X0133972Y0064369D02*
X0133972Y0053869D01*
X0130472Y0050369D01*
X0137472Y0051869D02*
X0137472Y0072369D01*
X0182972Y0117869D01*
X0189972Y0117869D01*
X0190472Y0118369D01*
X0150472Y0131369D02*
X0126472Y0131369D01*
X0076472Y0081369D01*
X0071472Y0081369D01*
X0069472Y0079369D01*
X0069472Y0024369D01*
X0081472Y0012369D01*
X0111472Y0012369D01*
X0113472Y0010369D01*
X0081972Y0014869D02*
X0233472Y0014869D01*
X0241472Y0022869D01*
X0284972Y0022869D01*
X0315472Y0053369D01*
X0320472Y0053369D01*
X0367972Y0048869D02*
X0367972Y0028369D01*
X0355472Y0015869D01*
X0245972Y0015869D01*
X0178972Y0053369D02*
X0176472Y0050869D01*
X0144972Y0050869D01*
X0135472Y0041369D01*
X0135472Y0037869D01*
X0110472Y0037369D02*
X0109472Y0038369D01*
X0109472Y0053369D01*
X0143472Y0064369D02*
X0148472Y0064369D01*
X0154472Y0058369D01*
X0174472Y0058369D01*
X0192472Y0076369D01*
X0206472Y0076369D01*
X0248472Y0118369D01*
X0255472Y0118369D01*
X0302472Y0108369D02*
X0302472Y0091369D01*
X0285472Y0074369D01*
X0363472Y0072369D02*
X0194472Y0072369D01*
X0176472Y0054369D01*
X0145472Y0054369D01*
X0178972Y0053369D02*
X0190472Y0053369D01*
X0081972Y0014869D02*
X0071472Y0025369D01*
X0071472Y0076369D01*
X0072972Y0077869D01*
X0302472Y0108369D02*
X0312472Y0118369D01*
X0320472Y0118369D01*
X0373472Y0116369D02*
X0373472Y0082369D01*
X0363472Y0072369D01*
X0372472Y0053369D02*
X0367972Y0048869D01*
X0372472Y0053369D02*
X0385472Y0053369D01*
X0373472Y0116369D02*
X0375472Y0118369D01*
X0385472Y0118369D01*
D18*
X0150472Y0131369D03*
M02*
