G75*
%MOIN*%
%OFA0B0*%
%FSLAX25Y25*%
%IPPOS*%
%LPD*%
%AMOC8*
5,1,8,0,0,1.08239X$1,22.5*
%
%ADD10C,0.00500*%
%ADD11R,0.00100X0.00100*%
%ADD12R,0.02400X0.00100*%
%ADD13R,0.02000X0.00100*%
%ADD14R,0.00700X0.00100*%
%ADD15R,0.01400X0.00100*%
%ADD16R,0.01100X0.00100*%
%ADD17R,0.01000X0.00100*%
%ADD18R,0.00800X0.00100*%
%ADD19R,0.00600X0.00100*%
%ADD20R,0.00500X0.00100*%
%ADD21R,0.00400X0.00100*%
%ADD22R,0.00300X0.00100*%
%ADD23R,0.00200X0.00100*%
%ADD24R,0.02800X0.00100*%
%ADD25R,0.03400X0.00100*%
%ADD26R,0.03800X0.00100*%
%ADD27R,0.04300X0.00100*%
%ADD28R,0.04700X0.00100*%
%ADD29R,0.05000X0.00100*%
%ADD30R,0.05300X0.00100*%
%ADD31R,0.05600X0.00100*%
%ADD32R,0.05800X0.00100*%
%ADD33R,0.02900X0.00100*%
%ADD34R,0.02100X0.00100*%
%ADD35R,0.02300X0.00100*%
%ADD36R,0.01900X0.00100*%
%ADD37R,0.01700X0.00100*%
%ADD38R,0.03900X0.00100*%
%ADD39R,0.04900X0.00100*%
%ADD40R,0.05900X0.00100*%
%ADD41R,0.06600X0.00100*%
%ADD42R,0.07100X0.00100*%
%ADD43R,0.07600X0.00100*%
%ADD44R,0.08200X0.00100*%
%ADD45R,0.08500X0.00100*%
%ADD46R,0.08900X0.00100*%
%ADD47R,0.09300X0.00100*%
%ADD48R,0.09500X0.00100*%
%ADD49R,0.09800X0.00100*%
%ADD50R,0.10100X0.00100*%
%ADD51R,0.10400X0.00100*%
%ADD52R,0.10600X0.00100*%
%ADD53R,0.10800X0.00100*%
%ADD54R,0.11000X0.00100*%
%ADD55R,0.11200X0.00100*%
%ADD56R,0.11300X0.00100*%
%ADD57R,0.11400X0.00100*%
%ADD58R,0.11600X0.00100*%
%ADD59R,0.11700X0.00100*%
%ADD60R,0.11900X0.00100*%
%ADD61R,0.12000X0.00100*%
%ADD62R,0.12100X0.00100*%
%ADD63R,0.08100X0.00100*%
%ADD64R,0.00900X0.00100*%
%ADD65R,0.01200X0.00100*%
%ADD66R,0.01300X0.00100*%
%ADD67R,0.01500X0.00100*%
%ADD68R,0.01600X0.00100*%
%ADD69R,0.01800X0.00100*%
%ADD70R,0.02200X0.00100*%
%ADD71R,0.02500X0.00100*%
%ADD72R,0.02700X0.00100*%
%ADD73R,0.02600X0.00100*%
%ADD74R,0.03000X0.00100*%
%ADD75R,0.03100X0.00100*%
%ADD76R,0.03200X0.00100*%
%ADD77R,0.03300X0.00100*%
%ADD78R,0.03500X0.00100*%
%ADD79R,0.03600X0.00100*%
%ADD80R,0.03700X0.00100*%
%ADD81R,0.04000X0.00100*%
%ADD82R,0.04100X0.00100*%
%ADD83R,0.04200X0.00100*%
%ADD84R,0.04400X0.00100*%
%ADD85R,0.04500X0.00100*%
%ADD86R,0.04600X0.00100*%
%ADD87R,0.04800X0.00100*%
%ADD88R,0.05100X0.00100*%
%ADD89R,0.05400X0.00100*%
%ADD90R,0.05700X0.00100*%
%ADD91R,0.06100X0.00100*%
%ADD92R,0.06000X0.00100*%
%ADD93R,0.06200X0.00100*%
%ADD94R,0.06300X0.00100*%
%ADD95R,0.06400X0.00100*%
%ADD96R,0.06500X0.00100*%
%ADD97R,0.06700X0.00100*%
%ADD98R,0.06900X0.00100*%
%ADD99R,0.06800X0.00100*%
%ADD100R,0.07000X0.00100*%
%ADD101R,0.05500X0.00100*%
%ADD102R,0.05200X0.00100*%
%ADD103C,0.00800*%
%ADD104C,0.01000*%
%ADD105C,0.00300*%
%ADD106C,0.00600*%
%ADD107R,0.01181X0.00591*%
%ADD108R,0.01181X0.01181*%
%ADD109C,0.01100*%
%ADD110C,0.00400*%
%ADD111C,0.00591*%
D10*
X0006550Y0005918D02*
X0006550Y0008253D01*
X0006776Y0009193D02*
X0006776Y0069193D01*
X0066776Y0069193D01*
X0066776Y0009193D01*
X0006776Y0009193D01*
X0008885Y0008253D02*
X0008885Y0005918D01*
X0007718Y0004750D01*
X0006550Y0005918D01*
X0010233Y0005334D02*
X0010817Y0004750D01*
X0011985Y0004750D01*
X0012568Y0005334D01*
X0012568Y0007669D01*
X0011985Y0008253D01*
X0010817Y0008253D01*
X0010233Y0007669D01*
X0010233Y0005334D01*
X0013916Y0004750D02*
X0016252Y0004750D01*
X0013916Y0004750D02*
X0013916Y0008253D01*
X0021283Y0006501D02*
X0023618Y0006501D01*
X0022450Y0007669D02*
X0022450Y0005334D01*
X0011549Y0078813D02*
X0009213Y0080564D01*
X0011549Y0082316D01*
X0007866Y0082316D02*
X0005530Y0080564D01*
X0007866Y0078813D01*
X0006776Y0083996D02*
X0006776Y0143996D01*
X0066776Y0143996D01*
X0066776Y0083996D01*
X0006776Y0083996D01*
X0006999Y0153545D02*
X0006999Y0157048D01*
X0008750Y0157048D01*
X0009334Y0156464D01*
X0009334Y0155297D01*
X0008750Y0154713D01*
X0006999Y0154713D01*
X0010682Y0155297D02*
X0013017Y0155297D01*
X0013017Y0155881D02*
X0013017Y0153545D01*
X0014365Y0154129D02*
X0014365Y0156464D01*
X0014949Y0157048D01*
X0016117Y0157048D01*
X0016700Y0156464D01*
X0016700Y0155297D02*
X0015533Y0155297D01*
X0016700Y0155297D02*
X0016700Y0154129D01*
X0016117Y0153545D01*
X0014949Y0153545D01*
X0014365Y0154129D01*
X0013017Y0155881D02*
X0011850Y0157048D01*
X0010682Y0155881D01*
X0010682Y0153545D01*
X0006776Y0158799D02*
X0006776Y0218799D01*
X0066776Y0218799D01*
X0066776Y0158799D01*
X0006776Y0158799D01*
X0018048Y0157048D02*
X0018048Y0153545D01*
X0020384Y0153545D01*
X0019216Y0155297D02*
X0018048Y0155297D01*
X0018048Y0157048D02*
X0020384Y0157048D01*
X0025415Y0156464D02*
X0025415Y0155881D01*
X0025998Y0155297D01*
X0027166Y0155297D01*
X0027750Y0154713D01*
X0027750Y0154129D01*
X0027166Y0153545D01*
X0025998Y0153545D01*
X0025415Y0154129D01*
X0025415Y0156464D02*
X0025998Y0157048D01*
X0027166Y0157048D01*
X0027750Y0156464D01*
X0029098Y0157048D02*
X0029098Y0153545D01*
X0031433Y0153545D01*
X0032781Y0153545D02*
X0032781Y0157048D01*
X0031433Y0157048D02*
X0029098Y0157048D01*
X0029098Y0155297D02*
X0030265Y0155297D01*
X0032781Y0153545D02*
X0035116Y0153545D01*
X0036464Y0153545D02*
X0038799Y0153545D01*
X0040147Y0154129D02*
X0040147Y0156464D01*
X0040731Y0157048D01*
X0041899Y0157048D01*
X0042482Y0156464D01*
X0043830Y0157048D02*
X0046166Y0157048D01*
X0044998Y0157048D02*
X0044998Y0153545D01*
X0042482Y0154129D02*
X0041899Y0153545D01*
X0040731Y0153545D01*
X0040147Y0154129D01*
X0037632Y0155297D02*
X0036464Y0155297D01*
X0036464Y0157048D02*
X0036464Y0153545D01*
X0036464Y0157048D02*
X0038799Y0157048D01*
X0081550Y0156669D02*
X0081550Y0156085D01*
X0082134Y0155501D01*
X0083301Y0155501D01*
X0083885Y0154918D01*
X0083885Y0154334D01*
X0083301Y0153750D01*
X0082134Y0153750D01*
X0081550Y0154334D01*
X0081550Y0156669D02*
X0082134Y0157253D01*
X0083301Y0157253D01*
X0083885Y0156669D01*
X0085233Y0157253D02*
X0087568Y0157253D01*
X0086401Y0157253D02*
X0086401Y0153750D01*
X0088916Y0154334D02*
X0088916Y0156669D01*
X0089500Y0157253D01*
X0090668Y0157253D01*
X0091252Y0156669D01*
X0091252Y0154334D01*
X0090668Y0153750D01*
X0089500Y0153750D01*
X0088916Y0154334D01*
X0092599Y0154918D02*
X0094351Y0154918D01*
X0094935Y0155501D01*
X0094935Y0156669D01*
X0094351Y0157253D01*
X0092599Y0157253D01*
X0092599Y0153750D01*
X0081580Y0158799D02*
X0081580Y0218799D01*
X0141580Y0218799D01*
X0141580Y0158799D01*
X0081580Y0158799D01*
X0081580Y0143996D02*
X0141580Y0143996D01*
X0141580Y0083996D01*
X0081580Y0083996D01*
X0081580Y0143996D01*
X0082302Y0082316D02*
X0084637Y0080564D01*
X0082302Y0078813D01*
X0085985Y0078813D02*
X0088320Y0080564D01*
X0085985Y0082316D01*
X0081580Y0069193D02*
X0141580Y0069193D01*
X0141580Y0009193D01*
X0081580Y0009193D01*
X0081580Y0069193D01*
X0081550Y0008253D02*
X0081550Y0005918D01*
X0082718Y0004750D01*
X0083885Y0005918D01*
X0083885Y0008253D01*
X0085233Y0007669D02*
X0085233Y0005334D01*
X0085817Y0004750D01*
X0086985Y0004750D01*
X0087568Y0005334D01*
X0087568Y0007669D01*
X0086985Y0008253D01*
X0085817Y0008253D01*
X0085233Y0007669D01*
X0088916Y0008253D02*
X0088916Y0004750D01*
X0091252Y0004750D01*
X0096283Y0006501D02*
X0098618Y0006501D01*
X0156383Y0009193D02*
X0156383Y0069193D01*
X0216383Y0069193D01*
X0216383Y0009193D01*
X0156383Y0009193D01*
X0156605Y0008316D02*
X0158357Y0008316D01*
X0158940Y0007732D01*
X0158940Y0005397D01*
X0158357Y0004813D01*
X0156605Y0004813D01*
X0156605Y0008316D01*
X0160288Y0008316D02*
X0160288Y0004813D01*
X0162624Y0004813D01*
X0163971Y0005397D02*
X0164555Y0004813D01*
X0165723Y0004813D01*
X0166307Y0005397D01*
X0166307Y0005981D01*
X0165723Y0006564D01*
X0164555Y0006564D01*
X0163971Y0007148D01*
X0163971Y0007732D01*
X0164555Y0008316D01*
X0165723Y0008316D01*
X0166307Y0007732D01*
X0167655Y0008316D02*
X0167655Y0004813D01*
X0167655Y0005981D02*
X0169990Y0008316D01*
X0171338Y0008316D02*
X0173673Y0008316D01*
X0172505Y0008316D02*
X0172505Y0004813D01*
X0169990Y0004813D02*
X0168238Y0006564D01*
X0162624Y0008316D02*
X0160288Y0008316D01*
X0160288Y0006564D02*
X0161456Y0006564D01*
X0175021Y0005397D02*
X0175605Y0004813D01*
X0176772Y0004813D01*
X0177356Y0005397D01*
X0177356Y0007732D01*
X0176772Y0008316D01*
X0175605Y0008316D01*
X0175021Y0007732D01*
X0175021Y0005397D01*
X0178704Y0005981D02*
X0180455Y0005981D01*
X0181039Y0006564D01*
X0181039Y0007732D01*
X0180455Y0008316D01*
X0178704Y0008316D01*
X0178704Y0004813D01*
X0170490Y0078813D02*
X0168155Y0078813D01*
X0168155Y0082316D01*
X0170490Y0082316D01*
X0169322Y0080564D02*
X0168155Y0080564D01*
X0166807Y0082316D02*
X0164471Y0082316D01*
X0165639Y0082316D02*
X0165639Y0078813D01*
X0163124Y0079397D02*
X0163124Y0082316D01*
X0160788Y0082316D02*
X0160788Y0079397D01*
X0161372Y0078813D01*
X0162540Y0078813D01*
X0163124Y0079397D01*
X0159440Y0078813D02*
X0159440Y0082316D01*
X0158273Y0081148D01*
X0157105Y0082316D01*
X0157105Y0078813D01*
X0156383Y0083996D02*
X0156383Y0143996D01*
X0216383Y0143996D01*
X0216383Y0083996D01*
X0156383Y0083996D01*
X0156550Y0153750D02*
X0156550Y0157253D01*
X0158301Y0157253D01*
X0158885Y0156669D01*
X0158885Y0155501D01*
X0158301Y0154918D01*
X0156550Y0154918D01*
X0160233Y0153750D02*
X0160233Y0157253D01*
X0160233Y0153750D02*
X0162568Y0153750D01*
X0163916Y0153750D02*
X0163916Y0156085D01*
X0165084Y0157253D01*
X0166252Y0156085D01*
X0166252Y0153750D01*
X0166252Y0155501D02*
X0163916Y0155501D01*
X0167599Y0156669D02*
X0168767Y0155501D01*
X0168767Y0153750D01*
X0168767Y0155501D02*
X0169935Y0156669D01*
X0169935Y0157253D01*
X0167599Y0157253D02*
X0167599Y0156669D01*
X0171283Y0153750D02*
X0173618Y0157253D01*
X0174966Y0157253D02*
X0174966Y0153750D01*
X0174966Y0154918D02*
X0176717Y0154918D01*
X0177301Y0155501D01*
X0177301Y0156669D01*
X0176717Y0157253D01*
X0174966Y0157253D01*
X0178649Y0156085D02*
X0179817Y0157253D01*
X0180984Y0156085D01*
X0180984Y0153750D01*
X0182332Y0154334D02*
X0182332Y0157253D01*
X0180984Y0155501D02*
X0178649Y0155501D01*
X0178649Y0156085D02*
X0178649Y0153750D01*
X0182332Y0154334D02*
X0182916Y0153750D01*
X0184084Y0153750D01*
X0184667Y0154334D01*
X0184667Y0157253D01*
X0186015Y0156669D02*
X0186015Y0156085D01*
X0186599Y0155501D01*
X0187767Y0155501D01*
X0188350Y0154918D01*
X0188350Y0154334D01*
X0187767Y0153750D01*
X0186599Y0153750D01*
X0186015Y0154334D01*
X0186015Y0156669D02*
X0186599Y0157253D01*
X0187767Y0157253D01*
X0188350Y0156669D01*
X0189698Y0157253D02*
X0189698Y0153750D01*
X0192034Y0153750D01*
X0190866Y0155501D02*
X0189698Y0155501D01*
X0189698Y0157253D02*
X0192034Y0157253D01*
X0216383Y0158799D02*
X0216383Y0218799D01*
X0156383Y0218799D01*
X0156383Y0158799D01*
X0216383Y0158799D01*
X0184618Y0237250D02*
X0185202Y0237834D01*
X0185202Y0240169D01*
X0184618Y0240753D01*
X0183451Y0240753D01*
X0182867Y0240169D01*
X0182867Y0239585D01*
X0183451Y0239001D01*
X0185202Y0239001D01*
X0184618Y0237250D02*
X0183451Y0237250D01*
X0182867Y0237834D01*
X0181519Y0237250D02*
X0180351Y0238418D01*
X0180935Y0238418D02*
X0179184Y0238418D01*
X0179184Y0237250D02*
X0179184Y0240753D01*
X0180935Y0240753D01*
X0181519Y0240169D01*
X0181519Y0239001D01*
X0180935Y0238418D01*
X0181519Y0243250D02*
X0180351Y0244418D01*
X0180935Y0244418D02*
X0179184Y0244418D01*
X0179184Y0243250D02*
X0179184Y0246753D01*
X0180935Y0246753D01*
X0181519Y0246169D01*
X0181519Y0245001D01*
X0180935Y0244418D01*
X0182867Y0243834D02*
X0183451Y0243250D01*
X0184618Y0243250D01*
X0185202Y0243834D01*
X0185202Y0244418D01*
X0184618Y0245001D01*
X0184035Y0245001D01*
X0184618Y0245001D02*
X0185202Y0245585D01*
X0185202Y0246169D01*
X0184618Y0246753D01*
X0183451Y0246753D01*
X0182867Y0246169D01*
X0182867Y0249250D02*
X0182867Y0249834D01*
X0185202Y0252169D01*
X0185202Y0252753D01*
X0182867Y0252753D01*
X0181519Y0252169D02*
X0181519Y0251001D01*
X0180935Y0250418D01*
X0179184Y0250418D01*
X0180351Y0250418D02*
X0181519Y0249250D01*
X0179184Y0249250D02*
X0179184Y0252753D01*
X0180935Y0252753D01*
X0181519Y0252169D01*
X0203400Y0268534D02*
X0203984Y0267950D01*
X0205151Y0267950D01*
X0205735Y0268534D01*
X0205735Y0270869D01*
X0205151Y0271453D01*
X0203984Y0271453D01*
X0203400Y0270869D01*
X0203400Y0268534D01*
X0204568Y0269118D02*
X0205735Y0267950D01*
X0207083Y0267950D02*
X0209418Y0267950D01*
X0208251Y0267950D02*
X0208251Y0271453D01*
X0207083Y0270285D01*
X0212550Y0252753D02*
X0214301Y0252753D01*
X0214885Y0252169D01*
X0214885Y0251001D01*
X0214301Y0250418D01*
X0212550Y0250418D01*
X0213718Y0250418D02*
X0214885Y0249250D01*
X0216233Y0249834D02*
X0216233Y0250418D01*
X0216817Y0251001D01*
X0217985Y0251001D01*
X0218568Y0250418D01*
X0218568Y0249834D01*
X0217985Y0249250D01*
X0216817Y0249250D01*
X0216233Y0249834D01*
X0216817Y0251001D02*
X0216233Y0251585D01*
X0216233Y0252169D01*
X0216817Y0252753D01*
X0217985Y0252753D01*
X0218568Y0252169D01*
X0218568Y0251585D01*
X0217985Y0251001D01*
X0217985Y0246753D02*
X0216233Y0245001D01*
X0218568Y0245001D01*
X0217985Y0243250D02*
X0217985Y0246753D01*
X0214885Y0246169D02*
X0214885Y0245001D01*
X0214301Y0244418D01*
X0212550Y0244418D01*
X0213718Y0244418D02*
X0214885Y0243250D01*
X0212550Y0243250D02*
X0212550Y0246753D01*
X0214301Y0246753D01*
X0214885Y0246169D01*
X0212550Y0249250D02*
X0212550Y0252753D01*
X0181951Y0287550D02*
X0182535Y0288134D01*
X0182535Y0290469D01*
X0181951Y0291053D01*
X0180199Y0291053D01*
X0180199Y0287550D01*
X0181951Y0287550D01*
X0178852Y0287550D02*
X0177684Y0288718D01*
X0178268Y0288718D02*
X0176516Y0288718D01*
X0176516Y0287550D02*
X0176516Y0291053D01*
X0178268Y0291053D01*
X0178852Y0290469D01*
X0178852Y0289301D01*
X0178268Y0288718D01*
X0175168Y0289301D02*
X0172833Y0289301D01*
X0172833Y0289885D02*
X0174001Y0291053D01*
X0175168Y0289885D01*
X0175168Y0287550D01*
X0172833Y0287550D02*
X0172833Y0289885D01*
X0171485Y0290469D02*
X0170901Y0291053D01*
X0169734Y0291053D01*
X0169150Y0290469D01*
X0169150Y0288134D01*
X0169734Y0287550D01*
X0170901Y0287550D01*
X0171485Y0288134D01*
X0171485Y0290469D01*
X0170318Y0293550D02*
X0170318Y0297053D01*
X0171485Y0297053D02*
X0169150Y0297053D01*
X0167802Y0297053D02*
X0165467Y0297053D01*
X0166634Y0297053D02*
X0166634Y0293550D01*
X0167218Y0291053D02*
X0167802Y0290469D01*
X0167802Y0289885D01*
X0167218Y0289301D01*
X0165467Y0289301D01*
X0165467Y0287550D02*
X0165467Y0291053D01*
X0167218Y0291053D01*
X0167218Y0289301D02*
X0167802Y0288718D01*
X0167802Y0288134D01*
X0167218Y0287550D01*
X0165467Y0287550D01*
X0162951Y0287550D02*
X0162951Y0289301D01*
X0164119Y0290469D01*
X0164119Y0291053D01*
X0162951Y0289301D02*
X0161784Y0290469D01*
X0161784Y0291053D01*
X0160436Y0291053D02*
X0158101Y0291053D01*
X0158101Y0287550D01*
X0160436Y0287550D01*
X0159268Y0289301D02*
X0158101Y0289301D01*
X0156753Y0287550D02*
X0155001Y0289301D01*
X0154417Y0288718D02*
X0156753Y0291053D01*
X0154417Y0291053D02*
X0154417Y0287550D01*
X0158101Y0293550D02*
X0159852Y0293550D01*
X0160436Y0294134D01*
X0160436Y0294718D01*
X0159852Y0295301D01*
X0158101Y0295301D01*
X0158101Y0293550D02*
X0158101Y0297053D01*
X0159852Y0297053D01*
X0160436Y0296469D01*
X0160436Y0295885D01*
X0159852Y0295301D01*
X0161784Y0294134D02*
X0162368Y0293550D01*
X0163535Y0293550D01*
X0164119Y0294134D01*
X0164119Y0297053D01*
X0161784Y0297053D02*
X0161784Y0294134D01*
X0161694Y0299550D02*
X0162277Y0300134D01*
X0162277Y0303053D01*
X0163625Y0302469D02*
X0163625Y0301885D01*
X0164209Y0301301D01*
X0165377Y0301301D01*
X0165961Y0300718D01*
X0165961Y0300134D01*
X0165377Y0299550D01*
X0164209Y0299550D01*
X0163625Y0300134D01*
X0161694Y0299550D02*
X0160526Y0299550D01*
X0159942Y0300134D01*
X0159942Y0303053D01*
X0163625Y0302469D02*
X0164209Y0303053D01*
X0165377Y0303053D01*
X0165961Y0302469D01*
X0167308Y0303053D02*
X0169060Y0303053D01*
X0169644Y0302469D01*
X0169644Y0301885D01*
X0169060Y0301301D01*
X0167308Y0301301D01*
X0167308Y0299550D02*
X0169060Y0299550D01*
X0169644Y0300134D01*
X0169644Y0300718D01*
X0169060Y0301301D01*
X0167308Y0299550D02*
X0167308Y0303053D01*
X0173417Y0297053D02*
X0172833Y0296469D01*
X0172833Y0294134D01*
X0173417Y0293550D01*
X0174585Y0293550D01*
X0175168Y0294134D01*
X0175168Y0296469D01*
X0174585Y0297053D01*
X0173417Y0297053D01*
X0176516Y0297053D02*
X0176516Y0293550D01*
X0178852Y0293550D02*
X0176516Y0297053D01*
X0176426Y0299550D02*
X0177010Y0300134D01*
X0177010Y0302469D01*
X0176426Y0303053D01*
X0175259Y0303053D01*
X0174675Y0302469D01*
X0174675Y0301885D01*
X0175259Y0301301D01*
X0177010Y0301301D01*
X0176426Y0299550D02*
X0175259Y0299550D01*
X0174675Y0300134D01*
X0178852Y0297053D02*
X0178852Y0293550D01*
X0178492Y0313140D02*
X0177325Y0313140D01*
X0176741Y0313724D01*
X0179076Y0316059D01*
X0179076Y0313724D01*
X0178492Y0313140D01*
X0176741Y0313724D02*
X0176741Y0316059D01*
X0177325Y0316643D01*
X0178492Y0316643D01*
X0179076Y0316059D01*
X0175393Y0313140D02*
X0173058Y0313140D01*
X0174225Y0313140D02*
X0174225Y0316643D01*
X0173058Y0315475D01*
X0171710Y0316059D02*
X0171710Y0314891D01*
X0171126Y0314307D01*
X0169375Y0314307D01*
X0169375Y0313140D02*
X0169375Y0316643D01*
X0171126Y0316643D01*
X0171710Y0316059D01*
X0170542Y0314307D02*
X0171710Y0313140D01*
X0150376Y0272761D02*
X0149550Y0272761D01*
X0147899Y0271110D01*
X0147899Y0270284D01*
X0148724Y0269459D01*
X0149550Y0269459D01*
X0150503Y0268506D02*
X0150503Y0267680D01*
X0151329Y0266854D01*
X0152154Y0266854D01*
X0152567Y0267267D01*
X0152567Y0268093D01*
X0152154Y0268506D01*
X0152567Y0268093D02*
X0153393Y0268093D01*
X0153806Y0268506D01*
X0153806Y0269331D01*
X0152980Y0270157D01*
X0152154Y0270157D01*
X0151201Y0271110D02*
X0151201Y0271936D01*
X0150376Y0272761D01*
X0141388Y0259090D02*
X0139324Y0257026D01*
X0139324Y0256200D01*
X0140149Y0255374D01*
X0140975Y0255374D01*
X0143039Y0257438D01*
X0143167Y0255660D02*
X0144818Y0255660D01*
X0142341Y0253183D01*
X0141515Y0254008D02*
X0143167Y0252357D01*
X0113522Y0295404D02*
X0113522Y0297155D01*
X0112939Y0297739D01*
X0110603Y0297739D01*
X0110019Y0297155D01*
X0110019Y0295404D01*
X0113522Y0295404D01*
X0113522Y0299087D02*
X0113522Y0301422D01*
X0113522Y0300254D02*
X0110019Y0300254D01*
X0111187Y0299087D01*
X0100895Y0295510D02*
X0099244Y0293859D01*
X0099244Y0297161D01*
X0098831Y0297574D01*
X0098005Y0297574D01*
X0097180Y0296749D01*
X0097180Y0295923D01*
X0096227Y0294970D02*
X0095401Y0294970D01*
X0094575Y0294144D01*
X0094575Y0293319D01*
X0096227Y0291667D01*
X0097052Y0291667D01*
X0097878Y0292493D01*
X0097878Y0293319D01*
X0091492Y0285601D02*
X0092318Y0284775D01*
X0092318Y0283950D01*
X0092858Y0282584D02*
X0094509Y0282584D01*
X0092032Y0280107D01*
X0091207Y0280932D02*
X0092858Y0279281D01*
X0090667Y0282298D02*
X0089841Y0282298D01*
X0089015Y0283124D01*
X0089015Y0283950D01*
X0090667Y0285601D01*
X0091492Y0285601D01*
X0073524Y0304654D02*
X0073524Y0309654D01*
X0071524Y0311654D01*
X0073524Y0313654D01*
X0073524Y0319654D01*
X0071524Y0321654D01*
X0073524Y0323654D01*
X0073524Y0328654D01*
X0070524Y0331654D01*
X0056524Y0331654D01*
X0053524Y0328654D01*
X0053524Y0323654D01*
X0055524Y0321654D01*
X0053524Y0319654D01*
X0053524Y0313654D01*
X0055524Y0311654D01*
X0053524Y0309654D01*
X0053524Y0304654D01*
X0056524Y0301654D01*
X0070524Y0301654D01*
X0073524Y0304654D01*
X0087519Y0315423D02*
X0088687Y0316591D01*
X0087519Y0317758D01*
X0091022Y0317758D01*
X0090439Y0319106D02*
X0091022Y0319690D01*
X0091022Y0320858D01*
X0090439Y0321441D01*
X0087519Y0321441D01*
X0088103Y0322789D02*
X0088687Y0322789D01*
X0089271Y0323373D01*
X0089271Y0324541D01*
X0089855Y0325125D01*
X0090439Y0325125D01*
X0091022Y0324541D01*
X0091022Y0323373D01*
X0090439Y0322789D01*
X0088103Y0322789D02*
X0087519Y0323373D01*
X0087519Y0324541D01*
X0088103Y0325125D01*
X0087519Y0326472D02*
X0087519Y0328224D01*
X0088103Y0328808D01*
X0088687Y0328808D01*
X0089271Y0328224D01*
X0089271Y0326472D01*
X0091022Y0326472D02*
X0087519Y0326472D01*
X0089271Y0328224D02*
X0089855Y0328808D01*
X0090439Y0328808D01*
X0091022Y0328224D01*
X0091022Y0326472D01*
X0090439Y0319106D02*
X0087519Y0319106D01*
X0087519Y0315423D02*
X0091022Y0315423D01*
X0074836Y0246437D02*
X0077313Y0243960D01*
X0076488Y0243134D02*
X0078139Y0244785D01*
X0074836Y0244785D02*
X0074836Y0246437D01*
X0073470Y0244245D02*
X0072645Y0244245D01*
X0071406Y0243007D01*
X0073883Y0240530D01*
X0073058Y0241355D02*
X0074296Y0242594D01*
X0074296Y0243419D01*
X0073470Y0244245D01*
X0073883Y0242181D02*
X0075535Y0242181D01*
X0091639Y0225582D02*
X0091226Y0225169D01*
X0091226Y0223518D01*
X0089987Y0222280D01*
X0091226Y0223518D02*
X0092877Y0223518D01*
X0093290Y0223931D01*
X0093417Y0222152D02*
X0095069Y0222152D01*
X0092592Y0219675D01*
X0093417Y0218850D02*
X0091766Y0220501D01*
X0012702Y0222834D02*
X0012118Y0222250D01*
X0010951Y0222250D01*
X0010367Y0222834D01*
X0010367Y0224001D02*
X0011535Y0224585D01*
X0012118Y0224585D01*
X0012702Y0224001D01*
X0012702Y0222834D01*
X0010367Y0224001D02*
X0010367Y0225753D01*
X0012702Y0225753D01*
X0012702Y0228250D02*
X0010367Y0228250D01*
X0012702Y0230585D01*
X0012702Y0231169D01*
X0012118Y0231753D01*
X0010951Y0231753D01*
X0010367Y0231169D01*
X0009019Y0231169D02*
X0009019Y0230001D01*
X0008435Y0229418D01*
X0006684Y0229418D01*
X0007851Y0229418D02*
X0009019Y0228250D01*
X0006684Y0228250D02*
X0006684Y0231753D01*
X0008435Y0231753D01*
X0009019Y0231169D01*
X0009019Y0234250D02*
X0007851Y0235418D01*
X0008435Y0235418D02*
X0006684Y0235418D01*
X0006684Y0234250D02*
X0006684Y0237753D01*
X0008435Y0237753D01*
X0009019Y0237169D01*
X0009019Y0236001D01*
X0008435Y0235418D01*
X0010367Y0236001D02*
X0012118Y0236001D01*
X0012702Y0235418D01*
X0012702Y0234834D01*
X0012118Y0234250D01*
X0010951Y0234250D01*
X0010367Y0234834D01*
X0010367Y0236001D01*
X0011535Y0237169D01*
X0012702Y0237753D01*
X0008435Y0225753D02*
X0006684Y0225753D01*
X0006684Y0222250D01*
X0006684Y0223418D02*
X0008435Y0223418D01*
X0009019Y0224001D01*
X0009019Y0225169D01*
X0008435Y0225753D01*
X0007851Y0223418D02*
X0009019Y0222250D01*
D11*
X0026900Y0248200D03*
X0027800Y0248200D03*
X0028300Y0247900D03*
X0028900Y0248000D03*
X0029700Y0247700D03*
X0029800Y0247900D03*
X0030000Y0247700D03*
X0031900Y0247800D03*
X0033000Y0247900D03*
X0033800Y0248000D03*
X0034300Y0248100D03*
X0031400Y0254100D03*
X0031200Y0254100D03*
X0030900Y0254100D03*
X0032000Y0255200D03*
X0029300Y0255500D03*
X0030700Y0257800D03*
X0030900Y0257800D03*
X0029500Y0260700D03*
X0029000Y0260700D03*
X0028600Y0260700D03*
X0028300Y0260700D03*
X0027800Y0260700D03*
X0023100Y0266600D03*
X0021100Y0280100D03*
X0020500Y0280100D03*
X0020700Y0281100D03*
X0021400Y0281100D03*
X0021100Y0282400D03*
X0021500Y0284300D03*
X0019900Y0284100D03*
X0019400Y0284100D03*
X0023200Y0283100D03*
X0021800Y0288500D03*
X0031300Y0307100D03*
X0031500Y0307200D03*
X0033000Y0307000D03*
X0033100Y0307100D03*
X0037700Y0305900D03*
X0039400Y0305100D03*
X0040800Y0304300D03*
X0041100Y0304100D03*
X0042000Y0303500D03*
X0042300Y0303300D03*
X0042800Y0302900D03*
X0043100Y0302600D03*
X0043700Y0302100D03*
X0044100Y0301700D03*
X0044300Y0301500D03*
X0044600Y0301200D03*
X0045100Y0300600D03*
X0045500Y0300100D03*
X0045800Y0299700D03*
X0041700Y0288600D03*
X0040600Y0288700D03*
X0041200Y0284100D03*
X0039500Y0282800D03*
X0041100Y0280000D03*
X0039600Y0266600D03*
X0036700Y0260600D03*
X0036400Y0260600D03*
X0035000Y0260600D03*
X0034700Y0260600D03*
X0034500Y0260600D03*
X0043400Y0254200D03*
X0043200Y0253900D03*
X0042900Y0253500D03*
X0042500Y0253000D03*
X0041900Y0252300D03*
X0041700Y0252100D03*
X0040500Y0250900D03*
X0043700Y0254600D03*
X0043900Y0254900D03*
X0044000Y0255100D03*
X0044200Y0255400D03*
X0044300Y0255600D03*
X0044500Y0255900D03*
X0044600Y0256100D03*
X0044700Y0256300D03*
X0044800Y0256500D03*
X0045100Y0257000D03*
X0045200Y0257300D03*
X0045400Y0257700D03*
X0045500Y0257900D03*
X0045700Y0258400D03*
X0045800Y0258600D03*
X0045900Y0258900D03*
X0046000Y0259200D03*
X0046100Y0259400D03*
X0046200Y0259700D03*
X0046300Y0260000D03*
X0046400Y0260300D03*
X0046600Y0260900D03*
X0046700Y0261200D03*
X0046900Y0261900D03*
X0047200Y0263000D03*
D12*
X0040750Y0269900D03*
X0040850Y0270200D03*
X0031350Y0247700D03*
X0021850Y0269800D03*
X0021850Y0269900D03*
X0022150Y0297000D03*
X0022150Y0297100D03*
X0040450Y0297300D03*
X0040550Y0297200D03*
D13*
X0040350Y0297700D03*
X0040250Y0297900D03*
X0041750Y0281400D03*
X0040550Y0269100D03*
X0040550Y0269000D03*
X0031250Y0254200D03*
X0029950Y0247800D03*
X0022050Y0269100D03*
X0020750Y0280000D03*
X0020950Y0281300D03*
X0022050Y0288400D03*
X0022350Y0297600D03*
D14*
X0023100Y0299100D03*
X0028700Y0307000D03*
X0039600Y0299200D03*
X0039900Y0282600D03*
X0043700Y0282600D03*
X0034000Y0260600D03*
X0035200Y0248200D03*
X0031400Y0247800D03*
X0026600Y0248400D03*
X0026300Y0248500D03*
X0025700Y0248700D03*
X0022800Y0267100D03*
X0022700Y0282600D03*
X0018900Y0282700D03*
D15*
X0020950Y0281200D03*
X0022450Y0268000D03*
X0022450Y0267900D03*
X0032750Y0247800D03*
X0040250Y0267900D03*
X0040250Y0268000D03*
X0043250Y0282400D03*
X0039950Y0298600D03*
X0022750Y0298400D03*
D16*
X0032400Y0307100D03*
X0039800Y0298900D03*
X0040100Y0267500D03*
X0040100Y0267400D03*
X0032000Y0257800D03*
X0033800Y0255500D03*
X0029000Y0247900D03*
X0022600Y0267500D03*
X0022600Y0267600D03*
D17*
X0022650Y0267400D03*
X0027850Y0248100D03*
X0028250Y0248000D03*
X0033650Y0247900D03*
X0040050Y0267300D03*
X0043450Y0282500D03*
X0039750Y0299000D03*
X0022950Y0298900D03*
D18*
X0022950Y0299000D03*
X0022750Y0267200D03*
X0028750Y0255500D03*
X0026950Y0248300D03*
X0034350Y0248000D03*
X0039850Y0267000D03*
X0039950Y0267100D03*
D19*
X0039850Y0266900D03*
X0039750Y0266800D03*
X0041750Y0281100D03*
X0040050Y0291500D03*
X0039550Y0299300D03*
X0028050Y0306900D03*
X0027450Y0306800D03*
X0023050Y0299200D03*
X0022850Y0267000D03*
X0025150Y0248900D03*
X0025450Y0248800D03*
X0025950Y0248600D03*
X0027350Y0248200D03*
X0034850Y0248100D03*
D20*
X0035600Y0248300D03*
X0035900Y0248400D03*
X0036300Y0248500D03*
X0037100Y0248800D03*
X0039700Y0266700D03*
X0039700Y0282700D03*
X0043900Y0282700D03*
X0040700Y0291500D03*
X0034600Y0306900D03*
X0030900Y0307100D03*
X0026200Y0306500D03*
X0023200Y0299300D03*
X0022800Y0282700D03*
X0012900Y0282500D03*
X0022900Y0266900D03*
X0022600Y0250300D03*
X0022800Y0250200D03*
X0023100Y0250000D03*
X0023400Y0249800D03*
X0023900Y0249500D03*
X0024100Y0249400D03*
X0024300Y0249300D03*
X0024500Y0249200D03*
X0024700Y0249100D03*
X0024900Y0249000D03*
D21*
X0023750Y0249600D03*
X0023550Y0249700D03*
X0023250Y0249900D03*
X0022950Y0250100D03*
X0022550Y0250400D03*
X0022250Y0250600D03*
X0022150Y0250700D03*
X0022050Y0250800D03*
X0021750Y0251100D03*
X0021550Y0251200D03*
X0021250Y0251600D03*
X0020950Y0251900D03*
X0020650Y0252300D03*
X0020350Y0252700D03*
X0020050Y0253100D03*
X0019750Y0253500D03*
X0019550Y0253800D03*
X0019350Y0254100D03*
X0019050Y0254600D03*
X0018850Y0254900D03*
X0018750Y0255100D03*
X0018450Y0255600D03*
X0018350Y0255800D03*
X0018150Y0256200D03*
X0017950Y0256500D03*
X0017750Y0256900D03*
X0017450Y0257600D03*
X0017350Y0257800D03*
X0017250Y0258000D03*
X0017050Y0258500D03*
X0016950Y0258700D03*
X0016850Y0259000D03*
X0016750Y0259200D03*
X0016650Y0259500D03*
X0016550Y0259700D03*
X0016450Y0260000D03*
X0016350Y0260300D03*
X0016250Y0260600D03*
X0016150Y0260800D03*
X0016150Y0260900D03*
X0016050Y0261200D03*
X0015950Y0261500D03*
X0015850Y0261800D03*
X0015750Y0262100D03*
X0015650Y0262500D03*
X0015550Y0262800D03*
X0015450Y0263200D03*
X0015350Y0263500D03*
X0015350Y0263600D03*
X0015250Y0263900D03*
X0015150Y0264300D03*
X0015150Y0264400D03*
X0014950Y0265100D03*
X0014950Y0265200D03*
X0014850Y0265600D03*
X0014850Y0265700D03*
X0014750Y0266000D03*
X0014750Y0266200D03*
X0014650Y0266400D03*
X0014650Y0266600D03*
X0014550Y0267000D03*
X0014550Y0267100D03*
X0014450Y0267400D03*
X0014450Y0267600D03*
X0014450Y0267700D03*
X0014350Y0268100D03*
X0014350Y0268200D03*
X0014350Y0268300D03*
X0014250Y0268600D03*
X0014250Y0268700D03*
X0014150Y0269200D03*
X0014150Y0269300D03*
X0014150Y0269400D03*
X0014150Y0269500D03*
X0014050Y0269800D03*
X0014050Y0270000D03*
X0013950Y0270400D03*
X0013950Y0270600D03*
X0013950Y0270800D03*
X0013850Y0271100D03*
X0013850Y0271300D03*
X0013750Y0271800D03*
X0013750Y0272000D03*
X0013750Y0272100D03*
X0013750Y0272200D03*
X0013750Y0272300D03*
X0013650Y0272600D03*
X0013650Y0272800D03*
X0013650Y0272900D03*
X0013550Y0273400D03*
X0013550Y0273500D03*
X0013550Y0273600D03*
X0013550Y0273700D03*
X0013550Y0273900D03*
X0013450Y0274300D03*
X0013450Y0274500D03*
X0013450Y0274600D03*
X0013450Y0274700D03*
X0013450Y0274900D03*
X0013350Y0275200D03*
X0013350Y0275400D03*
X0013350Y0275500D03*
X0013350Y0275600D03*
X0013350Y0275700D03*
X0013350Y0275800D03*
X0013350Y0276000D03*
X0013250Y0276400D03*
X0013250Y0276600D03*
X0013250Y0276700D03*
X0013250Y0277000D03*
X0013150Y0277200D03*
X0013150Y0277500D03*
X0013150Y0277800D03*
X0013150Y0277900D03*
X0013150Y0278000D03*
X0013150Y0278200D03*
X0013150Y0278400D03*
X0013050Y0278800D03*
X0013050Y0279000D03*
X0013050Y0279200D03*
X0013050Y0279300D03*
X0013050Y0279500D03*
X0013050Y0279700D03*
X0013050Y0280100D03*
X0012950Y0280200D03*
X0012950Y0280500D03*
X0012950Y0280600D03*
X0012950Y0280800D03*
X0012950Y0280900D03*
X0012950Y0281100D03*
X0012950Y0281200D03*
X0012950Y0281300D03*
X0012950Y0281600D03*
X0012950Y0281700D03*
X0012950Y0282200D03*
X0012850Y0283200D03*
X0012850Y0283800D03*
X0012850Y0284000D03*
X0012850Y0284400D03*
X0012850Y0285000D03*
X0012850Y0285400D03*
X0012950Y0286100D03*
X0012950Y0286300D03*
X0012950Y0286600D03*
X0012950Y0286800D03*
X0012950Y0287000D03*
X0012950Y0287200D03*
X0012950Y0287400D03*
X0012950Y0287600D03*
X0013050Y0288200D03*
X0013050Y0288400D03*
X0013050Y0288500D03*
X0013050Y0288700D03*
X0013150Y0289200D03*
X0013150Y0289400D03*
X0013150Y0289500D03*
X0013150Y0289700D03*
X0013250Y0290100D03*
X0013250Y0290200D03*
X0013250Y0290400D03*
X0013350Y0290800D03*
X0013350Y0290900D03*
X0013450Y0291400D03*
X0013450Y0291500D03*
X0013550Y0292000D03*
X0013650Y0292400D03*
X0013750Y0292800D03*
X0013850Y0293200D03*
X0013950Y0293600D03*
X0014050Y0293900D03*
X0014250Y0294600D03*
X0014350Y0294900D03*
X0014650Y0295700D03*
X0014850Y0296200D03*
X0014950Y0296400D03*
X0015550Y0297600D03*
X0015750Y0298000D03*
X0016350Y0299000D03*
X0016550Y0299300D03*
X0018050Y0301200D03*
X0019550Y0302700D03*
X0022050Y0304600D03*
X0023050Y0305200D03*
X0023450Y0305400D03*
X0023850Y0305600D03*
X0024050Y0305700D03*
X0024550Y0305900D03*
X0025250Y0306200D03*
X0025550Y0306300D03*
X0025850Y0306400D03*
X0026550Y0306600D03*
X0026950Y0306700D03*
X0034050Y0307000D03*
X0039450Y0299400D03*
X0049750Y0285300D03*
X0049750Y0281600D03*
X0049750Y0281300D03*
X0049750Y0281000D03*
X0049750Y0280400D03*
X0049650Y0279200D03*
X0049650Y0279100D03*
X0049550Y0277900D03*
X0049050Y0273300D03*
X0037750Y0249100D03*
X0037550Y0249000D03*
X0036850Y0248700D03*
X0036550Y0248600D03*
X0022950Y0266800D03*
X0021050Y0281100D03*
X0022950Y0282800D03*
D22*
X0023000Y0282900D03*
X0013800Y0292900D03*
X0013800Y0293000D03*
X0013800Y0293100D03*
X0013900Y0293300D03*
X0013900Y0293400D03*
X0013900Y0293500D03*
X0014000Y0293700D03*
X0014000Y0293800D03*
X0014100Y0294000D03*
X0014100Y0294100D03*
X0014100Y0294200D03*
X0014200Y0294300D03*
X0014200Y0294400D03*
X0014200Y0294500D03*
X0014300Y0294700D03*
X0014300Y0294800D03*
X0014400Y0295000D03*
X0014400Y0295100D03*
X0014500Y0295200D03*
X0014500Y0295300D03*
X0014500Y0295400D03*
X0014600Y0295500D03*
X0014600Y0295600D03*
X0014700Y0295800D03*
X0014700Y0295900D03*
X0014800Y0296000D03*
X0014800Y0296100D03*
X0014900Y0296300D03*
X0015000Y0296500D03*
X0015000Y0296600D03*
X0015100Y0296700D03*
X0015100Y0296800D03*
X0015200Y0296900D03*
X0015200Y0297000D03*
X0015300Y0297100D03*
X0015300Y0297200D03*
X0015400Y0297300D03*
X0015400Y0297400D03*
X0015500Y0297500D03*
X0015600Y0297700D03*
X0015600Y0297800D03*
X0015700Y0297900D03*
X0015800Y0298100D03*
X0015900Y0298200D03*
X0015900Y0298300D03*
X0016000Y0298400D03*
X0016000Y0298500D03*
X0016100Y0298600D03*
X0016200Y0298700D03*
X0016200Y0298800D03*
X0016300Y0298900D03*
X0016400Y0299100D03*
X0016500Y0299200D03*
X0016600Y0299400D03*
X0016700Y0299500D03*
X0016800Y0299600D03*
X0016800Y0299700D03*
X0016900Y0299800D03*
X0017000Y0299900D03*
X0017100Y0300000D03*
X0017100Y0300100D03*
X0017200Y0300200D03*
X0017300Y0300300D03*
X0017400Y0300400D03*
X0017400Y0300500D03*
X0017500Y0300600D03*
X0017600Y0300700D03*
X0017700Y0300800D03*
X0017800Y0300900D03*
X0017900Y0301000D03*
X0017900Y0301100D03*
X0018200Y0301400D03*
X0018300Y0301500D03*
X0018400Y0301600D03*
X0018500Y0301700D03*
X0018600Y0301800D03*
X0018700Y0301900D03*
X0018800Y0302000D03*
X0018900Y0302100D03*
X0019000Y0302200D03*
X0019100Y0302300D03*
X0019200Y0302400D03*
X0019300Y0302500D03*
X0019400Y0302600D03*
X0019800Y0302900D03*
X0019900Y0303000D03*
X0020000Y0303100D03*
X0020100Y0303200D03*
X0020200Y0303300D03*
X0020400Y0303400D03*
X0020500Y0303500D03*
X0020600Y0303600D03*
X0020700Y0303700D03*
X0020900Y0303800D03*
X0021000Y0303900D03*
X0021100Y0304000D03*
X0021300Y0304100D03*
X0021400Y0304200D03*
X0021600Y0304300D03*
X0021700Y0304400D03*
X0021900Y0304500D03*
X0022200Y0304700D03*
X0022400Y0304800D03*
X0022500Y0304900D03*
X0022700Y0305000D03*
X0023200Y0305300D03*
X0023600Y0305500D03*
X0024700Y0306000D03*
X0025000Y0306100D03*
X0023200Y0299400D03*
X0013700Y0292700D03*
X0013700Y0292600D03*
X0013700Y0292500D03*
X0013600Y0292300D03*
X0013600Y0292200D03*
X0013600Y0292100D03*
X0013500Y0291900D03*
X0013500Y0291800D03*
X0013500Y0291700D03*
X0013500Y0291600D03*
X0013400Y0291300D03*
X0013400Y0291200D03*
X0013400Y0291100D03*
X0013400Y0291000D03*
X0013300Y0290700D03*
X0013300Y0290600D03*
X0013300Y0290500D03*
X0013300Y0290300D03*
X0013200Y0290000D03*
X0013200Y0289900D03*
X0013200Y0289800D03*
X0013200Y0289600D03*
X0013100Y0289300D03*
X0013100Y0289100D03*
X0013100Y0289000D03*
X0013100Y0288900D03*
X0013100Y0288800D03*
X0013000Y0288300D03*
X0013000Y0288100D03*
X0013000Y0288000D03*
X0013000Y0287900D03*
X0013000Y0287800D03*
X0013000Y0287700D03*
X0013000Y0287500D03*
X0013000Y0287300D03*
X0013000Y0287100D03*
X0012900Y0286900D03*
X0012900Y0286700D03*
X0012900Y0286500D03*
X0012900Y0286400D03*
X0012900Y0286200D03*
X0012900Y0286000D03*
X0012900Y0285900D03*
X0012900Y0285800D03*
X0012900Y0285700D03*
X0012900Y0285600D03*
X0012900Y0285500D03*
X0012900Y0285300D03*
X0012900Y0285200D03*
X0012900Y0285100D03*
X0012900Y0284900D03*
X0012900Y0284800D03*
X0012900Y0284700D03*
X0012900Y0284600D03*
X0012900Y0284500D03*
X0012900Y0284300D03*
X0012900Y0284200D03*
X0012900Y0284100D03*
X0012900Y0283900D03*
X0012900Y0283700D03*
X0012900Y0283600D03*
X0012900Y0283500D03*
X0012900Y0283400D03*
X0012900Y0283300D03*
X0012900Y0283100D03*
X0012900Y0283000D03*
X0012900Y0282900D03*
X0012900Y0282800D03*
X0012900Y0282700D03*
X0012900Y0282600D03*
X0012900Y0282400D03*
X0012900Y0282300D03*
X0012900Y0282100D03*
X0012900Y0282000D03*
X0012900Y0281900D03*
X0012900Y0281800D03*
X0012900Y0281500D03*
X0012900Y0281400D03*
X0013000Y0281000D03*
X0013000Y0280700D03*
X0013000Y0280400D03*
X0013000Y0280300D03*
X0013000Y0280000D03*
X0013000Y0279900D03*
X0013000Y0279800D03*
X0013000Y0279600D03*
X0013000Y0279400D03*
X0013100Y0279100D03*
X0013100Y0278900D03*
X0013100Y0278700D03*
X0013100Y0278600D03*
X0013100Y0278500D03*
X0013100Y0278300D03*
X0013100Y0278100D03*
X0013200Y0277700D03*
X0013200Y0277600D03*
X0013200Y0277400D03*
X0013200Y0277300D03*
X0013200Y0277100D03*
X0013200Y0276900D03*
X0013200Y0276800D03*
X0013300Y0276500D03*
X0013300Y0276300D03*
X0013300Y0276200D03*
X0013300Y0276100D03*
X0013300Y0275900D03*
X0013400Y0275300D03*
X0013400Y0275100D03*
X0013400Y0275000D03*
X0013400Y0274800D03*
X0013500Y0274400D03*
X0013500Y0274200D03*
X0013500Y0274100D03*
X0013500Y0274000D03*
X0013500Y0273800D03*
X0013600Y0273300D03*
X0013600Y0273200D03*
X0013600Y0273100D03*
X0013600Y0273000D03*
X0013700Y0272700D03*
X0013700Y0272500D03*
X0013700Y0272400D03*
X0013800Y0271900D03*
X0013800Y0271700D03*
X0013800Y0271600D03*
X0013800Y0271500D03*
X0013800Y0271400D03*
X0013900Y0271200D03*
X0013900Y0271000D03*
X0013900Y0270900D03*
X0013900Y0270700D03*
X0014000Y0270500D03*
X0014000Y0270300D03*
X0014000Y0270200D03*
X0014000Y0270100D03*
X0014100Y0269900D03*
X0014100Y0269700D03*
X0014100Y0269600D03*
X0014200Y0269100D03*
X0014200Y0269000D03*
X0014200Y0268900D03*
X0014200Y0268800D03*
X0014300Y0268500D03*
X0014300Y0268400D03*
X0014400Y0268000D03*
X0014400Y0267900D03*
X0014400Y0267800D03*
X0014500Y0267500D03*
X0014500Y0267300D03*
X0014500Y0267200D03*
X0014600Y0266900D03*
X0014600Y0266800D03*
X0014600Y0266700D03*
X0014700Y0266500D03*
X0014700Y0266300D03*
X0014700Y0266100D03*
X0014800Y0265900D03*
X0014800Y0265800D03*
X0014900Y0265500D03*
X0014900Y0265400D03*
X0014900Y0265300D03*
X0015000Y0265000D03*
X0015000Y0264900D03*
X0015000Y0264800D03*
X0015100Y0264700D03*
X0015100Y0264600D03*
X0015100Y0264500D03*
X0015200Y0264200D03*
X0015200Y0264100D03*
X0015200Y0264000D03*
X0015300Y0263800D03*
X0015300Y0263700D03*
X0015400Y0263400D03*
X0015400Y0263300D03*
X0015500Y0263100D03*
X0015500Y0263000D03*
X0015500Y0262900D03*
X0015600Y0262700D03*
X0015600Y0262600D03*
X0015700Y0262400D03*
X0015700Y0262300D03*
X0015700Y0262200D03*
X0015800Y0262000D03*
X0015800Y0261900D03*
X0015900Y0261700D03*
X0015900Y0261600D03*
X0016000Y0261400D03*
X0016000Y0261300D03*
X0016100Y0261100D03*
X0016100Y0261000D03*
X0016200Y0260700D03*
X0016300Y0260500D03*
X0016300Y0260400D03*
X0016400Y0260200D03*
X0016400Y0260100D03*
X0016500Y0259900D03*
X0016500Y0259800D03*
X0016600Y0259600D03*
X0016700Y0259400D03*
X0016700Y0259300D03*
X0016800Y0259100D03*
X0016900Y0258900D03*
X0016900Y0258800D03*
X0017000Y0258600D03*
X0017100Y0258400D03*
X0017100Y0258300D03*
X0017200Y0258200D03*
X0017200Y0258100D03*
X0017300Y0257900D03*
X0017400Y0257700D03*
X0017500Y0257500D03*
X0017500Y0257400D03*
X0017600Y0257300D03*
X0017600Y0257200D03*
X0017700Y0257100D03*
X0017700Y0257000D03*
X0017800Y0256800D03*
X0017900Y0256700D03*
X0017900Y0256600D03*
X0018000Y0256400D03*
X0018100Y0256300D03*
X0018200Y0256100D03*
X0018200Y0256000D03*
X0018300Y0255900D03*
X0018400Y0255700D03*
X0018500Y0255500D03*
X0018600Y0255400D03*
X0018600Y0255300D03*
X0018700Y0255200D03*
X0018800Y0255000D03*
X0018900Y0254800D03*
X0019000Y0254700D03*
X0019100Y0254500D03*
X0019200Y0254400D03*
X0019200Y0254300D03*
X0019300Y0254200D03*
X0019400Y0254000D03*
X0019500Y0253900D03*
X0019600Y0253700D03*
X0019700Y0253600D03*
X0019800Y0253400D03*
X0019900Y0253300D03*
X0020000Y0253200D03*
X0020100Y0253000D03*
X0020200Y0252900D03*
X0020300Y0252800D03*
X0020400Y0252600D03*
X0020500Y0252500D03*
X0020600Y0252400D03*
X0020700Y0252200D03*
X0020800Y0252100D03*
X0020900Y0252000D03*
X0021100Y0251800D03*
X0021100Y0251700D03*
X0021300Y0251500D03*
X0021400Y0251400D03*
X0021500Y0251300D03*
X0021800Y0251000D03*
X0021900Y0250900D03*
X0022400Y0250500D03*
X0031200Y0257800D03*
X0035600Y0260600D03*
X0040400Y0250800D03*
X0040000Y0250500D03*
X0039500Y0250100D03*
X0039200Y0249900D03*
X0038900Y0249700D03*
X0038700Y0249600D03*
X0038500Y0249500D03*
X0038400Y0249400D03*
X0038200Y0249300D03*
X0038000Y0249200D03*
X0037300Y0248900D03*
X0047500Y0264200D03*
X0047700Y0265000D03*
X0047700Y0265100D03*
X0047900Y0266100D03*
X0048000Y0266500D03*
X0048000Y0266700D03*
X0048100Y0267100D03*
X0048100Y0267200D03*
X0048200Y0267700D03*
X0048200Y0267800D03*
X0048300Y0268100D03*
X0048300Y0268300D03*
X0048300Y0268400D03*
X0048400Y0268800D03*
X0048400Y0269000D03*
X0048500Y0269400D03*
X0048500Y0269500D03*
X0048500Y0269700D03*
X0048600Y0270000D03*
X0048600Y0270200D03*
X0048600Y0270300D03*
X0048700Y0270600D03*
X0048700Y0270700D03*
X0048700Y0270800D03*
X0048700Y0271000D03*
X0048800Y0271200D03*
X0048800Y0271400D03*
X0048800Y0271500D03*
X0048800Y0271600D03*
X0048900Y0272000D03*
X0048900Y0272100D03*
X0048900Y0272200D03*
X0048900Y0272300D03*
X0048900Y0272500D03*
X0049000Y0272600D03*
X0049000Y0272800D03*
X0049000Y0272900D03*
X0049000Y0273000D03*
X0049000Y0273100D03*
X0049100Y0273500D03*
X0049100Y0273600D03*
X0049100Y0273700D03*
X0049100Y0273800D03*
X0049100Y0273900D03*
X0049200Y0274100D03*
X0049200Y0274200D03*
X0049200Y0274300D03*
X0049200Y0274400D03*
X0049200Y0274500D03*
X0049200Y0274600D03*
X0049200Y0274700D03*
X0049200Y0274800D03*
X0049300Y0275000D03*
X0049300Y0275100D03*
X0049300Y0275200D03*
X0049300Y0275300D03*
X0049300Y0275400D03*
X0049300Y0275500D03*
X0049300Y0275600D03*
X0049400Y0275800D03*
X0049400Y0276000D03*
X0049400Y0276100D03*
X0049400Y0276200D03*
X0049400Y0276300D03*
X0049400Y0276400D03*
X0049400Y0276500D03*
X0049400Y0276600D03*
X0049400Y0276700D03*
X0049500Y0276800D03*
X0049500Y0277000D03*
X0049500Y0277100D03*
X0049500Y0277200D03*
X0049500Y0277300D03*
X0049500Y0277400D03*
X0049500Y0277500D03*
X0049500Y0277600D03*
X0049500Y0277700D03*
X0049600Y0277800D03*
X0049600Y0278100D03*
X0049600Y0278200D03*
X0049600Y0278300D03*
X0049600Y0278400D03*
X0049600Y0278500D03*
X0049600Y0278600D03*
X0049600Y0278700D03*
X0049600Y0278800D03*
X0049600Y0279000D03*
X0049700Y0279400D03*
X0049700Y0279500D03*
X0049700Y0279600D03*
X0049700Y0279700D03*
X0049700Y0279800D03*
X0049700Y0279900D03*
X0049700Y0280000D03*
X0049700Y0280100D03*
X0049700Y0280200D03*
X0049700Y0280300D03*
X0049700Y0280500D03*
X0049700Y0280700D03*
X0049700Y0280800D03*
X0049800Y0280900D03*
X0049800Y0281200D03*
X0049800Y0281400D03*
X0049800Y0281500D03*
X0049800Y0281700D03*
X0049800Y0281800D03*
X0049800Y0281900D03*
X0049800Y0282000D03*
X0049800Y0282100D03*
X0049800Y0282200D03*
X0049800Y0282300D03*
X0049800Y0282400D03*
X0049800Y0282500D03*
X0049800Y0282600D03*
X0049800Y0282700D03*
X0049800Y0282800D03*
X0049800Y0282900D03*
X0049800Y0283000D03*
X0049800Y0283100D03*
X0049800Y0283200D03*
X0049800Y0283300D03*
X0049800Y0283400D03*
X0049800Y0283500D03*
X0049800Y0283600D03*
X0049800Y0283700D03*
X0049800Y0283800D03*
X0049800Y0283900D03*
X0049800Y0284000D03*
X0049800Y0284100D03*
X0049800Y0284200D03*
X0049800Y0284300D03*
X0049800Y0284400D03*
X0049800Y0284500D03*
X0049800Y0284600D03*
X0049800Y0284700D03*
X0049800Y0284800D03*
X0049800Y0284900D03*
X0049800Y0285000D03*
X0049800Y0285100D03*
X0049800Y0285200D03*
X0049800Y0285600D03*
X0049800Y0285700D03*
X0049700Y0285800D03*
X0049700Y0286000D03*
X0049700Y0286200D03*
X0049700Y0286300D03*
X0049700Y0286400D03*
X0049700Y0286500D03*
X0049700Y0286600D03*
X0049700Y0286700D03*
X0049700Y0286800D03*
X0049700Y0286900D03*
X0049700Y0287000D03*
X0049700Y0287200D03*
X0049600Y0287400D03*
X0049600Y0287500D03*
X0049600Y0287600D03*
X0049600Y0287700D03*
X0049600Y0287800D03*
X0049600Y0287900D03*
X0049600Y0288000D03*
X0049600Y0288100D03*
X0049600Y0288200D03*
X0049600Y0288300D03*
X0049500Y0288500D03*
X0049500Y0288700D03*
X0049500Y0288900D03*
X0049500Y0289000D03*
X0049500Y0289100D03*
X0049400Y0289300D03*
X0049400Y0289500D03*
X0049400Y0289600D03*
X0049400Y0289700D03*
X0049400Y0289800D03*
X0049400Y0289900D03*
X0049300Y0290100D03*
X0049300Y0290200D03*
X0049300Y0290300D03*
X0049300Y0290400D03*
X0049200Y0290700D03*
X0049200Y0290800D03*
X0049200Y0290900D03*
X0049200Y0291000D03*
X0049100Y0291300D03*
X0049100Y0291400D03*
X0049100Y0291500D03*
X0049000Y0291800D03*
X0049000Y0291900D03*
X0048900Y0292200D03*
X0048900Y0292400D03*
X0048800Y0292600D03*
X0048800Y0292700D03*
X0048800Y0292800D03*
X0048700Y0293000D03*
X0048600Y0293400D03*
X0048600Y0293500D03*
X0048500Y0293700D03*
X0048400Y0294100D03*
X0048300Y0294400D03*
X0048100Y0295000D03*
X0048000Y0295300D03*
X0047800Y0295800D03*
X0047500Y0296500D03*
X0047200Y0297200D03*
X0038600Y0305500D03*
X0037200Y0306100D03*
X0036400Y0306400D03*
X0035600Y0306700D03*
X0035200Y0306800D03*
X0023000Y0266700D03*
D23*
X0031650Y0254100D03*
X0032750Y0257800D03*
X0035250Y0260600D03*
X0043450Y0254300D03*
X0043550Y0254400D03*
X0043650Y0254500D03*
X0043750Y0254700D03*
X0043850Y0254800D03*
X0043950Y0255000D03*
X0044050Y0255200D03*
X0044150Y0255300D03*
X0044250Y0255500D03*
X0044350Y0255700D03*
X0044450Y0255800D03*
X0044550Y0256000D03*
X0044650Y0256200D03*
X0044750Y0256400D03*
X0044850Y0256600D03*
X0044950Y0256700D03*
X0044950Y0256800D03*
X0045050Y0256900D03*
X0045150Y0257100D03*
X0045150Y0257200D03*
X0045250Y0257400D03*
X0045350Y0257500D03*
X0045350Y0257600D03*
X0045450Y0257800D03*
X0045550Y0258000D03*
X0045550Y0258100D03*
X0045650Y0258200D03*
X0045650Y0258300D03*
X0045750Y0258500D03*
X0045850Y0258700D03*
X0045850Y0258800D03*
X0045950Y0259000D03*
X0045950Y0259100D03*
X0046050Y0259300D03*
X0046150Y0259500D03*
X0046150Y0259600D03*
X0046250Y0259800D03*
X0046250Y0259900D03*
X0046350Y0260100D03*
X0046350Y0260200D03*
X0046450Y0260400D03*
X0046450Y0260500D03*
X0046550Y0260600D03*
X0046550Y0260700D03*
X0046550Y0260800D03*
X0046650Y0261000D03*
X0046650Y0261100D03*
X0046750Y0261300D03*
X0046750Y0261400D03*
X0046750Y0261500D03*
X0046850Y0261600D03*
X0046850Y0261700D03*
X0046850Y0261800D03*
X0046950Y0262000D03*
X0046950Y0262100D03*
X0046950Y0262200D03*
X0047050Y0262300D03*
X0047050Y0262400D03*
X0047050Y0262500D03*
X0047150Y0262600D03*
X0047150Y0262700D03*
X0047150Y0262800D03*
X0047150Y0262900D03*
X0047250Y0263100D03*
X0047250Y0263200D03*
X0047250Y0263300D03*
X0047350Y0263400D03*
X0047350Y0263500D03*
X0047350Y0263600D03*
X0047350Y0263700D03*
X0047450Y0263800D03*
X0047450Y0263900D03*
X0047450Y0264000D03*
X0047450Y0264100D03*
X0047550Y0264300D03*
X0047550Y0264400D03*
X0047550Y0264500D03*
X0047550Y0264600D03*
X0047650Y0264700D03*
X0047650Y0264800D03*
X0047650Y0264900D03*
X0047750Y0265200D03*
X0047750Y0265300D03*
X0047750Y0265400D03*
X0047750Y0265500D03*
X0047850Y0265600D03*
X0047850Y0265700D03*
X0047850Y0265800D03*
X0047850Y0265900D03*
X0047850Y0266000D03*
X0047950Y0266200D03*
X0047950Y0266300D03*
X0047950Y0266400D03*
X0047950Y0266600D03*
X0048050Y0266800D03*
X0048050Y0266900D03*
X0048050Y0267000D03*
X0048150Y0267300D03*
X0048150Y0267400D03*
X0048150Y0267500D03*
X0048150Y0267600D03*
X0048250Y0267900D03*
X0048250Y0268000D03*
X0048250Y0268200D03*
X0048350Y0268500D03*
X0048350Y0268600D03*
X0048350Y0268700D03*
X0048450Y0268900D03*
X0048450Y0269100D03*
X0048450Y0269200D03*
X0048450Y0269300D03*
X0048550Y0269600D03*
X0048550Y0269800D03*
X0048550Y0269900D03*
X0048550Y0270100D03*
X0048650Y0270400D03*
X0048650Y0270500D03*
X0048750Y0270900D03*
X0048750Y0271100D03*
X0048750Y0271300D03*
X0048850Y0271700D03*
X0048850Y0271800D03*
X0048850Y0271900D03*
X0048950Y0272400D03*
X0048950Y0272700D03*
X0049050Y0273200D03*
X0049050Y0273400D03*
X0049150Y0274000D03*
X0049250Y0274900D03*
X0049350Y0275700D03*
X0049350Y0275900D03*
X0049450Y0276900D03*
X0049550Y0278000D03*
X0049650Y0278900D03*
X0049650Y0279300D03*
X0049750Y0280600D03*
X0049750Y0281100D03*
X0049750Y0285400D03*
X0049750Y0285500D03*
X0049750Y0285900D03*
X0049750Y0286100D03*
X0049650Y0287100D03*
X0049650Y0287300D03*
X0049550Y0288400D03*
X0049550Y0288600D03*
X0049550Y0288800D03*
X0049450Y0289200D03*
X0049450Y0289400D03*
X0049350Y0290000D03*
X0049250Y0290500D03*
X0049250Y0290600D03*
X0049150Y0291100D03*
X0049150Y0291200D03*
X0049050Y0291600D03*
X0049050Y0291700D03*
X0048950Y0292000D03*
X0048950Y0292100D03*
X0048850Y0292300D03*
X0048850Y0292500D03*
X0048750Y0292900D03*
X0048650Y0293100D03*
X0048650Y0293200D03*
X0048650Y0293300D03*
X0048550Y0293600D03*
X0048550Y0293800D03*
X0048450Y0293900D03*
X0048450Y0294000D03*
X0048350Y0294200D03*
X0048350Y0294300D03*
X0048250Y0294500D03*
X0048250Y0294600D03*
X0048250Y0294700D03*
X0048150Y0294800D03*
X0048150Y0294900D03*
X0048050Y0295100D03*
X0048050Y0295200D03*
X0047950Y0295400D03*
X0047950Y0295500D03*
X0047850Y0295600D03*
X0047850Y0295700D03*
X0047750Y0295900D03*
X0047750Y0296000D03*
X0047650Y0296100D03*
X0047650Y0296200D03*
X0047650Y0296300D03*
X0047550Y0296400D03*
X0047450Y0296600D03*
X0047450Y0296700D03*
X0047350Y0296800D03*
X0047350Y0296900D03*
X0047250Y0297000D03*
X0047250Y0297100D03*
X0047150Y0297300D03*
X0047050Y0297400D03*
X0047050Y0297500D03*
X0046950Y0297600D03*
X0046950Y0297700D03*
X0046850Y0297800D03*
X0046850Y0297900D03*
X0046850Y0298000D03*
X0046750Y0298100D03*
X0046650Y0298200D03*
X0046650Y0298300D03*
X0046550Y0298400D03*
X0046550Y0298500D03*
X0046450Y0298600D03*
X0046450Y0298700D03*
X0046350Y0298800D03*
X0046250Y0298900D03*
X0046250Y0299000D03*
X0046150Y0299100D03*
X0046150Y0299200D03*
X0046050Y0299300D03*
X0045950Y0299400D03*
X0045950Y0299500D03*
X0045850Y0299600D03*
X0045750Y0299800D03*
X0045650Y0299900D03*
X0045550Y0300000D03*
X0045450Y0300200D03*
X0045350Y0300300D03*
X0045250Y0300400D03*
X0045150Y0300500D03*
X0045050Y0300700D03*
X0044950Y0300800D03*
X0044850Y0300900D03*
X0044750Y0301000D03*
X0044650Y0301100D03*
X0044450Y0301300D03*
X0044450Y0301400D03*
X0044250Y0301600D03*
X0044050Y0301800D03*
X0043950Y0301900D03*
X0043750Y0302000D03*
X0043550Y0302200D03*
X0043450Y0302300D03*
X0043350Y0302400D03*
X0043250Y0302500D03*
X0043050Y0302700D03*
X0042850Y0302800D03*
X0042650Y0303000D03*
X0042550Y0303100D03*
X0042350Y0303200D03*
X0042150Y0303400D03*
X0041850Y0303600D03*
X0041750Y0303700D03*
X0041550Y0303800D03*
X0041450Y0303900D03*
X0041250Y0304000D03*
X0040950Y0304200D03*
X0040650Y0304400D03*
X0040450Y0304500D03*
X0040250Y0304600D03*
X0040150Y0304700D03*
X0039950Y0304800D03*
X0039750Y0304900D03*
X0039550Y0305000D03*
X0039250Y0305200D03*
X0038950Y0305300D03*
X0038750Y0305400D03*
X0038350Y0305600D03*
X0038150Y0305700D03*
X0037950Y0305800D03*
X0037450Y0306000D03*
X0036950Y0306200D03*
X0036750Y0306300D03*
X0036150Y0306500D03*
X0035850Y0306600D03*
X0033650Y0307000D03*
X0033350Y0307000D03*
X0031650Y0307100D03*
X0029250Y0307000D03*
X0024250Y0305800D03*
X0022850Y0305100D03*
X0019650Y0302800D03*
X0018150Y0301300D03*
X0023250Y0299500D03*
X0022450Y0288500D03*
X0022050Y0288500D03*
X0019650Y0284100D03*
X0018550Y0282800D03*
X0023150Y0283000D03*
X0013050Y0288600D03*
X0039350Y0299500D03*
X0042850Y0284100D03*
X0044150Y0282800D03*
X0043350Y0254100D03*
X0043250Y0254000D03*
X0043150Y0253800D03*
X0043050Y0253700D03*
X0042950Y0253600D03*
X0042850Y0253400D03*
X0042750Y0253300D03*
X0042650Y0253200D03*
X0042550Y0253100D03*
X0042450Y0252900D03*
X0042350Y0252800D03*
X0042250Y0252700D03*
X0042150Y0252600D03*
X0042050Y0252500D03*
X0041950Y0252400D03*
X0041750Y0252200D03*
X0041650Y0252000D03*
X0041550Y0251900D03*
X0041450Y0251800D03*
X0041350Y0251700D03*
X0041250Y0251600D03*
X0041150Y0251500D03*
X0041050Y0251400D03*
X0040950Y0251300D03*
X0040850Y0251200D03*
X0040750Y0251100D03*
X0040650Y0251000D03*
X0040250Y0250700D03*
X0040150Y0250600D03*
X0039950Y0250400D03*
X0039750Y0250300D03*
X0039650Y0250200D03*
X0039350Y0250000D03*
X0039050Y0249800D03*
D24*
X0031350Y0254300D03*
X0040950Y0270800D03*
X0040950Y0271000D03*
X0041050Y0271200D03*
X0041750Y0281700D03*
X0040750Y0296400D03*
X0021950Y0296400D03*
X0021850Y0296100D03*
X0021650Y0270900D03*
X0021650Y0270800D03*
D25*
X0021350Y0272500D03*
X0021250Y0272800D03*
X0020850Y0281900D03*
X0021850Y0288200D03*
X0021450Y0294600D03*
X0021550Y0294900D03*
X0021550Y0295000D03*
X0041050Y0295200D03*
X0041150Y0295000D03*
X0041150Y0294900D03*
X0041350Y0272800D03*
X0041350Y0272700D03*
X0041350Y0272600D03*
X0041250Y0272500D03*
X0031250Y0254400D03*
D26*
X0031250Y0254500D03*
X0021150Y0273800D03*
X0021050Y0274000D03*
X0021050Y0274100D03*
X0021050Y0274200D03*
X0021050Y0274300D03*
X0020750Y0279600D03*
X0020850Y0282100D03*
X0021250Y0293500D03*
X0021250Y0293600D03*
X0021250Y0293700D03*
X0040950Y0288300D03*
X0041450Y0293300D03*
X0041450Y0293400D03*
X0041450Y0293500D03*
X0041350Y0293800D03*
X0041350Y0293900D03*
X0041750Y0282200D03*
X0041550Y0274000D03*
X0041550Y0273900D03*
X0041550Y0273800D03*
D27*
X0041800Y0275500D03*
X0041800Y0275600D03*
X0041800Y0275700D03*
X0041900Y0275900D03*
X0041900Y0276100D03*
X0042000Y0279300D03*
X0031200Y0254600D03*
X0020800Y0276100D03*
X0020700Y0276500D03*
X0020700Y0276600D03*
X0020700Y0276700D03*
X0020700Y0276800D03*
X0020700Y0276900D03*
X0020600Y0278100D03*
X0020600Y0278400D03*
X0020600Y0278600D03*
X0020600Y0278700D03*
X0020600Y0278800D03*
X0020600Y0279000D03*
X0020200Y0284500D03*
D28*
X0020300Y0284600D03*
X0031200Y0254700D03*
D29*
X0031250Y0254800D03*
D30*
X0031200Y0254900D03*
X0021600Y0287700D03*
D31*
X0031150Y0255000D03*
D32*
X0031150Y0255100D03*
X0021550Y0287500D03*
X0041150Y0287600D03*
D33*
X0040800Y0296200D03*
X0040800Y0296300D03*
X0040700Y0296500D03*
X0041100Y0271500D03*
X0041100Y0271400D03*
X0041000Y0271100D03*
X0029700Y0255200D03*
X0021600Y0271000D03*
X0021600Y0271100D03*
X0021600Y0271200D03*
X0020900Y0281600D03*
X0019900Y0284300D03*
X0021800Y0296000D03*
X0021900Y0296200D03*
D34*
X0022300Y0297400D03*
X0022300Y0297500D03*
X0019800Y0284200D03*
X0022100Y0269200D03*
X0022100Y0269000D03*
X0033200Y0255200D03*
X0040600Y0269200D03*
X0040600Y0269300D03*
X0040300Y0297800D03*
D35*
X0040400Y0297500D03*
X0040500Y0297400D03*
X0041700Y0281500D03*
X0040800Y0270000D03*
X0040700Y0269800D03*
X0040700Y0269700D03*
X0040700Y0269600D03*
X0029400Y0255300D03*
X0022000Y0269600D03*
X0021900Y0269700D03*
X0022200Y0297200D03*
D36*
X0022400Y0297700D03*
X0040200Y0298000D03*
X0040200Y0298100D03*
X0040500Y0268900D03*
X0040500Y0268800D03*
X0033400Y0255300D03*
X0022200Y0268700D03*
X0022100Y0268900D03*
D37*
X0022300Y0268500D03*
X0022300Y0268400D03*
X0019500Y0282500D03*
X0022500Y0298000D03*
X0040100Y0298300D03*
X0040700Y0288600D03*
X0040400Y0268500D03*
X0040400Y0268400D03*
X0033600Y0255400D03*
X0029100Y0255400D03*
D38*
X0031700Y0257900D03*
X0041600Y0274100D03*
X0041600Y0274200D03*
X0041600Y0274300D03*
X0041600Y0292600D03*
X0041500Y0293000D03*
X0041500Y0293100D03*
X0041500Y0293200D03*
X0041400Y0293600D03*
X0021200Y0293400D03*
X0021200Y0293300D03*
X0021200Y0293200D03*
X0021100Y0292900D03*
X0021100Y0292800D03*
X0021000Y0274600D03*
X0021000Y0274500D03*
X0021000Y0274400D03*
D39*
X0031600Y0258000D03*
X0041000Y0288000D03*
D40*
X0041700Y0285000D03*
X0031500Y0258100D03*
X0020700Y0285000D03*
X0021600Y0287400D03*
D41*
X0021350Y0286800D03*
X0021050Y0285700D03*
X0020950Y0285500D03*
X0031550Y0258200D03*
X0041650Y0285500D03*
X0041350Y0287100D03*
D42*
X0031500Y0258300D03*
D43*
X0031450Y0258400D03*
D44*
X0031450Y0258500D03*
D45*
X0031400Y0258600D03*
D46*
X0031400Y0258700D03*
D47*
X0031400Y0258800D03*
D48*
X0031400Y0258900D03*
D49*
X0031350Y0259000D03*
D50*
X0031400Y0259100D03*
D51*
X0031350Y0259200D03*
D52*
X0031350Y0259300D03*
D53*
X0031350Y0259400D03*
D54*
X0031350Y0259500D03*
D55*
X0031350Y0259600D03*
D56*
X0031300Y0259700D03*
D57*
X0031350Y0259800D03*
D58*
X0031350Y0259900D03*
D59*
X0031300Y0260000D03*
D60*
X0031300Y0260100D03*
X0031300Y0260200D03*
D61*
X0031350Y0260300D03*
X0031250Y0260500D03*
D62*
X0031300Y0260400D03*
D63*
X0029500Y0260600D03*
D64*
X0022700Y0267300D03*
X0022500Y0282500D03*
X0022900Y0298800D03*
X0039700Y0299100D03*
X0040000Y0267200D03*
D65*
X0040150Y0267600D03*
X0041750Y0281200D03*
X0040150Y0282500D03*
X0041650Y0291500D03*
X0039850Y0298800D03*
X0022850Y0298700D03*
X0022750Y0298600D03*
X0022350Y0282400D03*
X0019150Y0282600D03*
X0022550Y0267700D03*
D66*
X0022500Y0267800D03*
X0040200Y0267800D03*
X0040200Y0267700D03*
X0041900Y0280000D03*
X0042000Y0284100D03*
X0039900Y0298700D03*
X0029900Y0307100D03*
X0022800Y0298500D03*
D67*
X0022600Y0298300D03*
X0022600Y0298200D03*
X0040000Y0298500D03*
X0043100Y0291500D03*
X0040400Y0282400D03*
X0040300Y0268100D03*
X0022400Y0268100D03*
D68*
X0022350Y0268200D03*
X0022350Y0268300D03*
X0040350Y0268300D03*
X0040350Y0268200D03*
X0041750Y0281300D03*
X0040050Y0298400D03*
X0022550Y0298100D03*
D69*
X0022450Y0297900D03*
X0022450Y0297800D03*
X0040150Y0298200D03*
X0040450Y0268700D03*
X0040450Y0268600D03*
X0022250Y0268600D03*
X0022150Y0268800D03*
D70*
X0022050Y0269300D03*
X0021950Y0269400D03*
X0021950Y0269500D03*
X0020950Y0281400D03*
X0019850Y0282400D03*
X0022250Y0297300D03*
X0040350Y0297600D03*
X0040650Y0269500D03*
X0040650Y0269400D03*
D71*
X0040800Y0270100D03*
X0040900Y0270400D03*
X0041900Y0279900D03*
X0040500Y0297100D03*
X0022100Y0296900D03*
X0022100Y0296800D03*
X0020900Y0281500D03*
X0021800Y0270200D03*
X0021800Y0270100D03*
X0021900Y0270000D03*
D72*
X0021800Y0270300D03*
X0021700Y0270500D03*
X0021700Y0270600D03*
X0021700Y0270700D03*
X0020700Y0279900D03*
X0022000Y0288300D03*
X0021900Y0296300D03*
X0022000Y0296600D03*
X0040700Y0296600D03*
X0040700Y0296700D03*
X0042000Y0284200D03*
X0041000Y0270900D03*
D73*
X0040950Y0270700D03*
X0040950Y0270600D03*
X0040850Y0270500D03*
X0040850Y0270300D03*
X0041750Y0281600D03*
X0040850Y0288500D03*
X0040650Y0296800D03*
X0040650Y0296900D03*
X0040550Y0297000D03*
X0022050Y0296700D03*
X0021950Y0296500D03*
X0021750Y0270400D03*
D74*
X0021550Y0271300D03*
X0021550Y0271400D03*
X0021750Y0295800D03*
X0040850Y0296000D03*
X0040850Y0296100D03*
X0041750Y0281800D03*
X0041150Y0271600D03*
X0041050Y0271300D03*
D75*
X0041100Y0271700D03*
X0041200Y0271800D03*
X0041200Y0271900D03*
X0041900Y0279800D03*
X0040900Y0295800D03*
X0040900Y0295900D03*
X0021800Y0295900D03*
X0021700Y0295700D03*
X0021700Y0295600D03*
X0021700Y0295500D03*
X0020900Y0281700D03*
X0021500Y0271700D03*
X0021500Y0271600D03*
X0021500Y0271500D03*
D76*
X0021450Y0271800D03*
X0021450Y0271900D03*
X0021450Y0272000D03*
X0021650Y0295300D03*
X0021650Y0295400D03*
X0040950Y0295600D03*
X0040950Y0295700D03*
X0041050Y0295300D03*
X0041750Y0281900D03*
X0041250Y0272300D03*
X0041250Y0272200D03*
X0041250Y0272100D03*
X0041150Y0272000D03*
D77*
X0041300Y0272400D03*
X0040900Y0288400D03*
X0041100Y0295100D03*
X0041000Y0295400D03*
X0041000Y0295500D03*
X0021600Y0295200D03*
X0021600Y0295100D03*
X0020900Y0281800D03*
X0020700Y0279800D03*
X0021300Y0272600D03*
X0021300Y0272400D03*
X0021400Y0272300D03*
X0021400Y0272200D03*
X0021400Y0272100D03*
D78*
X0021300Y0272700D03*
X0021300Y0272900D03*
X0021200Y0273000D03*
X0021200Y0273200D03*
X0021400Y0294400D03*
X0021500Y0294700D03*
X0021500Y0294800D03*
X0041100Y0294800D03*
X0041200Y0294700D03*
X0041200Y0294600D03*
X0041900Y0284300D03*
X0041400Y0273000D03*
X0041400Y0272900D03*
D79*
X0041450Y0273100D03*
X0041450Y0273200D03*
X0041450Y0273300D03*
X0041450Y0273400D03*
X0041950Y0279700D03*
X0041750Y0282000D03*
X0041750Y0282100D03*
X0041350Y0294200D03*
X0041250Y0294300D03*
X0041250Y0294400D03*
X0041250Y0294500D03*
X0021450Y0294500D03*
X0021350Y0294100D03*
X0020850Y0282000D03*
X0020750Y0279700D03*
X0021150Y0273600D03*
X0021150Y0273500D03*
X0021150Y0273400D03*
X0021150Y0273300D03*
X0021250Y0273100D03*
D80*
X0021100Y0273700D03*
X0021100Y0273900D03*
X0020100Y0284400D03*
X0021300Y0293800D03*
X0021300Y0293900D03*
X0021300Y0294000D03*
X0021400Y0294200D03*
X0021400Y0294300D03*
X0041300Y0294100D03*
X0041300Y0294000D03*
X0041400Y0293700D03*
X0041500Y0273700D03*
X0041500Y0273600D03*
X0041500Y0273500D03*
D81*
X0041650Y0274400D03*
X0041650Y0274500D03*
X0041650Y0274600D03*
X0041650Y0274700D03*
X0041750Y0274900D03*
X0041950Y0279600D03*
X0041750Y0282300D03*
X0041650Y0292200D03*
X0041650Y0292300D03*
X0041550Y0292700D03*
X0041550Y0292800D03*
X0041550Y0292900D03*
X0021150Y0293000D03*
X0021150Y0293100D03*
X0021050Y0292500D03*
X0020850Y0282300D03*
X0020850Y0282200D03*
X0020750Y0279500D03*
X0020950Y0275000D03*
X0020950Y0274900D03*
X0020950Y0274800D03*
X0020950Y0274700D03*
D82*
X0020900Y0275100D03*
X0020900Y0275200D03*
X0020900Y0275300D03*
X0020900Y0275400D03*
X0020800Y0275600D03*
X0020800Y0275800D03*
X0020700Y0279300D03*
X0020700Y0279400D03*
X0021700Y0288100D03*
X0021000Y0292000D03*
X0021000Y0292100D03*
X0021000Y0292200D03*
X0021000Y0292300D03*
X0021000Y0292400D03*
X0021100Y0292600D03*
X0021100Y0292700D03*
X0041600Y0292500D03*
X0041600Y0292400D03*
X0041700Y0292100D03*
X0041700Y0292000D03*
X0041700Y0291900D03*
X0041700Y0291800D03*
X0041800Y0291600D03*
X0041900Y0284400D03*
X0041900Y0279500D03*
X0041700Y0275000D03*
X0041700Y0274800D03*
D83*
X0041750Y0275100D03*
X0041750Y0275200D03*
X0041750Y0275300D03*
X0041750Y0275400D03*
X0041850Y0275800D03*
X0041950Y0279400D03*
X0040950Y0288200D03*
X0041750Y0291700D03*
X0020950Y0291700D03*
X0020950Y0291800D03*
X0020950Y0291900D03*
X0020950Y0291600D03*
X0020950Y0291500D03*
X0020650Y0279200D03*
X0020650Y0279100D03*
X0020750Y0276300D03*
X0020750Y0276200D03*
X0020750Y0276000D03*
X0020850Y0275900D03*
X0020850Y0275700D03*
X0020850Y0275500D03*
D84*
X0020750Y0276400D03*
X0020650Y0277000D03*
X0020650Y0277100D03*
X0020650Y0277200D03*
X0020650Y0277300D03*
X0020650Y0277400D03*
X0020650Y0277500D03*
X0020650Y0277700D03*
X0020650Y0277800D03*
X0020650Y0277900D03*
X0020650Y0278500D03*
X0020650Y0278900D03*
X0041950Y0279100D03*
X0041950Y0279200D03*
X0041950Y0277000D03*
X0041950Y0276400D03*
X0041850Y0276300D03*
X0041850Y0276200D03*
X0041850Y0276000D03*
D85*
X0041900Y0276500D03*
X0041900Y0276600D03*
X0041900Y0276700D03*
X0042000Y0276800D03*
X0042000Y0277100D03*
X0042000Y0277200D03*
X0042000Y0277300D03*
X0042000Y0277500D03*
X0042000Y0277600D03*
X0042000Y0277900D03*
X0042000Y0278100D03*
X0042000Y0278300D03*
X0042000Y0278600D03*
X0042000Y0278700D03*
X0042000Y0278800D03*
X0042000Y0278900D03*
X0042000Y0279000D03*
X0041900Y0284500D03*
X0021700Y0288000D03*
X0020600Y0278300D03*
X0020600Y0278200D03*
X0020600Y0278000D03*
X0020600Y0277600D03*
D86*
X0040950Y0288100D03*
X0042050Y0278500D03*
X0042050Y0278400D03*
X0042050Y0278200D03*
X0042050Y0278000D03*
X0042050Y0277800D03*
X0042050Y0277700D03*
X0041950Y0277400D03*
X0041950Y0276900D03*
D87*
X0041850Y0284600D03*
X0021650Y0287900D03*
D88*
X0020400Y0284700D03*
X0041800Y0284700D03*
D89*
X0041750Y0284800D03*
X0020550Y0284800D03*
D90*
X0020600Y0284900D03*
X0041100Y0287700D03*
X0041800Y0284900D03*
D91*
X0041200Y0287500D03*
X0021500Y0287300D03*
X0020700Y0285100D03*
D92*
X0041750Y0285100D03*
D93*
X0021450Y0287200D03*
X0020850Y0285200D03*
D94*
X0021500Y0287100D03*
X0041200Y0287400D03*
X0041700Y0285300D03*
X0041700Y0285200D03*
D95*
X0041250Y0287300D03*
X0021450Y0287000D03*
X0020850Y0285300D03*
D96*
X0020900Y0285400D03*
X0021400Y0286900D03*
X0041300Y0287200D03*
X0041700Y0285400D03*
D97*
X0041600Y0285600D03*
X0041600Y0285700D03*
X0041300Y0287000D03*
X0021400Y0286700D03*
X0021300Y0286600D03*
X0021300Y0286500D03*
X0021100Y0285800D03*
X0021000Y0285600D03*
D98*
X0041400Y0286600D03*
X0041400Y0286700D03*
X0041400Y0286800D03*
X0041500Y0286200D03*
X0041500Y0286000D03*
X0041600Y0285900D03*
X0041600Y0285800D03*
D99*
X0041350Y0286900D03*
X0021250Y0286400D03*
X0021250Y0286300D03*
X0021250Y0286200D03*
X0021150Y0286100D03*
X0021150Y0286000D03*
X0021150Y0285900D03*
D100*
X0041450Y0286300D03*
X0041450Y0286400D03*
X0041450Y0286500D03*
X0041550Y0286100D03*
D101*
X0041100Y0287800D03*
X0021600Y0287600D03*
D102*
X0021650Y0287800D03*
X0041050Y0287900D03*
D103*
X0081845Y0238581D02*
X0078226Y0234962D01*
X0088665Y0224523D02*
X0092284Y0228142D01*
X0110686Y0230888D02*
X0086188Y0255386D01*
X0086188Y0257614D01*
X0110686Y0282112D01*
X0112914Y0282112D01*
X0137412Y0257614D01*
X0137412Y0255386D01*
X0112914Y0230888D01*
X0110686Y0230888D01*
X0115213Y0293610D02*
X0115213Y0295185D01*
X0120331Y0295185D01*
X0120331Y0300697D01*
X0120331Y0295185D02*
X0120331Y0293610D01*
X0115213Y0295185D02*
X0115213Y0300697D01*
X0191288Y0272256D02*
X0191288Y0269106D01*
X0191288Y0272256D02*
X0193650Y0272256D01*
X0199950Y0272256D02*
X0202312Y0272256D01*
X0202312Y0269106D01*
D104*
X0128914Y0311594D02*
X0119859Y0311594D01*
X0128914Y0311594D02*
X0128914Y0318681D01*
X0128914Y0328130D02*
X0128914Y0330886D01*
X0105686Y0311594D02*
X0096631Y0311594D01*
X0096631Y0318681D01*
X0096631Y0328130D02*
X0096631Y0330886D01*
X0110687Y0278771D02*
X0110689Y0278838D01*
X0110695Y0278904D01*
X0110705Y0278970D01*
X0110719Y0279035D01*
X0110736Y0279099D01*
X0110758Y0279162D01*
X0110783Y0279224D01*
X0110812Y0279284D01*
X0110845Y0279342D01*
X0110880Y0279398D01*
X0110920Y0279452D01*
X0110962Y0279503D01*
X0111007Y0279552D01*
X0111055Y0279598D01*
X0111106Y0279641D01*
X0111159Y0279681D01*
X0111215Y0279718D01*
X0111273Y0279751D01*
X0111332Y0279781D01*
X0111393Y0279807D01*
X0111456Y0279830D01*
X0111520Y0279848D01*
X0111585Y0279863D01*
X0111651Y0279874D01*
X0111717Y0279881D01*
X0111783Y0279884D01*
X0111850Y0279883D01*
X0111916Y0279878D01*
X0111982Y0279869D01*
X0112048Y0279856D01*
X0112112Y0279839D01*
X0112175Y0279819D01*
X0112237Y0279794D01*
X0112298Y0279766D01*
X0112357Y0279735D01*
X0112413Y0279700D01*
X0112468Y0279662D01*
X0112520Y0279620D01*
X0112569Y0279575D01*
X0112616Y0279528D01*
X0112660Y0279478D01*
X0112700Y0279425D01*
X0112738Y0279370D01*
X0112772Y0279313D01*
X0112803Y0279254D01*
X0112830Y0279193D01*
X0112853Y0279131D01*
X0112873Y0279067D01*
X0112889Y0279002D01*
X0112901Y0278937D01*
X0112909Y0278871D01*
X0112913Y0278804D01*
X0112913Y0278738D01*
X0112909Y0278671D01*
X0112901Y0278605D01*
X0112889Y0278540D01*
X0112873Y0278475D01*
X0112853Y0278411D01*
X0112830Y0278349D01*
X0112803Y0278288D01*
X0112772Y0278229D01*
X0112738Y0278172D01*
X0112700Y0278117D01*
X0112660Y0278064D01*
X0112616Y0278014D01*
X0112569Y0277967D01*
X0112520Y0277922D01*
X0112468Y0277880D01*
X0112413Y0277842D01*
X0112356Y0277807D01*
X0112298Y0277776D01*
X0112237Y0277748D01*
X0112175Y0277723D01*
X0112112Y0277703D01*
X0112048Y0277686D01*
X0111982Y0277673D01*
X0111916Y0277664D01*
X0111850Y0277659D01*
X0111783Y0277658D01*
X0111717Y0277661D01*
X0111651Y0277668D01*
X0111585Y0277679D01*
X0111520Y0277694D01*
X0111456Y0277712D01*
X0111393Y0277735D01*
X0111332Y0277761D01*
X0111273Y0277791D01*
X0111215Y0277824D01*
X0111159Y0277861D01*
X0111106Y0277901D01*
X0111055Y0277944D01*
X0111007Y0277990D01*
X0110962Y0278039D01*
X0110920Y0278090D01*
X0110880Y0278144D01*
X0110845Y0278200D01*
X0110812Y0278258D01*
X0110783Y0278318D01*
X0110758Y0278380D01*
X0110736Y0278443D01*
X0110719Y0278507D01*
X0110705Y0278572D01*
X0110695Y0278638D01*
X0110689Y0278704D01*
X0110687Y0278771D01*
D105*
X0074460Y0298804D02*
X0071991Y0298804D01*
X0073226Y0298804D02*
X0073226Y0302507D01*
X0071991Y0301272D01*
D106*
X0052724Y0309072D02*
X0052724Y0310540D01*
X0052724Y0309806D02*
X0048321Y0309806D01*
X0048321Y0309072D02*
X0048321Y0310540D01*
X0049055Y0312142D02*
X0049789Y0312142D01*
X0050523Y0312876D01*
X0050523Y0314344D01*
X0051256Y0315078D01*
X0051990Y0315078D01*
X0052724Y0314344D01*
X0052724Y0312876D01*
X0051990Y0312142D01*
X0049055Y0312142D02*
X0048321Y0312876D01*
X0048321Y0314344D01*
X0049055Y0315078D01*
X0048321Y0316746D02*
X0048321Y0318948D01*
X0049055Y0319681D01*
X0050523Y0319681D01*
X0051256Y0318948D01*
X0051256Y0316746D01*
X0052724Y0316746D02*
X0048321Y0316746D01*
X0049789Y0321350D02*
X0048321Y0322817D01*
X0052724Y0322817D01*
X0052724Y0321350D02*
X0052724Y0324285D01*
D107*
X0163965Y0320976D03*
X0163965Y0318024D03*
D108*
X0163965Y0319500D03*
D109*
X0165003Y0323550D02*
X0165003Y0327487D01*
X0166971Y0329455D01*
X0168940Y0327487D01*
X0168940Y0323550D01*
X0171448Y0324534D02*
X0171448Y0328471D01*
X0172433Y0329455D01*
X0174401Y0329455D01*
X0175385Y0328471D01*
X0175385Y0326503D02*
X0173417Y0326503D01*
X0175385Y0326503D02*
X0175385Y0324534D01*
X0174401Y0323550D01*
X0172433Y0323550D01*
X0171448Y0324534D01*
X0168940Y0326503D02*
X0165003Y0326503D01*
X0162494Y0326503D02*
X0161510Y0325518D01*
X0158557Y0325518D01*
X0158557Y0323550D02*
X0158557Y0329455D01*
X0161510Y0329455D01*
X0162494Y0328471D01*
X0162494Y0326503D01*
X0177894Y0326503D02*
X0179862Y0326503D01*
X0177894Y0329455D02*
X0177894Y0323550D01*
X0181831Y0323550D01*
X0181831Y0329455D02*
X0177894Y0329455D01*
D110*
X0212500Y0240703D02*
X0214001Y0240703D01*
X0214502Y0240202D01*
X0214502Y0239201D01*
X0214001Y0238701D01*
X0212500Y0238701D01*
X0213501Y0238701D02*
X0214502Y0237700D01*
X0215631Y0237700D02*
X0217632Y0237700D01*
X0216632Y0237700D02*
X0216632Y0240703D01*
X0215631Y0239702D01*
X0218761Y0239702D02*
X0219762Y0240703D01*
X0219762Y0237700D01*
X0218761Y0237700D02*
X0220763Y0237700D01*
X0212500Y0237700D02*
X0212500Y0240703D01*
D111*
X0149689Y0322686D02*
X0149689Y0324125D01*
X0147784Y0324319D01*
X0147579Y0324959D01*
X0147271Y0325557D01*
X0148481Y0327041D01*
X0147463Y0328059D01*
X0145979Y0326849D01*
X0145381Y0327157D01*
X0144741Y0327362D01*
X0144547Y0329267D01*
X0143108Y0329267D01*
X0142914Y0327362D01*
X0142274Y0327157D01*
X0141676Y0326849D01*
X0140192Y0328059D01*
X0139174Y0327041D01*
X0140384Y0325557D01*
X0140076Y0324959D01*
X0139871Y0324319D01*
X0137966Y0324125D01*
X0137966Y0322686D01*
X0139871Y0322492D01*
X0140076Y0321852D01*
X0140384Y0321254D01*
X0139174Y0319770D01*
X0140192Y0318752D01*
X0141676Y0319962D01*
X0142274Y0319654D01*
X0143121Y0321700D01*
X0142743Y0321912D01*
X0142424Y0322207D01*
X0142183Y0322568D01*
X0142033Y0322975D01*
X0141982Y0323406D01*
X0142035Y0323844D01*
X0142191Y0324257D01*
X0142440Y0324622D01*
X0142769Y0324917D01*
X0143159Y0325125D01*
X0143587Y0325235D01*
X0144028Y0325240D01*
X0144458Y0325139D01*
X0144852Y0324939D01*
X0145188Y0324652D01*
X0145445Y0324293D01*
X0145610Y0323883D01*
X0145672Y0323446D01*
X0145629Y0323006D01*
X0145482Y0322589D01*
X0145241Y0322219D01*
X0144919Y0321917D01*
X0144534Y0321700D01*
X0145381Y0319654D01*
X0145979Y0319962D01*
X0147463Y0318752D01*
X0148481Y0319770D01*
X0147271Y0321254D01*
X0147579Y0321852D01*
X0147784Y0322492D01*
X0149689Y0322686D01*
X0149659Y0322683D02*
X0145515Y0322683D01*
X0145655Y0323272D02*
X0149689Y0323272D01*
X0149689Y0323861D02*
X0145613Y0323861D01*
X0145332Y0324450D02*
X0147742Y0324450D01*
X0147538Y0325039D02*
X0144656Y0325039D01*
X0142998Y0325039D02*
X0140117Y0325039D01*
X0139913Y0324450D02*
X0142322Y0324450D01*
X0142041Y0323861D02*
X0137966Y0323861D01*
X0137966Y0323272D02*
X0141998Y0323272D01*
X0142141Y0322683D02*
X0137996Y0322683D01*
X0139999Y0322094D02*
X0142546Y0322094D01*
X0143040Y0321505D02*
X0140255Y0321505D01*
X0140108Y0320916D02*
X0142796Y0320916D01*
X0142552Y0320327D02*
X0139628Y0320327D01*
X0139206Y0319738D02*
X0141400Y0319738D01*
X0142112Y0319738D02*
X0142308Y0319738D01*
X0140678Y0319148D02*
X0139795Y0319148D01*
X0140326Y0325628D02*
X0147329Y0325628D01*
X0147809Y0326217D02*
X0139846Y0326217D01*
X0139366Y0326806D02*
X0148289Y0326806D01*
X0148127Y0327395D02*
X0146649Y0327395D01*
X0147372Y0327984D02*
X0147538Y0327984D01*
X0144678Y0327984D02*
X0142977Y0327984D01*
X0142918Y0327395D02*
X0144738Y0327395D01*
X0144618Y0328573D02*
X0143037Y0328573D01*
X0143097Y0329163D02*
X0144558Y0329163D01*
X0141006Y0327395D02*
X0139528Y0327395D01*
X0140117Y0327984D02*
X0140283Y0327984D01*
X0145107Y0322094D02*
X0147656Y0322094D01*
X0147400Y0321505D02*
X0144615Y0321505D01*
X0144859Y0320916D02*
X0147547Y0320916D01*
X0148027Y0320327D02*
X0145103Y0320327D01*
X0145347Y0319738D02*
X0145543Y0319738D01*
X0146255Y0319738D02*
X0148449Y0319738D01*
X0147860Y0319148D02*
X0146977Y0319148D01*
M02*
