G75*
%MOIN*%
%OFA0B0*%
%FSLAX25Y25*%
%IPPOS*%
%LPD*%
%AMOC8*
5,1,8,0,0,1.08239X$1,22.5*
%
%ADD10C,0.14580*%
%ADD11R,0.06706X0.02769*%
%ADD12R,0.02769X0.06706*%
%ADD13C,0.07200*%
%ADD14R,0.03556X0.04343*%
%ADD15C,0.02572*%
%ADD16R,0.13760X0.06040*%
%ADD17R,0.02375X0.06312*%
%ADD18R,0.08674X0.08280*%
%ADD19R,0.09461X0.08280*%
%ADD20R,0.04068X0.03280*%
%ADD21R,0.03950X0.04343*%
%ADD22C,0.10800*%
%ADD23C,0.10924*%
%ADD24C,0.16550*%
%ADD25C,0.07400*%
%ADD26R,0.03950X0.03950*%
%ADD27C,0.00500*%
%ADD28C,0.03900*%
D10*
X0074635Y0076835D03*
X0149438Y0076835D03*
X0206524Y0315024D03*
X0017548Y0316992D03*
D11*
G36*
X0085910Y0258162D02*
X0081169Y0262903D01*
X0083126Y0264860D01*
X0087867Y0260119D01*
X0085910Y0258162D01*
G37*
G36*
X0088137Y0260389D02*
X0083396Y0265130D01*
X0085353Y0267087D01*
X0090094Y0262346D01*
X0088137Y0260389D01*
G37*
G36*
X0090364Y0262616D02*
X0085623Y0267357D01*
X0087580Y0269314D01*
X0092321Y0264573D01*
X0090364Y0262616D01*
G37*
G36*
X0092591Y0264843D02*
X0087850Y0269584D01*
X0089807Y0271541D01*
X0094548Y0266800D01*
X0092591Y0264843D01*
G37*
G36*
X0094818Y0267070D02*
X0090077Y0271811D01*
X0092034Y0273768D01*
X0096775Y0269027D01*
X0094818Y0267070D01*
G37*
G36*
X0097045Y0269298D02*
X0092304Y0274039D01*
X0094261Y0275996D01*
X0099002Y0271255D01*
X0097045Y0269298D01*
G37*
G36*
X0099273Y0271525D02*
X0094532Y0276266D01*
X0096489Y0278223D01*
X0101230Y0273482D01*
X0099273Y0271525D01*
G37*
G36*
X0101500Y0273752D02*
X0096759Y0278493D01*
X0098716Y0280450D01*
X0103457Y0275709D01*
X0101500Y0273752D01*
G37*
G36*
X0103727Y0275979D02*
X0098986Y0280720D01*
X0100943Y0282677D01*
X0105684Y0277936D01*
X0103727Y0275979D01*
G37*
G36*
X0105954Y0278206D02*
X0101213Y0282947D01*
X0103170Y0284904D01*
X0107911Y0280163D01*
X0105954Y0278206D01*
G37*
G36*
X0108181Y0280433D02*
X0103440Y0285174D01*
X0105397Y0287131D01*
X0110138Y0282390D01*
X0108181Y0280433D01*
G37*
G36*
X0133793Y0241459D02*
X0129052Y0246200D01*
X0131009Y0248157D01*
X0135750Y0243416D01*
X0133793Y0241459D01*
G37*
G36*
X0131566Y0239232D02*
X0126825Y0243973D01*
X0128782Y0245930D01*
X0133523Y0241189D01*
X0131566Y0239232D01*
G37*
G36*
X0129339Y0237004D02*
X0124598Y0241745D01*
X0126555Y0243702D01*
X0131296Y0238961D01*
X0129339Y0237004D01*
G37*
G36*
X0127111Y0234777D02*
X0122370Y0239518D01*
X0124327Y0241475D01*
X0129068Y0236734D01*
X0127111Y0234777D01*
G37*
G36*
X0124884Y0232550D02*
X0120143Y0237291D01*
X0122100Y0239248D01*
X0126841Y0234507D01*
X0124884Y0232550D01*
G37*
G36*
X0122657Y0230323D02*
X0117916Y0235064D01*
X0119873Y0237021D01*
X0124614Y0232280D01*
X0122657Y0230323D01*
G37*
G36*
X0120430Y0228096D02*
X0115689Y0232837D01*
X0117646Y0234794D01*
X0122387Y0230053D01*
X0120430Y0228096D01*
G37*
G36*
X0118203Y0225869D02*
X0113462Y0230610D01*
X0115419Y0232567D01*
X0120160Y0227826D01*
X0118203Y0225869D01*
G37*
G36*
X0136020Y0243686D02*
X0131279Y0248427D01*
X0133236Y0250384D01*
X0137977Y0245643D01*
X0136020Y0243686D01*
G37*
G36*
X0138247Y0245913D02*
X0133506Y0250654D01*
X0135463Y0252611D01*
X0140204Y0247870D01*
X0138247Y0245913D01*
G37*
G36*
X0140474Y0248140D02*
X0135733Y0252881D01*
X0137690Y0254838D01*
X0142431Y0250097D01*
X0140474Y0248140D01*
G37*
D12*
G36*
X0137690Y0258162D02*
X0135733Y0260119D01*
X0140474Y0264860D01*
X0142431Y0262903D01*
X0137690Y0258162D01*
G37*
G36*
X0135463Y0260389D02*
X0133506Y0262346D01*
X0138247Y0267087D01*
X0140204Y0265130D01*
X0135463Y0260389D01*
G37*
G36*
X0133236Y0262616D02*
X0131279Y0264573D01*
X0136020Y0269314D01*
X0137977Y0267357D01*
X0133236Y0262616D01*
G37*
G36*
X0131009Y0264843D02*
X0129052Y0266800D01*
X0133793Y0271541D01*
X0135750Y0269584D01*
X0131009Y0264843D01*
G37*
G36*
X0128782Y0267070D02*
X0126825Y0269027D01*
X0131566Y0273768D01*
X0133523Y0271811D01*
X0128782Y0267070D01*
G37*
G36*
X0126555Y0269298D02*
X0124598Y0271255D01*
X0129339Y0275996D01*
X0131296Y0274039D01*
X0126555Y0269298D01*
G37*
G36*
X0124327Y0271525D02*
X0122370Y0273482D01*
X0127111Y0278223D01*
X0129068Y0276266D01*
X0124327Y0271525D01*
G37*
G36*
X0122100Y0273752D02*
X0120143Y0275709D01*
X0124884Y0280450D01*
X0126841Y0278493D01*
X0122100Y0273752D01*
G37*
G36*
X0119873Y0275979D02*
X0117916Y0277936D01*
X0122657Y0282677D01*
X0124614Y0280720D01*
X0119873Y0275979D01*
G37*
G36*
X0117646Y0278206D02*
X0115689Y0280163D01*
X0120430Y0284904D01*
X0122387Y0282947D01*
X0117646Y0278206D01*
G37*
G36*
X0115419Y0280433D02*
X0113462Y0282390D01*
X0118203Y0287131D01*
X0120160Y0285174D01*
X0115419Y0280433D01*
G37*
G36*
X0089807Y0241459D02*
X0087850Y0243416D01*
X0092591Y0248157D01*
X0094548Y0246200D01*
X0089807Y0241459D01*
G37*
G36*
X0092034Y0239232D02*
X0090077Y0241189D01*
X0094818Y0245930D01*
X0096775Y0243973D01*
X0092034Y0239232D01*
G37*
G36*
X0094261Y0237004D02*
X0092304Y0238961D01*
X0097045Y0243702D01*
X0099002Y0241745D01*
X0094261Y0237004D01*
G37*
G36*
X0096489Y0234777D02*
X0094532Y0236734D01*
X0099273Y0241475D01*
X0101230Y0239518D01*
X0096489Y0234777D01*
G37*
G36*
X0098716Y0232550D02*
X0096759Y0234507D01*
X0101500Y0239248D01*
X0103457Y0237291D01*
X0098716Y0232550D01*
G37*
G36*
X0100943Y0230323D02*
X0098986Y0232280D01*
X0103727Y0237021D01*
X0105684Y0235064D01*
X0100943Y0230323D01*
G37*
G36*
X0103170Y0228096D02*
X0101213Y0230053D01*
X0105954Y0234794D01*
X0107911Y0232837D01*
X0103170Y0228096D01*
G37*
G36*
X0105397Y0225869D02*
X0103440Y0227826D01*
X0108181Y0232567D01*
X0110138Y0230610D01*
X0105397Y0225869D01*
G37*
G36*
X0087580Y0243686D02*
X0085623Y0245643D01*
X0090364Y0250384D01*
X0092321Y0248427D01*
X0087580Y0243686D01*
G37*
G36*
X0085353Y0245913D02*
X0083396Y0247870D01*
X0088137Y0252611D01*
X0090094Y0250654D01*
X0085353Y0245913D01*
G37*
G36*
X0083126Y0248140D02*
X0081169Y0250097D01*
X0085910Y0254838D01*
X0087867Y0252881D01*
X0083126Y0248140D01*
G37*
D13*
X0068524Y0306654D03*
X0068524Y0316654D03*
X0068524Y0326654D03*
X0058524Y0326654D03*
X0058524Y0316654D03*
X0058524Y0306654D03*
D14*
G36*
X0086795Y0284688D02*
X0089310Y0282173D01*
X0086241Y0279104D01*
X0083726Y0281619D01*
X0086795Y0284688D01*
G37*
G36*
X0090414Y0281069D02*
X0092929Y0278554D01*
X0089860Y0275485D01*
X0087345Y0278000D01*
X0090414Y0281069D01*
G37*
G36*
X0101172Y0289193D02*
X0098657Y0286678D01*
X0095588Y0289747D01*
X0098103Y0292262D01*
X0101172Y0289193D01*
G37*
G36*
X0104791Y0292812D02*
X0102276Y0290297D01*
X0099207Y0293366D01*
X0101722Y0295881D01*
X0104791Y0292812D01*
G37*
G36*
X0076231Y0241921D02*
X0078746Y0244436D01*
X0081815Y0241367D01*
X0079300Y0238852D01*
X0076231Y0241921D01*
G37*
G36*
X0072612Y0238302D02*
X0075127Y0240817D01*
X0078196Y0237748D01*
X0075681Y0235233D01*
X0072612Y0238302D01*
G37*
X0022359Y0236000D03*
X0017241Y0236000D03*
X0017241Y0230000D03*
X0022359Y0230000D03*
X0022359Y0224000D03*
X0017241Y0224000D03*
G36*
X0145213Y0265018D02*
X0142698Y0267533D01*
X0145767Y0270602D01*
X0148282Y0268087D01*
X0145213Y0265018D01*
G37*
G36*
X0148833Y0261398D02*
X0146318Y0263913D01*
X0149387Y0266982D01*
X0151902Y0264467D01*
X0148833Y0261398D01*
G37*
X0173115Y0319390D03*
X0178233Y0319390D03*
X0189741Y0251000D03*
X0194859Y0251000D03*
X0194859Y0245000D03*
X0189741Y0245000D03*
X0189741Y0239000D03*
X0194859Y0239000D03*
X0203741Y0239000D03*
X0203741Y0245000D03*
X0203741Y0251000D03*
X0208859Y0251000D03*
X0208859Y0245000D03*
X0208859Y0239000D03*
D15*
X0090638Y0230275D02*
X0086588Y0226225D01*
X0083247Y0229566D02*
X0087297Y0233616D01*
X0083957Y0236956D02*
X0079907Y0232906D01*
D16*
G36*
X0082558Y0238591D02*
X0092287Y0228862D01*
X0088016Y0224591D01*
X0078287Y0234320D01*
X0082558Y0238591D01*
G37*
D17*
X0107654Y0312185D03*
X0110213Y0312185D03*
X0112772Y0312185D03*
X0115331Y0312185D03*
X0117891Y0312185D03*
D18*
X0117694Y0323406D03*
X0107851Y0323406D03*
D19*
X0097024Y0323406D03*
X0128520Y0323406D03*
D20*
X0117772Y0301681D03*
X0117772Y0292626D03*
D21*
X0193060Y0265563D03*
X0196800Y0273831D03*
X0200540Y0265563D03*
D22*
X0201383Y0178799D03*
X0176383Y0168799D03*
X0201383Y0103996D03*
X0176383Y0093996D03*
X0201383Y0029193D03*
X0176383Y0019193D03*
X0126580Y0029193D03*
X0101580Y0019193D03*
X0051776Y0029193D03*
X0026776Y0019193D03*
X0026776Y0093996D03*
X0051776Y0103996D03*
X0026776Y0168799D03*
X0051776Y0178799D03*
X0101580Y0168799D03*
X0126580Y0178799D03*
X0126580Y0103996D03*
X0101580Y0093996D03*
D23*
X0091580Y0113996D03*
X0056776Y0113996D03*
X0016776Y0113996D03*
X0016776Y0039193D03*
X0056776Y0039193D03*
X0091580Y0039193D03*
X0131580Y0039193D03*
X0166383Y0039193D03*
X0206383Y0039193D03*
X0206383Y0113996D03*
X0166383Y0113996D03*
X0131580Y0113996D03*
X0131580Y0188799D03*
X0166383Y0188799D03*
X0206383Y0188799D03*
X0091580Y0188799D03*
X0056776Y0188799D03*
X0016776Y0188799D03*
D24*
X0036776Y0188799D03*
X0036776Y0113996D03*
X0036776Y0039193D03*
X0111580Y0039193D03*
X0111580Y0113996D03*
X0111580Y0188799D03*
X0186383Y0188799D03*
X0186383Y0113996D03*
X0186383Y0039193D03*
D25*
X0191383Y0054193D03*
X0181383Y0054193D03*
X0181383Y0128996D03*
X0191383Y0128996D03*
X0191383Y0203799D03*
X0181383Y0203799D03*
X0116580Y0203799D03*
X0106580Y0203799D03*
X0106580Y0128996D03*
X0116580Y0128996D03*
X0116580Y0054193D03*
X0106580Y0054193D03*
X0041776Y0054193D03*
X0031776Y0054193D03*
X0031776Y0128996D03*
X0041776Y0128996D03*
X0041776Y0203799D03*
X0031776Y0203799D03*
D26*
X0160422Y0319500D03*
X0166328Y0319500D03*
D27*
X0008784Y0011469D02*
X0009269Y0010984D01*
X0009831Y0010590D01*
X0010453Y0010300D01*
X0011116Y0010123D01*
X0011800Y0010063D01*
X0012484Y0010123D01*
X0013147Y0010300D01*
X0013769Y0010590D01*
X0014331Y0010984D01*
X0014816Y0011469D01*
X0015210Y0012031D01*
X0015500Y0012653D01*
X0015677Y0013316D01*
X0015737Y0014000D01*
X0015677Y0014684D01*
X0015500Y0015347D01*
X0015210Y0015969D01*
X0014816Y0016531D01*
X0014331Y0017016D01*
X0013769Y0017410D01*
X0013147Y0017700D01*
X0012484Y0017877D01*
X0011800Y0017937D01*
X0011116Y0017877D01*
X0010453Y0017700D01*
X0009831Y0017410D01*
X0009269Y0017016D01*
X0008784Y0016531D01*
X0008390Y0015969D01*
X0008100Y0015347D01*
X0007923Y0014684D01*
X0007863Y0014000D01*
X0007923Y0013316D01*
X0008100Y0012653D01*
X0008390Y0012031D01*
X0008784Y0011469D01*
X0008778Y0011478D02*
X0014822Y0011478D01*
X0015171Y0011976D02*
X0008429Y0011976D01*
X0008184Y0012475D02*
X0015416Y0012475D01*
X0015585Y0012973D02*
X0008015Y0012973D01*
X0007909Y0013472D02*
X0015691Y0013472D01*
X0015734Y0013970D02*
X0007866Y0013970D01*
X0007904Y0014469D02*
X0015696Y0014469D01*
X0015601Y0014967D02*
X0007999Y0014967D01*
X0008156Y0015466D02*
X0015444Y0015466D01*
X0015212Y0015964D02*
X0008388Y0015964D01*
X0008737Y0016463D02*
X0014863Y0016463D01*
X0014385Y0016961D02*
X0009215Y0016961D01*
X0009939Y0017460D02*
X0013661Y0017460D01*
X0014324Y0010979D02*
X0009276Y0010979D01*
X0010067Y0010481D02*
X0013533Y0010481D01*
X0207363Y0014000D02*
X0207423Y0013316D01*
X0207600Y0012653D01*
X0207890Y0012031D01*
X0208284Y0011469D01*
X0208769Y0010984D01*
X0209331Y0010590D01*
X0209953Y0010300D01*
X0210616Y0010123D01*
X0211300Y0010063D01*
X0211984Y0010123D01*
X0212647Y0010300D01*
X0213269Y0010590D01*
X0213831Y0010984D01*
X0214316Y0011469D01*
X0214710Y0012031D01*
X0215000Y0012653D01*
X0215177Y0013316D01*
X0215237Y0014000D01*
X0215177Y0014684D01*
X0215000Y0015347D01*
X0214710Y0015969D01*
X0214316Y0016531D01*
X0213831Y0017016D01*
X0213269Y0017410D01*
X0212647Y0017700D01*
X0211984Y0017877D01*
X0211300Y0017937D01*
X0210616Y0017877D01*
X0209953Y0017700D01*
X0209331Y0017410D01*
X0208769Y0017016D01*
X0208284Y0016531D01*
X0207890Y0015969D01*
X0207600Y0015347D01*
X0207423Y0014684D01*
X0207363Y0014000D01*
X0207366Y0013970D02*
X0215234Y0013970D01*
X0215191Y0013472D02*
X0207409Y0013472D01*
X0207515Y0012973D02*
X0215085Y0012973D01*
X0214916Y0012475D02*
X0207684Y0012475D01*
X0207929Y0011976D02*
X0214671Y0011976D01*
X0214322Y0011478D02*
X0208278Y0011478D01*
X0208776Y0010979D02*
X0213824Y0010979D01*
X0213033Y0010481D02*
X0209567Y0010481D01*
X0207404Y0014469D02*
X0215196Y0014469D01*
X0215101Y0014967D02*
X0207499Y0014967D01*
X0207656Y0015466D02*
X0214944Y0015466D01*
X0214712Y0015964D02*
X0207888Y0015964D01*
X0208237Y0016463D02*
X0214363Y0016463D01*
X0213885Y0016961D02*
X0208715Y0016961D01*
X0209439Y0017460D02*
X0213161Y0017460D01*
X0195300Y0320563D02*
X0194616Y0320623D01*
X0193953Y0320800D01*
X0193331Y0321090D01*
X0192769Y0321484D01*
X0192284Y0321969D01*
X0191890Y0322531D01*
X0191600Y0323153D01*
X0191423Y0323816D01*
X0191363Y0324500D01*
X0191423Y0325184D01*
X0191600Y0325847D01*
X0191890Y0326469D01*
X0192284Y0327031D01*
X0192769Y0327516D01*
X0193331Y0327910D01*
X0193953Y0328200D01*
X0194616Y0328377D01*
X0195300Y0328437D01*
X0195984Y0328377D01*
X0196647Y0328200D01*
X0197269Y0327910D01*
X0197831Y0327516D01*
X0198316Y0327031D01*
X0198710Y0326469D01*
X0199000Y0325847D01*
X0199177Y0325184D01*
X0199237Y0324500D01*
X0199177Y0323816D01*
X0199000Y0323153D01*
X0198710Y0322531D01*
X0198316Y0321969D01*
X0197831Y0321484D01*
X0197269Y0321090D01*
X0196647Y0320800D01*
X0195984Y0320623D01*
X0195300Y0320563D01*
X0193411Y0321053D02*
X0197189Y0321053D01*
X0197898Y0321552D02*
X0192702Y0321552D01*
X0192227Y0322050D02*
X0198373Y0322050D01*
X0198718Y0322549D02*
X0191882Y0322549D01*
X0191650Y0323047D02*
X0198950Y0323047D01*
X0199105Y0323546D02*
X0191495Y0323546D01*
X0191403Y0324044D02*
X0199197Y0324044D01*
X0199233Y0324543D02*
X0191367Y0324543D01*
X0191410Y0325041D02*
X0199190Y0325041D01*
X0199082Y0325540D02*
X0191518Y0325540D01*
X0191690Y0326038D02*
X0198910Y0326038D01*
X0198662Y0326537D02*
X0191938Y0326537D01*
X0192289Y0327035D02*
X0198311Y0327035D01*
X0197805Y0327534D02*
X0192795Y0327534D01*
X0193595Y0328032D02*
X0197005Y0328032D01*
X0032737Y0325000D02*
X0032677Y0325684D01*
X0032500Y0326347D01*
X0032210Y0326969D01*
X0031816Y0327531D01*
X0031331Y0328016D01*
X0030769Y0328410D01*
X0030147Y0328700D01*
X0029484Y0328877D01*
X0028800Y0328937D01*
X0028116Y0328877D01*
X0027453Y0328700D01*
X0026831Y0328410D01*
X0026269Y0328016D01*
X0025784Y0327531D01*
X0025390Y0326969D01*
X0025100Y0326347D01*
X0024923Y0325684D01*
X0024863Y0325000D01*
X0024923Y0324316D01*
X0025100Y0323653D01*
X0025390Y0323031D01*
X0025784Y0322469D01*
X0026269Y0321984D01*
X0026831Y0321590D01*
X0027453Y0321300D01*
X0028116Y0321123D01*
X0028800Y0321063D01*
X0029484Y0321123D01*
X0030147Y0321300D01*
X0030769Y0321590D01*
X0031331Y0321984D01*
X0031816Y0322469D01*
X0032210Y0323031D01*
X0032500Y0323653D01*
X0032677Y0324316D01*
X0032737Y0325000D01*
X0032733Y0325041D02*
X0024867Y0325041D01*
X0024903Y0324543D02*
X0032697Y0324543D01*
X0032604Y0324044D02*
X0024996Y0324044D01*
X0025151Y0323546D02*
X0032449Y0323546D01*
X0032217Y0323047D02*
X0025383Y0323047D01*
X0025728Y0322549D02*
X0031872Y0322549D01*
X0031397Y0322050D02*
X0026203Y0322050D01*
X0026915Y0321552D02*
X0030685Y0321552D01*
X0032690Y0325540D02*
X0024910Y0325540D01*
X0025018Y0326038D02*
X0032582Y0326038D01*
X0032411Y0326537D02*
X0025189Y0326537D01*
X0025437Y0327035D02*
X0032163Y0327035D01*
X0031813Y0327534D02*
X0025787Y0327534D01*
X0026293Y0328032D02*
X0031307Y0328032D01*
X0030508Y0328531D02*
X0027092Y0328531D01*
D28*
X0064300Y0264500D03*
X0072300Y0253500D03*
X0075300Y0265500D03*
X0085800Y0291500D03*
X0095300Y0304000D03*
X0105800Y0299000D03*
X0112300Y0288000D03*
X0113800Y0258500D03*
X0113800Y0254500D03*
X0109800Y0254500D03*
X0109800Y0258500D03*
X0096800Y0249000D03*
X0094300Y0259500D03*
X0111800Y0234000D03*
X0120300Y0243500D03*
X0130800Y0227500D03*
X0126300Y0223000D03*
X0137300Y0229000D03*
X0142800Y0236500D03*
X0145300Y0241500D03*
X0157800Y0259000D03*
X0165300Y0264000D03*
X0165800Y0247500D03*
X0180800Y0229000D03*
X0199300Y0230500D03*
X0213800Y0248500D03*
X0217300Y0235000D03*
X0203800Y0258000D03*
X0189800Y0257500D03*
X0185300Y0265500D03*
X0162800Y0284000D03*
X0141800Y0298000D03*
X0153300Y0220000D03*
X0158800Y0210000D03*
X0134800Y0154500D03*
X0118300Y0152000D03*
X0106300Y0153500D03*
X0080300Y0226500D03*
X0075300Y0232000D03*
X0070300Y0230000D03*
X0054800Y0257000D03*
X0030300Y0232000D03*
X0007800Y0240500D03*
X0032800Y0150000D03*
X0005800Y0149000D03*
X0037800Y0077500D03*
X0109800Y0079500D03*
X0138800Y0064500D03*
X0186300Y0075000D03*
X0187300Y0150000D03*
M02*
