G75*
%MOIN*%
%OFA0B0*%
%FSLAX25Y25*%
%IPPOS*%
%LPD*%
%AMOC8*
5,1,8,0,0,1.08239X$1,22.5*
%
%ADD10C,0.00600*%
%ADD11R,0.00100X0.00100*%
%ADD12R,0.01800X0.00100*%
%ADD13R,0.00700X0.00100*%
%ADD14R,0.00200X0.00100*%
%ADD15R,0.02800X0.00100*%
%ADD16R,0.02200X0.00100*%
%ADD17R,0.03800X0.00100*%
%ADD18R,0.04300X0.00100*%
%ADD19R,0.03400X0.00100*%
%ADD20R,0.05200X0.00100*%
%ADD21R,0.05500X0.00100*%
%ADD22R,0.04800X0.00100*%
%ADD23R,0.06200X0.00100*%
%ADD24R,0.06600X0.00100*%
%ADD25R,0.05800X0.00100*%
%ADD26R,0.07200X0.00100*%
%ADD27R,0.06400X0.00100*%
%ADD28R,0.07500X0.00100*%
%ADD29R,0.06500X0.00100*%
%ADD30R,0.08100X0.00100*%
%ADD31R,0.07300X0.00100*%
%ADD32R,0.08500X0.00100*%
%ADD33R,0.08900X0.00100*%
%ADD34R,0.07900X0.00100*%
%ADD35R,0.09100X0.00100*%
%ADD36R,0.08200X0.00100*%
%ADD37R,0.09700X0.00100*%
%ADD38R,0.08600X0.00100*%
%ADD39R,0.09800X0.00100*%
%ADD40R,0.10300X0.00100*%
%ADD41R,0.09300X0.00100*%
%ADD42R,0.10500X0.00100*%
%ADD43R,0.10900X0.00100*%
%ADD44R,0.09900X0.00100*%
%ADD45R,0.11100X0.00100*%
%ADD46R,0.10200X0.00100*%
%ADD47R,0.11500X0.00100*%
%ADD48R,0.10600X0.00100*%
%ADD49R,0.11700X0.00100*%
%ADD50R,0.10800X0.00100*%
%ADD51R,0.12100X0.00100*%
%ADD52R,0.12400X0.00100*%
%ADD53R,0.12600X0.00100*%
%ADD54R,0.12800X0.00100*%
%ADD55R,0.13100X0.00100*%
%ADD56R,0.13300X0.00100*%
%ADD57R,0.12500X0.00100*%
%ADD58R,0.13800X0.00100*%
%ADD59R,0.13000X0.00100*%
%ADD60R,0.14200X0.00100*%
%ADD61R,0.13200X0.00100*%
%ADD62R,0.14300X0.00100*%
%ADD63R,0.13400X0.00100*%
%ADD64R,0.14700X0.00100*%
%ADD65R,0.13700X0.00100*%
%ADD66R,0.14800X0.00100*%
%ADD67R,0.13900X0.00100*%
%ADD68R,0.15100X0.00100*%
%ADD69R,0.14100X0.00100*%
%ADD70R,0.15300X0.00100*%
%ADD71R,0.14500X0.00100*%
%ADD72R,0.15500X0.00100*%
%ADD73R,0.14600X0.00100*%
%ADD74R,0.15700X0.00100*%
%ADD75R,0.14900X0.00100*%
%ADD76R,0.16000X0.00100*%
%ADD77R,0.15000X0.00100*%
%ADD78R,0.16200X0.00100*%
%ADD79R,0.16300X0.00100*%
%ADD80R,0.15400X0.00100*%
%ADD81R,0.16600X0.00100*%
%ADD82R,0.16700X0.00100*%
%ADD83R,0.15800X0.00100*%
%ADD84R,0.16900X0.00100*%
%ADD85R,0.17200X0.00100*%
%ADD86R,0.17300X0.00100*%
%ADD87R,0.16400X0.00100*%
%ADD88R,0.17600X0.00100*%
%ADD89R,0.17900X0.00100*%
%ADD90R,0.17000X0.00100*%
%ADD91R,0.18000X0.00100*%
%ADD92R,0.17100X0.00100*%
%ADD93R,0.18300X0.00100*%
%ADD94R,0.18500X0.00100*%
%ADD95R,0.18700X0.00100*%
%ADD96R,0.19000X0.00100*%
%ADD97R,0.18200X0.00100*%
%ADD98R,0.19400X0.00100*%
%ADD99R,0.18400X0.00100*%
%ADD100R,0.19700X0.00100*%
%ADD101R,0.19600X0.00100*%
%ADD102R,0.20000X0.00100*%
%ADD103R,0.18900X0.00100*%
%ADD104R,0.20100X0.00100*%
%ADD105R,0.19300X0.00100*%
%ADD106R,0.20300X0.00100*%
%ADD107R,0.19200X0.00100*%
%ADD108R,0.20500X0.00100*%
%ADD109R,0.20800X0.00100*%
%ADD110R,0.19900X0.00100*%
%ADD111R,0.20900X0.00100*%
%ADD112R,0.21100X0.00100*%
%ADD113R,0.21400X0.00100*%
%ADD114R,0.20400X0.00100*%
%ADD115R,0.21600X0.00100*%
%ADD116R,0.20700X0.00100*%
%ADD117R,0.21200X0.00100*%
%ADD118R,0.18800X0.00100*%
%ADD119R,0.17700X0.00100*%
%ADD120R,0.17400X0.00100*%
%ADD121R,0.16100X0.00100*%
%ADD122R,0.15600X0.00100*%
%ADD123R,0.14400X0.00100*%
%ADD124R,0.14000X0.00100*%
%ADD125R,0.13600X0.00100*%
%ADD126R,0.13500X0.00100*%
%ADD127R,0.12900X0.00100*%
%ADD128R,0.12700X0.00100*%
%ADD129R,0.12300X0.00100*%
%ADD130R,0.12200X0.00100*%
%ADD131R,0.12000X0.00100*%
%ADD132R,0.11900X0.00100*%
%ADD133R,0.11800X0.00100*%
%ADD134R,0.11600X0.00100*%
%ADD135R,0.11300X0.00100*%
%ADD136R,0.11400X0.00100*%
%ADD137R,0.11200X0.00100*%
%ADD138R,0.11000X0.00100*%
%ADD139R,0.10700X0.00100*%
%ADD140R,0.10400X0.00100*%
%ADD141R,0.10100X0.00100*%
%ADD142R,0.10000X0.00100*%
%ADD143R,0.09600X0.00100*%
%ADD144R,0.09500X0.00100*%
%ADD145R,0.09400X0.00100*%
%ADD146R,0.09200X0.00100*%
%ADD147R,0.09000X0.00100*%
%ADD148R,0.08800X0.00100*%
%ADD149R,0.08700X0.00100*%
%ADD150R,0.00800X0.00100*%
%ADD151R,0.00400X0.00100*%
%ADD152R,0.00500X0.00100*%
%ADD153R,0.00300X0.00100*%
%ADD154R,0.15900X0.00100*%
%ADD155R,0.08400X0.00100*%
%ADD156R,0.16500X0.00100*%
%ADD157R,0.08300X0.00100*%
%ADD158R,0.16800X0.00100*%
%ADD159R,0.17500X0.00100*%
%ADD160R,0.17800X0.00100*%
%ADD161R,0.08000X0.00100*%
%ADD162R,0.18100X0.00100*%
%ADD163R,0.18600X0.00100*%
%ADD164R,0.07800X0.00100*%
%ADD165R,0.19100X0.00100*%
%ADD166R,0.07700X0.00100*%
%ADD167R,0.07600X0.00100*%
%ADD168R,0.07400X0.00100*%
%ADD169R,0.15200X0.00100*%
%ADD170R,0.20200X0.00100*%
%ADD171R,0.21000X0.00100*%
%ADD172R,0.21300X0.00100*%
%ADD173R,0.20600X0.00100*%
%ADD174R,0.19500X0.00100*%
%ADD175R,0.19800X0.00100*%
%ADD176R,0.06900X0.00100*%
%ADD177R,0.06800X0.00100*%
%ADD178R,0.06100X0.00100*%
%ADD179R,0.06000X0.00100*%
%ADD180R,0.05400X0.00100*%
%ADD181R,0.04500X0.00100*%
%ADD182R,0.03700X0.00100*%
%ADD183R,0.04100X0.00100*%
%ADD184R,0.03200X0.00100*%
%ADD185R,0.03500X0.00100*%
%ADD186R,0.02400X0.00100*%
%ADD187R,0.02600X0.00100*%
%ADD188R,0.01300X0.00100*%
%ADD189R,0.01700X0.00100*%
%ADD190C,0.00591*%
%ADD191C,0.00299*%
D10*
X0048632Y0007965D02*
X0048632Y0012369D01*
X0050100Y0010901D01*
X0051568Y0012369D01*
X0051568Y0007965D01*
X0053236Y0008699D02*
X0053236Y0011635D01*
X0053970Y0012369D01*
X0055438Y0012369D01*
X0056172Y0011635D01*
X0056172Y0008699D01*
X0055438Y0007965D01*
X0053970Y0007965D01*
X0053236Y0008699D01*
X0057840Y0008699D02*
X0058574Y0007965D01*
X0060042Y0007965D01*
X0060776Y0008699D01*
X0060776Y0011635D01*
X0060042Y0012369D01*
X0058574Y0012369D01*
X0057840Y0011635D01*
X0062344Y0008699D02*
X0062344Y0007965D01*
X0063078Y0007965D01*
X0063078Y0008699D01*
X0062344Y0008699D01*
X0064746Y0007965D02*
X0067682Y0007965D01*
X0067682Y0012369D01*
X0069283Y0012369D02*
X0070751Y0012369D01*
X0070017Y0012369D02*
X0070017Y0007965D01*
X0070751Y0007965D02*
X0069283Y0007965D01*
X0072419Y0007965D02*
X0072419Y0010901D01*
X0073887Y0012369D01*
X0075355Y0010901D01*
X0075355Y0007965D01*
X0077023Y0007965D02*
X0077023Y0012369D01*
X0078491Y0010901D01*
X0079959Y0012369D01*
X0079959Y0007965D01*
X0081627Y0008699D02*
X0081627Y0010167D01*
X0083095Y0010167D01*
X0081627Y0008699D02*
X0082361Y0007965D01*
X0083829Y0007965D01*
X0084563Y0008699D01*
X0084563Y0011635D01*
X0083829Y0012369D01*
X0082361Y0012369D01*
X0081627Y0011635D01*
X0086231Y0011635D02*
X0086231Y0010167D01*
X0086965Y0009433D01*
X0086965Y0010901D01*
X0088433Y0010901D01*
X0088433Y0009433D01*
X0086965Y0009433D01*
X0086231Y0008699D02*
X0086965Y0007965D01*
X0088433Y0007965D01*
X0089167Y0008699D01*
X0089167Y0011635D01*
X0088433Y0012369D01*
X0086965Y0012369D01*
X0086231Y0011635D01*
X0090835Y0011635D02*
X0091569Y0012369D01*
X0093037Y0012369D01*
X0093771Y0011635D01*
X0093771Y0008699D01*
X0093037Y0007965D01*
X0091569Y0007965D01*
X0090835Y0008699D01*
X0095372Y0007965D02*
X0096840Y0007965D01*
X0096106Y0007965D02*
X0096106Y0012369D01*
X0096840Y0012369D02*
X0095372Y0012369D01*
X0098508Y0011635D02*
X0098508Y0010167D01*
X0099242Y0009433D01*
X0101444Y0009433D01*
X0101444Y0007965D02*
X0101444Y0012369D01*
X0099242Y0012369D01*
X0098508Y0011635D01*
X0099976Y0009433D02*
X0098508Y0007965D01*
X0103112Y0012369D02*
X0106048Y0012369D01*
X0104580Y0012369D02*
X0104580Y0007965D01*
X0107716Y0008699D02*
X0108450Y0007965D01*
X0109918Y0007965D01*
X0110652Y0008699D01*
X0110652Y0011635D01*
X0109918Y0012369D01*
X0108450Y0012369D01*
X0107716Y0011635D01*
X0112320Y0012369D02*
X0115256Y0012369D01*
X0115256Y0007965D01*
X0112320Y0007965D01*
X0113788Y0010167D02*
X0115256Y0010167D01*
X0116924Y0007965D02*
X0119860Y0007965D01*
X0119860Y0012369D01*
X0121528Y0012369D02*
X0124464Y0012369D01*
X0124464Y0007965D01*
X0121528Y0007965D01*
X0122996Y0010167D02*
X0124464Y0010167D01*
X0126132Y0010167D02*
X0129068Y0010167D01*
X0129068Y0007965D02*
X0129068Y0012369D01*
X0130736Y0011635D02*
X0131470Y0012369D01*
X0132938Y0012369D01*
X0133672Y0011635D01*
X0133672Y0008699D01*
X0132938Y0007965D01*
X0131470Y0007965D01*
X0130736Y0008699D01*
X0135340Y0007965D02*
X0135340Y0010901D01*
X0136808Y0012369D01*
X0138275Y0010901D01*
X0138275Y0007965D01*
X0139944Y0007965D02*
X0142879Y0007965D01*
X0142879Y0012369D01*
X0139944Y0012369D01*
X0141411Y0010167D02*
X0142879Y0010167D01*
X0144547Y0009433D02*
X0144547Y0008699D01*
X0145281Y0007965D01*
X0147483Y0007965D01*
X0147483Y0012369D01*
X0145281Y0012369D01*
X0144547Y0011635D01*
X0144547Y0010901D01*
X0145281Y0010167D01*
X0147483Y0010167D01*
X0145281Y0010167D02*
X0144547Y0009433D01*
X0149151Y0011635D02*
X0150619Y0010167D01*
X0150619Y0007965D01*
X0150619Y0010167D02*
X0152087Y0011635D01*
X0152087Y0012369D01*
X0153755Y0012369D02*
X0156691Y0012369D01*
X0156691Y0007965D01*
X0153755Y0007965D01*
X0155223Y0010167D02*
X0156691Y0010167D01*
X0158359Y0007965D02*
X0161295Y0007965D01*
X0161295Y0012369D01*
X0158359Y0012369D01*
X0159827Y0010167D02*
X0161295Y0010167D01*
X0162963Y0007965D02*
X0165899Y0007965D01*
X0165899Y0012369D01*
X0167567Y0007965D02*
X0170503Y0007965D01*
X0170503Y0012369D01*
X0172171Y0010901D02*
X0172171Y0007965D01*
X0172171Y0010167D02*
X0175107Y0010167D01*
X0175107Y0010901D02*
X0175107Y0007965D01*
X0175107Y0010901D02*
X0173639Y0012369D01*
X0172171Y0010901D01*
X0149151Y0011635D02*
X0149151Y0012369D01*
X0138275Y0010167D02*
X0135340Y0010167D01*
X0126132Y0012369D02*
X0126132Y0007965D01*
X0075355Y0010167D02*
X0072419Y0010167D01*
D11*
X0047800Y0224400D03*
X0047400Y0224400D03*
X0046100Y0224300D03*
X0045900Y0224300D03*
X0045700Y0224300D03*
X0045500Y0224300D03*
X0049900Y0224700D03*
X0051100Y0224900D03*
X0051700Y0225000D03*
X0056400Y0226200D03*
X0058300Y0226900D03*
X0052800Y0232800D03*
X0052500Y0232700D03*
X0049300Y0232000D03*
X0048400Y0231900D03*
X0047900Y0231800D03*
X0047600Y0231800D03*
X0046900Y0231700D03*
X0040900Y0231700D03*
X0039700Y0231800D03*
X0039200Y0231900D03*
X0037300Y0232200D03*
X0036900Y0232300D03*
X0034800Y0232800D03*
X0033100Y0225700D03*
X0034700Y0225300D03*
X0036100Y0225000D03*
X0037800Y0224700D03*
X0040200Y0224400D03*
X0030700Y0226400D03*
X0029100Y0235000D03*
X0025900Y0243900D03*
X0025800Y0251700D03*
X0025600Y0251700D03*
X0026000Y0251700D03*
X0026200Y0251700D03*
X0026400Y0251700D03*
X0026600Y0251700D03*
X0026800Y0251700D03*
X0027400Y0251700D03*
X0028000Y0251700D03*
X0028600Y0251700D03*
X0029100Y0251700D03*
X0029400Y0251700D03*
X0029900Y0251700D03*
X0030200Y0251700D03*
X0025000Y0251700D03*
X0024400Y0251700D03*
X0024200Y0251700D03*
X0024000Y0251700D03*
X0023800Y0251700D03*
X0023600Y0251700D03*
X0023400Y0251700D03*
X0023200Y0251700D03*
X0021400Y0251700D03*
X0021000Y0251700D03*
X0020500Y0251700D03*
X0010400Y0263200D03*
X0010200Y0263200D03*
X0010000Y0263200D03*
X0009200Y0263200D03*
X0008900Y0263200D03*
X0008700Y0263200D03*
X0008500Y0263200D03*
X0008300Y0263200D03*
X0008100Y0263200D03*
X0007900Y0263200D03*
X0007700Y0263200D03*
X0007100Y0263200D03*
X0006900Y0263200D03*
X0006400Y0263200D03*
X0006200Y0263200D03*
X0006000Y0263200D03*
X0005200Y0263200D03*
X0005000Y0263200D03*
X0004800Y0263200D03*
X0004100Y0263200D03*
X0003900Y0263200D03*
X0003700Y0263200D03*
X0003500Y0263200D03*
X0003400Y0267200D03*
X0003600Y0267200D03*
X0004300Y0267200D03*
X0004600Y0267200D03*
X0005400Y0267200D03*
X0006900Y0267200D03*
X0007100Y0267200D03*
X0007700Y0267200D03*
X0007900Y0267200D03*
X0008500Y0267200D03*
X0008700Y0267200D03*
X0009400Y0267200D03*
X0010500Y0267200D03*
X0027100Y0293600D03*
X0024200Y0300400D03*
X0036900Y0297400D03*
X0038400Y0297700D03*
X0039100Y0297800D03*
X0039900Y0297900D03*
X0040800Y0298000D03*
X0041800Y0298100D03*
X0046800Y0298000D03*
X0048400Y0297800D03*
X0048700Y0297800D03*
X0050700Y0297400D03*
X0051600Y0304700D03*
X0057800Y0303000D03*
X0041800Y0305400D03*
X0041600Y0305400D03*
X0040000Y0305300D03*
X0037100Y0304900D03*
X0054200Y0280900D03*
X0054100Y0280800D03*
X0054400Y0280900D03*
X0055000Y0280900D03*
X0055600Y0280900D03*
X0057100Y0280900D03*
X0057600Y0280900D03*
X0058200Y0280900D03*
X0058800Y0280900D03*
X0060300Y0280900D03*
X0060800Y0280900D03*
X0061400Y0280900D03*
X0062300Y0280900D03*
X0062900Y0280900D03*
X0063700Y0280900D03*
X0077600Y0267000D03*
X0078200Y0267000D03*
X0078700Y0267000D03*
X0080100Y0267000D03*
X0080300Y0267000D03*
X0081600Y0267000D03*
X0081800Y0267000D03*
X0082400Y0267000D03*
X0082900Y0267000D03*
X0083100Y0267000D03*
X0084100Y0267000D03*
X0084300Y0267000D03*
X0084000Y0263000D03*
X0083700Y0263000D03*
X0083400Y0263000D03*
X0083200Y0263000D03*
X0082900Y0263000D03*
X0082600Y0263000D03*
X0082400Y0263000D03*
X0082000Y0263000D03*
X0081600Y0263000D03*
X0081400Y0263000D03*
X0081200Y0263000D03*
X0080800Y0263000D03*
X0080600Y0263000D03*
X0080300Y0263000D03*
X0080000Y0263000D03*
X0079800Y0263000D03*
X0079600Y0263000D03*
X0079400Y0263000D03*
X0079200Y0263000D03*
X0078900Y0263000D03*
X0078600Y0263000D03*
X0078400Y0263000D03*
X0078100Y0263000D03*
X0077700Y0263000D03*
X0077500Y0263000D03*
X0077200Y0263000D03*
D12*
X0046250Y0224400D03*
D13*
X0041000Y0224400D03*
X0025400Y0243900D03*
D14*
X0025250Y0251700D03*
X0024650Y0251700D03*
X0022850Y0251700D03*
X0022250Y0251700D03*
X0027050Y0251700D03*
X0027650Y0251700D03*
X0028250Y0251700D03*
X0028850Y0251700D03*
X0029650Y0251700D03*
X0009650Y0263200D03*
X0007450Y0263200D03*
X0005650Y0263200D03*
X0004450Y0263200D03*
X0006650Y0267200D03*
X0010250Y0267200D03*
X0037850Y0297600D03*
X0039650Y0297900D03*
X0047950Y0297900D03*
X0049850Y0297600D03*
X0049850Y0305000D03*
X0054650Y0280900D03*
X0055250Y0280900D03*
X0055850Y0280900D03*
X0056250Y0280900D03*
X0056550Y0280900D03*
X0056850Y0280900D03*
X0057350Y0280900D03*
X0057850Y0280900D03*
X0058450Y0280900D03*
X0059050Y0280900D03*
X0059450Y0280900D03*
X0059750Y0280900D03*
X0060050Y0280900D03*
X0060550Y0280900D03*
X0061050Y0280900D03*
X0061650Y0280900D03*
X0078450Y0267000D03*
X0079450Y0267000D03*
X0080950Y0267000D03*
X0082650Y0267000D03*
X0084250Y0263000D03*
X0048350Y0224500D03*
X0040450Y0224400D03*
D15*
X0039950Y0224600D03*
X0046750Y0224500D03*
D16*
X0040350Y0224500D03*
D17*
X0047350Y0224600D03*
D18*
X0047600Y0224700D03*
X0039300Y0224800D03*
D19*
X0039650Y0224700D03*
D20*
X0038850Y0225000D03*
X0047950Y0224800D03*
X0048550Y0304800D03*
D21*
X0048700Y0304700D03*
X0048200Y0224900D03*
D22*
X0038950Y0224900D03*
X0039650Y0304900D03*
D23*
X0048450Y0225000D03*
D24*
X0048750Y0225100D03*
X0049250Y0304500D03*
D25*
X0038450Y0225100D03*
D26*
X0048950Y0225200D03*
X0080650Y0261500D03*
X0080750Y0262600D03*
X0080750Y0262800D03*
X0080750Y0262900D03*
X0080650Y0268200D03*
X0006950Y0263000D03*
X0006950Y0262300D03*
X0007150Y0260500D03*
D27*
X0038250Y0225200D03*
D28*
X0037700Y0225500D03*
X0049200Y0225300D03*
X0079500Y0255100D03*
X0079600Y0255500D03*
X0079700Y0256000D03*
X0079800Y0256200D03*
X0079800Y0256300D03*
X0079800Y0256400D03*
X0079800Y0256500D03*
X0079900Y0256600D03*
X0079900Y0256700D03*
X0079900Y0256800D03*
X0079900Y0257000D03*
X0080000Y0257100D03*
X0080000Y0257200D03*
X0080000Y0257300D03*
X0080100Y0257700D03*
X0080100Y0257800D03*
X0080200Y0258100D03*
X0080200Y0258300D03*
X0080300Y0258800D03*
X0080300Y0270900D03*
X0080200Y0271400D03*
X0080200Y0271500D03*
X0080100Y0272100D03*
X0080000Y0272300D03*
X0080000Y0272500D03*
X0079900Y0272900D03*
X0079900Y0273000D03*
X0079900Y0273100D03*
X0079800Y0273200D03*
X0079800Y0273300D03*
X0079800Y0273400D03*
X0079800Y0273500D03*
X0079700Y0273700D03*
X0079700Y0273800D03*
X0079700Y0273900D03*
X0079600Y0274100D03*
X0079500Y0274500D03*
X0049700Y0304300D03*
X0008200Y0274500D03*
X0008100Y0274100D03*
X0008000Y0273800D03*
X0008000Y0273700D03*
X0007900Y0273500D03*
X0007900Y0273400D03*
X0007900Y0273300D03*
X0007900Y0273200D03*
X0007800Y0273100D03*
X0007800Y0273000D03*
X0007800Y0272900D03*
X0007800Y0272800D03*
X0007700Y0272500D03*
X0007700Y0272400D03*
X0007600Y0271900D03*
X0007600Y0271700D03*
X0007500Y0271500D03*
X0007500Y0271400D03*
X0007400Y0258800D03*
X0007500Y0258300D03*
X0007500Y0258100D03*
X0007600Y0257800D03*
X0007600Y0257600D03*
X0007700Y0257300D03*
X0007700Y0257100D03*
X0007800Y0256900D03*
X0007800Y0256800D03*
X0007800Y0256700D03*
X0007800Y0256600D03*
X0007900Y0256500D03*
X0007900Y0256400D03*
X0007900Y0256300D03*
X0007900Y0256200D03*
X0008000Y0256000D03*
X0008000Y0255900D03*
X0008100Y0255700D03*
X0008100Y0255600D03*
X0008100Y0255500D03*
X0008200Y0255300D03*
X0008200Y0255200D03*
X0008300Y0254800D03*
D29*
X0038100Y0225300D03*
X0038800Y0304600D03*
D30*
X0037900Y0304200D03*
X0010700Y0281100D03*
X0010600Y0280900D03*
X0010600Y0280800D03*
X0010500Y0280700D03*
X0010500Y0280600D03*
X0010400Y0280500D03*
X0010300Y0280300D03*
X0010300Y0280200D03*
X0010300Y0249500D03*
X0010400Y0249300D03*
X0010400Y0249200D03*
X0010400Y0249100D03*
X0010500Y0249000D03*
X0010600Y0248900D03*
X0010600Y0248800D03*
X0010700Y0248600D03*
X0049400Y0225400D03*
X0077000Y0248600D03*
X0077100Y0248800D03*
X0077100Y0248900D03*
X0077200Y0249000D03*
X0077200Y0249100D03*
X0077300Y0249200D03*
X0077300Y0249300D03*
X0077400Y0249500D03*
X0077400Y0280200D03*
X0077300Y0280400D03*
X0077300Y0280500D03*
X0077200Y0280700D03*
X0077100Y0280800D03*
X0077100Y0280900D03*
X0077000Y0281000D03*
X0077000Y0281100D03*
X0076900Y0281300D03*
D31*
X0080400Y0270400D03*
X0080400Y0270100D03*
X0080500Y0269700D03*
X0080500Y0269400D03*
X0080600Y0268800D03*
X0080600Y0268600D03*
X0080600Y0268500D03*
X0080600Y0268400D03*
X0080700Y0267900D03*
X0080700Y0267700D03*
X0080700Y0267600D03*
X0080700Y0267500D03*
X0080700Y0267400D03*
X0080700Y0267300D03*
X0080700Y0267200D03*
X0080700Y0262400D03*
X0080700Y0262300D03*
X0080700Y0262200D03*
X0080700Y0262100D03*
X0080700Y0262000D03*
X0080700Y0261800D03*
X0080600Y0261300D03*
X0080600Y0261100D03*
X0080600Y0261000D03*
X0080600Y0260900D03*
X0080600Y0260700D03*
X0080500Y0260500D03*
X0080500Y0260300D03*
X0080500Y0260200D03*
X0080500Y0259900D03*
X0080400Y0259500D03*
X0080400Y0259400D03*
X0080300Y0258900D03*
X0037800Y0225400D03*
X0007400Y0258700D03*
X0007400Y0258900D03*
X0007300Y0259600D03*
X0007200Y0260000D03*
X0007200Y0260100D03*
X0007200Y0260200D03*
X0007100Y0260900D03*
X0007100Y0261000D03*
X0007100Y0261100D03*
X0007100Y0261300D03*
X0007100Y0261500D03*
X0007000Y0261700D03*
X0007000Y0261800D03*
X0007000Y0261900D03*
X0007000Y0262000D03*
X0007000Y0262100D03*
X0007000Y0262400D03*
X0007000Y0262600D03*
X0007000Y0262800D03*
X0006900Y0262900D03*
X0006900Y0263100D03*
X0007000Y0267300D03*
X0007000Y0267400D03*
X0007000Y0267500D03*
X0007000Y0267600D03*
X0007000Y0267700D03*
X0007000Y0267900D03*
X0007000Y0268200D03*
X0007100Y0268400D03*
X0007100Y0268600D03*
X0007100Y0268700D03*
X0007100Y0268900D03*
X0007100Y0269100D03*
X0007200Y0269300D03*
X0007200Y0269400D03*
X0007200Y0269800D03*
X0007300Y0270200D03*
X0007300Y0270300D03*
X0038400Y0304400D03*
D32*
X0050300Y0304000D03*
X0075400Y0284000D03*
X0075400Y0283900D03*
X0075500Y0283800D03*
X0075600Y0283600D03*
X0075700Y0283500D03*
X0075700Y0283400D03*
X0075800Y0283300D03*
X0075800Y0246400D03*
X0075700Y0246300D03*
X0075700Y0246200D03*
X0075600Y0246100D03*
X0075500Y0245900D03*
X0075400Y0245700D03*
X0049600Y0225500D03*
X0012400Y0245600D03*
X0012300Y0245700D03*
X0012200Y0245900D03*
X0012100Y0246000D03*
X0012100Y0246100D03*
X0011900Y0246400D03*
X0011900Y0246500D03*
X0011700Y0282900D03*
X0011900Y0283300D03*
X0012000Y0283500D03*
X0012100Y0283600D03*
X0012200Y0283800D03*
X0012300Y0284000D03*
X0012400Y0284100D03*
D33*
X0013500Y0285800D03*
X0013600Y0285900D03*
X0013800Y0286200D03*
X0037600Y0304000D03*
X0049500Y0280900D03*
X0049400Y0280800D03*
X0049200Y0280400D03*
X0049100Y0280200D03*
X0045400Y0272700D03*
X0045400Y0272600D03*
X0040900Y0263800D03*
X0040100Y0262200D03*
X0035300Y0252700D03*
X0035000Y0252000D03*
X0034800Y0251700D03*
X0050400Y0262600D03*
X0050300Y0262900D03*
X0051000Y0261500D03*
X0051100Y0261300D03*
X0051200Y0261100D03*
X0051800Y0259900D03*
X0052600Y0258300D03*
X0052900Y0257700D03*
X0053100Y0257300D03*
X0053600Y0256200D03*
X0054000Y0255400D03*
X0054500Y0254500D03*
X0054600Y0254300D03*
X0055100Y0253300D03*
X0055300Y0252900D03*
X0055500Y0252500D03*
X0056200Y0251100D03*
X0056300Y0250900D03*
X0057200Y0249100D03*
X0057700Y0248100D03*
X0057900Y0247700D03*
X0058200Y0247100D03*
X0049800Y0225600D03*
X0073900Y0243500D03*
X0074000Y0243600D03*
X0074100Y0243800D03*
X0074200Y0243900D03*
X0074200Y0244000D03*
X0074300Y0244100D03*
X0074400Y0285500D03*
X0074300Y0285600D03*
X0074200Y0285800D03*
X0074100Y0285900D03*
X0074000Y0286100D03*
X0013800Y0243500D03*
X0013600Y0243700D03*
X0013600Y0243800D03*
X0013500Y0243900D03*
X0013500Y0244000D03*
X0013300Y0244200D03*
D34*
X0010200Y0249700D03*
X0010000Y0250100D03*
X0009900Y0250400D03*
X0009800Y0250600D03*
X0009700Y0250800D03*
X0009700Y0250900D03*
X0009600Y0251000D03*
X0009600Y0251100D03*
X0009500Y0251300D03*
X0009400Y0251500D03*
X0009300Y0277800D03*
X0009400Y0278300D03*
X0009500Y0278400D03*
X0009600Y0278600D03*
X0009600Y0278700D03*
X0009700Y0278800D03*
X0009700Y0278900D03*
X0009800Y0279100D03*
X0009800Y0279200D03*
X0009900Y0279300D03*
X0009900Y0279400D03*
X0010000Y0279600D03*
X0010100Y0279800D03*
X0037400Y0225600D03*
X0077600Y0249900D03*
X0077700Y0250100D03*
X0077800Y0250400D03*
X0077900Y0250500D03*
X0077900Y0250600D03*
X0078000Y0250700D03*
X0078000Y0250800D03*
X0078000Y0250900D03*
X0078100Y0251000D03*
X0078100Y0251100D03*
X0078200Y0251300D03*
X0078300Y0251600D03*
X0078400Y0251800D03*
X0078400Y0277900D03*
X0078200Y0278400D03*
X0078100Y0278600D03*
X0078100Y0278700D03*
X0078000Y0278800D03*
X0078000Y0278900D03*
X0077900Y0279100D03*
X0077800Y0279300D03*
X0077800Y0279400D03*
X0077700Y0279600D03*
X0077500Y0280000D03*
D35*
X0073600Y0286600D03*
X0073500Y0286800D03*
X0073300Y0286900D03*
X0073300Y0287000D03*
X0045400Y0272500D03*
X0073300Y0242700D03*
X0073500Y0242900D03*
X0073500Y0243000D03*
X0073600Y0243100D03*
X0050000Y0225700D03*
X0036900Y0225900D03*
X0014400Y0242700D03*
X0014400Y0242800D03*
X0014200Y0242900D03*
X0014100Y0243100D03*
X0014100Y0243200D03*
X0014100Y0286600D03*
X0014200Y0286700D03*
X0014200Y0286800D03*
X0014300Y0286900D03*
D36*
X0011150Y0282000D03*
X0011150Y0281900D03*
X0011050Y0281700D03*
X0010950Y0281600D03*
X0010950Y0281500D03*
X0010850Y0281400D03*
X0010850Y0281300D03*
X0010750Y0281200D03*
X0010650Y0281000D03*
X0010650Y0248700D03*
X0010750Y0248500D03*
X0010850Y0248400D03*
X0010850Y0248300D03*
X0010950Y0248200D03*
X0010950Y0248100D03*
X0011050Y0248000D03*
X0011050Y0247900D03*
X0011150Y0247800D03*
X0011150Y0247700D03*
X0011250Y0247600D03*
X0037350Y0225700D03*
X0076450Y0247600D03*
X0076650Y0247900D03*
X0076650Y0248000D03*
X0076750Y0248100D03*
X0076750Y0248200D03*
X0076850Y0248300D03*
X0076850Y0248400D03*
X0076950Y0248500D03*
X0077050Y0248700D03*
X0076950Y0281200D03*
X0076850Y0281400D03*
X0076750Y0281500D03*
X0076750Y0281600D03*
X0076650Y0281800D03*
X0076550Y0281900D03*
X0076350Y0282300D03*
X0050050Y0304100D03*
D37*
X0071700Y0288900D03*
X0071800Y0288800D03*
X0071900Y0241000D03*
X0071700Y0240800D03*
X0071600Y0240700D03*
X0071400Y0240500D03*
X0050200Y0225800D03*
X0036600Y0226100D03*
X0016100Y0240700D03*
X0016000Y0240800D03*
X0015800Y0241000D03*
X0015800Y0288700D03*
X0015900Y0288800D03*
X0016100Y0289000D03*
X0016300Y0289200D03*
D38*
X0012850Y0284800D03*
X0012650Y0284500D03*
X0012550Y0284400D03*
X0012550Y0284300D03*
X0012450Y0284200D03*
X0012250Y0283900D03*
X0012150Y0283700D03*
X0037750Y0304100D03*
X0075050Y0284500D03*
X0075150Y0284300D03*
X0075250Y0284200D03*
X0075350Y0284100D03*
X0075550Y0283700D03*
X0075450Y0245800D03*
X0075250Y0245500D03*
X0075150Y0245400D03*
X0075150Y0245300D03*
X0075050Y0245200D03*
X0074850Y0244900D03*
X0037050Y0225800D03*
X0012750Y0245000D03*
X0012550Y0245400D03*
X0012450Y0245500D03*
X0012250Y0245800D03*
D39*
X0016150Y0240600D03*
X0016250Y0240500D03*
X0016350Y0240400D03*
X0016450Y0240300D03*
X0045350Y0271700D03*
X0045350Y0271800D03*
X0071250Y0289400D03*
X0071350Y0289300D03*
X0071450Y0289200D03*
X0071550Y0289100D03*
X0071550Y0240600D03*
X0071250Y0240300D03*
X0050350Y0225900D03*
X0016150Y0289100D03*
X0016450Y0289400D03*
D40*
X0017500Y0290500D03*
X0017600Y0290600D03*
X0017700Y0290700D03*
X0017800Y0290800D03*
X0017900Y0290900D03*
X0045400Y0271300D03*
X0069900Y0290800D03*
X0070000Y0290700D03*
X0070100Y0290600D03*
X0070200Y0239200D03*
X0070100Y0239100D03*
X0070000Y0239000D03*
X0050500Y0226000D03*
X0017800Y0238900D03*
X0017700Y0239000D03*
X0017600Y0239100D03*
D41*
X0015200Y0241700D03*
X0015000Y0241900D03*
X0014900Y0242100D03*
X0014800Y0242200D03*
X0014600Y0242400D03*
X0036700Y0226000D03*
X0072600Y0241800D03*
X0072700Y0242000D03*
X0072900Y0242200D03*
X0073000Y0287400D03*
X0072900Y0287500D03*
X0072800Y0287600D03*
X0072700Y0287800D03*
X0037300Y0303900D03*
X0015000Y0287700D03*
X0014900Y0287600D03*
D42*
X0018000Y0291000D03*
X0018100Y0291100D03*
X0045400Y0271100D03*
X0045400Y0271000D03*
X0069500Y0291200D03*
X0069600Y0291100D03*
X0069700Y0291000D03*
X0069600Y0238600D03*
X0069500Y0238500D03*
X0050700Y0226100D03*
X0018200Y0238500D03*
X0018100Y0238600D03*
X0018000Y0238700D03*
D43*
X0019000Y0237800D03*
X0019100Y0237700D03*
X0050800Y0226200D03*
X0068600Y0237700D03*
X0068700Y0237800D03*
X0068700Y0291900D03*
X0068600Y0292000D03*
X0019100Y0292000D03*
X0019000Y0291900D03*
D44*
X0016800Y0289800D03*
X0016600Y0289600D03*
X0016500Y0289500D03*
X0016300Y0289300D03*
X0016500Y0240200D03*
X0016600Y0240100D03*
X0016800Y0239900D03*
X0036400Y0226200D03*
X0071000Y0240000D03*
X0071100Y0240100D03*
X0071200Y0240200D03*
X0071400Y0240400D03*
X0071200Y0289500D03*
X0071100Y0289600D03*
X0071000Y0289700D03*
D45*
X0068100Y0292400D03*
X0045400Y0270500D03*
X0068100Y0237300D03*
X0051000Y0226300D03*
X0035800Y0226600D03*
X0019700Y0237200D03*
X0019600Y0237300D03*
X0019600Y0292400D03*
D46*
X0017350Y0290400D03*
X0036850Y0303600D03*
X0070150Y0290500D03*
X0070350Y0290400D03*
X0070350Y0239300D03*
X0036250Y0226300D03*
X0017350Y0239300D03*
X0017350Y0239400D03*
D47*
X0020300Y0236700D03*
X0020600Y0236500D03*
X0035700Y0226700D03*
X0051100Y0226400D03*
X0067200Y0236600D03*
X0067400Y0236700D03*
X0067400Y0293000D03*
X0051700Y0303100D03*
X0020300Y0293000D03*
X0020100Y0292800D03*
D48*
X0018550Y0291500D03*
X0018450Y0291400D03*
X0018350Y0291300D03*
X0018250Y0291200D03*
X0051250Y0303400D03*
X0069150Y0291500D03*
X0069350Y0291300D03*
X0069350Y0238400D03*
X0069250Y0238300D03*
X0036150Y0226400D03*
X0018550Y0238200D03*
X0018350Y0238400D03*
D49*
X0020700Y0236400D03*
X0021000Y0236200D03*
X0035500Y0226800D03*
X0051300Y0226500D03*
X0066700Y0236200D03*
X0067100Y0236500D03*
X0045400Y0269800D03*
X0045400Y0269900D03*
X0020900Y0293400D03*
X0020700Y0293300D03*
D50*
X0018950Y0291800D03*
X0018750Y0291700D03*
X0036550Y0303400D03*
X0051450Y0303300D03*
X0068850Y0291800D03*
X0068950Y0291700D03*
X0045350Y0270800D03*
X0045350Y0270700D03*
X0068850Y0237900D03*
X0035950Y0226500D03*
X0018750Y0238000D03*
D51*
X0021500Y0235800D03*
X0035300Y0227000D03*
X0035400Y0226900D03*
X0051400Y0226600D03*
X0065900Y0235600D03*
X0045400Y0269400D03*
X0045400Y0269500D03*
X0066000Y0294000D03*
X0066200Y0293900D03*
X0052000Y0302900D03*
X0036000Y0303000D03*
X0021400Y0293800D03*
D52*
X0021950Y0294200D03*
X0022250Y0294400D03*
X0045350Y0269200D03*
X0065750Y0294200D03*
X0065750Y0235500D03*
X0065650Y0235400D03*
X0051550Y0226700D03*
X0022150Y0235400D03*
D53*
X0022250Y0235300D03*
X0045350Y0269000D03*
X0065450Y0294400D03*
X0022550Y0294600D03*
X0051750Y0226800D03*
D54*
X0051750Y0226900D03*
X0064850Y0234900D03*
X0065150Y0235100D03*
X0045350Y0268700D03*
X0045350Y0268800D03*
X0064950Y0294700D03*
X0064850Y0294800D03*
X0022850Y0294800D03*
X0022850Y0234900D03*
X0034950Y0227200D03*
D55*
X0052000Y0227000D03*
X0064500Y0234700D03*
X0064300Y0295100D03*
D56*
X0064200Y0295200D03*
X0045400Y0268300D03*
X0045400Y0268200D03*
X0023500Y0295200D03*
X0023500Y0234500D03*
X0023700Y0234400D03*
X0052100Y0227100D03*
X0064000Y0234400D03*
X0064200Y0234500D03*
D57*
X0065300Y0235200D03*
X0065400Y0235300D03*
X0045400Y0269100D03*
X0065300Y0294500D03*
X0052200Y0302700D03*
X0035700Y0302800D03*
X0022100Y0294300D03*
X0022400Y0235200D03*
X0035200Y0227100D03*
D58*
X0024150Y0234100D03*
X0052250Y0227200D03*
X0052350Y0227300D03*
X0052850Y0302200D03*
X0035050Y0302300D03*
D59*
X0035450Y0302600D03*
X0035550Y0302700D03*
X0023250Y0295000D03*
X0045350Y0268600D03*
X0045350Y0268500D03*
X0064650Y0294900D03*
X0064550Y0295000D03*
X0023050Y0234800D03*
X0023150Y0234700D03*
X0034950Y0227300D03*
D60*
X0024950Y0233700D03*
X0045350Y0267400D03*
X0062750Y0296000D03*
X0062750Y0233700D03*
X0052450Y0227400D03*
D61*
X0064350Y0234600D03*
X0045350Y0268400D03*
X0023350Y0295100D03*
X0052550Y0302500D03*
X0052650Y0302400D03*
X0023350Y0234600D03*
X0034750Y0227400D03*
D62*
X0052600Y0227500D03*
X0045400Y0267300D03*
X0025000Y0296000D03*
X0034900Y0302100D03*
X0053100Y0302000D03*
D63*
X0035350Y0302500D03*
X0023650Y0295300D03*
X0063850Y0234300D03*
X0034650Y0227500D03*
D64*
X0052700Y0227600D03*
X0062200Y0233400D03*
X0045400Y0266800D03*
X0025500Y0296300D03*
D65*
X0024200Y0295600D03*
X0024000Y0295500D03*
X0035200Y0302400D03*
X0045400Y0267900D03*
X0045400Y0267800D03*
X0063500Y0295600D03*
X0063500Y0234100D03*
X0034600Y0227600D03*
D66*
X0025550Y0233400D03*
X0052850Y0227700D03*
X0062150Y0296300D03*
X0034650Y0301900D03*
D67*
X0024600Y0295800D03*
X0024400Y0295700D03*
X0045400Y0267700D03*
X0063300Y0295700D03*
X0053000Y0302100D03*
X0063400Y0234000D03*
X0034400Y0227700D03*
X0024400Y0234000D03*
D68*
X0045400Y0266400D03*
X0045400Y0266500D03*
X0061700Y0296500D03*
X0052900Y0227800D03*
D69*
X0063000Y0233800D03*
X0045400Y0267500D03*
X0063100Y0295800D03*
X0063000Y0295900D03*
X0024700Y0295900D03*
X0024700Y0233800D03*
X0034300Y0227800D03*
D70*
X0033800Y0228300D03*
X0026200Y0233100D03*
X0027700Y0244000D03*
X0027800Y0244100D03*
X0027800Y0244200D03*
X0045400Y0266200D03*
X0045400Y0266300D03*
X0026200Y0296600D03*
X0034300Y0301600D03*
X0034400Y0301700D03*
X0053700Y0301500D03*
X0061500Y0233100D03*
X0061300Y0233000D03*
X0053000Y0227900D03*
D71*
X0034200Y0227900D03*
X0034700Y0302000D03*
X0053200Y0301900D03*
D72*
X0061300Y0296700D03*
X0056600Y0288500D03*
X0045400Y0266100D03*
X0045400Y0266000D03*
X0027900Y0244600D03*
X0026400Y0233000D03*
X0053100Y0228000D03*
D73*
X0062350Y0233500D03*
X0045350Y0266900D03*
X0045350Y0267000D03*
X0062350Y0296200D03*
X0053350Y0301800D03*
X0025350Y0296200D03*
X0025350Y0233500D03*
X0034050Y0228000D03*
D74*
X0033600Y0228500D03*
X0026800Y0232800D03*
X0027900Y0244700D03*
X0028000Y0245000D03*
X0045400Y0265800D03*
X0056500Y0288100D03*
X0056600Y0288200D03*
X0053900Y0301300D03*
X0034200Y0301500D03*
X0026600Y0296800D03*
X0061100Y0232900D03*
X0053300Y0228100D03*
D75*
X0034000Y0228100D03*
X0025700Y0233300D03*
X0045400Y0266700D03*
X0062000Y0296400D03*
X0034500Y0301800D03*
X0025700Y0296400D03*
D76*
X0033950Y0301300D03*
X0056350Y0287500D03*
X0060850Y0296900D03*
X0045350Y0265600D03*
X0045350Y0265500D03*
X0028150Y0245600D03*
X0028050Y0245500D03*
X0033350Y0228700D03*
X0053350Y0228200D03*
X0060650Y0232700D03*
D77*
X0061750Y0233200D03*
X0061950Y0233300D03*
X0045350Y0266600D03*
X0025950Y0296500D03*
X0053450Y0301700D03*
X0025950Y0233200D03*
X0033850Y0228200D03*
D78*
X0028150Y0245700D03*
X0028250Y0245900D03*
X0028250Y0246000D03*
X0045350Y0265300D03*
X0045350Y0265400D03*
X0056250Y0287100D03*
X0056250Y0287200D03*
X0056350Y0287300D03*
X0060550Y0297000D03*
X0054050Y0301100D03*
X0033850Y0301200D03*
X0027150Y0297000D03*
X0053450Y0228300D03*
D79*
X0053600Y0228400D03*
X0033300Y0228800D03*
X0028300Y0246200D03*
X0056200Y0286800D03*
X0056200Y0287000D03*
X0060300Y0297100D03*
X0027300Y0297100D03*
D80*
X0026450Y0296700D03*
X0056650Y0288700D03*
X0027850Y0244400D03*
X0027850Y0244300D03*
X0033650Y0228400D03*
D81*
X0033050Y0229000D03*
X0027650Y0232500D03*
X0028350Y0246500D03*
X0028450Y0246700D03*
X0045350Y0265000D03*
X0056050Y0286200D03*
X0056050Y0286300D03*
X0060050Y0232500D03*
X0053650Y0228500D03*
D82*
X0053800Y0228600D03*
X0028500Y0246800D03*
X0028400Y0246900D03*
X0028500Y0247000D03*
X0045400Y0264900D03*
X0056000Y0286100D03*
X0056100Y0286400D03*
X0060100Y0297200D03*
X0027600Y0297200D03*
D83*
X0056450Y0288000D03*
X0056450Y0287900D03*
X0028050Y0245100D03*
X0027950Y0244900D03*
X0033450Y0228600D03*
X0060850Y0232800D03*
D84*
X0059800Y0232400D03*
X0053900Y0228700D03*
X0033000Y0229100D03*
X0027900Y0232400D03*
X0028600Y0247400D03*
X0045400Y0264600D03*
X0045400Y0264700D03*
X0055900Y0285700D03*
X0056000Y0286000D03*
X0059800Y0297300D03*
X0054500Y0300700D03*
X0033600Y0300900D03*
X0027900Y0297300D03*
D85*
X0033350Y0300700D03*
X0055850Y0285300D03*
X0055750Y0285100D03*
X0059550Y0297400D03*
X0028750Y0247900D03*
X0028650Y0247800D03*
X0028150Y0232300D03*
X0053950Y0228800D03*
D86*
X0054100Y0228900D03*
X0059500Y0232300D03*
X0045400Y0264200D03*
X0045400Y0264300D03*
X0055700Y0284900D03*
X0054600Y0300500D03*
X0033300Y0300600D03*
X0028800Y0248200D03*
X0028700Y0248000D03*
X0032700Y0229400D03*
D87*
X0033150Y0228900D03*
X0027350Y0232600D03*
X0028250Y0246100D03*
X0028350Y0246400D03*
X0045350Y0265100D03*
X0045350Y0265200D03*
X0056250Y0286900D03*
X0054150Y0301000D03*
X0060350Y0232600D03*
D88*
X0054250Y0229100D03*
X0054150Y0229000D03*
X0032650Y0229500D03*
X0032550Y0229600D03*
X0028850Y0248700D03*
X0028950Y0248800D03*
X0045350Y0264000D03*
X0055550Y0284200D03*
X0055550Y0284300D03*
X0055650Y0284400D03*
X0059150Y0297500D03*
X0054850Y0300300D03*
X0033150Y0300400D03*
X0028450Y0297500D03*
D89*
X0054900Y0300200D03*
X0055000Y0300100D03*
X0055500Y0283900D03*
X0055400Y0283800D03*
X0055400Y0283700D03*
X0029100Y0249400D03*
X0029000Y0249200D03*
X0028800Y0232100D03*
X0032500Y0229700D03*
X0054300Y0229200D03*
D90*
X0032850Y0229200D03*
X0028550Y0247300D03*
X0028650Y0247600D03*
X0055850Y0285600D03*
D91*
X0055350Y0283600D03*
X0033050Y0300300D03*
X0029150Y0249600D03*
X0029050Y0249300D03*
X0032350Y0229800D03*
X0054450Y0229300D03*
X0058750Y0232100D03*
D92*
X0045400Y0264400D03*
X0045400Y0264500D03*
X0055800Y0285200D03*
X0055800Y0285400D03*
X0055900Y0285500D03*
X0054600Y0300600D03*
X0033500Y0300800D03*
X0028200Y0297400D03*
X0028700Y0247700D03*
X0028600Y0247500D03*
X0032900Y0229300D03*
D93*
X0029200Y0249900D03*
X0029300Y0250100D03*
X0029300Y0250300D03*
X0054500Y0229400D03*
X0058600Y0232000D03*
X0055200Y0282800D03*
X0055100Y0299900D03*
X0032900Y0300100D03*
X0029100Y0297700D03*
D94*
X0055200Y0282700D03*
X0029400Y0250600D03*
X0029300Y0250400D03*
X0032200Y0230000D03*
X0054600Y0229500D03*
D95*
X0054700Y0229600D03*
X0054800Y0229700D03*
X0032000Y0230200D03*
X0029500Y0251000D03*
X0055000Y0282100D03*
X0055000Y0282200D03*
X0055100Y0282300D03*
X0058200Y0297800D03*
X0032700Y0299900D03*
D96*
X0032450Y0299700D03*
X0054850Y0281600D03*
X0054850Y0281500D03*
X0054850Y0281400D03*
X0054950Y0281700D03*
X0055550Y0299500D03*
X0029650Y0251500D03*
X0029550Y0251300D03*
X0031950Y0230300D03*
X0054850Y0229800D03*
X0054950Y0229900D03*
D97*
X0032250Y0229900D03*
X0029250Y0250000D03*
X0055250Y0283000D03*
X0055250Y0283100D03*
X0055250Y0283200D03*
X0055350Y0283300D03*
X0055150Y0300000D03*
D98*
X0055650Y0299300D03*
X0032350Y0299500D03*
X0032250Y0299400D03*
X0057750Y0231800D03*
X0055150Y0230100D03*
X0055050Y0230000D03*
D99*
X0032150Y0230100D03*
X0029150Y0232000D03*
X0029250Y0250200D03*
X0055150Y0282600D03*
X0055250Y0282900D03*
X0058550Y0297700D03*
X0032750Y0300000D03*
D100*
X0032200Y0299300D03*
X0055200Y0230200D03*
D101*
X0055250Y0230300D03*
X0031650Y0230700D03*
X0031550Y0230800D03*
X0055750Y0299200D03*
D102*
X0055350Y0230400D03*
D103*
X0031900Y0230400D03*
X0029500Y0251100D03*
X0029600Y0251400D03*
X0054900Y0281800D03*
X0055000Y0281900D03*
X0055400Y0299600D03*
D104*
X0056100Y0298800D03*
X0031900Y0299000D03*
X0030500Y0298000D03*
X0031300Y0231100D03*
X0055500Y0230500D03*
D105*
X0031800Y0230500D03*
X0029900Y0231800D03*
X0054800Y0281000D03*
X0054800Y0281100D03*
X0057800Y0297900D03*
D106*
X0056100Y0298700D03*
X0031900Y0298900D03*
X0030500Y0231700D03*
X0031300Y0231200D03*
X0055500Y0230600D03*
X0057200Y0231700D03*
D107*
X0031750Y0230600D03*
X0054850Y0281300D03*
X0029850Y0297900D03*
D108*
X0056200Y0298600D03*
X0056300Y0298500D03*
X0055700Y0230800D03*
X0055600Y0230700D03*
X0031100Y0231400D03*
D109*
X0031050Y0231600D03*
X0055750Y0230900D03*
D110*
X0031500Y0230900D03*
X0031400Y0231000D03*
X0032000Y0299100D03*
X0055900Y0299000D03*
X0056000Y0298900D03*
D111*
X0056400Y0298300D03*
X0031600Y0298500D03*
X0055800Y0231000D03*
D112*
X0055900Y0231100D03*
X0056000Y0231200D03*
X0056500Y0298200D03*
X0031100Y0298100D03*
D113*
X0056150Y0231400D03*
X0056050Y0231300D03*
D114*
X0031150Y0231300D03*
X0031750Y0298800D03*
D115*
X0056150Y0231500D03*
D116*
X0031000Y0231500D03*
X0031600Y0298600D03*
X0056300Y0298400D03*
D117*
X0031450Y0298300D03*
X0056550Y0231600D03*
D118*
X0058150Y0231900D03*
X0029550Y0231900D03*
X0029450Y0250900D03*
X0029550Y0251200D03*
X0054950Y0282000D03*
X0032650Y0299800D03*
X0029550Y0297800D03*
D119*
X0028800Y0297600D03*
X0033200Y0300500D03*
X0029000Y0248900D03*
X0059200Y0232200D03*
D120*
X0028450Y0232200D03*
X0028750Y0248100D03*
X0028850Y0248400D03*
X0055650Y0284600D03*
X0055650Y0284700D03*
X0055750Y0285000D03*
D121*
X0056300Y0287400D03*
X0056400Y0287600D03*
X0028200Y0245800D03*
X0027100Y0232700D03*
D122*
X0026650Y0232900D03*
X0027850Y0244500D03*
X0027950Y0244800D03*
X0045350Y0265900D03*
X0056550Y0288300D03*
X0056550Y0288400D03*
X0056650Y0288600D03*
X0061050Y0296800D03*
X0053750Y0301400D03*
D123*
X0062550Y0296100D03*
X0045350Y0267200D03*
X0045350Y0267100D03*
X0025150Y0296100D03*
X0025150Y0233600D03*
X0062550Y0233600D03*
D124*
X0063050Y0233900D03*
X0045350Y0267600D03*
X0034950Y0302200D03*
X0024550Y0233900D03*
D125*
X0024050Y0234200D03*
X0063650Y0234200D03*
X0063650Y0295500D03*
X0052750Y0302300D03*
D126*
X0063900Y0295400D03*
X0064000Y0295300D03*
X0045400Y0268100D03*
X0045400Y0268000D03*
X0023900Y0295400D03*
X0023900Y0234300D03*
D127*
X0022700Y0294700D03*
X0023000Y0294900D03*
X0064700Y0234800D03*
X0065000Y0235000D03*
D128*
X0045400Y0268900D03*
X0065100Y0294600D03*
X0052400Y0302600D03*
X0022400Y0294500D03*
X0022600Y0235100D03*
X0022600Y0235000D03*
D129*
X0021900Y0235500D03*
X0045400Y0269300D03*
X0065600Y0294300D03*
X0065900Y0294100D03*
X0052200Y0302800D03*
X0035800Y0302900D03*
X0066000Y0235700D03*
D130*
X0021850Y0235600D03*
X0021650Y0235700D03*
X0021650Y0294000D03*
X0021850Y0294100D03*
D131*
X0021550Y0293900D03*
X0045350Y0269600D03*
X0066450Y0293700D03*
X0066350Y0293800D03*
X0066450Y0236000D03*
X0066350Y0235900D03*
X0066150Y0235800D03*
X0021250Y0236000D03*
X0021150Y0236100D03*
D132*
X0021400Y0235900D03*
X0045400Y0269700D03*
X0066600Y0236100D03*
D133*
X0066850Y0236300D03*
X0066850Y0293400D03*
X0066750Y0293500D03*
X0066550Y0293600D03*
X0036150Y0303100D03*
X0021250Y0293700D03*
X0021050Y0293600D03*
X0020950Y0293500D03*
X0020850Y0236300D03*
D134*
X0020450Y0236600D03*
X0045350Y0270000D03*
X0066950Y0293300D03*
X0067150Y0293200D03*
X0067250Y0293100D03*
X0051850Y0303000D03*
X0020550Y0293200D03*
X0066950Y0236400D03*
D135*
X0067500Y0236800D03*
X0067900Y0292600D03*
X0036400Y0303300D03*
X0019800Y0237100D03*
D136*
X0020050Y0236900D03*
X0020250Y0236800D03*
X0045350Y0270100D03*
X0045350Y0270200D03*
X0067450Y0292900D03*
X0067650Y0292800D03*
X0036250Y0303200D03*
X0020450Y0293100D03*
X0020250Y0292900D03*
X0067650Y0236900D03*
D137*
X0067750Y0237000D03*
X0067850Y0237100D03*
X0068050Y0237200D03*
X0045350Y0270300D03*
X0045350Y0270400D03*
X0067750Y0292700D03*
X0067950Y0292500D03*
X0051550Y0303200D03*
X0019950Y0292700D03*
X0019850Y0292600D03*
X0019650Y0292500D03*
X0019950Y0237000D03*
D138*
X0019450Y0237400D03*
X0019350Y0237500D03*
X0019250Y0237600D03*
X0045350Y0270600D03*
X0068250Y0292300D03*
X0068350Y0292200D03*
X0068450Y0292100D03*
X0068450Y0237600D03*
X0068350Y0237500D03*
X0068250Y0237400D03*
X0019250Y0292100D03*
X0019350Y0292200D03*
X0019450Y0292300D03*
D139*
X0018600Y0291600D03*
X0036700Y0303500D03*
X0045400Y0270900D03*
X0069000Y0291600D03*
X0069300Y0291400D03*
X0069200Y0238200D03*
X0069000Y0238100D03*
X0068900Y0238000D03*
X0018900Y0237900D03*
X0018700Y0238100D03*
X0018400Y0238300D03*
D140*
X0017950Y0238800D03*
X0045350Y0271200D03*
X0051150Y0303500D03*
X0069750Y0290900D03*
X0069950Y0238900D03*
X0069750Y0238800D03*
X0069650Y0238700D03*
D141*
X0070400Y0239400D03*
X0070500Y0239500D03*
X0070600Y0239600D03*
X0070900Y0239900D03*
X0045400Y0271400D03*
X0045400Y0271500D03*
X0070400Y0290300D03*
X0070500Y0290200D03*
X0070600Y0290100D03*
X0070700Y0290000D03*
X0017300Y0290300D03*
X0017200Y0290200D03*
X0017100Y0290100D03*
X0016900Y0289900D03*
X0016900Y0239800D03*
X0017000Y0239700D03*
X0017100Y0239600D03*
X0017200Y0239500D03*
X0017500Y0239200D03*
D142*
X0016750Y0240000D03*
X0045350Y0271600D03*
X0050950Y0303600D03*
X0037050Y0303700D03*
X0016950Y0290000D03*
X0016750Y0289700D03*
X0070850Y0289800D03*
X0070850Y0289900D03*
X0070750Y0239800D03*
X0070750Y0239700D03*
D143*
X0071850Y0240900D03*
X0071950Y0241100D03*
X0072150Y0241300D03*
X0045350Y0271900D03*
X0045350Y0272000D03*
X0050850Y0303700D03*
X0071650Y0289000D03*
X0071950Y0288700D03*
X0071950Y0288600D03*
X0072050Y0288500D03*
X0072250Y0288300D03*
X0015950Y0288900D03*
X0015750Y0288600D03*
X0015550Y0288400D03*
X0015450Y0241400D03*
X0015550Y0241300D03*
X0015750Y0241100D03*
X0015850Y0240900D03*
D144*
X0015600Y0241200D03*
X0015400Y0241500D03*
X0015300Y0241600D03*
X0015300Y0288100D03*
X0015500Y0288300D03*
X0015600Y0288500D03*
X0037200Y0303800D03*
X0072300Y0288200D03*
X0072400Y0288100D03*
X0072500Y0241700D03*
X0072400Y0241600D03*
X0072200Y0241400D03*
X0072100Y0241200D03*
D145*
X0072350Y0241500D03*
X0072650Y0241900D03*
X0072850Y0242100D03*
X0045350Y0272100D03*
X0045350Y0272200D03*
X0050650Y0303800D03*
X0072150Y0288400D03*
X0072550Y0288000D03*
X0072550Y0287900D03*
X0072750Y0287700D03*
X0015350Y0288200D03*
X0015250Y0288000D03*
X0015050Y0287900D03*
X0015050Y0287800D03*
X0014750Y0287400D03*
X0014950Y0242000D03*
X0015150Y0241800D03*
D146*
X0014750Y0242300D03*
X0014550Y0242500D03*
X0014450Y0242600D03*
X0014150Y0243000D03*
X0030650Y0243900D03*
X0045350Y0272300D03*
X0045350Y0272400D03*
X0073050Y0287300D03*
X0073150Y0287200D03*
X0073250Y0287100D03*
X0073550Y0286700D03*
X0073350Y0242800D03*
X0073250Y0242600D03*
X0073150Y0242500D03*
X0073050Y0242400D03*
X0072950Y0242300D03*
X0014450Y0287000D03*
X0014450Y0287100D03*
X0014550Y0287200D03*
X0014650Y0287300D03*
X0014750Y0287500D03*
D147*
X0014050Y0286500D03*
X0013950Y0286400D03*
X0013850Y0286300D03*
X0013750Y0286100D03*
X0013650Y0286000D03*
X0013450Y0285700D03*
X0013750Y0243600D03*
X0013850Y0243400D03*
X0013950Y0243300D03*
X0050450Y0303900D03*
X0073650Y0286500D03*
X0073750Y0286400D03*
X0073850Y0286300D03*
X0073850Y0286200D03*
X0074050Y0286000D03*
X0074050Y0243700D03*
X0073850Y0243400D03*
X0073750Y0243300D03*
X0073650Y0243200D03*
D148*
X0074450Y0244200D03*
X0074450Y0244300D03*
X0074550Y0244400D03*
X0074550Y0244500D03*
X0074650Y0244600D03*
X0074750Y0244700D03*
X0059850Y0243800D03*
X0059750Y0244000D03*
X0059650Y0244200D03*
X0059650Y0244300D03*
X0059550Y0244400D03*
X0059550Y0244500D03*
X0059450Y0244700D03*
X0059350Y0244800D03*
X0059250Y0245000D03*
X0059150Y0245200D03*
X0059150Y0245300D03*
X0059050Y0245400D03*
X0058950Y0245600D03*
X0058850Y0245800D03*
X0058850Y0245900D03*
X0058750Y0246000D03*
X0058750Y0246100D03*
X0058650Y0246200D03*
X0058650Y0246300D03*
X0058550Y0246400D03*
X0058550Y0246500D03*
X0058450Y0246600D03*
X0058450Y0246700D03*
X0058350Y0246800D03*
X0058250Y0246900D03*
X0058250Y0247000D03*
X0058150Y0247200D03*
X0058050Y0247400D03*
X0058050Y0247500D03*
X0057950Y0247600D03*
X0057850Y0247800D03*
X0057850Y0247900D03*
X0057750Y0248000D03*
X0057650Y0248200D03*
X0057550Y0248300D03*
X0057550Y0248400D03*
X0057550Y0248500D03*
X0057450Y0248600D03*
X0057350Y0248800D03*
X0057250Y0248900D03*
X0057250Y0249000D03*
X0057150Y0249200D03*
X0057150Y0249300D03*
X0057050Y0249400D03*
X0057050Y0249500D03*
X0056950Y0249600D03*
X0056950Y0249700D03*
X0056850Y0249800D03*
X0056750Y0249900D03*
X0056750Y0250000D03*
X0056750Y0250100D03*
X0056650Y0250200D03*
X0056550Y0250300D03*
X0056550Y0250400D03*
X0056450Y0250600D03*
X0056350Y0250800D03*
X0056250Y0251000D03*
X0056150Y0251200D03*
X0056150Y0251300D03*
X0056050Y0251400D03*
X0056050Y0251500D03*
X0055950Y0251600D03*
X0055850Y0251800D03*
X0055750Y0251900D03*
X0055750Y0252000D03*
X0055750Y0252100D03*
X0055650Y0252200D03*
X0055550Y0252400D03*
X0055450Y0252600D03*
X0055450Y0252700D03*
X0055350Y0252800D03*
X0055250Y0253000D03*
X0055250Y0253100D03*
X0055150Y0253200D03*
X0055050Y0253400D03*
X0054950Y0253500D03*
X0054950Y0253600D03*
X0054850Y0253800D03*
X0054750Y0254000D03*
X0054750Y0254100D03*
X0054650Y0254200D03*
X0054450Y0254600D03*
X0054450Y0254700D03*
X0054350Y0254800D03*
X0054250Y0254900D03*
X0054250Y0255000D03*
X0054150Y0255200D03*
X0053950Y0255600D03*
X0053950Y0255700D03*
X0053850Y0255800D03*
X0053850Y0255900D03*
X0053750Y0256000D03*
X0053750Y0256100D03*
X0053650Y0256300D03*
X0053550Y0256400D03*
X0053450Y0256500D03*
X0053450Y0256600D03*
X0053450Y0256700D03*
X0053350Y0256800D03*
X0053250Y0256900D03*
X0053250Y0257000D03*
X0053150Y0257200D03*
X0053050Y0257400D03*
X0052950Y0257600D03*
X0052850Y0257800D03*
X0052850Y0257900D03*
X0052750Y0258000D03*
X0052750Y0258100D03*
X0052650Y0258200D03*
X0052550Y0258400D03*
X0052450Y0258600D03*
X0052350Y0258800D03*
X0052250Y0258900D03*
X0052250Y0259000D03*
X0052150Y0259100D03*
X0052150Y0259200D03*
X0052150Y0259300D03*
X0052050Y0259400D03*
X0052050Y0259500D03*
X0051950Y0259600D03*
X0051950Y0259700D03*
X0051850Y0259800D03*
X0051750Y0260000D03*
X0051650Y0260200D03*
X0051550Y0260300D03*
X0051550Y0260400D03*
X0051450Y0260600D03*
X0051350Y0260800D03*
X0051350Y0260900D03*
X0051250Y0261000D03*
X0051150Y0261200D03*
X0050950Y0261600D03*
X0050850Y0261800D03*
X0050750Y0261900D03*
X0050750Y0262000D03*
X0050650Y0262200D03*
X0050550Y0262400D03*
X0050550Y0262500D03*
X0050450Y0262700D03*
X0050350Y0262800D03*
X0050250Y0263000D03*
X0050250Y0263100D03*
X0050150Y0263200D03*
X0050050Y0263300D03*
X0050050Y0263400D03*
X0049950Y0263600D03*
X0049850Y0263700D03*
X0049850Y0263800D03*
X0045450Y0272900D03*
X0045550Y0273100D03*
X0045650Y0273300D03*
X0045650Y0273400D03*
X0045750Y0273500D03*
X0045750Y0273600D03*
X0045850Y0273800D03*
X0045950Y0273900D03*
X0045950Y0274000D03*
X0046050Y0274100D03*
X0046150Y0274300D03*
X0046150Y0274400D03*
X0046250Y0274500D03*
X0046350Y0274700D03*
X0046450Y0274900D03*
X0046450Y0275000D03*
X0046550Y0275200D03*
X0046650Y0275300D03*
X0046650Y0275400D03*
X0046750Y0275500D03*
X0046750Y0275600D03*
X0046850Y0275700D03*
X0046950Y0275900D03*
X0046950Y0276000D03*
X0047050Y0276100D03*
X0047150Y0276300D03*
X0047250Y0276500D03*
X0047350Y0276700D03*
X0047350Y0276800D03*
X0047450Y0277000D03*
X0047550Y0277100D03*
X0047550Y0277200D03*
X0047650Y0277300D03*
X0047750Y0277500D03*
X0047750Y0277600D03*
X0047850Y0277700D03*
X0047950Y0277900D03*
X0047950Y0278000D03*
X0048050Y0278100D03*
X0048150Y0278300D03*
X0048150Y0278400D03*
X0048250Y0278500D03*
X0048250Y0278600D03*
X0048350Y0278800D03*
X0048450Y0278900D03*
X0048550Y0279100D03*
X0048550Y0279200D03*
X0048650Y0279300D03*
X0048750Y0279400D03*
X0048750Y0279500D03*
X0048850Y0279600D03*
X0048850Y0279700D03*
X0048850Y0279800D03*
X0048950Y0279900D03*
X0048950Y0280000D03*
X0049050Y0280100D03*
X0049250Y0280500D03*
X0049250Y0280600D03*
X0049350Y0280700D03*
X0040950Y0263900D03*
X0040750Y0263600D03*
X0040750Y0263500D03*
X0040650Y0263400D03*
X0040650Y0263300D03*
X0040550Y0263200D03*
X0040550Y0263100D03*
X0040450Y0262900D03*
X0040350Y0262700D03*
X0040250Y0262500D03*
X0040150Y0262400D03*
X0040150Y0262300D03*
X0039950Y0262000D03*
X0039950Y0261900D03*
X0039850Y0261800D03*
X0039850Y0261700D03*
X0039750Y0261500D03*
X0039650Y0261400D03*
X0039650Y0261300D03*
X0039550Y0261100D03*
X0039450Y0260900D03*
X0039350Y0260800D03*
X0039350Y0260700D03*
X0039250Y0260600D03*
X0039250Y0260500D03*
X0039150Y0260400D03*
X0039050Y0260200D03*
X0039050Y0260100D03*
X0038950Y0260000D03*
X0038950Y0259900D03*
X0038850Y0259700D03*
X0038750Y0259500D03*
X0038650Y0259300D03*
X0038550Y0259200D03*
X0038550Y0259100D03*
X0038450Y0259000D03*
X0038450Y0258900D03*
X0038350Y0258800D03*
X0038250Y0258600D03*
X0038250Y0258500D03*
X0038150Y0258400D03*
X0038150Y0258300D03*
X0038050Y0258100D03*
X0037950Y0257900D03*
X0037850Y0257700D03*
X0037750Y0257600D03*
X0037750Y0257500D03*
X0037650Y0257400D03*
X0037650Y0257300D03*
X0037550Y0257200D03*
X0037450Y0257000D03*
X0037450Y0256900D03*
X0037350Y0256800D03*
X0037250Y0256500D03*
X0037150Y0256300D03*
X0037050Y0256100D03*
X0036950Y0256000D03*
X0036950Y0255900D03*
X0036850Y0255700D03*
X0036750Y0255600D03*
X0036750Y0255500D03*
X0036650Y0255400D03*
X0036650Y0255300D03*
X0036550Y0255200D03*
X0036450Y0254900D03*
X0036350Y0254700D03*
X0036250Y0254500D03*
X0036150Y0254300D03*
X0036050Y0254100D03*
X0035950Y0254000D03*
X0035950Y0253900D03*
X0035850Y0253800D03*
X0035850Y0253700D03*
X0035750Y0253600D03*
X0035650Y0253400D03*
X0035650Y0253300D03*
X0035550Y0253200D03*
X0035550Y0253100D03*
X0035450Y0253000D03*
X0035450Y0252900D03*
X0035350Y0252800D03*
X0035250Y0252500D03*
X0035150Y0252400D03*
X0035150Y0252300D03*
X0035050Y0252200D03*
X0034850Y0251800D03*
X0030850Y0243800D03*
X0013350Y0244100D03*
X0013250Y0244300D03*
X0013150Y0244400D03*
X0013050Y0244600D03*
X0012950Y0244700D03*
X0012750Y0284700D03*
X0013050Y0285100D03*
X0013150Y0285300D03*
X0013250Y0285400D03*
X0013350Y0285500D03*
X0013350Y0285600D03*
X0074250Y0285700D03*
X0074450Y0285400D03*
X0074550Y0285300D03*
X0074650Y0285100D03*
D149*
X0074600Y0285200D03*
X0074700Y0285000D03*
X0074800Y0284900D03*
X0074900Y0284800D03*
X0074900Y0284700D03*
X0075000Y0284600D03*
X0075100Y0284400D03*
X0053000Y0257500D03*
X0053200Y0257100D03*
X0052500Y0258500D03*
X0052400Y0258700D03*
X0051700Y0260100D03*
X0051500Y0260500D03*
X0051400Y0260700D03*
X0051100Y0261400D03*
X0050900Y0261700D03*
X0050700Y0262100D03*
X0050600Y0262300D03*
X0050000Y0263500D03*
X0049800Y0263900D03*
X0045400Y0272800D03*
X0045500Y0273000D03*
X0045600Y0273200D03*
X0045800Y0273700D03*
X0046100Y0274200D03*
X0046300Y0274600D03*
X0046400Y0274800D03*
X0046500Y0275100D03*
X0046900Y0275800D03*
X0047100Y0276200D03*
X0047200Y0276400D03*
X0047300Y0276600D03*
X0047400Y0276900D03*
X0047700Y0277400D03*
X0047900Y0277800D03*
X0048100Y0278200D03*
X0048300Y0278700D03*
X0048500Y0279000D03*
X0049100Y0280300D03*
X0040800Y0263700D03*
X0040500Y0263000D03*
X0040400Y0262800D03*
X0040300Y0262600D03*
X0040000Y0262100D03*
X0039800Y0261600D03*
X0039600Y0261200D03*
X0039500Y0261000D03*
X0039100Y0260300D03*
X0038900Y0259800D03*
X0038800Y0259600D03*
X0038700Y0259400D03*
X0038300Y0258700D03*
X0038100Y0258200D03*
X0038000Y0258000D03*
X0037900Y0257800D03*
X0037600Y0257100D03*
X0037300Y0256700D03*
X0037300Y0256600D03*
X0037200Y0256400D03*
X0037100Y0256200D03*
X0036900Y0255800D03*
X0036500Y0255100D03*
X0036500Y0255000D03*
X0036400Y0254800D03*
X0036300Y0254600D03*
X0036200Y0254400D03*
X0036100Y0254200D03*
X0035700Y0253500D03*
X0035300Y0252600D03*
X0035000Y0252100D03*
X0034900Y0251900D03*
X0054000Y0255500D03*
X0054100Y0255300D03*
X0054200Y0255100D03*
X0054600Y0254400D03*
X0054800Y0253900D03*
X0054900Y0253700D03*
X0055600Y0252300D03*
X0055900Y0251700D03*
X0056400Y0250700D03*
X0056500Y0250500D03*
X0057400Y0248700D03*
X0058100Y0247300D03*
X0058900Y0245700D03*
X0059000Y0245500D03*
X0059200Y0245100D03*
X0059300Y0244900D03*
X0059500Y0244600D03*
X0059700Y0244100D03*
X0059800Y0243900D03*
X0074800Y0244800D03*
X0074900Y0245000D03*
X0075000Y0245100D03*
X0075300Y0245600D03*
X0013100Y0244500D03*
X0012900Y0244800D03*
X0012900Y0244900D03*
X0012700Y0245100D03*
X0012600Y0245200D03*
X0012600Y0245300D03*
X0012700Y0284600D03*
X0012900Y0284900D03*
X0013000Y0285000D03*
X0013100Y0285200D03*
D150*
X0020950Y0243900D03*
X0021950Y0243900D03*
X0024550Y0243900D03*
D151*
X0023850Y0243900D03*
X0009750Y0267200D03*
X0005750Y0267200D03*
X0004950Y0267200D03*
X0003950Y0267200D03*
X0079050Y0267000D03*
D152*
X0023300Y0243900D03*
X0022700Y0243900D03*
D153*
X0020300Y0243900D03*
X0009000Y0267200D03*
X0008200Y0267200D03*
X0007400Y0267200D03*
X0006200Y0267200D03*
X0077300Y0267000D03*
X0077900Y0267000D03*
X0079800Y0267000D03*
X0080600Y0267000D03*
X0081300Y0267000D03*
X0082100Y0267000D03*
X0083400Y0267000D03*
X0083800Y0267000D03*
D154*
X0056500Y0287800D03*
X0056400Y0287700D03*
X0054000Y0301200D03*
X0034100Y0301400D03*
X0026900Y0296900D03*
X0045400Y0265700D03*
X0028100Y0245400D03*
X0028000Y0245300D03*
X0028100Y0245200D03*
D155*
X0012050Y0246200D03*
X0011950Y0246300D03*
X0011650Y0246700D03*
X0011650Y0246800D03*
X0011650Y0246900D03*
X0011550Y0247000D03*
X0011450Y0247200D03*
X0011250Y0247500D03*
X0011450Y0282500D03*
X0011550Y0282700D03*
X0011750Y0283000D03*
X0011750Y0283100D03*
X0011850Y0283200D03*
X0011950Y0283400D03*
X0075550Y0246000D03*
X0075850Y0246500D03*
X0075950Y0246600D03*
X0075950Y0246700D03*
X0076050Y0246800D03*
X0076150Y0247000D03*
X0076250Y0247200D03*
X0076250Y0282500D03*
X0076150Y0282700D03*
X0076050Y0282900D03*
X0075950Y0283000D03*
X0075950Y0283100D03*
X0075850Y0283200D03*
D156*
X0056200Y0286700D03*
X0056100Y0286600D03*
X0056100Y0286500D03*
X0054300Y0300900D03*
X0033800Y0301100D03*
X0033700Y0301000D03*
X0028400Y0246600D03*
X0028300Y0246300D03*
D157*
X0011800Y0246600D03*
X0011500Y0247100D03*
X0011400Y0247300D03*
X0011300Y0247400D03*
X0011100Y0281800D03*
X0011200Y0282100D03*
X0011300Y0282200D03*
X0011300Y0282300D03*
X0011400Y0282400D03*
X0011500Y0282600D03*
X0011600Y0282800D03*
X0076100Y0282800D03*
X0076200Y0282600D03*
X0076300Y0282400D03*
X0076400Y0282200D03*
X0076500Y0282100D03*
X0076500Y0282000D03*
X0076700Y0281700D03*
X0076600Y0247800D03*
X0076500Y0247700D03*
X0076400Y0247500D03*
X0076400Y0247400D03*
X0076300Y0247300D03*
X0076200Y0247100D03*
X0076100Y0246900D03*
D158*
X0055950Y0285800D03*
X0055950Y0285900D03*
X0054350Y0300800D03*
X0045350Y0264800D03*
X0028550Y0247200D03*
X0028450Y0247100D03*
D159*
X0028800Y0248300D03*
X0028900Y0248500D03*
X0028900Y0248600D03*
X0045400Y0264100D03*
X0055600Y0284500D03*
X0055700Y0284800D03*
X0054700Y0300400D03*
D160*
X0058950Y0297600D03*
X0055550Y0284100D03*
X0055450Y0284000D03*
X0029050Y0249100D03*
X0028950Y0249000D03*
D161*
X0010350Y0249400D03*
X0010250Y0249600D03*
X0010150Y0249800D03*
X0010050Y0249900D03*
X0010050Y0250000D03*
X0009950Y0250200D03*
X0009950Y0250300D03*
X0009850Y0250500D03*
X0009750Y0250700D03*
X0009750Y0279000D03*
X0009950Y0279500D03*
X0010050Y0279700D03*
X0010150Y0279900D03*
X0010150Y0280000D03*
X0010250Y0280100D03*
X0010350Y0280400D03*
X0077250Y0280600D03*
X0077350Y0280300D03*
X0077450Y0280100D03*
X0077550Y0279900D03*
X0077650Y0279800D03*
X0077650Y0279700D03*
X0077750Y0279500D03*
X0077850Y0279200D03*
X0077950Y0279000D03*
X0077750Y0250300D03*
X0077750Y0250200D03*
X0077650Y0250000D03*
X0077550Y0249800D03*
X0077550Y0249700D03*
X0077450Y0249600D03*
X0077350Y0249400D03*
D162*
X0055300Y0283400D03*
X0055400Y0283500D03*
X0032900Y0300200D03*
X0029200Y0249800D03*
X0029200Y0249700D03*
X0029100Y0249500D03*
D163*
X0029350Y0250500D03*
X0029450Y0250700D03*
X0029450Y0250800D03*
X0055050Y0282400D03*
X0055150Y0282500D03*
X0055350Y0299700D03*
X0055250Y0299800D03*
D164*
X0049950Y0304200D03*
X0038050Y0304300D03*
X0009550Y0278500D03*
X0009450Y0278200D03*
X0009350Y0278100D03*
X0009350Y0278000D03*
X0009350Y0277900D03*
X0009250Y0277700D03*
X0009150Y0277500D03*
X0009050Y0277300D03*
X0009050Y0277200D03*
X0008950Y0276800D03*
X0008950Y0252800D03*
X0009050Y0252500D03*
X0009050Y0252400D03*
X0009150Y0252300D03*
X0009150Y0252200D03*
X0009250Y0252000D03*
X0009250Y0251900D03*
X0009350Y0251800D03*
X0009350Y0251700D03*
X0009350Y0251600D03*
X0009450Y0251400D03*
X0009550Y0251200D03*
X0078150Y0251200D03*
X0078250Y0251400D03*
X0078250Y0251500D03*
X0078350Y0251700D03*
X0078450Y0251900D03*
X0078450Y0252000D03*
X0078550Y0252200D03*
X0078550Y0252300D03*
X0078650Y0252400D03*
X0078650Y0252500D03*
X0078750Y0252800D03*
X0078950Y0276300D03*
X0078750Y0276900D03*
X0078750Y0277000D03*
X0078650Y0277200D03*
X0078550Y0277500D03*
X0078450Y0277700D03*
X0078450Y0277800D03*
X0078350Y0278000D03*
X0078350Y0278100D03*
X0078250Y0278200D03*
X0078250Y0278300D03*
X0078150Y0278500D03*
D165*
X0055600Y0299400D03*
X0054800Y0281200D03*
X0032400Y0299600D03*
X0029600Y0251600D03*
D166*
X0009200Y0252100D03*
X0009000Y0252600D03*
X0009000Y0252700D03*
X0008900Y0252900D03*
X0008900Y0253000D03*
X0008900Y0253100D03*
X0008800Y0253200D03*
X0008800Y0253300D03*
X0008700Y0253400D03*
X0008700Y0253500D03*
X0008700Y0253600D03*
X0008600Y0253800D03*
X0008600Y0253900D03*
X0008400Y0254500D03*
X0008500Y0275600D03*
X0008600Y0275800D03*
X0008600Y0275900D03*
X0008700Y0276100D03*
X0008700Y0276200D03*
X0008700Y0276300D03*
X0008800Y0276400D03*
X0008800Y0276500D03*
X0008800Y0276600D03*
X0008900Y0276700D03*
X0008900Y0276900D03*
X0009000Y0277000D03*
X0009000Y0277100D03*
X0009100Y0277400D03*
X0009200Y0277600D03*
X0078500Y0277600D03*
X0078600Y0277400D03*
X0078600Y0277300D03*
X0078700Y0277100D03*
X0078800Y0276800D03*
X0078800Y0276700D03*
X0078900Y0276600D03*
X0078900Y0276500D03*
X0079000Y0276200D03*
X0079100Y0275900D03*
X0079100Y0275800D03*
X0079200Y0275600D03*
X0079200Y0254200D03*
X0079200Y0254100D03*
X0079100Y0253900D03*
X0079100Y0253800D03*
X0079000Y0253600D03*
X0079000Y0253500D03*
X0079000Y0253400D03*
X0078900Y0253300D03*
X0078900Y0253200D03*
X0078900Y0253100D03*
X0078800Y0253000D03*
X0078800Y0252900D03*
X0078700Y0252700D03*
X0078700Y0252600D03*
X0078500Y0252100D03*
D167*
X0079050Y0253700D03*
X0079150Y0254000D03*
X0079250Y0254300D03*
X0079250Y0254400D03*
X0079350Y0254500D03*
X0079350Y0254600D03*
X0079350Y0254700D03*
X0079350Y0254800D03*
X0079450Y0254900D03*
X0079450Y0255000D03*
X0079450Y0255200D03*
X0079550Y0255300D03*
X0079550Y0255400D03*
X0079650Y0255600D03*
X0079650Y0255800D03*
X0079650Y0255900D03*
X0079750Y0256100D03*
X0079950Y0272800D03*
X0079750Y0273600D03*
X0079650Y0274000D03*
X0079550Y0274200D03*
X0079550Y0274300D03*
X0079550Y0274400D03*
X0079450Y0274600D03*
X0079450Y0274700D03*
X0079450Y0274800D03*
X0079350Y0274900D03*
X0079350Y0275000D03*
X0079350Y0275100D03*
X0079350Y0275200D03*
X0079250Y0275300D03*
X0079250Y0275400D03*
X0079250Y0275500D03*
X0079150Y0275700D03*
X0079050Y0276000D03*
X0079050Y0276100D03*
X0078950Y0276400D03*
X0008650Y0276000D03*
X0008550Y0275700D03*
X0008450Y0275500D03*
X0008450Y0275400D03*
X0008450Y0275300D03*
X0008350Y0275200D03*
X0008350Y0275100D03*
X0008350Y0275000D03*
X0008350Y0274900D03*
X0008250Y0274800D03*
X0008250Y0274700D03*
X0008250Y0274600D03*
X0008150Y0274400D03*
X0008150Y0274300D03*
X0008150Y0274200D03*
X0008050Y0273900D03*
X0007950Y0273600D03*
X0007950Y0256100D03*
X0008050Y0255800D03*
X0008150Y0255400D03*
X0008250Y0255100D03*
X0008250Y0255000D03*
X0008250Y0254900D03*
X0008350Y0254700D03*
X0008350Y0254600D03*
X0008450Y0254400D03*
X0008450Y0254300D03*
X0008450Y0254200D03*
X0008550Y0254100D03*
X0008550Y0254000D03*
X0008650Y0253700D03*
D168*
X0007750Y0257000D03*
X0007750Y0257200D03*
X0007650Y0257400D03*
X0007650Y0257500D03*
X0007650Y0257700D03*
X0007550Y0257900D03*
X0007550Y0258000D03*
X0007550Y0258200D03*
X0007450Y0258400D03*
X0007450Y0258500D03*
X0007450Y0258600D03*
X0007350Y0259000D03*
X0007350Y0259100D03*
X0007350Y0259200D03*
X0007350Y0259300D03*
X0007350Y0259400D03*
X0007250Y0259500D03*
X0007250Y0259700D03*
X0007250Y0259800D03*
X0007250Y0259900D03*
X0007150Y0260300D03*
X0007150Y0260400D03*
X0007150Y0260600D03*
X0007150Y0260700D03*
X0007150Y0260800D03*
X0007050Y0261200D03*
X0007050Y0261400D03*
X0007050Y0261600D03*
X0007050Y0262200D03*
X0006950Y0262500D03*
X0006950Y0262700D03*
X0007050Y0267800D03*
X0007050Y0268000D03*
X0007050Y0268100D03*
X0007050Y0268300D03*
X0007050Y0268500D03*
X0007150Y0268800D03*
X0007150Y0269000D03*
X0007150Y0269200D03*
X0007150Y0269500D03*
X0007250Y0269600D03*
X0007250Y0269700D03*
X0007250Y0269900D03*
X0007250Y0270000D03*
X0007250Y0270100D03*
X0007350Y0270400D03*
X0007350Y0270500D03*
X0007350Y0270600D03*
X0007350Y0270700D03*
X0007450Y0270800D03*
X0007350Y0270900D03*
X0007450Y0271000D03*
X0007450Y0271100D03*
X0007450Y0271200D03*
X0007450Y0271300D03*
X0007550Y0271600D03*
X0007550Y0271800D03*
X0007550Y0272000D03*
X0007650Y0272100D03*
X0007650Y0272200D03*
X0007650Y0272300D03*
X0007750Y0272600D03*
X0007750Y0272700D03*
X0008050Y0274000D03*
X0079950Y0272700D03*
X0079950Y0272600D03*
X0080050Y0272400D03*
X0080050Y0272200D03*
X0080050Y0272000D03*
X0080150Y0271900D03*
X0080150Y0271800D03*
X0080150Y0271700D03*
X0080150Y0271600D03*
X0080250Y0271300D03*
X0080250Y0271200D03*
X0080250Y0271100D03*
X0080250Y0271000D03*
X0080350Y0270800D03*
X0080350Y0270700D03*
X0080350Y0270600D03*
X0080350Y0270500D03*
X0080350Y0270300D03*
X0080450Y0270200D03*
X0080450Y0270000D03*
X0080450Y0269900D03*
X0080450Y0269800D03*
X0080450Y0269600D03*
X0080550Y0269500D03*
X0080550Y0269300D03*
X0080550Y0269200D03*
X0080550Y0269100D03*
X0080550Y0269000D03*
X0080550Y0268900D03*
X0080650Y0268700D03*
X0080650Y0268300D03*
X0080650Y0268100D03*
X0080650Y0268000D03*
X0080650Y0267800D03*
X0080750Y0267100D03*
X0080750Y0262700D03*
X0080750Y0262500D03*
X0080650Y0261900D03*
X0080650Y0261700D03*
X0080650Y0261600D03*
X0080650Y0261400D03*
X0080650Y0261200D03*
X0080550Y0260800D03*
X0080550Y0260600D03*
X0080550Y0260400D03*
X0080450Y0260100D03*
X0080450Y0260000D03*
X0080450Y0259800D03*
X0080450Y0259700D03*
X0080450Y0259600D03*
X0080350Y0259300D03*
X0080350Y0259200D03*
X0080350Y0259100D03*
X0080350Y0259000D03*
X0080250Y0258700D03*
X0080250Y0258600D03*
X0080250Y0258500D03*
X0080250Y0258400D03*
X0080150Y0258200D03*
X0080150Y0258000D03*
X0080150Y0257900D03*
X0080050Y0257600D03*
X0080050Y0257500D03*
X0080050Y0257400D03*
X0079950Y0256900D03*
X0079650Y0255700D03*
D169*
X0061550Y0296600D03*
X0053550Y0301600D03*
D170*
X0057150Y0298000D03*
D171*
X0056650Y0298100D03*
X0031450Y0298400D03*
D172*
X0031400Y0298200D03*
D173*
X0031750Y0298700D03*
D174*
X0055800Y0299100D03*
D175*
X0032150Y0299200D03*
D176*
X0049500Y0304400D03*
D177*
X0038550Y0304500D03*
D178*
X0049100Y0304600D03*
D179*
X0039050Y0304700D03*
D180*
X0039250Y0304800D03*
D181*
X0048300Y0304900D03*
D182*
X0047800Y0305000D03*
D183*
X0039900Y0305000D03*
D184*
X0047550Y0305100D03*
D185*
X0040300Y0305100D03*
D186*
X0047250Y0305200D03*
D187*
X0040650Y0305200D03*
D188*
X0046600Y0305300D03*
D189*
X0041200Y0305300D03*
D190*
X0106911Y0322186D02*
X0106911Y0323625D01*
X0108816Y0323819D01*
X0109021Y0324459D01*
X0109329Y0325057D01*
X0108119Y0326541D01*
X0109137Y0327559D01*
X0110621Y0326349D01*
X0111219Y0326657D01*
X0111859Y0326862D01*
X0112053Y0328767D01*
X0113492Y0328767D01*
X0113686Y0326862D01*
X0114326Y0326657D01*
X0114924Y0326349D01*
X0116408Y0327559D01*
X0117426Y0326541D01*
X0116216Y0325057D01*
X0116524Y0324459D01*
X0116729Y0323819D01*
X0118634Y0323625D01*
X0118634Y0322186D01*
X0116729Y0321992D01*
X0116524Y0321352D01*
X0116216Y0320754D01*
X0117426Y0319270D01*
X0116408Y0318252D01*
X0114924Y0319462D01*
X0114326Y0319154D01*
X0113479Y0321200D01*
X0113857Y0321412D01*
X0114176Y0321707D01*
X0114417Y0322068D01*
X0114567Y0322475D01*
X0114618Y0322906D01*
X0114565Y0323344D01*
X0114409Y0323757D01*
X0114160Y0324122D01*
X0113831Y0324417D01*
X0113441Y0324625D01*
X0113013Y0324735D01*
X0112572Y0324740D01*
X0112142Y0324639D01*
X0111748Y0324439D01*
X0111412Y0324152D01*
X0111155Y0323793D01*
X0110990Y0323383D01*
X0110928Y0322946D01*
X0110971Y0322506D01*
X0111118Y0322089D01*
X0111359Y0321719D01*
X0111681Y0321417D01*
X0112066Y0321200D01*
X0111219Y0319154D01*
X0110621Y0319462D01*
X0109137Y0318252D01*
X0108119Y0319270D01*
X0109329Y0320754D01*
X0109021Y0321352D01*
X0108816Y0321992D01*
X0106911Y0322186D01*
X0106911Y0322683D02*
X0110954Y0322683D01*
X0110974Y0323272D02*
X0106911Y0323272D01*
X0107817Y0322094D02*
X0111116Y0322094D01*
X0111588Y0321505D02*
X0108972Y0321505D01*
X0109246Y0320916D02*
X0111948Y0320916D01*
X0111704Y0320327D02*
X0108981Y0320327D01*
X0108500Y0319738D02*
X0111460Y0319738D01*
X0110236Y0319148D02*
X0108240Y0319148D01*
X0108829Y0318559D02*
X0109514Y0318559D01*
X0113841Y0320327D02*
X0116564Y0320327D01*
X0116299Y0320916D02*
X0113597Y0320916D01*
X0113957Y0321505D02*
X0116573Y0321505D01*
X0117728Y0322094D02*
X0114427Y0322094D01*
X0114592Y0322683D02*
X0118634Y0322683D01*
X0118634Y0323272D02*
X0114574Y0323272D01*
X0114339Y0323861D02*
X0116715Y0323861D01*
X0116527Y0324450D02*
X0113769Y0324450D01*
X0111768Y0324450D02*
X0109018Y0324450D01*
X0108830Y0323861D02*
X0111204Y0323861D01*
X0109320Y0325039D02*
X0116225Y0325039D01*
X0116681Y0325628D02*
X0108864Y0325628D01*
X0108383Y0326217D02*
X0117162Y0326217D01*
X0117161Y0326806D02*
X0115485Y0326806D01*
X0116207Y0327395D02*
X0116572Y0327395D01*
X0113859Y0326806D02*
X0111686Y0326806D01*
X0111913Y0327395D02*
X0113632Y0327395D01*
X0113572Y0327984D02*
X0111973Y0327984D01*
X0112033Y0328573D02*
X0113512Y0328573D01*
X0110060Y0326806D02*
X0108384Y0326806D01*
X0108973Y0327395D02*
X0109337Y0327395D01*
X0114085Y0319738D02*
X0117045Y0319738D01*
X0117305Y0319148D02*
X0115309Y0319148D01*
X0116031Y0318559D02*
X0116716Y0318559D01*
D191*
X0193347Y0023587D02*
X0193269Y0023547D01*
X0193229Y0023469D01*
X0193190Y0023350D01*
X0193190Y0022917D01*
X0193229Y0022642D01*
X0193229Y0022287D01*
X0193269Y0021972D01*
X0193308Y0021579D01*
X0193308Y0020280D01*
X0193229Y0019335D01*
X0193229Y0019217D01*
X0193190Y0019059D01*
X0193190Y0018783D01*
X0193229Y0018705D01*
X0193229Y0018587D01*
X0193269Y0018508D01*
X0193347Y0018429D01*
X0193347Y0018390D01*
X0193426Y0018350D01*
X0193505Y0018272D01*
X0193583Y0018232D01*
X0193741Y0018075D01*
X0193938Y0017917D01*
X0194253Y0017602D01*
X0194410Y0017484D01*
X0194686Y0017209D01*
X0194804Y0017051D01*
X0194961Y0016933D01*
X0195080Y0016776D01*
X0195198Y0016657D01*
X0195434Y0016343D01*
X0195591Y0016185D01*
X0195709Y0015988D01*
X0195867Y0015791D01*
X0196103Y0015476D01*
X0196339Y0015122D01*
X0196812Y0014492D01*
X0197009Y0014177D01*
X0197206Y0013902D01*
X0197402Y0013587D01*
X0197796Y0013035D01*
X0197954Y0012720D01*
X0198269Y0012169D01*
X0198426Y0011854D01*
X0198583Y0011579D01*
X0198898Y0010949D01*
X0198938Y0010909D01*
X0198938Y0010831D01*
X0198977Y0010791D01*
X0199017Y0010713D01*
X0199056Y0010673D01*
X0199056Y0010594D01*
X0199135Y0010516D01*
X0199135Y0010476D01*
X0199174Y0010437D01*
X0199174Y0010398D01*
X0199213Y0010358D01*
X0199213Y0010319D01*
X0199253Y0010280D01*
X0199253Y0010240D01*
X0199292Y0010240D01*
X0199292Y0010201D01*
X0199410Y0010201D01*
X0199568Y0010358D01*
X0199568Y0010398D01*
X0199607Y0010476D01*
X0199765Y0010673D01*
X0200001Y0011067D01*
X0200237Y0011382D01*
X0200394Y0011618D01*
X0200513Y0011736D01*
X0200749Y0012091D01*
X0200867Y0012169D01*
X0200946Y0012287D01*
X0201261Y0012602D01*
X0201300Y0012681D01*
X0201379Y0012720D01*
X0201418Y0012799D01*
X0201497Y0012878D01*
X0201576Y0012917D01*
X0201733Y0013075D01*
X0201851Y0013154D01*
X0201930Y0013232D01*
X0202009Y0013350D01*
X0202127Y0013429D01*
X0202284Y0013587D01*
X0202402Y0013665D01*
X0202560Y0013823D01*
X0202757Y0013980D01*
X0203190Y0014413D01*
X0203308Y0014492D01*
X0203505Y0014689D01*
X0203583Y0014728D01*
X0203702Y0014846D01*
X0203741Y0014925D01*
X0203780Y0014925D01*
X0203820Y0014965D01*
X0203820Y0015004D01*
X0203859Y0015004D01*
X0203859Y0015043D01*
X0203820Y0015043D01*
X0203820Y0015083D01*
X0203426Y0015476D01*
X0203308Y0015555D01*
X0203190Y0015673D01*
X0203032Y0015791D01*
X0202914Y0015909D01*
X0202599Y0016146D01*
X0202402Y0016303D01*
X0202087Y0016539D01*
X0201969Y0016657D01*
X0201851Y0016736D01*
X0201772Y0016815D01*
X0201654Y0016894D01*
X0201497Y0016972D01*
X0201457Y0017012D01*
X0201379Y0017051D01*
X0201339Y0017091D01*
X0201300Y0017091D01*
X0201261Y0017130D01*
X0201182Y0017130D01*
X0201143Y0017169D01*
X0200985Y0017169D01*
X0200828Y0016736D01*
X0200670Y0016421D01*
X0200513Y0016028D01*
X0200434Y0015870D01*
X0200355Y0015673D01*
X0200276Y0015516D01*
X0200198Y0015319D01*
X0200119Y0015161D01*
X0200040Y0015043D01*
X0199961Y0014886D01*
X0199883Y0014650D01*
X0199843Y0014571D01*
X0199765Y0014492D01*
X0199765Y0014453D01*
X0199725Y0014413D01*
X0199725Y0014374D01*
X0199686Y0014374D01*
X0199686Y0014335D01*
X0199646Y0014335D01*
X0199607Y0014295D01*
X0199410Y0014295D01*
X0199410Y0014335D01*
X0199331Y0014413D01*
X0199174Y0014728D01*
X0199095Y0014846D01*
X0199056Y0014965D01*
X0198977Y0015122D01*
X0198898Y0015240D01*
X0198820Y0015398D01*
X0198780Y0015555D01*
X0198387Y0016343D01*
X0198229Y0016736D01*
X0198111Y0016933D01*
X0198032Y0017130D01*
X0197914Y0017366D01*
X0197796Y0017563D01*
X0197678Y0017799D01*
X0197599Y0017996D01*
X0197481Y0018193D01*
X0197363Y0018429D01*
X0197284Y0018626D01*
X0197166Y0018783D01*
X0197087Y0018980D01*
X0196969Y0019138D01*
X0196891Y0019335D01*
X0196300Y0020319D01*
X0196182Y0020476D01*
X0195946Y0020870D01*
X0195591Y0021343D01*
X0195513Y0021500D01*
X0195394Y0021618D01*
X0195237Y0021854D01*
X0195119Y0021972D01*
X0195001Y0022130D01*
X0194410Y0022720D01*
X0194253Y0022839D01*
X0194135Y0022996D01*
X0193977Y0023114D01*
X0193741Y0023350D01*
X0193505Y0023508D01*
X0193465Y0023547D01*
X0193347Y0023587D01*
X0193387Y0023547D02*
X0193387Y0023508D01*
X0193465Y0023508D01*
X0193465Y0023469D01*
X0193505Y0023469D01*
X0193544Y0023429D01*
X0193583Y0023429D01*
X0193465Y0023547D01*
X0193387Y0023547D01*
X0193190Y0023352D02*
X0193738Y0023352D01*
X0194057Y0023054D02*
X0193190Y0023054D01*
X0193213Y0022757D02*
X0194362Y0022757D01*
X0194672Y0022459D02*
X0193229Y0022459D01*
X0193245Y0022161D02*
X0194970Y0022161D01*
X0195228Y0021863D02*
X0193279Y0021863D01*
X0193308Y0021566D02*
X0195447Y0021566D01*
X0195647Y0021268D02*
X0193308Y0021268D01*
X0193308Y0020970D02*
X0195871Y0020970D01*
X0196064Y0020673D02*
X0193308Y0020673D01*
X0193308Y0020375D02*
X0196258Y0020375D01*
X0196445Y0020077D02*
X0193291Y0020077D01*
X0193266Y0019779D02*
X0196624Y0019779D01*
X0196802Y0019482D02*
X0193241Y0019482D01*
X0193221Y0019184D02*
X0196951Y0019184D01*
X0197125Y0018886D02*
X0193190Y0018886D01*
X0193229Y0018588D02*
X0197299Y0018588D01*
X0197432Y0018291D02*
X0193486Y0018291D01*
X0193843Y0017993D02*
X0197600Y0017993D01*
X0197730Y0017695D02*
X0194160Y0017695D01*
X0194497Y0017398D02*
X0197895Y0017398D01*
X0198044Y0017100D02*
X0194767Y0017100D01*
X0195060Y0016802D02*
X0198190Y0016802D01*
X0198322Y0016504D02*
X0195312Y0016504D01*
X0195570Y0016207D02*
X0198455Y0016207D01*
X0198603Y0015909D02*
X0195773Y0015909D01*
X0196002Y0015611D02*
X0198752Y0015611D01*
X0198862Y0015314D02*
X0196212Y0015314D01*
X0196419Y0015016D02*
X0199030Y0015016D01*
X0199179Y0014718D02*
X0196642Y0014718D01*
X0196857Y0014420D02*
X0199328Y0014420D01*
X0199732Y0014420D02*
X0203200Y0014420D01*
X0202899Y0014123D02*
X0197048Y0014123D01*
X0197253Y0013825D02*
X0202562Y0013825D01*
X0202225Y0013527D02*
X0197445Y0013527D01*
X0197657Y0013229D02*
X0201927Y0013229D01*
X0201590Y0012932D02*
X0197848Y0012932D01*
X0198003Y0012634D02*
X0201276Y0012634D01*
X0200995Y0012336D02*
X0198173Y0012336D01*
X0198334Y0012039D02*
X0200714Y0012039D01*
X0200516Y0011741D02*
X0198491Y0011741D01*
X0198651Y0011443D02*
X0200278Y0011443D01*
X0200060Y0011145D02*
X0198800Y0011145D01*
X0198938Y0010848D02*
X0199869Y0010848D01*
X0199666Y0010550D02*
X0199100Y0010550D01*
X0199253Y0010252D02*
X0199462Y0010252D01*
X0199528Y0009177D02*
X0199765Y0009177D01*
X0200198Y0009177D01*
X0200276Y0009138D01*
X0200434Y0009138D01*
X0200473Y0009098D01*
X0200552Y0009098D01*
X0200631Y0009059D01*
X0200670Y0009020D01*
X0200749Y0008980D01*
X0200788Y0008980D01*
X0200946Y0008823D01*
X0201024Y0008783D01*
X0201064Y0008705D01*
X0201103Y0008665D01*
X0201143Y0008587D01*
X0201182Y0008547D01*
X0201300Y0008311D01*
X0201300Y0008232D01*
X0201379Y0008075D01*
X0201379Y0007996D01*
X0201418Y0007878D01*
X0201418Y0007799D01*
X0200788Y0007799D01*
X0200788Y0007996D01*
X0200749Y0008035D01*
X0200749Y0008114D01*
X0200709Y0008154D01*
X0200709Y0008232D01*
X0200670Y0008272D01*
X0200670Y0008311D01*
X0200631Y0008350D01*
X0200591Y0008429D01*
X0200434Y0008587D01*
X0200394Y0008587D01*
X0200316Y0008665D01*
X0200198Y0008665D01*
X0200158Y0008705D01*
X0199765Y0008705D01*
X0199765Y0009177D01*
X0199765Y0008705D01*
X0199686Y0008705D01*
X0199646Y0008665D01*
X0199568Y0008665D01*
X0199528Y0008626D01*
X0199450Y0008587D01*
X0199410Y0008587D01*
X0199292Y0008469D01*
X0199253Y0008390D01*
X0199213Y0008350D01*
X0199174Y0008272D01*
X0199135Y0008232D01*
X0199056Y0008075D01*
X0199056Y0007996D01*
X0199017Y0007957D01*
X0199017Y0007799D01*
X0198977Y0007720D01*
X0198977Y0007012D01*
X0199017Y0006894D01*
X0199017Y0006736D01*
X0199056Y0006657D01*
X0199056Y0006579D01*
X0199095Y0006539D01*
X0199095Y0006461D01*
X0199135Y0006421D01*
X0199135Y0006382D01*
X0198531Y0006382D01*
X0198583Y0006224D02*
X0198387Y0006815D01*
X0198387Y0007169D01*
X0198347Y0007248D01*
X0198347Y0007366D01*
X0198387Y0007445D01*
X0198387Y0007760D01*
X0198426Y0007878D01*
X0198426Y0007957D01*
X0198465Y0008035D01*
X0198465Y0008154D01*
X0198544Y0008311D01*
X0198544Y0008390D01*
X0198583Y0008469D01*
X0198662Y0008547D01*
X0198662Y0008587D01*
X0198741Y0008665D01*
X0198741Y0008705D01*
X0198938Y0008902D01*
X0198977Y0008902D01*
X0199056Y0008980D01*
X0199095Y0008980D01*
X0199095Y0009020D01*
X0199135Y0009059D01*
X0199213Y0009059D01*
X0199253Y0009098D01*
X0199331Y0009098D01*
X0199371Y0009138D01*
X0199489Y0009138D01*
X0199528Y0009177D01*
X0199765Y0009061D02*
X0200626Y0009061D01*
X0201034Y0008764D02*
X0199765Y0008764D01*
X0198800Y0008764D01*
X0198582Y0008466D02*
X0199291Y0008466D01*
X0199103Y0008168D02*
X0198473Y0008168D01*
X0198423Y0007870D02*
X0199017Y0007870D01*
X0198977Y0007573D02*
X0198387Y0007573D01*
X0198347Y0007275D02*
X0198977Y0007275D01*
X0198989Y0006977D02*
X0198387Y0006977D01*
X0198432Y0006680D02*
X0199045Y0006680D01*
X0199135Y0006382D02*
X0199174Y0006343D01*
X0199174Y0006303D01*
X0199253Y0006224D01*
X0199253Y0006185D01*
X0199331Y0006106D01*
X0199371Y0006106D01*
X0199410Y0006067D01*
X0199410Y0006028D01*
X0199450Y0006028D01*
X0199489Y0005988D01*
X0199568Y0005988D01*
X0199607Y0005949D01*
X0199725Y0005949D01*
X0199765Y0005909D01*
X0200119Y0005909D01*
X0200158Y0005949D01*
X0200198Y0005949D01*
X0200237Y0005988D01*
X0200276Y0005988D01*
X0200355Y0006028D01*
X0200394Y0006028D01*
X0200394Y0006067D01*
X0200434Y0006106D01*
X0200473Y0006106D01*
X0200591Y0006224D01*
X0200591Y0006264D01*
X0200670Y0006343D01*
X0200670Y0006382D01*
X0200709Y0006421D01*
X0200749Y0006500D01*
X0200749Y0006579D01*
X0200788Y0006657D01*
X0200788Y0006736D01*
X0200828Y0006815D01*
X0200828Y0007720D01*
X0200788Y0007799D01*
X0201418Y0007799D01*
X0201418Y0007642D01*
X0201457Y0007602D01*
X0201457Y0007051D01*
X0201418Y0006933D01*
X0201418Y0006736D01*
X0201379Y0006618D01*
X0201379Y0006539D01*
X0201339Y0006461D01*
X0201339Y0006382D01*
X0200670Y0006382D01*
X0200788Y0006680D02*
X0201399Y0006680D01*
X0201433Y0006977D02*
X0200828Y0006977D01*
X0200828Y0007275D02*
X0201457Y0007275D01*
X0201457Y0007573D02*
X0200828Y0007573D01*
X0200788Y0007870D02*
X0201418Y0007870D01*
X0201332Y0008168D02*
X0200709Y0008168D01*
X0200555Y0008466D02*
X0201223Y0008466D01*
X0202520Y0008665D02*
X0202520Y0008744D01*
X0202481Y0008862D01*
X0202481Y0009098D01*
X0202481Y0009177D01*
X0202520Y0009256D01*
X0202520Y0009335D01*
X0202560Y0009413D01*
X0202560Y0009492D01*
X0202599Y0009571D01*
X0202639Y0009610D01*
X0202717Y0009768D01*
X0202757Y0009807D01*
X0202796Y0009886D01*
X0202875Y0009925D01*
X0203032Y0010083D01*
X0203111Y0010122D01*
X0203150Y0010161D01*
X0203229Y0010161D01*
X0203269Y0010201D01*
X0203308Y0010201D01*
X0203387Y0010240D01*
X0203505Y0010240D01*
X0203544Y0010280D01*
X0203820Y0010280D01*
X0203938Y0010319D01*
X0204371Y0010319D01*
X0204371Y0009807D01*
X0203820Y0009807D01*
X0203780Y0009768D01*
X0203702Y0009768D01*
X0203662Y0009728D01*
X0203583Y0009728D01*
X0203505Y0009650D01*
X0203465Y0009650D01*
X0203308Y0009492D01*
X0203308Y0009453D01*
X0203269Y0009413D01*
X0203229Y0009413D01*
X0203229Y0009256D01*
X0203190Y0009217D01*
X0203190Y0009098D01*
X0202481Y0009098D01*
X0203190Y0009098D01*
X0203190Y0008980D01*
X0203150Y0008941D01*
X0203150Y0008783D01*
X0203190Y0008744D01*
X0203190Y0008547D01*
X0203229Y0008508D01*
X0203229Y0008469D01*
X0203308Y0008390D01*
X0203308Y0008350D01*
X0203347Y0008311D01*
X0203387Y0008311D01*
X0203426Y0008272D01*
X0203426Y0008232D01*
X0203465Y0008232D01*
X0203505Y0008193D01*
X0203544Y0008193D01*
X0203583Y0008154D01*
X0203662Y0008154D01*
X0203702Y0008114D01*
X0203859Y0008114D01*
X0203898Y0008075D01*
X0204804Y0008075D01*
X0204804Y0009807D01*
X0204371Y0009807D01*
X0204371Y0010319D01*
X0204568Y0010319D01*
X0205473Y0010358D01*
X0205473Y0005516D01*
X0204804Y0005516D01*
X0204804Y0007563D01*
X0204056Y0007563D01*
X0203977Y0007524D01*
X0203898Y0007524D01*
X0203820Y0007484D01*
X0203780Y0007484D01*
X0203702Y0007445D01*
X0203426Y0007169D01*
X0203426Y0007130D01*
X0203347Y0007051D01*
X0203347Y0007012D01*
X0203308Y0006933D01*
X0203269Y0006894D01*
X0203269Y0006815D01*
X0203229Y0006776D01*
X0203072Y0006461D01*
X0203032Y0006421D01*
X0202954Y0006264D01*
X0202599Y0005516D01*
X0201930Y0005516D01*
X0202284Y0006146D01*
X0202402Y0006382D01*
X0203013Y0006382D01*
X0202868Y0006084D02*
X0202250Y0006084D01*
X0202402Y0006382D02*
X0202560Y0006776D01*
X0202639Y0006933D01*
X0202875Y0007287D01*
X0202954Y0007445D01*
X0203032Y0007484D01*
X0203072Y0007563D01*
X0203150Y0007642D01*
X0203190Y0007642D01*
X0203269Y0007681D01*
X0203308Y0007720D01*
X0203465Y0007799D01*
X0203308Y0007839D01*
X0203229Y0007878D01*
X0203111Y0007917D01*
X0202954Y0007996D01*
X0202875Y0008075D01*
X0202796Y0008114D01*
X0202717Y0008193D01*
X0202678Y0008272D01*
X0202599Y0008350D01*
X0202560Y0008469D01*
X0202560Y0008547D01*
X0202520Y0008665D01*
X0202514Y0008764D02*
X0203170Y0008764D01*
X0203190Y0009061D02*
X0202481Y0009061D01*
X0202533Y0009359D02*
X0203229Y0009359D01*
X0203512Y0009657D02*
X0202662Y0009657D01*
X0202904Y0009954D02*
X0204371Y0009954D01*
X0205473Y0009954D01*
X0205473Y0009657D02*
X0204804Y0009657D01*
X0204804Y0009359D02*
X0205473Y0009359D01*
X0205473Y0009061D02*
X0204804Y0009061D01*
X0204804Y0008764D02*
X0205473Y0008764D01*
X0205473Y0008466D02*
X0204804Y0008466D01*
X0204804Y0008168D02*
X0205473Y0008168D01*
X0205473Y0007870D02*
X0203244Y0007870D01*
X0203081Y0007573D02*
X0205473Y0007573D01*
X0205473Y0007275D02*
X0204804Y0007275D01*
X0204804Y0006977D02*
X0205473Y0006977D01*
X0205473Y0006680D02*
X0204804Y0006680D01*
X0204804Y0006382D02*
X0205473Y0006382D01*
X0205473Y0006084D02*
X0204804Y0006084D01*
X0204804Y0005786D02*
X0205473Y0005786D01*
X0203532Y0007275D02*
X0202867Y0007275D01*
X0202668Y0006977D02*
X0203330Y0006977D01*
X0203181Y0006680D02*
X0202521Y0006680D01*
X0202727Y0005786D02*
X0202082Y0005786D01*
X0201261Y0006224D02*
X0201221Y0006185D01*
X0201143Y0006028D01*
X0201103Y0005988D01*
X0201064Y0005909D01*
X0200867Y0005713D01*
X0200828Y0005713D01*
X0200828Y0005673D01*
X0200788Y0005673D01*
X0200749Y0005634D01*
X0200709Y0005634D01*
X0200670Y0005594D01*
X0200631Y0005594D01*
X0200631Y0005555D01*
X0200591Y0005555D01*
X0200552Y0005516D01*
X0200434Y0005516D01*
X0200394Y0005476D01*
X0200276Y0005476D01*
X0200198Y0005437D01*
X0199686Y0005437D01*
X0199607Y0005476D01*
X0199489Y0005476D01*
X0199410Y0005516D01*
X0199292Y0005516D01*
X0199174Y0005594D01*
X0199017Y0005673D01*
X0198938Y0005752D01*
X0198859Y0005791D01*
X0198780Y0005870D01*
X0198741Y0005949D01*
X0198662Y0006028D01*
X0198623Y0006146D01*
X0198583Y0006224D01*
X0198643Y0006084D02*
X0199393Y0006084D01*
X0199464Y0005489D02*
X0200407Y0005489D01*
X0200412Y0006084D02*
X0201171Y0006084D01*
X0201261Y0006224D02*
X0201339Y0006382D01*
X0200941Y0005786D02*
X0198869Y0005786D01*
X0197442Y0005786D02*
X0196812Y0005786D01*
X0196812Y0005516D02*
X0197442Y0005516D01*
X0197442Y0010319D01*
X0196812Y0010319D01*
X0196812Y0008350D01*
X0194961Y0008350D01*
X0194961Y0010319D01*
X0194331Y0010319D01*
X0194331Y0005516D01*
X0194961Y0005516D01*
X0194961Y0007839D01*
X0196812Y0007839D01*
X0196812Y0005516D01*
X0196812Y0006084D02*
X0197442Y0006084D01*
X0197442Y0006382D02*
X0196812Y0006382D01*
X0196812Y0006680D02*
X0197442Y0006680D01*
X0197442Y0006977D02*
X0196812Y0006977D01*
X0196812Y0007275D02*
X0197442Y0007275D01*
X0197442Y0007573D02*
X0196812Y0007573D01*
X0197442Y0007870D02*
X0194331Y0007870D01*
X0194331Y0007573D02*
X0194961Y0007573D01*
X0194961Y0007275D02*
X0194331Y0007275D01*
X0194331Y0006977D02*
X0194961Y0006977D01*
X0194961Y0006680D02*
X0194331Y0006680D01*
X0194331Y0006382D02*
X0194961Y0006382D01*
X0194961Y0006084D02*
X0194331Y0006084D01*
X0194331Y0005786D02*
X0194961Y0005786D01*
X0193347Y0005786D02*
X0190759Y0005786D01*
X0190749Y0005791D02*
X0190828Y0005752D01*
X0190867Y0005673D01*
X0190946Y0005634D01*
X0191024Y0005634D01*
X0191064Y0005594D01*
X0191221Y0005516D01*
X0191300Y0005516D01*
X0191379Y0005476D01*
X0191576Y0005476D01*
X0191654Y0005437D01*
X0192324Y0005437D01*
X0192402Y0005476D01*
X0192639Y0005476D01*
X0192639Y0005516D01*
X0192796Y0005516D01*
X0192835Y0005555D01*
X0192914Y0005555D01*
X0192954Y0005594D01*
X0193072Y0005594D01*
X0193072Y0005634D01*
X0193347Y0005713D01*
X0193347Y0006382D01*
X0193347Y0006382D01*
X0192993Y0006185D01*
X0192835Y0006106D01*
X0192206Y0005949D01*
X0192048Y0005949D01*
X0191930Y0005909D01*
X0191772Y0005949D01*
X0191654Y0005949D01*
X0191300Y0006067D01*
X0190985Y0006382D01*
X0190985Y0006461D01*
X0190946Y0006500D01*
X0190946Y0006618D01*
X0190906Y0006697D01*
X0190906Y0006933D01*
X0190946Y0007012D01*
X0190946Y0007051D01*
X0190985Y0007130D01*
X0190985Y0007169D01*
X0191064Y0007248D01*
X0191064Y0007327D01*
X0191103Y0007327D01*
X0191182Y0007406D01*
X0191221Y0007406D01*
X0191300Y0007484D01*
X0191339Y0007484D01*
X0191379Y0007524D01*
X0191418Y0007524D01*
X0191497Y0007563D01*
X0191536Y0007563D01*
X0191694Y0007642D01*
X0191772Y0007642D01*
X0191891Y0007681D01*
X0191969Y0007681D01*
X0192087Y0007720D01*
X0192166Y0007760D01*
X0192245Y0007760D01*
X0192324Y0007799D01*
X0192442Y0007839D01*
X0192520Y0007839D01*
X0192560Y0007878D01*
X0192639Y0007917D01*
X0192717Y0007917D01*
X0192757Y0007957D01*
X0192835Y0007996D01*
X0192875Y0008035D01*
X0192914Y0008035D01*
X0192954Y0008075D01*
X0193032Y0008114D01*
X0193032Y0008154D01*
X0193150Y0008232D01*
X0193229Y0008311D01*
X0193387Y0008783D01*
X0193387Y0008902D01*
X0193426Y0009059D01*
X0193387Y0009177D01*
X0193387Y0009295D01*
X0193347Y0009413D01*
X0193308Y0009571D01*
X0193229Y0009689D01*
X0193190Y0009768D01*
X0193111Y0009886D01*
X0192954Y0010043D01*
X0192875Y0010083D01*
X0192757Y0010201D01*
X0192678Y0010240D01*
X0192639Y0010240D01*
X0192481Y0010319D01*
X0192442Y0010319D01*
X0192363Y0010358D01*
X0192284Y0010358D01*
X0192206Y0010398D01*
X0191418Y0010398D01*
X0191379Y0010358D01*
X0191182Y0010358D01*
X0191103Y0010319D01*
X0191064Y0010319D01*
X0190985Y0010280D01*
X0190906Y0010280D01*
X0190867Y0010240D01*
X0190788Y0010240D01*
X0190591Y0010161D01*
X0190591Y0009571D01*
X0190670Y0009571D01*
X0190670Y0009610D01*
X0190749Y0009610D01*
X0190749Y0009650D01*
X0190828Y0009650D01*
X0190867Y0009689D01*
X0191024Y0009768D01*
X0191497Y0009886D01*
X0191615Y0009886D01*
X0191772Y0009925D01*
X0191930Y0009886D01*
X0192048Y0009886D01*
X0192206Y0009846D01*
X0192324Y0009807D01*
X0192402Y0009768D01*
X0192520Y0009689D01*
X0192599Y0009650D01*
X0192678Y0009531D01*
X0192717Y0009453D01*
X0192757Y0009335D01*
X0192757Y0009295D01*
X0192796Y0009256D01*
X0192796Y0008902D01*
X0192757Y0008862D01*
X0192757Y0008783D01*
X0192717Y0008744D01*
X0192717Y0008705D01*
X0192560Y0008547D01*
X0192481Y0008508D01*
X0192442Y0008508D01*
X0192402Y0008469D01*
X0192324Y0008429D01*
X0192284Y0008429D01*
X0192127Y0008350D01*
X0192048Y0008350D01*
X0191969Y0008311D01*
X0191891Y0008311D01*
X0191812Y0008272D01*
X0191497Y0008193D01*
X0191143Y0008075D01*
X0190985Y0007996D01*
X0190867Y0007957D01*
X0190749Y0007839D01*
X0190670Y0007799D01*
X0190631Y0007720D01*
X0190552Y0007681D01*
X0190434Y0007445D01*
X0190394Y0007406D01*
X0190394Y0007327D01*
X0190355Y0007287D01*
X0190355Y0006343D01*
X0190394Y0006303D01*
X0190394Y0006264D01*
X0190434Y0006224D01*
X0190434Y0006185D01*
X0190473Y0006106D01*
X0190513Y0006067D01*
X0190552Y0005988D01*
X0190749Y0005791D01*
X0190495Y0006084D02*
X0191283Y0006084D01*
X0190985Y0006382D02*
X0190355Y0006382D01*
X0190355Y0006680D02*
X0190915Y0006680D01*
X0190928Y0006977D02*
X0190355Y0006977D01*
X0190355Y0007275D02*
X0191064Y0007275D01*
X0191556Y0007573D02*
X0190498Y0007573D01*
X0190781Y0007870D02*
X0192552Y0007870D01*
X0193054Y0008168D02*
X0191423Y0008168D01*
X0192397Y0008466D02*
X0193281Y0008466D01*
X0193380Y0008764D02*
X0192737Y0008764D01*
X0192796Y0009061D02*
X0193425Y0009061D01*
X0193365Y0009359D02*
X0192749Y0009359D01*
X0192585Y0009657D02*
X0193251Y0009657D01*
X0193042Y0009954D02*
X0190591Y0009954D01*
X0190591Y0009657D02*
X0190835Y0009657D01*
X0190879Y0010252D02*
X0192614Y0010252D01*
X0194331Y0010252D02*
X0194961Y0010252D01*
X0194961Y0009954D02*
X0194331Y0009954D01*
X0194331Y0009657D02*
X0194961Y0009657D01*
X0194961Y0009359D02*
X0194331Y0009359D01*
X0194331Y0009061D02*
X0194961Y0009061D01*
X0194961Y0008764D02*
X0194331Y0008764D01*
X0194331Y0008466D02*
X0194961Y0008466D01*
X0194331Y0008168D02*
X0197442Y0008168D01*
X0197442Y0008466D02*
X0196812Y0008466D01*
X0196812Y0008764D02*
X0197442Y0008764D01*
X0197442Y0009061D02*
X0196812Y0009061D01*
X0196812Y0009359D02*
X0197442Y0009359D01*
X0197442Y0009657D02*
X0196812Y0009657D01*
X0196812Y0009954D02*
X0197442Y0009954D01*
X0197442Y0010252D02*
X0196812Y0010252D01*
X0199216Y0009061D02*
X0199765Y0009061D01*
X0202561Y0008466D02*
X0203232Y0008466D01*
X0203569Y0008168D02*
X0202742Y0008168D01*
X0203517Y0010252D02*
X0204371Y0010252D01*
X0205473Y0010252D01*
X0203563Y0014718D02*
X0199905Y0014718D01*
X0200026Y0015016D02*
X0203859Y0015016D01*
X0203589Y0015314D02*
X0200195Y0015314D01*
X0200324Y0015611D02*
X0203252Y0015611D01*
X0202915Y0015909D02*
X0200453Y0015909D01*
X0200584Y0016207D02*
X0202523Y0016207D01*
X0202134Y0016504D02*
X0200712Y0016504D01*
X0200852Y0016802D02*
X0201785Y0016802D01*
X0201291Y0017100D02*
X0200960Y0017100D01*
X0193347Y0006084D02*
X0192747Y0006084D01*
X0192639Y0005489D02*
X0191354Y0005489D01*
M02*
