G75*
%MOIN*%
%OFA0B0*%
%FSLAX25Y25*%
%IPPOS*%
%LPD*%
%AMOC8*
5,1,8,0,0,1.08239X$1,22.5*
%
%ADD10C,0.14580*%
%ADD11C,0.07200*%
%ADD12C,0.10800*%
%ADD13C,0.10924*%
%ADD14C,0.16550*%
%ADD15C,0.07400*%
%ADD16C,0.03900*%
D10*
X0074635Y0076835D03*
X0149438Y0076835D03*
X0206524Y0315024D03*
X0017548Y0316992D03*
D11*
X0058524Y0316654D03*
X0058524Y0326654D03*
X0068524Y0326654D03*
X0068524Y0316654D03*
X0068524Y0306654D03*
X0058524Y0306654D03*
D12*
X0026776Y0019193D03*
X0051776Y0029193D03*
X0026776Y0093996D03*
X0051776Y0103996D03*
X0026776Y0168799D03*
X0051776Y0178799D03*
X0101580Y0168799D03*
X0126580Y0178799D03*
X0176383Y0168799D03*
X0201383Y0178799D03*
X0201383Y0103996D03*
X0176383Y0093996D03*
X0201383Y0029193D03*
X0176383Y0019193D03*
X0126580Y0029193D03*
X0101580Y0019193D03*
X0101580Y0093996D03*
X0126580Y0103996D03*
D13*
X0131580Y0113996D03*
X0166383Y0113996D03*
X0206383Y0113996D03*
X0206383Y0039193D03*
X0166383Y0039193D03*
X0131580Y0039193D03*
X0091580Y0039193D03*
X0056776Y0039193D03*
X0016776Y0039193D03*
X0016776Y0113996D03*
X0056776Y0113996D03*
X0091580Y0113996D03*
X0091580Y0188799D03*
X0056776Y0188799D03*
X0016776Y0188799D03*
X0131580Y0188799D03*
X0166383Y0188799D03*
X0206383Y0188799D03*
D14*
X0186383Y0188799D03*
X0186383Y0113996D03*
X0186383Y0039193D03*
X0111580Y0039193D03*
X0111580Y0113996D03*
X0111580Y0188799D03*
X0036776Y0188799D03*
X0036776Y0113996D03*
X0036776Y0039193D03*
D15*
X0031776Y0054193D03*
X0041776Y0054193D03*
X0041776Y0128996D03*
X0031776Y0128996D03*
X0031776Y0203799D03*
X0041776Y0203799D03*
X0106580Y0203799D03*
X0116580Y0203799D03*
X0116580Y0128996D03*
X0106580Y0128996D03*
X0106580Y0054193D03*
X0116580Y0054193D03*
X0181383Y0054193D03*
X0191383Y0054193D03*
X0191383Y0128996D03*
X0181383Y0128996D03*
X0181383Y0203799D03*
X0191383Y0203799D03*
D16*
X0180800Y0229000D03*
X0165800Y0247500D03*
X0157800Y0259000D03*
X0165300Y0264000D03*
X0162800Y0284000D03*
X0185300Y0265500D03*
X0189800Y0257500D03*
X0203800Y0258000D03*
X0213800Y0248500D03*
X0217300Y0235000D03*
X0199300Y0230500D03*
X0158800Y0210000D03*
X0153300Y0220000D03*
X0142800Y0236500D03*
X0145300Y0241500D03*
X0137300Y0229000D03*
X0130800Y0227500D03*
X0126300Y0223000D03*
X0120300Y0243500D03*
X0113800Y0254500D03*
X0113800Y0258500D03*
X0109800Y0258500D03*
X0109800Y0254500D03*
X0096800Y0249000D03*
X0094300Y0259500D03*
X0111800Y0234000D03*
X0080300Y0226500D03*
X0075300Y0232000D03*
X0070300Y0230000D03*
X0072300Y0253500D03*
X0075300Y0265500D03*
X0064300Y0264500D03*
X0054800Y0257000D03*
X0030300Y0232000D03*
X0007800Y0240500D03*
X0032800Y0150000D03*
X0005800Y0149000D03*
X0037800Y0077500D03*
X0106300Y0153500D03*
X0118300Y0152000D03*
X0134800Y0154500D03*
X0109800Y0079500D03*
X0138800Y0064500D03*
X0186300Y0075000D03*
X0187300Y0150000D03*
X0112300Y0288000D03*
X0105800Y0299000D03*
X0095300Y0304000D03*
X0085800Y0291500D03*
X0141800Y0298000D03*
M02*
