%
M48
M72
T01C0.01500
T02C0.03543
T03C0.04000
T04C0.05906
T05C0.06750
T06C0.13780
T07C0.15750
%
T01
X37800Y77500
X5800Y149000
X32800Y150000
X80300Y226500
X75300Y232000
X70300Y230000
X72300Y253500
X75300Y265500
X64300Y264500
X54800Y257000
X30300Y232000
X7800Y240500
X85800Y291500
X95300Y304000
X105800Y299000
X112300Y288000
X113800Y258500
X113800Y254500
X109800Y254500
X109800Y258500
X96800Y249000
X94300Y259500
X111800Y234000
X120300Y243500
X130800Y227500
X126300Y223000
X137300Y229000
X142800Y236500
X145300Y241500
X157800Y259000
X165300Y264000
X165800Y247500
X180800Y229000
X199300Y230500
X213800Y248500
X217300Y235000
X203800Y258000
X189800Y257500
X185300Y265500
X162800Y284000
X141800Y298000
X153300Y220000
X158800Y210000
X134800Y154500
X118300Y152000
X106300Y153500
X109800Y79500
X138800Y64500
X186300Y75000
X187300Y150000
T02
X68524Y306654
X68524Y316654
X68524Y326654
X58524Y326654
X58524Y316654
X58524Y306654
T03
X41776Y203799
X31776Y203799
X31776Y128996
X41776Y128996
X41776Y54193
X31776Y54193
X106580Y54193
X116580Y54193
X116580Y128996
X106580Y128996
X106580Y203799
X116580Y203799
X181383Y203799
X191383Y203799
X191383Y128996
X181383Y128996
X181383Y54193
X191383Y54193
T04
X26776Y19193
X51776Y29193
X26776Y93996
X51776Y103996
X26776Y168799
X51776Y178799
X101580Y168799
X126580Y178799
X176383Y168799
X201383Y178799
X201383Y103996
X176383Y93996
X201383Y29193
X176383Y19193
X126580Y29193
X101580Y19193
X101580Y93996
X126580Y103996
T05
X131580Y113996
X166383Y113996
X206383Y113996
X206383Y39193
X166383Y39193
X131580Y39193
X91580Y39193
X56776Y39193
X16776Y39193
X16776Y113996
X56776Y113996
X91580Y113996
X91580Y188799
X56776Y188799
X16776Y188799
X131580Y188799
X166383Y188799
X206383Y188799
T06
X149438Y76835
X74635Y76835
X206524Y315024
X17548Y316992
T07
X36776Y188799
X36776Y113996
X36776Y39193
X111580Y39193
X111580Y113996
X111580Y188799
X186383Y188799
X186383Y113996
X186383Y39193
M30
