G75*
%MOIN*%
%OFA0B0*%
%FSLAX25Y25*%
%IPPOS*%
%LPD*%
%AMOC8*
5,1,8,0,0,1.08239X$1,22.5*
%
%ADD10C,0.00500*%
%ADD11R,0.00100X0.00100*%
%ADD12R,0.02400X0.00100*%
%ADD13R,0.02000X0.00100*%
%ADD14R,0.00700X0.00100*%
%ADD15R,0.01400X0.00100*%
%ADD16R,0.01100X0.00100*%
%ADD17R,0.01000X0.00100*%
%ADD18R,0.00800X0.00100*%
%ADD19R,0.00600X0.00100*%
%ADD20R,0.00500X0.00100*%
%ADD21R,0.00400X0.00100*%
%ADD22R,0.00300X0.00100*%
%ADD23R,0.00200X0.00100*%
%ADD24R,0.02800X0.00100*%
%ADD25R,0.03400X0.00100*%
%ADD26R,0.03800X0.00100*%
%ADD27R,0.04300X0.00100*%
%ADD28R,0.04700X0.00100*%
%ADD29R,0.05000X0.00100*%
%ADD30R,0.05300X0.00100*%
%ADD31R,0.05600X0.00100*%
%ADD32R,0.05800X0.00100*%
%ADD33R,0.02900X0.00100*%
%ADD34R,0.02100X0.00100*%
%ADD35R,0.02300X0.00100*%
%ADD36R,0.01900X0.00100*%
%ADD37R,0.01700X0.00100*%
%ADD38R,0.03900X0.00100*%
%ADD39R,0.04900X0.00100*%
%ADD40R,0.05900X0.00100*%
%ADD41R,0.06600X0.00100*%
%ADD42R,0.07100X0.00100*%
%ADD43R,0.07600X0.00100*%
%ADD44R,0.08200X0.00100*%
%ADD45R,0.08500X0.00100*%
%ADD46R,0.08900X0.00100*%
%ADD47R,0.09300X0.00100*%
%ADD48R,0.09500X0.00100*%
%ADD49R,0.09800X0.00100*%
%ADD50R,0.10100X0.00100*%
%ADD51R,0.10400X0.00100*%
%ADD52R,0.10600X0.00100*%
%ADD53R,0.10800X0.00100*%
%ADD54R,0.11000X0.00100*%
%ADD55R,0.11200X0.00100*%
%ADD56R,0.11300X0.00100*%
%ADD57R,0.11400X0.00100*%
%ADD58R,0.11600X0.00100*%
%ADD59R,0.11700X0.00100*%
%ADD60R,0.11900X0.00100*%
%ADD61R,0.12000X0.00100*%
%ADD62R,0.12100X0.00100*%
%ADD63R,0.08100X0.00100*%
%ADD64R,0.00900X0.00100*%
%ADD65R,0.01200X0.00100*%
%ADD66R,0.01300X0.00100*%
%ADD67R,0.01500X0.00100*%
%ADD68R,0.01600X0.00100*%
%ADD69R,0.01800X0.00100*%
%ADD70R,0.02200X0.00100*%
%ADD71R,0.02500X0.00100*%
%ADD72R,0.02700X0.00100*%
%ADD73R,0.02600X0.00100*%
%ADD74R,0.03000X0.00100*%
%ADD75R,0.03100X0.00100*%
%ADD76R,0.03200X0.00100*%
%ADD77R,0.03300X0.00100*%
%ADD78R,0.03500X0.00100*%
%ADD79R,0.03600X0.00100*%
%ADD80R,0.03700X0.00100*%
%ADD81R,0.04000X0.00100*%
%ADD82R,0.04100X0.00100*%
%ADD83R,0.04200X0.00100*%
%ADD84R,0.04400X0.00100*%
%ADD85R,0.04500X0.00100*%
%ADD86R,0.04600X0.00100*%
%ADD87R,0.04800X0.00100*%
%ADD88R,0.05100X0.00100*%
%ADD89R,0.05400X0.00100*%
%ADD90R,0.05700X0.00100*%
%ADD91R,0.06100X0.00100*%
%ADD92R,0.06000X0.00100*%
%ADD93R,0.06200X0.00100*%
%ADD94R,0.06300X0.00100*%
%ADD95R,0.06400X0.00100*%
%ADD96R,0.06500X0.00100*%
%ADD97R,0.06700X0.00100*%
%ADD98R,0.06900X0.00100*%
%ADD99R,0.06800X0.00100*%
%ADD100R,0.07000X0.00100*%
%ADD101R,0.05500X0.00100*%
%ADD102R,0.05200X0.00100*%
%ADD103R,0.07200X0.00100*%
%ADD104R,0.07500X0.00100*%
%ADD105R,0.07300X0.00100*%
%ADD106R,0.07900X0.00100*%
%ADD107R,0.09100X0.00100*%
%ADD108R,0.09700X0.00100*%
%ADD109R,0.08600X0.00100*%
%ADD110R,0.10300X0.00100*%
%ADD111R,0.10500X0.00100*%
%ADD112R,0.10900X0.00100*%
%ADD113R,0.09900X0.00100*%
%ADD114R,0.11100X0.00100*%
%ADD115R,0.10200X0.00100*%
%ADD116R,0.11500X0.00100*%
%ADD117R,0.12400X0.00100*%
%ADD118R,0.12600X0.00100*%
%ADD119R,0.12800X0.00100*%
%ADD120R,0.13100X0.00100*%
%ADD121R,0.13300X0.00100*%
%ADD122R,0.12500X0.00100*%
%ADD123R,0.13800X0.00100*%
%ADD124R,0.13000X0.00100*%
%ADD125R,0.14200X0.00100*%
%ADD126R,0.13200X0.00100*%
%ADD127R,0.14300X0.00100*%
%ADD128R,0.13400X0.00100*%
%ADD129R,0.14700X0.00100*%
%ADD130R,0.13700X0.00100*%
%ADD131R,0.14800X0.00100*%
%ADD132R,0.13900X0.00100*%
%ADD133R,0.15100X0.00100*%
%ADD134R,0.14100X0.00100*%
%ADD135R,0.15300X0.00100*%
%ADD136R,0.14500X0.00100*%
%ADD137R,0.15500X0.00100*%
%ADD138R,0.14600X0.00100*%
%ADD139R,0.15700X0.00100*%
%ADD140R,0.14900X0.00100*%
%ADD141R,0.16000X0.00100*%
%ADD142R,0.15000X0.00100*%
%ADD143R,0.16200X0.00100*%
%ADD144R,0.16300X0.00100*%
%ADD145R,0.15400X0.00100*%
%ADD146R,0.16600X0.00100*%
%ADD147R,0.16700X0.00100*%
%ADD148R,0.15800X0.00100*%
%ADD149R,0.16900X0.00100*%
%ADD150R,0.17200X0.00100*%
%ADD151R,0.17300X0.00100*%
%ADD152R,0.16400X0.00100*%
%ADD153R,0.17600X0.00100*%
%ADD154R,0.17900X0.00100*%
%ADD155R,0.17000X0.00100*%
%ADD156R,0.18000X0.00100*%
%ADD157R,0.17100X0.00100*%
%ADD158R,0.18300X0.00100*%
%ADD159R,0.18500X0.00100*%
%ADD160R,0.18700X0.00100*%
%ADD161R,0.19000X0.00100*%
%ADD162R,0.18200X0.00100*%
%ADD163R,0.19400X0.00100*%
%ADD164R,0.18400X0.00100*%
%ADD165R,0.19700X0.00100*%
%ADD166R,0.19600X0.00100*%
%ADD167R,0.20000X0.00100*%
%ADD168R,0.18900X0.00100*%
%ADD169R,0.20100X0.00100*%
%ADD170R,0.19300X0.00100*%
%ADD171R,0.20300X0.00100*%
%ADD172R,0.19200X0.00100*%
%ADD173R,0.20500X0.00100*%
%ADD174R,0.20800X0.00100*%
%ADD175R,0.19900X0.00100*%
%ADD176R,0.20900X0.00100*%
%ADD177R,0.21100X0.00100*%
%ADD178R,0.21400X0.00100*%
%ADD179R,0.20400X0.00100*%
%ADD180R,0.21600X0.00100*%
%ADD181R,0.20700X0.00100*%
%ADD182R,0.21200X0.00100*%
%ADD183R,0.18800X0.00100*%
%ADD184R,0.17700X0.00100*%
%ADD185R,0.17400X0.00100*%
%ADD186R,0.16100X0.00100*%
%ADD187R,0.15600X0.00100*%
%ADD188R,0.14400X0.00100*%
%ADD189R,0.14000X0.00100*%
%ADD190R,0.13600X0.00100*%
%ADD191R,0.13500X0.00100*%
%ADD192R,0.12900X0.00100*%
%ADD193R,0.12700X0.00100*%
%ADD194R,0.12300X0.00100*%
%ADD195R,0.12200X0.00100*%
%ADD196R,0.11800X0.00100*%
%ADD197R,0.10700X0.00100*%
%ADD198R,0.10000X0.00100*%
%ADD199R,0.09600X0.00100*%
%ADD200R,0.09400X0.00100*%
%ADD201R,0.09200X0.00100*%
%ADD202R,0.09000X0.00100*%
%ADD203R,0.08800X0.00100*%
%ADD204R,0.08700X0.00100*%
%ADD205R,0.15900X0.00100*%
%ADD206R,0.08400X0.00100*%
%ADD207R,0.16500X0.00100*%
%ADD208R,0.08300X0.00100*%
%ADD209R,0.16800X0.00100*%
%ADD210R,0.17500X0.00100*%
%ADD211R,0.17800X0.00100*%
%ADD212R,0.08000X0.00100*%
%ADD213R,0.18100X0.00100*%
%ADD214R,0.18600X0.00100*%
%ADD215R,0.07800X0.00100*%
%ADD216R,0.19100X0.00100*%
%ADD217R,0.07700X0.00100*%
%ADD218R,0.07400X0.00100*%
%ADD219R,0.15200X0.00100*%
%ADD220R,0.20200X0.00100*%
%ADD221R,0.21000X0.00100*%
%ADD222R,0.21300X0.00100*%
%ADD223R,0.20600X0.00100*%
%ADD224R,0.19500X0.00100*%
%ADD225R,0.19800X0.00100*%
%ADD226C,0.00800*%
%ADD227C,0.01000*%
%ADD228C,0.00300*%
%ADD229C,0.00600*%
%ADD230R,0.00591X0.01181*%
%ADD231R,0.01181X0.01181*%
%ADD232C,0.01100*%
D10*
X0031472Y0006598D02*
X0031472Y0020598D01*
X0034472Y0023598D01*
X0039472Y0023598D01*
X0041472Y0021598D01*
X0043472Y0023598D01*
X0049472Y0023598D01*
X0051472Y0021598D01*
X0053472Y0023598D01*
X0058472Y0023598D01*
X0061472Y0020598D01*
X0061472Y0006598D01*
X0058472Y0003598D01*
X0053472Y0003598D01*
X0051472Y0005598D01*
X0049472Y0003598D01*
X0043472Y0003598D01*
X0041472Y0005598D01*
X0039472Y0003598D01*
X0034472Y0003598D01*
X0031472Y0006598D01*
X0030023Y0021848D02*
X0028272Y0021848D01*
X0028272Y0025351D01*
X0030023Y0025351D01*
X0030607Y0024767D01*
X0030607Y0024184D01*
X0030023Y0023600D01*
X0028272Y0023600D01*
X0026924Y0023016D02*
X0026924Y0022432D01*
X0026340Y0021848D01*
X0025173Y0021848D01*
X0024589Y0022432D01*
X0025173Y0023600D02*
X0026340Y0023600D01*
X0026924Y0023016D01*
X0025173Y0023600D02*
X0024589Y0024184D01*
X0024589Y0024767D01*
X0025173Y0025351D01*
X0026340Y0025351D01*
X0026924Y0024767D01*
X0030023Y0023600D02*
X0030607Y0023016D01*
X0030607Y0022432D01*
X0030023Y0021848D01*
X0023241Y0022432D02*
X0023241Y0025351D01*
X0020906Y0025351D02*
X0020906Y0022432D01*
X0021489Y0021848D01*
X0022657Y0021848D01*
X0023241Y0022432D01*
X0019558Y0021848D02*
X0019558Y0025351D01*
X0018390Y0024184D01*
X0017222Y0025351D01*
X0017222Y0021848D01*
X0066578Y0023357D02*
X0068230Y0021706D01*
X0069055Y0021706D01*
X0069881Y0022532D01*
X0069881Y0023357D01*
X0071247Y0023898D02*
X0071247Y0027200D01*
X0070834Y0027613D01*
X0070008Y0027613D01*
X0069183Y0026787D01*
X0069183Y0025962D01*
X0068230Y0025009D02*
X0067404Y0025009D01*
X0066578Y0024183D01*
X0066578Y0023357D01*
X0071247Y0023898D02*
X0072898Y0025549D01*
X0079975Y0017780D02*
X0082452Y0015303D01*
X0081627Y0014478D02*
X0083278Y0016129D01*
X0079975Y0016129D02*
X0079975Y0017780D01*
X0078609Y0015589D02*
X0077784Y0015589D01*
X0076958Y0014763D01*
X0076958Y0013937D01*
X0078609Y0012286D01*
X0079435Y0012286D01*
X0080261Y0013112D01*
X0080261Y0013937D01*
X0092165Y0011270D02*
X0093404Y0012509D01*
X0094230Y0012509D01*
X0095055Y0011683D01*
X0095055Y0010857D01*
X0093817Y0009619D01*
X0094642Y0010445D02*
X0096294Y0010445D01*
X0097247Y0011398D02*
X0098898Y0013049D01*
X0098072Y0012223D02*
X0095595Y0014700D01*
X0095595Y0013049D01*
X0092165Y0011270D02*
X0094642Y0008793D01*
X0140981Y0025964D02*
X0141394Y0025552D01*
X0143045Y0025552D01*
X0144283Y0024313D01*
X0143045Y0025552D02*
X0143045Y0027203D01*
X0142632Y0027616D01*
X0144411Y0027743D02*
X0144411Y0029394D01*
X0146888Y0026917D01*
X0146062Y0026092D02*
X0147713Y0027743D01*
X0148719Y0017000D02*
X0148719Y0014665D01*
X0150471Y0014665D01*
X0149887Y0015833D01*
X0149887Y0016417D01*
X0150471Y0017000D01*
X0151639Y0017000D01*
X0152222Y0016417D01*
X0152222Y0015249D01*
X0151639Y0014665D01*
X0152222Y0013317D02*
X0151055Y0012150D01*
X0151055Y0012733D02*
X0151055Y0010982D01*
X0152222Y0010982D02*
X0148719Y0010982D01*
X0148719Y0012733D01*
X0149303Y0013317D01*
X0150471Y0013317D01*
X0151055Y0012733D01*
X0154719Y0012733D02*
X0154719Y0010982D01*
X0158222Y0010982D01*
X0157055Y0010982D02*
X0157055Y0012733D01*
X0156471Y0013317D01*
X0155303Y0013317D01*
X0154719Y0012733D01*
X0157055Y0012150D02*
X0158222Y0013317D01*
X0156471Y0014665D02*
X0156471Y0017000D01*
X0158222Y0016417D02*
X0154719Y0016417D01*
X0156471Y0014665D01*
X0160719Y0015249D02*
X0160719Y0016417D01*
X0161303Y0017000D01*
X0161887Y0017000D01*
X0162471Y0016417D01*
X0163055Y0017000D01*
X0163639Y0017000D01*
X0164222Y0016417D01*
X0164222Y0015249D01*
X0163639Y0014665D01*
X0164222Y0013317D02*
X0163055Y0012150D01*
X0163055Y0012733D02*
X0163055Y0010982D01*
X0164222Y0010982D02*
X0160719Y0010982D01*
X0160719Y0012733D01*
X0161303Y0013317D01*
X0162471Y0013317D01*
X0163055Y0012733D01*
X0161303Y0014665D02*
X0160719Y0015249D01*
X0162471Y0015833D02*
X0162471Y0016417D01*
X0166719Y0016417D02*
X0166719Y0015249D01*
X0167303Y0014665D01*
X0167303Y0013317D02*
X0168471Y0013317D01*
X0169055Y0012733D01*
X0169055Y0010982D01*
X0170222Y0010982D02*
X0166719Y0010982D01*
X0166719Y0012733D01*
X0167303Y0013317D01*
X0169055Y0012150D02*
X0170222Y0013317D01*
X0170222Y0014665D02*
X0167887Y0017000D01*
X0167303Y0017000D01*
X0166719Y0016417D01*
X0170222Y0017000D02*
X0170222Y0014665D01*
X0174449Y0011094D02*
X0174449Y0071094D01*
X0234449Y0071094D01*
X0234449Y0011094D01*
X0174449Y0011094D01*
X0175538Y0009414D02*
X0173203Y0007663D01*
X0175538Y0005911D01*
X0176886Y0007663D02*
X0179221Y0005911D01*
X0176886Y0007663D02*
X0179221Y0009414D01*
X0249252Y0011094D02*
X0249252Y0071094D01*
X0309252Y0071094D01*
X0309252Y0011094D01*
X0249252Y0011094D01*
X0249974Y0009414D02*
X0252310Y0007663D01*
X0249974Y0005911D01*
X0253658Y0005911D02*
X0255993Y0007663D01*
X0253658Y0009414D01*
X0324055Y0011094D02*
X0324055Y0071094D01*
X0384055Y0071094D01*
X0384055Y0011094D01*
X0324055Y0011094D01*
X0324778Y0009414D02*
X0325945Y0008247D01*
X0327113Y0009414D01*
X0327113Y0005911D01*
X0328461Y0006495D02*
X0329045Y0005911D01*
X0330212Y0005911D01*
X0330796Y0006495D01*
X0330796Y0009414D01*
X0332144Y0009414D02*
X0334479Y0009414D01*
X0333312Y0009414D02*
X0333312Y0005911D01*
X0335827Y0005911D02*
X0338162Y0005911D01*
X0336995Y0007663D02*
X0335827Y0007663D01*
X0335827Y0009414D02*
X0335827Y0005911D01*
X0328461Y0006495D02*
X0328461Y0009414D01*
X0324778Y0009414D02*
X0324778Y0005911D01*
X0335827Y0009414D02*
X0338162Y0009414D01*
X0398858Y0011094D02*
X0398858Y0071094D01*
X0458858Y0071094D01*
X0458858Y0011094D01*
X0398858Y0011094D01*
X0399581Y0009414D02*
X0399581Y0007079D01*
X0400748Y0005911D01*
X0401916Y0007079D01*
X0401916Y0009414D01*
X0403264Y0008830D02*
X0403264Y0006495D01*
X0403848Y0005911D01*
X0405015Y0005911D01*
X0405599Y0006495D01*
X0405599Y0008830D01*
X0405015Y0009414D01*
X0403848Y0009414D01*
X0403264Y0008830D01*
X0406947Y0009414D02*
X0406947Y0005911D01*
X0409282Y0005911D01*
X0414313Y0007663D02*
X0416649Y0007663D01*
X0398858Y0085898D02*
X0398858Y0145898D01*
X0458858Y0145898D01*
X0458858Y0085898D01*
X0398858Y0085898D01*
X0384055Y0085898D02*
X0324055Y0085898D01*
X0324055Y0145898D01*
X0384055Y0145898D01*
X0384055Y0085898D01*
X0309252Y0085898D02*
X0249252Y0085898D01*
X0249252Y0145898D01*
X0309252Y0145898D01*
X0309252Y0085898D01*
X0234449Y0085898D02*
X0174449Y0085898D01*
X0174449Y0145898D01*
X0234449Y0145898D01*
X0234449Y0085898D01*
X0169924Y0077267D02*
X0167589Y0074932D01*
X0168173Y0074348D01*
X0169340Y0074348D01*
X0169924Y0074932D01*
X0169924Y0077267D01*
X0169340Y0077851D01*
X0168173Y0077851D01*
X0167589Y0077267D01*
X0167589Y0074932D01*
X0166241Y0074348D02*
X0163906Y0074348D01*
X0165073Y0074348D02*
X0165073Y0077851D01*
X0163906Y0076684D01*
X0162558Y0077267D02*
X0162558Y0076100D01*
X0161974Y0075516D01*
X0160222Y0075516D01*
X0160222Y0074348D02*
X0160222Y0077851D01*
X0161974Y0077851D01*
X0162558Y0077267D01*
X0161390Y0075516D02*
X0162558Y0074348D01*
X0163055Y0070367D02*
X0163639Y0070367D01*
X0164222Y0069783D01*
X0164222Y0068615D01*
X0163639Y0068031D01*
X0163055Y0068031D01*
X0162471Y0068615D01*
X0162471Y0069783D01*
X0163055Y0070367D01*
X0162471Y0069783D02*
X0161887Y0070367D01*
X0161303Y0070367D01*
X0160719Y0069783D01*
X0160719Y0068615D01*
X0161303Y0068031D01*
X0161887Y0068031D01*
X0162471Y0068615D01*
X0162471Y0066684D02*
X0161303Y0066684D01*
X0160719Y0066100D01*
X0160719Y0064348D01*
X0164222Y0064348D01*
X0163055Y0064348D02*
X0163055Y0066100D01*
X0162471Y0066684D01*
X0163055Y0065516D02*
X0164222Y0066684D01*
X0166719Y0066100D02*
X0167303Y0066684D01*
X0168471Y0066684D01*
X0169055Y0066100D01*
X0169055Y0064348D01*
X0170222Y0064348D02*
X0166719Y0064348D01*
X0166719Y0066100D01*
X0169055Y0065516D02*
X0170222Y0066684D01*
X0169639Y0068031D02*
X0170222Y0068615D01*
X0170222Y0069783D01*
X0169639Y0070367D01*
X0167303Y0070367D01*
X0166719Y0069783D01*
X0166719Y0068615D01*
X0167303Y0068031D01*
X0167887Y0068031D01*
X0168471Y0068615D01*
X0168471Y0070367D01*
X0158222Y0068031D02*
X0157639Y0068031D01*
X0155303Y0070367D01*
X0154719Y0070367D01*
X0154719Y0068031D01*
X0155303Y0066684D02*
X0156471Y0066684D01*
X0157055Y0066100D01*
X0157055Y0064348D01*
X0158222Y0064348D02*
X0154719Y0064348D01*
X0154719Y0066100D01*
X0155303Y0066684D01*
X0157055Y0065516D02*
X0158222Y0066684D01*
X0152222Y0066684D02*
X0151055Y0065516D01*
X0151055Y0066100D02*
X0151055Y0064348D01*
X0152222Y0064348D02*
X0148719Y0064348D01*
X0148719Y0066100D01*
X0149303Y0066684D01*
X0150471Y0066684D01*
X0151055Y0066100D01*
X0151639Y0068031D02*
X0152222Y0068615D01*
X0152222Y0069783D01*
X0151639Y0070367D01*
X0151055Y0070367D01*
X0150471Y0069783D01*
X0150471Y0068031D01*
X0151639Y0068031D01*
X0150471Y0068031D02*
X0149303Y0069199D01*
X0148719Y0070367D01*
X0116115Y0075965D02*
X0114464Y0074314D01*
X0115290Y0075139D02*
X0112813Y0077616D01*
X0112813Y0075965D01*
X0111034Y0075838D02*
X0113098Y0073773D01*
X0113098Y0072948D01*
X0112273Y0072122D01*
X0111447Y0072122D01*
X0109383Y0074186D01*
X0104205Y0078600D02*
X0103379Y0077775D01*
X0102554Y0077775D01*
X0100902Y0079426D01*
X0100902Y0080252D01*
X0101728Y0081077D01*
X0102554Y0081077D01*
X0103507Y0082030D02*
X0103507Y0082856D01*
X0104332Y0083682D01*
X0105158Y0083682D01*
X0105571Y0083269D01*
X0105571Y0082443D01*
X0106397Y0082443D01*
X0106809Y0082030D01*
X0106809Y0081205D01*
X0105984Y0080379D01*
X0105158Y0080379D01*
X0104205Y0079426D02*
X0104205Y0078600D01*
X0105158Y0082030D02*
X0105571Y0082443D01*
X0105273Y0089648D02*
X0107608Y0089648D01*
X0106441Y0091400D02*
X0105273Y0091400D01*
X0105273Y0093151D02*
X0105273Y0089648D01*
X0103925Y0089648D02*
X0102174Y0091400D01*
X0101590Y0090816D02*
X0103925Y0093151D01*
X0105273Y0093151D02*
X0107608Y0093151D01*
X0108956Y0093151D02*
X0108956Y0092567D01*
X0110124Y0091400D01*
X0110124Y0089648D01*
X0110124Y0091400D02*
X0111291Y0092567D01*
X0111291Y0093151D01*
X0112639Y0093151D02*
X0114391Y0093151D01*
X0114975Y0092567D01*
X0114975Y0091984D01*
X0114391Y0091400D01*
X0112639Y0091400D01*
X0112639Y0093151D02*
X0112639Y0089648D01*
X0114391Y0089648D01*
X0114975Y0090232D01*
X0114975Y0090816D01*
X0114391Y0091400D01*
X0116322Y0092567D02*
X0116322Y0090232D01*
X0116906Y0089648D01*
X0118074Y0089648D01*
X0118658Y0090232D01*
X0118658Y0092567D01*
X0118074Y0093151D01*
X0116906Y0093151D01*
X0116322Y0092567D01*
X0120006Y0091984D02*
X0121173Y0093151D01*
X0122341Y0091984D01*
X0122341Y0089648D01*
X0123689Y0089648D02*
X0123689Y0093151D01*
X0125440Y0093151D01*
X0126024Y0092567D01*
X0126024Y0091400D01*
X0125440Y0090816D01*
X0123689Y0090816D01*
X0124856Y0090816D02*
X0126024Y0089648D01*
X0127372Y0089648D02*
X0129123Y0089648D01*
X0129707Y0090232D01*
X0129707Y0092567D01*
X0129123Y0093151D01*
X0127372Y0093151D01*
X0127372Y0089648D01*
X0122341Y0091400D02*
X0120006Y0091400D01*
X0120006Y0091984D02*
X0120006Y0089648D01*
X0120589Y0095648D02*
X0120006Y0096232D01*
X0120006Y0098567D01*
X0120589Y0099151D01*
X0121757Y0099151D01*
X0122341Y0098567D01*
X0122341Y0096232D01*
X0121757Y0095648D01*
X0120589Y0095648D01*
X0117490Y0095648D02*
X0117490Y0099151D01*
X0116322Y0099151D02*
X0118658Y0099151D01*
X0114975Y0099151D02*
X0112639Y0099151D01*
X0113807Y0099151D02*
X0113807Y0095648D01*
X0111291Y0096232D02*
X0111291Y0099151D01*
X0108956Y0099151D02*
X0108956Y0096232D01*
X0109540Y0095648D01*
X0110708Y0095648D01*
X0111291Y0096232D01*
X0107608Y0096232D02*
X0107024Y0095648D01*
X0105273Y0095648D01*
X0105273Y0099151D01*
X0107024Y0099151D01*
X0107608Y0098567D01*
X0107608Y0097984D01*
X0107024Y0097400D01*
X0105273Y0097400D01*
X0107024Y0097400D02*
X0107608Y0096816D01*
X0107608Y0096232D01*
X0101590Y0093151D02*
X0101590Y0089648D01*
X0123689Y0095648D02*
X0123689Y0099151D01*
X0126024Y0095648D01*
X0126024Y0099151D01*
X0123599Y0101648D02*
X0122431Y0101648D01*
X0121847Y0102232D01*
X0121847Y0102816D01*
X0122431Y0103400D01*
X0123599Y0103400D01*
X0124182Y0102816D01*
X0124182Y0102232D01*
X0123599Y0101648D01*
X0123599Y0103400D02*
X0124182Y0103984D01*
X0124182Y0104567D01*
X0123599Y0105151D01*
X0122431Y0105151D01*
X0121847Y0104567D01*
X0121847Y0103984D01*
X0122431Y0103400D01*
X0116816Y0103984D02*
X0116816Y0104567D01*
X0116232Y0105151D01*
X0114481Y0105151D01*
X0114481Y0101648D01*
X0116232Y0101648D01*
X0116816Y0102232D01*
X0116816Y0102816D01*
X0116232Y0103400D01*
X0114481Y0103400D01*
X0113133Y0102816D02*
X0112549Y0103400D01*
X0111382Y0103400D01*
X0110798Y0103984D01*
X0110798Y0104567D01*
X0111382Y0105151D01*
X0112549Y0105151D01*
X0113133Y0104567D01*
X0116232Y0103400D02*
X0116816Y0103984D01*
X0113133Y0102816D02*
X0113133Y0102232D01*
X0112549Y0101648D01*
X0111382Y0101648D01*
X0110798Y0102232D01*
X0109450Y0102232D02*
X0109450Y0105151D01*
X0107115Y0105151D02*
X0107115Y0102232D01*
X0107698Y0101648D01*
X0108866Y0101648D01*
X0109450Y0102232D01*
X0175171Y0147644D02*
X0175171Y0151147D01*
X0176923Y0151147D01*
X0177507Y0150563D01*
X0177507Y0149395D01*
X0176923Y0148811D01*
X0175171Y0148811D01*
X0178854Y0149395D02*
X0181190Y0149395D01*
X0181190Y0149979D02*
X0181190Y0147644D01*
X0182538Y0148227D02*
X0183121Y0147644D01*
X0184289Y0147644D01*
X0184873Y0148227D01*
X0184873Y0149395D01*
X0183705Y0149395D01*
X0182538Y0150563D02*
X0182538Y0148227D01*
X0181190Y0149979D02*
X0180022Y0151147D01*
X0178854Y0149979D01*
X0178854Y0147644D01*
X0182538Y0150563D02*
X0183121Y0151147D01*
X0184289Y0151147D01*
X0184873Y0150563D01*
X0186221Y0151147D02*
X0186221Y0147644D01*
X0188556Y0147644D01*
X0187388Y0149395D02*
X0186221Y0149395D01*
X0186221Y0151147D02*
X0188556Y0151147D01*
X0193587Y0150563D02*
X0193587Y0149979D01*
X0194171Y0149395D01*
X0195338Y0149395D01*
X0195922Y0148811D01*
X0195922Y0148227D01*
X0195338Y0147644D01*
X0194171Y0147644D01*
X0193587Y0148227D01*
X0193587Y0150563D02*
X0194171Y0151147D01*
X0195338Y0151147D01*
X0195922Y0150563D01*
X0197270Y0151147D02*
X0197270Y0147644D01*
X0199605Y0147644D01*
X0200953Y0147644D02*
X0203289Y0147644D01*
X0204636Y0147644D02*
X0206972Y0147644D01*
X0208320Y0148227D02*
X0208320Y0150563D01*
X0208903Y0151147D01*
X0210071Y0151147D01*
X0210655Y0150563D01*
X0212003Y0151147D02*
X0214338Y0151147D01*
X0213170Y0151147D02*
X0213170Y0147644D01*
X0210655Y0148227D02*
X0210071Y0147644D01*
X0208903Y0147644D01*
X0208320Y0148227D01*
X0205804Y0149395D02*
X0204636Y0149395D01*
X0204636Y0147644D02*
X0204636Y0151147D01*
X0206972Y0151147D01*
X0200953Y0151147D02*
X0200953Y0147644D01*
X0198438Y0149395D02*
X0197270Y0149395D01*
X0197270Y0151147D02*
X0199605Y0151147D01*
X0249974Y0150563D02*
X0249974Y0149979D01*
X0250558Y0149395D01*
X0251726Y0149395D01*
X0252310Y0148811D01*
X0252310Y0148227D01*
X0251726Y0147644D01*
X0250558Y0147644D01*
X0249974Y0148227D01*
X0249974Y0150563D02*
X0250558Y0151147D01*
X0251726Y0151147D01*
X0252310Y0150563D01*
X0253658Y0151147D02*
X0255993Y0151147D01*
X0254825Y0151147D02*
X0254825Y0147644D01*
X0257341Y0148227D02*
X0257925Y0147644D01*
X0259092Y0147644D01*
X0259676Y0148227D01*
X0259676Y0150563D01*
X0259092Y0151147D01*
X0257925Y0151147D01*
X0257341Y0150563D01*
X0257341Y0148227D01*
X0261024Y0147644D02*
X0261024Y0151147D01*
X0262775Y0151147D01*
X0263359Y0150563D01*
X0263359Y0149395D01*
X0262775Y0148811D01*
X0261024Y0148811D01*
X0324778Y0148811D02*
X0326529Y0148811D01*
X0327113Y0149395D01*
X0327113Y0150563D01*
X0326529Y0151147D01*
X0324778Y0151147D01*
X0324778Y0147644D01*
X0328461Y0147644D02*
X0330796Y0147644D01*
X0332144Y0147644D02*
X0332144Y0149979D01*
X0333312Y0151147D01*
X0334479Y0149979D01*
X0334479Y0147644D01*
X0334479Y0149395D02*
X0332144Y0149395D01*
X0335827Y0150563D02*
X0335827Y0151147D01*
X0335827Y0150563D02*
X0336995Y0149395D01*
X0336995Y0147644D01*
X0336995Y0149395D02*
X0338162Y0150563D01*
X0338162Y0151147D01*
X0341845Y0151147D02*
X0339510Y0147644D01*
X0343193Y0147644D02*
X0343193Y0151147D01*
X0344945Y0151147D01*
X0345529Y0150563D01*
X0345529Y0149395D01*
X0344945Y0148811D01*
X0343193Y0148811D01*
X0346876Y0149395D02*
X0349212Y0149395D01*
X0349212Y0149979D02*
X0349212Y0147644D01*
X0350560Y0148227D02*
X0351143Y0147644D01*
X0352311Y0147644D01*
X0352895Y0148227D01*
X0352895Y0151147D01*
X0354243Y0150563D02*
X0354827Y0151147D01*
X0355994Y0151147D01*
X0356578Y0150563D01*
X0355994Y0149395D02*
X0356578Y0148811D01*
X0356578Y0148227D01*
X0355994Y0147644D01*
X0354827Y0147644D01*
X0354243Y0148227D01*
X0354827Y0149395D02*
X0355994Y0149395D01*
X0354827Y0149395D02*
X0354243Y0149979D01*
X0354243Y0150563D01*
X0357926Y0151147D02*
X0357926Y0147644D01*
X0360261Y0147644D01*
X0359094Y0149395D02*
X0357926Y0149395D01*
X0357926Y0151147D02*
X0360261Y0151147D01*
X0350560Y0151147D02*
X0350560Y0148227D01*
X0349212Y0149979D02*
X0348044Y0151147D01*
X0346876Y0149979D01*
X0346876Y0147644D01*
X0328461Y0147644D02*
X0328461Y0151147D01*
X0399581Y0151147D02*
X0399581Y0148811D01*
X0400748Y0147644D01*
X0401916Y0148811D01*
X0401916Y0151147D01*
X0403264Y0150563D02*
X0403264Y0148227D01*
X0403848Y0147644D01*
X0405015Y0147644D01*
X0405599Y0148227D01*
X0405599Y0150563D01*
X0405015Y0151147D01*
X0403848Y0151147D01*
X0403264Y0150563D01*
X0406947Y0151147D02*
X0406947Y0147644D01*
X0409282Y0147644D01*
X0414313Y0149395D02*
X0416649Y0149395D01*
X0415481Y0150563D02*
X0415481Y0148227D01*
X0170923Y0042551D02*
X0170923Y0039048D01*
X0169756Y0039048D02*
X0172091Y0039048D01*
X0169756Y0041384D02*
X0170923Y0042551D01*
X0168408Y0041967D02*
X0168408Y0039632D01*
X0167824Y0039048D01*
X0166656Y0039048D01*
X0166072Y0039632D01*
X0166072Y0041967D01*
X0166656Y0042551D01*
X0167824Y0042551D01*
X0168408Y0041967D01*
X0167240Y0040216D02*
X0168408Y0039048D01*
X0066375Y0044348D02*
X0064039Y0044348D01*
X0065207Y0044348D02*
X0065207Y0047851D01*
X0064039Y0046684D01*
X0062691Y0047267D02*
X0062108Y0047851D01*
X0060356Y0047851D01*
X0060356Y0044348D01*
X0062108Y0044348D01*
X0062691Y0044932D01*
X0062691Y0047267D01*
D11*
X0063072Y0064498D03*
X0065472Y0064798D03*
X0067172Y0065098D03*
X0068572Y0065398D03*
X0070172Y0065798D03*
X0072572Y0066498D03*
X0064072Y0071998D03*
X0063572Y0071898D03*
X0062372Y0071798D03*
X0065972Y0072298D03*
X0066372Y0072398D03*
X0068472Y0072898D03*
X0074172Y0075098D03*
X0056372Y0071798D03*
X0055672Y0071898D03*
X0055372Y0071898D03*
X0054872Y0071998D03*
X0053972Y0072098D03*
X0050772Y0072798D03*
X0050472Y0072898D03*
X0046872Y0066298D03*
X0044972Y0066998D03*
X0051572Y0065098D03*
X0052172Y0064998D03*
X0053372Y0064798D03*
X0055472Y0064498D03*
X0055872Y0064498D03*
X0057172Y0064398D03*
X0057372Y0064398D03*
X0057572Y0064398D03*
X0057772Y0064398D03*
X0077372Y0083998D03*
X0077272Y0091798D03*
X0077072Y0091798D03*
X0076872Y0091798D03*
X0076672Y0091798D03*
X0076472Y0091798D03*
X0075872Y0091798D03*
X0075272Y0091798D03*
X0074672Y0091798D03*
X0074172Y0091798D03*
X0073872Y0091798D03*
X0073372Y0091798D03*
X0073072Y0091798D03*
X0077472Y0091798D03*
X0077672Y0091798D03*
X0078272Y0091798D03*
X0078872Y0091798D03*
X0079072Y0091798D03*
X0079272Y0091798D03*
X0079472Y0091798D03*
X0079672Y0091798D03*
X0079872Y0091798D03*
X0080072Y0091798D03*
X0081872Y0091798D03*
X0082272Y0091798D03*
X0082772Y0091798D03*
X0092872Y0103298D03*
X0093072Y0103298D03*
X0093272Y0103298D03*
X0094072Y0103298D03*
X0094372Y0103298D03*
X0094572Y0103298D03*
X0094772Y0103298D03*
X0094972Y0103298D03*
X0095172Y0103298D03*
X0095372Y0103298D03*
X0095572Y0103298D03*
X0096172Y0103298D03*
X0096372Y0103298D03*
X0096872Y0103298D03*
X0097072Y0103298D03*
X0097272Y0103298D03*
X0098072Y0103298D03*
X0098272Y0103298D03*
X0098472Y0103298D03*
X0099172Y0103298D03*
X0099372Y0103298D03*
X0099572Y0103298D03*
X0099772Y0103298D03*
X0099672Y0107298D03*
X0099872Y0107298D03*
X0098972Y0107298D03*
X0098672Y0107298D03*
X0097872Y0107298D03*
X0096372Y0107298D03*
X0096172Y0107298D03*
X0095572Y0107298D03*
X0095372Y0107298D03*
X0094772Y0107298D03*
X0094572Y0107298D03*
X0093872Y0107298D03*
X0092772Y0107298D03*
X0135572Y0117698D03*
X0136072Y0117698D03*
X0137672Y0117898D03*
X0137272Y0115998D03*
X0137572Y0114698D03*
X0136872Y0114698D03*
X0136672Y0113698D03*
X0137272Y0113698D03*
X0139372Y0116698D03*
X0155672Y0116398D03*
X0157372Y0117698D03*
X0157272Y0113598D03*
X0157872Y0122198D03*
X0156772Y0122298D03*
X0137972Y0122098D03*
X0161672Y0133698D03*
X0161972Y0133298D03*
X0161272Y0134198D03*
X0160772Y0134798D03*
X0160472Y0135098D03*
X0160272Y0135298D03*
X0159872Y0135698D03*
X0159272Y0136198D03*
X0158972Y0136498D03*
X0158472Y0136898D03*
X0158172Y0137098D03*
X0157272Y0137698D03*
X0156972Y0137898D03*
X0155572Y0138698D03*
X0153872Y0139498D03*
X0149272Y0140698D03*
X0149172Y0140598D03*
X0147672Y0140798D03*
X0147472Y0140698D03*
X0079072Y0140498D03*
X0066372Y0137498D03*
X0064872Y0137798D03*
X0064172Y0137898D03*
X0063372Y0137998D03*
X0062472Y0138098D03*
X0061472Y0138198D03*
X0056472Y0138098D03*
X0054872Y0137898D03*
X0054572Y0137898D03*
X0052572Y0137498D03*
X0045472Y0143098D03*
X0051672Y0144798D03*
X0053972Y0145198D03*
X0061472Y0145498D03*
X0061672Y0145498D03*
X0063272Y0145398D03*
X0066172Y0144998D03*
X0076172Y0133698D03*
X0049172Y0120898D03*
X0049072Y0120998D03*
X0048872Y0120998D03*
X0048272Y0120998D03*
X0047672Y0120998D03*
X0046172Y0120998D03*
X0045672Y0120998D03*
X0045072Y0120998D03*
X0044472Y0120998D03*
X0042972Y0120998D03*
X0042472Y0120998D03*
X0041872Y0120998D03*
X0040972Y0120998D03*
X0040372Y0120998D03*
X0039572Y0120998D03*
X0025672Y0107098D03*
X0025072Y0107098D03*
X0024572Y0107098D03*
X0023172Y0107098D03*
X0022972Y0107098D03*
X0021672Y0107098D03*
X0021472Y0107098D03*
X0020872Y0107098D03*
X0020372Y0107098D03*
X0020172Y0107098D03*
X0019172Y0107098D03*
X0018972Y0107098D03*
X0019272Y0103098D03*
X0019572Y0103098D03*
X0019872Y0103098D03*
X0020072Y0103098D03*
X0020372Y0103098D03*
X0020672Y0103098D03*
X0020872Y0103098D03*
X0021272Y0103098D03*
X0021672Y0103098D03*
X0021872Y0103098D03*
X0022072Y0103098D03*
X0022472Y0103098D03*
X0022672Y0103098D03*
X0022972Y0103098D03*
X0023272Y0103098D03*
X0023472Y0103098D03*
X0023672Y0103098D03*
X0023872Y0103098D03*
X0024072Y0103098D03*
X0024372Y0103098D03*
X0024672Y0103098D03*
X0024872Y0103098D03*
X0025172Y0103098D03*
X0025572Y0103098D03*
X0025772Y0103098D03*
X0026072Y0103098D03*
X0139272Y0100198D03*
X0155772Y0100198D03*
X0163372Y0096598D03*
X0163072Y0095498D03*
X0162872Y0094798D03*
X0162772Y0094498D03*
X0162572Y0093898D03*
X0162472Y0093598D03*
X0162372Y0093298D03*
X0162272Y0092998D03*
X0162172Y0092798D03*
X0162072Y0092498D03*
X0161972Y0092198D03*
X0161872Y0091998D03*
X0161672Y0091498D03*
X0161572Y0091298D03*
X0161372Y0090898D03*
X0161272Y0090598D03*
X0160972Y0090098D03*
X0160872Y0089898D03*
X0160772Y0089698D03*
X0160672Y0089498D03*
X0160472Y0089198D03*
X0160372Y0088998D03*
X0160172Y0088698D03*
X0160072Y0088498D03*
X0159872Y0088198D03*
X0159572Y0087798D03*
X0159372Y0087498D03*
X0159072Y0087098D03*
X0158672Y0086598D03*
X0158072Y0085898D03*
X0157872Y0085698D03*
X0156672Y0084498D03*
X0150472Y0081698D03*
X0149972Y0081598D03*
X0149172Y0081498D03*
X0148072Y0081398D03*
X0146172Y0081298D03*
X0145972Y0081498D03*
X0145872Y0081298D03*
X0145072Y0081598D03*
X0144472Y0081498D03*
X0143972Y0081798D03*
X0143072Y0081798D03*
X0147072Y0087698D03*
X0147372Y0087698D03*
X0147572Y0087698D03*
X0148172Y0088798D03*
X0145472Y0089098D03*
X0146872Y0091398D03*
X0147072Y0091398D03*
X0145672Y0094298D03*
X0145172Y0094298D03*
X0144772Y0094298D03*
X0144472Y0094298D03*
X0143972Y0094298D03*
X0150672Y0094198D03*
X0150872Y0094198D03*
X0151172Y0094198D03*
X0152572Y0094198D03*
X0152872Y0094198D03*
D12*
X0156922Y0103498D03*
X0157022Y0103798D03*
X0138022Y0103498D03*
X0138022Y0103398D03*
X0147522Y0081298D03*
X0138322Y0130598D03*
X0138322Y0130698D03*
X0156622Y0130898D03*
X0156722Y0130798D03*
X0056022Y0145298D03*
D13*
X0138522Y0131198D03*
X0156422Y0131498D03*
X0156522Y0131298D03*
X0138222Y0121998D03*
X0137122Y0114898D03*
X0136922Y0113598D03*
X0157922Y0114998D03*
X0156722Y0102698D03*
X0156722Y0102598D03*
X0138222Y0102698D03*
X0147422Y0087798D03*
X0146122Y0081398D03*
D14*
X0147572Y0081398D03*
X0151372Y0081798D03*
X0142772Y0081998D03*
X0142472Y0082098D03*
X0141872Y0082298D03*
X0150172Y0094198D03*
X0138972Y0100698D03*
X0138872Y0116198D03*
X0135072Y0116298D03*
X0156072Y0116198D03*
X0159872Y0116198D03*
X0155772Y0132798D03*
X0139272Y0132698D03*
X0144872Y0140598D03*
X0077872Y0083998D03*
X0062272Y0064498D03*
D15*
X0148922Y0081398D03*
X0156422Y0101498D03*
X0156422Y0101598D03*
X0138622Y0101598D03*
X0138622Y0101498D03*
X0137122Y0114798D03*
X0159422Y0115998D03*
X0156122Y0132198D03*
X0138922Y0131998D03*
D16*
X0155972Y0132498D03*
X0148572Y0140698D03*
X0156272Y0101098D03*
X0156272Y0100998D03*
X0138772Y0101098D03*
X0138772Y0101198D03*
X0148172Y0091398D03*
X0149972Y0089098D03*
X0145172Y0081498D03*
D17*
X0144422Y0081598D03*
X0144022Y0081698D03*
X0149822Y0081498D03*
X0156222Y0100898D03*
X0138822Y0100998D03*
X0159622Y0116098D03*
X0155922Y0132598D03*
X0139122Y0132498D03*
D18*
X0139122Y0132598D03*
X0138922Y0100798D03*
X0156022Y0100598D03*
X0156122Y0100698D03*
X0144922Y0089098D03*
X0143122Y0081898D03*
X0150522Y0081598D03*
X0082322Y0083998D03*
X0081322Y0083998D03*
X0078722Y0083998D03*
D19*
X0139022Y0100598D03*
X0155922Y0100398D03*
X0156022Y0100498D03*
X0157922Y0114698D03*
X0156222Y0125098D03*
X0155722Y0132898D03*
X0139222Y0132798D03*
X0143622Y0140398D03*
X0144222Y0140498D03*
X0141322Y0082498D03*
X0141622Y0082398D03*
X0142122Y0082198D03*
X0143522Y0081798D03*
X0151022Y0081698D03*
D20*
X0151772Y0081898D03*
X0152072Y0081998D03*
X0152472Y0082098D03*
X0153272Y0082398D03*
X0141072Y0082598D03*
X0140872Y0082698D03*
X0140672Y0082798D03*
X0140472Y0082898D03*
X0140272Y0082998D03*
X0140072Y0083098D03*
X0139572Y0083398D03*
X0139272Y0083598D03*
X0138972Y0083798D03*
X0138772Y0083898D03*
X0139072Y0100498D03*
X0155872Y0100298D03*
X0155872Y0116298D03*
X0160072Y0116298D03*
X0138972Y0116298D03*
X0129072Y0116098D03*
X0156872Y0125098D03*
X0139372Y0132898D03*
X0142372Y0140098D03*
X0147072Y0140698D03*
X0150772Y0140498D03*
X0080572Y0083998D03*
X0079972Y0083998D03*
D21*
X0079422Y0083998D03*
X0131522Y0097098D03*
X0131522Y0097198D03*
X0131422Y0097498D03*
X0131322Y0097898D03*
X0131322Y0097998D03*
X0131122Y0098698D03*
X0131122Y0098798D03*
X0131022Y0099198D03*
X0131022Y0099298D03*
X0130922Y0099598D03*
X0130922Y0099798D03*
X0130822Y0099998D03*
X0130822Y0100198D03*
X0130722Y0100598D03*
X0130722Y0100698D03*
X0130622Y0100998D03*
X0130622Y0101198D03*
X0130622Y0101298D03*
X0130522Y0101698D03*
X0130522Y0101798D03*
X0130522Y0101898D03*
X0130422Y0102198D03*
X0130422Y0102298D03*
X0130322Y0102798D03*
X0130322Y0102898D03*
X0130322Y0102998D03*
X0130322Y0103098D03*
X0130222Y0103398D03*
X0130222Y0103598D03*
X0130122Y0103998D03*
X0130122Y0104198D03*
X0130122Y0104398D03*
X0130022Y0104698D03*
X0130022Y0104898D03*
X0129922Y0105398D03*
X0129922Y0105598D03*
X0129922Y0105698D03*
X0129922Y0105798D03*
X0129922Y0105898D03*
X0129822Y0106198D03*
X0129822Y0106398D03*
X0129822Y0106498D03*
X0129722Y0106998D03*
X0129722Y0107098D03*
X0129722Y0107198D03*
X0129722Y0107298D03*
X0129722Y0107498D03*
X0129622Y0107898D03*
X0129622Y0108098D03*
X0129622Y0108198D03*
X0129622Y0108298D03*
X0129622Y0108498D03*
X0129522Y0108798D03*
X0129522Y0108998D03*
X0129522Y0109098D03*
X0129522Y0109198D03*
X0129522Y0109298D03*
X0129522Y0109398D03*
X0129522Y0109598D03*
X0129422Y0109998D03*
X0129422Y0110198D03*
X0129422Y0110298D03*
X0129422Y0110598D03*
X0129322Y0110798D03*
X0129322Y0111098D03*
X0129322Y0111398D03*
X0129322Y0111498D03*
X0129322Y0111598D03*
X0129322Y0111798D03*
X0129322Y0111998D03*
X0129222Y0112398D03*
X0129222Y0112598D03*
X0129222Y0112798D03*
X0129222Y0112898D03*
X0129222Y0113098D03*
X0129222Y0113298D03*
X0129222Y0113698D03*
X0129122Y0113798D03*
X0129122Y0114098D03*
X0129122Y0114198D03*
X0129122Y0114398D03*
X0129122Y0114498D03*
X0129122Y0114698D03*
X0129122Y0114798D03*
X0129122Y0114898D03*
X0129122Y0115198D03*
X0129122Y0115298D03*
X0129122Y0115798D03*
X0129022Y0116798D03*
X0129022Y0117398D03*
X0129022Y0117598D03*
X0129022Y0117998D03*
X0129022Y0118598D03*
X0129022Y0118998D03*
X0129122Y0119698D03*
X0129122Y0119898D03*
X0129122Y0120198D03*
X0129122Y0120398D03*
X0129122Y0120598D03*
X0129122Y0120798D03*
X0129122Y0120998D03*
X0129122Y0121198D03*
X0129222Y0121798D03*
X0129222Y0121998D03*
X0129222Y0122098D03*
X0129222Y0122298D03*
X0129322Y0122798D03*
X0129322Y0122998D03*
X0129322Y0123098D03*
X0129322Y0123298D03*
X0129422Y0123698D03*
X0129422Y0123798D03*
X0129422Y0123998D03*
X0129522Y0124398D03*
X0129522Y0124498D03*
X0129622Y0124998D03*
X0129622Y0125098D03*
X0129722Y0125598D03*
X0129822Y0125998D03*
X0129922Y0126398D03*
X0130022Y0126798D03*
X0130122Y0127198D03*
X0130222Y0127498D03*
X0130422Y0128198D03*
X0130522Y0128498D03*
X0130822Y0129298D03*
X0131022Y0129798D03*
X0131122Y0129998D03*
X0131722Y0131198D03*
X0131922Y0131598D03*
X0132522Y0132598D03*
X0132722Y0132898D03*
X0134222Y0134798D03*
X0135722Y0136298D03*
X0138222Y0138198D03*
X0139222Y0138798D03*
X0139622Y0138998D03*
X0140022Y0139198D03*
X0140222Y0139298D03*
X0140722Y0139498D03*
X0141422Y0139798D03*
X0141722Y0139898D03*
X0142022Y0139998D03*
X0142722Y0140198D03*
X0143122Y0140298D03*
X0150222Y0140598D03*
X0155622Y0132998D03*
X0165922Y0118898D03*
X0165922Y0115198D03*
X0165922Y0114898D03*
X0165922Y0114598D03*
X0165922Y0113998D03*
X0165822Y0112798D03*
X0165822Y0112698D03*
X0165722Y0111498D03*
X0165222Y0106898D03*
X0139122Y0100398D03*
X0131622Y0096798D03*
X0131722Y0096398D03*
X0131822Y0096098D03*
X0131922Y0095698D03*
X0132022Y0095398D03*
X0132122Y0095098D03*
X0132222Y0094798D03*
X0132322Y0094498D03*
X0132322Y0094398D03*
X0132422Y0094198D03*
X0132522Y0093898D03*
X0132622Y0093598D03*
X0132722Y0093298D03*
X0132822Y0093098D03*
X0132922Y0092798D03*
X0133022Y0092598D03*
X0133122Y0092298D03*
X0133222Y0092098D03*
X0133422Y0091598D03*
X0133522Y0091398D03*
X0133622Y0091198D03*
X0133922Y0090498D03*
X0134122Y0090098D03*
X0134322Y0089798D03*
X0134522Y0089398D03*
X0134622Y0089198D03*
X0134922Y0088698D03*
X0135022Y0088498D03*
X0135222Y0088198D03*
X0135522Y0087698D03*
X0135722Y0087398D03*
X0135922Y0087098D03*
X0136222Y0086698D03*
X0136522Y0086298D03*
X0136822Y0085898D03*
X0137122Y0085498D03*
X0137422Y0085198D03*
X0137722Y0084798D03*
X0137922Y0084698D03*
X0138222Y0084398D03*
X0138322Y0084298D03*
X0138422Y0084198D03*
X0138722Y0083998D03*
X0139122Y0083698D03*
X0139422Y0083498D03*
X0139722Y0083298D03*
X0139922Y0083198D03*
X0152722Y0082198D03*
X0153022Y0082298D03*
X0153722Y0082598D03*
X0153922Y0082698D03*
X0099322Y0107298D03*
X0098322Y0107298D03*
X0097522Y0107298D03*
X0093522Y0107298D03*
X0137222Y0114698D03*
X0139122Y0116398D03*
X0024222Y0107098D03*
D22*
X0023472Y0107098D03*
X0022672Y0107098D03*
X0021972Y0107098D03*
X0021172Y0107098D03*
X0019872Y0107098D03*
X0019472Y0107098D03*
X0025372Y0107098D03*
X0025972Y0107098D03*
X0082972Y0083998D03*
X0131372Y0097598D03*
X0131372Y0097698D03*
X0131372Y0097798D03*
X0131272Y0098098D03*
X0131272Y0098198D03*
X0131272Y0098298D03*
X0131172Y0098398D03*
X0131172Y0098498D03*
X0131172Y0098598D03*
X0131072Y0098898D03*
X0131072Y0098998D03*
X0131072Y0099098D03*
X0130972Y0099398D03*
X0130972Y0099498D03*
X0130872Y0099698D03*
X0130872Y0099898D03*
X0130872Y0100098D03*
X0130772Y0100298D03*
X0130772Y0100398D03*
X0130772Y0100498D03*
X0130672Y0100798D03*
X0130672Y0100898D03*
X0130672Y0101098D03*
X0130572Y0101398D03*
X0130572Y0101498D03*
X0130572Y0101598D03*
X0130472Y0101998D03*
X0130472Y0102098D03*
X0130372Y0102398D03*
X0130372Y0102498D03*
X0130372Y0102598D03*
X0130372Y0102698D03*
X0130272Y0103198D03*
X0130272Y0103298D03*
X0130272Y0103498D03*
X0130172Y0103698D03*
X0130172Y0103798D03*
X0130172Y0103898D03*
X0130172Y0104098D03*
X0130072Y0104298D03*
X0130072Y0104498D03*
X0130072Y0104598D03*
X0130072Y0104798D03*
X0129972Y0104998D03*
X0129972Y0105098D03*
X0129972Y0105198D03*
X0129972Y0105298D03*
X0129972Y0105498D03*
X0129872Y0105998D03*
X0129872Y0106098D03*
X0129872Y0106298D03*
X0129772Y0106598D03*
X0129772Y0106698D03*
X0129772Y0106798D03*
X0129772Y0106898D03*
X0129672Y0107398D03*
X0129672Y0107598D03*
X0129672Y0107698D03*
X0129672Y0107798D03*
X0129672Y0107998D03*
X0129572Y0108398D03*
X0129572Y0108598D03*
X0129572Y0108698D03*
X0129572Y0108898D03*
X0129472Y0109498D03*
X0129472Y0109698D03*
X0129472Y0109798D03*
X0129472Y0109898D03*
X0129472Y0110098D03*
X0129372Y0110398D03*
X0129372Y0110498D03*
X0129372Y0110698D03*
X0129372Y0110898D03*
X0129372Y0110998D03*
X0129372Y0111198D03*
X0129372Y0111298D03*
X0129272Y0111698D03*
X0129272Y0111898D03*
X0129272Y0112098D03*
X0129272Y0112198D03*
X0129272Y0112298D03*
X0129272Y0112498D03*
X0129272Y0112698D03*
X0129172Y0112998D03*
X0129172Y0113198D03*
X0129172Y0113398D03*
X0129172Y0113498D03*
X0129172Y0113598D03*
X0129172Y0113898D03*
X0129172Y0113998D03*
X0129172Y0114298D03*
X0129172Y0114598D03*
X0129072Y0114998D03*
X0129072Y0115098D03*
X0129072Y0115398D03*
X0129072Y0115498D03*
X0129072Y0115598D03*
X0129072Y0115698D03*
X0129072Y0115898D03*
X0129072Y0115998D03*
X0129072Y0116198D03*
X0129072Y0116298D03*
X0129072Y0116398D03*
X0129072Y0116498D03*
X0129072Y0116598D03*
X0129072Y0116698D03*
X0129072Y0116898D03*
X0129072Y0116998D03*
X0129072Y0117098D03*
X0129072Y0117198D03*
X0129072Y0117298D03*
X0129072Y0117498D03*
X0129072Y0117698D03*
X0129072Y0117798D03*
X0129072Y0117898D03*
X0129072Y0118098D03*
X0129072Y0118198D03*
X0129072Y0118298D03*
X0129072Y0118398D03*
X0129072Y0118498D03*
X0129072Y0118698D03*
X0129072Y0118798D03*
X0129072Y0118898D03*
X0129072Y0119098D03*
X0129072Y0119198D03*
X0129072Y0119298D03*
X0129072Y0119398D03*
X0129072Y0119498D03*
X0129072Y0119598D03*
X0129072Y0119798D03*
X0129072Y0119998D03*
X0129072Y0120098D03*
X0129072Y0120298D03*
X0129072Y0120498D03*
X0129172Y0120698D03*
X0129172Y0120898D03*
X0129172Y0121098D03*
X0129172Y0121298D03*
X0129172Y0121398D03*
X0129172Y0121498D03*
X0129172Y0121598D03*
X0129172Y0121698D03*
X0129172Y0121898D03*
X0129272Y0122398D03*
X0129272Y0122498D03*
X0129272Y0122598D03*
X0129272Y0122698D03*
X0129272Y0122898D03*
X0129372Y0123198D03*
X0129372Y0123398D03*
X0129372Y0123498D03*
X0129372Y0123598D03*
X0129472Y0123898D03*
X0129472Y0124098D03*
X0129472Y0124198D03*
X0129472Y0124298D03*
X0129572Y0124598D03*
X0129572Y0124698D03*
X0129572Y0124798D03*
X0129572Y0124898D03*
X0129672Y0125198D03*
X0129672Y0125298D03*
X0129672Y0125398D03*
X0129672Y0125498D03*
X0129772Y0125698D03*
X0129772Y0125798D03*
X0129772Y0125898D03*
X0129872Y0126098D03*
X0129872Y0126198D03*
X0129872Y0126298D03*
X0129972Y0126498D03*
X0129972Y0126598D03*
X0129972Y0126698D03*
X0130072Y0126898D03*
X0130072Y0126998D03*
X0130072Y0127098D03*
X0130172Y0127298D03*
X0130172Y0127398D03*
X0130272Y0127598D03*
X0130272Y0127698D03*
X0130272Y0127798D03*
X0130372Y0127898D03*
X0130372Y0127998D03*
X0130372Y0128098D03*
X0130472Y0128298D03*
X0130472Y0128398D03*
X0130572Y0128598D03*
X0130572Y0128698D03*
X0130672Y0128798D03*
X0130672Y0128898D03*
X0130672Y0128998D03*
X0130772Y0129098D03*
X0130772Y0129198D03*
X0130872Y0129398D03*
X0130872Y0129498D03*
X0130972Y0129598D03*
X0130972Y0129698D03*
X0131072Y0129898D03*
X0131172Y0130098D03*
X0131172Y0130198D03*
X0131272Y0130298D03*
X0131272Y0130398D03*
X0131372Y0130498D03*
X0131372Y0130598D03*
X0131472Y0130698D03*
X0131472Y0130798D03*
X0131572Y0130898D03*
X0131572Y0130998D03*
X0131672Y0131098D03*
X0131772Y0131298D03*
X0131772Y0131398D03*
X0131872Y0131498D03*
X0131972Y0131698D03*
X0132072Y0131798D03*
X0132072Y0131898D03*
X0132172Y0131998D03*
X0132172Y0132098D03*
X0132272Y0132198D03*
X0132372Y0132298D03*
X0132372Y0132398D03*
X0132472Y0132498D03*
X0132572Y0132698D03*
X0132672Y0132798D03*
X0132772Y0132998D03*
X0132872Y0133098D03*
X0132972Y0133198D03*
X0132972Y0133298D03*
X0133072Y0133398D03*
X0133172Y0133498D03*
X0133272Y0133598D03*
X0133272Y0133698D03*
X0133372Y0133798D03*
X0133472Y0133898D03*
X0133572Y0133998D03*
X0133572Y0134098D03*
X0133672Y0134198D03*
X0133772Y0134298D03*
X0133872Y0134398D03*
X0133972Y0134498D03*
X0134072Y0134598D03*
X0134072Y0134698D03*
X0134372Y0134998D03*
X0134472Y0135098D03*
X0134572Y0135198D03*
X0134672Y0135298D03*
X0134772Y0135398D03*
X0134872Y0135498D03*
X0134972Y0135598D03*
X0135072Y0135698D03*
X0135172Y0135798D03*
X0135272Y0135898D03*
X0135372Y0135998D03*
X0135472Y0136098D03*
X0135572Y0136198D03*
X0135972Y0136498D03*
X0136072Y0136598D03*
X0136172Y0136698D03*
X0136272Y0136798D03*
X0136372Y0136898D03*
X0136572Y0136998D03*
X0136672Y0137098D03*
X0136772Y0137198D03*
X0136872Y0137298D03*
X0137072Y0137398D03*
X0137172Y0137498D03*
X0137272Y0137598D03*
X0137472Y0137698D03*
X0137572Y0137798D03*
X0137772Y0137898D03*
X0137872Y0137998D03*
X0138072Y0138098D03*
X0138372Y0138298D03*
X0138572Y0138398D03*
X0138672Y0138498D03*
X0138872Y0138598D03*
X0139372Y0138898D03*
X0139772Y0139098D03*
X0140872Y0139598D03*
X0141172Y0139698D03*
X0151372Y0140398D03*
X0151772Y0140298D03*
X0152572Y0139998D03*
X0153372Y0139698D03*
X0154772Y0139098D03*
X0139372Y0132998D03*
X0163372Y0130798D03*
X0163672Y0130098D03*
X0163972Y0129398D03*
X0164172Y0128898D03*
X0164272Y0128598D03*
X0164472Y0127998D03*
X0164572Y0127698D03*
X0164672Y0127298D03*
X0164772Y0127098D03*
X0164772Y0126998D03*
X0164872Y0126598D03*
X0164972Y0126398D03*
X0164972Y0126298D03*
X0164972Y0126198D03*
X0165072Y0125998D03*
X0165072Y0125798D03*
X0165172Y0125498D03*
X0165172Y0125398D03*
X0165272Y0125098D03*
X0165272Y0124998D03*
X0165272Y0124898D03*
X0165372Y0124598D03*
X0165372Y0124498D03*
X0165372Y0124398D03*
X0165372Y0124298D03*
X0165472Y0123998D03*
X0165472Y0123898D03*
X0165472Y0123798D03*
X0165472Y0123698D03*
X0165572Y0123498D03*
X0165572Y0123398D03*
X0165572Y0123298D03*
X0165572Y0123198D03*
X0165572Y0123098D03*
X0165572Y0122898D03*
X0165672Y0122698D03*
X0165672Y0122598D03*
X0165672Y0122498D03*
X0165672Y0122298D03*
X0165672Y0122098D03*
X0165772Y0121898D03*
X0165772Y0121798D03*
X0165772Y0121698D03*
X0165772Y0121598D03*
X0165772Y0121498D03*
X0165772Y0121398D03*
X0165772Y0121298D03*
X0165772Y0121198D03*
X0165772Y0121098D03*
X0165772Y0120998D03*
X0165872Y0120798D03*
X0165872Y0120598D03*
X0165872Y0120498D03*
X0165872Y0120398D03*
X0165872Y0120298D03*
X0165872Y0120198D03*
X0165872Y0120098D03*
X0165872Y0119998D03*
X0165872Y0119898D03*
X0165872Y0119798D03*
X0165872Y0119598D03*
X0165872Y0119398D03*
X0165972Y0119298D03*
X0165972Y0119198D03*
X0165972Y0118798D03*
X0165972Y0118698D03*
X0165972Y0118598D03*
X0165972Y0118498D03*
X0165972Y0118398D03*
X0165972Y0118298D03*
X0165972Y0118198D03*
X0165972Y0118098D03*
X0165972Y0117998D03*
X0165972Y0117898D03*
X0165972Y0117798D03*
X0165972Y0117698D03*
X0165972Y0117598D03*
X0165972Y0117498D03*
X0165972Y0117398D03*
X0165972Y0117298D03*
X0165972Y0117198D03*
X0165972Y0117098D03*
X0165972Y0116998D03*
X0165972Y0116898D03*
X0165972Y0116798D03*
X0165972Y0116698D03*
X0165972Y0116598D03*
X0165972Y0116498D03*
X0165972Y0116398D03*
X0165972Y0116298D03*
X0165972Y0116198D03*
X0165972Y0116098D03*
X0165972Y0115998D03*
X0165972Y0115898D03*
X0165972Y0115798D03*
X0165972Y0115698D03*
X0165972Y0115598D03*
X0165972Y0115498D03*
X0165972Y0115398D03*
X0165972Y0115298D03*
X0165972Y0115098D03*
X0165972Y0114998D03*
X0165972Y0114798D03*
X0165972Y0114498D03*
X0165872Y0114398D03*
X0165872Y0114298D03*
X0165872Y0114098D03*
X0165872Y0113898D03*
X0165872Y0113798D03*
X0165872Y0113698D03*
X0165872Y0113598D03*
X0165872Y0113498D03*
X0165872Y0113398D03*
X0165872Y0113298D03*
X0165872Y0113198D03*
X0165872Y0113098D03*
X0165872Y0112998D03*
X0165772Y0112598D03*
X0165772Y0112398D03*
X0165772Y0112298D03*
X0165772Y0112198D03*
X0165772Y0112098D03*
X0165772Y0111998D03*
X0165772Y0111898D03*
X0165772Y0111798D03*
X0165772Y0111698D03*
X0165772Y0111398D03*
X0165672Y0111298D03*
X0165672Y0111198D03*
X0165672Y0111098D03*
X0165672Y0110998D03*
X0165672Y0110898D03*
X0165672Y0110798D03*
X0165672Y0110698D03*
X0165672Y0110598D03*
X0165672Y0110398D03*
X0165572Y0110298D03*
X0165572Y0110198D03*
X0165572Y0110098D03*
X0165572Y0109998D03*
X0165572Y0109898D03*
X0165572Y0109798D03*
X0165572Y0109698D03*
X0165572Y0109598D03*
X0165572Y0109398D03*
X0165472Y0109198D03*
X0165472Y0109098D03*
X0165472Y0108998D03*
X0165472Y0108898D03*
X0165472Y0108798D03*
X0165472Y0108698D03*
X0165472Y0108598D03*
X0165372Y0108398D03*
X0165372Y0108298D03*
X0165372Y0108198D03*
X0165372Y0108098D03*
X0165372Y0107998D03*
X0165372Y0107898D03*
X0165372Y0107798D03*
X0165372Y0107698D03*
X0165272Y0107498D03*
X0165272Y0107398D03*
X0165272Y0107298D03*
X0165272Y0107198D03*
X0165272Y0107098D03*
X0165172Y0106698D03*
X0165172Y0106598D03*
X0165172Y0106498D03*
X0165172Y0106398D03*
X0165172Y0106198D03*
X0165072Y0106098D03*
X0165072Y0105898D03*
X0165072Y0105798D03*
X0165072Y0105698D03*
X0165072Y0105598D03*
X0164972Y0105198D03*
X0164972Y0105098D03*
X0164972Y0104998D03*
X0164972Y0104798D03*
X0164872Y0104598D03*
X0164872Y0104398D03*
X0164872Y0104298D03*
X0164872Y0104198D03*
X0164772Y0103898D03*
X0164772Y0103798D03*
X0164772Y0103598D03*
X0164672Y0103298D03*
X0164672Y0103098D03*
X0164672Y0102998D03*
X0164572Y0102598D03*
X0164572Y0102398D03*
X0164472Y0101998D03*
X0164472Y0101898D03*
X0164472Y0101698D03*
X0164372Y0101398D03*
X0164372Y0101298D03*
X0164272Y0100798D03*
X0164272Y0100698D03*
X0164172Y0100298D03*
X0164172Y0100098D03*
X0164072Y0099698D03*
X0163872Y0098698D03*
X0163872Y0098598D03*
X0163672Y0097798D03*
X0151772Y0094198D03*
X0147372Y0091398D03*
X0135472Y0087798D03*
X0135372Y0087898D03*
X0135372Y0087998D03*
X0135272Y0088098D03*
X0135172Y0088298D03*
X0135072Y0088398D03*
X0134972Y0088598D03*
X0134872Y0088798D03*
X0134772Y0088898D03*
X0134772Y0088998D03*
X0134672Y0089098D03*
X0134572Y0089298D03*
X0134472Y0089498D03*
X0134372Y0089598D03*
X0134372Y0089698D03*
X0134272Y0089898D03*
X0134172Y0089998D03*
X0134072Y0090198D03*
X0134072Y0090298D03*
X0133972Y0090398D03*
X0133872Y0090598D03*
X0133872Y0090698D03*
X0133772Y0090798D03*
X0133772Y0090898D03*
X0133672Y0090998D03*
X0133672Y0091098D03*
X0133572Y0091298D03*
X0133472Y0091498D03*
X0133372Y0091698D03*
X0133372Y0091798D03*
X0133272Y0091898D03*
X0133272Y0091998D03*
X0133172Y0092198D03*
X0133072Y0092398D03*
X0133072Y0092498D03*
X0132972Y0092698D03*
X0132872Y0092898D03*
X0132872Y0092998D03*
X0132772Y0093198D03*
X0132672Y0093398D03*
X0132672Y0093498D03*
X0132572Y0093698D03*
X0132572Y0093798D03*
X0132472Y0093998D03*
X0132472Y0094098D03*
X0132372Y0094298D03*
X0132272Y0094598D03*
X0132272Y0094698D03*
X0132172Y0094898D03*
X0132172Y0094998D03*
X0132072Y0095198D03*
X0132072Y0095298D03*
X0131972Y0095498D03*
X0131972Y0095598D03*
X0131872Y0095798D03*
X0131872Y0095898D03*
X0131872Y0095998D03*
X0131772Y0096198D03*
X0131772Y0096298D03*
X0131672Y0096498D03*
X0131672Y0096598D03*
X0131672Y0096698D03*
X0131572Y0096898D03*
X0131572Y0096998D03*
X0131472Y0097298D03*
X0131472Y0097398D03*
X0139172Y0100298D03*
X0135572Y0087598D03*
X0135672Y0087498D03*
X0135772Y0087298D03*
X0135872Y0087198D03*
X0135972Y0086998D03*
X0136072Y0086898D03*
X0136172Y0086798D03*
X0136272Y0086598D03*
X0136372Y0086498D03*
X0136472Y0086398D03*
X0136572Y0086198D03*
X0136672Y0086098D03*
X0136772Y0085998D03*
X0136872Y0085798D03*
X0136972Y0085698D03*
X0137072Y0085598D03*
X0137272Y0085398D03*
X0137272Y0085298D03*
X0137472Y0085098D03*
X0137572Y0084998D03*
X0137672Y0084898D03*
X0137972Y0084598D03*
X0138072Y0084498D03*
X0138572Y0084098D03*
X0153472Y0082498D03*
X0154172Y0082798D03*
X0154372Y0082898D03*
X0154572Y0082998D03*
X0154672Y0083098D03*
X0154872Y0083198D03*
X0155072Y0083298D03*
X0155372Y0083498D03*
X0155672Y0083698D03*
X0156172Y0084098D03*
X0156572Y0084398D03*
X0097072Y0107298D03*
X0095872Y0107298D03*
X0095072Y0107298D03*
X0094272Y0107298D03*
X0139172Y0116498D03*
D23*
X0139322Y0116598D03*
X0135822Y0117698D03*
X0134722Y0116398D03*
X0138222Y0122098D03*
X0138622Y0122098D03*
X0129222Y0122198D03*
X0139422Y0133098D03*
X0134322Y0134898D03*
X0135822Y0136398D03*
X0139022Y0138698D03*
X0140422Y0139398D03*
X0145422Y0140598D03*
X0147822Y0140698D03*
X0149522Y0140598D03*
X0149822Y0140598D03*
X0152022Y0140198D03*
X0152322Y0140098D03*
X0152922Y0139898D03*
X0153122Y0139798D03*
X0153622Y0139598D03*
X0154122Y0139398D03*
X0154322Y0139298D03*
X0154522Y0139198D03*
X0154922Y0138998D03*
X0155122Y0138898D03*
X0155422Y0138798D03*
X0155722Y0138598D03*
X0155922Y0138498D03*
X0156122Y0138398D03*
X0156322Y0138298D03*
X0156422Y0138198D03*
X0156622Y0138098D03*
X0156822Y0137998D03*
X0157122Y0137798D03*
X0157422Y0137598D03*
X0157622Y0137498D03*
X0157722Y0137398D03*
X0157922Y0137298D03*
X0158022Y0137198D03*
X0158322Y0136998D03*
X0158522Y0136798D03*
X0158722Y0136698D03*
X0158822Y0136598D03*
X0159022Y0136398D03*
X0159222Y0136298D03*
X0159422Y0136098D03*
X0159522Y0135998D03*
X0159622Y0135898D03*
X0159722Y0135798D03*
X0159922Y0135598D03*
X0160122Y0135498D03*
X0160222Y0135398D03*
X0160422Y0135198D03*
X0160622Y0134998D03*
X0160622Y0134898D03*
X0160822Y0134698D03*
X0160922Y0134598D03*
X0161022Y0134498D03*
X0161122Y0134398D03*
X0161222Y0134298D03*
X0161322Y0134098D03*
X0161422Y0133998D03*
X0161522Y0133898D03*
X0161622Y0133798D03*
X0161722Y0133598D03*
X0161822Y0133498D03*
X0161922Y0133398D03*
X0162022Y0133198D03*
X0162122Y0133098D03*
X0162122Y0132998D03*
X0162222Y0132898D03*
X0162322Y0132798D03*
X0162322Y0132698D03*
X0162422Y0132598D03*
X0162422Y0132498D03*
X0162522Y0132398D03*
X0162622Y0132298D03*
X0162622Y0132198D03*
X0162722Y0132098D03*
X0162722Y0131998D03*
X0162822Y0131898D03*
X0162822Y0131798D03*
X0162922Y0131698D03*
X0163022Y0131598D03*
X0163022Y0131498D03*
X0163022Y0131398D03*
X0163122Y0131298D03*
X0163122Y0131198D03*
X0163222Y0131098D03*
X0163222Y0130998D03*
X0163322Y0130898D03*
X0163422Y0130698D03*
X0163422Y0130598D03*
X0163522Y0130498D03*
X0163522Y0130398D03*
X0163622Y0130298D03*
X0163622Y0130198D03*
X0163722Y0129998D03*
X0163822Y0129898D03*
X0163822Y0129798D03*
X0163822Y0129698D03*
X0163922Y0129598D03*
X0163922Y0129498D03*
X0164022Y0129298D03*
X0164022Y0129198D03*
X0164122Y0129098D03*
X0164122Y0128998D03*
X0164222Y0128798D03*
X0164222Y0128698D03*
X0164322Y0128498D03*
X0164322Y0128398D03*
X0164422Y0128298D03*
X0164422Y0128198D03*
X0164422Y0128098D03*
X0164522Y0127898D03*
X0164522Y0127798D03*
X0164622Y0127598D03*
X0164622Y0127498D03*
X0164722Y0127398D03*
X0164722Y0127198D03*
X0164822Y0126898D03*
X0164822Y0126798D03*
X0164822Y0126698D03*
X0164922Y0126498D03*
X0165022Y0126098D03*
X0165022Y0125898D03*
X0165122Y0125698D03*
X0165122Y0125598D03*
X0165222Y0125298D03*
X0165222Y0125198D03*
X0165322Y0124798D03*
X0165322Y0124698D03*
X0165422Y0124198D03*
X0165422Y0124098D03*
X0165522Y0123598D03*
X0165622Y0122998D03*
X0165622Y0122798D03*
X0165722Y0122398D03*
X0165722Y0122198D03*
X0165722Y0121998D03*
X0165822Y0120898D03*
X0165822Y0120698D03*
X0165922Y0119698D03*
X0165922Y0119498D03*
X0165922Y0119098D03*
X0165922Y0118998D03*
X0159022Y0117698D03*
X0160322Y0116398D03*
X0165922Y0114698D03*
X0165922Y0114198D03*
X0165822Y0112898D03*
X0165822Y0112498D03*
X0165722Y0111598D03*
X0165622Y0110498D03*
X0165522Y0109498D03*
X0165522Y0109298D03*
X0165422Y0108498D03*
X0165322Y0107598D03*
X0165222Y0106998D03*
X0165222Y0106798D03*
X0165122Y0106298D03*
X0165122Y0105998D03*
X0165022Y0105498D03*
X0165022Y0105398D03*
X0165022Y0105298D03*
X0164922Y0104898D03*
X0164922Y0104698D03*
X0164922Y0104498D03*
X0164822Y0104098D03*
X0164822Y0103998D03*
X0164722Y0103698D03*
X0164722Y0103498D03*
X0164722Y0103398D03*
X0164722Y0103198D03*
X0164622Y0102898D03*
X0164622Y0102798D03*
X0164622Y0102698D03*
X0164622Y0102498D03*
X0164522Y0102298D03*
X0164522Y0102198D03*
X0164522Y0102098D03*
X0164422Y0101798D03*
X0164422Y0101598D03*
X0164422Y0101498D03*
X0164322Y0101198D03*
X0164322Y0101098D03*
X0164322Y0100998D03*
X0164322Y0100898D03*
X0164222Y0100598D03*
X0164222Y0100498D03*
X0164222Y0100398D03*
X0164122Y0100198D03*
X0164122Y0099998D03*
X0164122Y0099898D03*
X0164122Y0099798D03*
X0164022Y0099598D03*
X0164022Y0099498D03*
X0164022Y0099398D03*
X0164022Y0099298D03*
X0164022Y0099198D03*
X0163922Y0099098D03*
X0163922Y0098998D03*
X0163922Y0098898D03*
X0163922Y0098798D03*
X0163822Y0098498D03*
X0163822Y0098398D03*
X0163822Y0098298D03*
X0163722Y0098198D03*
X0163722Y0098098D03*
X0163722Y0097998D03*
X0163722Y0097898D03*
X0163622Y0097698D03*
X0163622Y0097598D03*
X0163622Y0097498D03*
X0163622Y0097398D03*
X0163522Y0097298D03*
X0163522Y0097198D03*
X0163522Y0097098D03*
X0163522Y0096998D03*
X0163422Y0096898D03*
X0163422Y0096798D03*
X0163422Y0096698D03*
X0163322Y0096498D03*
X0163322Y0096398D03*
X0163322Y0096298D03*
X0163322Y0096198D03*
X0163222Y0096098D03*
X0163222Y0095998D03*
X0163222Y0095898D03*
X0163122Y0095798D03*
X0163122Y0095698D03*
X0163122Y0095598D03*
X0163022Y0095398D03*
X0163022Y0095298D03*
X0163022Y0095198D03*
X0162922Y0095098D03*
X0162922Y0094998D03*
X0162922Y0094898D03*
X0162822Y0094698D03*
X0162822Y0094598D03*
X0162722Y0094398D03*
X0162722Y0094298D03*
X0162722Y0094198D03*
X0162622Y0094098D03*
X0162622Y0093998D03*
X0162522Y0093798D03*
X0162522Y0093698D03*
X0162422Y0093498D03*
X0162422Y0093398D03*
X0162322Y0093198D03*
X0162322Y0093098D03*
X0162222Y0092898D03*
X0162122Y0092698D03*
X0162122Y0092598D03*
X0162022Y0092398D03*
X0162022Y0092298D03*
X0161922Y0092098D03*
X0161822Y0091898D03*
X0161822Y0091798D03*
X0161722Y0091698D03*
X0161722Y0091598D03*
X0161622Y0091398D03*
X0161522Y0091198D03*
X0161522Y0091098D03*
X0161422Y0090998D03*
X0161322Y0090798D03*
X0161322Y0090698D03*
X0161222Y0090498D03*
X0161122Y0090398D03*
X0161122Y0090298D03*
X0161022Y0090198D03*
X0160922Y0089998D03*
X0160822Y0089798D03*
X0160722Y0089598D03*
X0160622Y0089398D03*
X0160522Y0089298D03*
X0160422Y0089098D03*
X0160322Y0088898D03*
X0160222Y0088798D03*
X0160122Y0088598D03*
X0160022Y0088398D03*
X0159922Y0088298D03*
X0159822Y0088098D03*
X0159722Y0087998D03*
X0159622Y0087898D03*
X0159522Y0087698D03*
X0159422Y0087598D03*
X0159322Y0087398D03*
X0159222Y0087298D03*
X0159122Y0087198D03*
X0159022Y0086998D03*
X0158922Y0086898D03*
X0158822Y0086798D03*
X0158722Y0086698D03*
X0158622Y0086498D03*
X0158522Y0086398D03*
X0158422Y0086298D03*
X0158322Y0086198D03*
X0158222Y0086098D03*
X0158122Y0085998D03*
X0157922Y0085798D03*
X0157822Y0085598D03*
X0157722Y0085498D03*
X0157622Y0085398D03*
X0157522Y0085298D03*
X0157422Y0085198D03*
X0157322Y0085098D03*
X0157222Y0084998D03*
X0157122Y0084898D03*
X0157022Y0084798D03*
X0156922Y0084698D03*
X0156822Y0084598D03*
X0156422Y0084298D03*
X0156322Y0084198D03*
X0156122Y0083998D03*
X0155922Y0083898D03*
X0155822Y0083798D03*
X0155522Y0083598D03*
X0155222Y0083398D03*
X0147822Y0087698D03*
X0148922Y0091398D03*
X0151422Y0094198D03*
X0098822Y0103298D03*
X0097622Y0103298D03*
X0095822Y0103298D03*
X0093622Y0103298D03*
X0093022Y0107298D03*
X0096622Y0107298D03*
X0081022Y0091798D03*
X0080422Y0091798D03*
X0078622Y0091798D03*
X0078022Y0091798D03*
X0076222Y0091798D03*
X0075622Y0091798D03*
X0075022Y0091798D03*
X0074422Y0091798D03*
X0073622Y0091798D03*
X0024822Y0107098D03*
X0023822Y0107098D03*
X0022322Y0107098D03*
X0020622Y0107098D03*
X0019022Y0103098D03*
X0041622Y0120998D03*
X0042222Y0120998D03*
X0042722Y0120998D03*
X0043222Y0120998D03*
X0043522Y0120998D03*
X0043822Y0120998D03*
X0044222Y0120998D03*
X0044822Y0120998D03*
X0045422Y0120998D03*
X0045922Y0120998D03*
X0046422Y0120998D03*
X0046722Y0120998D03*
X0047022Y0120998D03*
X0047422Y0120998D03*
X0048022Y0120998D03*
X0048622Y0120998D03*
X0053422Y0137698D03*
X0055322Y0137998D03*
X0063622Y0137998D03*
X0065422Y0137698D03*
X0053422Y0145098D03*
X0155522Y0133098D03*
X0054922Y0064598D03*
X0062822Y0064498D03*
D24*
X0063322Y0064698D03*
X0056522Y0064598D03*
X0147522Y0087898D03*
X0157122Y0104398D03*
X0157122Y0104598D03*
X0157222Y0104798D03*
X0137822Y0104498D03*
X0137822Y0104398D03*
X0157922Y0115298D03*
X0156922Y0129998D03*
X0138122Y0129998D03*
X0138022Y0129698D03*
D25*
X0137722Y0128598D03*
X0137722Y0128498D03*
X0137622Y0128198D03*
X0138022Y0121798D03*
X0137022Y0115498D03*
X0137422Y0106398D03*
X0137522Y0106098D03*
X0157422Y0106098D03*
X0157522Y0106198D03*
X0157522Y0106298D03*
X0157522Y0106398D03*
X0147422Y0087998D03*
X0063622Y0064798D03*
X0157322Y0128498D03*
X0157322Y0128598D03*
X0157222Y0128798D03*
D26*
X0157522Y0127498D03*
X0157522Y0127398D03*
X0157622Y0127098D03*
X0157622Y0126998D03*
X0157622Y0126898D03*
X0157122Y0121898D03*
X0157922Y0115798D03*
X0137022Y0115698D03*
X0136922Y0113198D03*
X0137222Y0107898D03*
X0137222Y0107798D03*
X0137222Y0107698D03*
X0137222Y0107598D03*
X0137322Y0107398D03*
X0157722Y0107398D03*
X0157722Y0107498D03*
X0157722Y0107598D03*
X0147422Y0088098D03*
X0055922Y0064698D03*
X0137422Y0127098D03*
X0137422Y0127198D03*
X0137422Y0127298D03*
D27*
X0136372Y0118098D03*
X0136772Y0112598D03*
X0136772Y0112398D03*
X0136772Y0112298D03*
X0136772Y0112198D03*
X0136772Y0111998D03*
X0136772Y0111698D03*
X0136872Y0110498D03*
X0136872Y0110398D03*
X0136872Y0110298D03*
X0136872Y0110198D03*
X0136872Y0110098D03*
X0136972Y0109698D03*
X0157972Y0109298D03*
X0157972Y0109198D03*
X0157972Y0109098D03*
X0158072Y0109498D03*
X0158072Y0109698D03*
X0158172Y0112898D03*
X0147372Y0088198D03*
X0063972Y0064898D03*
X0055672Y0064798D03*
D28*
X0147372Y0088298D03*
X0136472Y0118198D03*
D29*
X0147422Y0088398D03*
D30*
X0147372Y0088498D03*
X0137772Y0121298D03*
D31*
X0147322Y0088598D03*
D32*
X0147322Y0088698D03*
X0064822Y0065198D03*
X0137722Y0121098D03*
X0157322Y0121198D03*
D33*
X0137072Y0115198D03*
X0136072Y0117898D03*
X0137972Y0129598D03*
X0138072Y0129798D03*
X0156872Y0130098D03*
X0156972Y0129898D03*
X0156972Y0129798D03*
X0157272Y0105098D03*
X0157272Y0104998D03*
X0157172Y0104698D03*
X0137772Y0104698D03*
X0137772Y0104598D03*
X0137772Y0104798D03*
X0145872Y0088798D03*
D34*
X0149372Y0088798D03*
X0156772Y0102798D03*
X0156772Y0102898D03*
X0138272Y0102798D03*
X0138272Y0102598D03*
X0135972Y0117798D03*
X0138472Y0130998D03*
X0138472Y0131098D03*
X0156472Y0131398D03*
D35*
X0156572Y0131098D03*
X0156672Y0130998D03*
X0138372Y0130798D03*
X0157872Y0115098D03*
X0156972Y0103598D03*
X0156872Y0103398D03*
X0156872Y0103298D03*
X0156872Y0103198D03*
X0138172Y0103198D03*
X0138072Y0103298D03*
X0145572Y0088898D03*
D36*
X0149572Y0088898D03*
X0156672Y0102398D03*
X0156672Y0102498D03*
X0138372Y0102298D03*
X0138272Y0102498D03*
X0138572Y0131298D03*
X0156372Y0131598D03*
X0156372Y0131698D03*
D37*
X0156272Y0131898D03*
X0138672Y0131598D03*
X0156872Y0122198D03*
X0135672Y0116098D03*
X0138472Y0102098D03*
X0138472Y0101998D03*
X0156572Y0101998D03*
X0156572Y0102098D03*
X0149772Y0088998D03*
X0145272Y0088998D03*
X0062072Y0145398D03*
D38*
X0137372Y0126998D03*
X0137372Y0126898D03*
X0137372Y0126798D03*
X0137272Y0126498D03*
X0137272Y0126398D03*
X0157572Y0127198D03*
X0157672Y0126798D03*
X0157672Y0126698D03*
X0157672Y0126598D03*
X0157772Y0126198D03*
X0157772Y0107898D03*
X0157772Y0107798D03*
X0157772Y0107698D03*
X0137172Y0107998D03*
X0137172Y0108098D03*
X0137172Y0108198D03*
X0147872Y0091498D03*
D39*
X0147772Y0091598D03*
X0157172Y0121598D03*
D40*
X0157872Y0118598D03*
X0137772Y0120998D03*
X0136872Y0118598D03*
X0147672Y0091698D03*
D41*
X0147722Y0091798D03*
X0157822Y0119098D03*
X0157522Y0120698D03*
X0137522Y0120398D03*
X0137222Y0119298D03*
X0137122Y0119098D03*
X0054022Y0144598D03*
X0054522Y0065198D03*
D42*
X0147672Y0091898D03*
D43*
X0147622Y0091998D03*
X0095322Y0096198D03*
X0095222Y0095898D03*
X0095122Y0095498D03*
X0095022Y0095198D03*
X0095022Y0095098D03*
X0095022Y0094998D03*
X0094922Y0094798D03*
X0094922Y0094698D03*
X0094822Y0094498D03*
X0094822Y0094398D03*
X0094822Y0094298D03*
X0094722Y0094198D03*
X0094722Y0094098D03*
X0094622Y0093798D03*
X0095322Y0113698D03*
X0095222Y0113998D03*
X0095122Y0114298D03*
X0095122Y0114398D03*
X0095122Y0114498D03*
X0095022Y0114698D03*
X0095022Y0114798D03*
X0095022Y0114898D03*
X0094922Y0114998D03*
X0094922Y0115098D03*
X0094922Y0115198D03*
X0094922Y0115298D03*
X0094822Y0115398D03*
X0094822Y0115498D03*
X0094822Y0115598D03*
X0094722Y0115798D03*
X0094622Y0116098D03*
X0024322Y0116498D03*
X0024222Y0116198D03*
X0024222Y0116098D03*
X0024122Y0115798D03*
X0024022Y0115598D03*
X0024022Y0115498D03*
X0024022Y0115398D03*
X0023922Y0115298D03*
X0023922Y0115198D03*
X0023922Y0115098D03*
X0023922Y0114998D03*
X0023822Y0114898D03*
X0023822Y0114798D03*
X0023822Y0114698D03*
X0023722Y0114498D03*
X0023722Y0114398D03*
X0023722Y0114298D03*
X0023622Y0114098D03*
X0023522Y0113698D03*
X0023322Y0112898D03*
X0023522Y0096198D03*
X0023622Y0095998D03*
X0023622Y0095898D03*
X0023622Y0095698D03*
X0023722Y0095498D03*
X0023722Y0095398D03*
X0023822Y0095298D03*
X0023822Y0095098D03*
X0023822Y0094998D03*
X0023922Y0094898D03*
X0023922Y0094798D03*
X0023922Y0094698D03*
X0023922Y0094598D03*
X0024022Y0094498D03*
X0024022Y0094398D03*
X0024122Y0094098D03*
X0024222Y0093798D03*
D44*
X0026222Y0088798D03*
X0026322Y0088598D03*
X0026422Y0088498D03*
X0026422Y0088398D03*
X0026522Y0088298D03*
X0026522Y0088198D03*
X0026622Y0088098D03*
X0026622Y0087998D03*
X0026822Y0087698D03*
X0092022Y0087698D03*
X0092122Y0087798D03*
X0092122Y0087898D03*
X0092222Y0087998D03*
X0092222Y0088098D03*
X0092322Y0088198D03*
X0092322Y0088298D03*
X0092422Y0088398D03*
X0092422Y0088498D03*
X0092522Y0088598D03*
X0092622Y0088798D03*
X0147622Y0092098D03*
X0065922Y0065798D03*
X0092622Y0121098D03*
X0092522Y0121298D03*
X0092422Y0121398D03*
X0092422Y0121498D03*
X0092322Y0121598D03*
X0092322Y0121698D03*
X0092222Y0121798D03*
X0092122Y0121998D03*
X0092122Y0122098D03*
X0053222Y0144198D03*
X0026922Y0122398D03*
X0026722Y0121998D03*
X0026622Y0121898D03*
X0026522Y0121698D03*
X0026522Y0121598D03*
X0026422Y0121498D03*
X0026322Y0121298D03*
D45*
X0027472Y0123398D03*
X0027572Y0123498D03*
X0027572Y0123598D03*
X0027672Y0123698D03*
X0027772Y0123898D03*
X0027872Y0123998D03*
X0027872Y0124098D03*
X0052972Y0144098D03*
X0090872Y0124198D03*
X0090972Y0124098D03*
X0091072Y0123898D03*
X0091172Y0123698D03*
X0091272Y0123598D03*
X0091372Y0123398D03*
X0091572Y0122998D03*
X0147572Y0092198D03*
X0091372Y0086598D03*
X0091372Y0086498D03*
X0091172Y0086198D03*
X0091172Y0086098D03*
X0091072Y0085998D03*
X0090972Y0085798D03*
X0090872Y0085698D03*
X0053672Y0065598D03*
X0027872Y0085798D03*
X0027772Y0085998D03*
X0027672Y0086198D03*
X0027572Y0086298D03*
X0027572Y0086398D03*
X0027472Y0086498D03*
D46*
X0028972Y0084198D03*
X0029072Y0084098D03*
X0029072Y0083998D03*
X0029172Y0083898D03*
X0029272Y0083698D03*
X0029372Y0083598D03*
X0045072Y0087198D03*
X0045372Y0087798D03*
X0045572Y0088198D03*
X0046072Y0089198D03*
X0046972Y0090998D03*
X0047072Y0091198D03*
X0047772Y0092598D03*
X0047972Y0092998D03*
X0048172Y0093398D03*
X0048672Y0094398D03*
X0048772Y0094598D03*
X0049272Y0095498D03*
X0049672Y0096298D03*
X0050172Y0097398D03*
X0050372Y0097798D03*
X0050672Y0098398D03*
X0051472Y0099998D03*
X0052072Y0101198D03*
X0052172Y0101398D03*
X0052272Y0101598D03*
X0052872Y0102698D03*
X0052972Y0102998D03*
X0062372Y0103898D03*
X0063172Y0102298D03*
X0067972Y0092798D03*
X0068272Y0092098D03*
X0068472Y0091798D03*
X0089472Y0083598D03*
X0089672Y0083798D03*
X0089672Y0083898D03*
X0089772Y0083998D03*
X0089772Y0084098D03*
X0089972Y0084298D03*
X0053472Y0065698D03*
X0147572Y0092298D03*
X0057872Y0112698D03*
X0057872Y0112798D03*
X0054172Y0120298D03*
X0054072Y0120498D03*
X0053872Y0120898D03*
X0053772Y0120998D03*
X0029272Y0126198D03*
X0029172Y0125998D03*
X0029072Y0125898D03*
X0028972Y0125698D03*
X0028872Y0125598D03*
X0065672Y0144098D03*
X0089472Y0126298D03*
X0089672Y0125998D03*
X0089772Y0125898D03*
D47*
X0088372Y0127698D03*
X0088272Y0127798D03*
X0065972Y0143998D03*
X0030572Y0127898D03*
X0030472Y0127698D03*
X0030372Y0127598D03*
X0030272Y0127498D03*
X0147572Y0092398D03*
X0088672Y0082498D03*
X0088472Y0082298D03*
X0088372Y0082198D03*
X0088272Y0081998D03*
X0088072Y0081798D03*
X0066572Y0066098D03*
X0030672Y0081898D03*
X0030572Y0082098D03*
X0030372Y0082298D03*
D48*
X0030772Y0081798D03*
X0030872Y0081698D03*
X0031072Y0081498D03*
X0031172Y0081298D03*
X0087672Y0081298D03*
X0087872Y0081598D03*
X0087972Y0081698D03*
X0147572Y0092498D03*
X0087972Y0128198D03*
X0087772Y0128398D03*
X0087672Y0128598D03*
X0066072Y0143898D03*
X0030972Y0128298D03*
X0030872Y0128198D03*
D49*
X0031722Y0129198D03*
X0031822Y0129298D03*
X0031922Y0129398D03*
X0032022Y0129498D03*
X0057922Y0111898D03*
X0057922Y0111798D03*
X0086822Y0129498D03*
X0087122Y0129198D03*
X0147522Y0092598D03*
X0087122Y0080698D03*
X0087022Y0080598D03*
X0086922Y0080498D03*
X0086822Y0080398D03*
X0052922Y0065998D03*
X0032022Y0080398D03*
X0031722Y0080698D03*
D50*
X0032372Y0079998D03*
X0032672Y0079698D03*
X0032772Y0079598D03*
X0032872Y0079498D03*
X0085772Y0079298D03*
X0086072Y0079598D03*
X0086172Y0079698D03*
X0086272Y0079798D03*
X0086372Y0079898D03*
X0147572Y0092698D03*
X0057872Y0111498D03*
X0057872Y0111598D03*
X0032872Y0130398D03*
X0032772Y0130298D03*
X0032672Y0130198D03*
X0032572Y0130098D03*
X0085972Y0130398D03*
X0086072Y0130298D03*
X0086172Y0130198D03*
X0086372Y0129998D03*
D51*
X0052122Y0143598D03*
X0033522Y0130998D03*
X0057922Y0111298D03*
X0147522Y0092798D03*
X0085322Y0078898D03*
X0033622Y0078798D03*
X0033522Y0078898D03*
X0033322Y0078998D03*
D52*
X0033922Y0078498D03*
X0034022Y0078398D03*
X0067122Y0066498D03*
X0084722Y0078298D03*
X0084922Y0078498D03*
X0147522Y0092898D03*
X0085022Y0131298D03*
X0084922Y0131398D03*
X0084822Y0131498D03*
X0084722Y0131598D03*
X0052022Y0143498D03*
X0034122Y0131598D03*
X0033922Y0131398D03*
D53*
X0034322Y0131798D03*
X0034422Y0131898D03*
X0051822Y0143398D03*
X0066722Y0143498D03*
X0084322Y0131898D03*
X0084522Y0131798D03*
X0057922Y0110898D03*
X0057922Y0110798D03*
X0147522Y0092998D03*
X0084522Y0078098D03*
X0067322Y0066598D03*
X0034422Y0077998D03*
D54*
X0034822Y0077698D03*
X0034922Y0077598D03*
X0035022Y0077498D03*
X0083822Y0077498D03*
X0083922Y0077598D03*
X0084022Y0077698D03*
X0147522Y0093098D03*
X0057922Y0110698D03*
X0034822Y0132198D03*
X0034922Y0132298D03*
X0035022Y0132398D03*
X0083822Y0132398D03*
X0083922Y0132298D03*
X0084022Y0132198D03*
D55*
X0083622Y0132598D03*
X0083422Y0132698D03*
X0083322Y0132798D03*
X0051722Y0143298D03*
X0035522Y0132798D03*
X0035322Y0132598D03*
X0057922Y0110498D03*
X0057922Y0110398D03*
X0147522Y0093198D03*
X0083322Y0077098D03*
X0035522Y0077098D03*
X0035422Y0077198D03*
X0035222Y0077298D03*
D56*
X0035772Y0076898D03*
X0083472Y0077198D03*
X0147472Y0093298D03*
X0035372Y0132698D03*
X0066872Y0143398D03*
D57*
X0067022Y0143298D03*
X0082822Y0133198D03*
X0083022Y0132998D03*
X0035822Y0132998D03*
X0035622Y0132898D03*
X0057922Y0110298D03*
X0057922Y0110198D03*
X0147522Y0093398D03*
X0083222Y0076998D03*
X0083022Y0076898D03*
X0035622Y0076998D03*
D58*
X0036322Y0076498D03*
X0082822Y0076698D03*
X0147522Y0093498D03*
X0057922Y0110098D03*
X0036322Y0133398D03*
X0036122Y0133298D03*
X0036022Y0133198D03*
X0051422Y0143098D03*
X0082722Y0133298D03*
D59*
X0082572Y0133398D03*
X0082372Y0133498D03*
X0057872Y0109998D03*
X0057872Y0109898D03*
X0147472Y0093598D03*
X0082572Y0076498D03*
X0082272Y0076298D03*
X0067772Y0066898D03*
X0051972Y0066598D03*
X0036572Y0076298D03*
X0036172Y0076598D03*
D60*
X0036672Y0076198D03*
X0081872Y0075998D03*
X0147472Y0093698D03*
X0147472Y0093798D03*
X0057872Y0109798D03*
D61*
X0057922Y0109698D03*
X0036822Y0133798D03*
X0036922Y0133898D03*
X0081722Y0133998D03*
X0147422Y0094098D03*
X0147522Y0093898D03*
X0082122Y0076198D03*
X0082022Y0076098D03*
X0037122Y0075898D03*
X0036922Y0075998D03*
X0036822Y0076098D03*
D62*
X0037372Y0075698D03*
X0051872Y0066698D03*
X0067872Y0066998D03*
X0067972Y0067098D03*
X0081772Y0075898D03*
X0147472Y0093998D03*
X0057872Y0109498D03*
X0057872Y0109598D03*
X0037272Y0134098D03*
X0037072Y0133998D03*
X0051272Y0142998D03*
X0067272Y0143098D03*
X0081872Y0133898D03*
D63*
X0065372Y0144298D03*
X0092572Y0121198D03*
X0092672Y0120998D03*
X0092672Y0120898D03*
X0092772Y0120798D03*
X0092772Y0120698D03*
X0092872Y0120598D03*
X0092972Y0120398D03*
X0092972Y0120298D03*
X0026372Y0121398D03*
X0026272Y0121198D03*
X0026272Y0121098D03*
X0026172Y0120998D03*
X0026172Y0120898D03*
X0026072Y0120798D03*
X0025972Y0120598D03*
X0025972Y0120498D03*
X0025872Y0120298D03*
X0025872Y0089598D03*
X0025972Y0089398D03*
X0025972Y0089298D03*
X0026072Y0089198D03*
X0026072Y0089098D03*
X0026172Y0088998D03*
X0026172Y0088898D03*
X0026272Y0088698D03*
X0092572Y0088698D03*
X0092672Y0088898D03*
X0092672Y0088998D03*
X0092772Y0089098D03*
X0092872Y0089198D03*
X0092872Y0089298D03*
X0092872Y0089398D03*
X0092972Y0089598D03*
X0145672Y0094198D03*
X0053872Y0065498D03*
D64*
X0138872Y0100898D03*
X0156172Y0100798D03*
X0138672Y0116098D03*
X0139072Y0132398D03*
X0155872Y0132698D03*
D65*
X0156022Y0132398D03*
X0139022Y0132298D03*
X0138922Y0132198D03*
X0157822Y0125098D03*
X0156322Y0116098D03*
X0157922Y0114798D03*
X0138522Y0115998D03*
X0135322Y0116198D03*
X0138722Y0101298D03*
X0156322Y0101198D03*
D66*
X0156372Y0101298D03*
X0156372Y0101398D03*
X0138672Y0101398D03*
X0158072Y0113598D03*
X0158172Y0117698D03*
X0138972Y0132098D03*
X0156072Y0132298D03*
X0146072Y0140698D03*
X0056672Y0145398D03*
D67*
X0138772Y0131898D03*
X0138772Y0131798D03*
X0156172Y0132098D03*
X0159272Y0125098D03*
X0156572Y0115998D03*
X0156472Y0101698D03*
X0138572Y0101698D03*
D68*
X0138522Y0101798D03*
X0138522Y0101898D03*
X0156522Y0101898D03*
X0156522Y0101798D03*
X0157922Y0114898D03*
X0156222Y0131998D03*
X0138722Y0131698D03*
D69*
X0138622Y0131498D03*
X0138622Y0131398D03*
X0156322Y0131798D03*
X0156622Y0102298D03*
X0156622Y0102198D03*
X0138422Y0102198D03*
X0138322Y0102398D03*
X0057022Y0064498D03*
D70*
X0062922Y0064598D03*
X0138122Y0102998D03*
X0138122Y0103098D03*
X0138222Y0102898D03*
X0156822Y0102998D03*
X0156822Y0103098D03*
X0137122Y0114998D03*
X0136022Y0115998D03*
X0138422Y0130898D03*
X0156522Y0131198D03*
D71*
X0156672Y0130698D03*
X0138272Y0130498D03*
X0138272Y0130398D03*
X0137072Y0115098D03*
X0158072Y0113498D03*
X0157072Y0103998D03*
X0156972Y0103698D03*
X0138072Y0103598D03*
X0137972Y0103698D03*
X0137972Y0103798D03*
D72*
X0137972Y0103898D03*
X0137872Y0104098D03*
X0137872Y0104198D03*
X0137872Y0104298D03*
X0157172Y0104498D03*
X0136872Y0113498D03*
X0158172Y0117798D03*
X0138172Y0121898D03*
X0138072Y0129898D03*
X0138172Y0130198D03*
X0156872Y0130198D03*
X0156872Y0130298D03*
D73*
X0156822Y0130398D03*
X0156822Y0130498D03*
X0156722Y0130598D03*
X0138222Y0130298D03*
X0138122Y0130098D03*
X0157022Y0122098D03*
X0157922Y0115198D03*
X0157122Y0104298D03*
X0157122Y0104198D03*
X0157022Y0104098D03*
X0157022Y0103898D03*
X0137922Y0103998D03*
X0062622Y0145298D03*
D74*
X0137922Y0129398D03*
X0157022Y0129598D03*
X0157022Y0129698D03*
X0157922Y0115398D03*
X0157322Y0105198D03*
X0157222Y0104898D03*
X0137722Y0104898D03*
X0137722Y0104998D03*
D75*
X0137672Y0105098D03*
X0137672Y0105198D03*
X0137672Y0105298D03*
X0157272Y0105298D03*
X0157372Y0105398D03*
X0157372Y0105498D03*
X0158072Y0113398D03*
X0137072Y0115298D03*
X0137872Y0129098D03*
X0137872Y0129198D03*
X0137872Y0129298D03*
X0137972Y0129498D03*
X0157072Y0129498D03*
X0157072Y0129398D03*
D76*
X0157122Y0129298D03*
X0157122Y0129198D03*
X0157222Y0128898D03*
X0137822Y0128898D03*
X0137822Y0128998D03*
X0157922Y0115498D03*
X0157422Y0105898D03*
X0157422Y0105798D03*
X0157422Y0105698D03*
X0157322Y0105598D03*
X0137622Y0105598D03*
X0137622Y0105498D03*
X0137622Y0105398D03*
X0055722Y0145198D03*
D77*
X0137772Y0128798D03*
X0137772Y0128698D03*
X0157172Y0128998D03*
X0157172Y0129098D03*
X0157272Y0128698D03*
X0157072Y0121998D03*
X0137072Y0115398D03*
X0136872Y0113398D03*
X0137472Y0106198D03*
X0137472Y0105998D03*
X0137572Y0105898D03*
X0137572Y0105798D03*
X0137572Y0105698D03*
X0157472Y0105998D03*
D78*
X0157572Y0106498D03*
X0157572Y0106598D03*
X0137472Y0106498D03*
X0137372Y0106598D03*
X0137372Y0106798D03*
X0137472Y0106298D03*
X0158072Y0117898D03*
X0157372Y0128198D03*
X0157372Y0128298D03*
X0157272Y0128398D03*
X0137672Y0128398D03*
X0137672Y0128298D03*
X0137572Y0127998D03*
X0062972Y0145198D03*
D79*
X0137522Y0127698D03*
X0137622Y0128098D03*
X0157422Y0128098D03*
X0157422Y0127998D03*
X0157422Y0127898D03*
X0157522Y0127798D03*
X0157922Y0115698D03*
X0157922Y0115598D03*
X0158122Y0113298D03*
X0157622Y0106998D03*
X0157622Y0106898D03*
X0157622Y0106798D03*
X0157622Y0106698D03*
X0137422Y0106698D03*
X0137322Y0106898D03*
X0137322Y0106998D03*
X0137322Y0107098D03*
X0137322Y0107198D03*
X0136922Y0113298D03*
X0137022Y0115598D03*
D80*
X0136272Y0117998D03*
X0137472Y0127398D03*
X0137472Y0127498D03*
X0137472Y0127598D03*
X0137572Y0127798D03*
X0137572Y0127898D03*
X0157472Y0127698D03*
X0157472Y0127598D03*
X0157572Y0127298D03*
X0157672Y0107298D03*
X0157672Y0107198D03*
X0157672Y0107098D03*
X0137272Y0107298D03*
X0137272Y0107498D03*
X0055472Y0145098D03*
D81*
X0137322Y0126698D03*
X0137322Y0126598D03*
X0137222Y0126098D03*
X0157722Y0126298D03*
X0157722Y0126398D03*
X0157722Y0126498D03*
X0157822Y0125898D03*
X0157822Y0125798D03*
X0157922Y0115898D03*
X0158122Y0113198D03*
X0157922Y0108498D03*
X0157822Y0108298D03*
X0157822Y0108198D03*
X0157822Y0108098D03*
X0157822Y0107998D03*
X0137122Y0108298D03*
X0137122Y0108398D03*
X0137122Y0108498D03*
X0137122Y0108598D03*
X0136922Y0113098D03*
X0137022Y0115798D03*
X0137022Y0115898D03*
D82*
X0136872Y0112998D03*
X0136872Y0112898D03*
X0136972Y0109398D03*
X0136972Y0109198D03*
X0137072Y0108998D03*
X0137072Y0108898D03*
X0137072Y0108798D03*
X0137072Y0108698D03*
X0157872Y0108598D03*
X0157872Y0108398D03*
X0158072Y0113098D03*
X0158072Y0117998D03*
X0157972Y0125198D03*
X0157872Y0125398D03*
X0157872Y0125498D03*
X0157872Y0125598D03*
X0157872Y0125698D03*
X0157772Y0125998D03*
X0157772Y0126098D03*
X0137872Y0121698D03*
X0137172Y0125598D03*
X0137172Y0125698D03*
X0137172Y0125798D03*
X0137172Y0125898D03*
X0137172Y0125998D03*
X0137272Y0126198D03*
X0137272Y0126298D03*
X0063372Y0145098D03*
D83*
X0137122Y0125498D03*
X0137122Y0125398D03*
X0137122Y0125298D03*
X0137122Y0125198D03*
X0137122Y0125098D03*
X0157122Y0121798D03*
X0157922Y0125298D03*
X0158122Y0112998D03*
X0158022Y0109398D03*
X0157922Y0108998D03*
X0157922Y0108898D03*
X0157922Y0108798D03*
X0157922Y0108698D03*
X0137022Y0109098D03*
X0137022Y0109298D03*
X0137022Y0109498D03*
X0136922Y0109598D03*
X0136922Y0109798D03*
X0136922Y0109898D03*
X0136822Y0112698D03*
X0136822Y0112798D03*
D84*
X0136822Y0112498D03*
X0136822Y0112098D03*
X0136822Y0111498D03*
X0136822Y0111398D03*
X0136822Y0111298D03*
X0136822Y0111098D03*
X0136822Y0110998D03*
X0136822Y0110898D03*
X0136822Y0110798D03*
X0136822Y0110698D03*
X0136822Y0110598D03*
X0136922Y0109998D03*
X0158022Y0109898D03*
X0158022Y0109798D03*
X0158022Y0109598D03*
X0158122Y0109998D03*
X0158122Y0110598D03*
X0158122Y0112698D03*
X0158122Y0112798D03*
D85*
X0158172Y0112598D03*
X0158172Y0112498D03*
X0158172Y0112398D03*
X0158172Y0112298D03*
X0158172Y0112198D03*
X0158172Y0111898D03*
X0158172Y0111698D03*
X0158172Y0111498D03*
X0158172Y0111198D03*
X0158172Y0111098D03*
X0158172Y0110898D03*
X0158172Y0110798D03*
X0158172Y0110698D03*
X0158172Y0110398D03*
X0158072Y0110298D03*
X0158072Y0110198D03*
X0158072Y0110098D03*
X0158072Y0118098D03*
X0137872Y0121598D03*
X0136772Y0111898D03*
X0136772Y0111798D03*
X0136772Y0111598D03*
X0136772Y0111198D03*
X0054972Y0144998D03*
D86*
X0157122Y0121698D03*
X0158222Y0112098D03*
X0158222Y0111998D03*
X0158222Y0111798D03*
X0158222Y0111598D03*
X0158222Y0111398D03*
X0158222Y0111298D03*
X0158122Y0110998D03*
X0158122Y0110498D03*
D87*
X0158022Y0118198D03*
X0137822Y0121498D03*
X0063622Y0144998D03*
X0064322Y0064998D03*
D88*
X0136572Y0118298D03*
X0157972Y0118298D03*
D89*
X0157922Y0118398D03*
X0136722Y0118398D03*
X0064022Y0144898D03*
D90*
X0136772Y0118498D03*
X0157272Y0121298D03*
X0157972Y0118498D03*
D91*
X0157372Y0121098D03*
X0137672Y0120898D03*
X0136872Y0118698D03*
X0054172Y0144698D03*
D92*
X0064222Y0144798D03*
X0157922Y0118698D03*
D93*
X0137622Y0120798D03*
X0137022Y0118798D03*
X0054822Y0065098D03*
D94*
X0157872Y0118798D03*
X0157872Y0118898D03*
X0157372Y0120998D03*
X0137672Y0120698D03*
D95*
X0137622Y0120598D03*
X0137022Y0118898D03*
X0157422Y0120898D03*
X0065022Y0065298D03*
D96*
X0065172Y0065398D03*
X0137072Y0118998D03*
X0137572Y0120498D03*
X0157472Y0120798D03*
X0157872Y0118998D03*
X0064472Y0144698D03*
D97*
X0137472Y0120198D03*
X0137472Y0120098D03*
X0137572Y0120298D03*
X0137272Y0119398D03*
X0137172Y0119198D03*
X0157472Y0120598D03*
X0157772Y0119298D03*
X0157772Y0119198D03*
D98*
X0157772Y0119398D03*
X0157772Y0119498D03*
X0157672Y0119598D03*
X0157672Y0119798D03*
X0157572Y0120198D03*
X0157572Y0120298D03*
X0157572Y0120398D03*
X0053772Y0144498D03*
D99*
X0064722Y0144598D03*
X0137422Y0119998D03*
X0137422Y0119898D03*
X0137422Y0119798D03*
X0137322Y0119698D03*
X0137322Y0119598D03*
X0137322Y0119498D03*
X0157522Y0120498D03*
D100*
X0157622Y0120098D03*
X0157622Y0119998D03*
X0157622Y0119898D03*
X0157722Y0119698D03*
D101*
X0157272Y0121398D03*
X0137772Y0121198D03*
X0054572Y0144798D03*
X0055072Y0064998D03*
D102*
X0055322Y0064898D03*
X0064422Y0065098D03*
X0137822Y0121398D03*
X0157222Y0121498D03*
X0054722Y0144898D03*
D103*
X0022622Y0108298D03*
X0022522Y0102998D03*
X0022522Y0102898D03*
X0022522Y0102698D03*
X0022622Y0101598D03*
X0096122Y0100598D03*
X0096322Y0102398D03*
X0096322Y0103098D03*
X0054322Y0065298D03*
D104*
X0054072Y0065398D03*
X0065572Y0065598D03*
X0094972Y0094898D03*
X0095072Y0095298D03*
X0095072Y0095398D03*
X0095172Y0095598D03*
X0095172Y0095698D03*
X0095172Y0095798D03*
X0095272Y0095998D03*
X0095272Y0096098D03*
X0095372Y0096298D03*
X0095372Y0096398D03*
X0095372Y0096498D03*
X0095372Y0096598D03*
X0095472Y0096698D03*
X0095472Y0096798D03*
X0095472Y0096898D03*
X0095472Y0096998D03*
X0095572Y0097198D03*
X0095572Y0097398D03*
X0095672Y0097698D03*
X0095672Y0097898D03*
X0095772Y0098198D03*
X0095772Y0098398D03*
X0095872Y0098898D03*
X0095772Y0111498D03*
X0095772Y0111598D03*
X0095672Y0111798D03*
X0095672Y0111998D03*
X0095572Y0112498D03*
X0095572Y0112598D03*
X0095472Y0112898D03*
X0095472Y0112998D03*
X0095472Y0113098D03*
X0095472Y0113198D03*
X0095372Y0113298D03*
X0095372Y0113398D03*
X0095372Y0113498D03*
X0095372Y0113598D03*
X0095272Y0113798D03*
X0095272Y0113898D03*
X0095172Y0114198D03*
X0095072Y0114598D03*
X0023772Y0114598D03*
X0023672Y0114198D03*
X0023572Y0113998D03*
X0023572Y0113898D03*
X0023572Y0113798D03*
X0023472Y0113598D03*
X0023472Y0113498D03*
X0023472Y0113398D03*
X0023472Y0113298D03*
X0023372Y0113198D03*
X0023372Y0113098D03*
X0023372Y0112998D03*
X0023272Y0112598D03*
X0023272Y0112398D03*
X0023172Y0112198D03*
X0023072Y0111598D03*
X0023072Y0111498D03*
X0022972Y0110998D03*
X0022972Y0098898D03*
X0023072Y0098398D03*
X0023072Y0098198D03*
X0023172Y0097898D03*
X0023172Y0097798D03*
X0023272Y0097398D03*
X0023272Y0097298D03*
X0023272Y0097198D03*
X0023372Y0097098D03*
X0023372Y0096898D03*
X0023372Y0096798D03*
X0023372Y0096698D03*
X0023472Y0096598D03*
X0023472Y0096498D03*
X0023472Y0096398D03*
X0023472Y0096298D03*
X0023572Y0096098D03*
X0023672Y0095598D03*
X0023772Y0095198D03*
X0053572Y0144398D03*
D105*
X0064872Y0144498D03*
X0095972Y0110398D03*
X0095972Y0110298D03*
X0096072Y0109898D03*
X0096072Y0109498D03*
X0096072Y0109398D03*
X0096172Y0109198D03*
X0096172Y0108998D03*
X0096172Y0108798D03*
X0096172Y0108698D03*
X0096172Y0108498D03*
X0096272Y0108298D03*
X0096272Y0107998D03*
X0096272Y0107798D03*
X0096272Y0107698D03*
X0096272Y0107598D03*
X0096272Y0107498D03*
X0096272Y0107398D03*
X0096372Y0103198D03*
X0096372Y0102998D03*
X0096272Y0102898D03*
X0096272Y0102698D03*
X0096272Y0102498D03*
X0096272Y0102198D03*
X0096272Y0102098D03*
X0096272Y0101998D03*
X0096272Y0101898D03*
X0096272Y0101798D03*
X0096172Y0101598D03*
X0096172Y0101398D03*
X0096172Y0101198D03*
X0096172Y0101098D03*
X0096172Y0100998D03*
X0096072Y0100298D03*
X0096072Y0100198D03*
X0096072Y0100098D03*
X0095972Y0099698D03*
X0095872Y0098998D03*
X0095872Y0098798D03*
X0022972Y0098998D03*
X0022872Y0099498D03*
X0022872Y0099598D03*
X0022772Y0099998D03*
X0022772Y0100298D03*
X0022772Y0100398D03*
X0022772Y0100598D03*
X0022672Y0100798D03*
X0022672Y0100998D03*
X0022672Y0101098D03*
X0022672Y0101198D03*
X0022672Y0101398D03*
X0022572Y0101898D03*
X0022572Y0102098D03*
X0022572Y0102198D03*
X0022572Y0102298D03*
X0022572Y0102398D03*
X0022572Y0102498D03*
X0022572Y0107298D03*
X0022572Y0107398D03*
X0022572Y0107498D03*
X0022572Y0107598D03*
X0022572Y0107698D03*
X0022572Y0107798D03*
X0022572Y0107998D03*
X0022672Y0108498D03*
X0022672Y0108598D03*
X0022672Y0108698D03*
X0022672Y0108898D03*
X0022772Y0109498D03*
X0022772Y0109798D03*
X0022872Y0110198D03*
X0022872Y0110498D03*
X0065472Y0065498D03*
D106*
X0065872Y0065698D03*
X0093072Y0089798D03*
X0093272Y0090198D03*
X0093372Y0090498D03*
X0093472Y0090698D03*
X0093572Y0090898D03*
X0093572Y0090998D03*
X0093672Y0091098D03*
X0093672Y0091198D03*
X0093772Y0091398D03*
X0093872Y0091598D03*
X0025672Y0089998D03*
X0025572Y0090198D03*
X0025472Y0090498D03*
X0025372Y0090598D03*
X0025372Y0090698D03*
X0025272Y0090798D03*
X0025272Y0090898D03*
X0025272Y0090998D03*
X0025172Y0091098D03*
X0025172Y0091198D03*
X0025072Y0091398D03*
X0024972Y0091698D03*
X0024872Y0091898D03*
X0024872Y0117998D03*
X0025072Y0118498D03*
X0025172Y0118698D03*
X0025172Y0118798D03*
X0025272Y0118898D03*
X0025272Y0118998D03*
X0025372Y0119198D03*
X0025472Y0119398D03*
X0025472Y0119498D03*
X0025572Y0119698D03*
X0025772Y0120098D03*
X0093172Y0119898D03*
X0093272Y0119698D03*
X0093372Y0119498D03*
X0093372Y0119398D03*
X0093472Y0119298D03*
X0093472Y0119198D03*
X0093572Y0118998D03*
X0093572Y0118898D03*
X0093672Y0118798D03*
X0093672Y0118698D03*
X0093772Y0118498D03*
X0093872Y0118398D03*
X0093972Y0117898D03*
D107*
X0089172Y0126698D03*
X0089072Y0126798D03*
X0089072Y0126898D03*
X0088972Y0126998D03*
X0057872Y0112598D03*
X0029972Y0126998D03*
X0029972Y0127098D03*
X0029772Y0126898D03*
X0029672Y0126698D03*
X0029672Y0083198D03*
X0029772Y0083098D03*
X0029772Y0082998D03*
X0029972Y0082798D03*
X0053272Y0065798D03*
X0066372Y0065998D03*
X0088872Y0082798D03*
X0088872Y0082898D03*
X0089072Y0082998D03*
X0089172Y0083198D03*
X0089172Y0083298D03*
D108*
X0087472Y0081098D03*
X0087272Y0080898D03*
X0087172Y0080798D03*
X0066672Y0066198D03*
X0053072Y0065898D03*
X0031872Y0080598D03*
X0031672Y0080798D03*
X0031572Y0080898D03*
X0031372Y0081098D03*
X0031472Y0128898D03*
X0031572Y0128998D03*
X0086972Y0129298D03*
X0087172Y0129098D03*
X0087372Y0128898D03*
X0087472Y0128798D03*
D109*
X0090422Y0124898D03*
X0090622Y0124598D03*
X0090722Y0124498D03*
X0090722Y0124398D03*
X0090822Y0124298D03*
X0091022Y0123998D03*
X0091122Y0123798D03*
X0065522Y0144198D03*
X0028222Y0124598D03*
X0028122Y0124398D03*
X0028022Y0124298D03*
X0027922Y0124198D03*
X0027722Y0123798D03*
X0027822Y0085898D03*
X0028022Y0085598D03*
X0028122Y0085498D03*
X0028122Y0085398D03*
X0028222Y0085298D03*
X0028422Y0084998D03*
X0066222Y0065898D03*
X0090522Y0085098D03*
X0090722Y0085498D03*
X0090822Y0085598D03*
X0091022Y0085898D03*
D110*
X0085672Y0079198D03*
X0085572Y0079098D03*
X0085472Y0078998D03*
X0052772Y0066098D03*
X0033272Y0079098D03*
X0033172Y0079198D03*
X0033072Y0079298D03*
X0057872Y0111398D03*
X0085772Y0130598D03*
X0085672Y0130698D03*
X0085572Y0130798D03*
X0085472Y0130898D03*
X0085372Y0130998D03*
X0033372Y0130898D03*
X0033272Y0130798D03*
X0033172Y0130698D03*
D111*
X0033572Y0131098D03*
X0033672Y0131198D03*
X0033772Y0131298D03*
X0085172Y0131198D03*
X0085272Y0131098D03*
X0057872Y0111198D03*
X0057872Y0111098D03*
X0033672Y0078698D03*
X0033772Y0078598D03*
X0052572Y0066198D03*
X0085072Y0078598D03*
X0085172Y0078698D03*
X0085272Y0078798D03*
D112*
X0084272Y0077898D03*
X0084172Y0077798D03*
X0052472Y0066298D03*
X0034672Y0077798D03*
X0034572Y0077898D03*
X0034572Y0131998D03*
X0034672Y0132098D03*
X0084172Y0132098D03*
X0084272Y0131998D03*
D113*
X0086472Y0129898D03*
X0086672Y0129698D03*
X0086772Y0129598D03*
X0086972Y0129398D03*
X0032272Y0129798D03*
X0032172Y0129698D03*
X0032072Y0129598D03*
X0031872Y0080498D03*
X0032072Y0080298D03*
X0032172Y0080198D03*
X0032272Y0080098D03*
X0066872Y0066298D03*
X0086472Y0079998D03*
X0086672Y0080198D03*
X0086772Y0080298D03*
D114*
X0083672Y0077398D03*
X0083572Y0077298D03*
X0067472Y0066698D03*
X0052272Y0066398D03*
X0035172Y0077398D03*
X0057872Y0110598D03*
X0035172Y0132498D03*
X0083672Y0132498D03*
D115*
X0085922Y0130498D03*
X0066422Y0143698D03*
X0033122Y0130598D03*
X0032922Y0130498D03*
X0032922Y0079398D03*
X0067022Y0066398D03*
X0085922Y0079398D03*
X0085922Y0079498D03*
D116*
X0082972Y0076798D03*
X0082672Y0076598D03*
X0067572Y0066798D03*
X0052172Y0066498D03*
X0036072Y0076698D03*
X0035872Y0076798D03*
X0035872Y0133098D03*
X0051572Y0143198D03*
X0082972Y0133098D03*
X0083172Y0132898D03*
D117*
X0081322Y0134298D03*
X0081022Y0134498D03*
X0037522Y0134298D03*
X0057922Y0109298D03*
X0037522Y0075598D03*
X0037622Y0075498D03*
X0051722Y0066798D03*
X0081122Y0075498D03*
D118*
X0081022Y0075398D03*
X0051522Y0066898D03*
X0057922Y0109098D03*
X0037822Y0134498D03*
X0080722Y0134698D03*
D119*
X0080422Y0134898D03*
X0038422Y0134898D03*
X0038322Y0134798D03*
X0057922Y0108898D03*
X0057922Y0108798D03*
X0038122Y0075198D03*
X0038422Y0074998D03*
X0051522Y0066998D03*
X0068322Y0067298D03*
X0080422Y0074998D03*
D120*
X0051272Y0067098D03*
X0038772Y0074798D03*
X0038972Y0135198D03*
D121*
X0039072Y0135298D03*
X0079772Y0135298D03*
X0057872Y0108398D03*
X0057872Y0108298D03*
X0039272Y0074498D03*
X0039072Y0074598D03*
X0051172Y0067198D03*
X0079572Y0074498D03*
X0079772Y0074598D03*
D122*
X0080872Y0075298D03*
X0068072Y0067198D03*
X0037972Y0075298D03*
X0037872Y0075398D03*
X0057872Y0109198D03*
X0037972Y0134598D03*
X0051072Y0142798D03*
X0067572Y0142898D03*
X0081172Y0134398D03*
D123*
X0068222Y0142398D03*
X0050422Y0142298D03*
X0079122Y0074198D03*
X0051022Y0067298D03*
X0050922Y0067398D03*
D124*
X0068322Y0067398D03*
X0080122Y0074798D03*
X0080222Y0074898D03*
X0057922Y0108598D03*
X0057922Y0108698D03*
X0038622Y0134998D03*
X0038722Y0135098D03*
X0067722Y0142798D03*
X0067822Y0142698D03*
X0080022Y0135098D03*
D125*
X0040522Y0136098D03*
X0057922Y0107498D03*
X0040522Y0073798D03*
X0050822Y0067498D03*
X0078322Y0073798D03*
D126*
X0079922Y0074698D03*
X0068522Y0067498D03*
X0038922Y0074698D03*
X0057922Y0108498D03*
X0079922Y0135198D03*
X0050722Y0142598D03*
X0050622Y0142498D03*
D127*
X0050172Y0142098D03*
X0068372Y0142198D03*
X0078272Y0136098D03*
X0057872Y0107398D03*
X0050672Y0067598D03*
D128*
X0068622Y0067598D03*
X0039422Y0074398D03*
X0079622Y0135398D03*
X0067922Y0142598D03*
D129*
X0077772Y0136398D03*
X0057872Y0106898D03*
X0041072Y0073498D03*
X0050572Y0067698D03*
D130*
X0039772Y0074198D03*
X0068672Y0067698D03*
X0057872Y0107898D03*
X0057872Y0107998D03*
X0039772Y0135698D03*
X0068072Y0142498D03*
X0079072Y0135698D03*
X0079272Y0135598D03*
D131*
X0068622Y0141998D03*
X0041122Y0136398D03*
X0077722Y0073498D03*
X0050422Y0067798D03*
D132*
X0039872Y0074098D03*
X0068872Y0067798D03*
X0078872Y0074098D03*
X0057872Y0107798D03*
X0039972Y0135798D03*
X0050272Y0142198D03*
X0078672Y0135898D03*
X0078872Y0135798D03*
D133*
X0041572Y0136598D03*
X0057872Y0106598D03*
X0057872Y0106498D03*
X0050372Y0067898D03*
D134*
X0040272Y0073898D03*
X0068972Y0067898D03*
X0078572Y0073898D03*
X0057872Y0107598D03*
X0040172Y0135898D03*
X0040272Y0135998D03*
X0078572Y0135998D03*
D135*
X0077072Y0136698D03*
X0068972Y0141698D03*
X0068872Y0141798D03*
X0049572Y0141598D03*
X0057872Y0106398D03*
X0057872Y0106298D03*
X0075472Y0084298D03*
X0075472Y0084198D03*
X0075572Y0084098D03*
X0077072Y0073198D03*
X0069472Y0068398D03*
X0050272Y0067998D03*
X0041972Y0073098D03*
X0041772Y0073198D03*
D136*
X0069072Y0067998D03*
X0068572Y0142098D03*
X0050072Y0141998D03*
D137*
X0041972Y0136798D03*
X0046672Y0128598D03*
X0057872Y0106198D03*
X0057872Y0106098D03*
X0075372Y0084698D03*
X0076872Y0073098D03*
X0050172Y0068098D03*
D138*
X0040922Y0073598D03*
X0069222Y0068098D03*
X0077922Y0073598D03*
X0057922Y0106998D03*
X0057922Y0107098D03*
X0040922Y0136298D03*
X0049922Y0141898D03*
X0077922Y0136298D03*
D139*
X0076672Y0136898D03*
X0069072Y0141598D03*
X0049372Y0141398D03*
X0046672Y0128298D03*
X0046772Y0128198D03*
X0057872Y0105898D03*
X0075272Y0085098D03*
X0075372Y0084798D03*
X0076472Y0072898D03*
X0069672Y0068598D03*
X0049972Y0068198D03*
X0042172Y0072998D03*
D140*
X0069272Y0068198D03*
X0077572Y0073398D03*
X0057872Y0106798D03*
X0041272Y0136498D03*
X0068772Y0141898D03*
X0077572Y0136498D03*
D141*
X0069322Y0141398D03*
X0042422Y0136998D03*
X0046922Y0127598D03*
X0057922Y0105698D03*
X0057922Y0105598D03*
X0075122Y0085698D03*
X0075222Y0085598D03*
X0042622Y0072798D03*
X0049922Y0068298D03*
X0069922Y0068798D03*
D142*
X0069422Y0068298D03*
X0077322Y0073298D03*
X0041522Y0073298D03*
X0041322Y0073398D03*
X0057922Y0106698D03*
X0077322Y0136598D03*
X0049822Y0141798D03*
D143*
X0049222Y0141198D03*
X0042722Y0137098D03*
X0069422Y0141298D03*
X0076122Y0137098D03*
X0047022Y0127298D03*
X0047022Y0127198D03*
X0046922Y0127398D03*
X0057922Y0105498D03*
X0057922Y0105398D03*
X0075022Y0086098D03*
X0075022Y0085998D03*
X0075122Y0085798D03*
X0049822Y0068398D03*
D144*
X0049672Y0068498D03*
X0069972Y0068898D03*
X0074972Y0086298D03*
X0047072Y0126898D03*
X0047072Y0127098D03*
X0042972Y0137198D03*
X0075972Y0137198D03*
D145*
X0076822Y0136798D03*
X0046622Y0128798D03*
X0075422Y0084498D03*
X0075422Y0084398D03*
X0069622Y0068498D03*
D146*
X0070222Y0069098D03*
X0075622Y0072598D03*
X0049622Y0068598D03*
X0043222Y0072598D03*
X0074822Y0086798D03*
X0074922Y0086598D03*
X0057922Y0105098D03*
X0047222Y0126298D03*
X0047222Y0126398D03*
D147*
X0047172Y0126498D03*
X0047272Y0126198D03*
X0043172Y0137298D03*
X0075672Y0137298D03*
X0057872Y0104998D03*
X0074772Y0087098D03*
X0074872Y0086998D03*
X0074772Y0086898D03*
X0049472Y0068698D03*
D148*
X0042422Y0072898D03*
X0069822Y0068698D03*
X0075322Y0084998D03*
X0075222Y0085198D03*
X0046822Y0127998D03*
X0046822Y0128098D03*
D149*
X0047272Y0126098D03*
X0047372Y0125798D03*
X0043472Y0137398D03*
X0048772Y0140798D03*
X0069672Y0140998D03*
X0075372Y0137398D03*
X0057872Y0104798D03*
X0057872Y0104698D03*
X0074672Y0087498D03*
X0075372Y0072498D03*
X0070272Y0069198D03*
X0049372Y0068798D03*
X0043472Y0072498D03*
D150*
X0049322Y0068898D03*
X0075122Y0072398D03*
X0074622Y0087898D03*
X0074522Y0087998D03*
X0047522Y0125198D03*
X0047422Y0125398D03*
X0043722Y0137498D03*
X0069922Y0140798D03*
D151*
X0069972Y0140698D03*
X0048672Y0140598D03*
X0047572Y0124998D03*
X0057872Y0104398D03*
X0057872Y0104298D03*
X0074472Y0088298D03*
X0074572Y0088098D03*
X0043772Y0072398D03*
X0049172Y0068998D03*
X0070572Y0069498D03*
D152*
X0070122Y0068998D03*
X0075922Y0072698D03*
X0042922Y0072698D03*
X0075022Y0086198D03*
X0074922Y0086498D03*
X0057922Y0105198D03*
X0057922Y0105298D03*
X0047022Y0126998D03*
X0049122Y0141098D03*
D153*
X0048422Y0140398D03*
X0044122Y0137598D03*
X0070122Y0140498D03*
X0074822Y0137598D03*
X0047722Y0124398D03*
X0047722Y0124298D03*
X0047622Y0124498D03*
X0057922Y0104098D03*
X0074322Y0088898D03*
X0074422Y0088798D03*
X0070722Y0069698D03*
X0070622Y0069598D03*
X0049122Y0069098D03*
X0049022Y0069198D03*
D154*
X0048972Y0069298D03*
X0070772Y0069798D03*
X0074472Y0072198D03*
X0074272Y0089298D03*
X0074172Y0089498D03*
X0047872Y0123798D03*
X0047872Y0123898D03*
X0047772Y0123998D03*
X0048272Y0140198D03*
X0048372Y0140298D03*
D155*
X0047422Y0125698D03*
X0074622Y0087698D03*
X0074722Y0087398D03*
X0070422Y0069298D03*
D156*
X0070922Y0069898D03*
X0048822Y0069398D03*
X0044522Y0072198D03*
X0074222Y0089398D03*
X0074122Y0089698D03*
X0047922Y0123698D03*
X0070222Y0140398D03*
D157*
X0069772Y0140898D03*
X0075072Y0137498D03*
X0048672Y0140698D03*
X0047372Y0125598D03*
X0047472Y0125498D03*
X0047472Y0125298D03*
X0057872Y0104598D03*
X0057872Y0104498D03*
X0074572Y0087798D03*
X0074672Y0087598D03*
X0070372Y0069398D03*
D158*
X0048772Y0069498D03*
X0044672Y0072098D03*
X0074072Y0089998D03*
X0073972Y0090198D03*
X0073972Y0090398D03*
X0048072Y0122898D03*
X0074172Y0137798D03*
X0070372Y0140198D03*
X0048172Y0139998D03*
D159*
X0048072Y0122798D03*
X0073872Y0090698D03*
X0073972Y0090498D03*
X0071072Y0070098D03*
X0048672Y0069598D03*
D160*
X0048572Y0069698D03*
X0048472Y0069798D03*
X0071272Y0070298D03*
X0073772Y0091098D03*
X0048272Y0122198D03*
X0048272Y0122298D03*
X0048172Y0122398D03*
X0045072Y0137898D03*
X0070572Y0139998D03*
D161*
X0070822Y0139798D03*
X0047722Y0139598D03*
X0048322Y0121798D03*
X0048422Y0121698D03*
X0048422Y0121598D03*
X0048422Y0121498D03*
X0073622Y0091598D03*
X0073722Y0091398D03*
X0071322Y0070398D03*
X0048422Y0069898D03*
X0048322Y0069998D03*
D162*
X0071022Y0069998D03*
X0074022Y0090098D03*
X0048022Y0123098D03*
X0048022Y0123198D03*
X0048022Y0123298D03*
X0047922Y0123398D03*
X0048122Y0140098D03*
D163*
X0047622Y0139398D03*
X0070922Y0139598D03*
X0071022Y0139498D03*
X0045522Y0071898D03*
X0048122Y0070198D03*
X0048222Y0070098D03*
D164*
X0071122Y0070198D03*
X0074122Y0072098D03*
X0074022Y0090298D03*
X0048122Y0122698D03*
X0048022Y0122998D03*
X0044722Y0137798D03*
X0070522Y0140098D03*
D165*
X0071072Y0139398D03*
X0048072Y0070298D03*
D166*
X0048022Y0070398D03*
X0071622Y0070798D03*
X0071722Y0070898D03*
X0047522Y0139298D03*
D167*
X0047922Y0070498D03*
D168*
X0071372Y0070498D03*
X0073772Y0091198D03*
X0073672Y0091498D03*
X0048372Y0121898D03*
X0048272Y0121998D03*
X0047872Y0139698D03*
D169*
X0047172Y0138898D03*
X0071372Y0139098D03*
X0072772Y0138098D03*
X0071972Y0071198D03*
X0047772Y0070598D03*
D170*
X0071472Y0070598D03*
X0073372Y0071898D03*
X0048472Y0121098D03*
X0048472Y0121198D03*
X0045472Y0137998D03*
D171*
X0047172Y0138798D03*
X0071372Y0138998D03*
X0072772Y0071798D03*
X0071972Y0071298D03*
X0047772Y0070698D03*
X0046072Y0071798D03*
D172*
X0071522Y0070698D03*
X0048422Y0121398D03*
X0073422Y0137998D03*
D173*
X0047072Y0138698D03*
X0046972Y0138598D03*
X0047572Y0070898D03*
X0047672Y0070798D03*
X0072172Y0071498D03*
D174*
X0072222Y0071698D03*
X0047522Y0070998D03*
D175*
X0071772Y0070998D03*
X0071872Y0071098D03*
X0071272Y0139198D03*
X0047372Y0139098D03*
X0047272Y0138998D03*
D176*
X0046872Y0138398D03*
X0071672Y0138598D03*
X0047472Y0071098D03*
D177*
X0047372Y0071198D03*
X0047272Y0071298D03*
X0046772Y0138298D03*
X0072172Y0138198D03*
D178*
X0047122Y0071498D03*
X0047222Y0071398D03*
D179*
X0072122Y0071398D03*
X0071522Y0138898D03*
D180*
X0047122Y0071598D03*
D181*
X0072272Y0071598D03*
X0071672Y0138698D03*
X0046972Y0138498D03*
D182*
X0071822Y0138398D03*
X0046722Y0071698D03*
D183*
X0045122Y0071998D03*
X0073722Y0071998D03*
X0073822Y0090998D03*
X0073722Y0091298D03*
X0048322Y0122098D03*
X0073722Y0137898D03*
X0070622Y0139898D03*
D184*
X0070072Y0140598D03*
X0074472Y0137698D03*
X0074272Y0088998D03*
X0044072Y0072298D03*
D185*
X0074822Y0072298D03*
X0074522Y0088198D03*
X0074422Y0088498D03*
X0047622Y0124698D03*
X0047622Y0124798D03*
X0047522Y0125098D03*
D186*
X0046972Y0127498D03*
X0046872Y0127698D03*
X0075072Y0085898D03*
X0076172Y0072798D03*
D187*
X0076622Y0072998D03*
X0075422Y0084598D03*
X0075322Y0084898D03*
X0057922Y0105998D03*
X0046722Y0128398D03*
X0046722Y0128498D03*
X0046622Y0128698D03*
X0042222Y0136898D03*
X0049522Y0141498D03*
D188*
X0040722Y0136198D03*
X0078122Y0136198D03*
X0057922Y0107298D03*
X0057922Y0107198D03*
X0040722Y0073698D03*
X0078122Y0073698D03*
D189*
X0078722Y0073998D03*
X0040222Y0073998D03*
X0057922Y0107698D03*
X0068322Y0142298D03*
D190*
X0050522Y0142398D03*
X0039622Y0135598D03*
X0039622Y0074298D03*
X0079222Y0074298D03*
D191*
X0079372Y0074398D03*
X0057872Y0108098D03*
X0057872Y0108198D03*
X0039272Y0135398D03*
X0039372Y0135498D03*
X0079372Y0135498D03*
D192*
X0080272Y0134998D03*
X0080572Y0134798D03*
X0038572Y0074898D03*
X0038272Y0075098D03*
D193*
X0080672Y0075098D03*
X0080672Y0075198D03*
X0057872Y0108998D03*
X0038172Y0134698D03*
X0050872Y0142698D03*
X0080872Y0134598D03*
D194*
X0067472Y0142998D03*
X0051072Y0142898D03*
X0037672Y0134398D03*
X0037372Y0134198D03*
X0057872Y0109398D03*
X0037272Y0075798D03*
X0081372Y0075598D03*
D195*
X0081422Y0075698D03*
X0081622Y0075798D03*
X0081622Y0134098D03*
X0081422Y0134198D03*
D196*
X0082022Y0133798D03*
X0082222Y0133698D03*
X0082322Y0133598D03*
X0067122Y0143198D03*
X0036722Y0133698D03*
X0036522Y0133598D03*
X0036422Y0133498D03*
X0036422Y0076398D03*
X0082422Y0076398D03*
D197*
X0084372Y0077998D03*
X0084572Y0078198D03*
X0084872Y0078398D03*
X0034372Y0078098D03*
X0034272Y0078198D03*
X0034072Y0078298D03*
X0057872Y0110998D03*
X0034272Y0131698D03*
X0033972Y0131498D03*
X0066572Y0143598D03*
X0084672Y0131698D03*
D198*
X0086322Y0130098D03*
X0086522Y0129798D03*
X0066222Y0143798D03*
X0052322Y0143698D03*
X0032422Y0129998D03*
X0032422Y0129898D03*
X0057922Y0111698D03*
X0086522Y0080098D03*
X0032522Y0079898D03*
X0032522Y0079798D03*
D199*
X0031422Y0080998D03*
X0031322Y0081198D03*
X0031122Y0081398D03*
X0087422Y0080998D03*
X0087522Y0081198D03*
X0087722Y0081398D03*
X0087822Y0081498D03*
X0057922Y0111998D03*
X0057922Y0112098D03*
X0031622Y0129098D03*
X0031322Y0128798D03*
X0031322Y0128698D03*
X0031222Y0128598D03*
X0031022Y0128398D03*
X0052422Y0143798D03*
X0087322Y0128998D03*
X0087522Y0128698D03*
X0087722Y0128498D03*
D200*
X0087922Y0128298D03*
X0088022Y0128098D03*
X0088222Y0127998D03*
X0088222Y0127898D03*
X0088522Y0127498D03*
X0057922Y0112298D03*
X0057922Y0112198D03*
X0031122Y0128498D03*
X0030722Y0128098D03*
X0030722Y0127998D03*
X0030522Y0127798D03*
X0052622Y0143898D03*
X0030422Y0082198D03*
X0030622Y0081998D03*
X0030922Y0081598D03*
X0088122Y0081898D03*
X0088322Y0082098D03*
D201*
X0088522Y0082398D03*
X0088722Y0082598D03*
X0088822Y0082698D03*
X0089122Y0083098D03*
X0072622Y0083998D03*
X0030322Y0082398D03*
X0030222Y0082498D03*
X0030122Y0082598D03*
X0030022Y0082698D03*
X0029922Y0082898D03*
X0057922Y0112398D03*
X0057922Y0112498D03*
X0030222Y0127398D03*
X0030122Y0127298D03*
X0030022Y0127198D03*
X0029722Y0126798D03*
X0088522Y0127598D03*
X0088622Y0127398D03*
X0088722Y0127298D03*
X0088822Y0127198D03*
X0088822Y0127098D03*
D202*
X0089222Y0126598D03*
X0089322Y0126498D03*
X0089422Y0126398D03*
X0089522Y0126198D03*
X0089622Y0126098D03*
X0089822Y0125798D03*
X0052822Y0143998D03*
X0029622Y0126598D03*
X0029522Y0126498D03*
X0029422Y0126398D03*
X0029422Y0126298D03*
X0029222Y0126098D03*
X0029222Y0083798D03*
X0029422Y0083498D03*
X0029522Y0083398D03*
X0029622Y0083298D03*
X0089322Y0083398D03*
X0089422Y0083498D03*
X0089522Y0083698D03*
D203*
X0089922Y0084198D03*
X0090022Y0084398D03*
X0090122Y0084498D03*
X0090222Y0084698D03*
X0090322Y0084798D03*
X0072422Y0083898D03*
X0068422Y0091898D03*
X0068222Y0092298D03*
X0068122Y0092398D03*
X0068122Y0092498D03*
X0068022Y0092598D03*
X0067922Y0092898D03*
X0067822Y0092998D03*
X0067822Y0093098D03*
X0067722Y0093198D03*
X0067722Y0093298D03*
X0067622Y0093398D03*
X0067622Y0093498D03*
X0067522Y0093698D03*
X0067422Y0093798D03*
X0067422Y0093898D03*
X0067322Y0093998D03*
X0067322Y0094098D03*
X0067222Y0094198D03*
X0067122Y0094398D03*
X0067022Y0094598D03*
X0066922Y0094798D03*
X0066822Y0094998D03*
X0066722Y0095298D03*
X0066622Y0095398D03*
X0066622Y0095498D03*
X0066522Y0095598D03*
X0066522Y0095698D03*
X0066422Y0095798D03*
X0066322Y0095998D03*
X0066322Y0096098D03*
X0066222Y0096198D03*
X0066122Y0096398D03*
X0066022Y0096598D03*
X0065922Y0096898D03*
X0065822Y0096998D03*
X0065822Y0097098D03*
X0065722Y0097298D03*
X0065622Y0097398D03*
X0065622Y0097498D03*
X0065522Y0097598D03*
X0065522Y0097698D03*
X0065422Y0097798D03*
X0065322Y0097998D03*
X0065222Y0098198D03*
X0065122Y0098398D03*
X0065122Y0098498D03*
X0065022Y0098598D03*
X0065022Y0098698D03*
X0064922Y0098898D03*
X0064822Y0098998D03*
X0064822Y0099098D03*
X0064722Y0099198D03*
X0064722Y0099298D03*
X0064622Y0099398D03*
X0064522Y0099598D03*
X0064422Y0099798D03*
X0064322Y0099998D03*
X0064322Y0100098D03*
X0064222Y0100198D03*
X0064222Y0100298D03*
X0064122Y0100498D03*
X0064022Y0100598D03*
X0064022Y0100698D03*
X0063922Y0100798D03*
X0063922Y0100898D03*
X0063822Y0100998D03*
X0063722Y0101198D03*
X0063622Y0101398D03*
X0063622Y0101498D03*
X0063522Y0101598D03*
X0063422Y0101798D03*
X0063422Y0101898D03*
X0063322Y0101998D03*
X0063322Y0102098D03*
X0063122Y0102398D03*
X0063122Y0102498D03*
X0063022Y0102598D03*
X0062922Y0102798D03*
X0062822Y0102998D03*
X0062722Y0103198D03*
X0062722Y0103298D03*
X0062622Y0103398D03*
X0062622Y0103498D03*
X0062522Y0103598D03*
X0062522Y0103698D03*
X0062322Y0103998D03*
X0053422Y0103898D03*
X0053422Y0103798D03*
X0053322Y0103698D03*
X0053222Y0103498D03*
X0053222Y0103398D03*
X0053122Y0103298D03*
X0053022Y0103198D03*
X0053022Y0103098D03*
X0052922Y0102898D03*
X0052822Y0102798D03*
X0052722Y0102598D03*
X0052722Y0102498D03*
X0052622Y0102298D03*
X0052522Y0102098D03*
X0052522Y0101998D03*
X0052422Y0101898D03*
X0052322Y0101698D03*
X0052122Y0101298D03*
X0052022Y0101098D03*
X0051922Y0100998D03*
X0051922Y0100898D03*
X0051822Y0100698D03*
X0051722Y0100498D03*
X0051722Y0100398D03*
X0051622Y0100298D03*
X0051522Y0100098D03*
X0051422Y0099898D03*
X0051322Y0099798D03*
X0051322Y0099698D03*
X0051222Y0099598D03*
X0051222Y0099498D03*
X0051122Y0099398D03*
X0051122Y0099298D03*
X0051122Y0099198D03*
X0051022Y0099098D03*
X0051022Y0098998D03*
X0050922Y0098898D03*
X0050822Y0098698D03*
X0050722Y0098498D03*
X0050622Y0098298D03*
X0050522Y0098198D03*
X0050522Y0098098D03*
X0050422Y0097998D03*
X0050422Y0097898D03*
X0050322Y0097698D03*
X0050222Y0097498D03*
X0050122Y0097298D03*
X0050022Y0097098D03*
X0050022Y0096998D03*
X0049922Y0096898D03*
X0049822Y0096798D03*
X0049822Y0096698D03*
X0049822Y0096598D03*
X0049722Y0096498D03*
X0049622Y0096398D03*
X0049522Y0096198D03*
X0049522Y0096098D03*
X0049422Y0095998D03*
X0049422Y0095898D03*
X0049322Y0095798D03*
X0049322Y0095698D03*
X0049122Y0095298D03*
X0049022Y0095098D03*
X0049022Y0094998D03*
X0048922Y0094898D03*
X0048822Y0094798D03*
X0048822Y0094698D03*
X0048622Y0094298D03*
X0048522Y0094198D03*
X0048522Y0094098D03*
X0048422Y0093898D03*
X0048322Y0093698D03*
X0048322Y0093598D03*
X0048222Y0093498D03*
X0048122Y0093298D03*
X0048022Y0093198D03*
X0048022Y0093098D03*
X0047922Y0092898D03*
X0047822Y0092798D03*
X0047822Y0092698D03*
X0047722Y0092498D03*
X0047622Y0092298D03*
X0047522Y0092198D03*
X0047522Y0092098D03*
X0047522Y0091998D03*
X0047422Y0091898D03*
X0047322Y0091698D03*
X0047222Y0091598D03*
X0047222Y0091498D03*
X0047122Y0091398D03*
X0047122Y0091298D03*
X0047022Y0091098D03*
X0046922Y0090898D03*
X0046822Y0090698D03*
X0046722Y0090498D03*
X0046722Y0090398D03*
X0046622Y0090298D03*
X0046522Y0090198D03*
X0046522Y0090098D03*
X0046522Y0089998D03*
X0046422Y0089898D03*
X0046322Y0089798D03*
X0046322Y0089698D03*
X0046222Y0089598D03*
X0046222Y0089498D03*
X0046122Y0089398D03*
X0046122Y0089298D03*
X0046022Y0089098D03*
X0046022Y0088998D03*
X0045922Y0088898D03*
X0045822Y0088698D03*
X0045722Y0088598D03*
X0045722Y0088498D03*
X0045722Y0088398D03*
X0045622Y0088298D03*
X0045522Y0088098D03*
X0045422Y0087998D03*
X0045422Y0087898D03*
X0045322Y0087698D03*
X0045222Y0087598D03*
X0045222Y0087498D03*
X0045122Y0087298D03*
X0045022Y0087098D03*
X0045022Y0086998D03*
X0044922Y0086898D03*
X0044822Y0086798D03*
X0044822Y0086698D03*
X0044722Y0086598D03*
X0044722Y0086498D03*
X0044622Y0086398D03*
X0044622Y0086298D03*
X0044522Y0086198D03*
X0044522Y0086098D03*
X0044422Y0085998D03*
X0044422Y0085898D03*
X0044322Y0085698D03*
X0044222Y0085498D03*
X0044122Y0085398D03*
X0044122Y0085298D03*
X0044022Y0085098D03*
X0043922Y0084898D03*
X0043822Y0084798D03*
X0043722Y0084598D03*
X0043722Y0084498D03*
X0043622Y0084398D03*
X0043622Y0084298D03*
X0043522Y0084098D03*
X0043422Y0083898D03*
X0028822Y0084298D03*
X0028822Y0084398D03*
X0028722Y0084498D03*
X0028722Y0084598D03*
X0028622Y0084698D03*
X0028522Y0084798D03*
X0057822Y0112998D03*
X0057722Y0113198D03*
X0057622Y0113398D03*
X0057622Y0113498D03*
X0057522Y0113598D03*
X0057522Y0113698D03*
X0057422Y0113898D03*
X0057322Y0113998D03*
X0057322Y0114098D03*
X0057222Y0114198D03*
X0057122Y0114398D03*
X0057122Y0114498D03*
X0057022Y0114598D03*
X0056922Y0114798D03*
X0056822Y0114998D03*
X0056822Y0115098D03*
X0056722Y0115298D03*
X0056622Y0115398D03*
X0056622Y0115498D03*
X0056522Y0115598D03*
X0056522Y0115698D03*
X0056422Y0115798D03*
X0056322Y0115998D03*
X0056322Y0116098D03*
X0056222Y0116198D03*
X0056122Y0116398D03*
X0056022Y0116598D03*
X0055922Y0116798D03*
X0055922Y0116898D03*
X0055822Y0117098D03*
X0055722Y0117198D03*
X0055722Y0117298D03*
X0055622Y0117398D03*
X0055522Y0117598D03*
X0055522Y0117698D03*
X0055422Y0117798D03*
X0055322Y0117998D03*
X0055322Y0118098D03*
X0055222Y0118198D03*
X0055122Y0118398D03*
X0055122Y0118498D03*
X0055022Y0118598D03*
X0055022Y0118698D03*
X0054922Y0118898D03*
X0054822Y0118998D03*
X0054722Y0119198D03*
X0054722Y0119298D03*
X0054622Y0119398D03*
X0054522Y0119498D03*
X0054522Y0119598D03*
X0054422Y0119698D03*
X0054422Y0119798D03*
X0054422Y0119898D03*
X0054322Y0119998D03*
X0054322Y0120098D03*
X0054222Y0120198D03*
X0054022Y0120598D03*
X0054022Y0120698D03*
X0053922Y0120798D03*
X0029022Y0125798D03*
X0028822Y0125498D03*
X0028722Y0125398D03*
X0028622Y0125198D03*
X0089922Y0125598D03*
X0089922Y0125698D03*
X0090022Y0125498D03*
X0090122Y0125398D03*
X0090222Y0125198D03*
X0090522Y0124798D03*
D204*
X0090572Y0124698D03*
X0090372Y0124998D03*
X0090272Y0125098D03*
X0090172Y0125298D03*
X0057472Y0113798D03*
X0057672Y0113298D03*
X0057772Y0113098D03*
X0057872Y0112898D03*
X0057172Y0114298D03*
X0056972Y0114698D03*
X0056872Y0114898D03*
X0056772Y0115198D03*
X0056372Y0115898D03*
X0056172Y0116298D03*
X0056072Y0116498D03*
X0055972Y0116698D03*
X0055872Y0116998D03*
X0055572Y0117498D03*
X0055372Y0117898D03*
X0055172Y0118298D03*
X0054972Y0118798D03*
X0054772Y0119098D03*
X0054172Y0120398D03*
X0028672Y0125298D03*
X0028572Y0125098D03*
X0028472Y0124998D03*
X0028372Y0124898D03*
X0028372Y0124798D03*
X0028272Y0124698D03*
X0028172Y0124498D03*
X0053472Y0103998D03*
X0053272Y0103598D03*
X0052672Y0102398D03*
X0052572Y0102198D03*
X0052372Y0101798D03*
X0052172Y0101498D03*
X0051872Y0100798D03*
X0051772Y0100598D03*
X0051572Y0100198D03*
X0050872Y0098798D03*
X0050772Y0098598D03*
X0050272Y0097598D03*
X0050072Y0097198D03*
X0049272Y0095598D03*
X0049172Y0095398D03*
X0049072Y0095198D03*
X0048672Y0094498D03*
X0048472Y0093998D03*
X0048372Y0093798D03*
X0047672Y0092398D03*
X0047372Y0091798D03*
X0046872Y0090798D03*
X0046772Y0090598D03*
X0045872Y0088798D03*
X0045172Y0087398D03*
X0044372Y0085798D03*
X0044272Y0085598D03*
X0044072Y0085198D03*
X0043972Y0084998D03*
X0043772Y0084698D03*
X0043572Y0084198D03*
X0043472Y0083998D03*
X0028472Y0084898D03*
X0028372Y0085098D03*
X0028272Y0085198D03*
X0027972Y0085698D03*
X0065172Y0098298D03*
X0065272Y0098098D03*
X0065372Y0097898D03*
X0065672Y0097198D03*
X0065972Y0096798D03*
X0065972Y0096698D03*
X0066072Y0096498D03*
X0066172Y0096298D03*
X0066372Y0095898D03*
X0066772Y0095198D03*
X0066772Y0095098D03*
X0066872Y0094898D03*
X0066972Y0094698D03*
X0067072Y0094498D03*
X0067172Y0094298D03*
X0067572Y0093598D03*
X0067972Y0092698D03*
X0068272Y0092198D03*
X0068372Y0091998D03*
X0064972Y0098798D03*
X0064572Y0099498D03*
X0064472Y0099698D03*
X0064372Y0099898D03*
X0064172Y0100398D03*
X0063772Y0101098D03*
X0063672Y0101298D03*
X0063472Y0101698D03*
X0063272Y0102198D03*
X0062972Y0102698D03*
X0062872Y0102898D03*
X0062772Y0103098D03*
X0062472Y0103798D03*
X0090372Y0084998D03*
X0090372Y0084898D03*
X0090172Y0084598D03*
X0090572Y0085198D03*
X0090672Y0085298D03*
X0090672Y0085398D03*
D205*
X0075272Y0085398D03*
X0075172Y0085298D03*
X0075172Y0085498D03*
X0057872Y0105798D03*
X0046872Y0127798D03*
X0046772Y0127898D03*
X0076372Y0136998D03*
X0069172Y0141498D03*
X0049272Y0141298D03*
D206*
X0027422Y0123298D03*
X0027322Y0123198D03*
X0027322Y0123098D03*
X0027222Y0122998D03*
X0027122Y0122798D03*
X0027022Y0122598D03*
X0091322Y0123498D03*
X0091422Y0123298D03*
X0091522Y0123198D03*
X0091522Y0123098D03*
X0091722Y0122798D03*
X0091822Y0122598D03*
X0092022Y0087598D03*
X0091822Y0087298D03*
X0091722Y0087098D03*
X0091622Y0086998D03*
X0091622Y0086898D03*
X0091622Y0086798D03*
X0091322Y0086398D03*
X0091222Y0086298D03*
X0027722Y0086098D03*
X0027422Y0086598D03*
X0027322Y0086698D03*
X0027322Y0086798D03*
X0027222Y0086898D03*
X0027122Y0087098D03*
X0027022Y0087298D03*
D207*
X0074872Y0086698D03*
X0074972Y0086398D03*
X0047172Y0126598D03*
X0047172Y0126698D03*
X0047072Y0126798D03*
X0048972Y0140998D03*
X0069472Y0141198D03*
X0069572Y0141098D03*
D208*
X0091672Y0122898D03*
X0091772Y0122698D03*
X0091872Y0122498D03*
X0091972Y0122398D03*
X0091972Y0122298D03*
X0092072Y0122198D03*
X0092172Y0121898D03*
X0027172Y0122898D03*
X0027072Y0122698D03*
X0026972Y0122498D03*
X0026872Y0122298D03*
X0026772Y0122198D03*
X0026772Y0122098D03*
X0026572Y0121798D03*
X0026672Y0087898D03*
X0026772Y0087798D03*
X0026872Y0087598D03*
X0026872Y0087498D03*
X0026972Y0087398D03*
X0027072Y0087198D03*
X0027172Y0086998D03*
X0091472Y0086698D03*
X0091772Y0087198D03*
X0091872Y0087398D03*
X0091972Y0087498D03*
D209*
X0074822Y0087198D03*
X0074722Y0087298D03*
X0057922Y0104898D03*
X0047322Y0125898D03*
X0047322Y0125998D03*
X0048922Y0140898D03*
D210*
X0048572Y0140498D03*
X0047572Y0124898D03*
X0047672Y0124598D03*
X0057872Y0104198D03*
X0074372Y0088698D03*
X0074372Y0088598D03*
X0074472Y0088398D03*
D211*
X0074322Y0089098D03*
X0074222Y0089198D03*
X0047822Y0124098D03*
X0047722Y0124198D03*
X0044322Y0137698D03*
D212*
X0026022Y0120698D03*
X0025922Y0120398D03*
X0025822Y0120198D03*
X0025722Y0119998D03*
X0025622Y0119898D03*
X0025622Y0119798D03*
X0025522Y0119598D03*
X0025422Y0119298D03*
X0025322Y0119098D03*
X0092922Y0120498D03*
X0093022Y0120198D03*
X0093122Y0120098D03*
X0093122Y0119998D03*
X0093222Y0119798D03*
X0093322Y0119598D03*
X0093522Y0119098D03*
X0093522Y0090798D03*
X0093422Y0090598D03*
X0093322Y0090398D03*
X0093322Y0090298D03*
X0093222Y0090098D03*
X0093222Y0089998D03*
X0093122Y0089898D03*
X0093022Y0089698D03*
X0092922Y0089498D03*
X0025922Y0089498D03*
X0025822Y0089698D03*
X0025722Y0089798D03*
X0025722Y0089898D03*
X0025622Y0090098D03*
X0025522Y0090298D03*
X0025522Y0090398D03*
D213*
X0074072Y0089898D03*
X0074072Y0089798D03*
X0074172Y0089598D03*
X0047972Y0123498D03*
X0047872Y0123598D03*
X0070372Y0140298D03*
D214*
X0048022Y0139898D03*
X0047922Y0139798D03*
X0048122Y0122598D03*
X0048222Y0122498D03*
X0073822Y0090898D03*
X0073822Y0090798D03*
X0073922Y0090598D03*
D215*
X0093722Y0091298D03*
X0093822Y0091498D03*
X0093922Y0091698D03*
X0093922Y0091798D03*
X0093922Y0091898D03*
X0094022Y0091998D03*
X0094022Y0092098D03*
X0094122Y0092298D03*
X0094122Y0092398D03*
X0094222Y0092498D03*
X0094222Y0092598D03*
X0094322Y0092898D03*
X0025122Y0091298D03*
X0025022Y0091498D03*
X0025022Y0091598D03*
X0024922Y0091798D03*
X0024822Y0091998D03*
X0024822Y0092098D03*
X0024722Y0092298D03*
X0024722Y0092398D03*
X0024622Y0092498D03*
X0024622Y0092598D03*
X0024522Y0092898D03*
X0024322Y0116398D03*
X0024522Y0116998D03*
X0024522Y0117098D03*
X0024622Y0117298D03*
X0024722Y0117598D03*
X0024822Y0117798D03*
X0024822Y0117898D03*
X0024922Y0118098D03*
X0024922Y0118198D03*
X0025022Y0118298D03*
X0025022Y0118398D03*
X0025122Y0118598D03*
X0093722Y0118598D03*
X0093822Y0118298D03*
X0093922Y0118198D03*
X0093922Y0118098D03*
X0093922Y0117998D03*
X0094022Y0117798D03*
X0094122Y0117598D03*
X0094222Y0117398D03*
X0094222Y0117298D03*
X0094322Y0116898D03*
X0065222Y0144398D03*
X0053322Y0144298D03*
D216*
X0047672Y0139498D03*
X0070872Y0139698D03*
X0048472Y0121298D03*
X0073672Y0091698D03*
D217*
X0094072Y0092198D03*
X0094272Y0092698D03*
X0094272Y0092798D03*
X0094372Y0092998D03*
X0094372Y0093098D03*
X0094372Y0093198D03*
X0094472Y0093298D03*
X0094472Y0093398D03*
X0094572Y0093498D03*
X0094572Y0093598D03*
X0094572Y0093698D03*
X0094672Y0093898D03*
X0094672Y0093998D03*
X0094872Y0094598D03*
X0094772Y0115698D03*
X0094672Y0115898D03*
X0094672Y0115998D03*
X0094572Y0116198D03*
X0094572Y0116298D03*
X0094572Y0116398D03*
X0094472Y0116498D03*
X0094472Y0116598D03*
X0094472Y0116698D03*
X0094372Y0116798D03*
X0094372Y0116998D03*
X0094272Y0117098D03*
X0094272Y0117198D03*
X0094172Y0117498D03*
X0094072Y0117698D03*
X0024772Y0117698D03*
X0024672Y0117498D03*
X0024672Y0117398D03*
X0024572Y0117198D03*
X0024472Y0116898D03*
X0024472Y0116798D03*
X0024372Y0116698D03*
X0024372Y0116598D03*
X0024272Y0116298D03*
X0024172Y0115998D03*
X0024172Y0115898D03*
X0024072Y0115698D03*
X0024072Y0094298D03*
X0024072Y0094198D03*
X0024172Y0093998D03*
X0024172Y0093898D03*
X0024272Y0093698D03*
X0024272Y0093598D03*
X0024272Y0093498D03*
X0024372Y0093398D03*
X0024372Y0093298D03*
X0024372Y0093198D03*
X0024472Y0093098D03*
X0024472Y0092998D03*
X0024572Y0092798D03*
X0024572Y0092698D03*
X0024772Y0092198D03*
D218*
X0023622Y0095798D03*
X0023322Y0096998D03*
X0023222Y0097498D03*
X0023222Y0097598D03*
X0023222Y0097698D03*
X0023122Y0097998D03*
X0023122Y0098098D03*
X0023122Y0098298D03*
X0023022Y0098498D03*
X0023022Y0098598D03*
X0023022Y0098698D03*
X0023022Y0098798D03*
X0022922Y0099098D03*
X0022922Y0099198D03*
X0022922Y0099298D03*
X0022922Y0099398D03*
X0022822Y0099698D03*
X0022822Y0099798D03*
X0022822Y0099898D03*
X0022822Y0100098D03*
X0022822Y0100198D03*
X0022722Y0100498D03*
X0022722Y0100698D03*
X0022722Y0100898D03*
X0022622Y0101298D03*
X0022622Y0101498D03*
X0022622Y0101698D03*
X0022622Y0101798D03*
X0022622Y0101998D03*
X0022522Y0102598D03*
X0022522Y0102798D03*
X0022522Y0107198D03*
X0022622Y0107898D03*
X0022622Y0108098D03*
X0022622Y0108198D03*
X0022622Y0108398D03*
X0022622Y0108798D03*
X0022722Y0108998D03*
X0022722Y0109098D03*
X0022722Y0109198D03*
X0022722Y0109298D03*
X0022722Y0109398D03*
X0022722Y0109598D03*
X0022822Y0109698D03*
X0022822Y0109898D03*
X0022822Y0109998D03*
X0022822Y0110098D03*
X0022822Y0110298D03*
X0022922Y0110398D03*
X0022922Y0110598D03*
X0022922Y0110698D03*
X0022922Y0110798D03*
X0022922Y0110898D03*
X0023022Y0111098D03*
X0023022Y0111198D03*
X0023022Y0111298D03*
X0023022Y0111398D03*
X0023122Y0111698D03*
X0023122Y0111798D03*
X0023122Y0111898D03*
X0023122Y0111998D03*
X0023222Y0112098D03*
X0023222Y0112298D03*
X0023222Y0112498D03*
X0023322Y0112698D03*
X0023322Y0112798D03*
X0095222Y0114098D03*
X0095522Y0112798D03*
X0095522Y0112698D03*
X0095622Y0112398D03*
X0095622Y0112298D03*
X0095622Y0112198D03*
X0095722Y0112098D03*
X0095722Y0111898D03*
X0095722Y0111698D03*
X0095822Y0111398D03*
X0095822Y0111298D03*
X0095822Y0111198D03*
X0095822Y0111098D03*
X0095922Y0110998D03*
X0095822Y0110898D03*
X0095922Y0110798D03*
X0095922Y0110698D03*
X0095922Y0110598D03*
X0095922Y0110498D03*
X0096022Y0110198D03*
X0096022Y0110098D03*
X0096022Y0109998D03*
X0096022Y0109798D03*
X0096022Y0109698D03*
X0096122Y0109598D03*
X0096122Y0109298D03*
X0096122Y0109098D03*
X0096122Y0108898D03*
X0096222Y0108598D03*
X0096222Y0108398D03*
X0096222Y0108198D03*
X0096222Y0108098D03*
X0096222Y0107898D03*
X0096322Y0102798D03*
X0096322Y0102598D03*
X0096222Y0102298D03*
X0096222Y0101698D03*
X0096222Y0101498D03*
X0096222Y0101298D03*
X0096122Y0100898D03*
X0096122Y0100798D03*
X0096122Y0100698D03*
X0096122Y0100498D03*
X0096122Y0100398D03*
X0096022Y0099998D03*
X0096022Y0099898D03*
X0096022Y0099798D03*
X0096022Y0099598D03*
X0095922Y0099498D03*
X0095922Y0099398D03*
X0095922Y0099298D03*
X0095922Y0099198D03*
X0095922Y0099098D03*
X0095822Y0098698D03*
X0095822Y0098598D03*
X0095822Y0098498D03*
X0095722Y0098298D03*
X0095722Y0098098D03*
X0095722Y0097998D03*
X0095622Y0097798D03*
X0095622Y0097598D03*
X0095622Y0097498D03*
X0095522Y0097298D03*
X0095522Y0097098D03*
D219*
X0041722Y0136698D03*
X0049722Y0141698D03*
D220*
X0046122Y0138098D03*
D221*
X0046622Y0138198D03*
X0071822Y0138498D03*
D222*
X0071872Y0138298D03*
D223*
X0071522Y0138798D03*
D224*
X0047472Y0139198D03*
D225*
X0071122Y0139298D03*
D226*
X0110859Y0070210D02*
X0113086Y0070210D01*
X0137584Y0045712D01*
X0137584Y0043485D01*
X0113086Y0018987D01*
X0110859Y0018987D01*
X0086361Y0043485D01*
X0086361Y0045712D01*
X0110859Y0070210D01*
X0069016Y0054657D02*
X0067441Y0054657D01*
X0067441Y0049539D01*
X0061929Y0049539D01*
X0067441Y0049539D02*
X0069016Y0049539D01*
X0067441Y0054657D02*
X0061929Y0054657D01*
X0138421Y0026610D02*
X0142040Y0022991D01*
X0131601Y0012552D02*
X0127982Y0016171D01*
X0153961Y0040205D02*
X0153961Y0043354D01*
X0156323Y0043354D01*
X0162622Y0043354D02*
X0164984Y0043354D01*
X0164984Y0040205D01*
D227*
X0088588Y0044598D02*
X0088590Y0044665D01*
X0088596Y0044731D01*
X0088606Y0044797D01*
X0088620Y0044862D01*
X0088637Y0044926D01*
X0088659Y0044989D01*
X0088684Y0045051D01*
X0088713Y0045111D01*
X0088746Y0045169D01*
X0088781Y0045225D01*
X0088821Y0045279D01*
X0088863Y0045330D01*
X0088908Y0045379D01*
X0088956Y0045425D01*
X0089007Y0045468D01*
X0089060Y0045508D01*
X0089116Y0045545D01*
X0089174Y0045578D01*
X0089233Y0045608D01*
X0089294Y0045634D01*
X0089357Y0045657D01*
X0089421Y0045675D01*
X0089486Y0045690D01*
X0089552Y0045701D01*
X0089618Y0045708D01*
X0089684Y0045711D01*
X0089751Y0045710D01*
X0089817Y0045705D01*
X0089883Y0045696D01*
X0089949Y0045683D01*
X0090013Y0045666D01*
X0090076Y0045646D01*
X0090138Y0045621D01*
X0090199Y0045593D01*
X0090258Y0045562D01*
X0090314Y0045527D01*
X0090369Y0045489D01*
X0090421Y0045447D01*
X0090470Y0045402D01*
X0090517Y0045355D01*
X0090561Y0045305D01*
X0090601Y0045252D01*
X0090639Y0045197D01*
X0090673Y0045140D01*
X0090704Y0045081D01*
X0090731Y0045020D01*
X0090754Y0044958D01*
X0090774Y0044894D01*
X0090790Y0044829D01*
X0090802Y0044764D01*
X0090810Y0044698D01*
X0090814Y0044631D01*
X0090814Y0044565D01*
X0090810Y0044498D01*
X0090802Y0044432D01*
X0090790Y0044367D01*
X0090774Y0044302D01*
X0090754Y0044238D01*
X0090731Y0044176D01*
X0090704Y0044115D01*
X0090673Y0044056D01*
X0090639Y0043999D01*
X0090601Y0043944D01*
X0090561Y0043891D01*
X0090517Y0043841D01*
X0090470Y0043794D01*
X0090421Y0043749D01*
X0090369Y0043707D01*
X0090314Y0043669D01*
X0090257Y0043634D01*
X0090199Y0043603D01*
X0090138Y0043575D01*
X0090076Y0043550D01*
X0090013Y0043530D01*
X0089949Y0043513D01*
X0089883Y0043500D01*
X0089817Y0043491D01*
X0089751Y0043486D01*
X0089684Y0043485D01*
X0089618Y0043488D01*
X0089552Y0043495D01*
X0089486Y0043506D01*
X0089421Y0043521D01*
X0089357Y0043539D01*
X0089294Y0043562D01*
X0089233Y0043588D01*
X0089174Y0043618D01*
X0089116Y0043651D01*
X0089060Y0043688D01*
X0089007Y0043728D01*
X0088956Y0043771D01*
X0088908Y0043817D01*
X0088863Y0043866D01*
X0088821Y0043917D01*
X0088781Y0043971D01*
X0088746Y0044027D01*
X0088713Y0044085D01*
X0088684Y0044145D01*
X0088659Y0044207D01*
X0088637Y0044270D01*
X0088620Y0044334D01*
X0088606Y0044399D01*
X0088596Y0044465D01*
X0088590Y0044531D01*
X0088588Y0044598D01*
X0035283Y0040012D02*
X0035283Y0030957D01*
X0028197Y0030957D01*
X0018748Y0030957D02*
X0015992Y0030957D01*
X0035283Y0054185D02*
X0035283Y0063240D01*
X0028197Y0063240D01*
X0018748Y0063240D02*
X0015992Y0063240D01*
D228*
X0060619Y0023300D02*
X0064322Y0023300D01*
X0064322Y0024534D02*
X0064322Y0022065D01*
X0061854Y0022065D02*
X0060619Y0023300D01*
D229*
X0062772Y0008302D02*
X0064240Y0008302D01*
X0063506Y0008302D02*
X0063506Y0003898D01*
X0062772Y0003898D02*
X0064240Y0003898D01*
X0065842Y0004632D02*
X0066576Y0003898D01*
X0068044Y0003898D01*
X0068778Y0004632D01*
X0068778Y0005366D01*
X0068044Y0006100D01*
X0066576Y0006100D01*
X0065842Y0006834D01*
X0065842Y0007568D01*
X0066576Y0008302D01*
X0068044Y0008302D01*
X0068778Y0007568D01*
X0070446Y0008302D02*
X0072648Y0008302D01*
X0073381Y0007568D01*
X0073381Y0006100D01*
X0072648Y0005366D01*
X0070446Y0005366D01*
X0070446Y0003898D02*
X0070446Y0008302D01*
X0075050Y0006834D02*
X0076517Y0008302D01*
X0076517Y0003898D01*
X0075050Y0003898D02*
X0077985Y0003898D01*
D230*
X0168496Y0140689D03*
X0171449Y0140689D03*
D231*
X0169972Y0140689D03*
D232*
X0164196Y0143848D02*
X0160259Y0143848D01*
X0160259Y0149753D01*
X0164196Y0149753D01*
X0157750Y0148769D02*
X0156766Y0149753D01*
X0154798Y0149753D01*
X0153813Y0148769D01*
X0153813Y0144832D01*
X0154798Y0143848D01*
X0156766Y0143848D01*
X0157750Y0144832D01*
X0157750Y0146801D01*
X0155782Y0146801D01*
X0160259Y0146801D02*
X0162227Y0146801D01*
X0151305Y0146801D02*
X0147368Y0146801D01*
X0147368Y0147785D02*
X0149336Y0149753D01*
X0151305Y0147785D01*
X0151305Y0143848D01*
X0147368Y0143848D02*
X0147368Y0147785D01*
X0144859Y0148769D02*
X0144859Y0146801D01*
X0143875Y0145817D01*
X0140922Y0145817D01*
X0140922Y0143848D02*
X0140922Y0149753D01*
X0143875Y0149753D01*
X0144859Y0148769D01*
M02*
