G75*
%MOIN*%
%OFA0B0*%
%FSLAX25Y25*%
%IPPOS*%
%LPD*%
%AMOC8*
5,1,8,0,0,1.08239X$1,22.5*
%
%ADD10C,0.12611*%
%ADD11C,0.11824*%
%ADD12C,0.07200*%
%ADD13C,0.10800*%
%ADD14C,0.10924*%
%ADD15C,0.16550*%
%ADD16C,0.07400*%
%ADD17C,0.03900*%
D10*
X0241850Y0077401D03*
X0391457Y0077401D03*
D11*
X0023516Y0010567D03*
X0028472Y0141598D03*
D12*
X0036472Y0018598D03*
X0046472Y0018598D03*
X0056472Y0018598D03*
X0056472Y0008598D03*
X0046472Y0008598D03*
X0036472Y0008598D03*
D13*
X0189449Y0051094D03*
X0214449Y0061094D03*
X0264252Y0051094D03*
X0289252Y0061094D03*
X0339055Y0051094D03*
X0364055Y0061094D03*
X0413858Y0051094D03*
X0438858Y0061094D03*
X0413858Y0125898D03*
X0438858Y0135898D03*
X0364055Y0135898D03*
X0339055Y0125898D03*
X0289252Y0135898D03*
X0264252Y0125898D03*
X0214449Y0135898D03*
X0189449Y0125898D03*
D14*
X0184449Y0115898D03*
X0224449Y0115898D03*
X0259252Y0115898D03*
X0299252Y0115898D03*
X0334055Y0115898D03*
X0374055Y0115898D03*
X0408858Y0115898D03*
X0448858Y0115898D03*
X0448858Y0041094D03*
X0408858Y0041094D03*
X0374055Y0041094D03*
X0334055Y0041094D03*
X0299252Y0041094D03*
X0259252Y0041094D03*
X0224449Y0041094D03*
X0184449Y0041094D03*
D15*
X0204449Y0041094D03*
X0279252Y0041094D03*
X0354055Y0041094D03*
X0428858Y0041094D03*
X0428858Y0115898D03*
X0354055Y0115898D03*
X0279252Y0115898D03*
X0204449Y0115898D03*
D16*
X0209449Y0100898D03*
X0199449Y0100898D03*
X0274252Y0100898D03*
X0284252Y0100898D03*
X0349055Y0100898D03*
X0359055Y0100898D03*
X0423858Y0100898D03*
X0433858Y0100898D03*
X0433858Y0026094D03*
X0423858Y0026094D03*
X0359055Y0026094D03*
X0349055Y0026094D03*
X0284252Y0026094D03*
X0274252Y0026094D03*
X0209449Y0026094D03*
X0199449Y0026094D03*
D17*
X0155472Y0032098D03*
X0149972Y0032098D03*
X0142972Y0042598D03*
X0150472Y0046098D03*
X0145472Y0056598D03*
X0140472Y0059598D03*
X0135472Y0063598D03*
X0142972Y0066598D03*
X0127972Y0075598D03*
X0090472Y0067598D03*
X0081472Y0058598D03*
X0077972Y0047598D03*
X0082972Y0044598D03*
X0071972Y0038098D03*
X0111972Y0044598D03*
X0143972Y0015098D03*
X0125472Y0011098D03*
X0111972Y0007098D03*
X0098972Y0009098D03*
X0085472Y0009598D03*
X0240472Y0060098D03*
X0305472Y0077598D03*
X0257972Y0093098D03*
X0166472Y0096598D03*
X0172972Y0132598D03*
X0169972Y0148598D03*
M02*
