G75*
%MOIN*%
%OFA0B0*%
%FSLAX25Y25*%
%IPPOS*%
%LPD*%
%AMOC8*
5,1,8,0,0,1.08239X$1,22.5*
%
%ADD10R,0.05906X0.01969*%
%ADD11R,0.01969X0.05906*%
%ADD12R,0.02756X0.03543*%
%ADD13C,0.01772*%
%ADD14R,0.05512X0.01575*%
%ADD15R,0.07480X0.07874*%
%ADD16R,0.07480X0.08661*%
%ADD17R,0.02480X0.03268*%
%ADD18R,0.03150X0.03543*%
%ADD19R,0.03543X0.02756*%
%ADD20R,0.03150X0.03150*%
D10*
G36*
X0096382Y0032071D02*
X0092207Y0027896D01*
X0090816Y0029287D01*
X0094991Y0033462D01*
X0096382Y0032071D01*
G37*
G36*
X0094155Y0034298D02*
X0089980Y0030123D01*
X0088589Y0031514D01*
X0092764Y0035689D01*
X0094155Y0034298D01*
G37*
G36*
X0091928Y0036525D02*
X0087753Y0032350D01*
X0086362Y0033741D01*
X0090537Y0037916D01*
X0091928Y0036525D01*
G37*
G36*
X0089700Y0038752D02*
X0085525Y0034577D01*
X0084134Y0035968D01*
X0088309Y0040143D01*
X0089700Y0038752D01*
G37*
G36*
X0087473Y0040979D02*
X0083298Y0036804D01*
X0081907Y0038195D01*
X0086082Y0042370D01*
X0087473Y0040979D01*
G37*
G36*
X0098609Y0029844D02*
X0094434Y0025669D01*
X0093043Y0027060D01*
X0097218Y0031235D01*
X0098609Y0029844D01*
G37*
G36*
X0100836Y0027617D02*
X0096661Y0023442D01*
X0095270Y0024833D01*
X0099445Y0029008D01*
X0100836Y0027617D01*
G37*
G36*
X0103063Y0025390D02*
X0098888Y0021215D01*
X0097497Y0022606D01*
X0101672Y0026781D01*
X0103063Y0025390D01*
G37*
G36*
X0105290Y0023162D02*
X0101115Y0018987D01*
X0099724Y0020378D01*
X0103899Y0024553D01*
X0105290Y0023162D01*
G37*
G36*
X0107517Y0020935D02*
X0103342Y0016760D01*
X0101951Y0018151D01*
X0106126Y0022326D01*
X0107517Y0020935D01*
G37*
G36*
X0109744Y0018708D02*
X0105569Y0014533D01*
X0104178Y0015924D01*
X0108353Y0020099D01*
X0109744Y0018708D01*
G37*
G36*
X0142038Y0051001D02*
X0137863Y0046826D01*
X0136472Y0048217D01*
X0140647Y0052392D01*
X0142038Y0051001D01*
G37*
G36*
X0139810Y0053228D02*
X0135635Y0049053D01*
X0134244Y0050444D01*
X0138419Y0054619D01*
X0139810Y0053228D01*
G37*
G36*
X0137583Y0055455D02*
X0133408Y0051280D01*
X0132017Y0052671D01*
X0136192Y0056846D01*
X0137583Y0055455D01*
G37*
G36*
X0135356Y0057683D02*
X0131181Y0053508D01*
X0129790Y0054899D01*
X0133965Y0059074D01*
X0135356Y0057683D01*
G37*
G36*
X0133129Y0059910D02*
X0128954Y0055735D01*
X0127563Y0057126D01*
X0131738Y0061301D01*
X0133129Y0059910D01*
G37*
G36*
X0130902Y0062137D02*
X0126727Y0057962D01*
X0125336Y0059353D01*
X0129511Y0063528D01*
X0130902Y0062137D01*
G37*
G36*
X0128675Y0064364D02*
X0124500Y0060189D01*
X0123109Y0061580D01*
X0127284Y0065755D01*
X0128675Y0064364D01*
G37*
G36*
X0126448Y0066591D02*
X0122273Y0062416D01*
X0120882Y0063807D01*
X0125057Y0067982D01*
X0126448Y0066591D01*
G37*
G36*
X0124221Y0068818D02*
X0120046Y0064643D01*
X0118655Y0066034D01*
X0122830Y0070209D01*
X0124221Y0068818D01*
G37*
G36*
X0121994Y0071045D02*
X0117819Y0066870D01*
X0116428Y0068261D01*
X0120603Y0072436D01*
X0121994Y0071045D01*
G37*
G36*
X0119766Y0073272D02*
X0115591Y0069097D01*
X0114200Y0070488D01*
X0118375Y0074663D01*
X0119766Y0073272D01*
G37*
D11*
G36*
X0109744Y0070488D02*
X0108353Y0069097D01*
X0104178Y0073272D01*
X0105569Y0074663D01*
X0109744Y0070488D01*
G37*
G36*
X0107517Y0068261D02*
X0106126Y0066870D01*
X0101951Y0071045D01*
X0103342Y0072436D01*
X0107517Y0068261D01*
G37*
G36*
X0105290Y0066034D02*
X0103899Y0064643D01*
X0099724Y0068818D01*
X0101115Y0070209D01*
X0105290Y0066034D01*
G37*
G36*
X0103063Y0063807D02*
X0101672Y0062416D01*
X0097497Y0066591D01*
X0098888Y0067982D01*
X0103063Y0063807D01*
G37*
G36*
X0100836Y0061580D02*
X0099445Y0060189D01*
X0095270Y0064364D01*
X0096661Y0065755D01*
X0100836Y0061580D01*
G37*
G36*
X0098609Y0059353D02*
X0097218Y0057962D01*
X0093043Y0062137D01*
X0094434Y0063528D01*
X0098609Y0059353D01*
G37*
G36*
X0096382Y0057126D02*
X0094991Y0055735D01*
X0090816Y0059910D01*
X0092207Y0061301D01*
X0096382Y0057126D01*
G37*
G36*
X0094155Y0054899D02*
X0092764Y0053508D01*
X0088589Y0057683D01*
X0089980Y0059074D01*
X0094155Y0054899D01*
G37*
G36*
X0091928Y0052671D02*
X0090537Y0051280D01*
X0086362Y0055455D01*
X0087753Y0056846D01*
X0091928Y0052671D01*
G37*
G36*
X0089700Y0050444D02*
X0088309Y0049053D01*
X0084134Y0053228D01*
X0085525Y0054619D01*
X0089700Y0050444D01*
G37*
G36*
X0087473Y0048217D02*
X0086082Y0046826D01*
X0081907Y0051001D01*
X0083298Y0052392D01*
X0087473Y0048217D01*
G37*
G36*
X0135356Y0031514D02*
X0133965Y0030123D01*
X0129790Y0034298D01*
X0131181Y0035689D01*
X0135356Y0031514D01*
G37*
G36*
X0133129Y0029287D02*
X0131738Y0027896D01*
X0127563Y0032071D01*
X0128954Y0033462D01*
X0133129Y0029287D01*
G37*
G36*
X0130902Y0027060D02*
X0129511Y0025669D01*
X0125336Y0029844D01*
X0126727Y0031235D01*
X0130902Y0027060D01*
G37*
G36*
X0128675Y0024833D02*
X0127284Y0023442D01*
X0123109Y0027617D01*
X0124500Y0029008D01*
X0128675Y0024833D01*
G37*
G36*
X0126448Y0022606D02*
X0125057Y0021215D01*
X0120882Y0025390D01*
X0122273Y0026781D01*
X0126448Y0022606D01*
G37*
G36*
X0124221Y0020378D02*
X0122830Y0018987D01*
X0118655Y0023162D01*
X0120046Y0024553D01*
X0124221Y0020378D01*
G37*
G36*
X0121994Y0018151D02*
X0120603Y0016760D01*
X0116428Y0020935D01*
X0117819Y0022326D01*
X0121994Y0018151D01*
G37*
G36*
X0119766Y0015924D02*
X0118375Y0014533D01*
X0114200Y0018708D01*
X0115591Y0020099D01*
X0119766Y0015924D01*
G37*
G36*
X0137583Y0033741D02*
X0136192Y0032350D01*
X0132017Y0036525D01*
X0133408Y0037916D01*
X0137583Y0033741D01*
G37*
G36*
X0139810Y0035968D02*
X0138419Y0034577D01*
X0134244Y0038752D01*
X0135635Y0040143D01*
X0139810Y0035968D01*
G37*
G36*
X0142038Y0038195D02*
X0140647Y0036804D01*
X0136472Y0040979D01*
X0137863Y0042370D01*
X0142038Y0038195D01*
G37*
D12*
G36*
X0082437Y0020066D02*
X0084386Y0022015D01*
X0086889Y0019512D01*
X0084940Y0017563D01*
X0082437Y0020066D01*
G37*
G36*
X0086056Y0023685D02*
X0088005Y0025634D01*
X0090508Y0023131D01*
X0088559Y0021182D01*
X0086056Y0023685D01*
G37*
G36*
X0092056Y0017685D02*
X0094005Y0019634D01*
X0096508Y0017131D01*
X0094559Y0015182D01*
X0092056Y0017685D01*
G37*
G36*
X0088437Y0014066D02*
X0090386Y0016015D01*
X0092889Y0013512D01*
X0090940Y0011563D01*
X0088437Y0014066D01*
G37*
G36*
X0071937Y0029566D02*
X0073886Y0031515D01*
X0076389Y0029012D01*
X0074440Y0027063D01*
X0071937Y0029566D01*
G37*
G36*
X0075556Y0033185D02*
X0077505Y0035134D01*
X0080008Y0032631D01*
X0078059Y0030682D01*
X0075556Y0033185D01*
G37*
G36*
X0092937Y0072566D02*
X0094886Y0074515D01*
X0097389Y0072012D01*
X0095440Y0070063D01*
X0092937Y0072566D01*
G37*
G36*
X0096556Y0076185D02*
X0098505Y0078134D01*
X0101008Y0075631D01*
X0099059Y0073682D01*
X0096556Y0076185D01*
G37*
X0151413Y0076098D03*
X0156531Y0076098D03*
D13*
X0136288Y0024964D02*
X0140338Y0020914D01*
X0136997Y0017573D02*
X0132947Y0021623D01*
X0129607Y0018283D02*
X0133657Y0014233D01*
D14*
X0034693Y0041980D03*
X0034693Y0044539D03*
X0034693Y0047098D03*
X0034693Y0049657D03*
X0034693Y0052216D03*
D15*
X0023472Y0052020D03*
X0023472Y0042177D03*
D16*
X0023472Y0031350D03*
X0023472Y0062846D03*
D17*
X0060945Y0052098D03*
X0070000Y0052098D03*
D18*
X0155732Y0036661D03*
X0163213Y0036661D03*
X0159472Y0044929D03*
D19*
X0156472Y0055039D03*
X0150472Y0055039D03*
X0162472Y0055039D03*
X0168472Y0055039D03*
X0168472Y0060157D03*
X0162472Y0060157D03*
X0156472Y0060157D03*
X0150472Y0060157D03*
X0150472Y0026157D03*
X0156472Y0026157D03*
X0162472Y0026157D03*
X0168472Y0026157D03*
X0168472Y0021039D03*
X0162472Y0021039D03*
X0156472Y0021039D03*
X0150472Y0021039D03*
D20*
X0169972Y0137146D03*
X0169972Y0143051D03*
M02*
