G75*
%MOIN*%
%OFA0B0*%
%FSLAX25Y25*%
%IPPOS*%
%LPD*%
%AMOC8*
5,1,8,0,0,1.08239X$1,22.5*
%
%ADD10C,0.12611*%
%ADD11C,0.11824*%
%ADD12R,0.06706X0.02769*%
%ADD13R,0.02769X0.06706*%
%ADD14C,0.07200*%
%ADD15R,0.03556X0.04343*%
%ADD16C,0.02572*%
%ADD17R,0.13760X0.06040*%
%ADD18R,0.06312X0.02375*%
%ADD19R,0.08280X0.08674*%
%ADD20R,0.08280X0.09461*%
%ADD21R,0.03280X0.04068*%
%ADD22R,0.03950X0.04343*%
%ADD23C,0.10800*%
%ADD24C,0.10924*%
%ADD25C,0.16550*%
%ADD26C,0.07400*%
%ADD27R,0.04343X0.03556*%
%ADD28R,0.03950X0.03950*%
%ADD29C,0.03900*%
D10*
X0241850Y0077401D03*
X0391457Y0077401D03*
D11*
X0023516Y0010567D03*
X0028472Y0141598D03*
D12*
G36*
X0120332Y0073272D02*
X0115591Y0068531D01*
X0113634Y0070488D01*
X0118375Y0075229D01*
X0120332Y0073272D01*
G37*
G36*
X0122560Y0071045D02*
X0117819Y0066304D01*
X0115862Y0068261D01*
X0120603Y0073002D01*
X0122560Y0071045D01*
G37*
G36*
X0124787Y0068818D02*
X0120046Y0064077D01*
X0118089Y0066034D01*
X0122830Y0070775D01*
X0124787Y0068818D01*
G37*
G36*
X0127014Y0066591D02*
X0122273Y0061850D01*
X0120316Y0063807D01*
X0125057Y0068548D01*
X0127014Y0066591D01*
G37*
G36*
X0129241Y0064364D02*
X0124500Y0059623D01*
X0122543Y0061580D01*
X0127284Y0066321D01*
X0129241Y0064364D01*
G37*
G36*
X0131468Y0062137D02*
X0126727Y0057396D01*
X0124770Y0059353D01*
X0129511Y0064094D01*
X0131468Y0062137D01*
G37*
G36*
X0133695Y0059910D02*
X0128954Y0055169D01*
X0126997Y0057126D01*
X0131738Y0061867D01*
X0133695Y0059910D01*
G37*
G36*
X0135922Y0057683D02*
X0131181Y0052942D01*
X0129224Y0054899D01*
X0133965Y0059640D01*
X0135922Y0057683D01*
G37*
G36*
X0138149Y0055455D02*
X0133408Y0050714D01*
X0131451Y0052671D01*
X0136192Y0057412D01*
X0138149Y0055455D01*
G37*
G36*
X0140376Y0053228D02*
X0135635Y0048487D01*
X0133678Y0050444D01*
X0138419Y0055185D01*
X0140376Y0053228D01*
G37*
G36*
X0142604Y0051001D02*
X0137863Y0046260D01*
X0135906Y0048217D01*
X0140647Y0052958D01*
X0142604Y0051001D01*
G37*
G36*
X0092494Y0036525D02*
X0087753Y0031784D01*
X0085796Y0033741D01*
X0090537Y0038482D01*
X0092494Y0036525D01*
G37*
G36*
X0090266Y0038752D02*
X0085525Y0034011D01*
X0083568Y0035968D01*
X0088309Y0040709D01*
X0090266Y0038752D01*
G37*
G36*
X0088039Y0040979D02*
X0083298Y0036238D01*
X0081341Y0038195D01*
X0086082Y0042936D01*
X0088039Y0040979D01*
G37*
G36*
X0094721Y0034298D02*
X0089980Y0029557D01*
X0088023Y0031514D01*
X0092764Y0036255D01*
X0094721Y0034298D01*
G37*
G36*
X0096948Y0032071D02*
X0092207Y0027330D01*
X0090250Y0029287D01*
X0094991Y0034028D01*
X0096948Y0032071D01*
G37*
G36*
X0099175Y0029844D02*
X0094434Y0025103D01*
X0092477Y0027060D01*
X0097218Y0031801D01*
X0099175Y0029844D01*
G37*
G36*
X0101402Y0027617D02*
X0096661Y0022876D01*
X0094704Y0024833D01*
X0099445Y0029574D01*
X0101402Y0027617D01*
G37*
G36*
X0103629Y0025390D02*
X0098888Y0020649D01*
X0096931Y0022606D01*
X0101672Y0027347D01*
X0103629Y0025390D01*
G37*
G36*
X0105856Y0023162D02*
X0101115Y0018421D01*
X0099158Y0020378D01*
X0103899Y0025119D01*
X0105856Y0023162D01*
G37*
G36*
X0108083Y0020935D02*
X0103342Y0016194D01*
X0101385Y0018151D01*
X0106126Y0022892D01*
X0108083Y0020935D01*
G37*
G36*
X0110310Y0018708D02*
X0105569Y0013967D01*
X0103612Y0015924D01*
X0108353Y0020665D01*
X0110310Y0018708D01*
G37*
D13*
G36*
X0120332Y0015924D02*
X0118375Y0013967D01*
X0113634Y0018708D01*
X0115591Y0020665D01*
X0120332Y0015924D01*
G37*
G36*
X0122560Y0018151D02*
X0120603Y0016194D01*
X0115862Y0020935D01*
X0117819Y0022892D01*
X0122560Y0018151D01*
G37*
G36*
X0124787Y0020378D02*
X0122830Y0018421D01*
X0118089Y0023162D01*
X0120046Y0025119D01*
X0124787Y0020378D01*
G37*
G36*
X0127014Y0022606D02*
X0125057Y0020649D01*
X0120316Y0025390D01*
X0122273Y0027347D01*
X0127014Y0022606D01*
G37*
G36*
X0129241Y0024833D02*
X0127284Y0022876D01*
X0122543Y0027617D01*
X0124500Y0029574D01*
X0129241Y0024833D01*
G37*
G36*
X0131468Y0027060D02*
X0129511Y0025103D01*
X0124770Y0029844D01*
X0126727Y0031801D01*
X0131468Y0027060D01*
G37*
G36*
X0133695Y0029287D02*
X0131738Y0027330D01*
X0126997Y0032071D01*
X0128954Y0034028D01*
X0133695Y0029287D01*
G37*
G36*
X0135922Y0031514D02*
X0133965Y0029557D01*
X0129224Y0034298D01*
X0131181Y0036255D01*
X0135922Y0031514D01*
G37*
G36*
X0138149Y0033741D02*
X0136192Y0031784D01*
X0131451Y0036525D01*
X0133408Y0038482D01*
X0138149Y0033741D01*
G37*
G36*
X0140376Y0035968D02*
X0138419Y0034011D01*
X0133678Y0038752D01*
X0135635Y0040709D01*
X0140376Y0035968D01*
G37*
G36*
X0142604Y0038195D02*
X0140647Y0036238D01*
X0135906Y0040979D01*
X0137863Y0042936D01*
X0142604Y0038195D01*
G37*
G36*
X0092494Y0052671D02*
X0090537Y0050714D01*
X0085796Y0055455D01*
X0087753Y0057412D01*
X0092494Y0052671D01*
G37*
G36*
X0090266Y0050444D02*
X0088309Y0048487D01*
X0083568Y0053228D01*
X0085525Y0055185D01*
X0090266Y0050444D01*
G37*
G36*
X0088039Y0048217D02*
X0086082Y0046260D01*
X0081341Y0051001D01*
X0083298Y0052958D01*
X0088039Y0048217D01*
G37*
G36*
X0094721Y0054899D02*
X0092764Y0052942D01*
X0088023Y0057683D01*
X0089980Y0059640D01*
X0094721Y0054899D01*
G37*
G36*
X0096948Y0057126D02*
X0094991Y0055169D01*
X0090250Y0059910D01*
X0092207Y0061867D01*
X0096948Y0057126D01*
G37*
G36*
X0099175Y0059353D02*
X0097218Y0057396D01*
X0092477Y0062137D01*
X0094434Y0064094D01*
X0099175Y0059353D01*
G37*
G36*
X0101402Y0061580D02*
X0099445Y0059623D01*
X0094704Y0064364D01*
X0096661Y0066321D01*
X0101402Y0061580D01*
G37*
G36*
X0103629Y0063807D02*
X0101672Y0061850D01*
X0096931Y0066591D01*
X0098888Y0068548D01*
X0103629Y0063807D01*
G37*
G36*
X0105856Y0066034D02*
X0103899Y0064077D01*
X0099158Y0068818D01*
X0101115Y0070775D01*
X0105856Y0066034D01*
G37*
G36*
X0108083Y0068261D02*
X0106126Y0066304D01*
X0101385Y0071045D01*
X0103342Y0073002D01*
X0108083Y0068261D01*
G37*
G36*
X0110310Y0070488D02*
X0108353Y0068531D01*
X0103612Y0073272D01*
X0105569Y0075229D01*
X0110310Y0070488D01*
G37*
D14*
X0056472Y0018598D03*
X0046472Y0018598D03*
X0036472Y0018598D03*
X0036472Y0008598D03*
X0046472Y0008598D03*
X0056472Y0008598D03*
D15*
G36*
X0081871Y0020066D02*
X0084386Y0022581D01*
X0087455Y0019512D01*
X0084940Y0016997D01*
X0081871Y0020066D01*
G37*
G36*
X0085490Y0023685D02*
X0088005Y0026200D01*
X0091074Y0023131D01*
X0088559Y0020616D01*
X0085490Y0023685D01*
G37*
G36*
X0091490Y0017685D02*
X0094005Y0020200D01*
X0097074Y0017131D01*
X0094559Y0014616D01*
X0091490Y0017685D01*
G37*
G36*
X0087871Y0014066D02*
X0090386Y0016581D01*
X0093455Y0013512D01*
X0090940Y0010997D01*
X0087871Y0014066D01*
G37*
G36*
X0071371Y0029566D02*
X0073886Y0032081D01*
X0076955Y0029012D01*
X0074440Y0026497D01*
X0071371Y0029566D01*
G37*
G36*
X0074990Y0033185D02*
X0077505Y0035700D01*
X0080574Y0032631D01*
X0078059Y0030116D01*
X0074990Y0033185D01*
G37*
G36*
X0092371Y0072566D02*
X0094886Y0075081D01*
X0097955Y0072012D01*
X0095440Y0069497D01*
X0092371Y0072566D01*
G37*
G36*
X0095990Y0076185D02*
X0098505Y0078700D01*
X0101574Y0075631D01*
X0099059Y0073116D01*
X0095990Y0076185D01*
G37*
X0151413Y0076098D03*
X0156531Y0076098D03*
D16*
X0136288Y0024964D02*
X0140338Y0020914D01*
X0136997Y0017573D02*
X0132947Y0021623D01*
X0129607Y0018283D02*
X0133657Y0014233D01*
D17*
G36*
X0127972Y0016883D02*
X0137701Y0026612D01*
X0141972Y0022341D01*
X0132243Y0012612D01*
X0127972Y0016883D01*
G37*
D18*
X0034693Y0041980D03*
X0034693Y0044539D03*
X0034693Y0047098D03*
X0034693Y0049657D03*
X0034693Y0052216D03*
D19*
X0023472Y0052020D03*
X0023472Y0042177D03*
D20*
X0023472Y0031350D03*
X0023472Y0062846D03*
D21*
X0060945Y0052098D03*
X0070000Y0052098D03*
D22*
X0155732Y0036661D03*
X0163213Y0036661D03*
X0159472Y0044929D03*
D23*
X0189449Y0051094D03*
X0214449Y0061094D03*
X0264252Y0051094D03*
X0289252Y0061094D03*
X0339055Y0051094D03*
X0364055Y0061094D03*
X0413858Y0051094D03*
X0438858Y0061094D03*
X0413858Y0125898D03*
X0438858Y0135898D03*
X0364055Y0135898D03*
X0339055Y0125898D03*
X0289252Y0135898D03*
X0264252Y0125898D03*
X0214449Y0135898D03*
X0189449Y0125898D03*
D24*
X0184449Y0115898D03*
X0224449Y0115898D03*
X0259252Y0115898D03*
X0299252Y0115898D03*
X0334055Y0115898D03*
X0374055Y0115898D03*
X0408858Y0115898D03*
X0448858Y0115898D03*
X0448858Y0041094D03*
X0408858Y0041094D03*
X0374055Y0041094D03*
X0334055Y0041094D03*
X0299252Y0041094D03*
X0259252Y0041094D03*
X0224449Y0041094D03*
X0184449Y0041094D03*
D25*
X0204449Y0041094D03*
X0279252Y0041094D03*
X0354055Y0041094D03*
X0428858Y0041094D03*
X0428858Y0115898D03*
X0354055Y0115898D03*
X0279252Y0115898D03*
X0204449Y0115898D03*
D26*
X0209449Y0100898D03*
X0199449Y0100898D03*
X0274252Y0100898D03*
X0284252Y0100898D03*
X0349055Y0100898D03*
X0359055Y0100898D03*
X0423858Y0100898D03*
X0433858Y0100898D03*
X0433858Y0026094D03*
X0423858Y0026094D03*
X0359055Y0026094D03*
X0349055Y0026094D03*
X0284252Y0026094D03*
X0274252Y0026094D03*
X0209449Y0026094D03*
X0199449Y0026094D03*
D27*
X0168472Y0026157D03*
X0162472Y0026157D03*
X0156472Y0026157D03*
X0150472Y0026157D03*
X0150472Y0021039D03*
X0156472Y0021039D03*
X0162472Y0021039D03*
X0168472Y0021039D03*
X0168472Y0055039D03*
X0162472Y0055039D03*
X0156472Y0055039D03*
X0150472Y0055039D03*
X0150472Y0060157D03*
X0156472Y0060157D03*
X0162472Y0060157D03*
X0168472Y0060157D03*
D28*
X0169972Y0137146D03*
X0169972Y0143051D03*
D29*
X0169972Y0148598D03*
X0172972Y0132598D03*
X0166472Y0096598D03*
X0127972Y0075598D03*
X0142972Y0066598D03*
X0135472Y0063598D03*
X0140472Y0059598D03*
X0145472Y0056598D03*
X0150472Y0046098D03*
X0142972Y0042598D03*
X0111972Y0044598D03*
X0082972Y0044598D03*
X0077972Y0047598D03*
X0071972Y0038098D03*
X0081472Y0058598D03*
X0090472Y0067598D03*
X0149972Y0032098D03*
X0155472Y0032098D03*
X0143972Y0015098D03*
X0125472Y0011098D03*
X0111972Y0007098D03*
X0098972Y0009098D03*
X0085472Y0009598D03*
X0240472Y0060098D03*
X0305472Y0077598D03*
X0257972Y0093098D03*
M02*
