G75*
%MOIN*%
%OFA0B0*%
%FSLAX25Y25*%
%IPPOS*%
%LPD*%
%AMOC8*
5,1,8,0,0,1.08239X$1,22.5*
%
%ADD10C,0.11824*%
%ADD11C,0.07200*%
%ADD12C,0.10800*%
%ADD13C,0.10924*%
%ADD14C,0.16550*%
%ADD15C,0.07400*%
%ADD16C,0.03900*%
D10*
X0023516Y0011469D03*
X0240472Y0077000D03*
X0386472Y0077000D03*
X0028472Y0142500D03*
D11*
X0036472Y0019500D03*
X0046472Y0019500D03*
X0056472Y0019500D03*
X0056472Y0009500D03*
X0046472Y0009500D03*
X0036472Y0009500D03*
D12*
X0189449Y0051996D03*
X0214449Y0061996D03*
X0262283Y0051996D03*
X0287283Y0061996D03*
X0335118Y0051996D03*
X0360118Y0061996D03*
X0407953Y0051996D03*
X0432953Y0061996D03*
X0407953Y0124831D03*
X0432953Y0134831D03*
X0358150Y0134831D03*
X0333150Y0124831D03*
X0287283Y0134831D03*
X0262283Y0124831D03*
X0214449Y0134831D03*
X0189449Y0124831D03*
D13*
X0184449Y0114831D03*
X0224449Y0114831D03*
X0257283Y0114831D03*
X0297283Y0114831D03*
X0328150Y0114831D03*
X0368150Y0114831D03*
X0402953Y0114831D03*
X0442953Y0114831D03*
X0442953Y0041996D03*
X0402953Y0041996D03*
X0370118Y0041996D03*
X0330118Y0041996D03*
X0297283Y0041996D03*
X0257283Y0041996D03*
X0224449Y0041996D03*
X0184449Y0041996D03*
D14*
X0204449Y0041996D03*
X0277283Y0041996D03*
X0350118Y0041996D03*
X0422953Y0041996D03*
X0422953Y0114831D03*
X0348150Y0114831D03*
X0277283Y0114831D03*
X0204449Y0114831D03*
D15*
X0209449Y0099831D03*
X0199449Y0099831D03*
X0272283Y0099831D03*
X0282283Y0099831D03*
X0343150Y0099831D03*
X0353150Y0099831D03*
X0417953Y0099831D03*
X0427953Y0099831D03*
X0427953Y0026996D03*
X0417953Y0026996D03*
X0355118Y0026996D03*
X0345118Y0026996D03*
X0282283Y0026996D03*
X0272283Y0026996D03*
X0209449Y0026996D03*
X0199449Y0026996D03*
D16*
X0155472Y0033000D03*
X0149972Y0033000D03*
X0142972Y0043500D03*
X0150472Y0047000D03*
X0145472Y0057500D03*
X0140472Y0060500D03*
X0135472Y0064500D03*
X0142972Y0067500D03*
X0127972Y0076500D03*
X0090472Y0068500D03*
X0081472Y0059500D03*
X0077972Y0048500D03*
X0082972Y0045500D03*
X0071972Y0039000D03*
X0111972Y0045500D03*
X0143972Y0016000D03*
X0125472Y0012000D03*
X0111972Y0008000D03*
X0098972Y0010000D03*
X0085472Y0010500D03*
X0240472Y0061000D03*
X0311472Y0077500D03*
X0257972Y0094000D03*
X0166472Y0097500D03*
X0172972Y0133500D03*
X0169972Y0149500D03*
M02*
