G75*
%MOIN*%
%OFA0B0*%
%FSLAX25Y25*%
%IPPOS*%
%LPD*%
%AMOC8*
5,1,8,0,0,1.08239X$1,22.5*
%
%ADD10C,0.00600*%
%ADD11C,0.00591*%
D10*
X0342806Y0007534D02*
X0342806Y0010470D01*
X0343540Y0011204D01*
X0345008Y0011204D01*
X0345742Y0010470D01*
X0345742Y0007534D01*
X0345008Y0006800D01*
X0343540Y0006800D01*
X0342806Y0007534D01*
X0347410Y0007534D02*
X0348144Y0006800D01*
X0349612Y0006800D01*
X0350346Y0007534D01*
X0350346Y0010470D01*
X0349612Y0011204D01*
X0348144Y0011204D01*
X0347410Y0010470D01*
X0351914Y0007534D02*
X0351914Y0006800D01*
X0352648Y0006800D01*
X0352648Y0007534D01*
X0351914Y0007534D01*
X0354316Y0007534D02*
X0354316Y0009002D01*
X0355784Y0009002D01*
X0354316Y0010470D02*
X0355050Y0011204D01*
X0356518Y0011204D01*
X0357252Y0010470D01*
X0357252Y0007534D01*
X0356518Y0006800D01*
X0355050Y0006800D01*
X0354316Y0007534D01*
X0358920Y0006800D02*
X0358920Y0011204D01*
X0361856Y0011204D02*
X0358920Y0006800D01*
X0361856Y0006800D02*
X0361856Y0011204D01*
X0363457Y0011204D02*
X0364925Y0011204D01*
X0364191Y0011204D02*
X0364191Y0006800D01*
X0364925Y0006800D02*
X0363457Y0006800D01*
X0366593Y0006800D02*
X0366593Y0011204D01*
X0369529Y0011204D02*
X0369529Y0006800D01*
X0369529Y0009002D02*
X0366593Y0009002D01*
X0372665Y0006800D02*
X0372665Y0011204D01*
X0374133Y0011204D02*
X0371197Y0011204D01*
X0375801Y0011204D02*
X0378737Y0011204D01*
X0377269Y0011204D02*
X0377269Y0006800D01*
X0380405Y0006800D02*
X0383341Y0011204D01*
X0385009Y0011204D02*
X0387945Y0011204D01*
X0387945Y0006800D01*
X0385009Y0006800D01*
X0383341Y0006800D02*
X0380405Y0011204D01*
X0386477Y0009002D02*
X0387945Y0009002D01*
X0389613Y0006800D02*
X0389613Y0011204D01*
X0392549Y0011204D02*
X0389613Y0006800D01*
X0392549Y0006800D02*
X0392549Y0011204D01*
X0394217Y0010470D02*
X0394217Y0009002D01*
X0394951Y0008268D01*
X0394951Y0009736D01*
X0396419Y0009736D01*
X0396419Y0008268D01*
X0394951Y0008268D01*
X0394217Y0007534D02*
X0394951Y0006800D01*
X0396419Y0006800D01*
X0397153Y0007534D01*
X0397153Y0010470D01*
X0396419Y0011204D01*
X0394951Y0011204D01*
X0394217Y0010470D01*
X0398821Y0011204D02*
X0401757Y0011204D01*
X0400289Y0011204D02*
X0400289Y0006800D01*
X0404893Y0006800D02*
X0404893Y0011204D01*
X0406361Y0011204D02*
X0403425Y0011204D01*
X0408029Y0010470D02*
X0408763Y0011204D01*
X0410231Y0011204D01*
X0410965Y0010470D01*
X0410965Y0007534D01*
X0410231Y0006800D01*
X0408763Y0006800D01*
X0408029Y0007534D01*
X0408029Y0010470D01*
X0412633Y0010470D02*
X0413367Y0011204D01*
X0414835Y0011204D01*
X0415569Y0010470D01*
X0415569Y0007534D01*
X0414835Y0006800D01*
X0413367Y0006800D01*
X0412633Y0007534D01*
X0417237Y0007534D02*
X0417237Y0008268D01*
X0417971Y0009002D01*
X0419438Y0009002D01*
X0420172Y0009736D01*
X0420172Y0010470D01*
X0419438Y0011204D01*
X0417971Y0011204D01*
X0417237Y0010470D01*
X0417237Y0007534D02*
X0417971Y0006800D01*
X0419438Y0006800D01*
X0420172Y0007534D01*
D11*
X0327311Y0011080D02*
X0327311Y0012520D01*
X0329216Y0012713D01*
X0329421Y0013354D01*
X0329729Y0013952D01*
X0328519Y0015436D01*
X0329537Y0016454D01*
X0331021Y0015243D01*
X0331619Y0015551D01*
X0332259Y0015756D01*
X0332453Y0017661D01*
X0333892Y0017661D01*
X0334086Y0015756D01*
X0334726Y0015551D01*
X0335324Y0015243D01*
X0336808Y0016454D01*
X0337826Y0015436D01*
X0336616Y0013952D01*
X0336924Y0013354D01*
X0337129Y0012713D01*
X0339034Y0012520D01*
X0339034Y0011080D01*
X0337129Y0010887D01*
X0336924Y0010246D01*
X0336616Y0009648D01*
X0337826Y0008164D01*
X0336808Y0007146D01*
X0335324Y0008357D01*
X0334726Y0008049D01*
X0333879Y0010095D01*
X0334257Y0010307D01*
X0334576Y0010601D01*
X0334817Y0010962D01*
X0334967Y0011369D01*
X0335018Y0011800D01*
X0334965Y0012239D01*
X0334809Y0012652D01*
X0334560Y0013017D01*
X0334231Y0013311D01*
X0333841Y0013520D01*
X0333413Y0013629D01*
X0332972Y0013634D01*
X0332542Y0013534D01*
X0332148Y0013334D01*
X0331812Y0013046D01*
X0331555Y0012687D01*
X0331390Y0012277D01*
X0331328Y0011840D01*
X0331371Y0011400D01*
X0331518Y0010984D01*
X0331759Y0010614D01*
X0332081Y0010312D01*
X0332466Y0010095D01*
X0331619Y0008049D01*
X0331021Y0008357D01*
X0329537Y0007146D01*
X0328519Y0008164D01*
X0329729Y0009648D01*
X0329421Y0010246D01*
X0329216Y0010887D01*
X0327311Y0011080D01*
X0327311Y0011158D02*
X0331456Y0011158D01*
X0331337Y0011747D02*
X0327311Y0011747D01*
X0327311Y0012336D02*
X0331414Y0012336D01*
X0331725Y0012925D02*
X0329284Y0012925D01*
X0329504Y0013514D02*
X0332503Y0013514D01*
X0333852Y0013514D02*
X0336841Y0013514D01*
X0336739Y0014103D02*
X0329606Y0014103D01*
X0329125Y0014692D02*
X0337220Y0014692D01*
X0337700Y0015281D02*
X0335371Y0015281D01*
X0335250Y0015281D02*
X0331095Y0015281D01*
X0330974Y0015281D02*
X0328645Y0015281D01*
X0328953Y0015870D02*
X0330252Y0015870D01*
X0332271Y0015870D02*
X0334074Y0015870D01*
X0334014Y0016459D02*
X0332331Y0016459D01*
X0332390Y0017048D02*
X0333954Y0017048D01*
X0333895Y0017638D02*
X0332450Y0017638D01*
X0336093Y0015870D02*
X0337391Y0015870D01*
X0337061Y0012925D02*
X0334623Y0012925D01*
X0334928Y0012336D02*
X0339034Y0012336D01*
X0339034Y0011747D02*
X0335012Y0011747D01*
X0334889Y0011158D02*
X0339034Y0011158D01*
X0337027Y0010569D02*
X0334541Y0010569D01*
X0333926Y0009980D02*
X0336786Y0009980D01*
X0336826Y0009391D02*
X0334171Y0009391D01*
X0334415Y0008802D02*
X0337306Y0008802D01*
X0337787Y0008213D02*
X0335501Y0008213D01*
X0335044Y0008213D02*
X0334659Y0008213D01*
X0336223Y0007623D02*
X0337285Y0007623D01*
X0331930Y0008802D02*
X0329039Y0008802D01*
X0329519Y0009391D02*
X0332174Y0009391D01*
X0332418Y0009980D02*
X0329559Y0009980D01*
X0329318Y0010569D02*
X0331807Y0010569D01*
X0331686Y0008213D02*
X0331301Y0008213D01*
X0330844Y0008213D02*
X0328558Y0008213D01*
X0329060Y0007623D02*
X0330122Y0007623D01*
M02*
