G75*
%MOIN*%
%OFA0B0*%
%FSLAX25Y25*%
%IPPOS*%
%LPD*%
%AMOC8*
5,1,8,0,0,1.08239X$1,22.5*
%
%ADD10C,0.11824*%
%ADD11R,0.06706X0.02769*%
%ADD12R,0.02769X0.06706*%
%ADD13C,0.07200*%
%ADD14R,0.03556X0.04343*%
%ADD15C,0.02572*%
%ADD16R,0.13760X0.06040*%
%ADD17R,0.06312X0.02375*%
%ADD18R,0.08280X0.08674*%
%ADD19R,0.08280X0.09461*%
%ADD20R,0.03280X0.04068*%
%ADD21R,0.03950X0.04343*%
%ADD22C,0.10800*%
%ADD23C,0.10924*%
%ADD24C,0.16550*%
%ADD25C,0.07400*%
%ADD26R,0.04343X0.03556*%
%ADD27R,0.03950X0.03950*%
%ADD28C,0.03900*%
D10*
X0023516Y0011469D03*
X0240472Y0077000D03*
X0386472Y0077000D03*
X0028472Y0142500D03*
D11*
G36*
X0120332Y0074174D02*
X0115591Y0069433D01*
X0113634Y0071390D01*
X0118375Y0076131D01*
X0120332Y0074174D01*
G37*
G36*
X0122560Y0071947D02*
X0117819Y0067206D01*
X0115862Y0069163D01*
X0120603Y0073904D01*
X0122560Y0071947D01*
G37*
G36*
X0124787Y0069720D02*
X0120046Y0064979D01*
X0118089Y0066936D01*
X0122830Y0071677D01*
X0124787Y0069720D01*
G37*
G36*
X0127014Y0067493D02*
X0122273Y0062752D01*
X0120316Y0064709D01*
X0125057Y0069450D01*
X0127014Y0067493D01*
G37*
G36*
X0129241Y0065266D02*
X0124500Y0060525D01*
X0122543Y0062482D01*
X0127284Y0067223D01*
X0129241Y0065266D01*
G37*
G36*
X0131468Y0063039D02*
X0126727Y0058298D01*
X0124770Y0060255D01*
X0129511Y0064996D01*
X0131468Y0063039D01*
G37*
G36*
X0133695Y0060811D02*
X0128954Y0056070D01*
X0126997Y0058027D01*
X0131738Y0062768D01*
X0133695Y0060811D01*
G37*
G36*
X0135922Y0058584D02*
X0131181Y0053843D01*
X0129224Y0055800D01*
X0133965Y0060541D01*
X0135922Y0058584D01*
G37*
G36*
X0138149Y0056357D02*
X0133408Y0051616D01*
X0131451Y0053573D01*
X0136192Y0058314D01*
X0138149Y0056357D01*
G37*
G36*
X0140376Y0054130D02*
X0135635Y0049389D01*
X0133678Y0051346D01*
X0138419Y0056087D01*
X0140376Y0054130D01*
G37*
G36*
X0142604Y0051903D02*
X0137863Y0047162D01*
X0135906Y0049119D01*
X0140647Y0053860D01*
X0142604Y0051903D01*
G37*
G36*
X0094721Y0035200D02*
X0089980Y0030459D01*
X0088023Y0032416D01*
X0092764Y0037157D01*
X0094721Y0035200D01*
G37*
G36*
X0092494Y0037427D02*
X0087753Y0032686D01*
X0085796Y0034643D01*
X0090537Y0039384D01*
X0092494Y0037427D01*
G37*
G36*
X0090266Y0039654D02*
X0085525Y0034913D01*
X0083568Y0036870D01*
X0088309Y0041611D01*
X0090266Y0039654D01*
G37*
G36*
X0088039Y0041881D02*
X0083298Y0037140D01*
X0081341Y0039097D01*
X0086082Y0043838D01*
X0088039Y0041881D01*
G37*
G36*
X0096948Y0032973D02*
X0092207Y0028232D01*
X0090250Y0030189D01*
X0094991Y0034930D01*
X0096948Y0032973D01*
G37*
G36*
X0099175Y0030745D02*
X0094434Y0026004D01*
X0092477Y0027961D01*
X0097218Y0032702D01*
X0099175Y0030745D01*
G37*
G36*
X0101402Y0028518D02*
X0096661Y0023777D01*
X0094704Y0025734D01*
X0099445Y0030475D01*
X0101402Y0028518D01*
G37*
G36*
X0103629Y0026291D02*
X0098888Y0021550D01*
X0096931Y0023507D01*
X0101672Y0028248D01*
X0103629Y0026291D01*
G37*
G36*
X0105856Y0024064D02*
X0101115Y0019323D01*
X0099158Y0021280D01*
X0103899Y0026021D01*
X0105856Y0024064D01*
G37*
G36*
X0108083Y0021837D02*
X0103342Y0017096D01*
X0101385Y0019053D01*
X0106126Y0023794D01*
X0108083Y0021837D01*
G37*
G36*
X0110310Y0019610D02*
X0105569Y0014869D01*
X0103612Y0016826D01*
X0108353Y0021567D01*
X0110310Y0019610D01*
G37*
D12*
G36*
X0120332Y0016826D02*
X0118375Y0014869D01*
X0113634Y0019610D01*
X0115591Y0021567D01*
X0120332Y0016826D01*
G37*
G36*
X0122560Y0019053D02*
X0120603Y0017096D01*
X0115862Y0021837D01*
X0117819Y0023794D01*
X0122560Y0019053D01*
G37*
G36*
X0124787Y0021280D02*
X0122830Y0019323D01*
X0118089Y0024064D01*
X0120046Y0026021D01*
X0124787Y0021280D01*
G37*
G36*
X0127014Y0023507D02*
X0125057Y0021550D01*
X0120316Y0026291D01*
X0122273Y0028248D01*
X0127014Y0023507D01*
G37*
G36*
X0129241Y0025734D02*
X0127284Y0023777D01*
X0122543Y0028518D01*
X0124500Y0030475D01*
X0129241Y0025734D01*
G37*
G36*
X0131468Y0027961D02*
X0129511Y0026004D01*
X0124770Y0030745D01*
X0126727Y0032702D01*
X0131468Y0027961D01*
G37*
G36*
X0133695Y0030189D02*
X0131738Y0028232D01*
X0126997Y0032973D01*
X0128954Y0034930D01*
X0133695Y0030189D01*
G37*
G36*
X0135922Y0032416D02*
X0133965Y0030459D01*
X0129224Y0035200D01*
X0131181Y0037157D01*
X0135922Y0032416D01*
G37*
G36*
X0138149Y0034643D02*
X0136192Y0032686D01*
X0131451Y0037427D01*
X0133408Y0039384D01*
X0138149Y0034643D01*
G37*
G36*
X0140376Y0036870D02*
X0138419Y0034913D01*
X0133678Y0039654D01*
X0135635Y0041611D01*
X0140376Y0036870D01*
G37*
G36*
X0142604Y0039097D02*
X0140647Y0037140D01*
X0135906Y0041881D01*
X0137863Y0043838D01*
X0142604Y0039097D01*
G37*
G36*
X0094721Y0055800D02*
X0092764Y0053843D01*
X0088023Y0058584D01*
X0089980Y0060541D01*
X0094721Y0055800D01*
G37*
G36*
X0092494Y0053573D02*
X0090537Y0051616D01*
X0085796Y0056357D01*
X0087753Y0058314D01*
X0092494Y0053573D01*
G37*
G36*
X0090266Y0051346D02*
X0088309Y0049389D01*
X0083568Y0054130D01*
X0085525Y0056087D01*
X0090266Y0051346D01*
G37*
G36*
X0088039Y0049119D02*
X0086082Y0047162D01*
X0081341Y0051903D01*
X0083298Y0053860D01*
X0088039Y0049119D01*
G37*
G36*
X0096948Y0058027D02*
X0094991Y0056070D01*
X0090250Y0060811D01*
X0092207Y0062768D01*
X0096948Y0058027D01*
G37*
G36*
X0099175Y0060255D02*
X0097218Y0058298D01*
X0092477Y0063039D01*
X0094434Y0064996D01*
X0099175Y0060255D01*
G37*
G36*
X0101402Y0062482D02*
X0099445Y0060525D01*
X0094704Y0065266D01*
X0096661Y0067223D01*
X0101402Y0062482D01*
G37*
G36*
X0103629Y0064709D02*
X0101672Y0062752D01*
X0096931Y0067493D01*
X0098888Y0069450D01*
X0103629Y0064709D01*
G37*
G36*
X0105856Y0066936D02*
X0103899Y0064979D01*
X0099158Y0069720D01*
X0101115Y0071677D01*
X0105856Y0066936D01*
G37*
G36*
X0108083Y0069163D02*
X0106126Y0067206D01*
X0101385Y0071947D01*
X0103342Y0073904D01*
X0108083Y0069163D01*
G37*
G36*
X0110310Y0071390D02*
X0108353Y0069433D01*
X0103612Y0074174D01*
X0105569Y0076131D01*
X0110310Y0071390D01*
G37*
D13*
X0056472Y0019500D03*
X0046472Y0019500D03*
X0036472Y0019500D03*
X0036472Y0009500D03*
X0046472Y0009500D03*
X0056472Y0009500D03*
D14*
G36*
X0081871Y0020967D02*
X0084386Y0023482D01*
X0087455Y0020413D01*
X0084940Y0017898D01*
X0081871Y0020967D01*
G37*
G36*
X0085490Y0024587D02*
X0088005Y0027102D01*
X0091074Y0024033D01*
X0088559Y0021518D01*
X0085490Y0024587D01*
G37*
G36*
X0091490Y0018587D02*
X0094005Y0021102D01*
X0097074Y0018033D01*
X0094559Y0015518D01*
X0091490Y0018587D01*
G37*
G36*
X0087871Y0014967D02*
X0090386Y0017482D01*
X0093455Y0014413D01*
X0090940Y0011898D01*
X0087871Y0014967D01*
G37*
G36*
X0071371Y0030467D02*
X0073886Y0032982D01*
X0076955Y0029913D01*
X0074440Y0027398D01*
X0071371Y0030467D01*
G37*
G36*
X0074990Y0034087D02*
X0077505Y0036602D01*
X0080574Y0033533D01*
X0078059Y0031018D01*
X0074990Y0034087D01*
G37*
G36*
X0092371Y0073467D02*
X0094886Y0075982D01*
X0097955Y0072913D01*
X0095440Y0070398D01*
X0092371Y0073467D01*
G37*
G36*
X0095990Y0077087D02*
X0098505Y0079602D01*
X0101574Y0076533D01*
X0099059Y0074018D01*
X0095990Y0077087D01*
G37*
X0151413Y0077000D03*
X0156531Y0077000D03*
D15*
X0136288Y0025866D02*
X0140338Y0021816D01*
X0136997Y0018475D02*
X0132947Y0022525D01*
X0129607Y0019184D02*
X0133657Y0015134D01*
D16*
G36*
X0127972Y0017785D02*
X0137701Y0027514D01*
X0141972Y0023243D01*
X0132243Y0013514D01*
X0127972Y0017785D01*
G37*
D17*
X0034693Y0042882D03*
X0034693Y0045441D03*
X0034693Y0048000D03*
X0034693Y0050559D03*
X0034693Y0053118D03*
D18*
X0023472Y0052921D03*
X0023472Y0043079D03*
D19*
X0023472Y0032252D03*
X0023472Y0063748D03*
D20*
X0060945Y0053000D03*
X0070000Y0053000D03*
D21*
X0155732Y0037563D03*
X0163213Y0037563D03*
X0159472Y0045831D03*
D22*
X0189449Y0051996D03*
X0214449Y0061996D03*
X0262283Y0051996D03*
X0287283Y0061996D03*
X0335118Y0051996D03*
X0360118Y0061996D03*
X0407953Y0051996D03*
X0432953Y0061996D03*
X0407953Y0124831D03*
X0432953Y0134831D03*
X0358150Y0134831D03*
X0333150Y0124831D03*
X0287283Y0134831D03*
X0262283Y0124831D03*
X0214449Y0134831D03*
X0189449Y0124831D03*
D23*
X0184449Y0114831D03*
X0224449Y0114831D03*
X0257283Y0114831D03*
X0297283Y0114831D03*
X0328150Y0114831D03*
X0368150Y0114831D03*
X0402953Y0114831D03*
X0442953Y0114831D03*
X0442953Y0041996D03*
X0402953Y0041996D03*
X0370118Y0041996D03*
X0330118Y0041996D03*
X0297283Y0041996D03*
X0257283Y0041996D03*
X0224449Y0041996D03*
X0184449Y0041996D03*
D24*
X0204449Y0041996D03*
X0277283Y0041996D03*
X0350118Y0041996D03*
X0422953Y0041996D03*
X0422953Y0114831D03*
X0348150Y0114831D03*
X0277283Y0114831D03*
X0204449Y0114831D03*
D25*
X0209449Y0099831D03*
X0199449Y0099831D03*
X0272283Y0099831D03*
X0282283Y0099831D03*
X0343150Y0099831D03*
X0353150Y0099831D03*
X0417953Y0099831D03*
X0427953Y0099831D03*
X0427953Y0026996D03*
X0417953Y0026996D03*
X0355118Y0026996D03*
X0345118Y0026996D03*
X0282283Y0026996D03*
X0272283Y0026996D03*
X0209449Y0026996D03*
X0199449Y0026996D03*
D26*
X0168472Y0027059D03*
X0162472Y0027059D03*
X0156472Y0027059D03*
X0150472Y0027059D03*
X0150472Y0021941D03*
X0156472Y0021941D03*
X0162472Y0021941D03*
X0168472Y0021941D03*
X0168472Y0055941D03*
X0162472Y0055941D03*
X0156472Y0055941D03*
X0150472Y0055941D03*
X0150472Y0061059D03*
X0156472Y0061059D03*
X0162472Y0061059D03*
X0168472Y0061059D03*
D27*
X0169972Y0138047D03*
X0169972Y0143953D03*
D28*
X0169972Y0149500D03*
X0172972Y0133500D03*
X0166472Y0097500D03*
X0127972Y0076500D03*
X0142972Y0067500D03*
X0135472Y0064500D03*
X0140472Y0060500D03*
X0145472Y0057500D03*
X0150472Y0047000D03*
X0142972Y0043500D03*
X0149972Y0033000D03*
X0155472Y0033000D03*
X0111972Y0045500D03*
X0082972Y0045500D03*
X0077972Y0048500D03*
X0071972Y0039000D03*
X0081472Y0059500D03*
X0090472Y0068500D03*
X0240472Y0061000D03*
X0311472Y0077500D03*
X0257972Y0094000D03*
X0143972Y0016000D03*
X0125472Y0012000D03*
X0111972Y0008000D03*
X0098972Y0010000D03*
X0085472Y0010500D03*
M02*
