G75*
%MOIN*%
%OFA0B0*%
%FSLAX25Y25*%
%IPPOS*%
%LPD*%
%AMOC8*
5,1,8,0,0,1.08239X$1,22.5*
%
%ADD10C,0.06400*%
%ADD11C,0.10000*%
%ADD12C,0.10124*%
%ADD13C,0.06600*%
%ADD14C,0.03100*%
%ADD15C,0.00800*%
D10*
X0036472Y0009500D03*
X0046472Y0009500D03*
X0056472Y0009500D03*
X0056472Y0019500D03*
X0046472Y0019500D03*
X0036472Y0019500D03*
D11*
X0189449Y0051996D03*
X0214449Y0061996D03*
X0262283Y0051996D03*
X0287283Y0061996D03*
X0335118Y0051996D03*
X0360118Y0061996D03*
X0407953Y0051996D03*
X0432953Y0061996D03*
X0407953Y0124831D03*
X0432953Y0134831D03*
X0358150Y0134831D03*
X0333150Y0124831D03*
X0287283Y0134831D03*
X0262283Y0124831D03*
X0214449Y0134831D03*
X0189449Y0124831D03*
D12*
X0184449Y0114831D03*
X0224449Y0114831D03*
X0257283Y0114831D03*
X0297283Y0114831D03*
X0328150Y0114831D03*
X0368150Y0114831D03*
X0402953Y0114831D03*
X0442953Y0114831D03*
X0442953Y0041996D03*
X0402953Y0041996D03*
X0370118Y0041996D03*
X0330118Y0041996D03*
X0297283Y0041996D03*
X0257283Y0041996D03*
X0224449Y0041996D03*
X0184449Y0041996D03*
D13*
X0199449Y0026996D03*
X0209449Y0026996D03*
X0272283Y0026996D03*
X0282283Y0026996D03*
X0345118Y0026996D03*
X0355118Y0026996D03*
X0417953Y0026996D03*
X0427953Y0026996D03*
X0427953Y0099831D03*
X0417953Y0099831D03*
X0353150Y0099831D03*
X0343150Y0099831D03*
X0282283Y0099831D03*
X0272283Y0099831D03*
X0209449Y0099831D03*
X0199449Y0099831D03*
D14*
X0166472Y0097500D03*
X0127972Y0076500D03*
X0142972Y0067500D03*
X0135472Y0064500D03*
X0140472Y0060500D03*
X0145472Y0057500D03*
X0150472Y0047000D03*
X0142972Y0043500D03*
X0149972Y0033000D03*
X0155472Y0033000D03*
X0111972Y0045500D03*
X0082972Y0045500D03*
X0077972Y0048500D03*
X0071972Y0039000D03*
X0081472Y0059500D03*
X0090472Y0068500D03*
X0240472Y0061000D03*
X0311472Y0077500D03*
X0257972Y0094000D03*
X0172972Y0133500D03*
X0169972Y0149500D03*
X0143972Y0016000D03*
X0125472Y0012000D03*
X0111972Y0008000D03*
X0098972Y0010000D03*
X0085472Y0010500D03*
D15*
X0017734Y0007500D02*
X0016793Y0009771D01*
X0016672Y0011000D01*
X0016672Y0141503D01*
X0026969Y0151800D01*
X0168383Y0151800D01*
X0167641Y0151058D01*
X0167222Y0150047D01*
X0167222Y0148953D01*
X0167641Y0147942D01*
X0168372Y0147211D01*
X0168372Y0101663D01*
X0166960Y0100250D01*
X0165925Y0100250D01*
X0164915Y0099831D01*
X0164141Y0099058D01*
X0163722Y0098047D01*
X0163722Y0096953D01*
X0164141Y0095942D01*
X0164915Y0095169D01*
X0165925Y0094750D01*
X0167019Y0094750D01*
X0168030Y0095169D01*
X0168804Y0095942D01*
X0169222Y0096953D01*
X0169222Y0097987D01*
X0170635Y0099400D01*
X0171572Y0100337D01*
X0171572Y0131103D01*
X0172425Y0130750D01*
X0173519Y0130750D01*
X0174530Y0131169D01*
X0175262Y0131900D01*
X0182635Y0131900D01*
X0183572Y0132837D01*
X0192635Y0141900D01*
X0313818Y0141900D01*
X0327742Y0127976D01*
X0326950Y0126064D01*
X0326950Y0123597D01*
X0327894Y0121319D01*
X0328119Y0121093D01*
X0326904Y0121093D01*
X0324602Y0120140D01*
X0322841Y0118378D01*
X0321887Y0116076D01*
X0321887Y0113585D01*
X0322841Y0111283D01*
X0324602Y0109522D01*
X0326904Y0108569D01*
X0329395Y0108569D01*
X0331697Y0109522D01*
X0333458Y0111283D01*
X0334412Y0113585D01*
X0334412Y0116076D01*
X0333458Y0118378D01*
X0333206Y0118631D01*
X0334383Y0118631D01*
X0336662Y0119575D01*
X0338406Y0121319D01*
X0339350Y0123597D01*
X0339350Y0126064D01*
X0338406Y0128343D01*
X0336662Y0130087D01*
X0334383Y0131031D01*
X0331916Y0131031D01*
X0330004Y0130239D01*
X0316080Y0144163D01*
X0315143Y0145100D01*
X0191310Y0145100D01*
X0181310Y0135100D01*
X0175262Y0135100D01*
X0174530Y0135831D01*
X0173519Y0136250D01*
X0172425Y0136250D01*
X0171572Y0135897D01*
X0171572Y0147211D01*
X0172304Y0147942D01*
X0172722Y0148953D01*
X0172722Y0150047D01*
X0172304Y0151058D01*
X0171561Y0151800D01*
X0449472Y0151800D01*
X0450702Y0151679D01*
X0452973Y0150738D01*
X0454711Y0149000D01*
X0455651Y0146729D01*
X0455772Y0145500D01*
X0455772Y0011000D01*
X0455651Y0009771D01*
X0454711Y0007500D01*
X0452973Y0005762D01*
X0450702Y0004821D01*
X0449472Y0004700D01*
X0022972Y0004700D01*
X0022397Y0004757D01*
X0024851Y0004757D01*
X0027318Y0005779D01*
X0029206Y0007667D01*
X0030228Y0010133D01*
X0030228Y0012804D01*
X0029206Y0015270D01*
X0027318Y0017158D01*
X0024851Y0018180D01*
X0022181Y0018180D01*
X0019714Y0017158D01*
X0017826Y0015270D01*
X0016804Y0012804D01*
X0016804Y0010133D01*
X0017826Y0007667D01*
X0019714Y0005779D01*
X0022113Y0004785D01*
X0021743Y0004821D01*
X0019472Y0005762D01*
X0017734Y0007500D01*
X0017742Y0007493D02*
X0018000Y0007493D01*
X0017567Y0008291D02*
X0017406Y0008291D01*
X0017236Y0009090D02*
X0017076Y0009090D01*
X0016906Y0009888D02*
X0016782Y0009888D01*
X0016804Y0010687D02*
X0016703Y0010687D01*
X0016672Y0011485D02*
X0016804Y0011485D01*
X0016804Y0012284D02*
X0016672Y0012284D01*
X0016672Y0013082D02*
X0016919Y0013082D01*
X0016672Y0013881D02*
X0017250Y0013881D01*
X0017581Y0014679D02*
X0016672Y0014679D01*
X0016672Y0015478D02*
X0018033Y0015478D01*
X0018831Y0016276D02*
X0016672Y0016276D01*
X0016672Y0017075D02*
X0019630Y0017075D01*
X0021439Y0017873D02*
X0016672Y0017873D01*
X0016672Y0018672D02*
X0032072Y0018672D01*
X0032072Y0018625D02*
X0032742Y0017008D01*
X0033980Y0015770D01*
X0035597Y0015100D01*
X0037348Y0015100D01*
X0038965Y0015770D01*
X0040203Y0017008D01*
X0040872Y0018625D01*
X0040872Y0020375D01*
X0040503Y0021268D01*
X0061135Y0041900D01*
X0077310Y0041900D01*
X0109647Y0009563D01*
X0109641Y0009558D01*
X0109222Y0008547D01*
X0109222Y0007453D01*
X0109641Y0006442D01*
X0110415Y0005669D01*
X0111425Y0005250D01*
X0112519Y0005250D01*
X0113530Y0005669D01*
X0114304Y0006442D01*
X0114722Y0007453D01*
X0114722Y0008547D01*
X0114304Y0009558D01*
X0113530Y0010331D01*
X0113314Y0010421D01*
X0112635Y0011100D01*
X0078635Y0045100D01*
X0059810Y0045100D01*
X0058872Y0044163D01*
X0038240Y0023530D01*
X0037348Y0023900D01*
X0035597Y0023900D01*
X0033980Y0023230D01*
X0032742Y0021992D01*
X0032072Y0020375D01*
X0032072Y0018625D01*
X0032384Y0017873D02*
X0025592Y0017873D01*
X0027401Y0017075D02*
X0032714Y0017075D01*
X0033474Y0016276D02*
X0028200Y0016276D01*
X0028998Y0015478D02*
X0034685Y0015478D01*
X0035395Y0013987D02*
X0034707Y0013763D01*
X0034062Y0013434D01*
X0033476Y0013009D01*
X0032964Y0012497D01*
X0032538Y0011911D01*
X0032209Y0011266D01*
X0031986Y0010577D01*
X0031878Y0009900D01*
X0036072Y0009900D01*
X0036072Y0009100D01*
X0031878Y0009100D01*
X0031986Y0008423D01*
X0032209Y0007734D01*
X0032538Y0007089D01*
X0032964Y0006503D01*
X0033476Y0005991D01*
X0034062Y0005566D01*
X0034707Y0005237D01*
X0035395Y0005013D01*
X0036072Y0004906D01*
X0036072Y0009100D01*
X0036872Y0009100D01*
X0036872Y0004906D01*
X0037550Y0005013D01*
X0038238Y0005237D01*
X0038883Y0005566D01*
X0039469Y0005991D01*
X0039981Y0006503D01*
X0040407Y0007089D01*
X0040735Y0007734D01*
X0040959Y0008423D01*
X0041066Y0009100D01*
X0036872Y0009100D01*
X0036872Y0009900D01*
X0036072Y0009900D01*
X0036072Y0014094D01*
X0035395Y0013987D01*
X0035069Y0013881D02*
X0029781Y0013881D01*
X0029451Y0014679D02*
X0049031Y0014679D01*
X0048240Y0015470D02*
X0047348Y0015100D01*
X0045597Y0015100D01*
X0043980Y0015770D01*
X0042742Y0017008D01*
X0042072Y0018625D01*
X0042072Y0020375D01*
X0042742Y0021992D01*
X0043980Y0023230D01*
X0045597Y0023900D01*
X0047348Y0023900D01*
X0048965Y0023230D01*
X0050203Y0021992D01*
X0050872Y0020375D01*
X0050872Y0018625D01*
X0050503Y0017732D01*
X0052135Y0016100D01*
X0053650Y0016100D01*
X0052742Y0017008D01*
X0052072Y0018625D01*
X0052072Y0020375D01*
X0052742Y0021992D01*
X0053980Y0023230D01*
X0055597Y0023900D01*
X0057348Y0023900D01*
X0058965Y0023230D01*
X0060203Y0021992D01*
X0060572Y0021100D01*
X0090135Y0021100D01*
X0091072Y0020163D01*
X0098485Y0012750D01*
X0099519Y0012750D01*
X0100530Y0012331D01*
X0101304Y0011558D01*
X0101722Y0010547D01*
X0101722Y0009513D01*
X0102372Y0010163D01*
X0102372Y0011337D01*
X0076310Y0037400D01*
X0074262Y0037400D01*
X0073530Y0036669D01*
X0072519Y0036250D01*
X0071425Y0036250D01*
X0070415Y0036669D01*
X0069641Y0037442D01*
X0069222Y0038453D01*
X0069222Y0039547D01*
X0069641Y0040558D01*
X0070415Y0041331D01*
X0071425Y0041750D01*
X0072519Y0041750D01*
X0073530Y0041331D01*
X0074262Y0040600D01*
X0077635Y0040600D01*
X0078572Y0039663D01*
X0105572Y0012663D01*
X0105572Y0008837D01*
X0104635Y0007900D01*
X0101635Y0004900D01*
X0058810Y0004900D01*
X0058240Y0005470D01*
X0057348Y0005100D01*
X0055597Y0005100D01*
X0053980Y0005770D01*
X0052742Y0007008D01*
X0052072Y0008625D01*
X0052072Y0010375D01*
X0052742Y0011992D01*
X0053650Y0012900D01*
X0050810Y0012900D01*
X0048240Y0015470D01*
X0051160Y0017075D02*
X0052714Y0017075D01*
X0052384Y0017873D02*
X0050561Y0017873D01*
X0050872Y0018672D02*
X0052072Y0018672D01*
X0052072Y0019470D02*
X0050872Y0019470D01*
X0050872Y0020269D02*
X0052072Y0020269D01*
X0052359Y0021067D02*
X0050586Y0021067D01*
X0050255Y0021866D02*
X0052690Y0021866D01*
X0053414Y0022664D02*
X0049531Y0022664D01*
X0048403Y0023463D02*
X0054542Y0023463D01*
X0058403Y0023463D02*
X0090247Y0023463D01*
X0089448Y0024261D02*
X0043496Y0024261D01*
X0042698Y0023463D02*
X0044542Y0023463D01*
X0043414Y0022664D02*
X0041899Y0022664D01*
X0042690Y0021866D02*
X0041101Y0021866D01*
X0040586Y0021067D02*
X0042359Y0021067D01*
X0042072Y0020269D02*
X0040872Y0020269D01*
X0040872Y0019470D02*
X0042072Y0019470D01*
X0042072Y0018672D02*
X0040872Y0018672D01*
X0040561Y0017873D02*
X0042384Y0017873D01*
X0042714Y0017075D02*
X0040230Y0017075D01*
X0039471Y0016276D02*
X0043474Y0016276D01*
X0044685Y0015478D02*
X0038259Y0015478D01*
X0037550Y0013987D02*
X0036872Y0014094D01*
X0036872Y0009900D01*
X0041066Y0009900D01*
X0040959Y0010577D01*
X0040735Y0011266D01*
X0040407Y0011911D01*
X0039981Y0012497D01*
X0039469Y0013009D01*
X0038883Y0013434D01*
X0038238Y0013763D01*
X0037550Y0013987D01*
X0037876Y0013881D02*
X0045551Y0013881D01*
X0045597Y0013900D02*
X0043980Y0013230D01*
X0042742Y0011992D01*
X0042072Y0010375D01*
X0042072Y0008625D01*
X0042742Y0007008D01*
X0043980Y0005770D01*
X0045597Y0005100D01*
X0047348Y0005100D01*
X0048965Y0005770D01*
X0050203Y0007008D01*
X0050872Y0008625D01*
X0050872Y0010375D01*
X0050203Y0011992D01*
X0048965Y0013230D01*
X0047348Y0013900D01*
X0045597Y0013900D01*
X0047394Y0013881D02*
X0049829Y0013881D01*
X0049113Y0013082D02*
X0050628Y0013082D01*
X0049911Y0012284D02*
X0053034Y0012284D01*
X0052532Y0011485D02*
X0050413Y0011485D01*
X0050743Y0010687D02*
X0052201Y0010687D01*
X0052072Y0009888D02*
X0050872Y0009888D01*
X0050872Y0009090D02*
X0052072Y0009090D01*
X0052211Y0008291D02*
X0050734Y0008291D01*
X0050403Y0007493D02*
X0052541Y0007493D01*
X0053056Y0006694D02*
X0049889Y0006694D01*
X0049091Y0005896D02*
X0053854Y0005896D01*
X0056472Y0009500D02*
X0059472Y0006500D01*
X0100972Y0006500D01*
X0103972Y0009500D01*
X0103972Y0012000D01*
X0076972Y0039000D01*
X0071972Y0039000D01*
X0069478Y0037836D02*
X0057071Y0037836D01*
X0056273Y0037037D02*
X0070046Y0037037D01*
X0069222Y0038634D02*
X0057870Y0038634D01*
X0058668Y0039433D02*
X0069222Y0039433D01*
X0069506Y0040232D02*
X0059467Y0040232D01*
X0060265Y0041030D02*
X0070113Y0041030D01*
X0073831Y0041030D02*
X0078180Y0041030D01*
X0078004Y0040232D02*
X0078978Y0040232D01*
X0078802Y0039433D02*
X0079777Y0039433D01*
X0079601Y0038634D02*
X0080575Y0038634D01*
X0080399Y0037836D02*
X0081374Y0037836D01*
X0081198Y0037037D02*
X0082172Y0037037D01*
X0081996Y0036239D02*
X0082971Y0036239D01*
X0082795Y0035440D02*
X0083769Y0035440D01*
X0083593Y0034642D02*
X0084568Y0034642D01*
X0084392Y0033843D02*
X0085366Y0033843D01*
X0085190Y0033045D02*
X0086165Y0033045D01*
X0085989Y0032246D02*
X0086963Y0032246D01*
X0086787Y0031448D02*
X0087762Y0031448D01*
X0087586Y0030649D02*
X0088560Y0030649D01*
X0088384Y0029851D02*
X0089359Y0029851D01*
X0089183Y0029052D02*
X0090157Y0029052D01*
X0089981Y0028254D02*
X0090956Y0028254D01*
X0090780Y0027455D02*
X0091754Y0027455D01*
X0091578Y0026657D02*
X0092553Y0026657D01*
X0092377Y0025858D02*
X0093351Y0025858D01*
X0093175Y0025060D02*
X0094150Y0025060D01*
X0093974Y0024261D02*
X0094948Y0024261D01*
X0094772Y0023463D02*
X0095747Y0023463D01*
X0095571Y0022664D02*
X0096545Y0022664D01*
X0096369Y0021866D02*
X0097344Y0021866D01*
X0097168Y0021067D02*
X0098142Y0021067D01*
X0097966Y0020269D02*
X0098941Y0020269D01*
X0098765Y0019470D02*
X0099739Y0019470D01*
X0099563Y0018672D02*
X0100538Y0018672D01*
X0100362Y0017873D02*
X0101336Y0017873D01*
X0101160Y0017075D02*
X0102135Y0017075D01*
X0101959Y0016276D02*
X0102934Y0016276D01*
X0102757Y0015478D02*
X0103732Y0015478D01*
X0103556Y0014679D02*
X0104531Y0014679D01*
X0104355Y0013881D02*
X0105329Y0013881D01*
X0105153Y0013082D02*
X0106128Y0013082D01*
X0105572Y0012284D02*
X0106926Y0012284D01*
X0107725Y0011485D02*
X0105572Y0011485D01*
X0105572Y0010687D02*
X0108523Y0010687D01*
X0109322Y0009888D02*
X0105572Y0009888D01*
X0105572Y0009090D02*
X0109447Y0009090D01*
X0109222Y0008291D02*
X0105026Y0008291D01*
X0104228Y0007493D02*
X0109222Y0007493D01*
X0109537Y0006694D02*
X0103429Y0006694D01*
X0102631Y0005896D02*
X0110188Y0005896D01*
X0113757Y0005896D02*
X0453106Y0005896D01*
X0453905Y0006694D02*
X0114408Y0006694D01*
X0114722Y0007493D02*
X0118717Y0007493D01*
X0119310Y0006900D02*
X0277635Y0006900D01*
X0278572Y0007837D01*
X0321131Y0050396D01*
X0329070Y0050396D01*
X0329862Y0048484D01*
X0330088Y0048258D01*
X0328872Y0048258D01*
X0326571Y0047305D01*
X0324809Y0045543D01*
X0323856Y0043242D01*
X0323856Y0040750D01*
X0324809Y0038449D01*
X0326571Y0036687D01*
X0328872Y0035734D01*
X0331364Y0035734D01*
X0333665Y0036687D01*
X0335427Y0038449D01*
X0336380Y0040750D01*
X0336380Y0043242D01*
X0335427Y0045543D01*
X0335174Y0045796D01*
X0336351Y0045796D01*
X0338630Y0046740D01*
X0340374Y0048484D01*
X0341318Y0050763D01*
X0341318Y0053229D01*
X0340374Y0055508D01*
X0338630Y0057252D01*
X0336351Y0058196D01*
X0333885Y0058196D01*
X0331606Y0057252D01*
X0329862Y0055508D01*
X0329070Y0053596D01*
X0321139Y0053596D01*
X0321135Y0053600D01*
X0319810Y0053600D01*
X0276310Y0010100D01*
X0127461Y0010100D01*
X0127762Y0010400D01*
X0235135Y0010400D01*
X0236072Y0011337D01*
X0249072Y0024337D01*
X0249072Y0115837D01*
X0256303Y0123068D01*
X0257027Y0121319D01*
X0257253Y0121093D01*
X0256038Y0121093D01*
X0253736Y0120140D01*
X0251975Y0118378D01*
X0251021Y0116076D01*
X0251021Y0113585D01*
X0251975Y0111283D01*
X0253736Y0109522D01*
X0256038Y0108569D01*
X0258529Y0108569D01*
X0260831Y0109522D01*
X0262592Y0111283D01*
X0263546Y0113585D01*
X0263546Y0116076D01*
X0262592Y0118378D01*
X0262340Y0118631D01*
X0263517Y0118631D01*
X0265795Y0119575D01*
X0267540Y0121319D01*
X0268483Y0123597D01*
X0268483Y0126064D01*
X0267540Y0128343D01*
X0265795Y0130087D01*
X0263517Y0131031D01*
X0261050Y0131031D01*
X0258771Y0130087D01*
X0257027Y0128343D01*
X0256235Y0126431D01*
X0255140Y0126431D01*
X0246810Y0118100D01*
X0245872Y0117163D01*
X0245872Y0081092D01*
X0244274Y0082690D01*
X0241808Y0083712D01*
X0239137Y0083712D01*
X0236670Y0082690D01*
X0234782Y0080802D01*
X0233761Y0078335D01*
X0233761Y0075665D01*
X0234782Y0073198D01*
X0236670Y0071310D01*
X0239137Y0070288D01*
X0241808Y0070288D01*
X0244274Y0071310D01*
X0245872Y0072908D01*
X0245872Y0025663D01*
X0233810Y0013600D01*
X0127762Y0013600D01*
X0127030Y0014331D01*
X0126019Y0014750D01*
X0124925Y0014750D01*
X0123915Y0014331D01*
X0123141Y0013558D01*
X0122722Y0012547D01*
X0122722Y0011453D01*
X0123141Y0010442D01*
X0123483Y0010100D01*
X0120635Y0010100D01*
X0085722Y0045013D01*
X0085722Y0046047D01*
X0085304Y0047058D01*
X0084530Y0047831D01*
X0083519Y0048250D01*
X0082425Y0048250D01*
X0081415Y0047831D01*
X0080641Y0047058D01*
X0080222Y0046047D01*
X0080222Y0044953D01*
X0080641Y0043942D01*
X0081415Y0043169D01*
X0082425Y0042750D01*
X0083460Y0042750D01*
X0119310Y0006900D01*
X0119972Y0008500D02*
X0082972Y0045500D01*
X0081001Y0047418D02*
X0016672Y0047418D01*
X0016672Y0046620D02*
X0080460Y0046620D01*
X0080222Y0045821D02*
X0016672Y0045821D01*
X0016672Y0045023D02*
X0059732Y0045023D01*
X0058934Y0044224D02*
X0016672Y0044224D01*
X0016672Y0043426D02*
X0058135Y0043426D01*
X0057337Y0042627D02*
X0016672Y0042627D01*
X0016672Y0041829D02*
X0056538Y0041829D01*
X0055740Y0041030D02*
X0016672Y0041030D01*
X0016672Y0040232D02*
X0054941Y0040232D01*
X0054143Y0039433D02*
X0016672Y0039433D01*
X0016672Y0038634D02*
X0053344Y0038634D01*
X0052546Y0037836D02*
X0016672Y0037836D01*
X0016672Y0037037D02*
X0051747Y0037037D01*
X0050949Y0036239D02*
X0016672Y0036239D01*
X0016672Y0035440D02*
X0050150Y0035440D01*
X0049352Y0034642D02*
X0016672Y0034642D01*
X0016672Y0033843D02*
X0048553Y0033843D01*
X0047755Y0033045D02*
X0016672Y0033045D01*
X0016672Y0032246D02*
X0046956Y0032246D01*
X0046158Y0031448D02*
X0016672Y0031448D01*
X0016672Y0030649D02*
X0045359Y0030649D01*
X0044561Y0029851D02*
X0016672Y0029851D01*
X0016672Y0029052D02*
X0043762Y0029052D01*
X0042964Y0028254D02*
X0016672Y0028254D01*
X0016672Y0027455D02*
X0042165Y0027455D01*
X0041367Y0026657D02*
X0016672Y0026657D01*
X0016672Y0025858D02*
X0040568Y0025858D01*
X0039770Y0025060D02*
X0016672Y0025060D01*
X0016672Y0024261D02*
X0038971Y0024261D01*
X0034542Y0023463D02*
X0016672Y0023463D01*
X0016672Y0022664D02*
X0033414Y0022664D01*
X0032690Y0021866D02*
X0016672Y0021866D01*
X0016672Y0021067D02*
X0032359Y0021067D01*
X0032072Y0020269D02*
X0016672Y0020269D01*
X0016672Y0019470D02*
X0032072Y0019470D01*
X0036472Y0019500D02*
X0060472Y0043500D01*
X0077972Y0043500D01*
X0111972Y0009500D01*
X0111972Y0008000D01*
X0114498Y0009090D02*
X0117120Y0009090D01*
X0116322Y0009888D02*
X0113973Y0009888D01*
X0113049Y0010687D02*
X0115523Y0010687D01*
X0114725Y0011485D02*
X0112250Y0011485D01*
X0111452Y0012284D02*
X0113926Y0012284D01*
X0113128Y0013082D02*
X0110653Y0013082D01*
X0109855Y0013881D02*
X0112329Y0013881D01*
X0111531Y0014679D02*
X0109056Y0014679D01*
X0108257Y0015478D02*
X0110732Y0015478D01*
X0109934Y0016276D02*
X0107459Y0016276D01*
X0106660Y0017075D02*
X0109135Y0017075D01*
X0108336Y0017873D02*
X0105862Y0017873D01*
X0105063Y0018672D02*
X0107538Y0018672D01*
X0106739Y0019470D02*
X0104265Y0019470D01*
X0103466Y0020269D02*
X0105941Y0020269D01*
X0105142Y0021067D02*
X0102668Y0021067D01*
X0101869Y0021866D02*
X0104344Y0021866D01*
X0103545Y0022664D02*
X0101071Y0022664D01*
X0100272Y0023463D02*
X0102747Y0023463D01*
X0101948Y0024261D02*
X0099474Y0024261D01*
X0098675Y0025060D02*
X0101150Y0025060D01*
X0100351Y0025858D02*
X0097877Y0025858D01*
X0097078Y0026657D02*
X0099553Y0026657D01*
X0098754Y0027455D02*
X0096280Y0027455D01*
X0095481Y0028254D02*
X0097956Y0028254D01*
X0097157Y0029052D02*
X0094683Y0029052D01*
X0093884Y0029851D02*
X0096359Y0029851D01*
X0095560Y0030649D02*
X0093086Y0030649D01*
X0092287Y0031448D02*
X0094762Y0031448D01*
X0093963Y0032246D02*
X0091489Y0032246D01*
X0090690Y0033045D02*
X0093165Y0033045D01*
X0092366Y0033843D02*
X0089892Y0033843D01*
X0089093Y0034642D02*
X0091568Y0034642D01*
X0090769Y0035440D02*
X0088295Y0035440D01*
X0087496Y0036239D02*
X0089971Y0036239D01*
X0089172Y0037037D02*
X0086698Y0037037D01*
X0085899Y0037836D02*
X0088374Y0037836D01*
X0087575Y0038634D02*
X0085101Y0038634D01*
X0084302Y0039433D02*
X0086777Y0039433D01*
X0085978Y0040232D02*
X0083504Y0040232D01*
X0082705Y0041030D02*
X0085180Y0041030D01*
X0084381Y0041829D02*
X0081907Y0041829D01*
X0081108Y0042627D02*
X0083583Y0042627D01*
X0081158Y0043426D02*
X0080310Y0043426D01*
X0080524Y0044224D02*
X0079511Y0044224D01*
X0080222Y0045023D02*
X0078713Y0045023D01*
X0084943Y0047418D02*
X0141792Y0047418D01*
X0142590Y0046620D02*
X0085485Y0046620D01*
X0085722Y0045821D02*
X0143389Y0045821D01*
X0144187Y0045023D02*
X0085722Y0045023D01*
X0086511Y0044224D02*
X0144986Y0044224D01*
X0145784Y0043426D02*
X0087310Y0043426D01*
X0088108Y0042627D02*
X0146583Y0042627D01*
X0147381Y0041829D02*
X0088907Y0041829D01*
X0089705Y0041030D02*
X0148180Y0041030D01*
X0148978Y0040232D02*
X0090504Y0040232D01*
X0091302Y0039433D02*
X0149777Y0039433D01*
X0150575Y0038634D02*
X0092101Y0038634D01*
X0092899Y0037836D02*
X0151374Y0037836D01*
X0152172Y0037037D02*
X0093698Y0037037D01*
X0094496Y0036239D02*
X0152971Y0036239D01*
X0153769Y0035440D02*
X0095295Y0035440D01*
X0096093Y0034642D02*
X0153225Y0034642D01*
X0153141Y0034558D02*
X0152722Y0033547D01*
X0152722Y0032453D01*
X0153141Y0031442D01*
X0153915Y0030669D01*
X0154925Y0030250D01*
X0156019Y0030250D01*
X0157030Y0030669D01*
X0157804Y0031442D01*
X0158222Y0032453D01*
X0158222Y0033547D01*
X0157804Y0034558D01*
X0157072Y0035289D01*
X0157072Y0036663D01*
X0156135Y0037600D01*
X0149174Y0044561D01*
X0149925Y0044250D01*
X0151019Y0044250D01*
X0152030Y0044669D01*
X0152804Y0045442D01*
X0153222Y0046453D01*
X0153222Y0047547D01*
X0152804Y0048558D01*
X0152072Y0049289D01*
X0152072Y0053163D01*
X0151135Y0054100D01*
X0148222Y0057013D01*
X0148222Y0058047D01*
X0147869Y0058900D01*
X0180282Y0058900D01*
X0184041Y0055141D01*
X0183249Y0053229D01*
X0183249Y0050763D01*
X0184193Y0048484D01*
X0184419Y0048258D01*
X0183203Y0048258D01*
X0180902Y0047305D01*
X0179140Y0045543D01*
X0178187Y0043242D01*
X0178187Y0040750D01*
X0179140Y0038449D01*
X0180902Y0036687D01*
X0183203Y0035734D01*
X0185694Y0035734D01*
X0187996Y0036687D01*
X0189758Y0038449D01*
X0190711Y0040750D01*
X0190711Y0043242D01*
X0189758Y0045543D01*
X0189505Y0045796D01*
X0190682Y0045796D01*
X0192961Y0046740D01*
X0194705Y0048484D01*
X0195649Y0050763D01*
X0195649Y0053229D01*
X0194705Y0055508D01*
X0192961Y0057252D01*
X0190682Y0058196D01*
X0188216Y0058196D01*
X0186304Y0057404D01*
X0182545Y0061163D01*
X0181608Y0062100D01*
X0142762Y0062100D01*
X0142461Y0062400D01*
X0204135Y0062400D01*
X0205072Y0063337D01*
X0209635Y0067900D01*
X0211978Y0067900D01*
X0211612Y0067748D01*
X0210886Y0067329D01*
X0210220Y0066818D01*
X0209627Y0066225D01*
X0209116Y0065559D01*
X0208697Y0064833D01*
X0208375Y0064058D01*
X0208158Y0063247D01*
X0208049Y0062416D01*
X0208049Y0062396D01*
X0214049Y0062396D01*
X0214049Y0061596D01*
X0214849Y0061596D01*
X0214849Y0062396D01*
X0220849Y0062396D01*
X0220849Y0062416D01*
X0220739Y0063247D01*
X0220522Y0064058D01*
X0220201Y0064833D01*
X0219782Y0065559D01*
X0219271Y0066225D01*
X0218678Y0066818D01*
X0218012Y0067329D01*
X0217286Y0067748D01*
X0216919Y0067900D01*
X0231310Y0067900D01*
X0237722Y0061487D01*
X0237722Y0060453D01*
X0238141Y0059442D01*
X0238915Y0058669D01*
X0239925Y0058250D01*
X0241019Y0058250D01*
X0242030Y0058669D01*
X0242804Y0059442D01*
X0243222Y0060453D01*
X0243222Y0061547D01*
X0242804Y0062558D01*
X0242030Y0063331D01*
X0241019Y0063750D01*
X0239985Y0063750D01*
X0233572Y0070163D01*
X0232635Y0071100D01*
X0208310Y0071100D01*
X0207372Y0070163D01*
X0202810Y0065600D01*
X0144961Y0065600D01*
X0145304Y0065942D01*
X0145722Y0066953D01*
X0145722Y0067987D01*
X0175572Y0097837D01*
X0175572Y0117837D01*
X0180966Y0123231D01*
X0183401Y0123231D01*
X0184193Y0121319D01*
X0184419Y0121093D01*
X0183203Y0121093D01*
X0180902Y0120140D01*
X0179140Y0118378D01*
X0178187Y0116076D01*
X0178187Y0113585D01*
X0179140Y0111283D01*
X0180902Y0109522D01*
X0183203Y0108569D01*
X0185694Y0108569D01*
X0187996Y0109522D01*
X0189758Y0111283D01*
X0190711Y0113585D01*
X0190711Y0116076D01*
X0189758Y0118378D01*
X0189505Y0118631D01*
X0190682Y0118631D01*
X0192961Y0119575D01*
X0194705Y0121319D01*
X0195649Y0123597D01*
X0195649Y0126064D01*
X0194705Y0128343D01*
X0192961Y0130087D01*
X0190682Y0131031D01*
X0188216Y0131031D01*
X0185937Y0130087D01*
X0184193Y0128343D01*
X0183401Y0126431D01*
X0179640Y0126431D01*
X0173310Y0120100D01*
X0172372Y0119163D01*
X0172372Y0099163D01*
X0143460Y0070250D01*
X0142425Y0070250D01*
X0141415Y0069831D01*
X0140641Y0069058D01*
X0140222Y0068047D01*
X0140222Y0066953D01*
X0140534Y0066201D01*
X0130722Y0076013D01*
X0130722Y0077047D01*
X0130304Y0078058D01*
X0129530Y0078831D01*
X0128519Y0079250D01*
X0127425Y0079250D01*
X0126415Y0078831D01*
X0125641Y0078058D01*
X0125222Y0077047D01*
X0125222Y0075953D01*
X0125641Y0074942D01*
X0126415Y0074169D01*
X0127425Y0073750D01*
X0128460Y0073750D01*
X0134960Y0067250D01*
X0134925Y0067250D01*
X0133915Y0066831D01*
X0133141Y0066058D01*
X0132722Y0065047D01*
X0132722Y0064013D01*
X0130872Y0062163D01*
X0130872Y0058337D01*
X0131810Y0057400D01*
X0153872Y0035337D01*
X0153872Y0035289D01*
X0153141Y0034558D01*
X0152845Y0033843D02*
X0096892Y0033843D01*
X0097690Y0033045D02*
X0152722Y0033045D01*
X0152808Y0032246D02*
X0098489Y0032246D01*
X0099287Y0031448D02*
X0153139Y0031448D01*
X0153961Y0030649D02*
X0100086Y0030649D01*
X0100884Y0029851D02*
X0195940Y0029851D01*
X0195634Y0029545D02*
X0194949Y0027891D01*
X0194949Y0026101D01*
X0195634Y0024447D01*
X0196900Y0023181D01*
X0198554Y0022496D01*
X0200344Y0022496D01*
X0201998Y0023181D01*
X0203264Y0024447D01*
X0203949Y0026101D01*
X0203949Y0027891D01*
X0203264Y0029545D01*
X0201998Y0030811D01*
X0200344Y0031496D01*
X0198554Y0031496D01*
X0196900Y0030811D01*
X0195634Y0029545D01*
X0195430Y0029052D02*
X0101683Y0029052D01*
X0102481Y0028254D02*
X0195099Y0028254D01*
X0194949Y0027455D02*
X0103280Y0027455D01*
X0104078Y0026657D02*
X0194949Y0026657D01*
X0195049Y0025858D02*
X0104877Y0025858D01*
X0105675Y0025060D02*
X0195380Y0025060D01*
X0195820Y0024261D02*
X0106474Y0024261D01*
X0107272Y0023463D02*
X0196618Y0023463D01*
X0198148Y0022664D02*
X0108071Y0022664D01*
X0108869Y0021866D02*
X0242075Y0021866D01*
X0241277Y0021067D02*
X0109668Y0021067D01*
X0110466Y0020269D02*
X0240478Y0020269D01*
X0239680Y0019470D02*
X0111265Y0019470D01*
X0112063Y0018672D02*
X0238881Y0018672D01*
X0238083Y0017873D02*
X0112862Y0017873D01*
X0113660Y0017075D02*
X0237284Y0017075D01*
X0236486Y0016276D02*
X0114459Y0016276D01*
X0115257Y0015478D02*
X0235687Y0015478D01*
X0234889Y0014679D02*
X0126190Y0014679D01*
X0124754Y0014679D02*
X0116056Y0014679D01*
X0116855Y0013881D02*
X0123464Y0013881D01*
X0122944Y0013082D02*
X0117653Y0013082D01*
X0118452Y0012284D02*
X0122722Y0012284D01*
X0122722Y0011485D02*
X0119250Y0011485D01*
X0120049Y0010687D02*
X0123040Y0010687D01*
X0125472Y0012000D02*
X0234472Y0012000D01*
X0247472Y0025000D01*
X0247472Y0116500D01*
X0255803Y0124831D01*
X0262283Y0124831D01*
X0256547Y0122478D02*
X0255713Y0122478D01*
X0254915Y0121680D02*
X0256878Y0121680D01*
X0255527Y0120881D02*
X0254116Y0120881D01*
X0253679Y0120083D02*
X0253318Y0120083D01*
X0252881Y0119284D02*
X0252519Y0119284D01*
X0252082Y0118486D02*
X0251721Y0118486D01*
X0251688Y0117687D02*
X0250922Y0117687D01*
X0251358Y0116889D02*
X0250124Y0116889D01*
X0249325Y0116090D02*
X0251027Y0116090D01*
X0251021Y0115292D02*
X0249072Y0115292D01*
X0249072Y0114493D02*
X0251021Y0114493D01*
X0251021Y0113695D02*
X0249072Y0113695D01*
X0249072Y0112896D02*
X0251307Y0112896D01*
X0251637Y0112098D02*
X0249072Y0112098D01*
X0249072Y0111299D02*
X0251968Y0111299D01*
X0252758Y0110501D02*
X0249072Y0110501D01*
X0249072Y0109702D02*
X0253556Y0109702D01*
X0255229Y0108903D02*
X0249072Y0108903D01*
X0249072Y0108105D02*
X0271175Y0108105D01*
X0270377Y0108903D02*
X0259338Y0108903D01*
X0261011Y0109702D02*
X0269585Y0109702D01*
X0269590Y0109690D02*
X0272143Y0107137D01*
X0275478Y0105756D01*
X0279089Y0105756D01*
X0282424Y0107137D01*
X0284977Y0109690D01*
X0286358Y0113026D01*
X0286358Y0116636D01*
X0284977Y0119971D01*
X0282424Y0122524D01*
X0279089Y0123905D01*
X0275478Y0123905D01*
X0272143Y0122524D01*
X0269590Y0119971D01*
X0268209Y0116636D01*
X0268209Y0113026D01*
X0269590Y0109690D01*
X0269255Y0110501D02*
X0261809Y0110501D01*
X0262599Y0111299D02*
X0268924Y0111299D01*
X0268593Y0112098D02*
X0262930Y0112098D01*
X0263260Y0112896D02*
X0268262Y0112896D01*
X0268209Y0113695D02*
X0263546Y0113695D01*
X0263546Y0114493D02*
X0268209Y0114493D01*
X0268209Y0115292D02*
X0263546Y0115292D01*
X0263540Y0116090D02*
X0268209Y0116090D01*
X0268313Y0116889D02*
X0263209Y0116889D01*
X0262878Y0117687D02*
X0268644Y0117687D01*
X0268975Y0118486D02*
X0262485Y0118486D01*
X0265094Y0119284D02*
X0269306Y0119284D01*
X0269702Y0120083D02*
X0266304Y0120083D01*
X0267102Y0120881D02*
X0270500Y0120881D01*
X0271299Y0121680D02*
X0267689Y0121680D01*
X0268020Y0122478D02*
X0272097Y0122478D01*
X0273960Y0123277D02*
X0268351Y0123277D01*
X0268483Y0124075D02*
X0326950Y0124075D01*
X0326950Y0124874D02*
X0268483Y0124874D01*
X0268483Y0125672D02*
X0326950Y0125672D01*
X0327118Y0126471D02*
X0268315Y0126471D01*
X0267984Y0127269D02*
X0327449Y0127269D01*
X0327650Y0128068D02*
X0267653Y0128068D01*
X0267016Y0128866D02*
X0284959Y0128866D01*
X0285222Y0128757D02*
X0286032Y0128540D01*
X0286864Y0128431D01*
X0286883Y0128431D01*
X0286883Y0134431D01*
X0280883Y0134431D01*
X0280883Y0134411D01*
X0280993Y0133579D01*
X0281210Y0132769D01*
X0281531Y0131994D01*
X0281951Y0131267D01*
X0282461Y0130602D01*
X0283055Y0130009D01*
X0283720Y0129498D01*
X0284447Y0129078D01*
X0285222Y0128757D01*
X0286883Y0128866D02*
X0287683Y0128866D01*
X0287683Y0128431D02*
X0287703Y0128431D01*
X0288535Y0128540D01*
X0289345Y0128757D01*
X0290120Y0129078D01*
X0290847Y0129498D01*
X0291512Y0130009D01*
X0292106Y0130602D01*
X0292616Y0131267D01*
X0293036Y0131994D01*
X0293357Y0132769D01*
X0293574Y0133579D01*
X0293683Y0134411D01*
X0293683Y0134431D01*
X0287684Y0134431D01*
X0287684Y0135231D01*
X0293683Y0135231D01*
X0293683Y0135250D01*
X0293574Y0136082D01*
X0293357Y0136892D01*
X0293036Y0137667D01*
X0292616Y0138394D01*
X0292106Y0139060D01*
X0291512Y0139653D01*
X0290847Y0140164D01*
X0290120Y0140583D01*
X0289345Y0140904D01*
X0288535Y0141121D01*
X0287703Y0141231D01*
X0287683Y0141231D01*
X0287683Y0135231D01*
X0286883Y0135231D01*
X0286883Y0134431D01*
X0287683Y0134431D01*
X0287683Y0128431D01*
X0287683Y0129665D02*
X0286883Y0129665D01*
X0286883Y0130463D02*
X0287683Y0130463D01*
X0287683Y0131262D02*
X0286883Y0131262D01*
X0286883Y0132060D02*
X0287683Y0132060D01*
X0287683Y0132859D02*
X0286883Y0132859D01*
X0286883Y0133657D02*
X0287683Y0133657D01*
X0287684Y0134456D02*
X0321262Y0134456D01*
X0322060Y0133657D02*
X0293584Y0133657D01*
X0293381Y0132859D02*
X0322859Y0132859D01*
X0323657Y0132060D02*
X0293063Y0132060D01*
X0292612Y0131262D02*
X0324456Y0131262D01*
X0325254Y0130463D02*
X0291967Y0130463D01*
X0291064Y0129665D02*
X0326053Y0129665D01*
X0326851Y0128866D02*
X0289608Y0128866D01*
X0283503Y0129665D02*
X0266217Y0129665D01*
X0264887Y0130463D02*
X0282600Y0130463D01*
X0281955Y0131262D02*
X0219777Y0131262D01*
X0219782Y0131267D02*
X0220201Y0131994D01*
X0220522Y0132769D01*
X0220739Y0133579D01*
X0220849Y0134411D01*
X0220849Y0134431D01*
X0214849Y0134431D01*
X0214849Y0135231D01*
X0214049Y0135231D01*
X0214049Y0141231D01*
X0214029Y0141231D01*
X0213198Y0141121D01*
X0212387Y0140904D01*
X0211612Y0140583D01*
X0210886Y0140164D01*
X0210220Y0139653D01*
X0209627Y0139060D01*
X0209116Y0138394D01*
X0208697Y0137667D01*
X0208375Y0136892D01*
X0208158Y0136082D01*
X0208049Y0135250D01*
X0208049Y0135231D01*
X0214049Y0135231D01*
X0214049Y0134431D01*
X0208049Y0134431D01*
X0208049Y0134411D01*
X0208158Y0133579D01*
X0208375Y0132769D01*
X0208697Y0131994D01*
X0209116Y0131267D01*
X0209627Y0130602D01*
X0210220Y0130009D01*
X0210886Y0129498D01*
X0211612Y0129078D01*
X0212387Y0128757D01*
X0213198Y0128540D01*
X0214029Y0128431D01*
X0214049Y0128431D01*
X0214049Y0134431D01*
X0214849Y0134431D01*
X0214849Y0128431D01*
X0214868Y0128431D01*
X0215700Y0128540D01*
X0216510Y0128757D01*
X0217286Y0129078D01*
X0218012Y0129498D01*
X0218678Y0130009D01*
X0219271Y0130602D01*
X0219782Y0131267D01*
X0220229Y0132060D02*
X0281504Y0132060D01*
X0281186Y0132859D02*
X0220546Y0132859D01*
X0220750Y0133657D02*
X0280983Y0133657D01*
X0280883Y0135231D02*
X0286883Y0135231D01*
X0286883Y0141231D01*
X0286864Y0141231D01*
X0286032Y0141121D01*
X0285222Y0140904D01*
X0284447Y0140583D01*
X0283720Y0140164D01*
X0283055Y0139653D01*
X0282461Y0139060D01*
X0281951Y0138394D01*
X0281531Y0137667D01*
X0281210Y0136892D01*
X0280993Y0136082D01*
X0280883Y0135250D01*
X0280883Y0135231D01*
X0280884Y0135254D02*
X0220848Y0135254D01*
X0220849Y0135250D02*
X0220739Y0136082D01*
X0220522Y0136892D01*
X0220201Y0137667D01*
X0219782Y0138394D01*
X0219271Y0139060D01*
X0218678Y0139653D01*
X0218012Y0140164D01*
X0217286Y0140583D01*
X0216510Y0140904D01*
X0215700Y0141121D01*
X0214868Y0141231D01*
X0214849Y0141231D01*
X0214849Y0135231D01*
X0220849Y0135231D01*
X0220849Y0135250D01*
X0220743Y0136053D02*
X0280989Y0136053D01*
X0281199Y0136851D02*
X0220533Y0136851D01*
X0220208Y0137650D02*
X0281524Y0137650D01*
X0281992Y0138448D02*
X0219740Y0138448D01*
X0219084Y0139247D02*
X0282649Y0139247D01*
X0283566Y0140045D02*
X0218166Y0140045D01*
X0216656Y0140844D02*
X0285077Y0140844D01*
X0286883Y0140844D02*
X0287683Y0140844D01*
X0287683Y0140045D02*
X0286883Y0140045D01*
X0286883Y0139247D02*
X0287683Y0139247D01*
X0287683Y0138448D02*
X0286883Y0138448D01*
X0286883Y0137650D02*
X0287683Y0137650D01*
X0287683Y0136851D02*
X0286883Y0136851D01*
X0286883Y0136053D02*
X0287683Y0136053D01*
X0287683Y0135254D02*
X0286883Y0135254D01*
X0286883Y0134456D02*
X0214849Y0134456D01*
X0214849Y0135254D02*
X0214049Y0135254D01*
X0214049Y0134456D02*
X0185191Y0134456D01*
X0185990Y0135254D02*
X0208049Y0135254D01*
X0208155Y0136053D02*
X0186788Y0136053D01*
X0187587Y0136851D02*
X0208365Y0136851D01*
X0208689Y0137650D02*
X0188385Y0137650D01*
X0189184Y0138448D02*
X0209158Y0138448D01*
X0209814Y0139247D02*
X0189982Y0139247D01*
X0190781Y0140045D02*
X0210732Y0140045D01*
X0212242Y0140844D02*
X0191579Y0140844D01*
X0192378Y0141642D02*
X0314075Y0141642D01*
X0314874Y0140844D02*
X0289490Y0140844D01*
X0291001Y0140045D02*
X0315672Y0140045D01*
X0316471Y0139247D02*
X0291918Y0139247D01*
X0292575Y0138448D02*
X0317269Y0138448D01*
X0318068Y0137650D02*
X0293043Y0137650D01*
X0293368Y0136851D02*
X0318866Y0136851D01*
X0319665Y0136053D02*
X0293578Y0136053D01*
X0293683Y0135254D02*
X0320463Y0135254D01*
X0323392Y0136851D02*
X0352065Y0136851D01*
X0352076Y0136892D02*
X0351859Y0136082D01*
X0351750Y0135250D01*
X0351750Y0135231D01*
X0357750Y0135231D01*
X0357750Y0141231D01*
X0357730Y0141231D01*
X0356898Y0141121D01*
X0356088Y0140904D01*
X0355313Y0140583D01*
X0354586Y0140164D01*
X0353921Y0139653D01*
X0353328Y0139060D01*
X0352817Y0138394D01*
X0352397Y0137667D01*
X0352076Y0136892D01*
X0352390Y0137650D02*
X0322593Y0137650D01*
X0321795Y0138448D02*
X0352859Y0138448D01*
X0353515Y0139247D02*
X0320996Y0139247D01*
X0320198Y0140045D02*
X0354432Y0140045D01*
X0355943Y0140844D02*
X0319399Y0140844D01*
X0318601Y0141642D02*
X0455772Y0141642D01*
X0455772Y0140844D02*
X0435159Y0140844D01*
X0435014Y0140904D02*
X0435789Y0140583D01*
X0436516Y0140164D01*
X0437182Y0139653D01*
X0437775Y0139060D01*
X0438286Y0138394D01*
X0438705Y0137667D01*
X0439026Y0136892D01*
X0439243Y0136082D01*
X0439353Y0135250D01*
X0439353Y0135231D01*
X0433353Y0135231D01*
X0432553Y0135231D01*
X0432553Y0141231D01*
X0432533Y0141231D01*
X0431701Y0141121D01*
X0430891Y0140904D01*
X0430116Y0140583D01*
X0429389Y0140164D01*
X0428724Y0139653D01*
X0428131Y0139060D01*
X0427620Y0138394D01*
X0427200Y0137667D01*
X0426879Y0136892D01*
X0426662Y0136082D01*
X0426553Y0135250D01*
X0426553Y0135231D01*
X0432553Y0135231D01*
X0432553Y0134431D01*
X0426553Y0134431D01*
X0426553Y0134411D01*
X0426662Y0133579D01*
X0426879Y0132769D01*
X0427200Y0131994D01*
X0427620Y0131267D01*
X0428131Y0130602D01*
X0428724Y0130009D01*
X0429389Y0129498D01*
X0430116Y0129078D01*
X0430891Y0128757D01*
X0431701Y0128540D01*
X0432533Y0128431D01*
X0432553Y0128431D01*
X0432553Y0134431D01*
X0433353Y0134431D01*
X0433353Y0135231D01*
X0433353Y0141231D01*
X0433372Y0141231D01*
X0434204Y0141121D01*
X0435014Y0140904D01*
X0433353Y0140844D02*
X0432553Y0140844D01*
X0432553Y0140045D02*
X0433353Y0140045D01*
X0433353Y0139247D02*
X0432553Y0139247D01*
X0432553Y0138448D02*
X0433353Y0138448D01*
X0433353Y0137650D02*
X0432553Y0137650D01*
X0432553Y0136851D02*
X0433353Y0136851D01*
X0433353Y0136053D02*
X0432553Y0136053D01*
X0432553Y0135254D02*
X0433353Y0135254D01*
X0433353Y0134456D02*
X0455772Y0134456D01*
X0455772Y0135254D02*
X0439352Y0135254D01*
X0439247Y0136053D02*
X0455772Y0136053D01*
X0455772Y0136851D02*
X0439037Y0136851D01*
X0438712Y0137650D02*
X0455772Y0137650D01*
X0455772Y0138448D02*
X0438244Y0138448D01*
X0437587Y0139247D02*
X0455772Y0139247D01*
X0455772Y0140045D02*
X0436670Y0140045D01*
X0430746Y0140844D02*
X0360356Y0140844D01*
X0360211Y0140904D02*
X0359401Y0141121D01*
X0358569Y0141231D01*
X0358550Y0141231D01*
X0358550Y0135231D01*
X0364550Y0135231D01*
X0364550Y0135250D01*
X0364440Y0136082D01*
X0364223Y0136892D01*
X0363902Y0137667D01*
X0363482Y0138394D01*
X0362972Y0139060D01*
X0362378Y0139653D01*
X0361713Y0140164D01*
X0360986Y0140583D01*
X0360211Y0140904D01*
X0358550Y0140844D02*
X0357750Y0140844D01*
X0357750Y0140045D02*
X0358550Y0140045D01*
X0358550Y0139247D02*
X0357750Y0139247D01*
X0357750Y0138448D02*
X0358550Y0138448D01*
X0358550Y0137650D02*
X0357750Y0137650D01*
X0357750Y0136851D02*
X0358550Y0136851D01*
X0358550Y0136053D02*
X0357750Y0136053D01*
X0357750Y0135254D02*
X0358550Y0135254D01*
X0358550Y0135231D02*
X0357750Y0135231D01*
X0357750Y0134431D01*
X0358550Y0134431D01*
X0358550Y0135231D01*
X0358550Y0134456D02*
X0432553Y0134456D01*
X0432553Y0133657D02*
X0433353Y0133657D01*
X0433353Y0134431D02*
X0433353Y0128431D01*
X0433372Y0128431D01*
X0434204Y0128540D01*
X0435014Y0128757D01*
X0435789Y0129078D01*
X0436516Y0129498D01*
X0437182Y0130009D01*
X0437775Y0130602D01*
X0438286Y0131267D01*
X0438705Y0131994D01*
X0439026Y0132769D01*
X0439243Y0133579D01*
X0439353Y0134411D01*
X0439353Y0134431D01*
X0433353Y0134431D01*
X0433353Y0132859D02*
X0432553Y0132859D01*
X0432553Y0132060D02*
X0433353Y0132060D01*
X0433353Y0131262D02*
X0432553Y0131262D01*
X0432553Y0130463D02*
X0433353Y0130463D01*
X0433353Y0129665D02*
X0432553Y0129665D01*
X0432553Y0128866D02*
X0433353Y0128866D01*
X0435277Y0128866D02*
X0455772Y0128866D01*
X0455772Y0128068D02*
X0413323Y0128068D01*
X0413209Y0128343D02*
X0411465Y0130087D01*
X0409186Y0131031D01*
X0406719Y0131031D01*
X0404441Y0130087D01*
X0402697Y0128343D01*
X0401753Y0126064D01*
X0401753Y0123597D01*
X0402697Y0121319D01*
X0402922Y0121093D01*
X0401707Y0121093D01*
X0399405Y0120140D01*
X0397644Y0118378D01*
X0396691Y0116076D01*
X0396691Y0113585D01*
X0397644Y0111283D01*
X0399405Y0109522D01*
X0401707Y0108569D01*
X0404198Y0108569D01*
X0406500Y0109522D01*
X0408262Y0111283D01*
X0409215Y0113585D01*
X0409215Y0116076D01*
X0408262Y0118378D01*
X0408009Y0118631D01*
X0409186Y0118631D01*
X0411465Y0119575D01*
X0413209Y0121319D01*
X0414153Y0123597D01*
X0414153Y0126064D01*
X0413209Y0128343D01*
X0412685Y0128866D02*
X0430628Y0128866D01*
X0429172Y0129665D02*
X0411887Y0129665D01*
X0410556Y0130463D02*
X0428269Y0130463D01*
X0427624Y0131262D02*
X0363478Y0131262D01*
X0363482Y0131267D02*
X0363902Y0131994D01*
X0364223Y0132769D01*
X0364440Y0133579D01*
X0364550Y0134411D01*
X0364550Y0134431D01*
X0358550Y0134431D01*
X0358550Y0128431D01*
X0358569Y0128431D01*
X0359401Y0128540D01*
X0360211Y0128757D01*
X0360986Y0129078D01*
X0361713Y0129498D01*
X0362378Y0130009D01*
X0362972Y0130602D01*
X0363482Y0131267D01*
X0363929Y0132060D02*
X0427173Y0132060D01*
X0426855Y0132859D02*
X0364247Y0132859D01*
X0364450Y0133657D02*
X0426652Y0133657D01*
X0426553Y0135254D02*
X0364549Y0135254D01*
X0364444Y0136053D02*
X0426658Y0136053D01*
X0426868Y0136851D02*
X0364234Y0136851D01*
X0363909Y0137650D02*
X0427193Y0137650D01*
X0427662Y0138448D02*
X0363441Y0138448D01*
X0362784Y0139247D02*
X0428318Y0139247D01*
X0429236Y0140045D02*
X0361867Y0140045D01*
X0351855Y0136053D02*
X0324190Y0136053D01*
X0324989Y0135254D02*
X0351750Y0135254D01*
X0351750Y0134431D02*
X0351750Y0134411D01*
X0351859Y0133579D01*
X0352076Y0132769D01*
X0352397Y0131994D01*
X0352817Y0131267D01*
X0353328Y0130602D01*
X0353921Y0130009D01*
X0354586Y0129498D01*
X0355313Y0129078D01*
X0356088Y0128757D01*
X0356898Y0128540D01*
X0357730Y0128431D01*
X0357750Y0128431D01*
X0357750Y0134431D01*
X0351750Y0134431D01*
X0351849Y0133657D02*
X0326586Y0133657D01*
X0327384Y0132859D02*
X0352052Y0132859D01*
X0352370Y0132060D02*
X0328183Y0132060D01*
X0328981Y0131262D02*
X0352821Y0131262D01*
X0353466Y0130463D02*
X0335753Y0130463D01*
X0337084Y0129665D02*
X0354369Y0129665D01*
X0355825Y0128866D02*
X0337882Y0128866D01*
X0338520Y0128068D02*
X0402583Y0128068D01*
X0402252Y0127269D02*
X0338850Y0127269D01*
X0339181Y0126471D02*
X0401921Y0126471D01*
X0401753Y0125672D02*
X0339350Y0125672D01*
X0339350Y0124874D02*
X0401753Y0124874D01*
X0401753Y0124075D02*
X0339350Y0124075D01*
X0339217Y0123277D02*
X0344826Y0123277D01*
X0346345Y0123905D02*
X0343009Y0122524D01*
X0340456Y0119971D01*
X0339075Y0116636D01*
X0339075Y0113026D01*
X0340456Y0109690D01*
X0343009Y0107137D01*
X0346345Y0105756D01*
X0349955Y0105756D01*
X0353290Y0107137D01*
X0355843Y0109690D01*
X0357224Y0113026D01*
X0357224Y0116636D01*
X0355843Y0119971D01*
X0353290Y0122524D01*
X0349955Y0123905D01*
X0346345Y0123905D01*
X0342963Y0122478D02*
X0338886Y0122478D01*
X0338555Y0121680D02*
X0342165Y0121680D01*
X0341366Y0120881D02*
X0337968Y0120881D01*
X0337170Y0120083D02*
X0340568Y0120083D01*
X0340172Y0119284D02*
X0335960Y0119284D01*
X0333351Y0118486D02*
X0339841Y0118486D01*
X0339510Y0117687D02*
X0333745Y0117687D01*
X0334075Y0116889D02*
X0339180Y0116889D01*
X0339075Y0116090D02*
X0334406Y0116090D01*
X0334412Y0115292D02*
X0339075Y0115292D01*
X0339075Y0114493D02*
X0334412Y0114493D01*
X0334412Y0113695D02*
X0339075Y0113695D01*
X0339128Y0112896D02*
X0334126Y0112896D01*
X0333796Y0112098D02*
X0339459Y0112098D01*
X0339790Y0111299D02*
X0333465Y0111299D01*
X0332676Y0110501D02*
X0340121Y0110501D01*
X0340451Y0109702D02*
X0331877Y0109702D01*
X0330204Y0108903D02*
X0341243Y0108903D01*
X0342042Y0108105D02*
X0283391Y0108105D01*
X0282593Y0107306D02*
X0342840Y0107306D01*
X0344529Y0106508D02*
X0280904Y0106508D01*
X0281183Y0104415D02*
X0280479Y0104186D01*
X0279820Y0103851D01*
X0279222Y0103416D01*
X0278698Y0102893D01*
X0278264Y0102294D01*
X0277928Y0101635D01*
X0277699Y0100931D01*
X0277588Y0100231D01*
X0281883Y0100231D01*
X0281883Y0099431D01*
X0277588Y0099431D01*
X0277699Y0098730D01*
X0277928Y0098027D01*
X0278264Y0097367D01*
X0278698Y0096769D01*
X0279222Y0096246D01*
X0279820Y0095811D01*
X0280234Y0095600D01*
X0273829Y0095600D01*
X0274833Y0096016D01*
X0276098Y0097282D01*
X0276783Y0098936D01*
X0276783Y0100726D01*
X0276098Y0102380D01*
X0274833Y0103646D01*
X0273179Y0104331D01*
X0271388Y0104331D01*
X0269734Y0103646D01*
X0268469Y0102380D01*
X0267783Y0100726D01*
X0267783Y0098936D01*
X0268469Y0097282D01*
X0269734Y0096016D01*
X0270738Y0095600D01*
X0260262Y0095600D01*
X0259530Y0096331D01*
X0258519Y0096750D01*
X0257425Y0096750D01*
X0256415Y0096331D01*
X0255641Y0095558D01*
X0255222Y0094547D01*
X0255222Y0093453D01*
X0255641Y0092442D01*
X0256415Y0091669D01*
X0257425Y0091250D01*
X0258519Y0091250D01*
X0259530Y0091669D01*
X0260262Y0092400D01*
X0299310Y0092400D01*
X0320372Y0071337D01*
X0321310Y0070400D01*
X0376310Y0070400D01*
X0395376Y0051333D01*
X0396314Y0050396D01*
X0401905Y0050396D01*
X0402697Y0048484D01*
X0402922Y0048258D01*
X0401707Y0048258D01*
X0399405Y0047305D01*
X0397644Y0045543D01*
X0396691Y0043242D01*
X0396691Y0040750D01*
X0397644Y0038449D01*
X0399405Y0036687D01*
X0401707Y0035734D01*
X0404198Y0035734D01*
X0406500Y0036687D01*
X0408262Y0038449D01*
X0409215Y0040750D01*
X0409215Y0043242D01*
X0408262Y0045543D01*
X0408009Y0045796D01*
X0409186Y0045796D01*
X0411465Y0046740D01*
X0413209Y0048484D01*
X0414153Y0050763D01*
X0414153Y0053229D01*
X0413209Y0055508D01*
X0411465Y0057252D01*
X0409186Y0058196D01*
X0406719Y0058196D01*
X0404441Y0057252D01*
X0402697Y0055508D01*
X0401905Y0053596D01*
X0397639Y0053596D01*
X0377635Y0073600D01*
X0322635Y0073600D01*
X0301572Y0094663D01*
X0300635Y0095600D01*
X0284333Y0095600D01*
X0284747Y0095811D01*
X0285345Y0096246D01*
X0285868Y0096769D01*
X0286303Y0097367D01*
X0286639Y0098027D01*
X0286868Y0098730D01*
X0286979Y0099431D01*
X0282684Y0099431D01*
X0282684Y0100231D01*
X0286979Y0100231D01*
X0286868Y0100931D01*
X0286639Y0101635D01*
X0286303Y0102294D01*
X0285868Y0102893D01*
X0285345Y0103416D01*
X0284747Y0103851D01*
X0284088Y0104186D01*
X0283384Y0104415D01*
X0282683Y0104526D01*
X0282683Y0100231D01*
X0281883Y0100231D01*
X0281883Y0104526D01*
X0281183Y0104415D01*
X0281883Y0104112D02*
X0282683Y0104112D01*
X0282683Y0103314D02*
X0281883Y0103314D01*
X0281883Y0102515D02*
X0282683Y0102515D01*
X0282683Y0101717D02*
X0281883Y0101717D01*
X0281883Y0100918D02*
X0282683Y0100918D01*
X0282684Y0100120D02*
X0338650Y0100120D01*
X0338650Y0100726D02*
X0338650Y0098936D01*
X0339335Y0097282D01*
X0340601Y0096016D01*
X0342254Y0095331D01*
X0344045Y0095331D01*
X0345699Y0096016D01*
X0346965Y0097282D01*
X0347650Y0098936D01*
X0347650Y0100726D01*
X0346965Y0102380D01*
X0345699Y0103646D01*
X0344045Y0104331D01*
X0342254Y0104331D01*
X0340601Y0103646D01*
X0339335Y0102380D01*
X0338650Y0100726D01*
X0338729Y0100918D02*
X0286870Y0100918D01*
X0286597Y0101717D02*
X0339060Y0101717D01*
X0339470Y0102515D02*
X0286142Y0102515D01*
X0285447Y0103314D02*
X0340269Y0103314D01*
X0341728Y0104112D02*
X0284233Y0104112D01*
X0280334Y0104112D02*
X0273706Y0104112D01*
X0275164Y0103314D02*
X0279120Y0103314D01*
X0278424Y0102515D02*
X0275963Y0102515D01*
X0276373Y0101717D02*
X0277970Y0101717D01*
X0277697Y0100918D02*
X0276704Y0100918D01*
X0276783Y0100120D02*
X0281883Y0100120D01*
X0277606Y0099321D02*
X0276783Y0099321D01*
X0276612Y0098523D02*
X0277767Y0098523D01*
X0278082Y0097724D02*
X0276282Y0097724D01*
X0275743Y0096926D02*
X0278584Y0096926D01*
X0279385Y0096127D02*
X0274944Y0096127D01*
X0269623Y0096127D02*
X0259734Y0096127D01*
X0256211Y0096127D02*
X0249072Y0096127D01*
X0249072Y0095329D02*
X0255546Y0095329D01*
X0255222Y0094530D02*
X0249072Y0094530D01*
X0249072Y0093732D02*
X0255222Y0093732D01*
X0255438Y0092933D02*
X0249072Y0092933D01*
X0249072Y0092135D02*
X0255949Y0092135D01*
X0257217Y0091336D02*
X0249072Y0091336D01*
X0249072Y0090538D02*
X0301172Y0090538D01*
X0300373Y0091336D02*
X0258728Y0091336D01*
X0259996Y0092135D02*
X0299575Y0092135D01*
X0299972Y0094000D02*
X0257972Y0094000D01*
X0249072Y0096926D02*
X0268824Y0096926D01*
X0268285Y0097724D02*
X0249072Y0097724D01*
X0249072Y0098523D02*
X0267954Y0098523D01*
X0267783Y0099321D02*
X0249072Y0099321D01*
X0249072Y0100120D02*
X0267783Y0100120D01*
X0267863Y0100918D02*
X0249072Y0100918D01*
X0249072Y0101717D02*
X0268194Y0101717D01*
X0268604Y0102515D02*
X0249072Y0102515D01*
X0249072Y0103314D02*
X0269403Y0103314D01*
X0270861Y0104112D02*
X0249072Y0104112D01*
X0249072Y0104911D02*
X0455772Y0104911D01*
X0455772Y0105709D02*
X0249072Y0105709D01*
X0249072Y0106508D02*
X0273663Y0106508D01*
X0271974Y0107306D02*
X0249072Y0107306D01*
X0245872Y0107306D02*
X0209758Y0107306D01*
X0209589Y0107137D02*
X0212142Y0109690D01*
X0213524Y0113026D01*
X0213524Y0116636D01*
X0212142Y0119971D01*
X0209589Y0122524D01*
X0206254Y0123905D01*
X0202644Y0123905D01*
X0199308Y0122524D01*
X0196756Y0119971D01*
X0195374Y0116636D01*
X0195374Y0113026D01*
X0196756Y0109690D01*
X0199308Y0107137D01*
X0202644Y0105756D01*
X0206254Y0105756D01*
X0209589Y0107137D01*
X0210557Y0108105D02*
X0245872Y0108105D01*
X0245872Y0108903D02*
X0226503Y0108903D01*
X0225694Y0108569D02*
X0227996Y0109522D01*
X0229758Y0111283D01*
X0230711Y0113585D01*
X0230711Y0116076D01*
X0229758Y0118378D01*
X0227996Y0120140D01*
X0225694Y0121093D01*
X0223203Y0121093D01*
X0220902Y0120140D01*
X0219140Y0118378D01*
X0218187Y0116076D01*
X0218187Y0113585D01*
X0219140Y0111283D01*
X0220902Y0109522D01*
X0223203Y0108569D01*
X0225694Y0108569D01*
X0228176Y0109702D02*
X0245872Y0109702D01*
X0245872Y0110501D02*
X0228975Y0110501D01*
X0229764Y0111299D02*
X0245872Y0111299D01*
X0245872Y0112098D02*
X0230095Y0112098D01*
X0230426Y0112896D02*
X0245872Y0112896D01*
X0245872Y0113695D02*
X0230711Y0113695D01*
X0230711Y0114493D02*
X0245872Y0114493D01*
X0245872Y0115292D02*
X0230711Y0115292D01*
X0230705Y0116090D02*
X0245872Y0116090D01*
X0245872Y0116889D02*
X0230375Y0116889D01*
X0230044Y0117687D02*
X0246397Y0117687D01*
X0247195Y0118486D02*
X0229650Y0118486D01*
X0228851Y0119284D02*
X0247994Y0119284D01*
X0248792Y0120083D02*
X0228053Y0120083D01*
X0226206Y0120881D02*
X0249591Y0120881D01*
X0250389Y0121680D02*
X0210434Y0121680D01*
X0211232Y0120881D02*
X0222692Y0120881D01*
X0220845Y0120083D02*
X0212031Y0120083D01*
X0212427Y0119284D02*
X0220046Y0119284D01*
X0219248Y0118486D02*
X0212757Y0118486D01*
X0213088Y0117687D02*
X0218854Y0117687D01*
X0218523Y0116889D02*
X0213419Y0116889D01*
X0213524Y0116090D02*
X0218192Y0116090D01*
X0218187Y0115292D02*
X0213524Y0115292D01*
X0213524Y0114493D02*
X0218187Y0114493D01*
X0218187Y0113695D02*
X0213524Y0113695D01*
X0213470Y0112896D02*
X0218472Y0112896D01*
X0218803Y0112098D02*
X0213139Y0112098D01*
X0212808Y0111299D02*
X0219134Y0111299D01*
X0219923Y0110501D02*
X0212478Y0110501D01*
X0212147Y0109702D02*
X0220721Y0109702D01*
X0222394Y0108903D02*
X0211355Y0108903D01*
X0208070Y0106508D02*
X0245872Y0106508D01*
X0245872Y0105709D02*
X0175572Y0105709D01*
X0175572Y0104911D02*
X0245872Y0104911D01*
X0245872Y0104112D02*
X0211398Y0104112D01*
X0211253Y0104186D02*
X0210549Y0104415D01*
X0209849Y0104526D01*
X0209849Y0100231D01*
X0209049Y0100231D01*
X0209049Y0104526D01*
X0208348Y0104415D01*
X0207645Y0104186D01*
X0206985Y0103851D01*
X0206387Y0103416D01*
X0205864Y0102893D01*
X0205429Y0102294D01*
X0205093Y0101635D01*
X0204865Y0100931D01*
X0204754Y0100231D01*
X0209049Y0100231D01*
X0209049Y0099431D01*
X0204754Y0099431D01*
X0204865Y0098730D01*
X0205093Y0098027D01*
X0205429Y0097367D01*
X0205864Y0096769D01*
X0206387Y0096246D01*
X0206985Y0095811D01*
X0207645Y0095475D01*
X0208348Y0095246D01*
X0209049Y0095135D01*
X0209049Y0099431D01*
X0209849Y0099431D01*
X0209849Y0100231D01*
X0214144Y0100231D01*
X0214033Y0100931D01*
X0213804Y0101635D01*
X0213469Y0102294D01*
X0213034Y0102893D01*
X0212511Y0103416D01*
X0211912Y0103851D01*
X0211253Y0104186D01*
X0209849Y0104112D02*
X0209049Y0104112D01*
X0209049Y0103314D02*
X0209849Y0103314D01*
X0209849Y0102515D02*
X0209049Y0102515D01*
X0209049Y0101717D02*
X0209849Y0101717D01*
X0209849Y0100918D02*
X0209049Y0100918D01*
X0209049Y0100120D02*
X0203949Y0100120D01*
X0203949Y0100726D02*
X0203949Y0098936D01*
X0203264Y0097282D01*
X0201998Y0096016D01*
X0200344Y0095331D01*
X0198554Y0095331D01*
X0196900Y0096016D01*
X0195634Y0097282D01*
X0194949Y0098936D01*
X0194949Y0100726D01*
X0195634Y0102380D01*
X0196900Y0103646D01*
X0198554Y0104331D01*
X0200344Y0104331D01*
X0201998Y0103646D01*
X0203264Y0102380D01*
X0203949Y0100726D01*
X0203869Y0100918D02*
X0204862Y0100918D01*
X0205135Y0101717D02*
X0203538Y0101717D01*
X0203128Y0102515D02*
X0205590Y0102515D01*
X0206285Y0103314D02*
X0202330Y0103314D01*
X0200871Y0104112D02*
X0207500Y0104112D01*
X0212612Y0103314D02*
X0245872Y0103314D01*
X0245872Y0102515D02*
X0213308Y0102515D01*
X0213763Y0101717D02*
X0245872Y0101717D01*
X0245872Y0100918D02*
X0214035Y0100918D01*
X0214144Y0099431D02*
X0209849Y0099431D01*
X0209849Y0095135D01*
X0210549Y0095246D01*
X0211253Y0095475D01*
X0211912Y0095811D01*
X0212511Y0096246D01*
X0213034Y0096769D01*
X0213469Y0097367D01*
X0213804Y0098027D01*
X0214033Y0098730D01*
X0214144Y0099431D01*
X0214127Y0099321D02*
X0245872Y0099321D01*
X0245872Y0098523D02*
X0213966Y0098523D01*
X0213650Y0097724D02*
X0245872Y0097724D01*
X0245872Y0096926D02*
X0213148Y0096926D01*
X0212348Y0096127D02*
X0245872Y0096127D01*
X0245872Y0095329D02*
X0210803Y0095329D01*
X0209849Y0095329D02*
X0209049Y0095329D01*
X0209049Y0096127D02*
X0209849Y0096127D01*
X0209849Y0096926D02*
X0209049Y0096926D01*
X0209049Y0097724D02*
X0209849Y0097724D01*
X0209849Y0098523D02*
X0209049Y0098523D01*
X0209049Y0099321D02*
X0209849Y0099321D01*
X0209849Y0100120D02*
X0245872Y0100120D01*
X0245872Y0094530D02*
X0172265Y0094530D01*
X0171467Y0093732D02*
X0245872Y0093732D01*
X0245872Y0092933D02*
X0170668Y0092933D01*
X0169870Y0092135D02*
X0245872Y0092135D01*
X0245872Y0091336D02*
X0169071Y0091336D01*
X0168273Y0090538D02*
X0245872Y0090538D01*
X0245872Y0089739D02*
X0167474Y0089739D01*
X0166676Y0088941D02*
X0245872Y0088941D01*
X0245872Y0088142D02*
X0165877Y0088142D01*
X0165079Y0087344D02*
X0245872Y0087344D01*
X0245872Y0086545D02*
X0164280Y0086545D01*
X0163482Y0085747D02*
X0245872Y0085747D01*
X0245872Y0084948D02*
X0162683Y0084948D01*
X0161885Y0084150D02*
X0245872Y0084150D01*
X0245872Y0083351D02*
X0242678Y0083351D01*
X0244412Y0082553D02*
X0245872Y0082553D01*
X0245872Y0081754D02*
X0245210Y0081754D01*
X0249072Y0081754D02*
X0309956Y0081754D01*
X0310754Y0080956D02*
X0249072Y0080956D01*
X0249072Y0080157D02*
X0311553Y0080157D01*
X0312351Y0079359D02*
X0249072Y0079359D01*
X0249072Y0078560D02*
X0313150Y0078560D01*
X0313948Y0077762D02*
X0249072Y0077762D01*
X0249072Y0076963D02*
X0314747Y0076963D01*
X0315545Y0076165D02*
X0249072Y0076165D01*
X0249072Y0075366D02*
X0316344Y0075366D01*
X0317142Y0074568D02*
X0249072Y0074568D01*
X0249072Y0073769D02*
X0317941Y0073769D01*
X0318739Y0072970D02*
X0249072Y0072970D01*
X0249072Y0072172D02*
X0319538Y0072172D01*
X0320336Y0071373D02*
X0249072Y0071373D01*
X0249072Y0070575D02*
X0321135Y0070575D01*
X0321972Y0072000D02*
X0376972Y0072000D01*
X0396976Y0051996D01*
X0407953Y0051996D01*
X0413760Y0049814D02*
X0418113Y0049814D01*
X0417812Y0049689D02*
X0415260Y0047137D01*
X0413878Y0043801D01*
X0413878Y0040191D01*
X0415260Y0036856D01*
X0417812Y0034303D01*
X0421148Y0032921D01*
X0424758Y0032921D01*
X0428093Y0034303D01*
X0430646Y0036856D01*
X0432028Y0040191D01*
X0432028Y0043801D01*
X0430646Y0047137D01*
X0428093Y0049689D01*
X0424758Y0051071D01*
X0421148Y0051071D01*
X0417812Y0049689D01*
X0417138Y0049015D02*
X0413429Y0049015D01*
X0412941Y0048217D02*
X0416340Y0048217D01*
X0415541Y0047418D02*
X0412143Y0047418D01*
X0411174Y0046620D02*
X0415045Y0046620D01*
X0414715Y0045821D02*
X0409246Y0045821D01*
X0408477Y0045023D02*
X0414384Y0045023D01*
X0414053Y0044224D02*
X0408808Y0044224D01*
X0409139Y0043426D02*
X0413878Y0043426D01*
X0413878Y0042627D02*
X0409215Y0042627D01*
X0409215Y0041829D02*
X0413878Y0041829D01*
X0413878Y0041030D02*
X0409215Y0041030D01*
X0409000Y0040232D02*
X0413878Y0040232D01*
X0414192Y0039433D02*
X0408669Y0039433D01*
X0408338Y0038634D02*
X0414523Y0038634D01*
X0414853Y0037836D02*
X0407649Y0037836D01*
X0406850Y0037037D02*
X0415184Y0037037D01*
X0415876Y0036239D02*
X0405418Y0036239D01*
X0400488Y0036239D02*
X0372583Y0036239D01*
X0373665Y0036687D02*
X0375427Y0038449D01*
X0376380Y0040750D01*
X0376380Y0043242D01*
X0375427Y0045543D01*
X0373665Y0047305D01*
X0371364Y0048258D01*
X0368872Y0048258D01*
X0366571Y0047305D01*
X0364809Y0045543D01*
X0363856Y0043242D01*
X0363856Y0040750D01*
X0364809Y0038449D01*
X0366571Y0036687D01*
X0368872Y0035734D01*
X0371364Y0035734D01*
X0373665Y0036687D01*
X0374016Y0037037D02*
X0399055Y0037037D01*
X0398257Y0037836D02*
X0374814Y0037836D01*
X0375504Y0038634D02*
X0397567Y0038634D01*
X0397236Y0039433D02*
X0375835Y0039433D01*
X0376165Y0040232D02*
X0396905Y0040232D01*
X0396691Y0041030D02*
X0376380Y0041030D01*
X0376380Y0041829D02*
X0396691Y0041829D01*
X0396691Y0042627D02*
X0376380Y0042627D01*
X0376304Y0043426D02*
X0396767Y0043426D01*
X0397097Y0044224D02*
X0375973Y0044224D01*
X0375643Y0045023D02*
X0397428Y0045023D01*
X0397922Y0045821D02*
X0375149Y0045821D01*
X0374351Y0046620D02*
X0398720Y0046620D01*
X0399679Y0047418D02*
X0373392Y0047418D01*
X0371464Y0048217D02*
X0401607Y0048217D01*
X0402477Y0049015D02*
X0355933Y0049015D01*
X0355259Y0049689D02*
X0351923Y0051071D01*
X0348313Y0051071D01*
X0344978Y0049689D01*
X0342425Y0047137D01*
X0341043Y0043801D01*
X0341043Y0040191D01*
X0342425Y0036856D01*
X0344978Y0034303D01*
X0348313Y0032921D01*
X0351923Y0032921D01*
X0355259Y0034303D01*
X0357811Y0036856D01*
X0359193Y0040191D01*
X0359193Y0043801D01*
X0357811Y0047137D01*
X0355259Y0049689D01*
X0354958Y0049814D02*
X0402146Y0049814D01*
X0396098Y0050612D02*
X0353031Y0050612D01*
X0356731Y0048217D02*
X0368772Y0048217D01*
X0366844Y0047418D02*
X0357530Y0047418D01*
X0358025Y0046620D02*
X0365886Y0046620D01*
X0365087Y0045821D02*
X0358356Y0045821D01*
X0358687Y0045023D02*
X0364594Y0045023D01*
X0364263Y0044224D02*
X0359018Y0044224D01*
X0359193Y0043426D02*
X0363932Y0043426D01*
X0363856Y0042627D02*
X0359193Y0042627D01*
X0359193Y0041829D02*
X0363856Y0041829D01*
X0363856Y0041030D02*
X0359193Y0041030D01*
X0359193Y0040232D02*
X0364071Y0040232D01*
X0364402Y0039433D02*
X0358879Y0039433D01*
X0358548Y0038634D02*
X0364732Y0038634D01*
X0365422Y0037836D02*
X0358217Y0037836D01*
X0357887Y0037037D02*
X0366221Y0037037D01*
X0367653Y0036239D02*
X0357195Y0036239D01*
X0356396Y0035440D02*
X0416675Y0035440D01*
X0417473Y0034642D02*
X0355598Y0034642D01*
X0354150Y0033843D02*
X0418921Y0033843D01*
X0420849Y0033045D02*
X0352222Y0033045D01*
X0353314Y0031352D02*
X0352655Y0031016D01*
X0352056Y0030581D01*
X0351533Y0030058D01*
X0351098Y0029459D01*
X0350762Y0028800D01*
X0350534Y0028097D01*
X0350423Y0027396D01*
X0354718Y0027396D01*
X0354718Y0026596D01*
X0350423Y0026596D01*
X0350534Y0025895D01*
X0350762Y0025192D01*
X0351098Y0024533D01*
X0351533Y0023934D01*
X0352056Y0023411D01*
X0352655Y0022976D01*
X0353314Y0022640D01*
X0354018Y0022412D01*
X0354718Y0022301D01*
X0354718Y0026596D01*
X0355518Y0026596D01*
X0355518Y0022301D01*
X0356219Y0022412D01*
X0356922Y0022640D01*
X0357581Y0022976D01*
X0358180Y0023411D01*
X0358703Y0023934D01*
X0359138Y0024533D01*
X0359474Y0025192D01*
X0359702Y0025895D01*
X0359813Y0026596D01*
X0355518Y0026596D01*
X0355518Y0027396D01*
X0354718Y0027396D01*
X0354718Y0031691D01*
X0354018Y0031580D01*
X0353314Y0031352D01*
X0353610Y0031448D02*
X0346129Y0031448D01*
X0346013Y0031496D02*
X0344223Y0031496D01*
X0342569Y0030811D01*
X0341303Y0029545D01*
X0340618Y0027891D01*
X0340618Y0026101D01*
X0341303Y0024447D01*
X0342569Y0023181D01*
X0344223Y0022496D01*
X0346013Y0022496D01*
X0347667Y0023181D01*
X0348933Y0024447D01*
X0349618Y0026101D01*
X0349618Y0027891D01*
X0348933Y0029545D01*
X0347667Y0030811D01*
X0346013Y0031496D01*
X0344107Y0031448D02*
X0302183Y0031448D01*
X0302982Y0032246D02*
X0455772Y0032246D01*
X0455772Y0031448D02*
X0429461Y0031448D01*
X0429757Y0031352D02*
X0429053Y0031580D01*
X0428353Y0031691D01*
X0428353Y0027396D01*
X0432648Y0027396D01*
X0432537Y0028097D01*
X0432308Y0028800D01*
X0431973Y0029459D01*
X0431538Y0030058D01*
X0431015Y0030581D01*
X0430416Y0031016D01*
X0429757Y0031352D01*
X0430920Y0030649D02*
X0455772Y0030649D01*
X0455772Y0029851D02*
X0431688Y0029851D01*
X0432180Y0029052D02*
X0455772Y0029052D01*
X0455772Y0028254D02*
X0432486Y0028254D01*
X0432639Y0027455D02*
X0455772Y0027455D01*
X0455772Y0026657D02*
X0428353Y0026657D01*
X0428353Y0026596D02*
X0428353Y0027396D01*
X0427553Y0027396D01*
X0427553Y0031691D01*
X0426852Y0031580D01*
X0426149Y0031352D01*
X0425489Y0031016D01*
X0424891Y0030581D01*
X0424368Y0030058D01*
X0423933Y0029459D01*
X0423597Y0028800D01*
X0423368Y0028097D01*
X0423258Y0027396D01*
X0427553Y0027396D01*
X0427553Y0026596D01*
X0428353Y0026596D01*
X0432648Y0026596D01*
X0432537Y0025895D01*
X0432308Y0025192D01*
X0431973Y0024533D01*
X0431538Y0023934D01*
X0431015Y0023411D01*
X0430416Y0022976D01*
X0429757Y0022640D01*
X0429053Y0022412D01*
X0428353Y0022301D01*
X0428353Y0026596D01*
X0428353Y0025858D02*
X0427553Y0025858D01*
X0427553Y0026596D02*
X0427553Y0022301D01*
X0426852Y0022412D01*
X0426149Y0022640D01*
X0425489Y0022976D01*
X0424891Y0023411D01*
X0424368Y0023934D01*
X0423933Y0024533D01*
X0423597Y0025192D01*
X0423368Y0025895D01*
X0423258Y0026596D01*
X0427553Y0026596D01*
X0427553Y0026657D02*
X0422453Y0026657D01*
X0422453Y0026101D02*
X0421768Y0024447D01*
X0420502Y0023181D01*
X0418848Y0022496D01*
X0417058Y0022496D01*
X0415404Y0023181D01*
X0414138Y0024447D01*
X0413453Y0026101D01*
X0413453Y0027891D01*
X0414138Y0029545D01*
X0415404Y0030811D01*
X0417058Y0031496D01*
X0418848Y0031496D01*
X0420502Y0030811D01*
X0421768Y0029545D01*
X0422453Y0027891D01*
X0422453Y0026101D01*
X0422352Y0025858D02*
X0423381Y0025858D01*
X0423664Y0025060D02*
X0422021Y0025060D01*
X0421582Y0024261D02*
X0424130Y0024261D01*
X0424839Y0023463D02*
X0420783Y0023463D01*
X0419254Y0022664D02*
X0426102Y0022664D01*
X0427553Y0022664D02*
X0428353Y0022664D01*
X0428353Y0023463D02*
X0427553Y0023463D01*
X0427553Y0024261D02*
X0428353Y0024261D01*
X0428353Y0025060D02*
X0427553Y0025060D01*
X0427553Y0027455D02*
X0428353Y0027455D01*
X0428353Y0028254D02*
X0427553Y0028254D01*
X0427553Y0029052D02*
X0428353Y0029052D01*
X0428353Y0029851D02*
X0427553Y0029851D01*
X0427553Y0030649D02*
X0428353Y0030649D01*
X0428353Y0031448D02*
X0427553Y0031448D01*
X0426445Y0031448D02*
X0418964Y0031448D01*
X0420663Y0030649D02*
X0424985Y0030649D01*
X0424217Y0029851D02*
X0421462Y0029851D01*
X0421972Y0029052D02*
X0423726Y0029052D01*
X0423420Y0028254D02*
X0422303Y0028254D01*
X0422453Y0027455D02*
X0423267Y0027455D01*
X0415242Y0030649D02*
X0358086Y0030649D01*
X0358180Y0030581D02*
X0357581Y0031016D01*
X0356922Y0031352D01*
X0356219Y0031580D01*
X0355518Y0031691D01*
X0355518Y0027396D01*
X0359813Y0027396D01*
X0359702Y0028097D01*
X0359474Y0028800D01*
X0359138Y0029459D01*
X0358703Y0030058D01*
X0358180Y0030581D01*
X0358853Y0029851D02*
X0414444Y0029851D01*
X0413934Y0029052D02*
X0359345Y0029052D01*
X0359651Y0028254D02*
X0413603Y0028254D01*
X0413453Y0027455D02*
X0359804Y0027455D01*
X0359690Y0025858D02*
X0413553Y0025858D01*
X0413453Y0026657D02*
X0355518Y0026657D01*
X0355518Y0027455D02*
X0354718Y0027455D01*
X0354718Y0026657D02*
X0349618Y0026657D01*
X0349618Y0027455D02*
X0350432Y0027455D01*
X0350585Y0028254D02*
X0349468Y0028254D01*
X0349137Y0029052D02*
X0350891Y0029052D01*
X0351383Y0029851D02*
X0348627Y0029851D01*
X0347829Y0030649D02*
X0352150Y0030649D01*
X0354718Y0030649D02*
X0355518Y0030649D01*
X0355518Y0029851D02*
X0354718Y0029851D01*
X0354718Y0029052D02*
X0355518Y0029052D01*
X0355518Y0028254D02*
X0354718Y0028254D01*
X0354718Y0025858D02*
X0355518Y0025858D01*
X0355518Y0025060D02*
X0354718Y0025060D01*
X0354718Y0024261D02*
X0355518Y0024261D01*
X0355518Y0023463D02*
X0354718Y0023463D01*
X0354718Y0022664D02*
X0355518Y0022664D01*
X0356969Y0022664D02*
X0416652Y0022664D01*
X0415122Y0023463D02*
X0358232Y0023463D01*
X0358941Y0024261D02*
X0414324Y0024261D01*
X0413884Y0025060D02*
X0359406Y0025060D01*
X0353267Y0022664D02*
X0346419Y0022664D01*
X0347949Y0023463D02*
X0352005Y0023463D01*
X0351295Y0024261D02*
X0348747Y0024261D01*
X0349187Y0025060D02*
X0350830Y0025060D01*
X0350546Y0025858D02*
X0349518Y0025858D01*
X0343817Y0022664D02*
X0293399Y0022664D01*
X0292601Y0021866D02*
X0455772Y0021866D01*
X0455772Y0022664D02*
X0429804Y0022664D01*
X0431066Y0023463D02*
X0455772Y0023463D01*
X0455772Y0024261D02*
X0431775Y0024261D01*
X0432241Y0025060D02*
X0455772Y0025060D01*
X0455772Y0025858D02*
X0432525Y0025858D01*
X0416941Y0031448D02*
X0356626Y0031448D01*
X0355518Y0031448D02*
X0354718Y0031448D01*
X0348014Y0033045D02*
X0303780Y0033045D01*
X0304579Y0033843D02*
X0346087Y0033843D01*
X0344639Y0034642D02*
X0305377Y0034642D01*
X0306176Y0035440D02*
X0343840Y0035440D01*
X0343041Y0036239D02*
X0332583Y0036239D01*
X0334016Y0037037D02*
X0342350Y0037037D01*
X0342019Y0037836D02*
X0334814Y0037836D01*
X0335504Y0038634D02*
X0341688Y0038634D01*
X0341357Y0039433D02*
X0335835Y0039433D01*
X0336165Y0040232D02*
X0341043Y0040232D01*
X0341043Y0041030D02*
X0336380Y0041030D01*
X0336380Y0041829D02*
X0341043Y0041829D01*
X0341043Y0042627D02*
X0336380Y0042627D01*
X0336304Y0043426D02*
X0341043Y0043426D01*
X0341218Y0044224D02*
X0335973Y0044224D01*
X0335643Y0045023D02*
X0341549Y0045023D01*
X0341880Y0045821D02*
X0336412Y0045821D01*
X0338340Y0046620D02*
X0342211Y0046620D01*
X0342706Y0047418D02*
X0339308Y0047418D01*
X0340107Y0048217D02*
X0343505Y0048217D01*
X0344303Y0049015D02*
X0340594Y0049015D01*
X0340925Y0049814D02*
X0345278Y0049814D01*
X0347206Y0050612D02*
X0341256Y0050612D01*
X0341318Y0051411D02*
X0395299Y0051411D01*
X0394501Y0052209D02*
X0341318Y0052209D01*
X0341318Y0053008D02*
X0393702Y0053008D01*
X0392903Y0053806D02*
X0341079Y0053806D01*
X0340748Y0054605D02*
X0392105Y0054605D01*
X0391306Y0055403D02*
X0340418Y0055403D01*
X0339681Y0056202D02*
X0357383Y0056202D01*
X0357281Y0056244D02*
X0358056Y0055923D01*
X0358867Y0055706D01*
X0359699Y0055596D01*
X0359718Y0055596D01*
X0359718Y0061596D01*
X0353718Y0061596D01*
X0353718Y0061577D01*
X0353828Y0060745D01*
X0354045Y0059934D01*
X0354366Y0059159D01*
X0354785Y0058433D01*
X0355296Y0057767D01*
X0355889Y0057174D01*
X0356555Y0056663D01*
X0357281Y0056244D01*
X0356116Y0057000D02*
X0338882Y0057000D01*
X0337310Y0057799D02*
X0355272Y0057799D01*
X0354690Y0058597D02*
X0292711Y0058597D01*
X0292616Y0058433D02*
X0293036Y0059159D01*
X0293357Y0059934D01*
X0293574Y0060745D01*
X0293683Y0061577D01*
X0293683Y0061596D01*
X0287684Y0061596D01*
X0287684Y0062396D01*
X0293683Y0062396D01*
X0293683Y0062416D01*
X0293574Y0063247D01*
X0293357Y0064058D01*
X0293036Y0064833D01*
X0292616Y0065559D01*
X0292106Y0066225D01*
X0291512Y0066818D01*
X0290847Y0067329D01*
X0290120Y0067748D01*
X0289345Y0068069D01*
X0288535Y0068287D01*
X0287703Y0068396D01*
X0287683Y0068396D01*
X0287683Y0062396D01*
X0286883Y0062396D01*
X0286883Y0061596D01*
X0280883Y0061596D01*
X0280883Y0061577D01*
X0280993Y0060745D01*
X0281210Y0059934D01*
X0281531Y0059159D01*
X0281951Y0058433D01*
X0282461Y0057767D01*
X0283055Y0057174D01*
X0283720Y0056663D01*
X0284447Y0056244D01*
X0285222Y0055923D01*
X0286032Y0055706D01*
X0286864Y0055596D01*
X0286883Y0055596D01*
X0286883Y0061596D01*
X0287683Y0061596D01*
X0287683Y0055596D01*
X0287703Y0055596D01*
X0288535Y0055706D01*
X0289345Y0055923D01*
X0290120Y0056244D01*
X0290847Y0056663D01*
X0291512Y0057174D01*
X0292106Y0057767D01*
X0292616Y0058433D01*
X0292130Y0057799D02*
X0332926Y0057799D01*
X0331354Y0057000D02*
X0291286Y0057000D01*
X0290019Y0056202D02*
X0330556Y0056202D01*
X0329819Y0055403D02*
X0267583Y0055403D01*
X0267540Y0055508D02*
X0265795Y0057252D01*
X0263517Y0058196D01*
X0261050Y0058196D01*
X0258771Y0057252D01*
X0257027Y0055508D01*
X0256083Y0053229D01*
X0256083Y0050763D01*
X0257027Y0048484D01*
X0257253Y0048258D01*
X0256038Y0048258D01*
X0253736Y0047305D01*
X0251975Y0045543D01*
X0251021Y0043242D01*
X0251021Y0040750D01*
X0251975Y0038449D01*
X0253736Y0036687D01*
X0256038Y0035734D01*
X0258529Y0035734D01*
X0260831Y0036687D01*
X0262592Y0038449D01*
X0263546Y0040750D01*
X0263546Y0043242D01*
X0262592Y0045543D01*
X0262340Y0045796D01*
X0263517Y0045796D01*
X0265795Y0046740D01*
X0267540Y0048484D01*
X0268483Y0050763D01*
X0268483Y0053229D01*
X0267540Y0055508D01*
X0267914Y0054605D02*
X0329488Y0054605D01*
X0329157Y0053806D02*
X0268245Y0053806D01*
X0268483Y0053008D02*
X0319217Y0053008D01*
X0318419Y0052209D02*
X0268483Y0052209D01*
X0268483Y0051411D02*
X0317620Y0051411D01*
X0316822Y0050612D02*
X0280196Y0050612D01*
X0279089Y0051071D02*
X0282424Y0049689D01*
X0284977Y0047137D01*
X0286358Y0043801D01*
X0286358Y0040191D01*
X0284977Y0036856D01*
X0282424Y0034303D01*
X0279089Y0032921D01*
X0275478Y0032921D01*
X0272143Y0034303D01*
X0269590Y0036856D01*
X0268209Y0040191D01*
X0268209Y0043801D01*
X0269590Y0047137D01*
X0272143Y0049689D01*
X0275478Y0051071D01*
X0279089Y0051071D01*
X0282124Y0049814D02*
X0316023Y0049814D01*
X0315225Y0049015D02*
X0283098Y0049015D01*
X0283897Y0048217D02*
X0295937Y0048217D01*
X0296038Y0048258D02*
X0293736Y0047305D01*
X0291975Y0045543D01*
X0291021Y0043242D01*
X0291021Y0040750D01*
X0291975Y0038449D01*
X0293736Y0036687D01*
X0296038Y0035734D01*
X0298529Y0035734D01*
X0300831Y0036687D01*
X0302592Y0038449D01*
X0303546Y0040750D01*
X0303546Y0043242D01*
X0302592Y0045543D01*
X0300831Y0047305D01*
X0298529Y0048258D01*
X0296038Y0048258D01*
X0294010Y0047418D02*
X0284695Y0047418D01*
X0285191Y0046620D02*
X0293051Y0046620D01*
X0292252Y0045821D02*
X0285522Y0045821D01*
X0285852Y0045023D02*
X0291759Y0045023D01*
X0291428Y0044224D02*
X0286183Y0044224D01*
X0286358Y0043426D02*
X0291097Y0043426D01*
X0291021Y0042627D02*
X0286358Y0042627D01*
X0286358Y0041829D02*
X0291021Y0041829D01*
X0291021Y0041030D02*
X0286358Y0041030D01*
X0286358Y0040232D02*
X0291236Y0040232D01*
X0291567Y0039433D02*
X0286044Y0039433D01*
X0285714Y0038634D02*
X0291898Y0038634D01*
X0292587Y0037836D02*
X0285383Y0037836D01*
X0285052Y0037037D02*
X0293386Y0037037D01*
X0294818Y0036239D02*
X0284360Y0036239D01*
X0283562Y0035440D02*
X0301650Y0035440D01*
X0300852Y0034642D02*
X0282763Y0034642D01*
X0281315Y0033843D02*
X0300053Y0033843D01*
X0299255Y0033045D02*
X0279387Y0033045D01*
X0280479Y0031352D02*
X0279820Y0031016D01*
X0279222Y0030581D01*
X0278698Y0030058D01*
X0278264Y0029459D01*
X0277928Y0028800D01*
X0277699Y0028097D01*
X0277588Y0027396D01*
X0281883Y0027396D01*
X0281883Y0026596D01*
X0277588Y0026596D01*
X0277699Y0025895D01*
X0277928Y0025192D01*
X0278264Y0024533D01*
X0278698Y0023934D01*
X0279222Y0023411D01*
X0279820Y0022976D01*
X0280479Y0022640D01*
X0281183Y0022412D01*
X0281883Y0022301D01*
X0281883Y0026596D01*
X0282683Y0026596D01*
X0282683Y0022301D01*
X0283384Y0022412D01*
X0284088Y0022640D01*
X0284747Y0022976D01*
X0285345Y0023411D01*
X0285868Y0023934D01*
X0286303Y0024533D01*
X0286639Y0025192D01*
X0286868Y0025895D01*
X0286979Y0026596D01*
X0282684Y0026596D01*
X0282684Y0027396D01*
X0286979Y0027396D01*
X0286868Y0028097D01*
X0286639Y0028800D01*
X0286303Y0029459D01*
X0285868Y0030058D01*
X0285345Y0030581D01*
X0284747Y0031016D01*
X0284088Y0031352D01*
X0283384Y0031580D01*
X0282683Y0031691D01*
X0282683Y0027396D01*
X0281883Y0027396D01*
X0281883Y0031691D01*
X0281183Y0031580D01*
X0280479Y0031352D01*
X0280775Y0031448D02*
X0273295Y0031448D01*
X0273179Y0031496D02*
X0271388Y0031496D01*
X0269734Y0030811D01*
X0268469Y0029545D01*
X0267783Y0027891D01*
X0267783Y0026101D01*
X0268469Y0024447D01*
X0269734Y0023181D01*
X0271388Y0022496D01*
X0273179Y0022496D01*
X0274833Y0023181D01*
X0276098Y0024447D01*
X0276783Y0026101D01*
X0276783Y0027891D01*
X0276098Y0029545D01*
X0274833Y0030811D01*
X0273179Y0031496D01*
X0271272Y0031448D02*
X0249072Y0031448D01*
X0249072Y0032246D02*
X0298456Y0032246D01*
X0297658Y0031448D02*
X0283792Y0031448D01*
X0282683Y0031448D02*
X0281883Y0031448D01*
X0281883Y0030649D02*
X0282683Y0030649D01*
X0282683Y0029851D02*
X0281883Y0029851D01*
X0281883Y0029052D02*
X0282683Y0029052D01*
X0282683Y0028254D02*
X0281883Y0028254D01*
X0281883Y0027455D02*
X0282683Y0027455D01*
X0282684Y0026657D02*
X0292867Y0026657D01*
X0293665Y0027455D02*
X0286969Y0027455D01*
X0286817Y0028254D02*
X0294464Y0028254D01*
X0295262Y0029052D02*
X0286511Y0029052D01*
X0286019Y0029851D02*
X0296061Y0029851D01*
X0296859Y0030649D02*
X0285251Y0030649D01*
X0281883Y0026657D02*
X0276783Y0026657D01*
X0276783Y0027455D02*
X0277598Y0027455D01*
X0277750Y0028254D02*
X0276633Y0028254D01*
X0276302Y0029052D02*
X0278056Y0029052D01*
X0278548Y0029851D02*
X0275793Y0029851D01*
X0274994Y0030649D02*
X0279316Y0030649D01*
X0275180Y0033045D02*
X0249072Y0033045D01*
X0249072Y0033843D02*
X0273252Y0033843D01*
X0271804Y0034642D02*
X0249072Y0034642D01*
X0249072Y0035440D02*
X0271005Y0035440D01*
X0270207Y0036239D02*
X0259749Y0036239D01*
X0261181Y0037037D02*
X0269515Y0037037D01*
X0269184Y0037836D02*
X0261979Y0037836D01*
X0262669Y0038634D02*
X0268853Y0038634D01*
X0268523Y0039433D02*
X0263000Y0039433D01*
X0263331Y0040232D02*
X0268209Y0040232D01*
X0268209Y0041030D02*
X0263546Y0041030D01*
X0263546Y0041829D02*
X0268209Y0041829D01*
X0268209Y0042627D02*
X0263546Y0042627D01*
X0263470Y0043426D02*
X0268209Y0043426D01*
X0268384Y0044224D02*
X0263139Y0044224D01*
X0262808Y0045023D02*
X0268715Y0045023D01*
X0269045Y0045821D02*
X0263577Y0045821D01*
X0265505Y0046620D02*
X0269376Y0046620D01*
X0269872Y0047418D02*
X0266474Y0047418D01*
X0267272Y0048217D02*
X0270670Y0048217D01*
X0271469Y0049015D02*
X0267760Y0049015D01*
X0268090Y0049814D02*
X0272443Y0049814D01*
X0274371Y0050612D02*
X0268421Y0050612D01*
X0256807Y0049015D02*
X0249072Y0049015D01*
X0249072Y0048217D02*
X0255937Y0048217D01*
X0256477Y0049814D02*
X0249072Y0049814D01*
X0249072Y0050612D02*
X0256146Y0050612D01*
X0256083Y0051411D02*
X0249072Y0051411D01*
X0249072Y0052209D02*
X0256083Y0052209D01*
X0256083Y0053008D02*
X0249072Y0053008D01*
X0249072Y0053806D02*
X0256322Y0053806D01*
X0256653Y0054605D02*
X0249072Y0054605D01*
X0249072Y0055403D02*
X0256984Y0055403D01*
X0257721Y0056202D02*
X0249072Y0056202D01*
X0249072Y0057000D02*
X0258520Y0057000D01*
X0260091Y0057799D02*
X0249072Y0057799D01*
X0249072Y0058597D02*
X0281856Y0058597D01*
X0281433Y0059396D02*
X0249072Y0059396D01*
X0249072Y0060194D02*
X0281140Y0060194D01*
X0280960Y0060993D02*
X0249072Y0060993D01*
X0249072Y0061791D02*
X0286883Y0061791D01*
X0286883Y0062396D02*
X0280883Y0062396D01*
X0280883Y0062416D01*
X0280993Y0063247D01*
X0281210Y0064058D01*
X0281531Y0064833D01*
X0281951Y0065559D01*
X0282461Y0066225D01*
X0283055Y0066818D01*
X0283720Y0067329D01*
X0284447Y0067748D01*
X0285222Y0068069D01*
X0286032Y0068287D01*
X0286864Y0068396D01*
X0286883Y0068396D01*
X0286883Y0062396D01*
X0286883Y0062590D02*
X0287683Y0062590D01*
X0287683Y0063388D02*
X0286883Y0063388D01*
X0286883Y0064187D02*
X0287683Y0064187D01*
X0287683Y0064985D02*
X0286883Y0064985D01*
X0286883Y0065784D02*
X0287683Y0065784D01*
X0287683Y0066582D02*
X0286883Y0066582D01*
X0286883Y0067381D02*
X0287683Y0067381D01*
X0287683Y0068179D02*
X0286883Y0068179D01*
X0285632Y0068179D02*
X0249072Y0068179D01*
X0249072Y0067381D02*
X0283810Y0067381D01*
X0282819Y0066582D02*
X0249072Y0066582D01*
X0249072Y0065784D02*
X0282123Y0065784D01*
X0281619Y0064985D02*
X0249072Y0064985D01*
X0249072Y0064187D02*
X0281264Y0064187D01*
X0281031Y0063388D02*
X0249072Y0063388D01*
X0249072Y0062590D02*
X0280906Y0062590D01*
X0286883Y0060993D02*
X0287683Y0060993D01*
X0287684Y0061791D02*
X0359718Y0061791D01*
X0359718Y0061596D02*
X0359718Y0062396D01*
X0353718Y0062396D01*
X0353718Y0062416D01*
X0353828Y0063247D01*
X0354045Y0064058D01*
X0354366Y0064833D01*
X0354785Y0065559D01*
X0355296Y0066225D01*
X0355889Y0066818D01*
X0356555Y0067329D01*
X0357281Y0067748D01*
X0358056Y0068069D01*
X0358867Y0068287D01*
X0359699Y0068396D01*
X0359718Y0068396D01*
X0359718Y0062396D01*
X0360518Y0062396D01*
X0360518Y0068396D01*
X0360538Y0068396D01*
X0361369Y0068287D01*
X0362180Y0068069D01*
X0362955Y0067748D01*
X0363681Y0067329D01*
X0364347Y0066818D01*
X0364940Y0066225D01*
X0365451Y0065559D01*
X0365870Y0064833D01*
X0366191Y0064058D01*
X0366409Y0063247D01*
X0366518Y0062416D01*
X0366518Y0062396D01*
X0360518Y0062396D01*
X0360518Y0061596D01*
X0360518Y0055596D01*
X0360538Y0055596D01*
X0361369Y0055706D01*
X0362180Y0055923D01*
X0362955Y0056244D01*
X0363681Y0056663D01*
X0364347Y0057174D01*
X0364940Y0057767D01*
X0365451Y0058433D01*
X0365870Y0059159D01*
X0366191Y0059934D01*
X0366409Y0060745D01*
X0366518Y0061577D01*
X0366518Y0061596D01*
X0360518Y0061596D01*
X0359718Y0061596D01*
X0359718Y0060993D02*
X0360518Y0060993D01*
X0360518Y0061791D02*
X0384918Y0061791D01*
X0384120Y0062590D02*
X0366495Y0062590D01*
X0366371Y0063388D02*
X0383321Y0063388D01*
X0382523Y0064187D02*
X0366138Y0064187D01*
X0365782Y0064985D02*
X0381724Y0064985D01*
X0380926Y0065784D02*
X0365279Y0065784D01*
X0364583Y0066582D02*
X0380127Y0066582D01*
X0379329Y0067381D02*
X0363591Y0067381D01*
X0361769Y0068179D02*
X0378530Y0068179D01*
X0377732Y0068978D02*
X0249072Y0068978D01*
X0249072Y0069776D02*
X0376933Y0069776D01*
X0379063Y0072172D02*
X0381809Y0072172D01*
X0382607Y0071373D02*
X0379862Y0071373D01*
X0380660Y0070575D02*
X0384445Y0070575D01*
X0385137Y0070288D02*
X0382670Y0071310D01*
X0380782Y0073198D01*
X0379761Y0075665D01*
X0379761Y0078335D01*
X0380782Y0080802D01*
X0382670Y0082690D01*
X0385137Y0083712D01*
X0387808Y0083712D01*
X0390274Y0082690D01*
X0392162Y0080802D01*
X0393184Y0078335D01*
X0393184Y0075665D01*
X0392162Y0073198D01*
X0390274Y0071310D01*
X0387808Y0070288D01*
X0385137Y0070288D01*
X0383056Y0068179D02*
X0431302Y0068179D01*
X0431701Y0068287D02*
X0430891Y0068069D01*
X0430116Y0067748D01*
X0429389Y0067329D01*
X0428724Y0066818D01*
X0428131Y0066225D01*
X0427620Y0065559D01*
X0427200Y0064833D01*
X0426879Y0064058D01*
X0426662Y0063247D01*
X0426553Y0062416D01*
X0426553Y0062396D01*
X0432553Y0062396D01*
X0432553Y0068396D01*
X0432533Y0068396D01*
X0431701Y0068287D01*
X0432553Y0068179D02*
X0433353Y0068179D01*
X0433372Y0068396D02*
X0433353Y0068396D01*
X0433353Y0062396D01*
X0439353Y0062396D01*
X0439353Y0062416D01*
X0439243Y0063247D01*
X0439026Y0064058D01*
X0438705Y0064833D01*
X0438286Y0065559D01*
X0437775Y0066225D01*
X0437182Y0066818D01*
X0436516Y0067329D01*
X0435789Y0067748D01*
X0435014Y0068069D01*
X0434204Y0068287D01*
X0433372Y0068396D01*
X0433353Y0067381D02*
X0432553Y0067381D01*
X0432553Y0066582D02*
X0433353Y0066582D01*
X0433353Y0065784D02*
X0432553Y0065784D01*
X0432553Y0064985D02*
X0433353Y0064985D01*
X0433353Y0064187D02*
X0432553Y0064187D01*
X0432553Y0063388D02*
X0433353Y0063388D01*
X0433353Y0062590D02*
X0432553Y0062590D01*
X0432553Y0062396D02*
X0433353Y0062396D01*
X0433353Y0061596D01*
X0439353Y0061596D01*
X0439353Y0061577D01*
X0439243Y0060745D01*
X0439026Y0059934D01*
X0438705Y0059159D01*
X0438286Y0058433D01*
X0437775Y0057767D01*
X0437182Y0057174D01*
X0436516Y0056663D01*
X0435789Y0056244D01*
X0435014Y0055923D01*
X0434204Y0055706D01*
X0433372Y0055596D01*
X0433353Y0055596D01*
X0433353Y0061596D01*
X0432553Y0061596D01*
X0432553Y0055596D01*
X0432533Y0055596D01*
X0431701Y0055706D01*
X0430891Y0055923D01*
X0430116Y0056244D01*
X0429389Y0056663D01*
X0428724Y0057174D01*
X0428131Y0057767D01*
X0427620Y0058433D01*
X0427200Y0059159D01*
X0426879Y0059934D01*
X0426662Y0060745D01*
X0426553Y0061577D01*
X0426553Y0061596D01*
X0432553Y0061596D01*
X0432553Y0062396D01*
X0432553Y0061791D02*
X0389444Y0061791D01*
X0390242Y0060993D02*
X0426630Y0060993D01*
X0426810Y0060194D02*
X0391041Y0060194D01*
X0391839Y0059396D02*
X0427103Y0059396D01*
X0427525Y0058597D02*
X0392638Y0058597D01*
X0393436Y0057799D02*
X0405760Y0057799D01*
X0404189Y0057000D02*
X0394235Y0057000D01*
X0395033Y0056202D02*
X0403390Y0056202D01*
X0402653Y0055403D02*
X0395832Y0055403D01*
X0396630Y0054605D02*
X0402322Y0054605D01*
X0401992Y0053806D02*
X0397429Y0053806D01*
X0390508Y0056202D02*
X0362853Y0056202D01*
X0364121Y0057000D02*
X0389709Y0057000D01*
X0388911Y0057799D02*
X0364964Y0057799D01*
X0365546Y0058597D02*
X0388112Y0058597D01*
X0387314Y0059396D02*
X0365968Y0059396D01*
X0366261Y0060194D02*
X0386515Y0060194D01*
X0385717Y0060993D02*
X0366441Y0060993D01*
X0360518Y0060194D02*
X0359718Y0060194D01*
X0359718Y0059396D02*
X0360518Y0059396D01*
X0360518Y0058597D02*
X0359718Y0058597D01*
X0359718Y0057799D02*
X0360518Y0057799D01*
X0360518Y0057000D02*
X0359718Y0057000D01*
X0359718Y0056202D02*
X0360518Y0056202D01*
X0354268Y0059396D02*
X0293134Y0059396D01*
X0293426Y0060194D02*
X0353975Y0060194D01*
X0353795Y0060993D02*
X0293607Y0060993D01*
X0293661Y0062590D02*
X0353741Y0062590D01*
X0353865Y0063388D02*
X0293536Y0063388D01*
X0293303Y0064187D02*
X0354098Y0064187D01*
X0354454Y0064985D02*
X0292948Y0064985D01*
X0292444Y0065784D02*
X0354958Y0065784D01*
X0355653Y0066582D02*
X0291748Y0066582D01*
X0290757Y0067381D02*
X0356645Y0067381D01*
X0358467Y0068179D02*
X0288935Y0068179D01*
X0287683Y0060194D02*
X0286883Y0060194D01*
X0286883Y0059396D02*
X0287683Y0059396D01*
X0287683Y0058597D02*
X0286883Y0058597D01*
X0286883Y0057799D02*
X0287683Y0057799D01*
X0287683Y0057000D02*
X0286883Y0057000D01*
X0286883Y0056202D02*
X0287683Y0056202D01*
X0284548Y0056202D02*
X0266846Y0056202D01*
X0266047Y0057000D02*
X0283281Y0057000D01*
X0282437Y0057799D02*
X0264476Y0057799D01*
X0245872Y0057799D02*
X0219295Y0057799D01*
X0219271Y0057767D02*
X0219782Y0058433D01*
X0220201Y0059159D01*
X0220522Y0059934D01*
X0220739Y0060745D01*
X0220849Y0061577D01*
X0220849Y0061596D01*
X0214849Y0061596D01*
X0214849Y0055596D01*
X0214868Y0055596D01*
X0215700Y0055706D01*
X0216510Y0055923D01*
X0217286Y0056244D01*
X0218012Y0056663D01*
X0218678Y0057174D01*
X0219271Y0057767D01*
X0219877Y0058597D02*
X0239087Y0058597D01*
X0238188Y0059396D02*
X0220299Y0059396D01*
X0220592Y0060194D02*
X0237830Y0060194D01*
X0237722Y0060993D02*
X0220772Y0060993D01*
X0220826Y0062590D02*
X0236620Y0062590D01*
X0235821Y0063388D02*
X0220702Y0063388D01*
X0220469Y0064187D02*
X0235023Y0064187D01*
X0234224Y0064985D02*
X0220113Y0064985D01*
X0219609Y0065784D02*
X0233426Y0065784D01*
X0232627Y0066582D02*
X0218913Y0066582D01*
X0217922Y0067381D02*
X0231829Y0067381D01*
X0231972Y0069500D02*
X0208972Y0069500D01*
X0203472Y0064000D01*
X0140472Y0064000D01*
X0127972Y0076500D01*
X0126016Y0074568D02*
X0016672Y0074568D01*
X0016672Y0075366D02*
X0125466Y0075366D01*
X0125222Y0076165D02*
X0016672Y0076165D01*
X0016672Y0076963D02*
X0125222Y0076963D01*
X0125518Y0077762D02*
X0016672Y0077762D01*
X0016672Y0078560D02*
X0126143Y0078560D01*
X0129801Y0078560D02*
X0151770Y0078560D01*
X0152568Y0079359D02*
X0016672Y0079359D01*
X0016672Y0080157D02*
X0153367Y0080157D01*
X0154165Y0080956D02*
X0016672Y0080956D01*
X0016672Y0081754D02*
X0154964Y0081754D01*
X0155762Y0082553D02*
X0016672Y0082553D01*
X0016672Y0083351D02*
X0156561Y0083351D01*
X0157359Y0084150D02*
X0016672Y0084150D01*
X0016672Y0084948D02*
X0158158Y0084948D01*
X0158956Y0085747D02*
X0016672Y0085747D01*
X0016672Y0086545D02*
X0159755Y0086545D01*
X0160553Y0087344D02*
X0016672Y0087344D01*
X0016672Y0088142D02*
X0161352Y0088142D01*
X0162150Y0088941D02*
X0016672Y0088941D01*
X0016672Y0089739D02*
X0162949Y0089739D01*
X0163747Y0090538D02*
X0016672Y0090538D01*
X0016672Y0091336D02*
X0164546Y0091336D01*
X0165344Y0092135D02*
X0016672Y0092135D01*
X0016672Y0092933D02*
X0166143Y0092933D01*
X0166941Y0093732D02*
X0016672Y0093732D01*
X0016672Y0094530D02*
X0167740Y0094530D01*
X0168190Y0095329D02*
X0168539Y0095329D01*
X0168880Y0096127D02*
X0169337Y0096127D01*
X0169211Y0096926D02*
X0170136Y0096926D01*
X0170934Y0097724D02*
X0169222Y0097724D01*
X0169758Y0098523D02*
X0171733Y0098523D01*
X0172372Y0099321D02*
X0170557Y0099321D01*
X0171355Y0100120D02*
X0172372Y0100120D01*
X0172372Y0100918D02*
X0171572Y0100918D01*
X0171572Y0101717D02*
X0172372Y0101717D01*
X0172372Y0102515D02*
X0171572Y0102515D01*
X0171572Y0103314D02*
X0172372Y0103314D01*
X0172372Y0104112D02*
X0171572Y0104112D01*
X0171572Y0104911D02*
X0172372Y0104911D01*
X0172372Y0105709D02*
X0171572Y0105709D01*
X0171572Y0106508D02*
X0172372Y0106508D01*
X0172372Y0107306D02*
X0171572Y0107306D01*
X0171572Y0108105D02*
X0172372Y0108105D01*
X0172372Y0108903D02*
X0171572Y0108903D01*
X0171572Y0109702D02*
X0172372Y0109702D01*
X0172372Y0110501D02*
X0171572Y0110501D01*
X0171572Y0111299D02*
X0172372Y0111299D01*
X0172372Y0112098D02*
X0171572Y0112098D01*
X0171572Y0112896D02*
X0172372Y0112896D01*
X0172372Y0113695D02*
X0171572Y0113695D01*
X0171572Y0114493D02*
X0172372Y0114493D01*
X0172372Y0115292D02*
X0171572Y0115292D01*
X0171572Y0116090D02*
X0172372Y0116090D01*
X0172372Y0116889D02*
X0171572Y0116889D01*
X0171572Y0117687D02*
X0172372Y0117687D01*
X0172372Y0118486D02*
X0171572Y0118486D01*
X0171572Y0119284D02*
X0172494Y0119284D01*
X0173292Y0120083D02*
X0171572Y0120083D01*
X0171572Y0120881D02*
X0174091Y0120881D01*
X0174889Y0121680D02*
X0171572Y0121680D01*
X0171572Y0122478D02*
X0175688Y0122478D01*
X0176486Y0123277D02*
X0171572Y0123277D01*
X0171572Y0124075D02*
X0177285Y0124075D01*
X0178083Y0124874D02*
X0171572Y0124874D01*
X0171572Y0125672D02*
X0178882Y0125672D01*
X0180303Y0124831D02*
X0173972Y0118500D01*
X0173972Y0098500D01*
X0142972Y0067500D01*
X0140222Y0067381D02*
X0139354Y0067381D01*
X0138556Y0068179D02*
X0140277Y0068179D01*
X0140608Y0068978D02*
X0137757Y0068978D01*
X0136959Y0069776D02*
X0141360Y0069776D01*
X0143785Y0070575D02*
X0136160Y0070575D01*
X0135362Y0071373D02*
X0144583Y0071373D01*
X0145382Y0072172D02*
X0134563Y0072172D01*
X0133765Y0072970D02*
X0146180Y0072970D01*
X0146979Y0073769D02*
X0132966Y0073769D01*
X0132168Y0074568D02*
X0147777Y0074568D01*
X0148576Y0075366D02*
X0131369Y0075366D01*
X0130722Y0076165D02*
X0149374Y0076165D01*
X0150173Y0076963D02*
X0130722Y0076963D01*
X0130426Y0077762D02*
X0150971Y0077762D01*
X0153900Y0076165D02*
X0233761Y0076165D01*
X0233761Y0076963D02*
X0154698Y0076963D01*
X0155497Y0077762D02*
X0233761Y0077762D01*
X0233854Y0078560D02*
X0156295Y0078560D01*
X0157094Y0079359D02*
X0234185Y0079359D01*
X0234515Y0080157D02*
X0157892Y0080157D01*
X0158691Y0080956D02*
X0234936Y0080956D01*
X0235735Y0081754D02*
X0159489Y0081754D01*
X0160288Y0082553D02*
X0236533Y0082553D01*
X0238267Y0083351D02*
X0161086Y0083351D01*
X0153101Y0075366D02*
X0233884Y0075366D01*
X0234215Y0074568D02*
X0152303Y0074568D01*
X0151504Y0073769D02*
X0234546Y0073769D01*
X0235010Y0072970D02*
X0150706Y0072970D01*
X0149907Y0072172D02*
X0235809Y0072172D01*
X0236607Y0071373D02*
X0149109Y0071373D01*
X0148310Y0070575D02*
X0207785Y0070575D01*
X0207372Y0070163D02*
X0207372Y0070163D01*
X0206986Y0069776D02*
X0147512Y0069776D01*
X0146713Y0068978D02*
X0206188Y0068978D01*
X0205389Y0068179D02*
X0145915Y0068179D01*
X0145722Y0067381D02*
X0204591Y0067381D01*
X0203792Y0066582D02*
X0145569Y0066582D01*
X0145145Y0065784D02*
X0202994Y0065784D01*
X0205922Y0064187D02*
X0208429Y0064187D01*
X0208196Y0063388D02*
X0205124Y0063388D01*
X0204325Y0062590D02*
X0208072Y0062590D01*
X0208049Y0061596D02*
X0208049Y0061577D01*
X0208158Y0060745D01*
X0208375Y0059934D01*
X0208697Y0059159D01*
X0209116Y0058433D01*
X0209627Y0057767D01*
X0210220Y0057174D01*
X0210886Y0056663D01*
X0211612Y0056244D01*
X0212387Y0055923D01*
X0213198Y0055706D01*
X0214029Y0055596D01*
X0214049Y0055596D01*
X0214049Y0061596D01*
X0208049Y0061596D01*
X0208126Y0060993D02*
X0182715Y0060993D01*
X0183513Y0060194D02*
X0208306Y0060194D01*
X0208599Y0059396D02*
X0184312Y0059396D01*
X0185110Y0058597D02*
X0209021Y0058597D01*
X0209602Y0057799D02*
X0191641Y0057799D01*
X0193213Y0057000D02*
X0210446Y0057000D01*
X0211714Y0056202D02*
X0194011Y0056202D01*
X0194748Y0055403D02*
X0245872Y0055403D01*
X0245872Y0054605D02*
X0195079Y0054605D01*
X0195410Y0053806D02*
X0245872Y0053806D01*
X0245872Y0053008D02*
X0195649Y0053008D01*
X0195649Y0052209D02*
X0245872Y0052209D01*
X0245872Y0051411D02*
X0195649Y0051411D01*
X0195586Y0050612D02*
X0201536Y0050612D01*
X0202644Y0051071D02*
X0199308Y0049689D01*
X0196756Y0047137D01*
X0195374Y0043801D01*
X0195374Y0040191D01*
X0196756Y0036856D01*
X0199308Y0034303D01*
X0202644Y0032921D01*
X0206254Y0032921D01*
X0209589Y0034303D01*
X0212142Y0036856D01*
X0213524Y0040191D01*
X0213524Y0043801D01*
X0212142Y0047137D01*
X0209589Y0049689D01*
X0206254Y0051071D01*
X0202644Y0051071D01*
X0199609Y0049814D02*
X0195256Y0049814D01*
X0194925Y0049015D02*
X0198634Y0049015D01*
X0197836Y0048217D02*
X0194437Y0048217D01*
X0193639Y0047418D02*
X0197037Y0047418D01*
X0196541Y0046620D02*
X0192670Y0046620D01*
X0190743Y0045821D02*
X0196211Y0045821D01*
X0195880Y0045023D02*
X0189973Y0045023D01*
X0190304Y0044224D02*
X0195549Y0044224D01*
X0195374Y0043426D02*
X0190635Y0043426D01*
X0190711Y0042627D02*
X0195374Y0042627D01*
X0195374Y0041829D02*
X0190711Y0041829D01*
X0190711Y0041030D02*
X0195374Y0041030D01*
X0195374Y0040232D02*
X0190496Y0040232D01*
X0190165Y0039433D02*
X0195688Y0039433D01*
X0196019Y0038634D02*
X0189835Y0038634D01*
X0189145Y0037836D02*
X0196349Y0037836D01*
X0196680Y0037037D02*
X0188346Y0037037D01*
X0186914Y0036239D02*
X0197372Y0036239D01*
X0198171Y0035440D02*
X0157072Y0035440D01*
X0157072Y0036239D02*
X0181984Y0036239D01*
X0180551Y0037037D02*
X0156698Y0037037D01*
X0156135Y0037600D02*
X0156135Y0037600D01*
X0155899Y0037836D02*
X0179753Y0037836D01*
X0179063Y0038634D02*
X0155101Y0038634D01*
X0154302Y0039433D02*
X0178732Y0039433D01*
X0178402Y0040232D02*
X0153504Y0040232D01*
X0152705Y0041030D02*
X0178187Y0041030D01*
X0178187Y0041829D02*
X0151907Y0041829D01*
X0151108Y0042627D02*
X0178187Y0042627D01*
X0178263Y0043426D02*
X0150310Y0043426D01*
X0149511Y0044224D02*
X0178594Y0044224D01*
X0178924Y0045023D02*
X0152384Y0045023D01*
X0152961Y0045821D02*
X0179418Y0045821D01*
X0180216Y0046620D02*
X0153222Y0046620D01*
X0153222Y0047418D02*
X0181175Y0047418D01*
X0183103Y0048217D02*
X0152945Y0048217D01*
X0152346Y0049015D02*
X0183973Y0049015D01*
X0183642Y0049814D02*
X0152072Y0049814D01*
X0152072Y0050612D02*
X0183311Y0050612D01*
X0183249Y0051411D02*
X0152072Y0051411D01*
X0152072Y0052209D02*
X0183249Y0052209D01*
X0183249Y0053008D02*
X0152072Y0053008D01*
X0151429Y0053806D02*
X0183488Y0053806D01*
X0183819Y0054605D02*
X0150630Y0054605D01*
X0149832Y0055403D02*
X0183779Y0055403D01*
X0182980Y0056202D02*
X0149033Y0056202D01*
X0148235Y0057000D02*
X0182182Y0057000D01*
X0181383Y0057799D02*
X0148222Y0057799D01*
X0147995Y0058597D02*
X0180585Y0058597D01*
X0185909Y0057799D02*
X0187256Y0057799D01*
X0189449Y0051996D02*
X0180945Y0060500D01*
X0140472Y0060500D01*
X0145472Y0057500D02*
X0150472Y0052500D01*
X0150472Y0047000D01*
X0140993Y0048217D02*
X0083600Y0048217D01*
X0082345Y0048217D02*
X0016672Y0048217D01*
X0016672Y0049015D02*
X0140195Y0049015D01*
X0139396Y0049814D02*
X0016672Y0049814D01*
X0016672Y0050612D02*
X0138598Y0050612D01*
X0137799Y0051411D02*
X0016672Y0051411D01*
X0016672Y0052209D02*
X0137001Y0052209D01*
X0136202Y0053008D02*
X0016672Y0053008D01*
X0016672Y0053806D02*
X0135403Y0053806D01*
X0134605Y0054605D02*
X0016672Y0054605D01*
X0016672Y0055403D02*
X0133806Y0055403D01*
X0133008Y0056202D02*
X0016672Y0056202D01*
X0016672Y0057000D02*
X0132209Y0057000D01*
X0131810Y0057400D02*
X0131810Y0057400D01*
X0131411Y0057799D02*
X0016672Y0057799D01*
X0016672Y0058597D02*
X0130872Y0058597D01*
X0130872Y0059396D02*
X0016672Y0059396D01*
X0016672Y0060194D02*
X0130872Y0060194D01*
X0130872Y0060993D02*
X0016672Y0060993D01*
X0016672Y0061791D02*
X0130872Y0061791D01*
X0131300Y0062590D02*
X0016672Y0062590D01*
X0016672Y0063388D02*
X0132098Y0063388D01*
X0132722Y0064187D02*
X0016672Y0064187D01*
X0016672Y0064985D02*
X0132722Y0064985D01*
X0133028Y0065784D02*
X0016672Y0065784D01*
X0016672Y0066582D02*
X0133666Y0066582D01*
X0134829Y0067381D02*
X0016672Y0067381D01*
X0016672Y0068179D02*
X0134030Y0068179D01*
X0133232Y0068978D02*
X0016672Y0068978D01*
X0016672Y0069776D02*
X0132433Y0069776D01*
X0131635Y0070575D02*
X0016672Y0070575D01*
X0016672Y0071373D02*
X0130836Y0071373D01*
X0130038Y0072172D02*
X0016672Y0072172D01*
X0016672Y0072970D02*
X0129239Y0072970D01*
X0127380Y0073769D02*
X0016672Y0073769D01*
X0016672Y0095329D02*
X0164755Y0095329D01*
X0164064Y0096127D02*
X0016672Y0096127D01*
X0016672Y0096926D02*
X0163734Y0096926D01*
X0163722Y0097724D02*
X0016672Y0097724D01*
X0016672Y0098523D02*
X0163920Y0098523D01*
X0164405Y0099321D02*
X0016672Y0099321D01*
X0016672Y0100120D02*
X0165611Y0100120D01*
X0167628Y0100918D02*
X0016672Y0100918D01*
X0016672Y0101717D02*
X0168372Y0101717D01*
X0168372Y0102515D02*
X0016672Y0102515D01*
X0016672Y0103314D02*
X0168372Y0103314D01*
X0168372Y0104112D02*
X0016672Y0104112D01*
X0016672Y0104911D02*
X0168372Y0104911D01*
X0168372Y0105709D02*
X0016672Y0105709D01*
X0016672Y0106508D02*
X0168372Y0106508D01*
X0168372Y0107306D02*
X0016672Y0107306D01*
X0016672Y0108105D02*
X0168372Y0108105D01*
X0168372Y0108903D02*
X0016672Y0108903D01*
X0016672Y0109702D02*
X0168372Y0109702D01*
X0168372Y0110501D02*
X0016672Y0110501D01*
X0016672Y0111299D02*
X0168372Y0111299D01*
X0168372Y0112098D02*
X0016672Y0112098D01*
X0016672Y0112896D02*
X0168372Y0112896D01*
X0168372Y0113695D02*
X0016672Y0113695D01*
X0016672Y0114493D02*
X0168372Y0114493D01*
X0168372Y0115292D02*
X0016672Y0115292D01*
X0016672Y0116090D02*
X0168372Y0116090D01*
X0168372Y0116889D02*
X0016672Y0116889D01*
X0016672Y0117687D02*
X0168372Y0117687D01*
X0168372Y0118486D02*
X0016672Y0118486D01*
X0016672Y0119284D02*
X0168372Y0119284D01*
X0168372Y0120083D02*
X0016672Y0120083D01*
X0016672Y0120881D02*
X0168372Y0120881D01*
X0168372Y0121680D02*
X0016672Y0121680D01*
X0016672Y0122478D02*
X0168372Y0122478D01*
X0168372Y0123277D02*
X0016672Y0123277D01*
X0016672Y0124075D02*
X0168372Y0124075D01*
X0168372Y0124874D02*
X0016672Y0124874D01*
X0016672Y0125672D02*
X0168372Y0125672D01*
X0168372Y0126471D02*
X0016672Y0126471D01*
X0016672Y0127269D02*
X0168372Y0127269D01*
X0168372Y0128068D02*
X0016672Y0128068D01*
X0016672Y0128866D02*
X0168372Y0128866D01*
X0168372Y0129665D02*
X0016672Y0129665D01*
X0016672Y0130463D02*
X0168372Y0130463D01*
X0168372Y0131262D02*
X0016672Y0131262D01*
X0016672Y0132060D02*
X0168372Y0132060D01*
X0168372Y0132859D02*
X0016672Y0132859D01*
X0016672Y0133657D02*
X0168372Y0133657D01*
X0168372Y0134456D02*
X0016672Y0134456D01*
X0016672Y0135254D02*
X0168372Y0135254D01*
X0168372Y0136053D02*
X0030447Y0136053D01*
X0029808Y0135788D02*
X0032274Y0136810D01*
X0034162Y0138698D01*
X0035184Y0141165D01*
X0035184Y0143835D01*
X0034162Y0146302D01*
X0032274Y0148190D01*
X0029808Y0149212D01*
X0027137Y0149212D01*
X0024670Y0148190D01*
X0022782Y0146302D01*
X0021761Y0143835D01*
X0021761Y0141165D01*
X0022782Y0138698D01*
X0024670Y0136810D01*
X0027137Y0135788D01*
X0029808Y0135788D01*
X0032316Y0136851D02*
X0168372Y0136851D01*
X0168372Y0137650D02*
X0033114Y0137650D01*
X0033913Y0138448D02*
X0168372Y0138448D01*
X0168372Y0139247D02*
X0034390Y0139247D01*
X0034721Y0140045D02*
X0168372Y0140045D01*
X0168372Y0140844D02*
X0035051Y0140844D01*
X0035184Y0141642D02*
X0168372Y0141642D01*
X0168372Y0142441D02*
X0035184Y0142441D01*
X0035184Y0143239D02*
X0168372Y0143239D01*
X0168372Y0144038D02*
X0035100Y0144038D01*
X0034769Y0144837D02*
X0168372Y0144837D01*
X0168372Y0145635D02*
X0034439Y0145635D01*
X0034031Y0146434D02*
X0168372Y0146434D01*
X0168351Y0147232D02*
X0033232Y0147232D01*
X0032434Y0148031D02*
X0167605Y0148031D01*
X0167274Y0148829D02*
X0030732Y0148829D01*
X0026213Y0148829D02*
X0023999Y0148829D01*
X0024511Y0148031D02*
X0023200Y0148031D01*
X0023713Y0147232D02*
X0022402Y0147232D01*
X0022914Y0146434D02*
X0021603Y0146434D01*
X0020805Y0145635D02*
X0022506Y0145635D01*
X0022175Y0144837D02*
X0020006Y0144837D01*
X0019207Y0144038D02*
X0021845Y0144038D01*
X0021761Y0143239D02*
X0018409Y0143239D01*
X0017610Y0142441D02*
X0021761Y0142441D01*
X0021761Y0141642D02*
X0016812Y0141642D01*
X0016672Y0140844D02*
X0021894Y0140844D01*
X0022224Y0140045D02*
X0016672Y0140045D01*
X0016672Y0139247D02*
X0022555Y0139247D01*
X0023032Y0138448D02*
X0016672Y0138448D01*
X0016672Y0137650D02*
X0023831Y0137650D01*
X0024629Y0136851D02*
X0016672Y0136851D01*
X0016672Y0136053D02*
X0026498Y0136053D01*
X0024797Y0149628D02*
X0167222Y0149628D01*
X0167379Y0150426D02*
X0025596Y0150426D01*
X0026394Y0151225D02*
X0167808Y0151225D01*
X0169972Y0149500D02*
X0169972Y0101000D01*
X0166472Y0097500D01*
X0173862Y0096127D02*
X0196788Y0096127D01*
X0195990Y0096926D02*
X0174661Y0096926D01*
X0175460Y0097724D02*
X0195451Y0097724D01*
X0195120Y0098523D02*
X0175572Y0098523D01*
X0175572Y0099321D02*
X0194949Y0099321D01*
X0194949Y0100120D02*
X0175572Y0100120D01*
X0175572Y0100918D02*
X0195029Y0100918D01*
X0195359Y0101717D02*
X0175572Y0101717D01*
X0175572Y0102515D02*
X0195770Y0102515D01*
X0196568Y0103314D02*
X0175572Y0103314D01*
X0175572Y0104112D02*
X0198027Y0104112D01*
X0200828Y0106508D02*
X0175572Y0106508D01*
X0175572Y0107306D02*
X0199139Y0107306D01*
X0198341Y0108105D02*
X0175572Y0108105D01*
X0175572Y0108903D02*
X0182394Y0108903D01*
X0180721Y0109702D02*
X0175572Y0109702D01*
X0175572Y0110501D02*
X0179923Y0110501D01*
X0179134Y0111299D02*
X0175572Y0111299D01*
X0175572Y0112098D02*
X0178803Y0112098D01*
X0178472Y0112896D02*
X0175572Y0112896D01*
X0175572Y0113695D02*
X0178187Y0113695D01*
X0178187Y0114493D02*
X0175572Y0114493D01*
X0175572Y0115292D02*
X0178187Y0115292D01*
X0178192Y0116090D02*
X0175572Y0116090D01*
X0175572Y0116889D02*
X0178523Y0116889D01*
X0178854Y0117687D02*
X0175572Y0117687D01*
X0176221Y0118486D02*
X0179248Y0118486D01*
X0180046Y0119284D02*
X0177019Y0119284D01*
X0177818Y0120083D02*
X0180845Y0120083D01*
X0182692Y0120881D02*
X0178616Y0120881D01*
X0179415Y0121680D02*
X0184043Y0121680D01*
X0183712Y0122478D02*
X0180213Y0122478D01*
X0180303Y0124831D02*
X0189449Y0124831D01*
X0195649Y0124874D02*
X0253583Y0124874D01*
X0252785Y0124075D02*
X0195649Y0124075D01*
X0195516Y0123277D02*
X0201126Y0123277D01*
X0199263Y0122478D02*
X0195185Y0122478D01*
X0194854Y0121680D02*
X0198464Y0121680D01*
X0197666Y0120881D02*
X0194267Y0120881D01*
X0193469Y0120083D02*
X0196867Y0120083D01*
X0196471Y0119284D02*
X0192260Y0119284D01*
X0189650Y0118486D02*
X0196140Y0118486D01*
X0195809Y0117687D02*
X0190044Y0117687D01*
X0190375Y0116889D02*
X0195479Y0116889D01*
X0195374Y0116090D02*
X0190705Y0116090D01*
X0190711Y0115292D02*
X0195374Y0115292D01*
X0195374Y0114493D02*
X0190711Y0114493D01*
X0190711Y0113695D02*
X0195374Y0113695D01*
X0195428Y0112896D02*
X0190426Y0112896D01*
X0190095Y0112098D02*
X0195758Y0112098D01*
X0196089Y0111299D02*
X0189764Y0111299D01*
X0188975Y0110501D02*
X0196420Y0110501D01*
X0196751Y0109702D02*
X0188176Y0109702D01*
X0186503Y0108903D02*
X0197542Y0108903D01*
X0203949Y0099321D02*
X0204771Y0099321D01*
X0204932Y0098523D02*
X0203778Y0098523D01*
X0203447Y0097724D02*
X0205247Y0097724D01*
X0205750Y0096926D02*
X0202908Y0096926D01*
X0202109Y0096127D02*
X0206550Y0096127D01*
X0208095Y0095329D02*
X0173064Y0095329D01*
X0233160Y0070575D02*
X0238445Y0070575D01*
X0235556Y0068179D02*
X0245872Y0068179D01*
X0245872Y0067381D02*
X0236354Y0067381D01*
X0237153Y0066582D02*
X0245872Y0066582D01*
X0245872Y0065784D02*
X0237951Y0065784D01*
X0238750Y0064985D02*
X0245872Y0064985D01*
X0245872Y0064187D02*
X0239548Y0064187D01*
X0241893Y0063388D02*
X0245872Y0063388D01*
X0245872Y0062590D02*
X0242772Y0062590D01*
X0243121Y0061791D02*
X0245872Y0061791D01*
X0245872Y0060993D02*
X0243222Y0060993D01*
X0243115Y0060194D02*
X0245872Y0060194D01*
X0245872Y0059396D02*
X0242757Y0059396D01*
X0241858Y0058597D02*
X0245872Y0058597D01*
X0245872Y0057000D02*
X0218451Y0057000D01*
X0217184Y0056202D02*
X0245872Y0056202D01*
X0240472Y0061000D02*
X0231972Y0069500D01*
X0233959Y0069776D02*
X0245872Y0069776D01*
X0245872Y0068978D02*
X0234757Y0068978D01*
X0242500Y0070575D02*
X0245872Y0070575D01*
X0245872Y0071373D02*
X0244338Y0071373D01*
X0245136Y0072172D02*
X0245872Y0072172D01*
X0249072Y0082553D02*
X0309157Y0082553D01*
X0308359Y0083351D02*
X0249072Y0083351D01*
X0249072Y0084150D02*
X0307560Y0084150D01*
X0306762Y0084948D02*
X0249072Y0084948D01*
X0249072Y0085747D02*
X0305963Y0085747D01*
X0305165Y0086545D02*
X0249072Y0086545D01*
X0249072Y0087344D02*
X0304366Y0087344D01*
X0303567Y0088142D02*
X0249072Y0088142D01*
X0249072Y0088941D02*
X0302769Y0088941D01*
X0301970Y0089739D02*
X0249072Y0089739D01*
X0285182Y0096127D02*
X0340489Y0096127D01*
X0339691Y0096926D02*
X0285982Y0096926D01*
X0286485Y0097724D02*
X0339151Y0097724D01*
X0338821Y0098523D02*
X0286800Y0098523D01*
X0286961Y0099321D02*
X0338650Y0099321D01*
X0345810Y0096127D02*
X0350251Y0096127D01*
X0350088Y0096246D02*
X0350686Y0095811D01*
X0351345Y0095475D01*
X0352049Y0095246D01*
X0352750Y0095135D01*
X0352750Y0099431D01*
X0353550Y0099431D01*
X0353550Y0100231D01*
X0357845Y0100231D01*
X0357734Y0100931D01*
X0357505Y0101635D01*
X0357169Y0102294D01*
X0356735Y0102893D01*
X0356211Y0103416D01*
X0355613Y0103851D01*
X0354954Y0104186D01*
X0354250Y0104415D01*
X0353550Y0104526D01*
X0353550Y0100231D01*
X0352750Y0100231D01*
X0352750Y0104526D01*
X0352049Y0104415D01*
X0351345Y0104186D01*
X0350686Y0103851D01*
X0350088Y0103416D01*
X0349565Y0102893D01*
X0349130Y0102294D01*
X0348794Y0101635D01*
X0348565Y0100931D01*
X0348454Y0100231D01*
X0352750Y0100231D01*
X0352750Y0099431D01*
X0348454Y0099431D01*
X0348565Y0098730D01*
X0348794Y0098027D01*
X0349130Y0097367D01*
X0349565Y0096769D01*
X0350088Y0096246D01*
X0349451Y0096926D02*
X0346609Y0096926D01*
X0347148Y0097724D02*
X0348948Y0097724D01*
X0348633Y0098523D02*
X0347479Y0098523D01*
X0347650Y0099321D02*
X0348472Y0099321D01*
X0347650Y0100120D02*
X0352750Y0100120D01*
X0352750Y0100918D02*
X0353550Y0100918D01*
X0353550Y0100120D02*
X0413453Y0100120D01*
X0413453Y0100726D02*
X0413453Y0098936D01*
X0414138Y0097282D01*
X0415404Y0096016D01*
X0417058Y0095331D01*
X0418848Y0095331D01*
X0420502Y0096016D01*
X0421768Y0097282D01*
X0422453Y0098936D01*
X0422453Y0100726D01*
X0421768Y0102380D01*
X0420502Y0103646D01*
X0418848Y0104331D01*
X0417058Y0104331D01*
X0415404Y0103646D01*
X0414138Y0102380D01*
X0413453Y0100726D01*
X0413533Y0100918D02*
X0357736Y0100918D01*
X0357463Y0101717D02*
X0413863Y0101717D01*
X0414273Y0102515D02*
X0357009Y0102515D01*
X0356313Y0103314D02*
X0415072Y0103314D01*
X0416531Y0104112D02*
X0355099Y0104112D01*
X0353550Y0104112D02*
X0352750Y0104112D01*
X0352750Y0103314D02*
X0353550Y0103314D01*
X0353550Y0102515D02*
X0352750Y0102515D01*
X0352750Y0101717D02*
X0353550Y0101717D01*
X0353550Y0099431D02*
X0357845Y0099431D01*
X0357734Y0098730D01*
X0357505Y0098027D01*
X0357169Y0097367D01*
X0356735Y0096769D01*
X0356211Y0096246D01*
X0355613Y0095811D01*
X0354954Y0095475D01*
X0354250Y0095246D01*
X0353550Y0095135D01*
X0353550Y0099431D01*
X0353550Y0099321D02*
X0352750Y0099321D01*
X0352750Y0098523D02*
X0353550Y0098523D01*
X0353550Y0097724D02*
X0352750Y0097724D01*
X0352750Y0096926D02*
X0353550Y0096926D01*
X0353550Y0096127D02*
X0352750Y0096127D01*
X0352750Y0095329D02*
X0353550Y0095329D01*
X0354504Y0095329D02*
X0426599Y0095329D01*
X0426852Y0095246D02*
X0427553Y0095135D01*
X0427553Y0099431D01*
X0423258Y0099431D01*
X0423368Y0098730D01*
X0423597Y0098027D01*
X0423933Y0097367D01*
X0424368Y0096769D01*
X0424891Y0096246D01*
X0425489Y0095811D01*
X0426149Y0095475D01*
X0426852Y0095246D01*
X0427553Y0095329D02*
X0428353Y0095329D01*
X0428353Y0095135D02*
X0429053Y0095246D01*
X0429757Y0095475D01*
X0430416Y0095811D01*
X0431015Y0096246D01*
X0431538Y0096769D01*
X0431973Y0097367D01*
X0432308Y0098027D01*
X0432537Y0098730D01*
X0432648Y0099431D01*
X0428353Y0099431D01*
X0428353Y0100231D01*
X0427553Y0100231D01*
X0427553Y0104526D01*
X0426852Y0104415D01*
X0426149Y0104186D01*
X0425489Y0103851D01*
X0424891Y0103416D01*
X0424368Y0102893D01*
X0423933Y0102294D01*
X0423597Y0101635D01*
X0423368Y0100931D01*
X0423258Y0100231D01*
X0427553Y0100231D01*
X0427553Y0099431D01*
X0428353Y0099431D01*
X0428353Y0095135D01*
X0429307Y0095329D02*
X0455772Y0095329D01*
X0455772Y0096127D02*
X0430852Y0096127D01*
X0431652Y0096926D02*
X0455772Y0096926D01*
X0455772Y0097724D02*
X0432154Y0097724D01*
X0432470Y0098523D02*
X0455772Y0098523D01*
X0455772Y0099321D02*
X0432631Y0099321D01*
X0432648Y0100231D02*
X0432537Y0100931D01*
X0432308Y0101635D01*
X0431973Y0102294D01*
X0431538Y0102893D01*
X0431015Y0103416D01*
X0430416Y0103851D01*
X0429757Y0104186D01*
X0429053Y0104415D01*
X0428353Y0104526D01*
X0428353Y0100231D01*
X0432648Y0100231D01*
X0432539Y0100918D02*
X0455772Y0100918D01*
X0455772Y0100120D02*
X0428353Y0100120D01*
X0428353Y0100918D02*
X0427553Y0100918D01*
X0427553Y0100120D02*
X0422453Y0100120D01*
X0422453Y0099321D02*
X0423275Y0099321D01*
X0423436Y0098523D02*
X0422282Y0098523D01*
X0421951Y0097724D02*
X0423751Y0097724D01*
X0424254Y0096926D02*
X0421412Y0096926D01*
X0420613Y0096127D02*
X0425054Y0096127D01*
X0427553Y0096127D02*
X0428353Y0096127D01*
X0428353Y0096926D02*
X0427553Y0096926D01*
X0427553Y0097724D02*
X0428353Y0097724D01*
X0428353Y0098523D02*
X0427553Y0098523D01*
X0427553Y0099321D02*
X0428353Y0099321D01*
X0428353Y0101717D02*
X0427553Y0101717D01*
X0427553Y0102515D02*
X0428353Y0102515D01*
X0428353Y0103314D02*
X0427553Y0103314D01*
X0427553Y0104112D02*
X0428353Y0104112D01*
X0429902Y0104112D02*
X0455772Y0104112D01*
X0455772Y0103314D02*
X0431116Y0103314D01*
X0431812Y0102515D02*
X0455772Y0102515D01*
X0455772Y0101717D02*
X0432267Y0101717D01*
X0426003Y0104112D02*
X0419375Y0104112D01*
X0420834Y0103314D02*
X0424789Y0103314D01*
X0424094Y0102515D02*
X0421632Y0102515D01*
X0422042Y0101717D02*
X0423639Y0101717D01*
X0423366Y0100918D02*
X0422373Y0100918D01*
X0413954Y0097724D02*
X0357351Y0097724D01*
X0357667Y0098523D02*
X0413624Y0098523D01*
X0413453Y0099321D02*
X0357827Y0099321D01*
X0356849Y0096926D02*
X0414494Y0096926D01*
X0415292Y0096127D02*
X0356048Y0096127D01*
X0351796Y0095329D02*
X0300906Y0095329D01*
X0301705Y0094530D02*
X0455772Y0094530D01*
X0455772Y0093732D02*
X0302503Y0093732D01*
X0303302Y0092933D02*
X0455772Y0092933D01*
X0455772Y0092135D02*
X0304100Y0092135D01*
X0304899Y0091336D02*
X0455772Y0091336D01*
X0455772Y0090538D02*
X0305697Y0090538D01*
X0306496Y0089739D02*
X0455772Y0089739D01*
X0455772Y0088941D02*
X0307294Y0088941D01*
X0308093Y0088142D02*
X0455772Y0088142D01*
X0455772Y0087344D02*
X0308891Y0087344D01*
X0309690Y0086545D02*
X0455772Y0086545D01*
X0455772Y0085747D02*
X0310488Y0085747D01*
X0311287Y0084948D02*
X0455772Y0084948D01*
X0455772Y0084150D02*
X0312086Y0084150D01*
X0312884Y0083351D02*
X0384267Y0083351D01*
X0382533Y0082553D02*
X0313683Y0082553D01*
X0314481Y0081754D02*
X0381735Y0081754D01*
X0380936Y0080956D02*
X0315280Y0080956D01*
X0316078Y0080157D02*
X0380515Y0080157D01*
X0380185Y0079359D02*
X0316877Y0079359D01*
X0317675Y0078560D02*
X0379854Y0078560D01*
X0379761Y0077762D02*
X0318474Y0077762D01*
X0319272Y0076963D02*
X0379761Y0076963D01*
X0379761Y0076165D02*
X0320071Y0076165D01*
X0320869Y0075366D02*
X0379884Y0075366D01*
X0380215Y0074568D02*
X0321668Y0074568D01*
X0322466Y0073769D02*
X0380546Y0073769D01*
X0381010Y0072970D02*
X0378265Y0072970D01*
X0381459Y0069776D02*
X0455772Y0069776D01*
X0455772Y0068978D02*
X0382257Y0068978D01*
X0383854Y0067381D02*
X0429480Y0067381D01*
X0428488Y0066582D02*
X0384653Y0066582D01*
X0385451Y0065784D02*
X0427792Y0065784D01*
X0427289Y0064985D02*
X0386250Y0064985D01*
X0387048Y0064187D02*
X0426933Y0064187D01*
X0426700Y0063388D02*
X0387847Y0063388D01*
X0388645Y0062590D02*
X0426576Y0062590D01*
X0432553Y0060993D02*
X0433353Y0060993D01*
X0433353Y0061791D02*
X0455772Y0061791D01*
X0455772Y0060993D02*
X0439276Y0060993D01*
X0439096Y0060194D02*
X0455772Y0060194D01*
X0455772Y0059396D02*
X0438803Y0059396D01*
X0438381Y0058597D02*
X0455772Y0058597D01*
X0455772Y0057799D02*
X0437799Y0057799D01*
X0436955Y0057000D02*
X0455772Y0057000D01*
X0455772Y0056202D02*
X0435688Y0056202D01*
X0433353Y0056202D02*
X0432553Y0056202D01*
X0432553Y0057000D02*
X0433353Y0057000D01*
X0433353Y0057799D02*
X0432553Y0057799D01*
X0432553Y0058597D02*
X0433353Y0058597D01*
X0433353Y0059396D02*
X0432553Y0059396D01*
X0432553Y0060194D02*
X0433353Y0060194D01*
X0428106Y0057799D02*
X0410145Y0057799D01*
X0411717Y0057000D02*
X0428950Y0057000D01*
X0430217Y0056202D02*
X0412515Y0056202D01*
X0413252Y0055403D02*
X0455772Y0055403D01*
X0455772Y0054605D02*
X0413583Y0054605D01*
X0413914Y0053806D02*
X0455772Y0053806D01*
X0455772Y0053008D02*
X0414153Y0053008D01*
X0414153Y0052209D02*
X0455772Y0052209D01*
X0455772Y0051411D02*
X0414153Y0051411D01*
X0414090Y0050612D02*
X0420040Y0050612D01*
X0425865Y0050612D02*
X0455772Y0050612D01*
X0455772Y0049814D02*
X0427793Y0049814D01*
X0428767Y0049015D02*
X0455772Y0049015D01*
X0455772Y0048217D02*
X0444299Y0048217D01*
X0444198Y0048258D02*
X0446500Y0047305D01*
X0448262Y0045543D01*
X0449215Y0043242D01*
X0449215Y0040750D01*
X0448262Y0038449D01*
X0446500Y0036687D01*
X0444198Y0035734D01*
X0441707Y0035734D01*
X0439405Y0036687D01*
X0437644Y0038449D01*
X0436691Y0040750D01*
X0436691Y0043242D01*
X0437644Y0045543D01*
X0439405Y0047305D01*
X0441707Y0048258D01*
X0444198Y0048258D01*
X0446227Y0047418D02*
X0455772Y0047418D01*
X0455772Y0046620D02*
X0447185Y0046620D01*
X0447984Y0045821D02*
X0455772Y0045821D01*
X0455772Y0045023D02*
X0448477Y0045023D01*
X0448808Y0044224D02*
X0455772Y0044224D01*
X0455772Y0043426D02*
X0449139Y0043426D01*
X0449215Y0042627D02*
X0455772Y0042627D01*
X0455772Y0041829D02*
X0449215Y0041829D01*
X0449215Y0041030D02*
X0455772Y0041030D01*
X0455772Y0040232D02*
X0449000Y0040232D01*
X0448669Y0039433D02*
X0455772Y0039433D01*
X0455772Y0038634D02*
X0448338Y0038634D01*
X0447649Y0037836D02*
X0455772Y0037836D01*
X0455772Y0037037D02*
X0446850Y0037037D01*
X0445418Y0036239D02*
X0455772Y0036239D01*
X0455772Y0035440D02*
X0429231Y0035440D01*
X0428432Y0034642D02*
X0455772Y0034642D01*
X0455772Y0033843D02*
X0426984Y0033843D01*
X0425056Y0033045D02*
X0455772Y0033045D01*
X0440488Y0036239D02*
X0430029Y0036239D01*
X0430721Y0037037D02*
X0439055Y0037037D01*
X0438257Y0037836D02*
X0431052Y0037836D01*
X0431383Y0038634D02*
X0437567Y0038634D01*
X0437236Y0039433D02*
X0431714Y0039433D01*
X0432028Y0040232D02*
X0436905Y0040232D01*
X0436691Y0041030D02*
X0432028Y0041030D01*
X0432028Y0041829D02*
X0436691Y0041829D01*
X0436691Y0042627D02*
X0432028Y0042627D01*
X0432028Y0043426D02*
X0436767Y0043426D01*
X0437097Y0044224D02*
X0431852Y0044224D01*
X0431522Y0045023D02*
X0437428Y0045023D01*
X0437922Y0045821D02*
X0431191Y0045821D01*
X0430860Y0046620D02*
X0438720Y0046620D01*
X0439679Y0047418D02*
X0430364Y0047418D01*
X0429566Y0048217D02*
X0441607Y0048217D01*
X0439330Y0062590D02*
X0455772Y0062590D01*
X0455772Y0063388D02*
X0439205Y0063388D01*
X0438973Y0064187D02*
X0455772Y0064187D01*
X0455772Y0064985D02*
X0438617Y0064985D01*
X0438113Y0065784D02*
X0455772Y0065784D01*
X0455772Y0066582D02*
X0437417Y0066582D01*
X0436426Y0067381D02*
X0455772Y0067381D01*
X0455772Y0068179D02*
X0434604Y0068179D01*
X0455772Y0070575D02*
X0388500Y0070575D01*
X0390338Y0071373D02*
X0455772Y0071373D01*
X0455772Y0072172D02*
X0391136Y0072172D01*
X0391935Y0072970D02*
X0455772Y0072970D01*
X0455772Y0073769D02*
X0392399Y0073769D01*
X0392730Y0074568D02*
X0455772Y0074568D01*
X0455772Y0075366D02*
X0393060Y0075366D01*
X0393184Y0076165D02*
X0455772Y0076165D01*
X0455772Y0076963D02*
X0393184Y0076963D01*
X0393184Y0077762D02*
X0455772Y0077762D01*
X0455772Y0078560D02*
X0393091Y0078560D01*
X0392760Y0079359D02*
X0455772Y0079359D01*
X0455772Y0080157D02*
X0392430Y0080157D01*
X0392009Y0080956D02*
X0455772Y0080956D01*
X0455772Y0081754D02*
X0391210Y0081754D01*
X0390412Y0082553D02*
X0455772Y0082553D01*
X0455772Y0083351D02*
X0388678Y0083351D01*
X0360518Y0068179D02*
X0359718Y0068179D01*
X0359718Y0067381D02*
X0360518Y0067381D01*
X0360518Y0066582D02*
X0359718Y0066582D01*
X0359718Y0065784D02*
X0360518Y0065784D01*
X0360518Y0064985D02*
X0359718Y0064985D01*
X0359718Y0064187D02*
X0360518Y0064187D01*
X0360518Y0063388D02*
X0359718Y0063388D01*
X0359718Y0062590D02*
X0360518Y0062590D01*
X0335118Y0051996D02*
X0320476Y0051996D01*
X0320472Y0052000D01*
X0276972Y0008500D01*
X0119972Y0008500D01*
X0117919Y0008291D02*
X0114722Y0008291D01*
X0102372Y0010687D02*
X0101665Y0010687D01*
X0101722Y0009888D02*
X0102098Y0009888D01*
X0102225Y0011485D02*
X0101334Y0011485D01*
X0101426Y0012284D02*
X0100578Y0012284D01*
X0100628Y0013082D02*
X0098153Y0013082D01*
X0097355Y0013881D02*
X0099829Y0013881D01*
X0099031Y0014679D02*
X0096556Y0014679D01*
X0095757Y0015478D02*
X0098232Y0015478D01*
X0097434Y0016276D02*
X0094959Y0016276D01*
X0094160Y0017075D02*
X0096635Y0017075D01*
X0095836Y0017873D02*
X0093362Y0017873D01*
X0092563Y0018672D02*
X0095038Y0018672D01*
X0094239Y0019470D02*
X0091765Y0019470D01*
X0090966Y0020269D02*
X0093441Y0020269D01*
X0092642Y0021067D02*
X0090168Y0021067D01*
X0089472Y0019500D02*
X0056472Y0019500D01*
X0059531Y0022664D02*
X0091045Y0022664D01*
X0091844Y0021866D02*
X0060255Y0021866D01*
X0051472Y0014500D02*
X0046472Y0019500D01*
X0051959Y0016276D02*
X0053474Y0016276D01*
X0051472Y0014500D02*
X0081472Y0014500D01*
X0085472Y0010500D01*
X0089472Y0019500D02*
X0098972Y0010000D01*
X0101832Y0005097D02*
X0451368Y0005097D01*
X0454703Y0007493D02*
X0278228Y0007493D01*
X0279026Y0008291D02*
X0455038Y0008291D01*
X0455369Y0009090D02*
X0279825Y0009090D01*
X0280623Y0009888D02*
X0455663Y0009888D01*
X0455742Y0010687D02*
X0281422Y0010687D01*
X0282220Y0011485D02*
X0455772Y0011485D01*
X0455772Y0012284D02*
X0283019Y0012284D01*
X0283817Y0013082D02*
X0455772Y0013082D01*
X0455772Y0013881D02*
X0284616Y0013881D01*
X0285414Y0014679D02*
X0455772Y0014679D01*
X0455772Y0015478D02*
X0286213Y0015478D01*
X0287011Y0016276D02*
X0455772Y0016276D01*
X0455772Y0017075D02*
X0287810Y0017075D01*
X0288608Y0017873D02*
X0455772Y0017873D01*
X0455772Y0018672D02*
X0289407Y0018672D01*
X0290205Y0019470D02*
X0455772Y0019470D01*
X0455772Y0020269D02*
X0291004Y0020269D01*
X0291802Y0021067D02*
X0455772Y0021067D01*
X0342287Y0023463D02*
X0294198Y0023463D01*
X0294996Y0024261D02*
X0341489Y0024261D01*
X0341049Y0025060D02*
X0295795Y0025060D01*
X0296593Y0025858D02*
X0340719Y0025858D01*
X0340618Y0026657D02*
X0297392Y0026657D01*
X0298191Y0027455D02*
X0340618Y0027455D01*
X0340768Y0028254D02*
X0298989Y0028254D01*
X0299788Y0029052D02*
X0341099Y0029052D01*
X0341609Y0029851D02*
X0300586Y0029851D01*
X0301385Y0030649D02*
X0342407Y0030649D01*
X0327653Y0036239D02*
X0306974Y0036239D01*
X0307773Y0037037D02*
X0326221Y0037037D01*
X0325422Y0037836D02*
X0308571Y0037836D01*
X0309370Y0038634D02*
X0324732Y0038634D01*
X0324402Y0039433D02*
X0310168Y0039433D01*
X0310967Y0040232D02*
X0324071Y0040232D01*
X0323856Y0041030D02*
X0311765Y0041030D01*
X0312564Y0041829D02*
X0323856Y0041829D01*
X0323856Y0042627D02*
X0313362Y0042627D01*
X0314161Y0043426D02*
X0323932Y0043426D01*
X0324263Y0044224D02*
X0314959Y0044224D01*
X0315758Y0045023D02*
X0324594Y0045023D01*
X0325087Y0045821D02*
X0316556Y0045821D01*
X0317355Y0046620D02*
X0325886Y0046620D01*
X0326844Y0047418D02*
X0318153Y0047418D01*
X0318952Y0048217D02*
X0328772Y0048217D01*
X0329642Y0049015D02*
X0319750Y0049015D01*
X0320549Y0049814D02*
X0329311Y0049814D01*
X0314426Y0048217D02*
X0298630Y0048217D01*
X0300557Y0047418D02*
X0313628Y0047418D01*
X0312829Y0046620D02*
X0301516Y0046620D01*
X0302315Y0045821D02*
X0312031Y0045821D01*
X0311232Y0045023D02*
X0302808Y0045023D01*
X0303139Y0044224D02*
X0310434Y0044224D01*
X0309635Y0043426D02*
X0303470Y0043426D01*
X0303546Y0042627D02*
X0308837Y0042627D01*
X0308038Y0041829D02*
X0303546Y0041829D01*
X0303546Y0041030D02*
X0307240Y0041030D01*
X0306441Y0040232D02*
X0303331Y0040232D01*
X0303000Y0039433D02*
X0305643Y0039433D01*
X0304844Y0038634D02*
X0302669Y0038634D01*
X0301979Y0037836D02*
X0304046Y0037836D01*
X0303247Y0037037D02*
X0301181Y0037037D01*
X0302449Y0036239D02*
X0299749Y0036239D01*
X0292068Y0025858D02*
X0286856Y0025858D01*
X0286572Y0025060D02*
X0291270Y0025060D01*
X0290471Y0024261D02*
X0286106Y0024261D01*
X0285397Y0023463D02*
X0289672Y0023463D01*
X0288874Y0022664D02*
X0284134Y0022664D01*
X0282683Y0022664D02*
X0281883Y0022664D01*
X0281883Y0023463D02*
X0282683Y0023463D01*
X0282683Y0024261D02*
X0281883Y0024261D01*
X0281883Y0025060D02*
X0282683Y0025060D01*
X0282683Y0025858D02*
X0281883Y0025858D01*
X0279170Y0023463D02*
X0275114Y0023463D01*
X0275913Y0024261D02*
X0278461Y0024261D01*
X0277995Y0025060D02*
X0276352Y0025060D01*
X0276683Y0025858D02*
X0277711Y0025858D01*
X0280432Y0022664D02*
X0273585Y0022664D01*
X0270982Y0022664D02*
X0247399Y0022664D01*
X0246601Y0021866D02*
X0288075Y0021866D01*
X0287277Y0021067D02*
X0245802Y0021067D01*
X0245004Y0020269D02*
X0286478Y0020269D01*
X0285680Y0019470D02*
X0244205Y0019470D01*
X0243407Y0018672D02*
X0284881Y0018672D01*
X0284083Y0017873D02*
X0242608Y0017873D01*
X0241810Y0017075D02*
X0283284Y0017075D01*
X0282486Y0016276D02*
X0241011Y0016276D01*
X0240213Y0015478D02*
X0281687Y0015478D01*
X0280889Y0014679D02*
X0239414Y0014679D01*
X0238616Y0013881D02*
X0280090Y0013881D01*
X0279292Y0013082D02*
X0237817Y0013082D01*
X0237019Y0012284D02*
X0278493Y0012284D01*
X0277695Y0011485D02*
X0236220Y0011485D01*
X0235422Y0010687D02*
X0276896Y0010687D01*
X0242874Y0022664D02*
X0211300Y0022664D01*
X0211253Y0022640D02*
X0211912Y0022976D01*
X0212511Y0023411D01*
X0213034Y0023934D01*
X0213469Y0024533D01*
X0213804Y0025192D01*
X0214033Y0025895D01*
X0214144Y0026596D01*
X0209849Y0026596D01*
X0209849Y0027396D01*
X0214144Y0027396D01*
X0214033Y0028097D01*
X0213804Y0028800D01*
X0213469Y0029459D01*
X0213034Y0030058D01*
X0212511Y0030581D01*
X0211912Y0031016D01*
X0211253Y0031352D01*
X0210549Y0031580D01*
X0209849Y0031691D01*
X0209849Y0027396D01*
X0209049Y0027396D01*
X0209049Y0031691D01*
X0208348Y0031580D01*
X0207645Y0031352D01*
X0206985Y0031016D01*
X0206387Y0030581D01*
X0205864Y0030058D01*
X0205429Y0029459D01*
X0205093Y0028800D01*
X0204865Y0028097D01*
X0204754Y0027396D01*
X0209049Y0027396D01*
X0209049Y0026596D01*
X0209849Y0026596D01*
X0209849Y0022301D01*
X0210549Y0022412D01*
X0211253Y0022640D01*
X0209849Y0022664D02*
X0209049Y0022664D01*
X0209049Y0022301D02*
X0209049Y0026596D01*
X0204754Y0026596D01*
X0204865Y0025895D01*
X0205093Y0025192D01*
X0205429Y0024533D01*
X0205864Y0023934D01*
X0206387Y0023411D01*
X0206985Y0022976D01*
X0207645Y0022640D01*
X0208348Y0022412D01*
X0209049Y0022301D01*
X0209049Y0023463D02*
X0209849Y0023463D01*
X0209849Y0024261D02*
X0209049Y0024261D01*
X0209049Y0025060D02*
X0209849Y0025060D01*
X0209849Y0025858D02*
X0209049Y0025858D01*
X0209049Y0026657D02*
X0203949Y0026657D01*
X0203949Y0027455D02*
X0204763Y0027455D01*
X0204916Y0028254D02*
X0203799Y0028254D01*
X0203468Y0029052D02*
X0205222Y0029052D01*
X0205713Y0029851D02*
X0202958Y0029851D01*
X0202159Y0030649D02*
X0206481Y0030649D01*
X0207941Y0031448D02*
X0200460Y0031448D01*
X0198437Y0031448D02*
X0157806Y0031448D01*
X0158137Y0032246D02*
X0245872Y0032246D01*
X0245872Y0031448D02*
X0210957Y0031448D01*
X0209849Y0031448D02*
X0209049Y0031448D01*
X0209049Y0030649D02*
X0209849Y0030649D01*
X0209849Y0029851D02*
X0209049Y0029851D01*
X0209049Y0029052D02*
X0209849Y0029052D01*
X0209849Y0028254D02*
X0209049Y0028254D01*
X0209049Y0027455D02*
X0209849Y0027455D01*
X0209849Y0026657D02*
X0245872Y0026657D01*
X0245872Y0027455D02*
X0214135Y0027455D01*
X0213982Y0028254D02*
X0245872Y0028254D01*
X0245872Y0029052D02*
X0213676Y0029052D01*
X0213184Y0029851D02*
X0245872Y0029851D01*
X0245872Y0030649D02*
X0212417Y0030649D01*
X0208480Y0033843D02*
X0245872Y0033843D01*
X0245872Y0033045D02*
X0206552Y0033045D01*
X0209928Y0034642D02*
X0245872Y0034642D01*
X0245872Y0035440D02*
X0210727Y0035440D01*
X0211525Y0036239D02*
X0221984Y0036239D01*
X0220902Y0036687D02*
X0223203Y0035734D01*
X0225694Y0035734D01*
X0227996Y0036687D01*
X0229758Y0038449D01*
X0230711Y0040750D01*
X0230711Y0043242D01*
X0229758Y0045543D01*
X0227996Y0047305D01*
X0225694Y0048258D01*
X0223203Y0048258D01*
X0220902Y0047305D01*
X0219140Y0045543D01*
X0218187Y0043242D01*
X0218187Y0040750D01*
X0219140Y0038449D01*
X0220902Y0036687D01*
X0220551Y0037037D02*
X0212217Y0037037D01*
X0212548Y0037836D02*
X0219753Y0037836D01*
X0219063Y0038634D02*
X0212879Y0038634D01*
X0213210Y0039433D02*
X0218732Y0039433D01*
X0218402Y0040232D02*
X0213524Y0040232D01*
X0213524Y0041030D02*
X0218187Y0041030D01*
X0218187Y0041829D02*
X0213524Y0041829D01*
X0213524Y0042627D02*
X0218187Y0042627D01*
X0218263Y0043426D02*
X0213524Y0043426D01*
X0213348Y0044224D02*
X0218594Y0044224D01*
X0218924Y0045023D02*
X0213018Y0045023D01*
X0212687Y0045821D02*
X0219418Y0045821D01*
X0220216Y0046620D02*
X0212356Y0046620D01*
X0211860Y0047418D02*
X0221175Y0047418D01*
X0223103Y0048217D02*
X0211062Y0048217D01*
X0210263Y0049015D02*
X0245872Y0049015D01*
X0245872Y0048217D02*
X0225795Y0048217D01*
X0227723Y0047418D02*
X0245872Y0047418D01*
X0245872Y0046620D02*
X0228681Y0046620D01*
X0229480Y0045821D02*
X0245872Y0045821D01*
X0245872Y0045023D02*
X0229973Y0045023D01*
X0230304Y0044224D02*
X0245872Y0044224D01*
X0245872Y0043426D02*
X0230635Y0043426D01*
X0230711Y0042627D02*
X0245872Y0042627D01*
X0245872Y0041829D02*
X0230711Y0041829D01*
X0230711Y0041030D02*
X0245872Y0041030D01*
X0245872Y0040232D02*
X0230496Y0040232D01*
X0230165Y0039433D02*
X0245872Y0039433D01*
X0245872Y0038634D02*
X0229835Y0038634D01*
X0229145Y0037836D02*
X0245872Y0037836D01*
X0245872Y0037037D02*
X0228346Y0037037D01*
X0226914Y0036239D02*
X0245872Y0036239D01*
X0249072Y0036239D02*
X0254818Y0036239D01*
X0253386Y0037037D02*
X0249072Y0037037D01*
X0249072Y0037836D02*
X0252587Y0037836D01*
X0251898Y0038634D02*
X0249072Y0038634D01*
X0249072Y0039433D02*
X0251567Y0039433D01*
X0251236Y0040232D02*
X0249072Y0040232D01*
X0249072Y0041030D02*
X0251021Y0041030D01*
X0251021Y0041829D02*
X0249072Y0041829D01*
X0249072Y0042627D02*
X0251021Y0042627D01*
X0251097Y0043426D02*
X0249072Y0043426D01*
X0249072Y0044224D02*
X0251428Y0044224D01*
X0251759Y0045023D02*
X0249072Y0045023D01*
X0249072Y0045821D02*
X0252252Y0045821D01*
X0253051Y0046620D02*
X0249072Y0046620D01*
X0249072Y0047418D02*
X0254010Y0047418D01*
X0245872Y0049814D02*
X0209289Y0049814D01*
X0207361Y0050612D02*
X0245872Y0050612D01*
X0237418Y0061791D02*
X0214849Y0061791D01*
X0214849Y0060993D02*
X0214049Y0060993D01*
X0214049Y0061791D02*
X0181916Y0061791D01*
X0206721Y0064985D02*
X0208785Y0064985D01*
X0209288Y0065784D02*
X0207519Y0065784D01*
X0208318Y0066582D02*
X0209984Y0066582D01*
X0209116Y0067381D02*
X0210976Y0067381D01*
X0214049Y0060194D02*
X0214849Y0060194D01*
X0214849Y0059396D02*
X0214049Y0059396D01*
X0214049Y0058597D02*
X0214849Y0058597D01*
X0214849Y0057799D02*
X0214049Y0057799D01*
X0214049Y0057000D02*
X0214849Y0057000D01*
X0214849Y0056202D02*
X0214049Y0056202D01*
X0155472Y0036000D02*
X0132472Y0059000D01*
X0132472Y0061500D01*
X0135472Y0064500D01*
X0140153Y0066582D02*
X0140376Y0066582D01*
X0077381Y0041829D02*
X0061064Y0041829D01*
X0055474Y0036239D02*
X0077471Y0036239D01*
X0078269Y0035440D02*
X0054676Y0035440D01*
X0053877Y0034642D02*
X0079068Y0034642D01*
X0079866Y0033843D02*
X0053079Y0033843D01*
X0052280Y0033045D02*
X0080665Y0033045D01*
X0081463Y0032246D02*
X0051482Y0032246D01*
X0050683Y0031448D02*
X0082262Y0031448D01*
X0083060Y0030649D02*
X0049885Y0030649D01*
X0049086Y0029851D02*
X0083859Y0029851D01*
X0084657Y0029052D02*
X0048288Y0029052D01*
X0047489Y0028254D02*
X0085456Y0028254D01*
X0086254Y0027455D02*
X0046691Y0027455D01*
X0045892Y0026657D02*
X0087053Y0026657D01*
X0087851Y0025858D02*
X0045093Y0025858D01*
X0044295Y0025060D02*
X0088650Y0025060D01*
X0076672Y0037037D02*
X0073899Y0037037D01*
X0043832Y0013082D02*
X0039368Y0013082D01*
X0040136Y0012284D02*
X0043034Y0012284D01*
X0042532Y0011485D02*
X0040624Y0011485D01*
X0040924Y0010687D02*
X0042201Y0010687D01*
X0042072Y0009888D02*
X0036872Y0009888D01*
X0036872Y0009090D02*
X0036072Y0009090D01*
X0036072Y0009888D02*
X0030126Y0009888D01*
X0030228Y0010687D02*
X0032021Y0010687D01*
X0032321Y0011485D02*
X0030228Y0011485D01*
X0030228Y0012284D02*
X0032809Y0012284D01*
X0033577Y0013082D02*
X0030112Y0013082D01*
X0036072Y0013082D02*
X0036872Y0013082D01*
X0036872Y0012284D02*
X0036072Y0012284D01*
X0036072Y0011485D02*
X0036872Y0011485D01*
X0036872Y0010687D02*
X0036072Y0010687D01*
X0036072Y0008291D02*
X0036872Y0008291D01*
X0036872Y0007493D02*
X0036072Y0007493D01*
X0036072Y0006694D02*
X0036872Y0006694D01*
X0036872Y0005896D02*
X0036072Y0005896D01*
X0036072Y0005097D02*
X0036872Y0005097D01*
X0037807Y0005097D02*
X0058613Y0005097D01*
X0043854Y0005896D02*
X0039337Y0005896D01*
X0040120Y0006694D02*
X0043056Y0006694D01*
X0042541Y0007493D02*
X0040612Y0007493D01*
X0040916Y0008291D02*
X0042211Y0008291D01*
X0042072Y0009090D02*
X0041065Y0009090D01*
X0032825Y0006694D02*
X0028233Y0006694D01*
X0027435Y0005896D02*
X0033608Y0005896D01*
X0035137Y0005097D02*
X0025672Y0005097D01*
X0029032Y0007493D02*
X0032333Y0007493D01*
X0032029Y0008291D02*
X0029464Y0008291D01*
X0029795Y0009090D02*
X0031880Y0009090D01*
X0021359Y0005097D02*
X0021077Y0005097D01*
X0019597Y0005896D02*
X0019339Y0005896D01*
X0018798Y0006694D02*
X0018540Y0006694D01*
X0036072Y0013881D02*
X0036872Y0013881D01*
X0127481Y0013881D02*
X0234090Y0013881D01*
X0207598Y0022664D02*
X0200750Y0022664D01*
X0202280Y0023463D02*
X0206335Y0023463D01*
X0205626Y0024261D02*
X0203078Y0024261D01*
X0203518Y0025060D02*
X0205160Y0025060D01*
X0204877Y0025858D02*
X0203848Y0025858D01*
X0212562Y0023463D02*
X0243672Y0023463D01*
X0244471Y0024261D02*
X0213271Y0024261D01*
X0213737Y0025060D02*
X0245270Y0025060D01*
X0245872Y0025858D02*
X0214021Y0025858D01*
X0196738Y0030649D02*
X0156984Y0030649D01*
X0158222Y0033045D02*
X0202345Y0033045D01*
X0200417Y0033843D02*
X0158100Y0033843D01*
X0157720Y0034642D02*
X0198969Y0034642D01*
X0155472Y0036000D02*
X0155472Y0033000D01*
X0248198Y0023463D02*
X0269453Y0023463D01*
X0268654Y0024261D02*
X0248996Y0024261D01*
X0249072Y0025060D02*
X0268215Y0025060D01*
X0267884Y0025858D02*
X0249072Y0025858D01*
X0249072Y0026657D02*
X0267783Y0026657D01*
X0267783Y0027455D02*
X0249072Y0027455D01*
X0249072Y0028254D02*
X0267934Y0028254D01*
X0268264Y0029052D02*
X0249072Y0029052D01*
X0249072Y0029851D02*
X0268774Y0029851D01*
X0269573Y0030649D02*
X0249072Y0030649D01*
X0299972Y0094000D02*
X0321972Y0072000D01*
X0347570Y0100918D02*
X0348563Y0100918D01*
X0348836Y0101717D02*
X0347239Y0101717D01*
X0346829Y0102515D02*
X0349291Y0102515D01*
X0349986Y0103314D02*
X0346030Y0103314D01*
X0344572Y0104112D02*
X0351200Y0104112D01*
X0351770Y0106508D02*
X0419332Y0106508D01*
X0417812Y0107137D02*
X0421148Y0105756D01*
X0424758Y0105756D01*
X0428093Y0107137D01*
X0430646Y0109690D01*
X0432028Y0113026D01*
X0432028Y0116636D01*
X0430646Y0119971D01*
X0428093Y0122524D01*
X0424758Y0123905D01*
X0421148Y0123905D01*
X0417812Y0122524D01*
X0415260Y0119971D01*
X0413878Y0116636D01*
X0413878Y0113026D01*
X0415260Y0109690D01*
X0417812Y0107137D01*
X0417643Y0107306D02*
X0353459Y0107306D01*
X0354258Y0108105D02*
X0416845Y0108105D01*
X0416046Y0108903D02*
X0405007Y0108903D01*
X0406680Y0109702D02*
X0415255Y0109702D01*
X0414924Y0110501D02*
X0407479Y0110501D01*
X0408268Y0111299D02*
X0414593Y0111299D01*
X0414262Y0112098D02*
X0408599Y0112098D01*
X0408930Y0112896D02*
X0413932Y0112896D01*
X0413878Y0113695D02*
X0409215Y0113695D01*
X0409215Y0114493D02*
X0413878Y0114493D01*
X0413878Y0115292D02*
X0409215Y0115292D01*
X0409209Y0116090D02*
X0413878Y0116090D01*
X0413983Y0116889D02*
X0408879Y0116889D01*
X0408548Y0117687D02*
X0414313Y0117687D01*
X0414644Y0118486D02*
X0408154Y0118486D01*
X0410764Y0119284D02*
X0414975Y0119284D01*
X0415371Y0120083D02*
X0411973Y0120083D01*
X0412771Y0120881D02*
X0416170Y0120881D01*
X0416968Y0121680D02*
X0413358Y0121680D01*
X0413689Y0122478D02*
X0417767Y0122478D01*
X0419630Y0123277D02*
X0414020Y0123277D01*
X0414153Y0124075D02*
X0455772Y0124075D01*
X0455772Y0123277D02*
X0426276Y0123277D01*
X0428139Y0122478D02*
X0455772Y0122478D01*
X0455772Y0121680D02*
X0428937Y0121680D01*
X0429736Y0120881D02*
X0441196Y0120881D01*
X0441707Y0121093D02*
X0439405Y0120140D01*
X0437644Y0118378D01*
X0436691Y0116076D01*
X0436691Y0113585D01*
X0437644Y0111283D01*
X0439405Y0109522D01*
X0441707Y0108569D01*
X0444198Y0108569D01*
X0446500Y0109522D01*
X0448262Y0111283D01*
X0449215Y0113585D01*
X0449215Y0116076D01*
X0448262Y0118378D01*
X0446500Y0120140D01*
X0444198Y0121093D01*
X0441707Y0121093D01*
X0439349Y0120083D02*
X0430534Y0120083D01*
X0430931Y0119284D02*
X0438550Y0119284D01*
X0437752Y0118486D02*
X0431261Y0118486D01*
X0431592Y0117687D02*
X0437358Y0117687D01*
X0437027Y0116889D02*
X0431923Y0116889D01*
X0432028Y0116090D02*
X0436696Y0116090D01*
X0436691Y0115292D02*
X0432028Y0115292D01*
X0432028Y0114493D02*
X0436691Y0114493D01*
X0436691Y0113695D02*
X0432028Y0113695D01*
X0431974Y0112896D02*
X0436976Y0112896D01*
X0437307Y0112098D02*
X0431643Y0112098D01*
X0431312Y0111299D02*
X0437637Y0111299D01*
X0438427Y0110501D02*
X0430982Y0110501D01*
X0430651Y0109702D02*
X0439225Y0109702D01*
X0440898Y0108903D02*
X0429859Y0108903D01*
X0429061Y0108105D02*
X0455772Y0108105D01*
X0455772Y0108903D02*
X0445007Y0108903D01*
X0446680Y0109702D02*
X0455772Y0109702D01*
X0455772Y0110501D02*
X0447479Y0110501D01*
X0448268Y0111299D02*
X0455772Y0111299D01*
X0455772Y0112098D02*
X0448599Y0112098D01*
X0448930Y0112896D02*
X0455772Y0112896D01*
X0455772Y0113695D02*
X0449215Y0113695D01*
X0449215Y0114493D02*
X0455772Y0114493D01*
X0455772Y0115292D02*
X0449215Y0115292D01*
X0449209Y0116090D02*
X0455772Y0116090D01*
X0455772Y0116889D02*
X0448879Y0116889D01*
X0448548Y0117687D02*
X0455772Y0117687D01*
X0455772Y0118486D02*
X0448154Y0118486D01*
X0447355Y0119284D02*
X0455772Y0119284D01*
X0455772Y0120083D02*
X0446557Y0120083D01*
X0444710Y0120881D02*
X0455772Y0120881D01*
X0455772Y0124874D02*
X0414153Y0124874D01*
X0414153Y0125672D02*
X0455772Y0125672D01*
X0455772Y0126471D02*
X0413984Y0126471D01*
X0413653Y0127269D02*
X0455772Y0127269D01*
X0455772Y0129665D02*
X0436734Y0129665D01*
X0437636Y0130463D02*
X0455772Y0130463D01*
X0455772Y0131262D02*
X0438281Y0131262D01*
X0438733Y0132060D02*
X0455772Y0132060D01*
X0455772Y0132859D02*
X0439050Y0132859D01*
X0439253Y0133657D02*
X0455772Y0133657D01*
X0455772Y0142441D02*
X0317802Y0142441D01*
X0317004Y0143239D02*
X0455772Y0143239D01*
X0455772Y0144038D02*
X0316205Y0144038D01*
X0315407Y0144837D02*
X0455772Y0144837D01*
X0455759Y0145635D02*
X0171572Y0145635D01*
X0171572Y0144837D02*
X0191046Y0144837D01*
X0190248Y0144038D02*
X0171572Y0144038D01*
X0171572Y0143239D02*
X0189449Y0143239D01*
X0188651Y0142441D02*
X0171572Y0142441D01*
X0171572Y0141642D02*
X0187852Y0141642D01*
X0187054Y0140844D02*
X0171572Y0140844D01*
X0171572Y0140045D02*
X0186255Y0140045D01*
X0185457Y0139247D02*
X0171572Y0139247D01*
X0171572Y0138448D02*
X0184658Y0138448D01*
X0183860Y0137650D02*
X0171572Y0137650D01*
X0171572Y0136851D02*
X0183061Y0136851D01*
X0182263Y0136053D02*
X0173995Y0136053D01*
X0175107Y0135254D02*
X0181464Y0135254D01*
X0181972Y0133500D02*
X0172972Y0133500D01*
X0171950Y0136053D02*
X0171572Y0136053D01*
X0181972Y0133500D02*
X0191972Y0143500D01*
X0314480Y0143500D01*
X0333150Y0124831D01*
X0327413Y0122478D02*
X0282470Y0122478D01*
X0283268Y0121680D02*
X0327744Y0121680D01*
X0326393Y0120881D02*
X0299040Y0120881D01*
X0298529Y0121093D02*
X0296038Y0121093D01*
X0293736Y0120140D01*
X0291975Y0118378D01*
X0291021Y0116076D01*
X0291021Y0113585D01*
X0291975Y0111283D01*
X0293736Y0109522D01*
X0296038Y0108569D01*
X0298529Y0108569D01*
X0300831Y0109522D01*
X0302592Y0111283D01*
X0303546Y0113585D01*
X0303546Y0116076D01*
X0302592Y0118378D01*
X0300831Y0120140D01*
X0298529Y0121093D01*
X0300888Y0120083D02*
X0324545Y0120083D01*
X0323747Y0119284D02*
X0301686Y0119284D01*
X0302485Y0118486D02*
X0322948Y0118486D01*
X0322555Y0117687D02*
X0302878Y0117687D01*
X0303209Y0116889D02*
X0322224Y0116889D01*
X0321893Y0116090D02*
X0303540Y0116090D01*
X0303546Y0115292D02*
X0321887Y0115292D01*
X0321887Y0114493D02*
X0303546Y0114493D01*
X0303546Y0113695D02*
X0321887Y0113695D01*
X0322173Y0112896D02*
X0303260Y0112896D01*
X0302930Y0112098D02*
X0322504Y0112098D01*
X0322834Y0111299D02*
X0302599Y0111299D01*
X0301809Y0110501D02*
X0323624Y0110501D01*
X0324422Y0109702D02*
X0301011Y0109702D01*
X0299338Y0108903D02*
X0326095Y0108903D01*
X0355056Y0108903D02*
X0366095Y0108903D01*
X0366904Y0108569D02*
X0364602Y0109522D01*
X0362841Y0111283D01*
X0361887Y0113585D01*
X0361887Y0116076D01*
X0362841Y0118378D01*
X0364602Y0120140D01*
X0366904Y0121093D01*
X0369395Y0121093D01*
X0371697Y0120140D01*
X0373458Y0118378D01*
X0374412Y0116076D01*
X0374412Y0113585D01*
X0373458Y0111283D01*
X0371697Y0109522D01*
X0369395Y0108569D01*
X0366904Y0108569D01*
X0364422Y0109702D02*
X0355848Y0109702D01*
X0356178Y0110501D02*
X0363624Y0110501D01*
X0362834Y0111299D02*
X0356509Y0111299D01*
X0356840Y0112098D02*
X0362504Y0112098D01*
X0362173Y0112896D02*
X0357171Y0112896D01*
X0357224Y0113695D02*
X0361887Y0113695D01*
X0361887Y0114493D02*
X0357224Y0114493D01*
X0357224Y0115292D02*
X0361887Y0115292D01*
X0361893Y0116090D02*
X0357224Y0116090D01*
X0357120Y0116889D02*
X0362224Y0116889D01*
X0362555Y0117687D02*
X0356789Y0117687D01*
X0356458Y0118486D02*
X0362948Y0118486D01*
X0363747Y0119284D02*
X0356127Y0119284D01*
X0355731Y0120083D02*
X0364545Y0120083D01*
X0366393Y0120881D02*
X0354933Y0120881D01*
X0354134Y0121680D02*
X0402547Y0121680D01*
X0402216Y0122478D02*
X0353336Y0122478D01*
X0351473Y0123277D02*
X0401886Y0123277D01*
X0401196Y0120881D02*
X0369906Y0120881D01*
X0371754Y0120083D02*
X0399349Y0120083D01*
X0398550Y0119284D02*
X0372552Y0119284D01*
X0373351Y0118486D02*
X0397752Y0118486D01*
X0397358Y0117687D02*
X0373745Y0117687D01*
X0374075Y0116889D02*
X0397027Y0116889D01*
X0396696Y0116090D02*
X0374406Y0116090D01*
X0374412Y0115292D02*
X0396691Y0115292D01*
X0396691Y0114493D02*
X0374412Y0114493D01*
X0374412Y0113695D02*
X0396691Y0113695D01*
X0396976Y0112896D02*
X0374126Y0112896D01*
X0373796Y0112098D02*
X0397307Y0112098D01*
X0397637Y0111299D02*
X0373465Y0111299D01*
X0372676Y0110501D02*
X0398427Y0110501D01*
X0399225Y0109702D02*
X0371877Y0109702D01*
X0370204Y0108903D02*
X0400898Y0108903D01*
X0426573Y0106508D02*
X0455772Y0106508D01*
X0455772Y0107306D02*
X0428262Y0107306D01*
X0404019Y0129665D02*
X0361930Y0129665D01*
X0362833Y0130463D02*
X0405350Y0130463D01*
X0403220Y0128866D02*
X0360474Y0128866D01*
X0358550Y0128866D02*
X0357750Y0128866D01*
X0357750Y0129665D02*
X0358550Y0129665D01*
X0358550Y0130463D02*
X0357750Y0130463D01*
X0357750Y0131262D02*
X0358550Y0131262D01*
X0358550Y0132060D02*
X0357750Y0132060D01*
X0357750Y0132859D02*
X0358550Y0132859D01*
X0358550Y0133657D02*
X0357750Y0133657D01*
X0357750Y0134456D02*
X0325787Y0134456D01*
X0329780Y0130463D02*
X0330547Y0130463D01*
X0327082Y0123277D02*
X0280607Y0123277D01*
X0284067Y0120881D02*
X0295527Y0120881D01*
X0293679Y0120083D02*
X0284865Y0120083D01*
X0285261Y0119284D02*
X0292881Y0119284D01*
X0292082Y0118486D02*
X0285592Y0118486D01*
X0285923Y0117687D02*
X0291688Y0117687D01*
X0291358Y0116889D02*
X0286254Y0116889D01*
X0286358Y0116090D02*
X0291027Y0116090D01*
X0291021Y0115292D02*
X0286358Y0115292D01*
X0286358Y0114493D02*
X0291021Y0114493D01*
X0291021Y0113695D02*
X0286358Y0113695D01*
X0286305Y0112896D02*
X0291307Y0112896D01*
X0291637Y0112098D02*
X0285974Y0112098D01*
X0285643Y0111299D02*
X0291968Y0111299D01*
X0292758Y0110501D02*
X0285312Y0110501D01*
X0284982Y0109702D02*
X0293556Y0109702D01*
X0295229Y0108903D02*
X0284190Y0108903D01*
X0251986Y0123277D02*
X0207772Y0123277D01*
X0209635Y0122478D02*
X0251188Y0122478D01*
X0254382Y0125672D02*
X0195649Y0125672D01*
X0195480Y0126471D02*
X0256252Y0126471D01*
X0256583Y0127269D02*
X0195150Y0127269D01*
X0194819Y0128068D02*
X0256913Y0128068D01*
X0257551Y0128866D02*
X0216773Y0128866D01*
X0218230Y0129665D02*
X0258349Y0129665D01*
X0259680Y0130463D02*
X0219132Y0130463D01*
X0214849Y0130463D02*
X0214049Y0130463D01*
X0214049Y0129665D02*
X0214849Y0129665D01*
X0214849Y0128866D02*
X0214049Y0128866D01*
X0212124Y0128866D02*
X0194181Y0128866D01*
X0193383Y0129665D02*
X0210668Y0129665D01*
X0209765Y0130463D02*
X0192052Y0130463D01*
X0186846Y0130463D02*
X0171572Y0130463D01*
X0171572Y0129665D02*
X0185515Y0129665D01*
X0184716Y0128866D02*
X0171572Y0128866D01*
X0171572Y0128068D02*
X0184079Y0128068D01*
X0183748Y0127269D02*
X0171572Y0127269D01*
X0171572Y0126471D02*
X0183417Y0126471D01*
X0174623Y0131262D02*
X0209120Y0131262D01*
X0208669Y0132060D02*
X0182795Y0132060D01*
X0183594Y0132859D02*
X0208351Y0132859D01*
X0208148Y0133657D02*
X0184393Y0133657D01*
X0214049Y0133657D02*
X0214849Y0133657D01*
X0214849Y0132859D02*
X0214049Y0132859D01*
X0214049Y0132060D02*
X0214849Y0132060D01*
X0214849Y0131262D02*
X0214049Y0131262D01*
X0214049Y0136053D02*
X0214849Y0136053D01*
X0214849Y0136851D02*
X0214049Y0136851D01*
X0214049Y0137650D02*
X0214849Y0137650D01*
X0214849Y0138448D02*
X0214049Y0138448D01*
X0214049Y0139247D02*
X0214849Y0139247D01*
X0214849Y0140045D02*
X0214049Y0140045D01*
X0214049Y0140844D02*
X0214849Y0140844D01*
X0172671Y0148829D02*
X0454782Y0148829D01*
X0455112Y0148031D02*
X0172340Y0148031D01*
X0171594Y0147232D02*
X0455443Y0147232D01*
X0455680Y0146434D02*
X0171572Y0146434D01*
X0172722Y0149628D02*
X0454083Y0149628D01*
X0453285Y0150426D02*
X0172565Y0150426D01*
X0172137Y0151225D02*
X0451798Y0151225D01*
M02*
