G75*
%MOIN*%
%OFA0B0*%
%FSLAX25Y25*%
%IPPOS*%
%LPD*%
%AMOC8*
5,1,8,0,0,1.08239X$1,22.5*
%
%ADD10R,0.05906X0.01969*%
%ADD11R,0.01969X0.05906*%
%ADD12R,0.02756X0.03543*%
%ADD13C,0.01772*%
%ADD14R,0.05512X0.01575*%
%ADD15R,0.07480X0.07874*%
%ADD16R,0.07480X0.08661*%
%ADD17R,0.02480X0.03268*%
%ADD18R,0.03150X0.03543*%
%ADD19R,0.03543X0.02756*%
%ADD20R,0.03150X0.03150*%
D10*
G36*
X0096382Y0032973D02*
X0092207Y0028798D01*
X0090816Y0030189D01*
X0094991Y0034364D01*
X0096382Y0032973D01*
G37*
G36*
X0094155Y0035200D02*
X0089980Y0031025D01*
X0088589Y0032416D01*
X0092764Y0036591D01*
X0094155Y0035200D01*
G37*
G36*
X0091928Y0037427D02*
X0087753Y0033252D01*
X0086362Y0034643D01*
X0090537Y0038818D01*
X0091928Y0037427D01*
G37*
G36*
X0089700Y0039654D02*
X0085525Y0035479D01*
X0084134Y0036870D01*
X0088309Y0041045D01*
X0089700Y0039654D01*
G37*
G36*
X0087473Y0041881D02*
X0083298Y0037706D01*
X0081907Y0039097D01*
X0086082Y0043272D01*
X0087473Y0041881D01*
G37*
G36*
X0098609Y0030745D02*
X0094434Y0026570D01*
X0093043Y0027961D01*
X0097218Y0032136D01*
X0098609Y0030745D01*
G37*
G36*
X0100836Y0028518D02*
X0096661Y0024343D01*
X0095270Y0025734D01*
X0099445Y0029909D01*
X0100836Y0028518D01*
G37*
G36*
X0103063Y0026291D02*
X0098888Y0022116D01*
X0097497Y0023507D01*
X0101672Y0027682D01*
X0103063Y0026291D01*
G37*
G36*
X0105290Y0024064D02*
X0101115Y0019889D01*
X0099724Y0021280D01*
X0103899Y0025455D01*
X0105290Y0024064D01*
G37*
G36*
X0107517Y0021837D02*
X0103342Y0017662D01*
X0101951Y0019053D01*
X0106126Y0023228D01*
X0107517Y0021837D01*
G37*
G36*
X0109744Y0019610D02*
X0105569Y0015435D01*
X0104178Y0016826D01*
X0108353Y0021001D01*
X0109744Y0019610D01*
G37*
G36*
X0142038Y0051903D02*
X0137863Y0047728D01*
X0136472Y0049119D01*
X0140647Y0053294D01*
X0142038Y0051903D01*
G37*
G36*
X0139810Y0054130D02*
X0135635Y0049955D01*
X0134244Y0051346D01*
X0138419Y0055521D01*
X0139810Y0054130D01*
G37*
G36*
X0137583Y0056357D02*
X0133408Y0052182D01*
X0132017Y0053573D01*
X0136192Y0057748D01*
X0137583Y0056357D01*
G37*
G36*
X0135356Y0058584D02*
X0131181Y0054409D01*
X0129790Y0055800D01*
X0133965Y0059975D01*
X0135356Y0058584D01*
G37*
G36*
X0133129Y0060811D02*
X0128954Y0056636D01*
X0127563Y0058027D01*
X0131738Y0062202D01*
X0133129Y0060811D01*
G37*
G36*
X0130902Y0063039D02*
X0126727Y0058864D01*
X0125336Y0060255D01*
X0129511Y0064430D01*
X0130902Y0063039D01*
G37*
G36*
X0128675Y0065266D02*
X0124500Y0061091D01*
X0123109Y0062482D01*
X0127284Y0066657D01*
X0128675Y0065266D01*
G37*
G36*
X0126448Y0067493D02*
X0122273Y0063318D01*
X0120882Y0064709D01*
X0125057Y0068884D01*
X0126448Y0067493D01*
G37*
G36*
X0124221Y0069720D02*
X0120046Y0065545D01*
X0118655Y0066936D01*
X0122830Y0071111D01*
X0124221Y0069720D01*
G37*
G36*
X0121994Y0071947D02*
X0117819Y0067772D01*
X0116428Y0069163D01*
X0120603Y0073338D01*
X0121994Y0071947D01*
G37*
G36*
X0119766Y0074174D02*
X0115591Y0069999D01*
X0114200Y0071390D01*
X0118375Y0075565D01*
X0119766Y0074174D01*
G37*
D11*
G36*
X0109744Y0071390D02*
X0108353Y0069999D01*
X0104178Y0074174D01*
X0105569Y0075565D01*
X0109744Y0071390D01*
G37*
G36*
X0107517Y0069163D02*
X0106126Y0067772D01*
X0101951Y0071947D01*
X0103342Y0073338D01*
X0107517Y0069163D01*
G37*
G36*
X0105290Y0066936D02*
X0103899Y0065545D01*
X0099724Y0069720D01*
X0101115Y0071111D01*
X0105290Y0066936D01*
G37*
G36*
X0103063Y0064709D02*
X0101672Y0063318D01*
X0097497Y0067493D01*
X0098888Y0068884D01*
X0103063Y0064709D01*
G37*
G36*
X0100836Y0062482D02*
X0099445Y0061091D01*
X0095270Y0065266D01*
X0096661Y0066657D01*
X0100836Y0062482D01*
G37*
G36*
X0098609Y0060255D02*
X0097218Y0058864D01*
X0093043Y0063039D01*
X0094434Y0064430D01*
X0098609Y0060255D01*
G37*
G36*
X0096382Y0058027D02*
X0094991Y0056636D01*
X0090816Y0060811D01*
X0092207Y0062202D01*
X0096382Y0058027D01*
G37*
G36*
X0094155Y0055800D02*
X0092764Y0054409D01*
X0088589Y0058584D01*
X0089980Y0059975D01*
X0094155Y0055800D01*
G37*
G36*
X0091928Y0053573D02*
X0090537Y0052182D01*
X0086362Y0056357D01*
X0087753Y0057748D01*
X0091928Y0053573D01*
G37*
G36*
X0089700Y0051346D02*
X0088309Y0049955D01*
X0084134Y0054130D01*
X0085525Y0055521D01*
X0089700Y0051346D01*
G37*
G36*
X0087473Y0049119D02*
X0086082Y0047728D01*
X0081907Y0051903D01*
X0083298Y0053294D01*
X0087473Y0049119D01*
G37*
G36*
X0135356Y0032416D02*
X0133965Y0031025D01*
X0129790Y0035200D01*
X0131181Y0036591D01*
X0135356Y0032416D01*
G37*
G36*
X0133129Y0030189D02*
X0131738Y0028798D01*
X0127563Y0032973D01*
X0128954Y0034364D01*
X0133129Y0030189D01*
G37*
G36*
X0130902Y0027961D02*
X0129511Y0026570D01*
X0125336Y0030745D01*
X0126727Y0032136D01*
X0130902Y0027961D01*
G37*
G36*
X0128675Y0025734D02*
X0127284Y0024343D01*
X0123109Y0028518D01*
X0124500Y0029909D01*
X0128675Y0025734D01*
G37*
G36*
X0126448Y0023507D02*
X0125057Y0022116D01*
X0120882Y0026291D01*
X0122273Y0027682D01*
X0126448Y0023507D01*
G37*
G36*
X0124221Y0021280D02*
X0122830Y0019889D01*
X0118655Y0024064D01*
X0120046Y0025455D01*
X0124221Y0021280D01*
G37*
G36*
X0121994Y0019053D02*
X0120603Y0017662D01*
X0116428Y0021837D01*
X0117819Y0023228D01*
X0121994Y0019053D01*
G37*
G36*
X0119766Y0016826D02*
X0118375Y0015435D01*
X0114200Y0019610D01*
X0115591Y0021001D01*
X0119766Y0016826D01*
G37*
G36*
X0137583Y0034643D02*
X0136192Y0033252D01*
X0132017Y0037427D01*
X0133408Y0038818D01*
X0137583Y0034643D01*
G37*
G36*
X0139810Y0036870D02*
X0138419Y0035479D01*
X0134244Y0039654D01*
X0135635Y0041045D01*
X0139810Y0036870D01*
G37*
G36*
X0142038Y0039097D02*
X0140647Y0037706D01*
X0136472Y0041881D01*
X0137863Y0043272D01*
X0142038Y0039097D01*
G37*
D12*
G36*
X0082437Y0020967D02*
X0084386Y0022916D01*
X0086889Y0020413D01*
X0084940Y0018464D01*
X0082437Y0020967D01*
G37*
G36*
X0086056Y0024587D02*
X0088005Y0026536D01*
X0090508Y0024033D01*
X0088559Y0022084D01*
X0086056Y0024587D01*
G37*
G36*
X0092056Y0018587D02*
X0094005Y0020536D01*
X0096508Y0018033D01*
X0094559Y0016084D01*
X0092056Y0018587D01*
G37*
G36*
X0088437Y0014967D02*
X0090386Y0016916D01*
X0092889Y0014413D01*
X0090940Y0012464D01*
X0088437Y0014967D01*
G37*
G36*
X0071937Y0030467D02*
X0073886Y0032416D01*
X0076389Y0029913D01*
X0074440Y0027964D01*
X0071937Y0030467D01*
G37*
G36*
X0075556Y0034087D02*
X0077505Y0036036D01*
X0080008Y0033533D01*
X0078059Y0031584D01*
X0075556Y0034087D01*
G37*
G36*
X0092937Y0073467D02*
X0094886Y0075416D01*
X0097389Y0072913D01*
X0095440Y0070964D01*
X0092937Y0073467D01*
G37*
G36*
X0096556Y0077087D02*
X0098505Y0079036D01*
X0101008Y0076533D01*
X0099059Y0074584D01*
X0096556Y0077087D01*
G37*
X0151413Y0077000D03*
X0156531Y0077000D03*
D13*
X0136288Y0025866D02*
X0140338Y0021816D01*
X0136997Y0018475D02*
X0132947Y0022525D01*
X0129607Y0019184D02*
X0133657Y0015134D01*
D14*
X0034693Y0042882D03*
X0034693Y0045441D03*
X0034693Y0048000D03*
X0034693Y0050559D03*
X0034693Y0053118D03*
D15*
X0023472Y0052921D03*
X0023472Y0043079D03*
D16*
X0023472Y0032252D03*
X0023472Y0063748D03*
D17*
X0060945Y0053000D03*
X0070000Y0053000D03*
D18*
X0155732Y0037563D03*
X0163213Y0037563D03*
X0159472Y0045831D03*
D19*
X0156472Y0055941D03*
X0162472Y0055941D03*
X0168472Y0055941D03*
X0168472Y0061059D03*
X0162472Y0061059D03*
X0156472Y0061059D03*
X0150472Y0061059D03*
X0150472Y0055941D03*
X0150472Y0027059D03*
X0156472Y0027059D03*
X0162472Y0027059D03*
X0168472Y0027059D03*
X0168472Y0021941D03*
X0162472Y0021941D03*
X0156472Y0021941D03*
X0150472Y0021941D03*
D20*
X0169972Y0138047D03*
X0169972Y0143953D03*
M02*
