G75*
%MOIN*%
%OFA0B0*%
%FSLAX25Y25*%
%IPPOS*%
%LPD*%
%AMOC8*
5,1,8,0,0,1.08239X$1,22.5*
%
%ADD10C,0.00500*%
%ADD11R,0.00100X0.00100*%
%ADD12R,0.02400X0.00100*%
%ADD13R,0.02000X0.00100*%
%ADD14R,0.00700X0.00100*%
%ADD15R,0.01400X0.00100*%
%ADD16R,0.01100X0.00100*%
%ADD17R,0.01000X0.00100*%
%ADD18R,0.00800X0.00100*%
%ADD19R,0.00600X0.00100*%
%ADD20R,0.00500X0.00100*%
%ADD21R,0.00400X0.00100*%
%ADD22R,0.00300X0.00100*%
%ADD23R,0.00200X0.00100*%
%ADD24R,0.02800X0.00100*%
%ADD25R,0.03400X0.00100*%
%ADD26R,0.03800X0.00100*%
%ADD27R,0.04300X0.00100*%
%ADD28R,0.04700X0.00100*%
%ADD29R,0.05000X0.00100*%
%ADD30R,0.05300X0.00100*%
%ADD31R,0.05600X0.00100*%
%ADD32R,0.05800X0.00100*%
%ADD33R,0.02900X0.00100*%
%ADD34R,0.02100X0.00100*%
%ADD35R,0.02300X0.00100*%
%ADD36R,0.01900X0.00100*%
%ADD37R,0.01700X0.00100*%
%ADD38R,0.03900X0.00100*%
%ADD39R,0.04900X0.00100*%
%ADD40R,0.05900X0.00100*%
%ADD41R,0.06600X0.00100*%
%ADD42R,0.07100X0.00100*%
%ADD43R,0.07600X0.00100*%
%ADD44R,0.08200X0.00100*%
%ADD45R,0.08500X0.00100*%
%ADD46R,0.08900X0.00100*%
%ADD47R,0.09300X0.00100*%
%ADD48R,0.09500X0.00100*%
%ADD49R,0.09800X0.00100*%
%ADD50R,0.10100X0.00100*%
%ADD51R,0.10400X0.00100*%
%ADD52R,0.10600X0.00100*%
%ADD53R,0.10800X0.00100*%
%ADD54R,0.11000X0.00100*%
%ADD55R,0.11200X0.00100*%
%ADD56R,0.11300X0.00100*%
%ADD57R,0.11400X0.00100*%
%ADD58R,0.11600X0.00100*%
%ADD59R,0.11700X0.00100*%
%ADD60R,0.11900X0.00100*%
%ADD61R,0.12000X0.00100*%
%ADD62R,0.12100X0.00100*%
%ADD63R,0.08100X0.00100*%
%ADD64R,0.00900X0.00100*%
%ADD65R,0.01200X0.00100*%
%ADD66R,0.01300X0.00100*%
%ADD67R,0.01500X0.00100*%
%ADD68R,0.01600X0.00100*%
%ADD69R,0.01800X0.00100*%
%ADD70R,0.02200X0.00100*%
%ADD71R,0.02500X0.00100*%
%ADD72R,0.02700X0.00100*%
%ADD73R,0.02600X0.00100*%
%ADD74R,0.03000X0.00100*%
%ADD75R,0.03100X0.00100*%
%ADD76R,0.03200X0.00100*%
%ADD77R,0.03300X0.00100*%
%ADD78R,0.03500X0.00100*%
%ADD79R,0.03600X0.00100*%
%ADD80R,0.03700X0.00100*%
%ADD81R,0.04000X0.00100*%
%ADD82R,0.04100X0.00100*%
%ADD83R,0.04200X0.00100*%
%ADD84R,0.04400X0.00100*%
%ADD85R,0.04500X0.00100*%
%ADD86R,0.04600X0.00100*%
%ADD87R,0.04800X0.00100*%
%ADD88R,0.05100X0.00100*%
%ADD89R,0.05400X0.00100*%
%ADD90R,0.05700X0.00100*%
%ADD91R,0.06100X0.00100*%
%ADD92R,0.06000X0.00100*%
%ADD93R,0.06200X0.00100*%
%ADD94R,0.06300X0.00100*%
%ADD95R,0.06400X0.00100*%
%ADD96R,0.06500X0.00100*%
%ADD97R,0.06700X0.00100*%
%ADD98R,0.06900X0.00100*%
%ADD99R,0.06800X0.00100*%
%ADD100R,0.07000X0.00100*%
%ADD101R,0.05500X0.00100*%
%ADD102R,0.05200X0.00100*%
%ADD103R,0.07200X0.00100*%
%ADD104R,0.07500X0.00100*%
%ADD105R,0.07300X0.00100*%
%ADD106R,0.07900X0.00100*%
%ADD107R,0.09100X0.00100*%
%ADD108R,0.09700X0.00100*%
%ADD109R,0.08600X0.00100*%
%ADD110R,0.10300X0.00100*%
%ADD111R,0.10500X0.00100*%
%ADD112R,0.10900X0.00100*%
%ADD113R,0.09900X0.00100*%
%ADD114R,0.11100X0.00100*%
%ADD115R,0.10200X0.00100*%
%ADD116R,0.11500X0.00100*%
%ADD117R,0.12400X0.00100*%
%ADD118R,0.12600X0.00100*%
%ADD119R,0.12800X0.00100*%
%ADD120R,0.13100X0.00100*%
%ADD121R,0.13300X0.00100*%
%ADD122R,0.12500X0.00100*%
%ADD123R,0.13800X0.00100*%
%ADD124R,0.13000X0.00100*%
%ADD125R,0.14200X0.00100*%
%ADD126R,0.13200X0.00100*%
%ADD127R,0.14300X0.00100*%
%ADD128R,0.13400X0.00100*%
%ADD129R,0.14700X0.00100*%
%ADD130R,0.13700X0.00100*%
%ADD131R,0.14800X0.00100*%
%ADD132R,0.13900X0.00100*%
%ADD133R,0.15100X0.00100*%
%ADD134R,0.14100X0.00100*%
%ADD135R,0.15300X0.00100*%
%ADD136R,0.14500X0.00100*%
%ADD137R,0.15500X0.00100*%
%ADD138R,0.14600X0.00100*%
%ADD139R,0.15700X0.00100*%
%ADD140R,0.14900X0.00100*%
%ADD141R,0.16000X0.00100*%
%ADD142R,0.15000X0.00100*%
%ADD143R,0.16200X0.00100*%
%ADD144R,0.16300X0.00100*%
%ADD145R,0.15400X0.00100*%
%ADD146R,0.16600X0.00100*%
%ADD147R,0.16700X0.00100*%
%ADD148R,0.15800X0.00100*%
%ADD149R,0.16900X0.00100*%
%ADD150R,0.17200X0.00100*%
%ADD151R,0.17300X0.00100*%
%ADD152R,0.16400X0.00100*%
%ADD153R,0.17600X0.00100*%
%ADD154R,0.17900X0.00100*%
%ADD155R,0.17000X0.00100*%
%ADD156R,0.18000X0.00100*%
%ADD157R,0.17100X0.00100*%
%ADD158R,0.18300X0.00100*%
%ADD159R,0.18500X0.00100*%
%ADD160R,0.18700X0.00100*%
%ADD161R,0.19000X0.00100*%
%ADD162R,0.18200X0.00100*%
%ADD163R,0.19400X0.00100*%
%ADD164R,0.18400X0.00100*%
%ADD165R,0.19700X0.00100*%
%ADD166R,0.19600X0.00100*%
%ADD167R,0.20000X0.00100*%
%ADD168R,0.18900X0.00100*%
%ADD169R,0.20100X0.00100*%
%ADD170R,0.19300X0.00100*%
%ADD171R,0.20300X0.00100*%
%ADD172R,0.19200X0.00100*%
%ADD173R,0.20500X0.00100*%
%ADD174R,0.20800X0.00100*%
%ADD175R,0.19900X0.00100*%
%ADD176R,0.20900X0.00100*%
%ADD177R,0.21100X0.00100*%
%ADD178R,0.21400X0.00100*%
%ADD179R,0.20400X0.00100*%
%ADD180R,0.21600X0.00100*%
%ADD181R,0.20700X0.00100*%
%ADD182R,0.21200X0.00100*%
%ADD183R,0.18800X0.00100*%
%ADD184R,0.17700X0.00100*%
%ADD185R,0.17400X0.00100*%
%ADD186R,0.16100X0.00100*%
%ADD187R,0.15600X0.00100*%
%ADD188R,0.14400X0.00100*%
%ADD189R,0.14000X0.00100*%
%ADD190R,0.13600X0.00100*%
%ADD191R,0.13500X0.00100*%
%ADD192R,0.12900X0.00100*%
%ADD193R,0.12700X0.00100*%
%ADD194R,0.12300X0.00100*%
%ADD195R,0.12200X0.00100*%
%ADD196R,0.11800X0.00100*%
%ADD197R,0.10700X0.00100*%
%ADD198R,0.10000X0.00100*%
%ADD199R,0.09600X0.00100*%
%ADD200R,0.09400X0.00100*%
%ADD201R,0.09200X0.00100*%
%ADD202R,0.09000X0.00100*%
%ADD203R,0.08800X0.00100*%
%ADD204R,0.08700X0.00100*%
%ADD205R,0.15900X0.00100*%
%ADD206R,0.08400X0.00100*%
%ADD207R,0.16500X0.00100*%
%ADD208R,0.08300X0.00100*%
%ADD209R,0.16800X0.00100*%
%ADD210R,0.17500X0.00100*%
%ADD211R,0.17800X0.00100*%
%ADD212R,0.08000X0.00100*%
%ADD213R,0.18100X0.00100*%
%ADD214R,0.18600X0.00100*%
%ADD215R,0.07800X0.00100*%
%ADD216R,0.19100X0.00100*%
%ADD217R,0.07700X0.00100*%
%ADD218R,0.07400X0.00100*%
%ADD219R,0.15200X0.00100*%
%ADD220R,0.20200X0.00100*%
%ADD221R,0.21000X0.00100*%
%ADD222R,0.21300X0.00100*%
%ADD223R,0.20600X0.00100*%
%ADD224R,0.19500X0.00100*%
%ADD225R,0.19800X0.00100*%
%ADD226C,0.00800*%
%ADD227C,0.01000*%
%ADD228C,0.00300*%
%ADD229C,0.00600*%
%ADD230R,0.00591X0.01181*%
%ADD231R,0.01181X0.01181*%
%ADD232C,0.01100*%
D10*
X0031472Y0007500D02*
X0031472Y0021500D01*
X0034472Y0024500D01*
X0039472Y0024500D01*
X0041472Y0022500D01*
X0043472Y0024500D01*
X0049472Y0024500D01*
X0051472Y0022500D01*
X0053472Y0024500D01*
X0058472Y0024500D01*
X0061472Y0021500D01*
X0061472Y0007500D01*
X0058472Y0004500D01*
X0053472Y0004500D01*
X0051472Y0006500D01*
X0049472Y0004500D01*
X0043472Y0004500D01*
X0041472Y0006500D01*
X0039472Y0004500D01*
X0034472Y0004500D01*
X0031472Y0007500D01*
X0030023Y0022750D02*
X0028272Y0022750D01*
X0028272Y0026253D01*
X0030023Y0026253D01*
X0030607Y0025669D01*
X0030607Y0025085D01*
X0030023Y0024501D01*
X0028272Y0024501D01*
X0026924Y0023918D02*
X0026924Y0023334D01*
X0026340Y0022750D01*
X0025173Y0022750D01*
X0024589Y0023334D01*
X0025173Y0024501D02*
X0026340Y0024501D01*
X0026924Y0023918D01*
X0026924Y0025669D02*
X0026340Y0026253D01*
X0025173Y0026253D01*
X0024589Y0025669D01*
X0024589Y0025085D01*
X0025173Y0024501D01*
X0023241Y0023334D02*
X0023241Y0026253D01*
X0020906Y0026253D02*
X0020906Y0023334D01*
X0021489Y0022750D01*
X0022657Y0022750D01*
X0023241Y0023334D01*
X0019558Y0022750D02*
X0019558Y0026253D01*
X0018390Y0025085D01*
X0017222Y0026253D01*
X0017222Y0022750D01*
X0030023Y0022750D02*
X0030607Y0023334D01*
X0030607Y0023918D01*
X0030023Y0024501D01*
X0066578Y0024259D02*
X0068230Y0022608D01*
X0069055Y0022608D01*
X0069881Y0023434D01*
X0069881Y0024259D01*
X0071247Y0024799D02*
X0071247Y0028102D01*
X0070834Y0028515D01*
X0070008Y0028515D01*
X0069183Y0027689D01*
X0069183Y0026864D01*
X0068230Y0025911D02*
X0067404Y0025911D01*
X0066578Y0025085D01*
X0066578Y0024259D01*
X0071247Y0024799D02*
X0072898Y0026451D01*
X0079975Y0018682D02*
X0082452Y0016205D01*
X0081627Y0015379D02*
X0083278Y0017031D01*
X0079975Y0017031D02*
X0079975Y0018682D01*
X0078609Y0016490D02*
X0077784Y0016490D01*
X0076958Y0015665D01*
X0076958Y0014839D01*
X0078609Y0013188D01*
X0079435Y0013188D01*
X0080261Y0014013D01*
X0080261Y0014839D01*
X0092165Y0012172D02*
X0094642Y0009695D01*
X0093817Y0010521D02*
X0095055Y0011759D01*
X0095055Y0012585D01*
X0094230Y0013411D01*
X0093404Y0013411D01*
X0092165Y0012172D01*
X0094642Y0011346D02*
X0096294Y0011346D01*
X0097247Y0012299D02*
X0098898Y0013951D01*
X0098072Y0013125D02*
X0095595Y0015602D01*
X0095595Y0013951D01*
X0140981Y0026866D02*
X0141394Y0026453D01*
X0143045Y0026453D01*
X0144283Y0025215D01*
X0143045Y0026453D02*
X0143045Y0028105D01*
X0142632Y0028517D01*
X0144411Y0028645D02*
X0144411Y0030296D01*
X0146888Y0027819D01*
X0147713Y0028645D02*
X0146062Y0026993D01*
X0148719Y0017902D02*
X0148719Y0015567D01*
X0150471Y0015567D01*
X0149887Y0016735D01*
X0149887Y0017318D01*
X0150471Y0017902D01*
X0151639Y0017902D01*
X0152222Y0017318D01*
X0152222Y0016151D01*
X0151639Y0015567D01*
X0152222Y0014219D02*
X0151055Y0013051D01*
X0151055Y0013635D02*
X0151055Y0011884D01*
X0152222Y0011884D02*
X0148719Y0011884D01*
X0148719Y0013635D01*
X0149303Y0014219D01*
X0150471Y0014219D01*
X0151055Y0013635D01*
X0154719Y0013635D02*
X0154719Y0011884D01*
X0158222Y0011884D01*
X0157055Y0011884D02*
X0157055Y0013635D01*
X0156471Y0014219D01*
X0155303Y0014219D01*
X0154719Y0013635D01*
X0157055Y0013051D02*
X0158222Y0014219D01*
X0156471Y0015567D02*
X0156471Y0017902D01*
X0158222Y0017318D02*
X0154719Y0017318D01*
X0156471Y0015567D01*
X0160719Y0016151D02*
X0160719Y0017318D01*
X0161303Y0017902D01*
X0161887Y0017902D01*
X0162471Y0017318D01*
X0163055Y0017902D01*
X0163639Y0017902D01*
X0164222Y0017318D01*
X0164222Y0016151D01*
X0163639Y0015567D01*
X0164222Y0014219D02*
X0163055Y0013051D01*
X0163055Y0013635D02*
X0163055Y0011884D01*
X0164222Y0011884D02*
X0160719Y0011884D01*
X0160719Y0013635D01*
X0161303Y0014219D01*
X0162471Y0014219D01*
X0163055Y0013635D01*
X0166719Y0013635D02*
X0166719Y0011884D01*
X0170222Y0011884D01*
X0169055Y0011884D02*
X0169055Y0013635D01*
X0168471Y0014219D01*
X0167303Y0014219D01*
X0166719Y0013635D01*
X0169055Y0013051D02*
X0170222Y0014219D01*
X0170222Y0015567D02*
X0167887Y0017902D01*
X0167303Y0017902D01*
X0166719Y0017318D01*
X0166719Y0016151D01*
X0167303Y0015567D01*
X0170222Y0015567D02*
X0170222Y0017902D01*
X0162471Y0017318D02*
X0162471Y0016735D01*
X0161303Y0015567D02*
X0160719Y0016151D01*
X0174449Y0011996D02*
X0174449Y0071996D01*
X0234449Y0071996D01*
X0234449Y0011996D01*
X0174449Y0011996D01*
X0175538Y0010316D02*
X0173203Y0008564D01*
X0175538Y0006813D01*
X0176886Y0008564D02*
X0179221Y0006813D01*
X0176886Y0008564D02*
X0179221Y0010316D01*
X0246037Y0010316D02*
X0248373Y0008564D01*
X0246037Y0006813D01*
X0249721Y0006813D02*
X0252056Y0008564D01*
X0249721Y0010316D01*
X0247283Y0011996D02*
X0247283Y0071996D01*
X0307283Y0071996D01*
X0307283Y0011996D01*
X0247283Y0011996D01*
X0318872Y0010316D02*
X0318872Y0006813D01*
X0321207Y0006813D02*
X0321207Y0010316D01*
X0320040Y0009148D01*
X0318872Y0010316D01*
X0320118Y0011996D02*
X0320118Y0071996D01*
X0380118Y0071996D01*
X0380118Y0011996D01*
X0320118Y0011996D01*
X0322555Y0010316D02*
X0322555Y0007397D01*
X0323139Y0006813D01*
X0324307Y0006813D01*
X0324891Y0007397D01*
X0324891Y0010316D01*
X0326238Y0010316D02*
X0328574Y0010316D01*
X0327406Y0010316D02*
X0327406Y0006813D01*
X0329921Y0006813D02*
X0332257Y0006813D01*
X0331089Y0008564D02*
X0329921Y0008564D01*
X0329921Y0006813D02*
X0329921Y0010316D01*
X0332257Y0010316D01*
X0391707Y0010316D02*
X0391707Y0007981D01*
X0392874Y0006813D01*
X0394042Y0007981D01*
X0394042Y0010316D01*
X0395390Y0009732D02*
X0395390Y0007397D01*
X0395974Y0006813D01*
X0397141Y0006813D01*
X0397725Y0007397D01*
X0397725Y0009732D01*
X0397141Y0010316D01*
X0395974Y0010316D01*
X0395390Y0009732D01*
X0392953Y0011996D02*
X0392953Y0071996D01*
X0452953Y0071996D01*
X0452953Y0011996D01*
X0392953Y0011996D01*
X0399073Y0010316D02*
X0399073Y0006813D01*
X0401408Y0006813D01*
X0406439Y0008564D02*
X0408775Y0008564D01*
X0392953Y0084831D02*
X0392953Y0144831D01*
X0452953Y0144831D01*
X0452953Y0084831D01*
X0392953Y0084831D01*
X0378150Y0084831D02*
X0318150Y0084831D01*
X0318150Y0144831D01*
X0378150Y0144831D01*
X0378150Y0084831D01*
X0307283Y0084831D02*
X0247283Y0084831D01*
X0247283Y0144831D01*
X0307283Y0144831D01*
X0307283Y0084831D01*
X0234449Y0084831D02*
X0174449Y0084831D01*
X0174449Y0144831D01*
X0234449Y0144831D01*
X0234449Y0084831D01*
X0169924Y0078169D02*
X0169924Y0075834D01*
X0169340Y0075250D01*
X0168173Y0075250D01*
X0167589Y0075834D01*
X0169924Y0078169D01*
X0169340Y0078753D01*
X0168173Y0078753D01*
X0167589Y0078169D01*
X0167589Y0075834D01*
X0166241Y0075250D02*
X0163906Y0075250D01*
X0165073Y0075250D02*
X0165073Y0078753D01*
X0163906Y0077585D01*
X0162558Y0078169D02*
X0162558Y0077001D01*
X0161974Y0076418D01*
X0160222Y0076418D01*
X0160222Y0075250D02*
X0160222Y0078753D01*
X0161974Y0078753D01*
X0162558Y0078169D01*
X0161390Y0076418D02*
X0162558Y0075250D01*
X0163055Y0071268D02*
X0163639Y0071268D01*
X0164222Y0070685D01*
X0164222Y0069517D01*
X0163639Y0068933D01*
X0163055Y0068933D01*
X0162471Y0069517D01*
X0162471Y0070685D01*
X0163055Y0071268D01*
X0162471Y0070685D02*
X0161887Y0071268D01*
X0161303Y0071268D01*
X0160719Y0070685D01*
X0160719Y0069517D01*
X0161303Y0068933D01*
X0161887Y0068933D01*
X0162471Y0069517D01*
X0162471Y0067585D02*
X0163055Y0067001D01*
X0163055Y0065250D01*
X0164222Y0065250D02*
X0160719Y0065250D01*
X0160719Y0067001D01*
X0161303Y0067585D01*
X0162471Y0067585D01*
X0163055Y0066418D02*
X0164222Y0067585D01*
X0166719Y0067001D02*
X0166719Y0065250D01*
X0170222Y0065250D01*
X0169055Y0065250D02*
X0169055Y0067001D01*
X0168471Y0067585D01*
X0167303Y0067585D01*
X0166719Y0067001D01*
X0167303Y0068933D02*
X0167887Y0068933D01*
X0168471Y0069517D01*
X0168471Y0071268D01*
X0169639Y0071268D02*
X0167303Y0071268D01*
X0166719Y0070685D01*
X0166719Y0069517D01*
X0167303Y0068933D01*
X0169639Y0068933D02*
X0170222Y0069517D01*
X0170222Y0070685D01*
X0169639Y0071268D01*
X0170222Y0067585D02*
X0169055Y0066418D01*
X0158222Y0067585D02*
X0157055Y0066418D01*
X0157055Y0067001D02*
X0157055Y0065250D01*
X0158222Y0065250D02*
X0154719Y0065250D01*
X0154719Y0067001D01*
X0155303Y0067585D01*
X0156471Y0067585D01*
X0157055Y0067001D01*
X0157639Y0068933D02*
X0158222Y0068933D01*
X0157639Y0068933D02*
X0155303Y0071268D01*
X0154719Y0071268D01*
X0154719Y0068933D01*
X0152222Y0069517D02*
X0152222Y0070685D01*
X0151639Y0071268D01*
X0151055Y0071268D01*
X0150471Y0070685D01*
X0150471Y0068933D01*
X0151639Y0068933D01*
X0152222Y0069517D01*
X0150471Y0068933D02*
X0149303Y0070101D01*
X0148719Y0071268D01*
X0149303Y0067585D02*
X0150471Y0067585D01*
X0151055Y0067001D01*
X0151055Y0065250D01*
X0152222Y0065250D02*
X0148719Y0065250D01*
X0148719Y0067001D01*
X0149303Y0067585D01*
X0151055Y0066418D02*
X0152222Y0067585D01*
X0116115Y0076867D02*
X0114464Y0075215D01*
X0115290Y0076041D02*
X0112813Y0078518D01*
X0112813Y0076867D01*
X0111034Y0076739D02*
X0113098Y0074675D01*
X0113098Y0073849D01*
X0112273Y0073024D01*
X0111447Y0073024D01*
X0109383Y0075088D01*
X0104205Y0079502D02*
X0103379Y0078676D01*
X0102554Y0078676D01*
X0100902Y0080328D01*
X0100902Y0081153D01*
X0101728Y0081979D01*
X0102554Y0081979D01*
X0103507Y0082932D02*
X0103507Y0083758D01*
X0104332Y0084583D01*
X0105158Y0084583D01*
X0105571Y0084171D01*
X0105571Y0083345D01*
X0106397Y0083345D01*
X0106809Y0082932D01*
X0106809Y0082106D01*
X0105984Y0081281D01*
X0105158Y0081281D01*
X0104205Y0080328D02*
X0104205Y0079502D01*
X0105158Y0082932D02*
X0105571Y0083345D01*
X0105273Y0090550D02*
X0107608Y0090550D01*
X0106441Y0092301D02*
X0105273Y0092301D01*
X0105273Y0090550D02*
X0105273Y0094053D01*
X0107608Y0094053D01*
X0108956Y0094053D02*
X0108956Y0093469D01*
X0110124Y0092301D01*
X0110124Y0090550D01*
X0110124Y0092301D02*
X0111291Y0093469D01*
X0111291Y0094053D01*
X0112639Y0094053D02*
X0114391Y0094053D01*
X0114975Y0093469D01*
X0114975Y0092885D01*
X0114391Y0092301D01*
X0112639Y0092301D01*
X0112639Y0090550D02*
X0114391Y0090550D01*
X0114975Y0091134D01*
X0114975Y0091718D01*
X0114391Y0092301D01*
X0116322Y0091134D02*
X0116906Y0090550D01*
X0118074Y0090550D01*
X0118658Y0091134D01*
X0118658Y0093469D01*
X0118074Y0094053D01*
X0116906Y0094053D01*
X0116322Y0093469D01*
X0116322Y0091134D01*
X0112639Y0090550D02*
X0112639Y0094053D01*
X0113807Y0096550D02*
X0113807Y0100053D01*
X0112639Y0100053D02*
X0114975Y0100053D01*
X0116322Y0100053D02*
X0118658Y0100053D01*
X0117490Y0100053D02*
X0117490Y0096550D01*
X0120006Y0097134D02*
X0120589Y0096550D01*
X0121757Y0096550D01*
X0122341Y0097134D01*
X0122341Y0099469D01*
X0121757Y0100053D01*
X0120589Y0100053D01*
X0120006Y0099469D01*
X0120006Y0097134D01*
X0123689Y0096550D02*
X0123689Y0100053D01*
X0126024Y0096550D01*
X0126024Y0100053D01*
X0123599Y0102550D02*
X0122431Y0102550D01*
X0121847Y0103134D01*
X0121847Y0103718D01*
X0122431Y0104301D01*
X0123599Y0104301D01*
X0124182Y0103718D01*
X0124182Y0103134D01*
X0123599Y0102550D01*
X0123599Y0104301D02*
X0124182Y0104885D01*
X0124182Y0105469D01*
X0123599Y0106053D01*
X0122431Y0106053D01*
X0121847Y0105469D01*
X0121847Y0104885D01*
X0122431Y0104301D01*
X0116816Y0103718D02*
X0116816Y0103134D01*
X0116232Y0102550D01*
X0114481Y0102550D01*
X0114481Y0106053D01*
X0116232Y0106053D01*
X0116816Y0105469D01*
X0116816Y0104885D01*
X0116232Y0104301D01*
X0114481Y0104301D01*
X0113133Y0103718D02*
X0113133Y0103134D01*
X0112549Y0102550D01*
X0111382Y0102550D01*
X0110798Y0103134D01*
X0111382Y0104301D02*
X0112549Y0104301D01*
X0113133Y0103718D01*
X0113133Y0105469D02*
X0112549Y0106053D01*
X0111382Y0106053D01*
X0110798Y0105469D01*
X0110798Y0104885D01*
X0111382Y0104301D01*
X0109450Y0103134D02*
X0109450Y0106053D01*
X0107115Y0106053D02*
X0107115Y0103134D01*
X0107698Y0102550D01*
X0108866Y0102550D01*
X0109450Y0103134D01*
X0108956Y0100053D02*
X0108956Y0097134D01*
X0109540Y0096550D01*
X0110708Y0096550D01*
X0111291Y0097134D01*
X0111291Y0100053D01*
X0107608Y0099469D02*
X0107608Y0098885D01*
X0107024Y0098301D01*
X0105273Y0098301D01*
X0105273Y0096550D02*
X0107024Y0096550D01*
X0107608Y0097134D01*
X0107608Y0097718D01*
X0107024Y0098301D01*
X0107608Y0099469D02*
X0107024Y0100053D01*
X0105273Y0100053D01*
X0105273Y0096550D01*
X0103925Y0094053D02*
X0101590Y0091718D01*
X0102174Y0092301D02*
X0103925Y0090550D01*
X0101590Y0090550D02*
X0101590Y0094053D01*
X0120006Y0092885D02*
X0120006Y0090550D01*
X0120006Y0092301D02*
X0122341Y0092301D01*
X0122341Y0092885D02*
X0122341Y0090550D01*
X0123689Y0090550D02*
X0123689Y0094053D01*
X0125440Y0094053D01*
X0126024Y0093469D01*
X0126024Y0092301D01*
X0125440Y0091718D01*
X0123689Y0091718D01*
X0124856Y0091718D02*
X0126024Y0090550D01*
X0127372Y0090550D02*
X0129123Y0090550D01*
X0129707Y0091134D01*
X0129707Y0093469D01*
X0129123Y0094053D01*
X0127372Y0094053D01*
X0127372Y0090550D01*
X0122341Y0092885D02*
X0121173Y0094053D01*
X0120006Y0092885D01*
X0116816Y0103718D02*
X0116232Y0104301D01*
X0173203Y0146577D02*
X0173203Y0150080D01*
X0174954Y0150080D01*
X0175538Y0149496D01*
X0175538Y0148328D01*
X0174954Y0147744D01*
X0173203Y0147744D01*
X0176886Y0148328D02*
X0179221Y0148328D01*
X0179221Y0148912D02*
X0179221Y0146577D01*
X0180569Y0147161D02*
X0181153Y0146577D01*
X0182321Y0146577D01*
X0182904Y0147161D01*
X0182904Y0148328D01*
X0181737Y0148328D01*
X0182904Y0149496D02*
X0182321Y0150080D01*
X0181153Y0150080D01*
X0180569Y0149496D01*
X0180569Y0147161D01*
X0179221Y0148912D02*
X0178054Y0150080D01*
X0176886Y0148912D01*
X0176886Y0146577D01*
X0184252Y0146577D02*
X0186588Y0146577D01*
X0185420Y0148328D02*
X0184252Y0148328D01*
X0184252Y0146577D02*
X0184252Y0150080D01*
X0186588Y0150080D01*
X0191618Y0149496D02*
X0191618Y0148912D01*
X0192202Y0148328D01*
X0193370Y0148328D01*
X0193954Y0147744D01*
X0193954Y0147161D01*
X0193370Y0146577D01*
X0192202Y0146577D01*
X0191618Y0147161D01*
X0191618Y0149496D02*
X0192202Y0150080D01*
X0193370Y0150080D01*
X0193954Y0149496D01*
X0195302Y0150080D02*
X0195302Y0146577D01*
X0197637Y0146577D01*
X0198985Y0146577D02*
X0201320Y0146577D01*
X0202668Y0146577D02*
X0205003Y0146577D01*
X0206351Y0147161D02*
X0206935Y0146577D01*
X0208103Y0146577D01*
X0208686Y0147161D01*
X0208686Y0149496D02*
X0208103Y0150080D01*
X0206935Y0150080D01*
X0206351Y0149496D01*
X0206351Y0147161D01*
X0203836Y0148328D02*
X0202668Y0148328D01*
X0202668Y0146577D02*
X0202668Y0150080D01*
X0205003Y0150080D01*
X0210034Y0150080D02*
X0212370Y0150080D01*
X0211202Y0150080D02*
X0211202Y0146577D01*
X0198985Y0146577D02*
X0198985Y0150080D01*
X0197637Y0150080D02*
X0195302Y0150080D01*
X0195302Y0148328D02*
X0196469Y0148328D01*
X0246037Y0148912D02*
X0246621Y0148328D01*
X0247789Y0148328D01*
X0248373Y0147744D01*
X0248373Y0147161D01*
X0247789Y0146577D01*
X0246621Y0146577D01*
X0246037Y0147161D01*
X0246037Y0148912D02*
X0246037Y0149496D01*
X0246621Y0150080D01*
X0247789Y0150080D01*
X0248373Y0149496D01*
X0249721Y0150080D02*
X0252056Y0150080D01*
X0250888Y0150080D02*
X0250888Y0146577D01*
X0253404Y0147161D02*
X0253988Y0146577D01*
X0255155Y0146577D01*
X0255739Y0147161D01*
X0255739Y0149496D01*
X0255155Y0150080D01*
X0253988Y0150080D01*
X0253404Y0149496D01*
X0253404Y0147161D01*
X0257087Y0147744D02*
X0258838Y0147744D01*
X0259422Y0148328D01*
X0259422Y0149496D01*
X0258838Y0150080D01*
X0257087Y0150080D01*
X0257087Y0146577D01*
X0316904Y0146577D02*
X0316904Y0150080D01*
X0318655Y0150080D01*
X0319239Y0149496D01*
X0319239Y0148328D01*
X0318655Y0147744D01*
X0316904Y0147744D01*
X0320587Y0146577D02*
X0322922Y0146577D01*
X0324270Y0146577D02*
X0324270Y0148912D01*
X0325437Y0150080D01*
X0326605Y0148912D01*
X0326605Y0146577D01*
X0326605Y0148328D02*
X0324270Y0148328D01*
X0327953Y0149496D02*
X0329121Y0148328D01*
X0329121Y0146577D01*
X0329121Y0148328D02*
X0330288Y0149496D01*
X0330288Y0150080D01*
X0327953Y0150080D02*
X0327953Y0149496D01*
X0331636Y0146577D02*
X0333971Y0150080D01*
X0335319Y0150080D02*
X0337071Y0150080D01*
X0337655Y0149496D01*
X0337655Y0148328D01*
X0337071Y0147744D01*
X0335319Y0147744D01*
X0335319Y0146577D02*
X0335319Y0150080D01*
X0339002Y0148912D02*
X0340170Y0150080D01*
X0341338Y0148912D01*
X0341338Y0146577D01*
X0342686Y0147161D02*
X0343269Y0146577D01*
X0344437Y0146577D01*
X0345021Y0147161D01*
X0345021Y0150080D01*
X0346369Y0149496D02*
X0346953Y0150080D01*
X0348120Y0150080D01*
X0348704Y0149496D01*
X0348120Y0148328D02*
X0346953Y0148328D01*
X0346369Y0148912D01*
X0346369Y0149496D01*
X0348120Y0148328D02*
X0348704Y0147744D01*
X0348704Y0147161D01*
X0348120Y0146577D01*
X0346953Y0146577D01*
X0346369Y0147161D01*
X0342686Y0147161D02*
X0342686Y0150080D01*
X0339002Y0148912D02*
X0339002Y0146577D01*
X0339002Y0148328D02*
X0341338Y0148328D01*
X0350052Y0148328D02*
X0351220Y0148328D01*
X0350052Y0146577D02*
X0352387Y0146577D01*
X0350052Y0146577D02*
X0350052Y0150080D01*
X0352387Y0150080D01*
X0320587Y0150080D02*
X0320587Y0146577D01*
X0391707Y0147744D02*
X0392874Y0146577D01*
X0394042Y0147744D01*
X0394042Y0150080D01*
X0395390Y0149496D02*
X0395974Y0150080D01*
X0397141Y0150080D01*
X0397725Y0149496D01*
X0397725Y0147161D01*
X0397141Y0146577D01*
X0395974Y0146577D01*
X0395390Y0147161D01*
X0395390Y0149496D01*
X0399073Y0150080D02*
X0399073Y0146577D01*
X0401408Y0146577D01*
X0406439Y0148328D02*
X0408775Y0148328D01*
X0407607Y0149496D02*
X0407607Y0147161D01*
X0391707Y0147744D02*
X0391707Y0150080D01*
X0170923Y0043453D02*
X0170923Y0039950D01*
X0169756Y0039950D02*
X0172091Y0039950D01*
X0168408Y0039950D02*
X0167240Y0041118D01*
X0166656Y0039950D02*
X0166072Y0040534D01*
X0166072Y0042869D01*
X0166656Y0043453D01*
X0167824Y0043453D01*
X0168408Y0042869D01*
X0168408Y0040534D01*
X0167824Y0039950D01*
X0166656Y0039950D01*
X0169756Y0042285D02*
X0170923Y0043453D01*
X0066375Y0045250D02*
X0064039Y0045250D01*
X0065207Y0045250D02*
X0065207Y0048753D01*
X0064039Y0047585D01*
X0062691Y0048169D02*
X0062691Y0045834D01*
X0062108Y0045250D01*
X0060356Y0045250D01*
X0060356Y0048753D01*
X0062108Y0048753D01*
X0062691Y0048169D01*
D11*
X0063072Y0065400D03*
X0065472Y0065700D03*
X0067172Y0066000D03*
X0068572Y0066300D03*
X0070172Y0066700D03*
X0072572Y0067400D03*
X0057772Y0065300D03*
X0057572Y0065300D03*
X0057372Y0065300D03*
X0057172Y0065300D03*
X0055872Y0065400D03*
X0055472Y0065400D03*
X0053372Y0065700D03*
X0052172Y0065900D03*
X0051572Y0066000D03*
X0046872Y0067200D03*
X0044972Y0067900D03*
X0050472Y0073800D03*
X0050772Y0073700D03*
X0053972Y0073000D03*
X0054872Y0072900D03*
X0055372Y0072800D03*
X0055672Y0072800D03*
X0056372Y0072700D03*
X0062372Y0072700D03*
X0063572Y0072800D03*
X0064072Y0072900D03*
X0065972Y0073200D03*
X0066372Y0073300D03*
X0068472Y0073800D03*
X0074172Y0076000D03*
X0077372Y0084900D03*
X0077272Y0092700D03*
X0077072Y0092700D03*
X0076872Y0092700D03*
X0076672Y0092700D03*
X0076472Y0092700D03*
X0075872Y0092700D03*
X0075272Y0092700D03*
X0074672Y0092700D03*
X0074172Y0092700D03*
X0073872Y0092700D03*
X0073372Y0092700D03*
X0073072Y0092700D03*
X0077472Y0092700D03*
X0077672Y0092700D03*
X0078272Y0092700D03*
X0078872Y0092700D03*
X0079072Y0092700D03*
X0079272Y0092700D03*
X0079472Y0092700D03*
X0079672Y0092700D03*
X0079872Y0092700D03*
X0080072Y0092700D03*
X0081872Y0092700D03*
X0082272Y0092700D03*
X0082772Y0092700D03*
X0092872Y0104200D03*
X0093072Y0104200D03*
X0093272Y0104200D03*
X0094072Y0104200D03*
X0094372Y0104200D03*
X0094572Y0104200D03*
X0094772Y0104200D03*
X0094972Y0104200D03*
X0095172Y0104200D03*
X0095372Y0104200D03*
X0095572Y0104200D03*
X0096172Y0104200D03*
X0096372Y0104200D03*
X0096872Y0104200D03*
X0097072Y0104200D03*
X0097272Y0104200D03*
X0098072Y0104200D03*
X0098272Y0104200D03*
X0098472Y0104200D03*
X0099172Y0104200D03*
X0099372Y0104200D03*
X0099572Y0104200D03*
X0099772Y0104200D03*
X0099672Y0108200D03*
X0099872Y0108200D03*
X0098972Y0108200D03*
X0098672Y0108200D03*
X0097872Y0108200D03*
X0096372Y0108200D03*
X0096172Y0108200D03*
X0095572Y0108200D03*
X0095372Y0108200D03*
X0094772Y0108200D03*
X0094572Y0108200D03*
X0093872Y0108200D03*
X0092772Y0108200D03*
X0135572Y0118600D03*
X0136072Y0118600D03*
X0137672Y0118800D03*
X0137272Y0116900D03*
X0137572Y0115600D03*
X0136872Y0115600D03*
X0136672Y0114600D03*
X0137272Y0114600D03*
X0139372Y0117600D03*
X0137972Y0123000D03*
X0155672Y0117300D03*
X0157372Y0118600D03*
X0157272Y0114500D03*
X0157872Y0123100D03*
X0156772Y0123200D03*
X0161972Y0134200D03*
X0161672Y0134600D03*
X0161272Y0135100D03*
X0160772Y0135700D03*
X0160472Y0136000D03*
X0160272Y0136200D03*
X0159872Y0136600D03*
X0159272Y0137100D03*
X0158972Y0137400D03*
X0158472Y0137800D03*
X0158172Y0138000D03*
X0157272Y0138600D03*
X0156972Y0138800D03*
X0155572Y0139600D03*
X0153872Y0140400D03*
X0149272Y0141600D03*
X0149172Y0141500D03*
X0147672Y0141700D03*
X0147472Y0141600D03*
X0079072Y0141400D03*
X0066372Y0138400D03*
X0064872Y0138700D03*
X0064172Y0138800D03*
X0063372Y0138900D03*
X0062472Y0139000D03*
X0061472Y0139100D03*
X0056472Y0139000D03*
X0054872Y0138800D03*
X0054572Y0138800D03*
X0052572Y0138400D03*
X0045472Y0144000D03*
X0051672Y0145700D03*
X0053972Y0146100D03*
X0061472Y0146400D03*
X0061672Y0146400D03*
X0063272Y0146300D03*
X0066172Y0145900D03*
X0076172Y0134600D03*
X0049172Y0121800D03*
X0049072Y0121900D03*
X0048872Y0121900D03*
X0048272Y0121900D03*
X0047672Y0121900D03*
X0046172Y0121900D03*
X0045672Y0121900D03*
X0045072Y0121900D03*
X0044472Y0121900D03*
X0042972Y0121900D03*
X0042472Y0121900D03*
X0041872Y0121900D03*
X0040972Y0121900D03*
X0040372Y0121900D03*
X0039572Y0121900D03*
X0025672Y0108000D03*
X0025072Y0108000D03*
X0024572Y0108000D03*
X0023172Y0108000D03*
X0022972Y0108000D03*
X0021672Y0108000D03*
X0021472Y0108000D03*
X0020872Y0108000D03*
X0020372Y0108000D03*
X0020172Y0108000D03*
X0019172Y0108000D03*
X0018972Y0108000D03*
X0019272Y0104000D03*
X0019572Y0104000D03*
X0019872Y0104000D03*
X0020072Y0104000D03*
X0020372Y0104000D03*
X0020672Y0104000D03*
X0020872Y0104000D03*
X0021272Y0104000D03*
X0021672Y0104000D03*
X0021872Y0104000D03*
X0022072Y0104000D03*
X0022472Y0104000D03*
X0022672Y0104000D03*
X0022972Y0104000D03*
X0023272Y0104000D03*
X0023472Y0104000D03*
X0023672Y0104000D03*
X0023872Y0104000D03*
X0024072Y0104000D03*
X0024372Y0104000D03*
X0024672Y0104000D03*
X0024872Y0104000D03*
X0025172Y0104000D03*
X0025572Y0104000D03*
X0025772Y0104000D03*
X0026072Y0104000D03*
X0139272Y0101100D03*
X0143972Y0095200D03*
X0144472Y0095200D03*
X0144772Y0095200D03*
X0145172Y0095200D03*
X0145672Y0095200D03*
X0150672Y0095100D03*
X0150872Y0095100D03*
X0151172Y0095100D03*
X0152572Y0095100D03*
X0152872Y0095100D03*
X0147072Y0092300D03*
X0146872Y0092300D03*
X0145472Y0090000D03*
X0147072Y0088600D03*
X0147372Y0088600D03*
X0147572Y0088600D03*
X0148172Y0089700D03*
X0157872Y0086600D03*
X0158072Y0086800D03*
X0158672Y0087500D03*
X0159072Y0088000D03*
X0159372Y0088400D03*
X0159572Y0088700D03*
X0159872Y0089100D03*
X0160072Y0089400D03*
X0160172Y0089600D03*
X0160372Y0089900D03*
X0160472Y0090100D03*
X0160672Y0090400D03*
X0160772Y0090600D03*
X0160872Y0090800D03*
X0160972Y0091000D03*
X0161272Y0091500D03*
X0161372Y0091800D03*
X0161572Y0092200D03*
X0161672Y0092400D03*
X0161872Y0092900D03*
X0161972Y0093100D03*
X0162072Y0093400D03*
X0162172Y0093700D03*
X0162272Y0093900D03*
X0162372Y0094200D03*
X0162472Y0094500D03*
X0162572Y0094800D03*
X0162772Y0095400D03*
X0162872Y0095700D03*
X0163072Y0096400D03*
X0163372Y0097500D03*
X0155772Y0101100D03*
X0156672Y0085400D03*
X0150472Y0082600D03*
X0149972Y0082500D03*
X0149172Y0082400D03*
X0148072Y0082300D03*
X0146172Y0082200D03*
X0145972Y0082400D03*
X0145872Y0082200D03*
X0145072Y0082500D03*
X0144472Y0082400D03*
X0143972Y0082700D03*
X0143072Y0082700D03*
D12*
X0147522Y0082200D03*
X0138022Y0104300D03*
X0138022Y0104400D03*
X0156922Y0104400D03*
X0157022Y0104700D03*
X0156722Y0131700D03*
X0156622Y0131800D03*
X0138322Y0131600D03*
X0138322Y0131500D03*
X0056022Y0146200D03*
D13*
X0138522Y0132100D03*
X0156422Y0132400D03*
X0156522Y0132200D03*
X0138222Y0122900D03*
X0137122Y0115800D03*
X0136922Y0114500D03*
X0157922Y0115900D03*
X0156722Y0103600D03*
X0156722Y0103500D03*
X0138222Y0103600D03*
X0147422Y0088700D03*
X0146122Y0082300D03*
D14*
X0147572Y0082300D03*
X0151372Y0082700D03*
X0142772Y0082900D03*
X0142472Y0083000D03*
X0141872Y0083200D03*
X0150172Y0095100D03*
X0138972Y0101600D03*
X0138872Y0117100D03*
X0135072Y0117200D03*
X0156072Y0117100D03*
X0159872Y0117100D03*
X0155772Y0133700D03*
X0139272Y0133600D03*
X0144872Y0141500D03*
X0077872Y0084900D03*
X0062272Y0065400D03*
D15*
X0148922Y0082300D03*
X0156422Y0102400D03*
X0156422Y0102500D03*
X0138622Y0102500D03*
X0138622Y0102400D03*
X0137122Y0115700D03*
X0159422Y0116900D03*
X0138922Y0132900D03*
X0156122Y0133100D03*
D16*
X0155972Y0133400D03*
X0148572Y0141600D03*
X0138772Y0102100D03*
X0138772Y0102000D03*
X0156272Y0102000D03*
X0156272Y0101900D03*
X0148172Y0092300D03*
X0149972Y0090000D03*
X0145172Y0082400D03*
D17*
X0144422Y0082500D03*
X0144022Y0082600D03*
X0149822Y0082400D03*
X0156222Y0101800D03*
X0138822Y0101900D03*
X0159622Y0117000D03*
X0155922Y0133500D03*
X0139122Y0133400D03*
D18*
X0139122Y0133500D03*
X0138922Y0101700D03*
X0156022Y0101500D03*
X0156122Y0101600D03*
X0144922Y0090000D03*
X0143122Y0082800D03*
X0150522Y0082500D03*
X0082322Y0084900D03*
X0081322Y0084900D03*
X0078722Y0084900D03*
D19*
X0139022Y0101500D03*
X0155922Y0101300D03*
X0156022Y0101400D03*
X0157922Y0115600D03*
X0156222Y0126000D03*
X0155722Y0133800D03*
X0139222Y0133700D03*
X0143622Y0141300D03*
X0144222Y0141400D03*
X0141322Y0083400D03*
X0141622Y0083300D03*
X0142122Y0083100D03*
X0143522Y0082700D03*
X0151022Y0082600D03*
D20*
X0151772Y0082800D03*
X0152072Y0082900D03*
X0152472Y0083000D03*
X0153272Y0083300D03*
X0141072Y0083500D03*
X0140872Y0083600D03*
X0140672Y0083700D03*
X0140472Y0083800D03*
X0140272Y0083900D03*
X0140072Y0084000D03*
X0139572Y0084300D03*
X0139272Y0084500D03*
X0138972Y0084700D03*
X0138772Y0084800D03*
X0139072Y0101400D03*
X0155872Y0101200D03*
X0155872Y0117200D03*
X0160072Y0117200D03*
X0138972Y0117200D03*
X0129072Y0117000D03*
X0156872Y0126000D03*
X0139372Y0133800D03*
X0142372Y0141000D03*
X0147072Y0141600D03*
X0150772Y0141400D03*
X0080572Y0084900D03*
X0079972Y0084900D03*
D21*
X0079422Y0084900D03*
X0131522Y0098000D03*
X0131522Y0098100D03*
X0131422Y0098400D03*
X0131322Y0098800D03*
X0131322Y0098900D03*
X0131122Y0099600D03*
X0131122Y0099700D03*
X0131022Y0100100D03*
X0131022Y0100200D03*
X0130922Y0100500D03*
X0130922Y0100700D03*
X0130822Y0100900D03*
X0130822Y0101100D03*
X0130722Y0101500D03*
X0130722Y0101600D03*
X0130622Y0101900D03*
X0130622Y0102100D03*
X0130622Y0102200D03*
X0130522Y0102600D03*
X0130522Y0102700D03*
X0130522Y0102800D03*
X0130422Y0103100D03*
X0130422Y0103200D03*
X0130322Y0103700D03*
X0130322Y0103800D03*
X0130322Y0103900D03*
X0130322Y0104000D03*
X0130222Y0104300D03*
X0130222Y0104500D03*
X0130122Y0104900D03*
X0130122Y0105100D03*
X0130122Y0105300D03*
X0130022Y0105600D03*
X0130022Y0105800D03*
X0129922Y0106300D03*
X0129922Y0106500D03*
X0129922Y0106600D03*
X0129922Y0106700D03*
X0129922Y0106800D03*
X0129822Y0107100D03*
X0129822Y0107300D03*
X0129822Y0107400D03*
X0129722Y0107900D03*
X0129722Y0108000D03*
X0129722Y0108100D03*
X0129722Y0108200D03*
X0129722Y0108400D03*
X0129622Y0108800D03*
X0129622Y0109000D03*
X0129622Y0109100D03*
X0129622Y0109200D03*
X0129622Y0109400D03*
X0129522Y0109700D03*
X0129522Y0109900D03*
X0129522Y0110000D03*
X0129522Y0110100D03*
X0129522Y0110200D03*
X0129522Y0110300D03*
X0129522Y0110500D03*
X0129422Y0110900D03*
X0129422Y0111100D03*
X0129422Y0111200D03*
X0129422Y0111500D03*
X0129322Y0111700D03*
X0129322Y0112000D03*
X0129322Y0112300D03*
X0129322Y0112400D03*
X0129322Y0112500D03*
X0129322Y0112700D03*
X0129322Y0112900D03*
X0129222Y0113300D03*
X0129222Y0113500D03*
X0129222Y0113700D03*
X0129222Y0113800D03*
X0129222Y0114000D03*
X0129222Y0114200D03*
X0129222Y0114600D03*
X0129122Y0114700D03*
X0129122Y0115000D03*
X0129122Y0115100D03*
X0129122Y0115300D03*
X0129122Y0115400D03*
X0129122Y0115600D03*
X0129122Y0115700D03*
X0129122Y0115800D03*
X0129122Y0116100D03*
X0129122Y0116200D03*
X0129122Y0116700D03*
X0129022Y0117700D03*
X0129022Y0118300D03*
X0129022Y0118500D03*
X0129022Y0118900D03*
X0129022Y0119500D03*
X0129022Y0119900D03*
X0129122Y0120600D03*
X0129122Y0120800D03*
X0129122Y0121100D03*
X0129122Y0121300D03*
X0129122Y0121500D03*
X0129122Y0121700D03*
X0129122Y0121900D03*
X0129122Y0122100D03*
X0129222Y0122700D03*
X0129222Y0122900D03*
X0129222Y0123000D03*
X0129222Y0123200D03*
X0129322Y0123700D03*
X0129322Y0123900D03*
X0129322Y0124000D03*
X0129322Y0124200D03*
X0129422Y0124600D03*
X0129422Y0124700D03*
X0129422Y0124900D03*
X0129522Y0125300D03*
X0129522Y0125400D03*
X0129622Y0125900D03*
X0129622Y0126000D03*
X0129722Y0126500D03*
X0129822Y0126900D03*
X0129922Y0127300D03*
X0130022Y0127700D03*
X0130122Y0128100D03*
X0130222Y0128400D03*
X0130422Y0129100D03*
X0130522Y0129400D03*
X0130822Y0130200D03*
X0131022Y0130700D03*
X0131122Y0130900D03*
X0131722Y0132100D03*
X0131922Y0132500D03*
X0132522Y0133500D03*
X0132722Y0133800D03*
X0134222Y0135700D03*
X0135722Y0137200D03*
X0138222Y0139100D03*
X0139222Y0139700D03*
X0139622Y0139900D03*
X0140022Y0140100D03*
X0140222Y0140200D03*
X0140722Y0140400D03*
X0141422Y0140700D03*
X0141722Y0140800D03*
X0142022Y0140900D03*
X0142722Y0141100D03*
X0143122Y0141200D03*
X0150222Y0141500D03*
X0155622Y0133900D03*
X0165922Y0119800D03*
X0165922Y0116100D03*
X0165922Y0115800D03*
X0165922Y0115500D03*
X0165922Y0114900D03*
X0165822Y0113700D03*
X0165822Y0113600D03*
X0165722Y0112400D03*
X0165222Y0107800D03*
X0139122Y0101300D03*
X0131622Y0097700D03*
X0131722Y0097300D03*
X0131822Y0097000D03*
X0131922Y0096600D03*
X0132022Y0096300D03*
X0132122Y0096000D03*
X0132222Y0095700D03*
X0132322Y0095400D03*
X0132322Y0095300D03*
X0132422Y0095100D03*
X0132522Y0094800D03*
X0132622Y0094500D03*
X0132722Y0094200D03*
X0132822Y0094000D03*
X0132922Y0093700D03*
X0133022Y0093500D03*
X0133122Y0093200D03*
X0133222Y0093000D03*
X0133422Y0092500D03*
X0133522Y0092300D03*
X0133622Y0092100D03*
X0133922Y0091400D03*
X0134122Y0091000D03*
X0134322Y0090700D03*
X0134522Y0090300D03*
X0134622Y0090100D03*
X0134922Y0089600D03*
X0135022Y0089400D03*
X0135222Y0089100D03*
X0135522Y0088600D03*
X0135722Y0088300D03*
X0135922Y0088000D03*
X0136222Y0087600D03*
X0136522Y0087200D03*
X0136822Y0086800D03*
X0137122Y0086400D03*
X0137422Y0086100D03*
X0137722Y0085700D03*
X0137922Y0085600D03*
X0138222Y0085300D03*
X0138322Y0085200D03*
X0138422Y0085100D03*
X0138722Y0084900D03*
X0139122Y0084600D03*
X0139422Y0084400D03*
X0139722Y0084200D03*
X0139922Y0084100D03*
X0152722Y0083100D03*
X0153022Y0083200D03*
X0153722Y0083500D03*
X0153922Y0083600D03*
X0099322Y0108200D03*
X0098322Y0108200D03*
X0097522Y0108200D03*
X0093522Y0108200D03*
X0137222Y0115600D03*
X0139122Y0117300D03*
X0024222Y0108000D03*
D22*
X0023472Y0108000D03*
X0022672Y0108000D03*
X0021972Y0108000D03*
X0021172Y0108000D03*
X0019872Y0108000D03*
X0019472Y0108000D03*
X0025372Y0108000D03*
X0025972Y0108000D03*
X0082972Y0084900D03*
X0131372Y0098500D03*
X0131372Y0098600D03*
X0131372Y0098700D03*
X0131272Y0099000D03*
X0131272Y0099100D03*
X0131272Y0099200D03*
X0131172Y0099300D03*
X0131172Y0099400D03*
X0131172Y0099500D03*
X0131072Y0099800D03*
X0131072Y0099900D03*
X0131072Y0100000D03*
X0130972Y0100300D03*
X0130972Y0100400D03*
X0130872Y0100600D03*
X0130872Y0100800D03*
X0130872Y0101000D03*
X0130772Y0101200D03*
X0130772Y0101300D03*
X0130772Y0101400D03*
X0130672Y0101700D03*
X0130672Y0101800D03*
X0130672Y0102000D03*
X0130572Y0102300D03*
X0130572Y0102400D03*
X0130572Y0102500D03*
X0130472Y0102900D03*
X0130472Y0103000D03*
X0130372Y0103300D03*
X0130372Y0103400D03*
X0130372Y0103500D03*
X0130372Y0103600D03*
X0130272Y0104100D03*
X0130272Y0104200D03*
X0130272Y0104400D03*
X0130172Y0104600D03*
X0130172Y0104700D03*
X0130172Y0104800D03*
X0130172Y0105000D03*
X0130072Y0105200D03*
X0130072Y0105400D03*
X0130072Y0105500D03*
X0130072Y0105700D03*
X0129972Y0105900D03*
X0129972Y0106000D03*
X0129972Y0106100D03*
X0129972Y0106200D03*
X0129972Y0106400D03*
X0129872Y0106900D03*
X0129872Y0107000D03*
X0129872Y0107200D03*
X0129772Y0107500D03*
X0129772Y0107600D03*
X0129772Y0107700D03*
X0129772Y0107800D03*
X0129672Y0108300D03*
X0129672Y0108500D03*
X0129672Y0108600D03*
X0129672Y0108700D03*
X0129672Y0108900D03*
X0129572Y0109300D03*
X0129572Y0109500D03*
X0129572Y0109600D03*
X0129572Y0109800D03*
X0129472Y0110400D03*
X0129472Y0110600D03*
X0129472Y0110700D03*
X0129472Y0110800D03*
X0129472Y0111000D03*
X0129372Y0111300D03*
X0129372Y0111400D03*
X0129372Y0111600D03*
X0129372Y0111800D03*
X0129372Y0111900D03*
X0129372Y0112100D03*
X0129372Y0112200D03*
X0129272Y0112600D03*
X0129272Y0112800D03*
X0129272Y0113000D03*
X0129272Y0113100D03*
X0129272Y0113200D03*
X0129272Y0113400D03*
X0129272Y0113600D03*
X0129172Y0113900D03*
X0129172Y0114100D03*
X0129172Y0114300D03*
X0129172Y0114400D03*
X0129172Y0114500D03*
X0129172Y0114800D03*
X0129172Y0114900D03*
X0129172Y0115200D03*
X0129172Y0115500D03*
X0129072Y0115900D03*
X0129072Y0116000D03*
X0129072Y0116300D03*
X0129072Y0116400D03*
X0129072Y0116500D03*
X0129072Y0116600D03*
X0129072Y0116800D03*
X0129072Y0116900D03*
X0129072Y0117100D03*
X0129072Y0117200D03*
X0129072Y0117300D03*
X0129072Y0117400D03*
X0129072Y0117500D03*
X0129072Y0117600D03*
X0129072Y0117800D03*
X0129072Y0117900D03*
X0129072Y0118000D03*
X0129072Y0118100D03*
X0129072Y0118200D03*
X0129072Y0118400D03*
X0129072Y0118600D03*
X0129072Y0118700D03*
X0129072Y0118800D03*
X0129072Y0119000D03*
X0129072Y0119100D03*
X0129072Y0119200D03*
X0129072Y0119300D03*
X0129072Y0119400D03*
X0129072Y0119600D03*
X0129072Y0119700D03*
X0129072Y0119800D03*
X0129072Y0120000D03*
X0129072Y0120100D03*
X0129072Y0120200D03*
X0129072Y0120300D03*
X0129072Y0120400D03*
X0129072Y0120500D03*
X0129072Y0120700D03*
X0129072Y0120900D03*
X0129072Y0121000D03*
X0129072Y0121200D03*
X0129072Y0121400D03*
X0129172Y0121600D03*
X0129172Y0121800D03*
X0129172Y0122000D03*
X0129172Y0122200D03*
X0129172Y0122300D03*
X0129172Y0122400D03*
X0129172Y0122500D03*
X0129172Y0122600D03*
X0129172Y0122800D03*
X0129272Y0123300D03*
X0129272Y0123400D03*
X0129272Y0123500D03*
X0129272Y0123600D03*
X0129272Y0123800D03*
X0129372Y0124100D03*
X0129372Y0124300D03*
X0129372Y0124400D03*
X0129372Y0124500D03*
X0129472Y0124800D03*
X0129472Y0125000D03*
X0129472Y0125100D03*
X0129472Y0125200D03*
X0129572Y0125500D03*
X0129572Y0125600D03*
X0129572Y0125700D03*
X0129572Y0125800D03*
X0129672Y0126100D03*
X0129672Y0126200D03*
X0129672Y0126300D03*
X0129672Y0126400D03*
X0129772Y0126600D03*
X0129772Y0126700D03*
X0129772Y0126800D03*
X0129872Y0127000D03*
X0129872Y0127100D03*
X0129872Y0127200D03*
X0129972Y0127400D03*
X0129972Y0127500D03*
X0129972Y0127600D03*
X0130072Y0127800D03*
X0130072Y0127900D03*
X0130072Y0128000D03*
X0130172Y0128200D03*
X0130172Y0128300D03*
X0130272Y0128500D03*
X0130272Y0128600D03*
X0130272Y0128700D03*
X0130372Y0128800D03*
X0130372Y0128900D03*
X0130372Y0129000D03*
X0130472Y0129200D03*
X0130472Y0129300D03*
X0130572Y0129500D03*
X0130572Y0129600D03*
X0130672Y0129700D03*
X0130672Y0129800D03*
X0130672Y0129900D03*
X0130772Y0130000D03*
X0130772Y0130100D03*
X0130872Y0130300D03*
X0130872Y0130400D03*
X0130972Y0130500D03*
X0130972Y0130600D03*
X0131072Y0130800D03*
X0131172Y0131000D03*
X0131172Y0131100D03*
X0131272Y0131200D03*
X0131272Y0131300D03*
X0131372Y0131400D03*
X0131372Y0131500D03*
X0131472Y0131600D03*
X0131472Y0131700D03*
X0131572Y0131800D03*
X0131572Y0131900D03*
X0131672Y0132000D03*
X0131772Y0132200D03*
X0131772Y0132300D03*
X0131872Y0132400D03*
X0131972Y0132600D03*
X0132072Y0132700D03*
X0132072Y0132800D03*
X0132172Y0132900D03*
X0132172Y0133000D03*
X0132272Y0133100D03*
X0132372Y0133200D03*
X0132372Y0133300D03*
X0132472Y0133400D03*
X0132572Y0133600D03*
X0132672Y0133700D03*
X0132772Y0133900D03*
X0132872Y0134000D03*
X0132972Y0134100D03*
X0132972Y0134200D03*
X0133072Y0134300D03*
X0133172Y0134400D03*
X0133272Y0134500D03*
X0133272Y0134600D03*
X0133372Y0134700D03*
X0133472Y0134800D03*
X0133572Y0134900D03*
X0133572Y0135000D03*
X0133672Y0135100D03*
X0133772Y0135200D03*
X0133872Y0135300D03*
X0133972Y0135400D03*
X0134072Y0135500D03*
X0134072Y0135600D03*
X0134372Y0135900D03*
X0134472Y0136000D03*
X0134572Y0136100D03*
X0134672Y0136200D03*
X0134772Y0136300D03*
X0134872Y0136400D03*
X0134972Y0136500D03*
X0135072Y0136600D03*
X0135172Y0136700D03*
X0135272Y0136800D03*
X0135372Y0136900D03*
X0135472Y0137000D03*
X0135572Y0137100D03*
X0135972Y0137400D03*
X0136072Y0137500D03*
X0136172Y0137600D03*
X0136272Y0137700D03*
X0136372Y0137800D03*
X0136572Y0137900D03*
X0136672Y0138000D03*
X0136772Y0138100D03*
X0136872Y0138200D03*
X0137072Y0138300D03*
X0137172Y0138400D03*
X0137272Y0138500D03*
X0137472Y0138600D03*
X0137572Y0138700D03*
X0137772Y0138800D03*
X0137872Y0138900D03*
X0138072Y0139000D03*
X0138372Y0139200D03*
X0138572Y0139300D03*
X0138672Y0139400D03*
X0138872Y0139500D03*
X0139372Y0139800D03*
X0139772Y0140000D03*
X0140872Y0140500D03*
X0141172Y0140600D03*
X0151372Y0141300D03*
X0151772Y0141200D03*
X0152572Y0140900D03*
X0153372Y0140600D03*
X0154772Y0140000D03*
X0139372Y0133900D03*
X0163372Y0131700D03*
X0163672Y0131000D03*
X0163972Y0130300D03*
X0164172Y0129800D03*
X0164272Y0129500D03*
X0164472Y0128900D03*
X0164572Y0128600D03*
X0164672Y0128200D03*
X0164772Y0128000D03*
X0164772Y0127900D03*
X0164872Y0127500D03*
X0164972Y0127300D03*
X0164972Y0127200D03*
X0164972Y0127100D03*
X0165072Y0126900D03*
X0165072Y0126700D03*
X0165172Y0126400D03*
X0165172Y0126300D03*
X0165272Y0126000D03*
X0165272Y0125900D03*
X0165272Y0125800D03*
X0165372Y0125500D03*
X0165372Y0125400D03*
X0165372Y0125300D03*
X0165372Y0125200D03*
X0165472Y0124900D03*
X0165472Y0124800D03*
X0165472Y0124700D03*
X0165472Y0124600D03*
X0165572Y0124400D03*
X0165572Y0124300D03*
X0165572Y0124200D03*
X0165572Y0124100D03*
X0165572Y0124000D03*
X0165572Y0123800D03*
X0165672Y0123600D03*
X0165672Y0123500D03*
X0165672Y0123400D03*
X0165672Y0123200D03*
X0165672Y0123000D03*
X0165772Y0122800D03*
X0165772Y0122700D03*
X0165772Y0122600D03*
X0165772Y0122500D03*
X0165772Y0122400D03*
X0165772Y0122300D03*
X0165772Y0122200D03*
X0165772Y0122100D03*
X0165772Y0122000D03*
X0165772Y0121900D03*
X0165872Y0121700D03*
X0165872Y0121500D03*
X0165872Y0121400D03*
X0165872Y0121300D03*
X0165872Y0121200D03*
X0165872Y0121100D03*
X0165872Y0121000D03*
X0165872Y0120900D03*
X0165872Y0120800D03*
X0165872Y0120700D03*
X0165872Y0120500D03*
X0165872Y0120300D03*
X0165972Y0120200D03*
X0165972Y0120100D03*
X0165972Y0119700D03*
X0165972Y0119600D03*
X0165972Y0119500D03*
X0165972Y0119400D03*
X0165972Y0119300D03*
X0165972Y0119200D03*
X0165972Y0119100D03*
X0165972Y0119000D03*
X0165972Y0118900D03*
X0165972Y0118800D03*
X0165972Y0118700D03*
X0165972Y0118600D03*
X0165972Y0118500D03*
X0165972Y0118400D03*
X0165972Y0118300D03*
X0165972Y0118200D03*
X0165972Y0118100D03*
X0165972Y0118000D03*
X0165972Y0117900D03*
X0165972Y0117800D03*
X0165972Y0117700D03*
X0165972Y0117600D03*
X0165972Y0117500D03*
X0165972Y0117400D03*
X0165972Y0117300D03*
X0165972Y0117200D03*
X0165972Y0117100D03*
X0165972Y0117000D03*
X0165972Y0116900D03*
X0165972Y0116800D03*
X0165972Y0116700D03*
X0165972Y0116600D03*
X0165972Y0116500D03*
X0165972Y0116400D03*
X0165972Y0116300D03*
X0165972Y0116200D03*
X0165972Y0116000D03*
X0165972Y0115900D03*
X0165972Y0115700D03*
X0165972Y0115400D03*
X0165872Y0115300D03*
X0165872Y0115200D03*
X0165872Y0115000D03*
X0165872Y0114800D03*
X0165872Y0114700D03*
X0165872Y0114600D03*
X0165872Y0114500D03*
X0165872Y0114400D03*
X0165872Y0114300D03*
X0165872Y0114200D03*
X0165872Y0114100D03*
X0165872Y0114000D03*
X0165872Y0113900D03*
X0165772Y0113500D03*
X0165772Y0113300D03*
X0165772Y0113200D03*
X0165772Y0113100D03*
X0165772Y0113000D03*
X0165772Y0112900D03*
X0165772Y0112800D03*
X0165772Y0112700D03*
X0165772Y0112600D03*
X0165772Y0112300D03*
X0165672Y0112200D03*
X0165672Y0112100D03*
X0165672Y0112000D03*
X0165672Y0111900D03*
X0165672Y0111800D03*
X0165672Y0111700D03*
X0165672Y0111600D03*
X0165672Y0111500D03*
X0165672Y0111300D03*
X0165572Y0111200D03*
X0165572Y0111100D03*
X0165572Y0111000D03*
X0165572Y0110900D03*
X0165572Y0110800D03*
X0165572Y0110700D03*
X0165572Y0110600D03*
X0165572Y0110500D03*
X0165572Y0110300D03*
X0165472Y0110100D03*
X0165472Y0110000D03*
X0165472Y0109900D03*
X0165472Y0109800D03*
X0165472Y0109700D03*
X0165472Y0109600D03*
X0165472Y0109500D03*
X0165372Y0109300D03*
X0165372Y0109200D03*
X0165372Y0109100D03*
X0165372Y0109000D03*
X0165372Y0108900D03*
X0165372Y0108800D03*
X0165372Y0108700D03*
X0165372Y0108600D03*
X0165272Y0108400D03*
X0165272Y0108300D03*
X0165272Y0108200D03*
X0165272Y0108100D03*
X0165272Y0108000D03*
X0165172Y0107600D03*
X0165172Y0107500D03*
X0165172Y0107400D03*
X0165172Y0107300D03*
X0165172Y0107100D03*
X0165072Y0107000D03*
X0165072Y0106800D03*
X0165072Y0106700D03*
X0165072Y0106600D03*
X0165072Y0106500D03*
X0164972Y0106100D03*
X0164972Y0106000D03*
X0164972Y0105900D03*
X0164972Y0105700D03*
X0164872Y0105500D03*
X0164872Y0105300D03*
X0164872Y0105200D03*
X0164872Y0105100D03*
X0164772Y0104800D03*
X0164772Y0104700D03*
X0164772Y0104500D03*
X0164672Y0104200D03*
X0164672Y0104000D03*
X0164672Y0103900D03*
X0164572Y0103500D03*
X0164572Y0103300D03*
X0164472Y0102900D03*
X0164472Y0102800D03*
X0164472Y0102600D03*
X0164372Y0102300D03*
X0164372Y0102200D03*
X0164272Y0101700D03*
X0164272Y0101600D03*
X0164172Y0101200D03*
X0164172Y0101000D03*
X0164072Y0100600D03*
X0163872Y0099600D03*
X0163872Y0099500D03*
X0163672Y0098700D03*
X0151772Y0095100D03*
X0147372Y0092300D03*
X0136972Y0086600D03*
X0136872Y0086700D03*
X0136772Y0086900D03*
X0136672Y0087000D03*
X0136572Y0087100D03*
X0136472Y0087300D03*
X0136372Y0087400D03*
X0136272Y0087500D03*
X0136172Y0087700D03*
X0136072Y0087800D03*
X0135972Y0087900D03*
X0135872Y0088100D03*
X0135772Y0088200D03*
X0135672Y0088400D03*
X0135572Y0088500D03*
X0135472Y0088700D03*
X0135372Y0088800D03*
X0135372Y0088900D03*
X0135272Y0089000D03*
X0135172Y0089200D03*
X0135072Y0089300D03*
X0134972Y0089500D03*
X0134872Y0089700D03*
X0134772Y0089800D03*
X0134772Y0089900D03*
X0134672Y0090000D03*
X0134572Y0090200D03*
X0134472Y0090400D03*
X0134372Y0090500D03*
X0134372Y0090600D03*
X0134272Y0090800D03*
X0134172Y0090900D03*
X0134072Y0091100D03*
X0134072Y0091200D03*
X0133972Y0091300D03*
X0133872Y0091500D03*
X0133872Y0091600D03*
X0133772Y0091700D03*
X0133772Y0091800D03*
X0133672Y0091900D03*
X0133672Y0092000D03*
X0133572Y0092200D03*
X0133472Y0092400D03*
X0133372Y0092600D03*
X0133372Y0092700D03*
X0133272Y0092800D03*
X0133272Y0092900D03*
X0133172Y0093100D03*
X0133072Y0093300D03*
X0133072Y0093400D03*
X0132972Y0093600D03*
X0132872Y0093800D03*
X0132872Y0093900D03*
X0132772Y0094100D03*
X0132672Y0094300D03*
X0132672Y0094400D03*
X0132572Y0094600D03*
X0132572Y0094700D03*
X0132472Y0094900D03*
X0132472Y0095000D03*
X0132372Y0095200D03*
X0132272Y0095500D03*
X0132272Y0095600D03*
X0132172Y0095800D03*
X0132172Y0095900D03*
X0132072Y0096100D03*
X0132072Y0096200D03*
X0131972Y0096400D03*
X0131972Y0096500D03*
X0131872Y0096700D03*
X0131872Y0096800D03*
X0131872Y0096900D03*
X0131772Y0097100D03*
X0131772Y0097200D03*
X0131672Y0097400D03*
X0131672Y0097500D03*
X0131672Y0097600D03*
X0131572Y0097800D03*
X0131572Y0097900D03*
X0131472Y0098200D03*
X0131472Y0098300D03*
X0139172Y0101200D03*
X0097072Y0108200D03*
X0095872Y0108200D03*
X0095072Y0108200D03*
X0094272Y0108200D03*
X0139172Y0117400D03*
X0137072Y0086500D03*
X0137272Y0086300D03*
X0137272Y0086200D03*
X0137472Y0086000D03*
X0137572Y0085900D03*
X0137672Y0085800D03*
X0137972Y0085500D03*
X0138072Y0085400D03*
X0138572Y0085000D03*
X0153472Y0083400D03*
X0154172Y0083700D03*
X0154372Y0083800D03*
X0154572Y0083900D03*
X0154672Y0084000D03*
X0154872Y0084100D03*
X0155072Y0084200D03*
X0155372Y0084400D03*
X0155672Y0084600D03*
X0156172Y0085000D03*
X0156572Y0085300D03*
D23*
X0156422Y0085200D03*
X0156322Y0085100D03*
X0156122Y0084900D03*
X0155922Y0084800D03*
X0155822Y0084700D03*
X0155522Y0084500D03*
X0155222Y0084300D03*
X0156822Y0085500D03*
X0156922Y0085600D03*
X0157022Y0085700D03*
X0157122Y0085800D03*
X0157222Y0085900D03*
X0157322Y0086000D03*
X0157422Y0086100D03*
X0157522Y0086200D03*
X0157622Y0086300D03*
X0157722Y0086400D03*
X0157822Y0086500D03*
X0157922Y0086700D03*
X0158122Y0086900D03*
X0158222Y0087000D03*
X0158322Y0087100D03*
X0158422Y0087200D03*
X0158522Y0087300D03*
X0158622Y0087400D03*
X0158722Y0087600D03*
X0158822Y0087700D03*
X0158922Y0087800D03*
X0159022Y0087900D03*
X0159122Y0088100D03*
X0159222Y0088200D03*
X0159322Y0088300D03*
X0159422Y0088500D03*
X0159522Y0088600D03*
X0159622Y0088800D03*
X0159722Y0088900D03*
X0159822Y0089000D03*
X0159922Y0089200D03*
X0160022Y0089300D03*
X0160122Y0089500D03*
X0160222Y0089700D03*
X0160322Y0089800D03*
X0160422Y0090000D03*
X0160522Y0090200D03*
X0160622Y0090300D03*
X0160722Y0090500D03*
X0160822Y0090700D03*
X0160922Y0090900D03*
X0161022Y0091100D03*
X0161122Y0091200D03*
X0161122Y0091300D03*
X0161222Y0091400D03*
X0161322Y0091600D03*
X0161322Y0091700D03*
X0161422Y0091900D03*
X0161522Y0092000D03*
X0161522Y0092100D03*
X0161622Y0092300D03*
X0161722Y0092500D03*
X0161722Y0092600D03*
X0161822Y0092700D03*
X0161822Y0092800D03*
X0161922Y0093000D03*
X0162022Y0093200D03*
X0162022Y0093300D03*
X0162122Y0093500D03*
X0162122Y0093600D03*
X0162222Y0093800D03*
X0162322Y0094000D03*
X0162322Y0094100D03*
X0162422Y0094300D03*
X0162422Y0094400D03*
X0162522Y0094600D03*
X0162522Y0094700D03*
X0162622Y0094900D03*
X0162622Y0095000D03*
X0162722Y0095100D03*
X0162722Y0095200D03*
X0162722Y0095300D03*
X0162822Y0095500D03*
X0162822Y0095600D03*
X0162922Y0095800D03*
X0162922Y0095900D03*
X0162922Y0096000D03*
X0163022Y0096100D03*
X0163022Y0096200D03*
X0163022Y0096300D03*
X0163122Y0096500D03*
X0163122Y0096600D03*
X0163122Y0096700D03*
X0163222Y0096800D03*
X0163222Y0096900D03*
X0163222Y0097000D03*
X0163322Y0097100D03*
X0163322Y0097200D03*
X0163322Y0097300D03*
X0163322Y0097400D03*
X0163422Y0097600D03*
X0163422Y0097700D03*
X0163422Y0097800D03*
X0163522Y0097900D03*
X0163522Y0098000D03*
X0163522Y0098100D03*
X0163522Y0098200D03*
X0163622Y0098300D03*
X0163622Y0098400D03*
X0163622Y0098500D03*
X0163622Y0098600D03*
X0163722Y0098800D03*
X0163722Y0098900D03*
X0163722Y0099000D03*
X0163722Y0099100D03*
X0163822Y0099200D03*
X0163822Y0099300D03*
X0163822Y0099400D03*
X0163922Y0099700D03*
X0163922Y0099800D03*
X0163922Y0099900D03*
X0163922Y0100000D03*
X0164022Y0100100D03*
X0164022Y0100200D03*
X0164022Y0100300D03*
X0164022Y0100400D03*
X0164022Y0100500D03*
X0164122Y0100700D03*
X0164122Y0100800D03*
X0164122Y0100900D03*
X0164122Y0101100D03*
X0164222Y0101300D03*
X0164222Y0101400D03*
X0164222Y0101500D03*
X0164322Y0101800D03*
X0164322Y0101900D03*
X0164322Y0102000D03*
X0164322Y0102100D03*
X0164422Y0102400D03*
X0164422Y0102500D03*
X0164422Y0102700D03*
X0164522Y0103000D03*
X0164522Y0103100D03*
X0164522Y0103200D03*
X0164622Y0103400D03*
X0164622Y0103600D03*
X0164622Y0103700D03*
X0164622Y0103800D03*
X0164722Y0104100D03*
X0164722Y0104300D03*
X0164722Y0104400D03*
X0164722Y0104600D03*
X0164822Y0104900D03*
X0164822Y0105000D03*
X0164922Y0105400D03*
X0164922Y0105600D03*
X0164922Y0105800D03*
X0165022Y0106200D03*
X0165022Y0106300D03*
X0165022Y0106400D03*
X0165122Y0106900D03*
X0165122Y0107200D03*
X0165222Y0107700D03*
X0165222Y0107900D03*
X0165322Y0108500D03*
X0165422Y0109400D03*
X0165522Y0110200D03*
X0165522Y0110400D03*
X0165622Y0111400D03*
X0165722Y0112500D03*
X0165822Y0113400D03*
X0165822Y0113800D03*
X0165922Y0115100D03*
X0165922Y0115600D03*
X0160322Y0117300D03*
X0159022Y0118600D03*
X0165922Y0119900D03*
X0165922Y0120000D03*
X0165922Y0120400D03*
X0165922Y0120600D03*
X0165822Y0121600D03*
X0165822Y0121800D03*
X0165722Y0122900D03*
X0165722Y0123100D03*
X0165722Y0123300D03*
X0165622Y0123700D03*
X0165622Y0123900D03*
X0165522Y0124500D03*
X0165422Y0125000D03*
X0165422Y0125100D03*
X0165322Y0125600D03*
X0165322Y0125700D03*
X0165222Y0126100D03*
X0165222Y0126200D03*
X0165122Y0126500D03*
X0165122Y0126600D03*
X0165022Y0126800D03*
X0165022Y0127000D03*
X0164922Y0127400D03*
X0164822Y0127600D03*
X0164822Y0127700D03*
X0164822Y0127800D03*
X0164722Y0128100D03*
X0164722Y0128300D03*
X0164622Y0128400D03*
X0164622Y0128500D03*
X0164522Y0128700D03*
X0164522Y0128800D03*
X0164422Y0129000D03*
X0164422Y0129100D03*
X0164422Y0129200D03*
X0164322Y0129300D03*
X0164322Y0129400D03*
X0164222Y0129600D03*
X0164222Y0129700D03*
X0164122Y0129900D03*
X0164122Y0130000D03*
X0164022Y0130100D03*
X0164022Y0130200D03*
X0163922Y0130400D03*
X0163922Y0130500D03*
X0163822Y0130600D03*
X0163822Y0130700D03*
X0163822Y0130800D03*
X0163722Y0130900D03*
X0163622Y0131100D03*
X0163622Y0131200D03*
X0163522Y0131300D03*
X0163522Y0131400D03*
X0163422Y0131500D03*
X0163422Y0131600D03*
X0163322Y0131800D03*
X0163222Y0131900D03*
X0163222Y0132000D03*
X0163122Y0132100D03*
X0163122Y0132200D03*
X0163022Y0132300D03*
X0163022Y0132400D03*
X0163022Y0132500D03*
X0162922Y0132600D03*
X0162822Y0132700D03*
X0162822Y0132800D03*
X0162722Y0132900D03*
X0162722Y0133000D03*
X0162622Y0133100D03*
X0162622Y0133200D03*
X0162522Y0133300D03*
X0162422Y0133400D03*
X0162422Y0133500D03*
X0162322Y0133600D03*
X0162322Y0133700D03*
X0162222Y0133800D03*
X0162122Y0133900D03*
X0162122Y0134000D03*
X0162022Y0134100D03*
X0161922Y0134300D03*
X0161822Y0134400D03*
X0161722Y0134500D03*
X0161622Y0134700D03*
X0161522Y0134800D03*
X0161422Y0134900D03*
X0161322Y0135000D03*
X0161222Y0135200D03*
X0161122Y0135300D03*
X0161022Y0135400D03*
X0160922Y0135500D03*
X0160822Y0135600D03*
X0160622Y0135800D03*
X0160622Y0135900D03*
X0160422Y0136100D03*
X0160222Y0136300D03*
X0160122Y0136400D03*
X0159922Y0136500D03*
X0159722Y0136700D03*
X0159622Y0136800D03*
X0159522Y0136900D03*
X0159422Y0137000D03*
X0159222Y0137200D03*
X0159022Y0137300D03*
X0158822Y0137500D03*
X0158722Y0137600D03*
X0158522Y0137700D03*
X0158322Y0137900D03*
X0158022Y0138100D03*
X0157922Y0138200D03*
X0157722Y0138300D03*
X0157622Y0138400D03*
X0157422Y0138500D03*
X0157122Y0138700D03*
X0156822Y0138900D03*
X0156622Y0139000D03*
X0156422Y0139100D03*
X0156322Y0139200D03*
X0156122Y0139300D03*
X0155922Y0139400D03*
X0155722Y0139500D03*
X0155422Y0139700D03*
X0155122Y0139800D03*
X0154922Y0139900D03*
X0154522Y0140100D03*
X0154322Y0140200D03*
X0154122Y0140300D03*
X0153622Y0140500D03*
X0153122Y0140700D03*
X0152922Y0140800D03*
X0152322Y0141000D03*
X0152022Y0141100D03*
X0149822Y0141500D03*
X0149522Y0141500D03*
X0147822Y0141600D03*
X0145422Y0141500D03*
X0140422Y0140300D03*
X0139022Y0139600D03*
X0135822Y0137300D03*
X0134322Y0135800D03*
X0139422Y0134000D03*
X0155522Y0134000D03*
X0138622Y0123000D03*
X0138222Y0123000D03*
X0129222Y0123100D03*
X0135822Y0118600D03*
X0134722Y0117300D03*
X0139322Y0117500D03*
X0098822Y0104200D03*
X0097622Y0104200D03*
X0095822Y0104200D03*
X0093622Y0104200D03*
X0093022Y0108200D03*
X0096622Y0108200D03*
X0081022Y0092700D03*
X0080422Y0092700D03*
X0078622Y0092700D03*
X0078022Y0092700D03*
X0076222Y0092700D03*
X0075622Y0092700D03*
X0075022Y0092700D03*
X0074422Y0092700D03*
X0073622Y0092700D03*
X0024822Y0108000D03*
X0023822Y0108000D03*
X0022322Y0108000D03*
X0020622Y0108000D03*
X0019022Y0104000D03*
X0041622Y0121900D03*
X0042222Y0121900D03*
X0042722Y0121900D03*
X0043222Y0121900D03*
X0043522Y0121900D03*
X0043822Y0121900D03*
X0044222Y0121900D03*
X0044822Y0121900D03*
X0045422Y0121900D03*
X0045922Y0121900D03*
X0046422Y0121900D03*
X0046722Y0121900D03*
X0047022Y0121900D03*
X0047422Y0121900D03*
X0048022Y0121900D03*
X0048622Y0121900D03*
X0053422Y0138600D03*
X0055322Y0138900D03*
X0063622Y0138900D03*
X0065422Y0138600D03*
X0053422Y0146000D03*
X0151422Y0095100D03*
X0148922Y0092300D03*
X0147822Y0088600D03*
X0062822Y0065400D03*
X0054922Y0065500D03*
D24*
X0056522Y0065500D03*
X0063322Y0065600D03*
X0147522Y0088800D03*
X0157122Y0105300D03*
X0157122Y0105500D03*
X0157222Y0105700D03*
X0137822Y0105400D03*
X0137822Y0105300D03*
X0157922Y0116200D03*
X0156922Y0130900D03*
X0138122Y0130900D03*
X0138022Y0130600D03*
D25*
X0137722Y0129500D03*
X0137722Y0129400D03*
X0137622Y0129100D03*
X0138022Y0122700D03*
X0137022Y0116400D03*
X0137422Y0107300D03*
X0137522Y0107000D03*
X0157422Y0107000D03*
X0157522Y0107100D03*
X0157522Y0107200D03*
X0157522Y0107300D03*
X0147422Y0088900D03*
X0063622Y0065700D03*
X0157322Y0129400D03*
X0157322Y0129500D03*
X0157222Y0129700D03*
D26*
X0157522Y0128400D03*
X0157522Y0128300D03*
X0157622Y0128000D03*
X0157622Y0127900D03*
X0157622Y0127800D03*
X0157122Y0122800D03*
X0157922Y0116700D03*
X0157722Y0108500D03*
X0157722Y0108400D03*
X0157722Y0108300D03*
X0137322Y0108300D03*
X0137222Y0108500D03*
X0137222Y0108600D03*
X0137222Y0108700D03*
X0137222Y0108800D03*
X0136922Y0114100D03*
X0137022Y0116600D03*
X0137422Y0128000D03*
X0137422Y0128100D03*
X0137422Y0128200D03*
X0147422Y0089000D03*
X0055922Y0065600D03*
D27*
X0055672Y0065700D03*
X0063972Y0065800D03*
X0147372Y0089100D03*
X0157972Y0110000D03*
X0157972Y0110100D03*
X0157972Y0110200D03*
X0158072Y0110400D03*
X0158072Y0110600D03*
X0158172Y0113800D03*
X0136772Y0113500D03*
X0136772Y0113300D03*
X0136772Y0113200D03*
X0136772Y0113100D03*
X0136772Y0112900D03*
X0136772Y0112600D03*
X0136872Y0111400D03*
X0136872Y0111300D03*
X0136872Y0111200D03*
X0136872Y0111100D03*
X0136872Y0111000D03*
X0136972Y0110600D03*
X0136372Y0119000D03*
D28*
X0136472Y0119100D03*
X0147372Y0089200D03*
D29*
X0147422Y0089300D03*
D30*
X0147372Y0089400D03*
X0137772Y0122200D03*
D31*
X0147322Y0089500D03*
D32*
X0147322Y0089600D03*
X0064822Y0066100D03*
X0137722Y0122000D03*
X0157322Y0122100D03*
D33*
X0137072Y0116100D03*
X0136072Y0118800D03*
X0137972Y0130500D03*
X0138072Y0130700D03*
X0156872Y0131000D03*
X0156972Y0130800D03*
X0156972Y0130700D03*
X0157272Y0106000D03*
X0157272Y0105900D03*
X0157172Y0105600D03*
X0137772Y0105600D03*
X0137772Y0105700D03*
X0137772Y0105500D03*
X0145872Y0089700D03*
D34*
X0149372Y0089700D03*
X0138272Y0103500D03*
X0138272Y0103700D03*
X0156772Y0103700D03*
X0156772Y0103800D03*
X0135972Y0118700D03*
X0138472Y0131900D03*
X0138472Y0132000D03*
X0156472Y0132300D03*
D35*
X0156572Y0132000D03*
X0156672Y0131900D03*
X0138372Y0131700D03*
X0157872Y0116000D03*
X0156972Y0104500D03*
X0156872Y0104300D03*
X0156872Y0104200D03*
X0156872Y0104100D03*
X0138172Y0104100D03*
X0138072Y0104200D03*
X0145572Y0089800D03*
D36*
X0149572Y0089800D03*
X0156672Y0103300D03*
X0156672Y0103400D03*
X0138372Y0103200D03*
X0138272Y0103400D03*
X0138572Y0132200D03*
X0156372Y0132500D03*
X0156372Y0132600D03*
D37*
X0156272Y0132800D03*
X0138672Y0132500D03*
X0156872Y0123100D03*
X0135672Y0117000D03*
X0138472Y0103000D03*
X0138472Y0102900D03*
X0156572Y0102900D03*
X0156572Y0103000D03*
X0149772Y0089900D03*
X0145272Y0089900D03*
X0062072Y0146300D03*
D38*
X0137372Y0127900D03*
X0137372Y0127800D03*
X0137372Y0127700D03*
X0137272Y0127400D03*
X0137272Y0127300D03*
X0157572Y0128100D03*
X0157672Y0127700D03*
X0157672Y0127600D03*
X0157672Y0127500D03*
X0157772Y0127100D03*
X0157772Y0108800D03*
X0157772Y0108700D03*
X0157772Y0108600D03*
X0137172Y0108900D03*
X0137172Y0109000D03*
X0137172Y0109100D03*
X0147872Y0092400D03*
D39*
X0147772Y0092500D03*
X0157172Y0122500D03*
D40*
X0157872Y0119500D03*
X0137772Y0121900D03*
X0136872Y0119500D03*
X0147672Y0092600D03*
D41*
X0147722Y0092700D03*
X0157822Y0120000D03*
X0157522Y0121600D03*
X0137522Y0121300D03*
X0137222Y0120200D03*
X0137122Y0120000D03*
X0054022Y0145500D03*
X0054522Y0066100D03*
D42*
X0147672Y0092800D03*
D43*
X0147622Y0092900D03*
X0095322Y0097100D03*
X0095222Y0096800D03*
X0095122Y0096400D03*
X0095022Y0096100D03*
X0095022Y0096000D03*
X0095022Y0095900D03*
X0094922Y0095700D03*
X0094922Y0095600D03*
X0094822Y0095400D03*
X0094822Y0095300D03*
X0094822Y0095200D03*
X0094722Y0095100D03*
X0094722Y0095000D03*
X0094622Y0094700D03*
X0095322Y0114600D03*
X0095222Y0114900D03*
X0095122Y0115200D03*
X0095122Y0115300D03*
X0095122Y0115400D03*
X0095022Y0115600D03*
X0095022Y0115700D03*
X0095022Y0115800D03*
X0094922Y0115900D03*
X0094922Y0116000D03*
X0094922Y0116100D03*
X0094922Y0116200D03*
X0094822Y0116300D03*
X0094822Y0116400D03*
X0094822Y0116500D03*
X0094722Y0116700D03*
X0094622Y0117000D03*
X0024322Y0117400D03*
X0024222Y0117100D03*
X0024222Y0117000D03*
X0024122Y0116700D03*
X0024022Y0116500D03*
X0024022Y0116400D03*
X0024022Y0116300D03*
X0023922Y0116200D03*
X0023922Y0116100D03*
X0023922Y0116000D03*
X0023922Y0115900D03*
X0023822Y0115800D03*
X0023822Y0115700D03*
X0023822Y0115600D03*
X0023722Y0115400D03*
X0023722Y0115300D03*
X0023722Y0115200D03*
X0023622Y0115000D03*
X0023522Y0114600D03*
X0023322Y0113800D03*
X0023522Y0097100D03*
X0023622Y0096900D03*
X0023622Y0096800D03*
X0023622Y0096600D03*
X0023722Y0096400D03*
X0023722Y0096300D03*
X0023822Y0096200D03*
X0023822Y0096000D03*
X0023822Y0095900D03*
X0023922Y0095800D03*
X0023922Y0095700D03*
X0023922Y0095600D03*
X0023922Y0095500D03*
X0024022Y0095400D03*
X0024022Y0095300D03*
X0024122Y0095000D03*
X0024222Y0094700D03*
D44*
X0026222Y0089700D03*
X0026322Y0089500D03*
X0026422Y0089400D03*
X0026422Y0089300D03*
X0026522Y0089200D03*
X0026522Y0089100D03*
X0026622Y0089000D03*
X0026622Y0088900D03*
X0026822Y0088600D03*
X0065922Y0066700D03*
X0092022Y0088600D03*
X0092122Y0088700D03*
X0092122Y0088800D03*
X0092222Y0088900D03*
X0092222Y0089000D03*
X0092322Y0089100D03*
X0092322Y0089200D03*
X0092422Y0089300D03*
X0092422Y0089400D03*
X0092522Y0089500D03*
X0092622Y0089700D03*
X0147622Y0093000D03*
X0092622Y0122000D03*
X0092522Y0122200D03*
X0092422Y0122300D03*
X0092422Y0122400D03*
X0092322Y0122500D03*
X0092322Y0122600D03*
X0092222Y0122700D03*
X0092122Y0122900D03*
X0092122Y0123000D03*
X0053222Y0145100D03*
X0026922Y0123300D03*
X0026722Y0122900D03*
X0026622Y0122800D03*
X0026522Y0122600D03*
X0026522Y0122500D03*
X0026422Y0122400D03*
X0026322Y0122200D03*
D45*
X0027472Y0124300D03*
X0027572Y0124400D03*
X0027572Y0124500D03*
X0027672Y0124600D03*
X0027772Y0124800D03*
X0027872Y0124900D03*
X0027872Y0125000D03*
X0052972Y0145000D03*
X0090872Y0125100D03*
X0090972Y0125000D03*
X0091072Y0124800D03*
X0091172Y0124600D03*
X0091272Y0124500D03*
X0091372Y0124300D03*
X0091572Y0123900D03*
X0147572Y0093100D03*
X0091372Y0087500D03*
X0091372Y0087400D03*
X0091172Y0087100D03*
X0091172Y0087000D03*
X0091072Y0086900D03*
X0090972Y0086700D03*
X0090872Y0086600D03*
X0053672Y0066500D03*
X0027872Y0086700D03*
X0027772Y0086900D03*
X0027672Y0087100D03*
X0027572Y0087200D03*
X0027572Y0087300D03*
X0027472Y0087400D03*
D46*
X0028972Y0085100D03*
X0029072Y0085000D03*
X0029072Y0084900D03*
X0029172Y0084800D03*
X0029272Y0084600D03*
X0029372Y0084500D03*
X0045072Y0088100D03*
X0045372Y0088700D03*
X0045572Y0089100D03*
X0046072Y0090100D03*
X0046972Y0091900D03*
X0047072Y0092100D03*
X0047772Y0093500D03*
X0047972Y0093900D03*
X0048172Y0094300D03*
X0048672Y0095300D03*
X0048772Y0095500D03*
X0049272Y0096400D03*
X0049672Y0097200D03*
X0050172Y0098300D03*
X0050372Y0098700D03*
X0050672Y0099300D03*
X0051472Y0100900D03*
X0052072Y0102100D03*
X0052172Y0102300D03*
X0052272Y0102500D03*
X0052872Y0103600D03*
X0052972Y0103900D03*
X0062372Y0104800D03*
X0063172Y0103200D03*
X0067972Y0093700D03*
X0068272Y0093000D03*
X0068472Y0092700D03*
X0089472Y0084500D03*
X0089672Y0084700D03*
X0089672Y0084800D03*
X0089772Y0084900D03*
X0089772Y0085000D03*
X0089972Y0085200D03*
X0053472Y0066600D03*
X0147572Y0093200D03*
X0057872Y0113600D03*
X0057872Y0113700D03*
X0054172Y0121200D03*
X0054072Y0121400D03*
X0053872Y0121800D03*
X0053772Y0121900D03*
X0029272Y0127100D03*
X0029172Y0126900D03*
X0029072Y0126800D03*
X0028972Y0126600D03*
X0028872Y0126500D03*
X0065672Y0145000D03*
X0089472Y0127200D03*
X0089672Y0126900D03*
X0089772Y0126800D03*
D47*
X0088372Y0128600D03*
X0088272Y0128700D03*
X0065972Y0144900D03*
X0030572Y0128800D03*
X0030472Y0128600D03*
X0030372Y0128500D03*
X0030272Y0128400D03*
X0147572Y0093300D03*
X0088672Y0083400D03*
X0088472Y0083200D03*
X0088372Y0083100D03*
X0088272Y0082900D03*
X0088072Y0082700D03*
X0066572Y0067000D03*
X0030672Y0082800D03*
X0030572Y0083000D03*
X0030372Y0083200D03*
D48*
X0030772Y0082700D03*
X0030872Y0082600D03*
X0031072Y0082400D03*
X0031172Y0082200D03*
X0087672Y0082200D03*
X0087872Y0082500D03*
X0087972Y0082600D03*
X0147572Y0093400D03*
X0087972Y0129100D03*
X0087772Y0129300D03*
X0087672Y0129500D03*
X0066072Y0144800D03*
X0030972Y0129200D03*
X0030872Y0129100D03*
D49*
X0031722Y0130100D03*
X0031822Y0130200D03*
X0031922Y0130300D03*
X0032022Y0130400D03*
X0057922Y0112800D03*
X0057922Y0112700D03*
X0086822Y0130400D03*
X0087122Y0130100D03*
X0147522Y0093500D03*
X0087122Y0081600D03*
X0087022Y0081500D03*
X0086922Y0081400D03*
X0086822Y0081300D03*
X0052922Y0066900D03*
X0032022Y0081300D03*
X0031722Y0081600D03*
D50*
X0032372Y0080900D03*
X0032672Y0080600D03*
X0032772Y0080500D03*
X0032872Y0080400D03*
X0085772Y0080200D03*
X0086072Y0080500D03*
X0086172Y0080600D03*
X0086272Y0080700D03*
X0086372Y0080800D03*
X0147572Y0093600D03*
X0057872Y0112400D03*
X0057872Y0112500D03*
X0032872Y0131300D03*
X0032772Y0131200D03*
X0032672Y0131100D03*
X0032572Y0131000D03*
X0085972Y0131300D03*
X0086072Y0131200D03*
X0086172Y0131100D03*
X0086372Y0130900D03*
D51*
X0052122Y0144500D03*
X0033522Y0131900D03*
X0057922Y0112200D03*
X0147522Y0093700D03*
X0085322Y0079800D03*
X0033622Y0079700D03*
X0033522Y0079800D03*
X0033322Y0079900D03*
D52*
X0033922Y0079400D03*
X0034022Y0079300D03*
X0067122Y0067400D03*
X0084722Y0079200D03*
X0084922Y0079400D03*
X0147522Y0093800D03*
X0085022Y0132200D03*
X0084922Y0132300D03*
X0084822Y0132400D03*
X0084722Y0132500D03*
X0052022Y0144400D03*
X0034122Y0132500D03*
X0033922Y0132300D03*
D53*
X0034322Y0132700D03*
X0034422Y0132800D03*
X0051822Y0144300D03*
X0066722Y0144400D03*
X0084322Y0132800D03*
X0084522Y0132700D03*
X0057922Y0111800D03*
X0057922Y0111700D03*
X0147522Y0093900D03*
X0084522Y0079000D03*
X0067322Y0067500D03*
X0034422Y0078900D03*
D54*
X0034822Y0078600D03*
X0034922Y0078500D03*
X0035022Y0078400D03*
X0083822Y0078400D03*
X0083922Y0078500D03*
X0084022Y0078600D03*
X0147522Y0094000D03*
X0057922Y0111600D03*
X0035022Y0133300D03*
X0034922Y0133200D03*
X0034822Y0133100D03*
X0083822Y0133300D03*
X0083922Y0133200D03*
X0084022Y0133100D03*
D55*
X0083622Y0133500D03*
X0083422Y0133600D03*
X0083322Y0133700D03*
X0051722Y0144200D03*
X0035522Y0133700D03*
X0035322Y0133500D03*
X0057922Y0111400D03*
X0057922Y0111300D03*
X0147522Y0094100D03*
X0083322Y0078000D03*
X0035522Y0078000D03*
X0035422Y0078100D03*
X0035222Y0078200D03*
D56*
X0035772Y0077800D03*
X0083472Y0078100D03*
X0147472Y0094200D03*
X0035372Y0133600D03*
X0066872Y0144300D03*
D57*
X0067022Y0144200D03*
X0082822Y0134100D03*
X0083022Y0133900D03*
X0035822Y0133900D03*
X0035622Y0133800D03*
X0057922Y0111200D03*
X0057922Y0111100D03*
X0147522Y0094300D03*
X0083222Y0077900D03*
X0083022Y0077800D03*
X0035622Y0077900D03*
D58*
X0036322Y0077400D03*
X0082822Y0077600D03*
X0147522Y0094400D03*
X0057922Y0111000D03*
X0036322Y0134300D03*
X0036122Y0134200D03*
X0036022Y0134100D03*
X0051422Y0144000D03*
X0082722Y0134200D03*
D59*
X0082572Y0134300D03*
X0082372Y0134400D03*
X0057872Y0110900D03*
X0057872Y0110800D03*
X0147472Y0094500D03*
X0082572Y0077400D03*
X0082272Y0077200D03*
X0067772Y0067800D03*
X0051972Y0067500D03*
X0036572Y0077200D03*
X0036172Y0077500D03*
D60*
X0036672Y0077100D03*
X0081872Y0076900D03*
X0147472Y0094600D03*
X0147472Y0094700D03*
X0057872Y0110700D03*
D61*
X0057922Y0110600D03*
X0036822Y0134700D03*
X0036922Y0134800D03*
X0081722Y0134900D03*
X0147422Y0095000D03*
X0147522Y0094800D03*
X0082122Y0077100D03*
X0082022Y0077000D03*
X0037122Y0076800D03*
X0036922Y0076900D03*
X0036822Y0077000D03*
D62*
X0037372Y0076600D03*
X0051872Y0067600D03*
X0067872Y0067900D03*
X0067972Y0068000D03*
X0081772Y0076800D03*
X0147472Y0094900D03*
X0057872Y0110400D03*
X0057872Y0110500D03*
X0037272Y0135000D03*
X0037072Y0134900D03*
X0051272Y0143900D03*
X0067272Y0144000D03*
X0081872Y0134800D03*
D63*
X0065372Y0145200D03*
X0026372Y0122300D03*
X0026272Y0122100D03*
X0026272Y0122000D03*
X0026172Y0121900D03*
X0026172Y0121800D03*
X0026072Y0121700D03*
X0025972Y0121500D03*
X0025972Y0121400D03*
X0025872Y0121200D03*
X0092572Y0122100D03*
X0092672Y0121900D03*
X0092672Y0121800D03*
X0092772Y0121700D03*
X0092772Y0121600D03*
X0092872Y0121500D03*
X0092972Y0121300D03*
X0092972Y0121200D03*
X0145672Y0095100D03*
X0092972Y0090500D03*
X0092872Y0090300D03*
X0092872Y0090200D03*
X0092872Y0090100D03*
X0092772Y0090000D03*
X0092672Y0089900D03*
X0092672Y0089800D03*
X0092572Y0089600D03*
X0053872Y0066400D03*
X0026272Y0089600D03*
X0026172Y0089800D03*
X0026172Y0089900D03*
X0026072Y0090000D03*
X0026072Y0090100D03*
X0025972Y0090200D03*
X0025972Y0090300D03*
X0025872Y0090500D03*
D64*
X0138872Y0101800D03*
X0156172Y0101700D03*
X0138672Y0117000D03*
X0139072Y0133300D03*
X0155872Y0133600D03*
D65*
X0156022Y0133300D03*
X0139022Y0133200D03*
X0138922Y0133100D03*
X0157822Y0126000D03*
X0156322Y0117000D03*
X0157922Y0115700D03*
X0138522Y0116900D03*
X0135322Y0117100D03*
X0138722Y0102200D03*
X0156322Y0102100D03*
D66*
X0156372Y0102200D03*
X0156372Y0102300D03*
X0138672Y0102300D03*
X0158072Y0114500D03*
X0158172Y0118600D03*
X0156072Y0133200D03*
X0138972Y0133000D03*
X0146072Y0141600D03*
X0056672Y0146300D03*
D67*
X0138772Y0132800D03*
X0138772Y0132700D03*
X0156172Y0133000D03*
X0159272Y0126000D03*
X0156572Y0116900D03*
X0156472Y0102600D03*
X0138572Y0102600D03*
D68*
X0138522Y0102700D03*
X0138522Y0102800D03*
X0156522Y0102800D03*
X0156522Y0102700D03*
X0157922Y0115800D03*
X0156222Y0132900D03*
X0138722Y0132600D03*
D69*
X0138622Y0132400D03*
X0138622Y0132300D03*
X0156322Y0132700D03*
X0156622Y0103200D03*
X0156622Y0103100D03*
X0138422Y0103100D03*
X0138322Y0103300D03*
X0057022Y0065400D03*
D70*
X0062922Y0065500D03*
X0138122Y0103900D03*
X0138122Y0104000D03*
X0138222Y0103800D03*
X0156822Y0103900D03*
X0156822Y0104000D03*
X0137122Y0115900D03*
X0136022Y0116900D03*
X0138422Y0131800D03*
X0156522Y0132100D03*
D71*
X0156672Y0131600D03*
X0138272Y0131400D03*
X0138272Y0131300D03*
X0137072Y0116000D03*
X0158072Y0114400D03*
X0157072Y0104900D03*
X0156972Y0104600D03*
X0138072Y0104500D03*
X0137972Y0104600D03*
X0137972Y0104700D03*
D72*
X0137972Y0104800D03*
X0137872Y0105000D03*
X0137872Y0105100D03*
X0137872Y0105200D03*
X0157172Y0105400D03*
X0136872Y0114400D03*
X0158172Y0118700D03*
X0138172Y0122800D03*
X0138072Y0130800D03*
X0138172Y0131100D03*
X0156872Y0131100D03*
X0156872Y0131200D03*
D73*
X0156822Y0131300D03*
X0156822Y0131400D03*
X0156722Y0131500D03*
X0138222Y0131200D03*
X0138122Y0131000D03*
X0157022Y0123000D03*
X0157922Y0116100D03*
X0157122Y0105200D03*
X0157122Y0105100D03*
X0157022Y0105000D03*
X0157022Y0104800D03*
X0137922Y0104900D03*
X0062622Y0146200D03*
D74*
X0137922Y0130300D03*
X0157022Y0130500D03*
X0157022Y0130600D03*
X0157922Y0116300D03*
X0157322Y0106100D03*
X0157222Y0105800D03*
X0137722Y0105800D03*
X0137722Y0105900D03*
D75*
X0137672Y0106000D03*
X0137672Y0106100D03*
X0137672Y0106200D03*
X0157272Y0106200D03*
X0157372Y0106300D03*
X0157372Y0106400D03*
X0158072Y0114300D03*
X0137072Y0116200D03*
X0137872Y0130000D03*
X0137872Y0130100D03*
X0137872Y0130200D03*
X0137972Y0130400D03*
X0157072Y0130400D03*
X0157072Y0130300D03*
D76*
X0157122Y0130200D03*
X0157122Y0130100D03*
X0157222Y0129800D03*
X0137822Y0129800D03*
X0137822Y0129900D03*
X0157922Y0116400D03*
X0157422Y0106800D03*
X0157422Y0106700D03*
X0157422Y0106600D03*
X0157322Y0106500D03*
X0137622Y0106500D03*
X0137622Y0106400D03*
X0137622Y0106300D03*
X0055722Y0146100D03*
D77*
X0137772Y0129700D03*
X0137772Y0129600D03*
X0157172Y0129900D03*
X0157172Y0130000D03*
X0157272Y0129600D03*
X0157072Y0122900D03*
X0137072Y0116300D03*
X0136872Y0114300D03*
X0137472Y0107100D03*
X0137472Y0106900D03*
X0137572Y0106800D03*
X0137572Y0106700D03*
X0137572Y0106600D03*
X0157472Y0106900D03*
D78*
X0157572Y0107400D03*
X0157572Y0107500D03*
X0137472Y0107400D03*
X0137372Y0107500D03*
X0137372Y0107700D03*
X0137472Y0107200D03*
X0158072Y0118800D03*
X0157372Y0129100D03*
X0157372Y0129200D03*
X0157272Y0129300D03*
X0137672Y0129300D03*
X0137672Y0129200D03*
X0137572Y0128900D03*
X0062972Y0146100D03*
D79*
X0137522Y0128600D03*
X0137622Y0129000D03*
X0157422Y0129000D03*
X0157422Y0128900D03*
X0157422Y0128800D03*
X0157522Y0128700D03*
X0157922Y0116600D03*
X0157922Y0116500D03*
X0158122Y0114200D03*
X0157622Y0107900D03*
X0157622Y0107800D03*
X0157622Y0107700D03*
X0157622Y0107600D03*
X0137422Y0107600D03*
X0137322Y0107800D03*
X0137322Y0107900D03*
X0137322Y0108000D03*
X0137322Y0108100D03*
X0136922Y0114200D03*
X0137022Y0116500D03*
D80*
X0136272Y0118900D03*
X0137472Y0128300D03*
X0137472Y0128400D03*
X0137472Y0128500D03*
X0137572Y0128700D03*
X0137572Y0128800D03*
X0157472Y0128600D03*
X0157472Y0128500D03*
X0157572Y0128200D03*
X0137272Y0108400D03*
X0137272Y0108200D03*
X0157672Y0108200D03*
X0157672Y0108100D03*
X0157672Y0108000D03*
X0055472Y0146000D03*
D81*
X0137322Y0127600D03*
X0137322Y0127500D03*
X0137222Y0127000D03*
X0157722Y0127200D03*
X0157722Y0127300D03*
X0157722Y0127400D03*
X0157822Y0126800D03*
X0157822Y0126700D03*
X0157922Y0116800D03*
X0158122Y0114100D03*
X0157922Y0109400D03*
X0157822Y0109200D03*
X0157822Y0109100D03*
X0157822Y0109000D03*
X0157822Y0108900D03*
X0137122Y0109200D03*
X0137122Y0109300D03*
X0137122Y0109400D03*
X0137122Y0109500D03*
X0136922Y0114000D03*
X0137022Y0116700D03*
X0137022Y0116800D03*
D82*
X0136872Y0113900D03*
X0136872Y0113800D03*
X0136972Y0110300D03*
X0136972Y0110100D03*
X0137072Y0109900D03*
X0137072Y0109800D03*
X0137072Y0109700D03*
X0137072Y0109600D03*
X0157872Y0109500D03*
X0157872Y0109300D03*
X0158072Y0114000D03*
X0158072Y0118900D03*
X0137872Y0122600D03*
X0137172Y0126500D03*
X0137172Y0126600D03*
X0137172Y0126700D03*
X0137172Y0126800D03*
X0137172Y0126900D03*
X0137272Y0127100D03*
X0137272Y0127200D03*
X0157772Y0127000D03*
X0157772Y0126900D03*
X0157872Y0126600D03*
X0157872Y0126500D03*
X0157872Y0126400D03*
X0157872Y0126300D03*
X0157972Y0126100D03*
X0063372Y0146000D03*
D83*
X0137122Y0126400D03*
X0137122Y0126300D03*
X0137122Y0126200D03*
X0137122Y0126100D03*
X0137122Y0126000D03*
X0157122Y0122700D03*
X0157922Y0126200D03*
X0158122Y0113900D03*
X0158022Y0110300D03*
X0157922Y0109900D03*
X0157922Y0109800D03*
X0157922Y0109700D03*
X0157922Y0109600D03*
X0137022Y0110000D03*
X0137022Y0110200D03*
X0137022Y0110400D03*
X0136922Y0110500D03*
X0136922Y0110700D03*
X0136922Y0110800D03*
X0136822Y0113600D03*
X0136822Y0113700D03*
D84*
X0136822Y0113400D03*
X0136822Y0113000D03*
X0136822Y0112400D03*
X0136822Y0112300D03*
X0136822Y0112200D03*
X0136822Y0112000D03*
X0136822Y0111900D03*
X0136822Y0111800D03*
X0136822Y0111700D03*
X0136822Y0111600D03*
X0136822Y0111500D03*
X0136922Y0110900D03*
X0158022Y0110800D03*
X0158022Y0110700D03*
X0158022Y0110500D03*
X0158122Y0110900D03*
X0158122Y0111500D03*
X0158122Y0113600D03*
X0158122Y0113700D03*
D85*
X0158172Y0113500D03*
X0158172Y0113400D03*
X0158172Y0113300D03*
X0158172Y0113200D03*
X0158172Y0113100D03*
X0158172Y0112800D03*
X0158172Y0112600D03*
X0158172Y0112400D03*
X0158172Y0112100D03*
X0158172Y0112000D03*
X0158172Y0111800D03*
X0158172Y0111700D03*
X0158172Y0111600D03*
X0158172Y0111300D03*
X0158072Y0111200D03*
X0158072Y0111100D03*
X0158072Y0111000D03*
X0158072Y0119000D03*
X0137872Y0122500D03*
X0136772Y0112800D03*
X0136772Y0112700D03*
X0136772Y0112500D03*
X0136772Y0112100D03*
X0054972Y0145900D03*
D86*
X0157122Y0122600D03*
X0158222Y0113000D03*
X0158222Y0112900D03*
X0158222Y0112700D03*
X0158222Y0112500D03*
X0158222Y0112300D03*
X0158222Y0112200D03*
X0158122Y0111900D03*
X0158122Y0111400D03*
D87*
X0158022Y0119100D03*
X0137822Y0122400D03*
X0063622Y0145900D03*
X0064322Y0065900D03*
D88*
X0136572Y0119200D03*
X0157972Y0119200D03*
D89*
X0157922Y0119300D03*
X0136722Y0119300D03*
X0064022Y0145800D03*
D90*
X0136772Y0119400D03*
X0157272Y0122200D03*
X0157972Y0119400D03*
D91*
X0157372Y0122000D03*
X0137672Y0121800D03*
X0136872Y0119600D03*
X0054172Y0145600D03*
D92*
X0064222Y0145700D03*
X0157922Y0119600D03*
D93*
X0137622Y0121700D03*
X0137022Y0119700D03*
X0054822Y0066000D03*
D94*
X0157872Y0119700D03*
X0157872Y0119800D03*
X0157372Y0121900D03*
X0137672Y0121600D03*
D95*
X0137622Y0121500D03*
X0137022Y0119800D03*
X0157422Y0121800D03*
X0065022Y0066200D03*
D96*
X0065172Y0066300D03*
X0137072Y0119900D03*
X0137572Y0121400D03*
X0157472Y0121700D03*
X0157872Y0119900D03*
X0064472Y0145600D03*
D97*
X0137472Y0121100D03*
X0137472Y0121000D03*
X0137572Y0121200D03*
X0137272Y0120300D03*
X0137172Y0120100D03*
X0157472Y0121500D03*
X0157772Y0120200D03*
X0157772Y0120100D03*
D98*
X0157772Y0120300D03*
X0157772Y0120400D03*
X0157672Y0120500D03*
X0157672Y0120700D03*
X0157572Y0121100D03*
X0157572Y0121200D03*
X0157572Y0121300D03*
X0053772Y0145400D03*
D99*
X0064722Y0145500D03*
X0137422Y0120900D03*
X0137422Y0120800D03*
X0137422Y0120700D03*
X0137322Y0120600D03*
X0137322Y0120500D03*
X0137322Y0120400D03*
X0157522Y0121400D03*
D100*
X0157622Y0121000D03*
X0157622Y0120900D03*
X0157622Y0120800D03*
X0157722Y0120600D03*
D101*
X0157272Y0122300D03*
X0137772Y0122100D03*
X0054572Y0145700D03*
X0055072Y0065900D03*
D102*
X0055322Y0065800D03*
X0064422Y0066000D03*
X0137822Y0122300D03*
X0157222Y0122400D03*
X0054722Y0145800D03*
D103*
X0022622Y0109200D03*
X0022522Y0103900D03*
X0022522Y0103800D03*
X0022522Y0103600D03*
X0022622Y0102500D03*
X0096122Y0101500D03*
X0096322Y0103300D03*
X0096322Y0104000D03*
X0054322Y0066200D03*
D104*
X0054072Y0066300D03*
X0065572Y0066500D03*
X0094972Y0095800D03*
X0095072Y0096200D03*
X0095072Y0096300D03*
X0095172Y0096500D03*
X0095172Y0096600D03*
X0095172Y0096700D03*
X0095272Y0096900D03*
X0095272Y0097000D03*
X0095372Y0097200D03*
X0095372Y0097300D03*
X0095372Y0097400D03*
X0095372Y0097500D03*
X0095472Y0097600D03*
X0095472Y0097700D03*
X0095472Y0097800D03*
X0095472Y0097900D03*
X0095572Y0098100D03*
X0095572Y0098300D03*
X0095672Y0098600D03*
X0095672Y0098800D03*
X0095772Y0099100D03*
X0095772Y0099300D03*
X0095872Y0099800D03*
X0095772Y0112400D03*
X0095772Y0112500D03*
X0095672Y0112700D03*
X0095672Y0112900D03*
X0095572Y0113400D03*
X0095572Y0113500D03*
X0095472Y0113800D03*
X0095472Y0113900D03*
X0095472Y0114000D03*
X0095472Y0114100D03*
X0095372Y0114200D03*
X0095372Y0114300D03*
X0095372Y0114400D03*
X0095372Y0114500D03*
X0095272Y0114700D03*
X0095272Y0114800D03*
X0095172Y0115100D03*
X0095072Y0115500D03*
X0023772Y0115500D03*
X0023672Y0115100D03*
X0023572Y0114900D03*
X0023572Y0114800D03*
X0023572Y0114700D03*
X0023472Y0114500D03*
X0023472Y0114400D03*
X0023472Y0114300D03*
X0023472Y0114200D03*
X0023372Y0114100D03*
X0023372Y0114000D03*
X0023372Y0113900D03*
X0023272Y0113500D03*
X0023272Y0113300D03*
X0023172Y0113100D03*
X0023072Y0112500D03*
X0023072Y0112400D03*
X0022972Y0111900D03*
X0022972Y0099800D03*
X0023072Y0099300D03*
X0023072Y0099100D03*
X0023172Y0098800D03*
X0023172Y0098700D03*
X0023272Y0098300D03*
X0023272Y0098200D03*
X0023272Y0098100D03*
X0023372Y0098000D03*
X0023372Y0097800D03*
X0023372Y0097700D03*
X0023372Y0097600D03*
X0023472Y0097500D03*
X0023472Y0097400D03*
X0023472Y0097300D03*
X0023472Y0097200D03*
X0023572Y0097000D03*
X0023672Y0096500D03*
X0023772Y0096100D03*
X0053572Y0145300D03*
D105*
X0064872Y0145400D03*
X0022872Y0111400D03*
X0022872Y0111100D03*
X0022772Y0110700D03*
X0022772Y0110400D03*
X0022672Y0109800D03*
X0022672Y0109600D03*
X0022672Y0109500D03*
X0022672Y0109400D03*
X0022572Y0108900D03*
X0022572Y0108700D03*
X0022572Y0108600D03*
X0022572Y0108500D03*
X0022572Y0108400D03*
X0022572Y0108300D03*
X0022572Y0108200D03*
X0022572Y0103400D03*
X0022572Y0103300D03*
X0022572Y0103200D03*
X0022572Y0103100D03*
X0022572Y0103000D03*
X0022572Y0102800D03*
X0022672Y0102300D03*
X0022672Y0102100D03*
X0022672Y0102000D03*
X0022672Y0101900D03*
X0022672Y0101700D03*
X0022772Y0101500D03*
X0022772Y0101300D03*
X0022772Y0101200D03*
X0022772Y0100900D03*
X0022872Y0100500D03*
X0022872Y0100400D03*
X0022972Y0099900D03*
X0095872Y0099900D03*
X0095872Y0099700D03*
X0095972Y0100600D03*
X0096072Y0101000D03*
X0096072Y0101100D03*
X0096072Y0101200D03*
X0096172Y0101900D03*
X0096172Y0102000D03*
X0096172Y0102100D03*
X0096172Y0102300D03*
X0096172Y0102500D03*
X0096272Y0102700D03*
X0096272Y0102800D03*
X0096272Y0102900D03*
X0096272Y0103000D03*
X0096272Y0103100D03*
X0096272Y0103400D03*
X0096272Y0103600D03*
X0096272Y0103800D03*
X0096372Y0103900D03*
X0096372Y0104100D03*
X0096272Y0108300D03*
X0096272Y0108400D03*
X0096272Y0108500D03*
X0096272Y0108600D03*
X0096272Y0108700D03*
X0096272Y0108900D03*
X0096272Y0109200D03*
X0096172Y0109400D03*
X0096172Y0109600D03*
X0096172Y0109700D03*
X0096172Y0109900D03*
X0096172Y0110100D03*
X0096072Y0110300D03*
X0096072Y0110400D03*
X0096072Y0110800D03*
X0095972Y0111200D03*
X0095972Y0111300D03*
X0065472Y0066400D03*
D106*
X0065872Y0066600D03*
X0093072Y0090700D03*
X0093272Y0091100D03*
X0093372Y0091400D03*
X0093472Y0091600D03*
X0093572Y0091800D03*
X0093572Y0091900D03*
X0093672Y0092000D03*
X0093672Y0092100D03*
X0093772Y0092300D03*
X0093872Y0092500D03*
X0025672Y0090900D03*
X0025572Y0091100D03*
X0025472Y0091400D03*
X0025372Y0091500D03*
X0025372Y0091600D03*
X0025272Y0091700D03*
X0025272Y0091800D03*
X0025272Y0091900D03*
X0025172Y0092000D03*
X0025172Y0092100D03*
X0025072Y0092300D03*
X0024972Y0092600D03*
X0024872Y0092800D03*
X0024872Y0118900D03*
X0025072Y0119400D03*
X0025172Y0119600D03*
X0025172Y0119700D03*
X0025272Y0119800D03*
X0025272Y0119900D03*
X0025372Y0120100D03*
X0025472Y0120300D03*
X0025472Y0120400D03*
X0025572Y0120600D03*
X0025772Y0121000D03*
X0093172Y0120800D03*
X0093272Y0120600D03*
X0093372Y0120400D03*
X0093372Y0120300D03*
X0093472Y0120200D03*
X0093472Y0120100D03*
X0093572Y0119900D03*
X0093572Y0119800D03*
X0093672Y0119700D03*
X0093672Y0119600D03*
X0093772Y0119400D03*
X0093872Y0119300D03*
X0093972Y0118800D03*
D107*
X0089172Y0127600D03*
X0089072Y0127700D03*
X0089072Y0127800D03*
X0088972Y0127900D03*
X0057872Y0113500D03*
X0029972Y0127900D03*
X0029972Y0128000D03*
X0029772Y0127800D03*
X0029672Y0127600D03*
X0029672Y0084100D03*
X0029772Y0084000D03*
X0029772Y0083900D03*
X0029972Y0083700D03*
X0053272Y0066700D03*
X0066372Y0066900D03*
X0088872Y0083700D03*
X0088872Y0083800D03*
X0089072Y0083900D03*
X0089172Y0084100D03*
X0089172Y0084200D03*
D108*
X0087472Y0082000D03*
X0087272Y0081800D03*
X0087172Y0081700D03*
X0066672Y0067100D03*
X0053072Y0066800D03*
X0031872Y0081500D03*
X0031672Y0081700D03*
X0031572Y0081800D03*
X0031372Y0082000D03*
X0031472Y0129800D03*
X0031572Y0129900D03*
X0086972Y0130200D03*
X0087172Y0130000D03*
X0087372Y0129800D03*
X0087472Y0129700D03*
D109*
X0090422Y0125800D03*
X0090622Y0125500D03*
X0090722Y0125400D03*
X0090722Y0125300D03*
X0090822Y0125200D03*
X0091022Y0124900D03*
X0091122Y0124700D03*
X0065522Y0145100D03*
X0028222Y0125500D03*
X0028122Y0125300D03*
X0028022Y0125200D03*
X0027922Y0125100D03*
X0027722Y0124700D03*
X0027822Y0086800D03*
X0028022Y0086500D03*
X0028122Y0086400D03*
X0028122Y0086300D03*
X0028222Y0086200D03*
X0028422Y0085900D03*
X0066222Y0066800D03*
X0090522Y0086000D03*
X0090722Y0086400D03*
X0090822Y0086500D03*
X0091022Y0086800D03*
D110*
X0085672Y0080100D03*
X0085572Y0080000D03*
X0085472Y0079900D03*
X0052772Y0067000D03*
X0033272Y0080000D03*
X0033172Y0080100D03*
X0033072Y0080200D03*
X0057872Y0112300D03*
X0033372Y0131800D03*
X0033272Y0131700D03*
X0033172Y0131600D03*
X0085372Y0131900D03*
X0085472Y0131800D03*
X0085572Y0131700D03*
X0085672Y0131600D03*
X0085772Y0131500D03*
D111*
X0085272Y0132000D03*
X0085172Y0132100D03*
X0033772Y0132200D03*
X0033672Y0132100D03*
X0033572Y0132000D03*
X0057872Y0112100D03*
X0057872Y0112000D03*
X0033672Y0079600D03*
X0033772Y0079500D03*
X0052572Y0067100D03*
X0085072Y0079500D03*
X0085172Y0079600D03*
X0085272Y0079700D03*
D112*
X0084272Y0078800D03*
X0084172Y0078700D03*
X0052472Y0067200D03*
X0034672Y0078700D03*
X0034572Y0078800D03*
X0034572Y0132900D03*
X0034672Y0133000D03*
X0084172Y0133000D03*
X0084272Y0132900D03*
D113*
X0086472Y0130800D03*
X0086672Y0130600D03*
X0086772Y0130500D03*
X0086972Y0130300D03*
X0032272Y0130700D03*
X0032172Y0130600D03*
X0032072Y0130500D03*
X0031872Y0081400D03*
X0032072Y0081200D03*
X0032172Y0081100D03*
X0032272Y0081000D03*
X0066872Y0067200D03*
X0086472Y0080900D03*
X0086672Y0081100D03*
X0086772Y0081200D03*
D114*
X0083672Y0078300D03*
X0083572Y0078200D03*
X0067472Y0067600D03*
X0052272Y0067300D03*
X0035172Y0078300D03*
X0057872Y0111500D03*
X0035172Y0133400D03*
X0083672Y0133400D03*
D115*
X0085922Y0131400D03*
X0066422Y0144600D03*
X0033122Y0131500D03*
X0032922Y0131400D03*
X0032922Y0080300D03*
X0067022Y0067300D03*
X0085922Y0080300D03*
X0085922Y0080400D03*
D116*
X0082972Y0077700D03*
X0082672Y0077500D03*
X0067572Y0067700D03*
X0052172Y0067400D03*
X0036072Y0077600D03*
X0035872Y0077700D03*
X0035872Y0134000D03*
X0051572Y0144100D03*
X0082972Y0134000D03*
X0083172Y0133800D03*
D117*
X0081322Y0135200D03*
X0081022Y0135400D03*
X0037522Y0135200D03*
X0057922Y0110200D03*
X0037522Y0076500D03*
X0037622Y0076400D03*
X0051722Y0067700D03*
X0081122Y0076400D03*
D118*
X0081022Y0076300D03*
X0051522Y0067800D03*
X0057922Y0110000D03*
X0037822Y0135400D03*
X0080722Y0135600D03*
D119*
X0080422Y0135800D03*
X0038422Y0135800D03*
X0038322Y0135700D03*
X0057922Y0109800D03*
X0057922Y0109700D03*
X0038122Y0076100D03*
X0038422Y0075900D03*
X0051522Y0067900D03*
X0068322Y0068200D03*
X0080422Y0075900D03*
D120*
X0051272Y0068000D03*
X0038772Y0075700D03*
X0038972Y0136100D03*
D121*
X0039072Y0136200D03*
X0079772Y0136200D03*
X0057872Y0109300D03*
X0057872Y0109200D03*
X0039272Y0075400D03*
X0039072Y0075500D03*
X0051172Y0068100D03*
X0079572Y0075400D03*
X0079772Y0075500D03*
D122*
X0080872Y0076200D03*
X0068072Y0068100D03*
X0037972Y0076200D03*
X0037872Y0076300D03*
X0057872Y0110100D03*
X0037972Y0135500D03*
X0051072Y0143700D03*
X0067572Y0143800D03*
X0081172Y0135300D03*
D123*
X0068222Y0143300D03*
X0050422Y0143200D03*
X0079122Y0075100D03*
X0051022Y0068200D03*
X0050922Y0068300D03*
D124*
X0068322Y0068300D03*
X0080122Y0075700D03*
X0080222Y0075800D03*
X0057922Y0109500D03*
X0057922Y0109600D03*
X0038622Y0135900D03*
X0038722Y0136000D03*
X0067722Y0143700D03*
X0067822Y0143600D03*
X0080022Y0136000D03*
D125*
X0040522Y0137000D03*
X0057922Y0108400D03*
X0040522Y0074700D03*
X0050822Y0068400D03*
X0078322Y0074700D03*
D126*
X0079922Y0075600D03*
X0068522Y0068400D03*
X0038922Y0075600D03*
X0057922Y0109400D03*
X0079922Y0136100D03*
X0050722Y0143500D03*
X0050622Y0143400D03*
D127*
X0050172Y0143000D03*
X0068372Y0143100D03*
X0078272Y0137000D03*
X0057872Y0108300D03*
X0050672Y0068500D03*
D128*
X0068622Y0068500D03*
X0039422Y0075300D03*
X0079622Y0136300D03*
X0067922Y0143500D03*
D129*
X0077772Y0137300D03*
X0057872Y0107800D03*
X0041072Y0074400D03*
X0050572Y0068600D03*
D130*
X0068672Y0068600D03*
X0039772Y0075100D03*
X0057872Y0108800D03*
X0057872Y0108900D03*
X0039772Y0136600D03*
X0068072Y0143400D03*
X0079072Y0136600D03*
X0079272Y0136500D03*
D131*
X0068622Y0142900D03*
X0041122Y0137300D03*
X0077722Y0074400D03*
X0050422Y0068700D03*
D132*
X0039872Y0075000D03*
X0068872Y0068700D03*
X0078872Y0075000D03*
X0057872Y0108700D03*
X0039972Y0136700D03*
X0050272Y0143100D03*
X0078672Y0136800D03*
X0078872Y0136700D03*
D133*
X0041572Y0137500D03*
X0057872Y0107500D03*
X0057872Y0107400D03*
X0050372Y0068800D03*
D134*
X0040272Y0074800D03*
X0068972Y0068800D03*
X0078572Y0074800D03*
X0057872Y0108500D03*
X0040172Y0136800D03*
X0040272Y0136900D03*
X0078572Y0136900D03*
D135*
X0077072Y0137600D03*
X0068972Y0142600D03*
X0068872Y0142700D03*
X0049572Y0142500D03*
X0057872Y0107300D03*
X0057872Y0107200D03*
X0075472Y0085200D03*
X0075472Y0085100D03*
X0075572Y0085000D03*
X0077072Y0074100D03*
X0069472Y0069300D03*
X0050272Y0068900D03*
X0041972Y0074000D03*
X0041772Y0074100D03*
D136*
X0069072Y0068900D03*
X0068572Y0143000D03*
X0050072Y0142900D03*
D137*
X0041972Y0137700D03*
X0046672Y0129500D03*
X0057872Y0107100D03*
X0057872Y0107000D03*
X0075372Y0085600D03*
X0076872Y0074000D03*
X0050172Y0069000D03*
D138*
X0040922Y0074500D03*
X0069222Y0069000D03*
X0077922Y0074500D03*
X0057922Y0107900D03*
X0057922Y0108000D03*
X0040922Y0137200D03*
X0049922Y0142800D03*
X0077922Y0137200D03*
D139*
X0076672Y0137800D03*
X0069072Y0142500D03*
X0049372Y0142300D03*
X0046672Y0129200D03*
X0046772Y0129100D03*
X0057872Y0106800D03*
X0075272Y0086000D03*
X0075372Y0085700D03*
X0076472Y0073800D03*
X0069672Y0069500D03*
X0049972Y0069100D03*
X0042172Y0073900D03*
D140*
X0069272Y0069100D03*
X0077572Y0074300D03*
X0057872Y0107700D03*
X0041272Y0137400D03*
X0068772Y0142800D03*
X0077572Y0137400D03*
D141*
X0069322Y0142300D03*
X0042422Y0137900D03*
X0046922Y0128500D03*
X0057922Y0106600D03*
X0057922Y0106500D03*
X0075122Y0086600D03*
X0075222Y0086500D03*
X0042622Y0073700D03*
X0049922Y0069200D03*
X0069922Y0069700D03*
D142*
X0069422Y0069200D03*
X0077322Y0074200D03*
X0041522Y0074200D03*
X0041322Y0074300D03*
X0057922Y0107600D03*
X0077322Y0137500D03*
X0049822Y0142700D03*
D143*
X0049222Y0142100D03*
X0042722Y0138000D03*
X0069422Y0142200D03*
X0076122Y0138000D03*
X0047022Y0128200D03*
X0047022Y0128100D03*
X0046922Y0128300D03*
X0057922Y0106400D03*
X0057922Y0106300D03*
X0075022Y0087000D03*
X0075022Y0086900D03*
X0075122Y0086700D03*
X0049822Y0069300D03*
D144*
X0049672Y0069400D03*
X0069972Y0069800D03*
X0074972Y0087200D03*
X0047072Y0127800D03*
X0047072Y0128000D03*
X0042972Y0138100D03*
X0075972Y0138100D03*
D145*
X0076822Y0137700D03*
X0046622Y0129700D03*
X0075422Y0085400D03*
X0075422Y0085300D03*
X0069622Y0069400D03*
D146*
X0070222Y0070000D03*
X0075622Y0073500D03*
X0049622Y0069500D03*
X0043222Y0073500D03*
X0074822Y0087700D03*
X0074922Y0087500D03*
X0057922Y0106000D03*
X0047222Y0127200D03*
X0047222Y0127300D03*
D147*
X0047172Y0127400D03*
X0047272Y0127100D03*
X0043172Y0138200D03*
X0075672Y0138200D03*
X0057872Y0105900D03*
X0074772Y0088000D03*
X0074872Y0087900D03*
X0074772Y0087800D03*
X0049472Y0069600D03*
D148*
X0042422Y0073800D03*
X0069822Y0069600D03*
X0075322Y0085900D03*
X0075222Y0086100D03*
X0046822Y0128900D03*
X0046822Y0129000D03*
D149*
X0047272Y0127000D03*
X0047372Y0126700D03*
X0043472Y0138300D03*
X0048772Y0141700D03*
X0069672Y0141900D03*
X0075372Y0138300D03*
X0057872Y0105700D03*
X0057872Y0105600D03*
X0074672Y0088400D03*
X0075372Y0073400D03*
X0070272Y0070100D03*
X0049372Y0069700D03*
X0043472Y0073400D03*
D150*
X0049322Y0069800D03*
X0075122Y0073300D03*
X0074622Y0088800D03*
X0074522Y0088900D03*
X0047522Y0126100D03*
X0047422Y0126300D03*
X0043722Y0138400D03*
X0069922Y0141700D03*
D151*
X0069972Y0141600D03*
X0048672Y0141500D03*
X0047572Y0125900D03*
X0057872Y0105300D03*
X0057872Y0105200D03*
X0074472Y0089200D03*
X0074572Y0089000D03*
X0043772Y0073300D03*
X0049172Y0069900D03*
X0070572Y0070400D03*
D152*
X0070122Y0069900D03*
X0075922Y0073600D03*
X0042922Y0073600D03*
X0075022Y0087100D03*
X0074922Y0087400D03*
X0057922Y0106100D03*
X0057922Y0106200D03*
X0047022Y0127900D03*
X0049122Y0142000D03*
D153*
X0048422Y0141300D03*
X0044122Y0138500D03*
X0070122Y0141400D03*
X0074822Y0138500D03*
X0047722Y0125300D03*
X0047722Y0125200D03*
X0047622Y0125400D03*
X0057922Y0105000D03*
X0074322Y0089800D03*
X0074422Y0089700D03*
X0070722Y0070600D03*
X0070622Y0070500D03*
X0049122Y0070000D03*
X0049022Y0070100D03*
D154*
X0048972Y0070200D03*
X0070772Y0070700D03*
X0074472Y0073100D03*
X0074272Y0090200D03*
X0074172Y0090400D03*
X0047872Y0124700D03*
X0047872Y0124800D03*
X0047772Y0124900D03*
X0048272Y0141100D03*
X0048372Y0141200D03*
D155*
X0047422Y0126600D03*
X0074622Y0088600D03*
X0074722Y0088300D03*
X0070422Y0070200D03*
D156*
X0070922Y0070800D03*
X0048822Y0070300D03*
X0044522Y0073100D03*
X0074222Y0090300D03*
X0074122Y0090600D03*
X0047922Y0124600D03*
X0070222Y0141300D03*
D157*
X0069772Y0141800D03*
X0075072Y0138400D03*
X0048672Y0141600D03*
X0047372Y0126500D03*
X0047472Y0126400D03*
X0047472Y0126200D03*
X0057872Y0105500D03*
X0057872Y0105400D03*
X0074572Y0088700D03*
X0074672Y0088500D03*
X0070372Y0070300D03*
D158*
X0048772Y0070400D03*
X0044672Y0073000D03*
X0074072Y0090900D03*
X0073972Y0091100D03*
X0073972Y0091300D03*
X0048072Y0123800D03*
X0074172Y0138700D03*
X0070372Y0141100D03*
X0048172Y0140900D03*
D159*
X0048072Y0123700D03*
X0073872Y0091600D03*
X0073972Y0091400D03*
X0071072Y0071000D03*
X0048672Y0070500D03*
D160*
X0048572Y0070600D03*
X0048472Y0070700D03*
X0071272Y0071200D03*
X0073772Y0092000D03*
X0048272Y0123100D03*
X0048272Y0123200D03*
X0048172Y0123300D03*
X0045072Y0138800D03*
X0070572Y0140900D03*
D161*
X0070822Y0140700D03*
X0047722Y0140500D03*
X0048322Y0122700D03*
X0048422Y0122600D03*
X0048422Y0122500D03*
X0048422Y0122400D03*
X0073622Y0092500D03*
X0073722Y0092300D03*
X0071322Y0071300D03*
X0048422Y0070800D03*
X0048322Y0070900D03*
D162*
X0071022Y0070900D03*
X0074022Y0091000D03*
X0048022Y0124000D03*
X0048022Y0124100D03*
X0048022Y0124200D03*
X0047922Y0124300D03*
X0048122Y0141000D03*
D163*
X0047622Y0140300D03*
X0070922Y0140500D03*
X0071022Y0140400D03*
X0045522Y0072800D03*
X0048122Y0071100D03*
X0048222Y0071000D03*
D164*
X0071122Y0071100D03*
X0074122Y0073000D03*
X0074022Y0091200D03*
X0048122Y0123600D03*
X0048022Y0123900D03*
X0044722Y0138700D03*
X0070522Y0141000D03*
D165*
X0071072Y0140300D03*
X0048072Y0071200D03*
D166*
X0048022Y0071300D03*
X0071622Y0071700D03*
X0071722Y0071800D03*
X0047522Y0140200D03*
D167*
X0047922Y0071400D03*
D168*
X0071372Y0071400D03*
X0073772Y0092100D03*
X0073672Y0092400D03*
X0048372Y0122800D03*
X0048272Y0122900D03*
X0047872Y0140600D03*
D169*
X0047172Y0139800D03*
X0071372Y0140000D03*
X0072772Y0139000D03*
X0071972Y0072100D03*
X0047772Y0071500D03*
D170*
X0071472Y0071500D03*
X0073372Y0072800D03*
X0048472Y0122000D03*
X0048472Y0122100D03*
X0045472Y0138900D03*
D171*
X0047172Y0139700D03*
X0071372Y0139900D03*
X0072772Y0072700D03*
X0071972Y0072200D03*
X0047772Y0071600D03*
X0046072Y0072700D03*
D172*
X0071522Y0071600D03*
X0048422Y0122300D03*
X0073422Y0138900D03*
D173*
X0047072Y0139600D03*
X0046972Y0139500D03*
X0047572Y0071800D03*
X0047672Y0071700D03*
X0072172Y0072400D03*
D174*
X0072222Y0072600D03*
X0047522Y0071900D03*
D175*
X0071772Y0071900D03*
X0071872Y0072000D03*
X0071272Y0140100D03*
X0047372Y0140000D03*
X0047272Y0139900D03*
D176*
X0046872Y0139300D03*
X0071672Y0139500D03*
X0047472Y0072000D03*
D177*
X0047372Y0072100D03*
X0047272Y0072200D03*
X0072172Y0139100D03*
X0046772Y0139200D03*
D178*
X0047122Y0072400D03*
X0047222Y0072300D03*
D179*
X0072122Y0072300D03*
X0071522Y0139800D03*
D180*
X0047122Y0072500D03*
D181*
X0072272Y0072500D03*
X0071672Y0139600D03*
X0046972Y0139400D03*
D182*
X0071822Y0139300D03*
X0046722Y0072600D03*
D183*
X0045122Y0072900D03*
X0073722Y0072900D03*
X0073822Y0091900D03*
X0073722Y0092200D03*
X0048322Y0123000D03*
X0073722Y0138800D03*
X0070622Y0140800D03*
D184*
X0070072Y0141500D03*
X0074472Y0138600D03*
X0074272Y0089900D03*
X0044072Y0073200D03*
D185*
X0074822Y0073200D03*
X0074522Y0089100D03*
X0074422Y0089400D03*
X0047622Y0125600D03*
X0047622Y0125700D03*
X0047522Y0126000D03*
D186*
X0046972Y0128400D03*
X0046872Y0128600D03*
X0075072Y0086800D03*
X0076172Y0073700D03*
D187*
X0076622Y0073900D03*
X0075422Y0085500D03*
X0075322Y0085800D03*
X0057922Y0106900D03*
X0046722Y0129300D03*
X0046722Y0129400D03*
X0046622Y0129600D03*
X0042222Y0137800D03*
X0049522Y0142400D03*
D188*
X0040722Y0137100D03*
X0078122Y0137100D03*
X0057922Y0108200D03*
X0057922Y0108100D03*
X0040722Y0074600D03*
X0078122Y0074600D03*
D189*
X0078722Y0074900D03*
X0040222Y0074900D03*
X0057922Y0108600D03*
X0068322Y0143200D03*
D190*
X0050522Y0143300D03*
X0039622Y0136500D03*
X0039622Y0075200D03*
X0079222Y0075200D03*
D191*
X0079372Y0075300D03*
X0057872Y0109000D03*
X0057872Y0109100D03*
X0039272Y0136300D03*
X0039372Y0136400D03*
X0079372Y0136400D03*
D192*
X0080272Y0135900D03*
X0080572Y0135700D03*
X0038572Y0075800D03*
X0038272Y0076000D03*
D193*
X0080672Y0076000D03*
X0080672Y0076100D03*
X0057872Y0109900D03*
X0038172Y0135600D03*
X0050872Y0143600D03*
X0080872Y0135500D03*
D194*
X0067472Y0143900D03*
X0051072Y0143800D03*
X0037672Y0135300D03*
X0037372Y0135100D03*
X0057872Y0110300D03*
X0037272Y0076700D03*
X0081372Y0076500D03*
D195*
X0081422Y0076600D03*
X0081622Y0076700D03*
X0081622Y0135000D03*
X0081422Y0135100D03*
D196*
X0082022Y0134700D03*
X0082222Y0134600D03*
X0082322Y0134500D03*
X0067122Y0144100D03*
X0036722Y0134600D03*
X0036522Y0134500D03*
X0036422Y0134400D03*
X0036422Y0077300D03*
X0082422Y0077300D03*
D197*
X0084372Y0078900D03*
X0084572Y0079100D03*
X0084872Y0079300D03*
X0034372Y0079000D03*
X0034272Y0079100D03*
X0034072Y0079200D03*
X0057872Y0111900D03*
X0034272Y0132600D03*
X0033972Y0132400D03*
X0066572Y0144500D03*
X0084672Y0132600D03*
D198*
X0086322Y0131000D03*
X0086522Y0130700D03*
X0066222Y0144700D03*
X0052322Y0144600D03*
X0032422Y0130900D03*
X0032422Y0130800D03*
X0057922Y0112600D03*
X0032522Y0080800D03*
X0032522Y0080700D03*
X0086522Y0081000D03*
D199*
X0087422Y0081900D03*
X0087522Y0082100D03*
X0087722Y0082300D03*
X0087822Y0082400D03*
X0031422Y0081900D03*
X0031322Y0082100D03*
X0031122Y0082300D03*
X0057922Y0112900D03*
X0057922Y0113000D03*
X0031322Y0129600D03*
X0031322Y0129700D03*
X0031222Y0129500D03*
X0031022Y0129300D03*
X0031622Y0130000D03*
X0052422Y0144700D03*
X0087322Y0129900D03*
X0087522Y0129600D03*
X0087722Y0129400D03*
D200*
X0087922Y0129200D03*
X0088022Y0129000D03*
X0088222Y0128900D03*
X0088222Y0128800D03*
X0088522Y0128400D03*
X0057922Y0113200D03*
X0057922Y0113100D03*
X0031122Y0129400D03*
X0030722Y0129000D03*
X0030722Y0128900D03*
X0030522Y0128700D03*
X0052622Y0144800D03*
X0030422Y0083100D03*
X0030622Y0082900D03*
X0030922Y0082500D03*
X0088122Y0082800D03*
X0088322Y0083000D03*
D201*
X0088522Y0083300D03*
X0088722Y0083500D03*
X0088822Y0083600D03*
X0089122Y0084000D03*
X0072622Y0084900D03*
X0030322Y0083300D03*
X0030222Y0083400D03*
X0030122Y0083500D03*
X0030022Y0083600D03*
X0029922Y0083800D03*
X0057922Y0113300D03*
X0057922Y0113400D03*
X0030222Y0128300D03*
X0030122Y0128200D03*
X0030022Y0128100D03*
X0029722Y0127700D03*
X0088522Y0128500D03*
X0088622Y0128300D03*
X0088722Y0128200D03*
X0088822Y0128100D03*
X0088822Y0128000D03*
D202*
X0089222Y0127500D03*
X0089322Y0127400D03*
X0089422Y0127300D03*
X0089522Y0127100D03*
X0089622Y0127000D03*
X0089822Y0126700D03*
X0052822Y0144900D03*
X0029622Y0127500D03*
X0029522Y0127400D03*
X0029422Y0127300D03*
X0029422Y0127200D03*
X0029222Y0127000D03*
X0029222Y0084700D03*
X0029422Y0084400D03*
X0029522Y0084300D03*
X0029622Y0084200D03*
X0089322Y0084300D03*
X0089422Y0084400D03*
X0089522Y0084600D03*
D203*
X0089922Y0085100D03*
X0090022Y0085300D03*
X0090122Y0085400D03*
X0090222Y0085600D03*
X0090322Y0085700D03*
X0072422Y0084800D03*
X0047322Y0092600D03*
X0047222Y0092500D03*
X0047222Y0092400D03*
X0047122Y0092300D03*
X0047122Y0092200D03*
X0047022Y0092000D03*
X0046922Y0091800D03*
X0046822Y0091600D03*
X0046722Y0091400D03*
X0046722Y0091300D03*
X0046622Y0091200D03*
X0046522Y0091100D03*
X0046522Y0091000D03*
X0046522Y0090900D03*
X0046422Y0090800D03*
X0046322Y0090700D03*
X0046322Y0090600D03*
X0046222Y0090500D03*
X0046222Y0090400D03*
X0046122Y0090300D03*
X0046122Y0090200D03*
X0046022Y0090000D03*
X0046022Y0089900D03*
X0045922Y0089800D03*
X0045822Y0089600D03*
X0045722Y0089500D03*
X0045722Y0089400D03*
X0045722Y0089300D03*
X0045622Y0089200D03*
X0045522Y0089000D03*
X0045422Y0088900D03*
X0045422Y0088800D03*
X0045322Y0088600D03*
X0045222Y0088500D03*
X0045222Y0088400D03*
X0045122Y0088200D03*
X0045022Y0088000D03*
X0045022Y0087900D03*
X0044922Y0087800D03*
X0044822Y0087700D03*
X0044822Y0087600D03*
X0044722Y0087500D03*
X0044722Y0087400D03*
X0044622Y0087300D03*
X0044622Y0087200D03*
X0044522Y0087100D03*
X0044522Y0087000D03*
X0044422Y0086900D03*
X0044422Y0086800D03*
X0044322Y0086600D03*
X0044222Y0086400D03*
X0044122Y0086300D03*
X0044122Y0086200D03*
X0044022Y0086000D03*
X0043922Y0085800D03*
X0043822Y0085700D03*
X0043722Y0085500D03*
X0043722Y0085400D03*
X0043622Y0085300D03*
X0043622Y0085200D03*
X0043522Y0085000D03*
X0043422Y0084800D03*
X0028822Y0085200D03*
X0028822Y0085300D03*
X0028722Y0085400D03*
X0028722Y0085500D03*
X0028622Y0085600D03*
X0028522Y0085700D03*
X0047422Y0092800D03*
X0047522Y0092900D03*
X0047522Y0093000D03*
X0047522Y0093100D03*
X0047622Y0093200D03*
X0047722Y0093400D03*
X0047822Y0093600D03*
X0047822Y0093700D03*
X0047922Y0093800D03*
X0048022Y0094000D03*
X0048022Y0094100D03*
X0048122Y0094200D03*
X0048222Y0094400D03*
X0048322Y0094500D03*
X0048322Y0094600D03*
X0048422Y0094800D03*
X0048522Y0095000D03*
X0048522Y0095100D03*
X0048622Y0095200D03*
X0048822Y0095600D03*
X0048822Y0095700D03*
X0048922Y0095800D03*
X0049022Y0095900D03*
X0049022Y0096000D03*
X0049122Y0096200D03*
X0049322Y0096600D03*
X0049322Y0096700D03*
X0049422Y0096800D03*
X0049422Y0096900D03*
X0049522Y0097000D03*
X0049522Y0097100D03*
X0049622Y0097300D03*
X0049722Y0097400D03*
X0049822Y0097500D03*
X0049822Y0097600D03*
X0049822Y0097700D03*
X0049922Y0097800D03*
X0050022Y0097900D03*
X0050022Y0098000D03*
X0050122Y0098200D03*
X0050222Y0098400D03*
X0050322Y0098600D03*
X0050422Y0098800D03*
X0050422Y0098900D03*
X0050522Y0099000D03*
X0050522Y0099100D03*
X0050622Y0099200D03*
X0050722Y0099400D03*
X0050822Y0099600D03*
X0050922Y0099800D03*
X0051022Y0099900D03*
X0051022Y0100000D03*
X0051122Y0100100D03*
X0051122Y0100200D03*
X0051122Y0100300D03*
X0051222Y0100400D03*
X0051222Y0100500D03*
X0051322Y0100600D03*
X0051322Y0100700D03*
X0051422Y0100800D03*
X0051522Y0101000D03*
X0051622Y0101200D03*
X0051722Y0101300D03*
X0051722Y0101400D03*
X0051822Y0101600D03*
X0051922Y0101800D03*
X0051922Y0101900D03*
X0052022Y0102000D03*
X0052122Y0102200D03*
X0052322Y0102600D03*
X0052422Y0102800D03*
X0052522Y0102900D03*
X0052522Y0103000D03*
X0052622Y0103200D03*
X0052722Y0103400D03*
X0052722Y0103500D03*
X0052822Y0103700D03*
X0052922Y0103800D03*
X0053022Y0104000D03*
X0053022Y0104100D03*
X0053122Y0104200D03*
X0053222Y0104300D03*
X0053222Y0104400D03*
X0053322Y0104600D03*
X0053422Y0104700D03*
X0053422Y0104800D03*
X0062322Y0104900D03*
X0062522Y0104600D03*
X0062522Y0104500D03*
X0062622Y0104400D03*
X0062622Y0104300D03*
X0062722Y0104200D03*
X0062722Y0104100D03*
X0062822Y0103900D03*
X0062922Y0103700D03*
X0063022Y0103500D03*
X0063122Y0103400D03*
X0063122Y0103300D03*
X0063322Y0103000D03*
X0063322Y0102900D03*
X0063422Y0102800D03*
X0063422Y0102700D03*
X0063522Y0102500D03*
X0063622Y0102400D03*
X0063622Y0102300D03*
X0063722Y0102100D03*
X0063822Y0101900D03*
X0063922Y0101800D03*
X0063922Y0101700D03*
X0064022Y0101600D03*
X0064022Y0101500D03*
X0064122Y0101400D03*
X0064222Y0101200D03*
X0064222Y0101100D03*
X0064322Y0101000D03*
X0064322Y0100900D03*
X0064422Y0100700D03*
X0064522Y0100500D03*
X0064622Y0100300D03*
X0064722Y0100200D03*
X0064722Y0100100D03*
X0064822Y0100000D03*
X0064822Y0099900D03*
X0064922Y0099800D03*
X0065022Y0099600D03*
X0065022Y0099500D03*
X0065122Y0099400D03*
X0065122Y0099300D03*
X0065222Y0099100D03*
X0065322Y0098900D03*
X0065422Y0098700D03*
X0065522Y0098600D03*
X0065522Y0098500D03*
X0065622Y0098400D03*
X0065622Y0098300D03*
X0065722Y0098200D03*
X0065822Y0098000D03*
X0065822Y0097900D03*
X0065922Y0097800D03*
X0066022Y0097500D03*
X0066122Y0097300D03*
X0066222Y0097100D03*
X0066322Y0097000D03*
X0066322Y0096900D03*
X0066422Y0096700D03*
X0066522Y0096600D03*
X0066522Y0096500D03*
X0066622Y0096400D03*
X0066622Y0096300D03*
X0066722Y0096200D03*
X0066822Y0095900D03*
X0066922Y0095700D03*
X0067022Y0095500D03*
X0067122Y0095300D03*
X0067222Y0095100D03*
X0067322Y0095000D03*
X0067322Y0094900D03*
X0067422Y0094800D03*
X0067422Y0094700D03*
X0067522Y0094600D03*
X0067622Y0094400D03*
X0067622Y0094300D03*
X0067722Y0094200D03*
X0067722Y0094100D03*
X0067822Y0094000D03*
X0067822Y0093900D03*
X0067922Y0093800D03*
X0068022Y0093500D03*
X0068122Y0093400D03*
X0068122Y0093300D03*
X0068222Y0093200D03*
X0068422Y0092800D03*
X0057822Y0113900D03*
X0057722Y0114100D03*
X0057622Y0114300D03*
X0057622Y0114400D03*
X0057522Y0114500D03*
X0057522Y0114600D03*
X0057422Y0114800D03*
X0057322Y0114900D03*
X0057322Y0115000D03*
X0057222Y0115100D03*
X0057122Y0115300D03*
X0057122Y0115400D03*
X0057022Y0115500D03*
X0056922Y0115700D03*
X0056822Y0115900D03*
X0056822Y0116000D03*
X0056722Y0116200D03*
X0056622Y0116300D03*
X0056622Y0116400D03*
X0056522Y0116500D03*
X0056522Y0116600D03*
X0056422Y0116700D03*
X0056322Y0116900D03*
X0056322Y0117000D03*
X0056222Y0117100D03*
X0056122Y0117300D03*
X0056022Y0117500D03*
X0055922Y0117700D03*
X0055922Y0117800D03*
X0055822Y0118000D03*
X0055722Y0118100D03*
X0055722Y0118200D03*
X0055622Y0118300D03*
X0055522Y0118500D03*
X0055522Y0118600D03*
X0055422Y0118700D03*
X0055322Y0118900D03*
X0055322Y0119000D03*
X0055222Y0119100D03*
X0055122Y0119300D03*
X0055122Y0119400D03*
X0055022Y0119500D03*
X0055022Y0119600D03*
X0054922Y0119800D03*
X0054822Y0119900D03*
X0054722Y0120100D03*
X0054722Y0120200D03*
X0054622Y0120300D03*
X0054522Y0120400D03*
X0054522Y0120500D03*
X0054422Y0120600D03*
X0054422Y0120700D03*
X0054422Y0120800D03*
X0054322Y0120900D03*
X0054322Y0121000D03*
X0054222Y0121100D03*
X0054022Y0121500D03*
X0054022Y0121600D03*
X0053922Y0121700D03*
X0029022Y0126700D03*
X0028822Y0126400D03*
X0028722Y0126300D03*
X0028622Y0126100D03*
X0089922Y0126500D03*
X0089922Y0126600D03*
X0090022Y0126400D03*
X0090122Y0126300D03*
X0090222Y0126100D03*
X0090522Y0125700D03*
D204*
X0090572Y0125600D03*
X0090372Y0125900D03*
X0090272Y0126000D03*
X0090172Y0126200D03*
X0057472Y0114700D03*
X0057672Y0114200D03*
X0057772Y0114000D03*
X0057872Y0113800D03*
X0057172Y0115200D03*
X0056972Y0115600D03*
X0056872Y0115800D03*
X0056772Y0116100D03*
X0056372Y0116800D03*
X0056172Y0117200D03*
X0056072Y0117400D03*
X0055972Y0117600D03*
X0055872Y0117900D03*
X0055572Y0118400D03*
X0055372Y0118800D03*
X0055172Y0119200D03*
X0054972Y0119700D03*
X0054772Y0120000D03*
X0054172Y0121300D03*
X0028672Y0126200D03*
X0028572Y0126000D03*
X0028472Y0125900D03*
X0028372Y0125800D03*
X0028372Y0125700D03*
X0028272Y0125600D03*
X0028172Y0125400D03*
X0053472Y0104900D03*
X0053272Y0104500D03*
X0052672Y0103300D03*
X0052572Y0103100D03*
X0052372Y0102700D03*
X0052172Y0102400D03*
X0051872Y0101700D03*
X0051772Y0101500D03*
X0051572Y0101100D03*
X0050872Y0099700D03*
X0050772Y0099500D03*
X0050272Y0098500D03*
X0050072Y0098100D03*
X0049272Y0096500D03*
X0049172Y0096300D03*
X0049072Y0096100D03*
X0048672Y0095400D03*
X0048472Y0094900D03*
X0048372Y0094700D03*
X0047672Y0093300D03*
X0047372Y0092700D03*
X0046872Y0091700D03*
X0046772Y0091500D03*
X0045872Y0089700D03*
X0045172Y0088300D03*
X0044372Y0086700D03*
X0044272Y0086500D03*
X0044072Y0086100D03*
X0043972Y0085900D03*
X0043772Y0085600D03*
X0043572Y0085100D03*
X0043472Y0084900D03*
X0028472Y0085800D03*
X0028372Y0086000D03*
X0028272Y0086100D03*
X0027972Y0086600D03*
X0064572Y0100400D03*
X0064472Y0100600D03*
X0064372Y0100800D03*
X0064172Y0101300D03*
X0063772Y0102000D03*
X0063672Y0102200D03*
X0063472Y0102600D03*
X0063272Y0103100D03*
X0062972Y0103600D03*
X0062872Y0103800D03*
X0062772Y0104000D03*
X0062472Y0104700D03*
X0064972Y0099700D03*
X0065172Y0099200D03*
X0065272Y0099000D03*
X0065372Y0098800D03*
X0065672Y0098100D03*
X0065972Y0097700D03*
X0065972Y0097600D03*
X0066072Y0097400D03*
X0066172Y0097200D03*
X0066372Y0096800D03*
X0066772Y0096100D03*
X0066772Y0096000D03*
X0066872Y0095800D03*
X0066972Y0095600D03*
X0067072Y0095400D03*
X0067172Y0095200D03*
X0067572Y0094500D03*
X0067972Y0093600D03*
X0068272Y0093100D03*
X0068372Y0092900D03*
X0090172Y0085500D03*
X0090372Y0085800D03*
X0090372Y0085900D03*
X0090572Y0086100D03*
X0090672Y0086200D03*
X0090672Y0086300D03*
D205*
X0075272Y0086300D03*
X0075172Y0086400D03*
X0075172Y0086200D03*
X0057872Y0106700D03*
X0046872Y0128700D03*
X0046772Y0128800D03*
X0076372Y0137900D03*
X0069172Y0142400D03*
X0049272Y0142200D03*
D206*
X0027422Y0124200D03*
X0027322Y0124100D03*
X0027322Y0124000D03*
X0027222Y0123900D03*
X0027122Y0123700D03*
X0027022Y0123500D03*
X0091322Y0124400D03*
X0091422Y0124200D03*
X0091522Y0124100D03*
X0091522Y0124000D03*
X0091722Y0123700D03*
X0091822Y0123500D03*
X0092022Y0088500D03*
X0091822Y0088200D03*
X0091722Y0088000D03*
X0091622Y0087900D03*
X0091622Y0087800D03*
X0091622Y0087700D03*
X0091322Y0087300D03*
X0091222Y0087200D03*
X0027722Y0087000D03*
X0027422Y0087500D03*
X0027322Y0087600D03*
X0027322Y0087700D03*
X0027222Y0087800D03*
X0027122Y0088000D03*
X0027022Y0088200D03*
D207*
X0074872Y0087600D03*
X0074972Y0087300D03*
X0047172Y0127500D03*
X0047172Y0127600D03*
X0047072Y0127700D03*
X0048972Y0141900D03*
X0069472Y0142100D03*
X0069572Y0142000D03*
D208*
X0091672Y0123800D03*
X0091772Y0123600D03*
X0091872Y0123400D03*
X0091972Y0123300D03*
X0091972Y0123200D03*
X0092072Y0123100D03*
X0092172Y0122800D03*
X0027172Y0123800D03*
X0027072Y0123600D03*
X0026972Y0123400D03*
X0026872Y0123200D03*
X0026772Y0123100D03*
X0026772Y0123000D03*
X0026572Y0122700D03*
X0026672Y0088800D03*
X0026772Y0088700D03*
X0026872Y0088500D03*
X0026872Y0088400D03*
X0026972Y0088300D03*
X0027072Y0088100D03*
X0027172Y0087900D03*
X0091472Y0087600D03*
X0091772Y0088100D03*
X0091872Y0088300D03*
X0091972Y0088400D03*
D209*
X0074822Y0088100D03*
X0074722Y0088200D03*
X0057922Y0105800D03*
X0047322Y0126800D03*
X0047322Y0126900D03*
X0048922Y0141800D03*
D210*
X0048572Y0141400D03*
X0047572Y0125800D03*
X0047672Y0125500D03*
X0057872Y0105100D03*
X0074372Y0089600D03*
X0074372Y0089500D03*
X0074472Y0089300D03*
D211*
X0074322Y0090000D03*
X0074222Y0090100D03*
X0047822Y0125000D03*
X0047722Y0125100D03*
X0044322Y0138600D03*
D212*
X0026022Y0121600D03*
X0025922Y0121300D03*
X0025822Y0121100D03*
X0025722Y0120900D03*
X0025622Y0120800D03*
X0025622Y0120700D03*
X0025522Y0120500D03*
X0025422Y0120200D03*
X0025322Y0120000D03*
X0092922Y0121400D03*
X0093022Y0121100D03*
X0093122Y0121000D03*
X0093122Y0120900D03*
X0093222Y0120700D03*
X0093322Y0120500D03*
X0093522Y0120000D03*
X0093522Y0091700D03*
X0093422Y0091500D03*
X0093322Y0091300D03*
X0093322Y0091200D03*
X0093222Y0091000D03*
X0093222Y0090900D03*
X0093122Y0090800D03*
X0093022Y0090600D03*
X0092922Y0090400D03*
X0025922Y0090400D03*
X0025822Y0090600D03*
X0025722Y0090700D03*
X0025722Y0090800D03*
X0025622Y0091000D03*
X0025522Y0091200D03*
X0025522Y0091300D03*
D213*
X0074072Y0090800D03*
X0074072Y0090700D03*
X0074172Y0090500D03*
X0047972Y0124400D03*
X0047872Y0124500D03*
X0070372Y0141200D03*
D214*
X0048022Y0140800D03*
X0047922Y0140700D03*
X0048122Y0123500D03*
X0048222Y0123400D03*
X0073822Y0091800D03*
X0073822Y0091700D03*
X0073922Y0091500D03*
D215*
X0093722Y0092200D03*
X0093822Y0092400D03*
X0093922Y0092600D03*
X0093922Y0092700D03*
X0093922Y0092800D03*
X0094022Y0092900D03*
X0094022Y0093000D03*
X0094122Y0093200D03*
X0094122Y0093300D03*
X0094222Y0093400D03*
X0094222Y0093500D03*
X0094322Y0093800D03*
X0025122Y0092200D03*
X0025022Y0092400D03*
X0025022Y0092500D03*
X0024922Y0092700D03*
X0024822Y0092900D03*
X0024822Y0093000D03*
X0024722Y0093200D03*
X0024722Y0093300D03*
X0024622Y0093400D03*
X0024622Y0093500D03*
X0024522Y0093800D03*
X0024322Y0117300D03*
X0024522Y0117900D03*
X0024522Y0118000D03*
X0024622Y0118200D03*
X0024722Y0118500D03*
X0024822Y0118700D03*
X0024822Y0118800D03*
X0024922Y0119000D03*
X0024922Y0119100D03*
X0025022Y0119200D03*
X0025022Y0119300D03*
X0025122Y0119500D03*
X0093722Y0119500D03*
X0093822Y0119200D03*
X0093922Y0119100D03*
X0093922Y0119000D03*
X0093922Y0118900D03*
X0094022Y0118700D03*
X0094122Y0118500D03*
X0094222Y0118300D03*
X0094222Y0118200D03*
X0094322Y0117800D03*
X0065222Y0145300D03*
X0053322Y0145200D03*
D216*
X0047672Y0140400D03*
X0070872Y0140600D03*
X0048472Y0122200D03*
X0073672Y0092600D03*
D217*
X0094072Y0093100D03*
X0094272Y0093600D03*
X0094272Y0093700D03*
X0094372Y0093900D03*
X0094372Y0094000D03*
X0094372Y0094100D03*
X0094472Y0094200D03*
X0094472Y0094300D03*
X0094572Y0094400D03*
X0094572Y0094500D03*
X0094572Y0094600D03*
X0094672Y0094800D03*
X0094672Y0094900D03*
X0094872Y0095500D03*
X0094772Y0116600D03*
X0094672Y0116800D03*
X0094672Y0116900D03*
X0094572Y0117100D03*
X0094572Y0117200D03*
X0094572Y0117300D03*
X0094472Y0117400D03*
X0094472Y0117500D03*
X0094472Y0117600D03*
X0094372Y0117700D03*
X0094372Y0117900D03*
X0094272Y0118000D03*
X0094272Y0118100D03*
X0094172Y0118400D03*
X0094072Y0118600D03*
X0024772Y0118600D03*
X0024672Y0118400D03*
X0024672Y0118300D03*
X0024572Y0118100D03*
X0024472Y0117800D03*
X0024472Y0117700D03*
X0024372Y0117600D03*
X0024372Y0117500D03*
X0024272Y0117200D03*
X0024172Y0116900D03*
X0024172Y0116800D03*
X0024072Y0116600D03*
X0024072Y0095200D03*
X0024072Y0095100D03*
X0024172Y0094900D03*
X0024172Y0094800D03*
X0024272Y0094600D03*
X0024272Y0094500D03*
X0024272Y0094400D03*
X0024372Y0094300D03*
X0024372Y0094200D03*
X0024372Y0094100D03*
X0024472Y0094000D03*
X0024472Y0093900D03*
X0024572Y0093700D03*
X0024572Y0093600D03*
X0024772Y0093100D03*
D218*
X0023622Y0096700D03*
X0023322Y0097900D03*
X0023222Y0098400D03*
X0023222Y0098500D03*
X0023222Y0098600D03*
X0023122Y0098900D03*
X0023122Y0099000D03*
X0023122Y0099200D03*
X0023022Y0099400D03*
X0023022Y0099500D03*
X0023022Y0099600D03*
X0023022Y0099700D03*
X0022922Y0100000D03*
X0022922Y0100100D03*
X0022922Y0100200D03*
X0022922Y0100300D03*
X0022822Y0100600D03*
X0022822Y0100700D03*
X0022822Y0100800D03*
X0022822Y0101000D03*
X0022822Y0101100D03*
X0022722Y0101400D03*
X0022722Y0101600D03*
X0022722Y0101800D03*
X0022622Y0102200D03*
X0022622Y0102400D03*
X0022622Y0102600D03*
X0022622Y0102700D03*
X0022622Y0102900D03*
X0022522Y0103500D03*
X0022522Y0103700D03*
X0022522Y0108100D03*
X0022622Y0108800D03*
X0022622Y0109000D03*
X0022622Y0109100D03*
X0022622Y0109300D03*
X0022622Y0109700D03*
X0022722Y0109900D03*
X0022722Y0110000D03*
X0022722Y0110100D03*
X0022722Y0110200D03*
X0022722Y0110300D03*
X0022722Y0110500D03*
X0022822Y0110600D03*
X0022822Y0110800D03*
X0022822Y0110900D03*
X0022822Y0111000D03*
X0022822Y0111200D03*
X0022922Y0111300D03*
X0022922Y0111500D03*
X0022922Y0111600D03*
X0022922Y0111700D03*
X0022922Y0111800D03*
X0023022Y0112000D03*
X0023022Y0112100D03*
X0023022Y0112200D03*
X0023022Y0112300D03*
X0023122Y0112600D03*
X0023122Y0112700D03*
X0023122Y0112800D03*
X0023122Y0112900D03*
X0023222Y0113000D03*
X0023222Y0113200D03*
X0023222Y0113400D03*
X0023322Y0113600D03*
X0023322Y0113700D03*
X0095222Y0115000D03*
X0095522Y0113700D03*
X0095522Y0113600D03*
X0095622Y0113300D03*
X0095622Y0113200D03*
X0095622Y0113100D03*
X0095722Y0113000D03*
X0095722Y0112800D03*
X0095722Y0112600D03*
X0095822Y0112300D03*
X0095822Y0112200D03*
X0095822Y0112100D03*
X0095822Y0112000D03*
X0095922Y0111900D03*
X0095822Y0111800D03*
X0095922Y0111700D03*
X0095922Y0111600D03*
X0095922Y0111500D03*
X0095922Y0111400D03*
X0096022Y0111100D03*
X0096022Y0111000D03*
X0096022Y0110900D03*
X0096022Y0110700D03*
X0096022Y0110600D03*
X0096122Y0110500D03*
X0096122Y0110200D03*
X0096122Y0110000D03*
X0096122Y0109800D03*
X0096222Y0109500D03*
X0096222Y0109300D03*
X0096222Y0109100D03*
X0096222Y0109000D03*
X0096222Y0108800D03*
X0096322Y0103700D03*
X0096322Y0103500D03*
X0096222Y0103200D03*
X0096222Y0102600D03*
X0096222Y0102400D03*
X0096222Y0102200D03*
X0096122Y0101800D03*
X0096122Y0101700D03*
X0096122Y0101600D03*
X0096122Y0101400D03*
X0096122Y0101300D03*
X0096022Y0100900D03*
X0096022Y0100800D03*
X0096022Y0100700D03*
X0096022Y0100500D03*
X0095922Y0100400D03*
X0095922Y0100300D03*
X0095922Y0100200D03*
X0095922Y0100100D03*
X0095922Y0100000D03*
X0095822Y0099600D03*
X0095822Y0099500D03*
X0095822Y0099400D03*
X0095722Y0099200D03*
X0095722Y0099000D03*
X0095722Y0098900D03*
X0095622Y0098700D03*
X0095622Y0098500D03*
X0095622Y0098400D03*
X0095522Y0098200D03*
X0095522Y0098000D03*
D219*
X0041722Y0137600D03*
X0049722Y0142600D03*
D220*
X0046122Y0139000D03*
D221*
X0046622Y0139100D03*
X0071822Y0139400D03*
D222*
X0071872Y0139200D03*
D223*
X0071522Y0139700D03*
D224*
X0047472Y0140100D03*
D225*
X0071122Y0140200D03*
D226*
X0110859Y0071112D02*
X0113086Y0071112D01*
X0137584Y0046614D01*
X0137584Y0044386D01*
X0113086Y0019888D01*
X0110859Y0019888D01*
X0086361Y0044386D01*
X0086361Y0046614D01*
X0110859Y0071112D01*
X0069016Y0055559D02*
X0067441Y0055559D01*
X0067441Y0050441D01*
X0061929Y0050441D01*
X0067441Y0050441D02*
X0069016Y0050441D01*
X0067441Y0055559D02*
X0061929Y0055559D01*
X0138421Y0027511D02*
X0142040Y0023892D01*
X0131601Y0013453D02*
X0127982Y0017072D01*
X0153961Y0041106D02*
X0153961Y0044256D01*
X0156323Y0044256D01*
X0162622Y0044256D02*
X0164984Y0044256D01*
X0164984Y0041106D01*
D227*
X0088588Y0045500D02*
X0088590Y0045567D01*
X0088596Y0045633D01*
X0088606Y0045699D01*
X0088620Y0045764D01*
X0088637Y0045828D01*
X0088659Y0045891D01*
X0088684Y0045953D01*
X0088713Y0046013D01*
X0088746Y0046071D01*
X0088781Y0046127D01*
X0088821Y0046181D01*
X0088863Y0046232D01*
X0088908Y0046281D01*
X0088956Y0046327D01*
X0089007Y0046370D01*
X0089060Y0046410D01*
X0089116Y0046447D01*
X0089174Y0046480D01*
X0089233Y0046510D01*
X0089294Y0046536D01*
X0089357Y0046559D01*
X0089421Y0046577D01*
X0089486Y0046592D01*
X0089552Y0046603D01*
X0089618Y0046610D01*
X0089684Y0046613D01*
X0089751Y0046612D01*
X0089817Y0046607D01*
X0089883Y0046598D01*
X0089949Y0046585D01*
X0090013Y0046568D01*
X0090076Y0046548D01*
X0090138Y0046523D01*
X0090199Y0046495D01*
X0090258Y0046464D01*
X0090314Y0046429D01*
X0090369Y0046391D01*
X0090421Y0046349D01*
X0090470Y0046304D01*
X0090517Y0046257D01*
X0090561Y0046207D01*
X0090601Y0046154D01*
X0090639Y0046099D01*
X0090673Y0046042D01*
X0090704Y0045983D01*
X0090731Y0045922D01*
X0090754Y0045860D01*
X0090774Y0045796D01*
X0090790Y0045731D01*
X0090802Y0045666D01*
X0090810Y0045600D01*
X0090814Y0045533D01*
X0090814Y0045467D01*
X0090810Y0045400D01*
X0090802Y0045334D01*
X0090790Y0045269D01*
X0090774Y0045204D01*
X0090754Y0045140D01*
X0090731Y0045078D01*
X0090704Y0045017D01*
X0090673Y0044958D01*
X0090639Y0044901D01*
X0090601Y0044846D01*
X0090561Y0044793D01*
X0090517Y0044743D01*
X0090470Y0044696D01*
X0090421Y0044651D01*
X0090369Y0044609D01*
X0090314Y0044571D01*
X0090257Y0044536D01*
X0090199Y0044505D01*
X0090138Y0044477D01*
X0090076Y0044452D01*
X0090013Y0044432D01*
X0089949Y0044415D01*
X0089883Y0044402D01*
X0089817Y0044393D01*
X0089751Y0044388D01*
X0089684Y0044387D01*
X0089618Y0044390D01*
X0089552Y0044397D01*
X0089486Y0044408D01*
X0089421Y0044423D01*
X0089357Y0044441D01*
X0089294Y0044464D01*
X0089233Y0044490D01*
X0089174Y0044520D01*
X0089116Y0044553D01*
X0089060Y0044590D01*
X0089007Y0044630D01*
X0088956Y0044673D01*
X0088908Y0044719D01*
X0088863Y0044768D01*
X0088821Y0044819D01*
X0088781Y0044873D01*
X0088746Y0044929D01*
X0088713Y0044987D01*
X0088684Y0045047D01*
X0088659Y0045109D01*
X0088637Y0045172D01*
X0088620Y0045236D01*
X0088606Y0045301D01*
X0088596Y0045367D01*
X0088590Y0045433D01*
X0088588Y0045500D01*
X0035283Y0040913D02*
X0035283Y0031858D01*
X0028197Y0031858D01*
X0018748Y0031858D02*
X0015992Y0031858D01*
X0035283Y0055087D02*
X0035283Y0064142D01*
X0028197Y0064142D01*
X0018748Y0064142D02*
X0015992Y0064142D01*
D228*
X0064322Y0025436D02*
X0064322Y0022967D01*
X0064322Y0024201D02*
X0060619Y0024201D01*
X0061854Y0022967D01*
D229*
X0062772Y0009204D02*
X0064240Y0009204D01*
X0063506Y0009204D02*
X0063506Y0004800D01*
X0062772Y0004800D02*
X0064240Y0004800D01*
X0065842Y0005534D02*
X0066576Y0004800D01*
X0068044Y0004800D01*
X0068778Y0005534D01*
X0068778Y0006268D01*
X0068044Y0007002D01*
X0066576Y0007002D01*
X0065842Y0007736D01*
X0065842Y0008470D01*
X0066576Y0009204D01*
X0068044Y0009204D01*
X0068778Y0008470D01*
X0070446Y0009204D02*
X0072648Y0009204D01*
X0073381Y0008470D01*
X0073381Y0007002D01*
X0072648Y0006268D01*
X0070446Y0006268D01*
X0070446Y0004800D02*
X0070446Y0009204D01*
X0075050Y0007736D02*
X0076517Y0009204D01*
X0076517Y0004800D01*
X0075050Y0004800D02*
X0077985Y0004800D01*
D230*
X0168496Y0141591D03*
X0171449Y0141591D03*
D231*
X0169972Y0141591D03*
D232*
X0164196Y0144750D02*
X0160259Y0144750D01*
X0160259Y0150655D01*
X0164196Y0150655D01*
X0157750Y0149671D02*
X0156766Y0150655D01*
X0154798Y0150655D01*
X0153813Y0149671D01*
X0153813Y0145734D01*
X0154798Y0144750D01*
X0156766Y0144750D01*
X0157750Y0145734D01*
X0157750Y0147703D01*
X0155782Y0147703D01*
X0160259Y0147703D02*
X0162227Y0147703D01*
X0151305Y0147703D02*
X0147368Y0147703D01*
X0147368Y0148687D02*
X0149336Y0150655D01*
X0151305Y0148687D01*
X0151305Y0144750D01*
X0147368Y0144750D02*
X0147368Y0148687D01*
X0144859Y0149671D02*
X0144859Y0147703D01*
X0143875Y0146718D01*
X0140922Y0146718D01*
X0140922Y0144750D02*
X0140922Y0150655D01*
X0143875Y0150655D01*
X0144859Y0149671D01*
M02*
