%
M48
M72
T01C0.01500
T02C0.03543
T03C0.04000
T04C0.05906
T05C0.06750
T06C0.11024
T07C0.15750
%
T01
X85472Y10500
X98972Y10000
X111972Y8000
X125472Y12000
X143972Y16000
X149972Y33000
X155472Y33000
X142972Y43500
X150472Y47000
X145472Y57500
X140472Y60500
X135472Y64500
X142972Y67500
X127972Y76500
X90472Y68500
X81472Y59500
X77972Y48500
X82972Y45500
X71972Y39000
X111972Y45500
X240472Y61000
X311472Y77500
X257972Y94000
X166472Y97500
X172972Y133500
X169972Y149500
T02
X56472Y19500
X46472Y19500
X36472Y19500
X36472Y9500
X46472Y9500
X56472Y9500
T03
X199449Y26996
X209449Y26996
X272283Y26996
X282283Y26996
X345118Y26996
X355118Y26996
X417953Y26996
X427953Y26996
X427953Y99831
X417953Y99831
X353150Y99831
X343150Y99831
X282283Y99831
X272283Y99831
X209449Y99831
X199449Y99831
T04
X189449Y124831
X214449Y134831
X262283Y124831
X287283Y134831
X333150Y124831
X358150Y134831
X407953Y124831
X432953Y134831
X432953Y61996
X407953Y51996
X360118Y61996
X335118Y51996
X287283Y61996
X262283Y51996
X214449Y61996
X189449Y51996
T05
X184449Y41996
X224449Y41996
X257283Y41996
X297283Y41996
X330118Y41996
X370118Y41996
X402953Y41996
X442953Y41996
X442953Y114831
X402953Y114831
X368150Y114831
X328150Y114831
X297283Y114831
X257283Y114831
X224449Y114831
X184449Y114831
T06
X23516Y11469
X240472Y77000
X386472Y77000
X28472Y142500
T07
X204449Y114831
X277283Y114831
X348150Y114831
X422953Y114831
X422953Y41996
X350118Y41996
X277283Y41996
X204449Y41996
M30
